<?xml version="1.0" encoding="utf-8"?>
<!-- Generator: Adobe Illustrator 25.2.1, SVG Export Plug-In . SVG Version: 6.00 Build 0)  -->
<svg version="1.1" id="Capa_1" xmlns="http://www.w3.org/2000/svg" xmlns:xlink="http://www.w3.org/1999/xlink" x="0px" y="0px"
	 viewBox="0 0 532.7 198" style="enable-background:new 0 0 532.7 198;" xml:space="preserve">
<style type="text/css">
	.st0{fill:#EF7B10;}
	.st1{fill:none;stroke:#4B5B6D;stroke-linecap:round;stroke-linejoin:round;stroke-miterlimit:10;stroke-dasharray:0,3;}
	.st2{fill:none;stroke:#4B5B6D;stroke-linecap:round;stroke-linejoin:round;stroke-miterlimit:10;}
	.st3{fill:none;stroke:#4B5B6D;stroke-linecap:round;stroke-linejoin:round;stroke-miterlimit:10;stroke-dasharray:0,3.002;}
	.st4{clip-path:url(#SVGID_2_);fill:none;stroke:#4B5B6D;stroke-linecap:round;stroke-linejoin:round;stroke-miterlimit:10;}
	.st5{fill:#FFF3E9;}
	.st6{fill:none;stroke:#FFFFFF;stroke-width:0.5;stroke-miterlimit:10;}
	.st7{fill:#FFFFFF;}
	.st8{fill:#4A4A49;}
</style>
<g>
	<g>
		<path class="st0" d="M68.4,33.9h-3.5L64,31.2h-4.8l-0.9,2.6h-3.4l4.8-13.1h3.9L68.4,33.9z M63.2,28.8l-1.6-4.7l-1.6,4.7H63.2z"/>
		<path class="st0" d="M80.2,33.9H77V29c0-0.4,0-0.8-0.1-1.2c0-0.4-0.1-0.7-0.2-0.9c-0.1-0.2-0.3-0.4-0.5-0.5s-0.5-0.1-0.9-0.1
			c-0.3,0-0.6,0-0.9,0.1s-0.6,0.2-1,0.4v7h-3.2V24h3.2v1.1c0.6-0.4,1.1-0.8,1.6-1c0.5-0.2,1.1-0.4,1.7-0.4c1.1,0,1.9,0.3,2.5,0.9
			c0.6,0.6,0.9,1.5,0.9,2.8V33.9z"/>
		<path class="st0" d="M89.5,33.8c-0.3,0.1-0.7,0.2-1.1,0.2s-0.8,0.1-1.4,0.1c-1.2,0-2.1-0.2-2.7-0.7s-0.9-1.4-0.9-2.6v-4.6h-1.3V24
			h1.3v-2.8h3.2V24h3v2.1h-3v3.5c0,0.3,0,0.6,0,0.9s0.1,0.5,0.1,0.7c0.1,0.2,0.2,0.4,0.4,0.5c0.2,0.1,0.5,0.2,0.9,0.2
			c0.2,0,0.4,0,0.6-0.1c0.3-0.1,0.5-0.1,0.6-0.2h0.3V33.8z"/>
		<path class="st0" d="M94.9,22.6h-3.3v-2.4h3.3V22.6z M94.8,33.9h-3.2V24h3.2V33.9z"/>
		<path class="st0" d="M107.5,32.8c0,0.9-0.1,1.7-0.4,2.3s-0.6,1.1-1.1,1.5c-0.5,0.4-1,0.6-1.7,0.8c-0.7,0.2-1.4,0.2-2.3,0.2
			c-0.7,0-1.4,0-2-0.1s-1.2-0.2-1.7-0.3v-2.5h0.4c0.4,0.2,0.9,0.3,1.4,0.4c0.6,0.1,1.1,0.2,1.5,0.2c0.6,0,1.1-0.1,1.4-0.2
			s0.6-0.3,0.8-0.5c0.2-0.2,0.3-0.4,0.4-0.7c0.1-0.3,0.1-0.6,0.1-1.1v-0.2c-0.4,0.3-0.8,0.6-1.3,0.7s-1,0.3-1.5,0.3
			c-1.4,0-2.4-0.4-3.2-1.2c-0.7-0.8-1.1-2.1-1.1-3.8c0-0.8,0.1-1.5,0.3-2.1c0.2-0.6,0.6-1.1,1-1.5c0.4-0.4,0.9-0.7,1.4-1
			c0.6-0.2,1.1-0.3,1.7-0.3c0.5,0,1,0.1,1.5,0.2s0.8,0.3,1.2,0.5l0.1-0.4h3.1V32.8z M104.4,30.8v-4.5c-0.2-0.1-0.4-0.1-0.7-0.2
			c-0.3,0-0.5-0.1-0.7-0.1c-0.8,0-1.5,0.2-1.9,0.7c-0.4,0.5-0.6,1.1-0.6,2c0,0.9,0.2,1.6,0.5,2c0.4,0.4,0.9,0.6,1.6,0.6
			c0.3,0,0.6,0,0.9-0.1C103.8,31.1,104.1,30.9,104.4,30.8z"/>
		<path class="st0" d="M120.5,33.9h-3.2v-1.1c-0.6,0.4-1.1,0.8-1.6,1c-0.5,0.2-1.1,0.3-1.7,0.3c-1.1,0-1.9-0.3-2.5-0.9
			c-0.6-0.6-0.9-1.6-0.9-2.8V24h3.2v4.9c0,0.5,0,0.9,0,1.2s0.1,0.6,0.2,0.8c0.1,0.2,0.3,0.4,0.5,0.5s0.5,0.1,0.9,0.1
			c0.3,0,0.6,0,0.9-0.1s0.6-0.2,0.9-0.4v-7h3.2V33.9z M114.5,22.6h-2.6v-2.4h2.6V22.6z M119.2,22.6h-2.6v-2.4h2.6V22.6z"/>
		<path class="st0" d="M133.4,29.5h-7.2c0,0.8,0.3,1.4,0.9,1.8s1.3,0.6,2.4,0.6c0.7,0,1.3-0.1,1.9-0.4s1.1-0.5,1.5-0.8h0.4v2.5
			c-0.7,0.3-1.4,0.5-2,0.6s-1.3,0.2-2.1,0.2c-2,0-3.5-0.4-4.6-1.3c-1.1-0.9-1.6-2.2-1.6-3.8c0-1.6,0.5-2.9,1.5-3.9
			c1-1,2.4-1.4,4.1-1.4c1.6,0,2.8,0.4,3.6,1.2c0.8,0.8,1.2,2,1.2,3.5V29.5z M130.2,27.7c0-0.7-0.2-1.2-0.5-1.5s-0.8-0.5-1.5-0.5
			c-0.6,0-1.1,0.2-1.5,0.5s-0.6,0.8-0.7,1.5H130.2z"/>
		<path class="st0" d="M145.4,33.9h-3.2v-1c-0.5,0.4-1.1,0.8-1.5,1s-1,0.3-1.6,0.3c-1.2,0-2.2-0.5-2.9-1.4c-0.7-0.9-1.1-2.2-1.1-3.7
			c0-0.8,0.1-1.6,0.4-2.2s0.6-1.2,1-1.7c0.4-0.4,0.9-0.8,1.4-1c0.6-0.2,1.1-0.4,1.7-0.4c0.6,0,1.1,0.1,1.5,0.2s0.8,0.3,1.2,0.5v-4.2
			h3.2V33.9z M142.2,31.2v-4.9c-0.2-0.1-0.5-0.2-0.7-0.2s-0.5-0.1-0.7-0.1c-0.8,0-1.5,0.3-1.9,0.8s-0.6,1.2-0.6,2.2
			c0,1,0.2,1.7,0.5,2.1c0.3,0.4,0.9,0.7,1.6,0.7c0.3,0,0.6-0.1,0.9-0.2C141.7,31.5,142,31.4,142.2,31.2z"/>
		<path class="st0" d="M154.5,32.8c-0.2,0.1-0.4,0.3-0.6,0.5s-0.5,0.3-0.7,0.4c-0.3,0.1-0.6,0.2-1,0.3s-0.7,0.1-1.1,0.1
			c-0.9,0-1.7-0.3-2.4-0.9s-0.9-1.3-0.9-2.2c0-0.7,0.2-1.3,0.5-1.8s0.8-0.8,1.4-1.1c0.6-0.3,1.3-0.5,2.2-0.6s1.8-0.2,2.7-0.2v-0.1
			c0-0.5-0.2-0.9-0.7-1.1s-1.1-0.3-2-0.3c-0.5,0-1.1,0.1-1.7,0.3c-0.6,0.2-1,0.3-1.3,0.4h-0.3v-2.4c0.3-0.1,0.9-0.2,1.6-0.3
			s1.5-0.2,2.3-0.2c1.8,0,3.1,0.3,3.9,0.8c0.8,0.6,1.2,1.4,1.2,2.6v6.7h-3.1V32.8z M154.5,31.3v-2c-0.4,0-0.9,0.1-1.4,0.1
			s-0.9,0.1-1.1,0.2c-0.3,0.1-0.6,0.2-0.7,0.4s-0.3,0.4-0.3,0.7c0,0.2,0,0.4,0.1,0.5c0,0.1,0.1,0.3,0.3,0.4c0.1,0.1,0.3,0.2,0.5,0.3
			s0.5,0.1,0.9,0.1c0.3,0,0.6-0.1,1-0.2C154,31.7,154.3,31.5,154.5,31.3z"/>
		<path class="st0" d="M170.3,33.9h-3.2v-1c-0.5,0.4-1.1,0.8-1.5,1s-1,0.3-1.6,0.3c-1.2,0-2.2-0.5-2.9-1.4c-0.7-0.9-1.1-2.2-1.1-3.7
			c0-0.8,0.1-1.6,0.4-2.2s0.6-1.2,1-1.7c0.4-0.4,0.9-0.8,1.4-1c0.6-0.2,1.1-0.4,1.7-0.4c0.6,0,1.1,0.1,1.5,0.2s0.8,0.3,1.2,0.5v-4.2
			h3.2V33.9z M167.2,31.2v-4.9c-0.2-0.1-0.5-0.2-0.7-0.2s-0.5-0.1-0.7-0.1c-0.8,0-1.5,0.3-1.9,0.8s-0.6,1.2-0.6,2.2
			c0,1,0.2,1.7,0.5,2.1c0.3,0.4,0.9,0.7,1.6,0.7c0.3,0,0.6-0.1,0.9-0.2C166.6,31.5,166.9,31.4,167.2,31.2z"/>
		<path class="st0" d="M190.1,28.8c0,0.8-0.1,1.6-0.4,2.2c-0.2,0.7-0.6,1.2-1,1.7c-0.4,0.5-0.9,0.8-1.4,1s-1.1,0.4-1.7,0.4
			c-0.6,0-1-0.1-1.4-0.2c-0.4-0.1-0.8-0.3-1.2-0.5v4.1h-3.2V24h3.2v1c0.5-0.4,1-0.7,1.5-0.9s1.1-0.4,1.8-0.4c1.2,0,2.2,0.5,2.9,1.4
			C189.8,26,190.1,27.2,190.1,28.8z M186.9,28.9c0-1-0.2-1.7-0.5-2.1c-0.3-0.4-0.8-0.6-1.6-0.6c-0.3,0-0.6,0-0.9,0.1
			c-0.3,0.1-0.6,0.2-0.9,0.4v5c0.2,0.1,0.4,0.1,0.7,0.2s0.5,0,0.7,0c0.8,0,1.5-0.2,1.9-0.7S186.9,29.9,186.9,28.9z"/>
		<path class="st0" d="M199.7,27h-0.3c-0.1,0-0.4-0.1-0.6-0.1s-0.5,0-0.7,0c-0.5,0-0.8,0-1.2,0.1c-0.3,0.1-0.7,0.2-1.1,0.3v6.6h-3.2
			V24h3.2v1.5c0.7-0.6,1.3-1,1.8-1.2c0.5-0.2,1-0.3,1.4-0.3c0.1,0,0.2,0,0.4,0c0.1,0,0.3,0,0.4,0V27z"/>
		<path class="st0" d="M211.8,29c0,1.6-0.5,2.9-1.4,3.8c-0.9,0.9-2.3,1.4-4,1.4s-3-0.5-4-1.4c-0.9-0.9-1.4-2.2-1.4-3.8
			c0-1.6,0.5-2.9,1.4-3.8s2.3-1.4,4-1.4c1.7,0,3.1,0.5,4,1.4S211.8,27.3,211.8,29z M207.9,31.4c0.2-0.3,0.4-0.6,0.5-0.9
			c0.1-0.4,0.2-0.8,0.2-1.5c0-0.6-0.1-1.1-0.2-1.5s-0.3-0.7-0.4-0.9c-0.2-0.2-0.4-0.4-0.7-0.5s-0.5-0.1-0.9-0.1s-0.6,0-0.8,0.1
			s-0.5,0.2-0.7,0.5c-0.2,0.2-0.3,0.5-0.5,0.9s-0.2,0.9-0.2,1.5c0,0.5,0,1,0.1,1.4c0.1,0.4,0.2,0.7,0.4,1c0.2,0.2,0.4,0.4,0.7,0.5
			s0.6,0.2,0.9,0.2c0.3,0,0.6,0,0.8-0.1C207.5,31.8,207.7,31.6,207.9,31.4z"/>
		<path class="st0" d="M223.8,26.9v7h-3.2V29c0-0.5,0-0.9,0-1.2s-0.1-0.6-0.2-0.8s-0.3-0.4-0.5-0.5c-0.2-0.1-0.5-0.1-0.9-0.1
			c-0.3,0-0.6,0.1-0.9,0.2c-0.3,0.1-0.6,0.3-0.8,0.4v7h-3.2V24h3.2v1.1c0.5-0.4,1.1-0.8,1.6-1s1-0.4,1.7-0.4c0.6,0,1.2,0.1,1.7,0.4
			c0.5,0.3,0.9,0.7,1.2,1.3c0.6-0.5,1.2-1,1.8-1.3c0.6-0.3,1.2-0.5,1.8-0.5c1.1,0,1.9,0.3,2.4,1c0.6,0.6,0.8,1.6,0.8,2.8v6.4h-3.2
			V29c0-0.5,0-0.9,0-1.2s-0.1-0.6-0.2-0.8c-0.1-0.2-0.3-0.4-0.5-0.5c-0.2-0.1-0.5-0.1-0.9-0.1c-0.3,0-0.5,0-0.8,0.1
			C224.5,26.5,224.2,26.7,223.8,26.9z"/>
		<path class="st0" d="M243.1,29.5h-7.2c0,0.8,0.3,1.4,0.9,1.8s1.3,0.6,2.4,0.6c0.7,0,1.3-0.1,1.9-0.4s1.1-0.5,1.5-0.8h0.4v2.5
			c-0.7,0.3-1.4,0.5-2,0.6s-1.3,0.2-2.1,0.2c-2,0-3.5-0.4-4.6-1.3c-1.1-0.9-1.6-2.2-1.6-3.8c0-1.6,0.5-2.9,1.5-3.9
			c1-1,2.4-1.4,4.1-1.4c1.6,0,2.8,0.4,3.6,1.2c0.8,0.8,1.2,2,1.2,3.5V29.5z M240,27.7c0-0.7-0.2-1.2-0.5-1.5s-0.8-0.5-1.5-0.5
			c-0.6,0-1.1,0.2-1.5,0.5s-0.6,0.8-0.7,1.5H240z"/>
		<path class="st0" d="M255.1,33.9h-3.2v-1c-0.5,0.4-1.1,0.8-1.5,1s-1,0.3-1.6,0.3c-1.2,0-2.2-0.5-2.9-1.4c-0.7-0.9-1.1-2.2-1.1-3.7
			c0-0.8,0.1-1.6,0.4-2.2s0.6-1.2,1-1.7c0.4-0.4,0.9-0.8,1.4-1c0.6-0.2,1.1-0.4,1.7-0.4c0.6,0,1.1,0.1,1.5,0.2s0.8,0.3,1.2,0.5v-4.2
			h3.2V33.9z M251.9,31.2v-4.9c-0.2-0.1-0.5-0.2-0.7-0.2c-0.2,0-0.5-0.1-0.7-0.1c-0.8,0-1.5,0.3-1.9,0.8s-0.6,1.2-0.6,2.2
			c0,1,0.2,1.7,0.5,2.1c0.3,0.4,0.9,0.7,1.6,0.7c0.3,0,0.6-0.1,0.9-0.2C251.4,31.5,251.7,31.4,251.9,31.2z"/>
		<path class="st0" d="M261.5,22.6h-3.3v-2.4h3.3V22.6z M261.4,33.9h-3.2V24h3.2V33.9z"/>
		<path class="st0" d="M274.7,29c0,1.6-0.5,2.9-1.4,3.8c-0.9,0.9-2.3,1.4-4,1.4s-3-0.5-4-1.4c-0.9-0.9-1.4-2.2-1.4-3.8
			c0-1.6,0.5-2.9,1.4-3.8s2.3-1.4,4-1.4c1.7,0,3.1,0.5,4,1.4S274.7,27.3,274.7,29z M270.8,31.4c0.2-0.3,0.4-0.6,0.5-0.9
			c0.1-0.4,0.2-0.8,0.2-1.5c0-0.6-0.1-1.1-0.2-1.5s-0.3-0.7-0.4-0.9c-0.2-0.2-0.4-0.4-0.7-0.5s-0.5-0.1-0.9-0.1s-0.6,0-0.8,0.1
			s-0.5,0.2-0.7,0.5c-0.2,0.2-0.3,0.5-0.5,0.9s-0.2,0.9-0.2,1.5c0,0.5,0,1,0.1,1.4c0.1,0.4,0.2,0.7,0.4,1c0.2,0.2,0.4,0.4,0.7,0.5
			s0.6,0.2,0.9,0.2c0.3,0,0.6,0,0.8-0.1C270.4,31.8,270.6,31.6,270.8,31.4z"/>
	</g>
	<g>
		<path class="st0" d="M63.2,50.7h-2.5v-0.8c-0.4,0.3-0.8,0.6-1.2,0.8s-0.8,0.2-1.3,0.2c-0.9,0-1.7-0.4-2.2-1.1
			c-0.6-0.7-0.8-1.7-0.8-2.9c0-0.7,0.1-1.2,0.3-1.7c0.2-0.5,0.4-0.9,0.8-1.3c0.3-0.3,0.7-0.6,1.1-0.8c0.4-0.2,0.9-0.3,1.3-0.3
			c0.5,0,0.8,0,1.1,0.1c0.3,0.1,0.6,0.2,0.9,0.4v-3.3h2.5V50.7z M60.8,48.6v-3.8c-0.2-0.1-0.4-0.1-0.5-0.2s-0.4,0-0.5,0
			c-0.6,0-1.1,0.2-1.5,0.6c-0.3,0.4-0.5,1-0.5,1.7c0,0.8,0.1,1.3,0.4,1.6c0.3,0.3,0.7,0.5,1.2,0.5c0.2,0,0.5,0,0.7-0.1
			C60.4,48.8,60.6,48.7,60.8,48.6z"/>
		<path class="st0" d="M73.2,47.3h-5.6c0,0.6,0.3,1.1,0.7,1.4s1,0.5,1.9,0.5c0.5,0,1-0.1,1.5-0.3s0.9-0.4,1.2-0.6h0.3v2
			c-0.6,0.2-1.1,0.4-1.6,0.5s-1,0.2-1.6,0.2c-1.5,0-2.7-0.3-3.5-1s-1.2-1.7-1.2-3c0-1.3,0.4-2.3,1.2-3c0.8-0.7,1.8-1.1,3.2-1.1
			c1.2,0,2.2,0.3,2.8,0.9c0.6,0.6,0.9,1.5,0.9,2.7V47.3z M70.8,45.9c0-0.5-0.1-0.9-0.4-1.2s-0.6-0.4-1.1-0.4c-0.5,0-0.9,0.1-1.2,0.4
			s-0.5,0.6-0.5,1.2H70.8z"/>
		<path class="st0" d="M82.5,50.7H80V40.1h2.5V50.7z"/>
		<path class="st0" d="M89.6,49.9c-0.1,0.1-0.3,0.2-0.5,0.4s-0.4,0.3-0.6,0.3c-0.2,0.1-0.5,0.2-0.8,0.2c-0.3,0.1-0.5,0.1-0.9,0.1
			c-0.7,0-1.3-0.2-1.8-0.7s-0.7-1-0.7-1.7c0-0.6,0.1-1,0.4-1.4s0.6-0.6,1.1-0.8c0.5-0.2,1-0.4,1.7-0.4s1.4-0.2,2.1-0.2v0
			c0-0.4-0.2-0.7-0.5-0.9c-0.3-0.2-0.9-0.2-1.5-0.2c-0.4,0-0.8,0.1-1.3,0.2c-0.5,0.1-0.8,0.3-1,0.3h-0.2v-1.9
			c0.3-0.1,0.7-0.1,1.3-0.2c0.6-0.1,1.2-0.1,1.8-0.1c1.4,0,2.4,0.2,3,0.6c0.6,0.4,0.9,1.1,0.9,2v5.2h-2.4V49.9z M89.6,48.7v-1.6
			c-0.3,0-0.7,0.1-1.1,0.1s-0.7,0.1-0.9,0.2c-0.2,0.1-0.4,0.2-0.6,0.3c-0.1,0.1-0.2,0.3-0.2,0.6c0,0.2,0,0.3,0,0.4
			c0,0.1,0.1,0.2,0.2,0.3c0.1,0.1,0.2,0.2,0.4,0.2s0.4,0.1,0.7,0.1c0.2,0,0.5,0,0.7-0.1C89.2,49,89.4,48.8,89.6,48.7z"/>
		<path class="st0" d="M104.4,41.9h-0.2c-0.1,0-0.3-0.1-0.4-0.1c-0.2,0-0.4-0.1-0.6-0.1c-0.5,0-0.8,0.1-1,0.3s-0.3,0.5-0.3,1V43h1.9
			v1.7H102v6h-2.5v-6h-1.1V43h1.1v-0.2c0-0.9,0.2-1.6,0.7-2.1s1.3-0.7,2.3-0.7c0.4,0,0.7,0,1,0c0.3,0,0.6,0.1,0.8,0.1V41.9z"/>
		<path class="st0" d="M113.1,50.7h-2.5v-0.8c-0.5,0.3-0.9,0.6-1.2,0.8c-0.4,0.2-0.8,0.3-1.4,0.3c-0.8,0-1.5-0.2-2-0.7
			s-0.7-1.2-0.7-2.2v-5h2.5v3.8c0,0.4,0,0.7,0,1c0,0.3,0.1,0.5,0.2,0.6c0.1,0.2,0.2,0.3,0.4,0.4s0.4,0.1,0.7,0.1
			c0.2,0,0.4,0,0.7-0.1s0.5-0.2,0.7-0.3V43h2.5V50.7z"/>
		<path class="st0" d="M123.1,47.3h-5.6c0,0.6,0.3,1.1,0.7,1.4s1,0.5,1.9,0.5c0.5,0,1-0.1,1.5-0.3s0.9-0.4,1.2-0.6h0.3v2
			c-0.6,0.2-1.1,0.4-1.6,0.5s-1,0.2-1.6,0.2c-1.5,0-2.7-0.3-3.5-1s-1.2-1.7-1.2-3c0-1.3,0.4-2.3,1.2-3c0.8-0.7,1.8-1.1,3.2-1.1
			c1.2,0,2.2,0.3,2.8,0.9c0.6,0.6,0.9,1.5,0.9,2.7V47.3z M120.6,45.9c0-0.5-0.1-0.9-0.4-1.2s-0.6-0.4-1.1-0.4
			c-0.5,0-0.9,0.1-1.2,0.4s-0.5,0.6-0.5,1.2H120.6z"/>
		<path class="st0" d="M130.5,45.4h-0.2c-0.1,0-0.3-0.1-0.5-0.1s-0.4,0-0.6,0c-0.4,0-0.7,0-0.9,0.1c-0.3,0-0.6,0.1-0.9,0.2v5.1h-2.5
			V43h2.5v1.1c0.5-0.5,1-0.8,1.4-0.9c0.4-0.2,0.8-0.2,1.1-0.2c0.1,0,0.2,0,0.3,0c0.1,0,0.2,0,0.3,0V45.4z"/>
		<path class="st0" d="M138.6,50.7h-7.2v-1.6l4-4.3h-3.9V43h7v1.6l-4,4.3h4.1V50.7z"/>
		<path class="st0" d="M145.2,49.9c-0.1,0.1-0.3,0.2-0.5,0.4s-0.4,0.3-0.6,0.3c-0.2,0.1-0.5,0.2-0.8,0.2c-0.3,0.1-0.5,0.1-0.9,0.1
			c-0.7,0-1.3-0.2-1.8-0.7s-0.7-1-0.7-1.7c0-0.6,0.1-1,0.4-1.4s0.6-0.6,1.1-0.8c0.5-0.2,1-0.4,1.7-0.4s1.4-0.2,2.1-0.2v0
			c0-0.4-0.2-0.7-0.5-0.9c-0.3-0.2-0.9-0.2-1.5-0.2c-0.4,0-0.8,0.1-1.3,0.2c-0.5,0.1-0.8,0.3-1,0.3h-0.2v-1.9
			c0.3-0.1,0.7-0.1,1.3-0.2c0.6-0.1,1.2-0.1,1.8-0.1c1.4,0,2.4,0.2,3,0.6c0.6,0.4,0.9,1.1,0.9,2v5.2h-2.4V49.9z M145.2,48.7v-1.6
			c-0.3,0-0.7,0.1-1.1,0.1s-0.7,0.1-0.9,0.2c-0.2,0.1-0.4,0.2-0.6,0.3c-0.1,0.1-0.2,0.3-0.2,0.6c0,0.2,0,0.3,0,0.4
			c0,0.1,0.1,0.2,0.2,0.3c0.1,0.1,0.2,0.2,0.4,0.2s0.4,0.1,0.7,0.1c0.2,0,0.5,0,0.7-0.1C144.8,49,145,48.8,145.2,48.7z"/>
		<path class="st0" d="M162.4,50.7h-2.5v-0.8c-0.4,0.3-0.8,0.6-1.2,0.8s-0.8,0.2-1.3,0.2c-0.9,0-1.7-0.4-2.2-1.1
			c-0.6-0.7-0.8-1.7-0.8-2.9c0-0.7,0.1-1.2,0.3-1.7c0.2-0.5,0.4-0.9,0.8-1.3c0.3-0.3,0.7-0.6,1.1-0.8c0.4-0.2,0.9-0.3,1.3-0.3
			c0.5,0,0.8,0,1.1,0.1c0.3,0.1,0.6,0.2,0.9,0.4v-3.3h2.5V50.7z M159.9,48.6v-3.8c-0.2-0.1-0.4-0.1-0.5-0.2s-0.4,0-0.5,0
			c-0.6,0-1.1,0.2-1.5,0.6c-0.3,0.4-0.5,1-0.5,1.7c0,0.8,0.1,1.3,0.4,1.6c0.3,0.3,0.7,0.5,1.2,0.5c0.2,0,0.5,0,0.7-0.1
			C159.5,48.8,159.7,48.7,159.9,48.6z"/>
		<path class="st0" d="M172.4,47.3h-5.6c0,0.6,0.3,1.1,0.7,1.4s1,0.5,1.9,0.5c0.5,0,1-0.1,1.5-0.3s0.9-0.4,1.2-0.6h0.3v2
			c-0.6,0.2-1.1,0.4-1.6,0.5s-1,0.2-1.6,0.2c-1.5,0-2.7-0.3-3.5-1s-1.2-1.7-1.2-3c0-1.3,0.4-2.3,1.2-3c0.8-0.7,1.8-1.1,3.2-1.1
			c1.2,0,2.2,0.3,2.8,0.9c0.6,0.6,0.9,1.5,0.9,2.7V47.3z M170,45.9c0-0.5-0.1-0.9-0.4-1.2s-0.6-0.4-1.1-0.4c-0.5,0-0.9,0.1-1.2,0.4
			s-0.5,0.6-0.5,1.2H170z"/>
		<path class="st0" d="M186.9,43l-3,7.7h-2.8l-2.9-7.7h2.6l1.8,5.3l1.8-5.3H186.9z"/>
		<path class="st0" d="M196,47.3h-5.6c0,0.6,0.3,1.1,0.7,1.4s1,0.5,1.9,0.5c0.5,0,1-0.1,1.5-0.3s0.9-0.4,1.2-0.6h0.3v2
			c-0.6,0.2-1.1,0.4-1.6,0.5s-1,0.2-1.6,0.2c-1.5,0-2.7-0.3-3.5-1s-1.2-1.7-1.2-3c0-1.3,0.4-2.3,1.2-3c0.8-0.7,1.8-1.1,3.2-1.1
			c1.2,0,2.2,0.3,2.8,0.9c0.6,0.6,0.9,1.5,0.9,2.7V47.3z M193.5,45.9c0-0.5-0.1-0.9-0.4-1.2s-0.6-0.4-1.1-0.4
			c-0.5,0-0.9,0.1-1.2,0.4s-0.5,0.6-0.5,1.2H193.5z"/>
		<path class="st0" d="M205.6,50.7h-2.5v-3.8c0-0.3,0-0.6,0-0.9c0-0.3-0.1-0.5-0.2-0.7c-0.1-0.2-0.2-0.3-0.4-0.4s-0.4-0.1-0.7-0.1
			c-0.2,0-0.5,0-0.7,0.1s-0.5,0.2-0.7,0.3v5.4h-2.5V43h2.5v0.8c0.4-0.3,0.9-0.6,1.3-0.8c0.4-0.2,0.8-0.3,1.3-0.3
			c0.8,0,1.5,0.2,1.9,0.7c0.5,0.5,0.7,1.2,0.7,2.2V50.7z"/>
		<path class="st0" d="M212.9,50.6c-0.3,0.1-0.5,0.1-0.8,0.2c-0.3,0-0.7,0.1-1.1,0.1c-1,0-1.7-0.2-2.1-0.6s-0.7-1.1-0.7-2v-3.6h-1
			V43h1v-2.2h2.5V43h2.3v1.7h-2.3v2.7c0,0.3,0,0.5,0,0.7c0,0.2,0,0.4,0.1,0.5c0.1,0.2,0.2,0.3,0.3,0.4s0.4,0.1,0.7,0.1
			c0.1,0,0.3,0,0.5-0.1c0.2-0.1,0.4-0.1,0.4-0.2h0.2V50.6z"/>
		<path class="st0" d="M219.1,49.9c-0.1,0.1-0.3,0.2-0.5,0.4s-0.4,0.3-0.6,0.3c-0.2,0.1-0.5,0.2-0.8,0.2c-0.3,0.1-0.5,0.1-0.9,0.1
			c-0.7,0-1.3-0.2-1.8-0.7s-0.7-1-0.7-1.7c0-0.6,0.1-1,0.4-1.4s0.6-0.6,1.1-0.8c0.5-0.2,1-0.4,1.7-0.4s1.4-0.2,2.1-0.2v0
			c0-0.4-0.2-0.7-0.5-0.9c-0.3-0.2-0.9-0.2-1.5-0.2c-0.4,0-0.8,0.1-1.3,0.2c-0.5,0.1-0.8,0.3-1,0.3h-0.2v-1.9
			c0.3-0.1,0.7-0.1,1.3-0.2c0.6-0.1,1.2-0.1,1.8-0.1c1.4,0,2.4,0.2,3,0.6c0.6,0.4,0.9,1.1,0.9,2v5.2h-2.4V49.9z M219.1,48.7v-1.6
			c-0.3,0-0.7,0.1-1.1,0.1s-0.7,0.1-0.9,0.2c-0.2,0.1-0.4,0.2-0.6,0.3c-0.1,0.1-0.2,0.3-0.2,0.6c0,0.2,0,0.3,0,0.4
			c0,0.1,0.1,0.2,0.2,0.3c0.1,0.1,0.2,0.2,0.4,0.2s0.4,0.1,0.7,0.1c0.2,0,0.5,0,0.7-0.1C218.7,49,218.9,48.8,219.1,48.7z"/>
		<path class="st0" d="M236.9,46.7c0,0.6-0.1,1.2-0.3,1.7s-0.4,0.9-0.8,1.3c-0.3,0.4-0.7,0.6-1.1,0.8c-0.4,0.2-0.9,0.3-1.3,0.3
			c-0.4,0-0.8,0-1.1-0.1c-0.3-0.1-0.6-0.2-0.9-0.4v3.2h-2.5V43h2.5v0.8c0.4-0.3,0.8-0.5,1.2-0.7s0.8-0.3,1.4-0.3
			c1,0,1.7,0.4,2.2,1.1S236.9,45.5,236.9,46.7z M234.4,46.8c0-0.7-0.1-1.3-0.4-1.6c-0.3-0.3-0.7-0.5-1.2-0.5c-0.2,0-0.5,0-0.7,0.1
			c-0.2,0.1-0.5,0.2-0.7,0.3v3.9c0.2,0.1,0.3,0.1,0.5,0.1c0.2,0,0.4,0,0.6,0c0.6,0,1.1-0.2,1.5-0.6
			C234.2,48.1,234.4,47.6,234.4,46.8z"/>
		<path class="st0" d="M246.7,46.9c0,1.3-0.4,2.3-1.1,3c-0.7,0.7-1.8,1.1-3.1,1.1s-2.4-0.4-3.1-1.1c-0.7-0.7-1.1-1.7-1.1-3
			c0-1.3,0.4-2.3,1.1-3s1.8-1.1,3.1-1.1c1.3,0,2.4,0.4,3.1,1.1S246.7,45.6,246.7,46.9z M243.6,48.7c0.2-0.2,0.3-0.4,0.4-0.7
			c0.1-0.3,0.1-0.7,0.1-1.1c0-0.5,0-0.8-0.1-1.1s-0.2-0.5-0.3-0.7c-0.1-0.2-0.3-0.3-0.5-0.4s-0.4-0.1-0.7-0.1s-0.4,0-0.6,0.1
			s-0.4,0.2-0.5,0.4c-0.2,0.2-0.3,0.4-0.4,0.7s-0.1,0.7-0.1,1.2c0,0.4,0,0.8,0.1,1.1c0.1,0.3,0.2,0.6,0.3,0.7
			c0.1,0.2,0.3,0.3,0.5,0.4s0.4,0.1,0.7,0.1c0.2,0,0.4,0,0.6-0.1C243.3,49,243.5,48.9,243.6,48.7z"/>
		<path class="st0" d="M254.1,45.4h-0.2c-0.1,0-0.3-0.1-0.5-0.1c-0.2,0-0.4,0-0.6,0c-0.4,0-0.7,0-0.9,0.1s-0.6,0.1-0.9,0.2v5.1h-2.5
			V43h2.5v1.1c0.5-0.5,1-0.8,1.4-0.9c0.4-0.2,0.8-0.2,1.1-0.2c0.1,0,0.2,0,0.3,0c0.1,0,0.2,0,0.3,0V45.4z"/>
		<path class="st0" d="M268.6,46.7c0,0.6-0.1,1.2-0.3,1.7s-0.4,0.9-0.8,1.3c-0.3,0.4-0.7,0.6-1.1,0.8s-0.9,0.3-1.3,0.3
			c-0.4,0-0.8,0-1.1-0.1c-0.3-0.1-0.6-0.2-0.9-0.4v3.2h-2.5V43h2.5v0.8c0.4-0.3,0.8-0.5,1.2-0.7s0.8-0.3,1.4-0.3
			c1,0,1.7,0.4,2.2,1.1S268.6,45.5,268.6,46.7z M266,46.8c0-0.7-0.1-1.3-0.4-1.6s-0.7-0.5-1.2-0.5c-0.2,0-0.5,0-0.7,0.1
			c-0.2,0.1-0.5,0.2-0.7,0.3v3.9c0.2,0.1,0.3,0.1,0.5,0.1c0.2,0,0.4,0,0.6,0c0.6,0,1.1-0.2,1.5-0.6C265.9,48.1,266,47.6,266,46.8z"
			/>
		<path class="st0" d="M275.1,49.9c-0.1,0.1-0.3,0.2-0.5,0.4c-0.2,0.1-0.4,0.3-0.6,0.3c-0.2,0.1-0.5,0.2-0.8,0.2
			c-0.3,0.1-0.5,0.1-0.9,0.1c-0.7,0-1.3-0.2-1.8-0.7s-0.7-1-0.7-1.7c0-0.6,0.1-1,0.4-1.4c0.3-0.4,0.6-0.6,1.1-0.8
			c0.5-0.2,1-0.4,1.7-0.4c0.7-0.1,1.4-0.2,2.1-0.2v0c0-0.4-0.2-0.7-0.5-0.9c-0.3-0.2-0.9-0.2-1.5-0.2c-0.4,0-0.8,0.1-1.3,0.2
			c-0.5,0.1-0.8,0.3-1,0.3h-0.2v-1.9c0.3-0.1,0.7-0.1,1.3-0.2c0.6-0.1,1.2-0.1,1.8-0.1c1.4,0,2.4,0.2,3,0.6c0.6,0.4,0.9,1.1,0.9,2
			v5.2h-2.4V49.9z M275.1,48.7v-1.6c-0.3,0-0.7,0.1-1.1,0.1c-0.4,0-0.7,0.1-0.9,0.2c-0.2,0.1-0.4,0.2-0.6,0.3
			c-0.1,0.1-0.2,0.3-0.2,0.6c0,0.2,0,0.3,0,0.4c0,0.1,0.1,0.2,0.2,0.3c0.1,0.1,0.2,0.2,0.4,0.2c0.1,0,0.4,0.1,0.7,0.1
			c0.2,0,0.5,0,0.7-0.1C274.7,49,274.9,48.8,275.1,48.7z"/>
		<path class="st0" d="M283.6,39.2v0.1l-2.4,2.5h-1.7l1.7-2.7H283.6z M282.4,50.7H280V43h2.5V50.7z"/>
		<path class="st0" d="M291.6,48.3c0,0.8-0.4,1.4-1.1,1.9c-0.7,0.5-1.7,0.7-2.9,0.7c-0.7,0-1.3-0.1-1.9-0.2c-0.6-0.1-1-0.3-1.3-0.4
			v-2h0.2c0.1,0.1,0.3,0.2,0.4,0.3c0.2,0.1,0.4,0.2,0.7,0.3c0.3,0.1,0.5,0.2,0.9,0.3c0.3,0.1,0.7,0.1,1,0.1c0.5,0,0.8-0.1,1.1-0.2
			c0.2-0.1,0.3-0.3,0.3-0.5c0-0.2-0.1-0.3-0.2-0.4c-0.1-0.1-0.4-0.2-0.8-0.2c-0.2,0-0.4-0.1-0.7-0.1c-0.3,0-0.6-0.1-0.9-0.2
			c-0.7-0.2-1.2-0.5-1.6-0.9c-0.3-0.4-0.5-0.9-0.5-1.4c0-0.7,0.3-1.4,1-1.8c0.7-0.5,1.7-0.7,2.9-0.7c0.6,0,1.1,0.1,1.7,0.2
			c0.5,0.1,0.9,0.2,1.2,0.4v1.9H291c-0.4-0.3-0.8-0.5-1.2-0.6c-0.5-0.2-0.9-0.2-1.4-0.2c-0.4,0-0.7,0.1-1,0.2
			c-0.3,0.1-0.4,0.3-0.4,0.5c0,0.2,0.1,0.3,0.2,0.4s0.4,0.2,0.9,0.3c0.2,0,0.5,0.1,0.8,0.1c0.3,0,0.6,0.1,0.9,0.2
			c0.6,0.2,1.1,0.4,1.4,0.8C291.4,47.3,291.6,47.7,291.6,48.3z"/>
	</g>
	<line class="st1" x1="36" y1="23.6" x2="36" y2="178.1"/>
	<path class="st2" d="M36,179.6L36,179.6 M36,20.6L36,20.6"/>
	<line class="st3" x1="505.8" y1="79.9" x2="8.9" y2="79.9"/>
	<g>
		<defs>
			<rect id="SVGID_1_" x="6.9" y="13.1" width="518.8" height="171.8"/>
		</defs>
		<clipPath id="SVGID_2_">
			<use xlink:href="#SVGID_1_"  style="overflow:visible;"/>
		</clipPath>
		<path class="st4" d="M7.4,79.9L7.4,79.9 M508.8,79.9L508.8,79.9"/>
	</g>
	<path class="st0" d="M409.3,100.3h99.1v19.9h-99.1V100.3z M308.2,100.3h101.1v19.9H308.2V100.3z M204.2,100.3h104v19.9h-104V100.3z
		 M54.5,100.3h149.8v19.9H54.5V100.3z"/>
	<path class="st5" d="M409.3,160.1h99.1v20h-99.1V160.1z M308.2,160.1h101.1v20H308.2V160.1z M204.2,160.1h104v20h-104V160.1z
		 M54.5,160.1h149.8v20H54.5V160.1z M409.3,120.1h99.1v19.6h-99.1V120.1z M308.2,120.1h101.1v19.6H308.2V120.1z M204.2,120.1h104
		v19.6h-104V120.1z M54.5,120.1h149.8v19.6H54.5V120.1z"/>
	<line class="st6" x1="54.5" y1="100.3" x2="204.2" y2="100.3"/>
	<line class="st6" x1="204.2" y1="100.3" x2="308.2" y2="100.3"/>
	<line class="st6" x1="308.2" y1="100.3" x2="409.3" y2="100.3"/>
	<line class="st6" x1="409.3" y1="100.3" x2="508.4" y2="100.3"/>
	<g>
		<path class="st7" d="M64.7,108.9c0,0.8-0.3,1.4-0.8,1.9c-0.5,0.4-1.2,0.7-2,0.7c-0.4,0-0.7,0-1.1-0.1v3.4h-1.4v-8.1
			c0.3,0,0.7,0,1.2-0.1c0.5,0,0.9-0.1,1.2-0.1c0.9,0,1.6,0.2,2.1,0.6C64.5,107.5,64.7,108.1,64.7,108.9z M60.9,108
			c0,0.8-0.1,1.5-0.1,2.2c0.3,0,0.5,0.1,0.8,0.1c0.5,0,0.9-0.1,1.1-0.3c0.3-0.2,0.4-0.5,0.4-1c0-0.4-0.1-0.7-0.4-1s-0.6-0.3-1-0.3
			c-0.3,0-0.5,0-0.6,0.1s-0.2,0.1-0.3,0.1C60.9,107.9,60.9,107.9,60.9,108z"/>
		<path class="st7" d="M65.4,113c0-0.6,0.3-1.1,0.8-1.5c0.5-0.4,1.3-0.6,2.3-0.6v-0.2c0-0.2-0.1-0.4-0.2-0.5s-0.4-0.2-0.6-0.2
			c-0.6,0-1.2,0.1-1.8,0.4v-1.2c0.6-0.2,1.3-0.3,1.9-0.3c1.4,0,2.1,0.6,2.1,1.8c0,0.3,0,0.8,0,1.3c0,0.6,0,1,0,1.3
			c0,0.5,0,0.9,0.1,1.3c-0.3,0-0.7,0-1.2,0.1c-0.5,0.1-0.8,0.1-1.1,0.1c-0.7,0-1.2-0.2-1.6-0.5C65.6,114,65.4,113.6,65.4,113z
			 M68.4,113.4c0-0.2,0-0.6,0-1.4c-1.1,0-1.7,0.4-1.7,1c0,0.2,0.1,0.4,0.2,0.5c0.2,0.1,0.4,0.2,0.6,0.2
			C68.1,113.7,68.3,113.6,68.4,113.4z"/>
		<path class="st7" d="M72.3,108.4h-1.2c0.5-0.5,1-1.1,1.5-1.9H74L72.3,108.4z M71.4,109h1.4c0,1.4,0,3.3,0,5.6h-1.3V109z"/>
		<path class="st7" d="M73.9,110.6c0-0.5,0.2-1,0.6-1.3c0.4-0.3,0.9-0.5,1.6-0.5c0.5,0,0.9,0.1,1.3,0.2v1.2
			c-0.5-0.2-0.9-0.3-1.3-0.3c-0.2,0-0.4,0-0.5,0.1c-0.1,0.1-0.2,0.2-0.2,0.3c0,0.2,0.1,0.3,0.2,0.4s0.4,0.2,0.6,0.3
			c0.2,0.1,0.5,0.2,0.7,0.4s0.4,0.3,0.6,0.6s0.2,0.5,0.2,0.8c0,0.5-0.2,0.9-0.6,1.3c-0.4,0.4-0.9,0.5-1.7,0.5c-0.6,0-1-0.1-1.5-0.2
			v-1.2c0.4,0.2,0.9,0.2,1.4,0.2c0.6,0,1-0.2,1-0.6c0-0.2-0.1-0.3-0.2-0.5c-0.2-0.1-0.4-0.2-0.6-0.4c-0.2-0.1-0.5-0.2-0.7-0.3
			c-0.2-0.1-0.4-0.3-0.6-0.5C74,111.2,73.9,110.9,73.9,110.6z"/>
	</g>
	<g>
		<path class="st7" d="M246.8,113.5c1.6,0,2.5,0,2.9,0l-0.1,1.2h-5.2l-0.1-0.3c1.1-0.8,2-1.7,2.7-2.6c0.7-1,1.1-1.9,1.1-2.8
			c0-0.9-0.4-1.3-1.1-1.3c-0.3,0-0.6,0.1-0.8,0.3s-0.3,0.5-0.3,0.8c0,0.2,0,0.3,0.1,0.6h-1.2c-0.1-0.2-0.2-0.5-0.2-0.8
			c0-0.6,0.2-1.1,0.7-1.5c0.4-0.4,1-0.7,1.7-0.7c0.8,0,1.4,0.2,1.9,0.7c0.4,0.5,0.6,1.1,0.6,1.8c0,0.7-0.3,1.5-0.8,2.3
			C248.1,112.1,247.5,112.8,246.8,113.5z"/>
		<path class="st7" d="M250.4,110.6c0-1.2,0.3-2.2,0.8-3c0.5-0.8,1.2-1.2,2-1.2c0.8,0,1.5,0.4,2,1.2s0.8,1.8,0.8,3
			c0,1.2-0.3,2.2-0.8,3c-0.5,0.8-1.2,1.2-2,1.2c-0.8,0-1.5-0.4-2-1.2C250.6,112.8,250.4,111.8,250.4,110.6z M251.8,110.6
			c0,0.9,0.1,1.6,0.4,2.2c0.2,0.6,0.5,0.9,0.9,0.9s0.7-0.3,0.9-0.9c0.2-0.6,0.3-1.3,0.3-2.2c0-0.9-0.1-1.6-0.3-2.1
			c-0.2-0.5-0.5-0.8-0.9-0.8c-0.4,0-0.7,0.3-0.9,0.8C252,109,251.8,109.7,251.8,110.6z"/>
		<path class="st7" d="M257.4,108.1l3.4-2c0,0.1,0,0.7,0,1.7c0,1,0,1.8,0,2.4v4.5h-1.4v-6.2l-2,1.1V108.1z"/>
		<path class="st7" d="M267.5,114.2c-0.5,0.4-1.1,0.7-2,0.7c-0.8,0-1.5-0.2-2-0.7c-0.5-0.4-0.7-1-0.7-1.7c0-0.5,0.1-0.9,0.4-1.3
			c0.3-0.4,0.6-0.6,1-0.8c-0.7-0.4-1.1-1-1.1-1.8c0-0.6,0.2-1.1,0.6-1.5c0.4-0.5,1-0.7,1.8-0.7c0.8,0,1.4,0.2,1.8,0.7
			c0.4,0.5,0.6,1,0.6,1.5c0,0.4-0.1,0.8-0.3,1.1c-0.2,0.3-0.5,0.6-0.8,0.7c0.4,0.2,0.7,0.4,0.9,0.8s0.4,0.8,0.4,1.3
			C268.2,113.1,268,113.7,267.5,114.2z M265.6,111c-0.4,0-0.6,0.1-0.9,0.4c-0.2,0.3-0.3,0.6-0.3,0.9c0,0.4,0.1,0.7,0.3,1
			c0.2,0.3,0.5,0.4,0.9,0.4s0.7-0.1,0.9-0.4c0.2-0.3,0.3-0.6,0.3-1c0-0.4-0.1-0.7-0.4-0.9C266.2,111.1,265.9,111,265.6,111z
			 M264.8,109.5c0.2,0.3,0.5,0.4,0.8,0.4c0.3,0,0.6-0.1,0.7-0.4c0.2-0.3,0.3-0.5,0.3-0.8c0-0.3-0.1-0.6-0.3-0.8s-0.4-0.3-0.8-0.3
			c-0.4,0-0.6,0.1-0.8,0.3c-0.2,0.2-0.3,0.5-0.3,0.8C264.5,109,264.6,109.2,264.8,109.5z"/>
	</g>
	<g>
		<path class="st7" d="M349.3,113.5c1.6,0,2.5,0,2.9,0l-0.1,1.2h-5.2l-0.1-0.3c1.1-0.8,2-1.7,2.7-2.6c0.7-1,1.1-1.9,1.1-2.8
			c0-0.9-0.4-1.3-1.1-1.3c-0.3,0-0.6,0.1-0.8,0.3c-0.2,0.2-0.3,0.5-0.3,0.8c0,0.2,0,0.3,0.1,0.6h-1.2c-0.1-0.2-0.2-0.5-0.2-0.8
			c0-0.6,0.2-1.1,0.7-1.5c0.4-0.4,1-0.7,1.7-0.7c0.8,0,1.4,0.2,1.9,0.7s0.6,1.1,0.6,1.8c0,0.7-0.3,1.5-0.8,2.3
			C350.6,112.1,350,112.8,349.3,113.5z"/>
		<path class="st7" d="M352.9,110.6c0-1.2,0.3-2.2,0.8-3c0.5-0.8,1.2-1.2,2-1.2s1.5,0.4,2,1.2c0.5,0.8,0.8,1.8,0.8,3
			c0,1.2-0.3,2.2-0.8,3c-0.5,0.8-1.2,1.2-2,1.2s-1.5-0.4-2-1.2C353.2,112.8,352.9,111.8,352.9,110.6z M354.4,110.6
			c0,0.9,0.1,1.6,0.4,2.2c0.2,0.6,0.5,0.9,0.9,0.9s0.7-0.3,0.9-0.9s0.3-1.3,0.3-2.2c0-0.9-0.1-1.6-0.3-2.1s-0.5-0.8-0.9-0.8
			c-0.4,0-0.7,0.3-0.9,0.8C354.5,109,354.4,109.7,354.4,110.6z"/>
		<path class="st7" d="M359.9,108.1l3.4-2c0,0.1,0,0.7,0,1.7c0,1,0,1.8,0,2.4v4.5h-1.4v-6.2l-2,1.1V108.1z"/>
		<path class="st7" d="M366,114.1c0.6-0.3,1.1-0.6,1.6-1c0.5-0.4,0.8-0.8,1.1-1.3c-0.2,0.2-0.5,0.2-0.9,0.2c-0.6,0-1.1-0.2-1.6-0.7
			c-0.4-0.5-0.6-1.2-0.6-2c0-0.8,0.2-1.5,0.7-2.1c0.4-0.6,1.1-0.9,1.9-0.9c0.8,0,1.4,0.3,1.8,0.8c0.5,0.5,0.7,1.3,0.7,2.3
			c0,1.2-0.3,2.2-1,3.2c-0.7,1-1.6,1.8-2.9,2.3L366,114.1z M366.9,109.3c0,0.2,0,0.4,0.1,0.6c0.1,0.2,0.2,0.4,0.4,0.7
			c0.2,0.2,0.4,0.3,0.7,0.3c0.4,0,0.7-0.1,0.9-0.4s0.3-0.7,0.3-1.1c0-0.6-0.1-1-0.3-1.3s-0.5-0.5-0.9-0.5
			C367.3,107.5,366.9,108.1,366.9,109.3z"/>
	</g>
	<g>
		<path class="st7" d="M449.4,113.5c1.6,0,2.5,0,2.9,0l-0.1,1.2h-5.2l-0.1-0.3c1.1-0.8,2-1.7,2.7-2.6c0.7-1,1.1-1.9,1.1-2.8
			c0-0.9-0.4-1.3-1.1-1.3c-0.3,0-0.6,0.1-0.8,0.3c-0.2,0.2-0.3,0.5-0.3,0.8c0,0.2,0,0.3,0.1,0.6h-1.2c-0.1-0.2-0.2-0.5-0.2-0.8
			c0-0.6,0.2-1.1,0.7-1.5c0.4-0.4,1-0.7,1.7-0.7c0.8,0,1.4,0.2,1.9,0.7s0.6,1.1,0.6,1.8c0,0.7-0.3,1.5-0.8,2.3
			C450.7,112.1,450.1,112.8,449.4,113.5z"/>
		<path class="st7" d="M453,110.6c0-1.2,0.3-2.2,0.8-3c0.5-0.8,1.2-1.2,2-1.2s1.5,0.4,2,1.2c0.5,0.8,0.8,1.8,0.8,3
			c0,1.2-0.3,2.2-0.8,3c-0.5,0.8-1.2,1.2-2,1.2s-1.5-0.4-2-1.2C453.2,112.8,453,111.8,453,110.6z M454.4,110.6
			c0,0.9,0.1,1.6,0.4,2.2c0.2,0.6,0.5,0.9,0.9,0.9s0.7-0.3,0.9-0.9s0.3-1.3,0.3-2.2c0-0.9-0.1-1.6-0.3-2.1s-0.5-0.8-0.9-0.8
			c-0.4,0-0.7,0.3-0.9,0.8C454.6,109,454.4,109.7,454.4,110.6z"/>
		<path class="st7" d="M461.8,113.5c1.6,0,2.5,0,2.9,0l-0.1,1.2h-5.2l-0.1-0.3c1.1-0.8,2-1.7,2.7-2.6c0.7-1,1.1-1.9,1.1-2.8
			c0-0.9-0.4-1.3-1.1-1.3c-0.3,0-0.6,0.1-0.8,0.3c-0.2,0.2-0.3,0.5-0.3,0.8c0,0.2,0,0.3,0.1,0.6h-1.2c-0.1-0.2-0.2-0.5-0.2-0.8
			c0-0.6,0.2-1.1,0.7-1.5c0.4-0.4,1-0.7,1.7-0.7c0.8,0,1.4,0.2,1.9,0.7s0.6,1.1,0.6,1.8c0,0.7-0.3,1.5-0.8,2.3
			C463.2,112.1,462.5,112.8,461.8,113.5z"/>
		<path class="st7" d="M465.5,110.6c0-1.2,0.3-2.2,0.8-3c0.5-0.8,1.2-1.2,2-1.2s1.5,0.4,2,1.2c0.5,0.8,0.8,1.8,0.8,3
			c0,1.2-0.3,2.2-0.8,3c-0.5,0.8-1.2,1.2-2,1.2s-1.5-0.4-2-1.2C465.7,112.8,465.5,111.8,465.5,110.6z M466.9,110.6
			c0,0.9,0.1,1.6,0.4,2.2c0.2,0.6,0.5,0.9,0.9,0.9s0.7-0.3,0.9-0.9s0.3-1.3,0.3-2.2c0-0.9-0.1-1.6-0.3-2.1s-0.5-0.8-0.9-0.8
			c-0.4,0-0.7,0.3-0.9,0.8C467,109,466.9,109.7,466.9,110.6z"/>
	</g>
	<g>
		<path class="st8" d="M63,134l-2.5-6.6c-0.2,3.6-0.3,5.9-0.3,7h-0.8l0.5-8.1h1.1c0.9,2.6,1.7,4.6,2.3,6.1c0.1,0.2,0.1,0.3,0.2,0.3
			s0.1-0.1,0.2-0.3l2.4-6h0.9l0.3,4.3c0.1,1.8,0.2,3.1,0.3,3.7h-0.8l-0.3-7c-0.8,1.9-1.7,4.1-2.6,6.6H63z"/>
		<path class="st8" d="M70.3,131.4v0.3c0,0.8,0.2,1.3,0.5,1.7s0.9,0.6,1.5,0.6c0.4,0,0.8-0.1,1.1-0.2v0.6c-0.3,0.1-0.7,0.2-1.2,0.2
			c-0.8,0-1.5-0.2-2-0.7c-0.5-0.5-0.7-1.2-0.7-2.2c0-0.8,0.2-1.5,0.7-2.1c0.5-0.5,1.1-0.8,1.8-0.8c0.6,0,1.1,0.2,1.4,0.6
			c0.3,0.4,0.5,0.9,0.5,1.5c0,0.2,0,0.3,0,0.5H70.3z M70.4,130.7h2.4c0.1,0,0.2,0,0.2-0.1c0,0,0.1-0.1,0.1-0.2
			c0-0.3-0.1-0.6-0.3-0.8c-0.2-0.2-0.5-0.3-0.9-0.3c-0.5,0-0.9,0.1-1.1,0.4C70.6,130.1,70.5,130.4,70.4,130.7z M71.8,128.2H71
			c0.5-0.5,1-1.1,1.5-1.8h0.9L71.8,128.2z"/>
		<path class="st8" d="M77.6,132.3c0-0.1-0.1-0.1-0.1,0c-0.4,0.6-0.9,1.3-1.4,2.1h-0.9l2-2.7c-0.9-1.3-1.6-2.2-2.1-2.8h1l1.5,2.1
			c0.1,0.1,0.1,0.1,0.2,0l1.5-2.1h0.9c-0.4,0.5-1.1,1.4-2.1,2.7l2,2.8h-1C78.7,133.8,78.2,133.1,77.6,132.3z"/>
		<path class="st8" d="M82.2,126.7c0.1,0,0.3,0,0.4,0.1c0.1,0.1,0.1,0.2,0.1,0.4c0,0.2,0,0.3-0.1,0.4c-0.1,0.1-0.2,0.2-0.4,0.2
			c-0.2,0-0.3,0-0.4-0.2c-0.1-0.1-0.1-0.2-0.1-0.4c0-0.1,0-0.3,0.1-0.4C81.9,126.8,82,126.7,82.2,126.7z M81.8,128.9h0.8
			c0,1.5,0,3.4,0,5.5h-0.7V128.9z"/>
		<path class="st8" d="M85.4,131.7c0,1.5,0.6,2.3,1.9,2.3c0.3,0,0.6,0,0.9-0.1v0.6c-0.3,0.1-0.6,0.1-0.9,0.1c-0.8,0-1.5-0.2-2-0.7
			s-0.7-1.2-0.7-2.2c0-0.9,0.2-1.6,0.7-2.1c0.5-0.5,1.1-0.8,2-0.8c0.3,0,0.6,0,0.9,0.1v0.7c-0.3-0.1-0.6-0.1-0.9-0.1
			C86.1,129.4,85.4,130.2,85.4,131.7z"/>
		<path class="st8" d="M92.1,128.8c0.7,0,1.3,0.3,1.7,0.8s0.6,1.2,0.6,2.1c0,0.9-0.2,1.6-0.6,2.1s-1,0.8-1.7,0.8
			c-0.7,0-1.3-0.3-1.7-0.8s-0.7-1.2-0.7-2.1c0-0.9,0.2-1.6,0.7-2.1S91.4,128.8,92.1,128.8z M93.3,130c-0.3-0.4-0.7-0.6-1.2-0.6
			c-0.5,0-0.8,0.2-1.1,0.6c-0.3,0.4-0.4,0.9-0.4,1.7c0,0.7,0.1,1.3,0.4,1.7c0.3,0.4,0.7,0.6,1.2,0.6s0.8-0.2,1.1-0.6
			s0.4-0.9,0.4-1.7C93.7,130.9,93.6,130.4,93.3,130z"/>
		<path class="st8" d="M103.4,125.4c-0.5,0-0.9,0.1-1.2,0.4s-0.6,0.7-0.8,1.2s-0.4,1.1-0.5,1.7c-0.1,0.6-0.2,1.3-0.2,2.1
			c0,0.6,0,1.1,0.1,1.7s0.2,1.2,0.4,1.8c0.2,0.6,0.5,1.1,0.8,1.5s0.8,0.6,1.3,0.6l-0.1,0.6c-0.7,0-1.3-0.3-1.8-0.9
			c-0.5-0.6-0.9-1.3-1.2-2.2c-0.3-0.9-0.4-1.9-0.4-3c0-1.8,0.3-3.3,1-4.4s1.5-1.8,2.5-1.8L103.4,125.4z"/>
		<path class="st8" d="M107.7,130.9v-0.4c0-0.7-0.4-1.1-1.2-1.1c-0.5,0-1,0.1-1.5,0.4v-0.7c0.5-0.2,1.1-0.3,1.6-0.3
			c1.3,0,1.9,0.6,1.9,1.7c0,0.3,0,0.8,0,1.4c0,0.6,0,1.1,0,1.4c0,0.4,0,0.8,0,1.1c-0.3,0-0.6,0-1.1,0.1s-0.7,0.1-0.9,0.1
			c-0.6,0-1.1-0.2-1.4-0.5c-0.3-0.3-0.5-0.7-0.5-1.2c0-0.6,0.3-1.1,0.8-1.4C105.8,131.1,106.6,130.9,107.7,130.9z M107.7,131.5
			c-0.8,0-1.4,0.1-1.8,0.3c-0.4,0.2-0.5,0.6-0.5,1c0,0.3,0.1,0.6,0.3,0.8s0.5,0.3,0.9,0.3c0.7,0,1.1-0.2,1.1-0.5
			C107.7,133.2,107.7,132.6,107.7,131.5z"/>
		<path class="st8" d="M112.8,129.4c-0.4,0-0.7,0.1-1,0.2c-0.3,0.1-0.4,0.3-0.4,0.5v4.3h-0.7v-5.4c0.4,0,0.8-0.1,1.2-0.2
			c0.4-0.1,0.8-0.2,1.1-0.2c0.5,0,1,0.1,1.3,0.4s0.5,0.8,0.5,1.4v3.8h-0.7v-3.6c0-0.5-0.1-0.8-0.3-1
			C113.6,129.5,113.3,129.4,112.8,129.4z M114.5,127c-0.4,0.6-0.8,0.9-1.1,0.9c-0.2,0-0.4-0.1-0.6-0.3c-0.3-0.2-0.5-0.3-0.6-0.3
			c-0.3,0-0.6,0.2-0.7,0.6l-0.3-0.3c0.4-0.6,0.8-0.9,1.2-0.9c0.2,0,0.4,0.1,0.6,0.2s0.5,0.2,0.6,0.2c0.3,0,0.5-0.2,0.7-0.6
			L114.5,127z"/>
		<path class="st8" d="M119.2,128.8c0.7,0,1.3,0.3,1.7,0.8s0.6,1.2,0.6,2.1c0,0.9-0.2,1.6-0.6,2.1s-1,0.8-1.7,0.8
			c-0.7,0-1.3-0.3-1.7-0.8s-0.7-1.2-0.7-2.1c0-0.9,0.2-1.6,0.7-2.1S118.5,128.8,119.2,128.8z M120.3,130c-0.3-0.4-0.7-0.6-1.2-0.6
			c-0.5,0-0.8,0.2-1.1,0.6c-0.3,0.4-0.4,0.9-0.4,1.7c0,0.7,0.1,1.3,0.4,1.7c0.3,0.4,0.7,0.6,1.2,0.6s0.8-0.2,1.1-0.6
			s0.4-0.9,0.4-1.7C120.8,130.9,120.6,130.4,120.3,130z"/>
		<path class="st8" d="M123.3,130.3c0-0.5,0.2-0.9,0.5-1.2c0.4-0.3,0.8-0.4,1.4-0.4c0.4,0,0.7,0.1,1,0.2v0.7
			c-0.4-0.1-0.7-0.2-1.1-0.2c-0.4,0-0.6,0.1-0.8,0.2c-0.2,0.1-0.3,0.3-0.3,0.6c0,0.3,0.1,0.5,0.4,0.7c0.3,0.2,0.6,0.4,0.9,0.5
			c0.3,0.1,0.6,0.3,0.9,0.6c0.3,0.3,0.4,0.6,0.4,0.9c0,0.5-0.2,0.9-0.5,1.2c-0.3,0.3-0.9,0.5-1.5,0.5c-0.4,0-0.8-0.1-1.2-0.2v-0.6
			c0.4,0.1,0.8,0.2,1.2,0.2c0.4,0,0.8-0.1,1-0.3s0.3-0.4,0.3-0.7c0-0.2-0.1-0.4-0.3-0.6c-0.2-0.2-0.4-0.3-0.6-0.4
			c-0.2-0.1-0.5-0.2-0.8-0.3s-0.5-0.3-0.6-0.5C123.4,130.9,123.3,130.6,123.3,130.3z"/>
		<path class="st8" d="M127.8,136.4c0.5,0,0.9-0.1,1.2-0.4s0.6-0.7,0.8-1.2c0.2-0.5,0.4-1.1,0.5-1.7c0.1-0.6,0.2-1.3,0.2-2.1
			c0-0.6,0-1.1-0.1-1.7c-0.1-0.6-0.2-1.2-0.4-1.8c-0.2-0.6-0.5-1.1-0.8-1.5c-0.4-0.4-0.8-0.6-1.3-0.6l0.1-0.6c0.7,0,1.3,0.3,1.8,0.9
			s0.9,1.3,1.2,2.2c0.3,0.9,0.4,1.9,0.4,3c0,1.8-0.3,3.3-1,4.4c-0.7,1.2-1.5,1.8-2.5,1.8L127.8,136.4z"/>
	</g>
	<g>
		<path class="st8" d="M250.6,130.6v-0.7c0.1,0,0.1,0,0.3,0c0.5,0,0.9-0.2,1.2-0.5c0.3-0.3,0.5-0.7,0.5-1.1c0-0.4-0.1-0.8-0.4-1.1
			s-0.6-0.4-1.1-0.4c-0.6,0-1.1,0.1-1.5,0.4v-0.7c0.4-0.2,0.9-0.3,1.5-0.3c0.8,0,1.4,0.2,1.7,0.6s0.6,0.9,0.6,1.5
			c0,0.9-0.4,1.5-1.3,1.9c0.4,0.2,0.8,0.4,1.1,0.8c0.3,0.4,0.4,0.8,0.4,1.3c0,0.7-0.2,1.2-0.8,1.7s-1.2,0.7-2,0.7
			c-0.6,0-1-0.1-1.4-0.4v-0.6c0.4,0.2,0.9,0.4,1.4,0.4c0.6,0,1.1-0.2,1.4-0.5c0.3-0.3,0.5-0.7,0.5-1.2s-0.2-0.9-0.5-1.2
			c-0.3-0.3-0.8-0.5-1.3-0.5C250.8,130.5,250.7,130.5,250.6,130.6z"/>
		<path class="st8" d="M255.6,134c0-0.2,0.1-0.3,0.2-0.4c0.1-0.1,0.3-0.2,0.4-0.2c0.2,0,0.3,0.1,0.4,0.2c0.1,0.1,0.2,0.2,0.2,0.4
			c0,0.2-0.1,0.3-0.2,0.4c-0.1,0.1-0.2,0.2-0.4,0.2s-0.3-0.1-0.4-0.2C255.7,134.3,255.6,134.1,255.6,134z"/>
		<path class="st8" d="M258.7,132l-0.1-0.1c1-1.7,2.1-3.6,3.3-5.6h0.8c0,0.8,0,2,0,3.6v1.4h1.4v0.7h-1.4v2.4h-0.7V132H258.7z
			 M261.9,131.3v-3.9c-0.8,1.3-1.5,2.5-2.1,3.7c0,0,0,0.1,0,0.1c0,0,0,0,0.1,0H261.9z"/>
	</g>
	<g>
		<path class="st8" d="M353.1,130.6v-0.7c0.1,0,0.1,0,0.3,0c0.5,0,0.9-0.2,1.2-0.5c0.3-0.3,0.5-0.7,0.5-1.1c0-0.4-0.1-0.8-0.4-1.1
			c-0.2-0.3-0.6-0.4-1.1-0.4c-0.6,0-1.1,0.1-1.5,0.4v-0.7c0.4-0.2,0.9-0.3,1.5-0.3c0.8,0,1.4,0.2,1.7,0.6c0.4,0.4,0.6,0.9,0.6,1.5
			c0,0.9-0.4,1.5-1.3,1.9c0.4,0.2,0.8,0.4,1.1,0.8c0.3,0.4,0.4,0.8,0.4,1.3c0,0.7-0.2,1.2-0.8,1.7s-1.2,0.7-2,0.7
			c-0.6,0-1-0.1-1.4-0.4v-0.6c0.4,0.2,0.9,0.4,1.4,0.4c0.6,0,1.1-0.2,1.4-0.5c0.3-0.3,0.5-0.7,0.5-1.2s-0.2-0.9-0.5-1.2
			c-0.3-0.3-0.8-0.5-1.3-0.5C353.4,130.5,353.2,130.5,353.1,130.6z"/>
		<path class="st8" d="M358.2,134c0-0.2,0.1-0.3,0.2-0.4c0.1-0.1,0.3-0.2,0.4-0.2c0.2,0,0.3,0.1,0.4,0.2c0.1,0.1,0.2,0.2,0.2,0.4
			c0,0.2-0.1,0.3-0.2,0.4c-0.1,0.1-0.2,0.2-0.4,0.2c-0.2,0-0.3-0.1-0.4-0.2C358.2,134.3,358.2,134.1,358.2,134z"/>
		<path class="st8" d="M365.6,133.9c-0.4,0.4-1.1,0.6-1.8,0.6s-1.4-0.2-1.8-0.6c-0.4-0.4-0.7-1-0.7-1.7c0-0.5,0.1-1,0.4-1.3
			c0.3-0.4,0.6-0.7,1.1-0.8c-0.9-0.4-1.3-1-1.3-1.9c0-0.5,0.2-1,0.6-1.4c0.4-0.4,1-0.6,1.7-0.6c0.7,0,1.3,0.2,1.7,0.6
			c0.4,0.4,0.6,0.9,0.6,1.4c0,0.9-0.4,1.6-1.3,1.9c0.5,0.2,0.8,0.4,1.1,0.8s0.4,0.8,0.4,1.3C366.2,133,366,133.5,365.6,133.9z
			 M364.9,131c-0.3-0.4-0.7-0.5-1.2-0.5c-0.5,0-0.9,0.2-1.2,0.5c-0.3,0.4-0.5,0.8-0.5,1.2c0,0.5,0.1,0.9,0.4,1.2
			c0.3,0.3,0.7,0.5,1.2,0.5c0.5,0,0.9-0.2,1.2-0.5c0.3-0.3,0.4-0.7,0.4-1.2C365.4,131.8,365.2,131.4,364.9,131z M363.7,129.8
			c0.4,0,0.8-0.2,1.1-0.5c0.3-0.3,0.4-0.7,0.4-1.1c0-0.4-0.1-0.8-0.4-1.1c-0.2-0.3-0.6-0.4-1.1-0.4s-0.9,0.1-1.1,0.4
			c-0.2,0.3-0.4,0.6-0.4,1.1c0,0.4,0.1,0.8,0.4,1.1C362.9,129.7,363.3,129.8,363.7,129.8z"/>
	</g>
	<g>
		<path class="st8" d="M451.3,132l-0.1-0.1c1-1.7,2.1-3.6,3.3-5.6h0.8c0,0.8,0,2,0,3.6v1.4h1.4v0.7h-1.4v2.4h-0.7V132H451.3z
			 M454.6,131.3v-3.9c-0.8,1.3-1.5,2.5-2.1,3.7c0,0,0,0.1,0,0.1c0,0,0,0,0.1,0H454.6z"/>
		<path class="st8" d="M458.2,134c0-0.2,0.1-0.3,0.2-0.4c0.1-0.1,0.3-0.2,0.4-0.2c0.2,0,0.3,0.1,0.4,0.2c0.1,0.1,0.2,0.2,0.2,0.4
			c0,0.2-0.1,0.3-0.2,0.4c-0.1,0.1-0.2,0.2-0.4,0.2c-0.2,0-0.3-0.1-0.4-0.2C458.3,134.3,458.2,134.1,458.2,134z"/>
		<path class="st8" d="M462.9,127l-0.1,2.6c0.2,0,0.4-0.1,0.7-0.1c0.9,0,1.5,0.2,2,0.7s0.7,1.1,0.7,1.8c0,0.7-0.2,1.3-0.7,1.8
			s-1.2,0.7-2.2,0.7c-0.6,0-1-0.1-1.4-0.4v-0.6c0.4,0.2,0.9,0.4,1.4,0.4c0.7,0,1.2-0.2,1.6-0.5c0.4-0.3,0.5-0.8,0.5-1.4
			c0-0.6-0.2-1-0.5-1.4c-0.3-0.3-0.8-0.5-1.5-0.5c-0.4,0-0.8,0.1-1.3,0.2l0.2-4.1h3.5v0.7C465.5,127,464.5,127,462.9,127z"/>
	</g>
	<g>
		<path class="st8" d="M61.4,150.7c-0.4,0-0.7,0-1.1-0.1v3.8h-0.8v-8.1c0.3,0,0.6,0,1-0.1c0.4,0,0.7-0.1,0.9-0.1
			c0.8,0,1.5,0.2,1.9,0.6c0.5,0.4,0.7,0.9,0.7,1.7c0,0.7-0.2,1.2-0.7,1.6C62.9,150.5,62.2,150.7,61.4,150.7z M60.4,147.2
			c0,0.7-0.1,1.6-0.1,2.7c0.3,0.1,0.7,0.1,1,0.1c0.6,0,1-0.1,1.4-0.4c0.3-0.3,0.5-0.7,0.5-1.2c0-0.5-0.2-0.9-0.5-1.2
			c-0.3-0.3-0.8-0.4-1.3-0.4c-0.3,0-0.5,0-0.7,0c-0.2,0-0.2,0.1-0.3,0.1C60.4,147.1,60.4,147.2,60.4,147.2z"/>
		<path class="st8" d="M66.4,151.4v0.3c0,0.8,0.2,1.3,0.5,1.7s0.9,0.6,1.5,0.6c0.4,0,0.8-0.1,1.1-0.2v0.6c-0.3,0.1-0.7,0.2-1.2,0.2
			c-0.8,0-1.5-0.2-2-0.7c-0.5-0.5-0.7-1.2-0.7-2.2c0-0.8,0.2-1.5,0.7-2.1c0.5-0.5,1.1-0.8,1.8-0.8c0.6,0,1.1,0.2,1.4,0.6
			c0.3,0.4,0.5,0.9,0.5,1.5c0,0.2,0,0.3,0,0.5H66.4z M66.4,150.7h2.4c0.1,0,0.2,0,0.2-0.1c0,0,0.1-0.1,0.1-0.2
			c0-0.3-0.1-0.6-0.3-0.8c-0.2-0.2-0.5-0.3-0.9-0.3c-0.5,0-0.9,0.1-1.1,0.4C66.7,150.1,66.5,150.4,66.4,150.7z"/>
		<path class="st8" d="M72.6,154.4h-0.7v-5.5h0.7v0.6c0.1-0.2,0.3-0.4,0.6-0.6c0.3-0.1,0.6-0.2,0.9-0.2c0.2,0,0.4,0,0.6,0v0.8
			c-0.3-0.1-0.5-0.1-0.7-0.1c-0.4,0-0.7,0.1-1,0.2c-0.2,0.2-0.4,0.4-0.4,0.7C72.6,151.1,72.6,152.4,72.6,154.4z"/>
		<path class="st8" d="M78.4,153.9c0.8,0,1.2-0.2,1.2-0.6v-4.3h0.7v5.4c-0.3,0-0.7,0-1.1,0.1c-0.4,0.1-0.7,0.1-1,0.1
			c-0.6,0-1.1-0.2-1.5-0.5c-0.4-0.3-0.6-0.8-0.6-1.4v-3.7h0.7v3.6c0,0.5,0.1,0.9,0.3,1.1S77.9,153.9,78.4,153.9z M78.2,148.2h-0.8
			c0.5-0.5,1-1.1,1.5-1.8h0.9L78.2,148.2z"/>
		<path class="st8" d="M89.6,145.4c-0.5,0-0.9,0.1-1.2,0.4s-0.6,0.7-0.8,1.2s-0.4,1.1-0.5,1.7c-0.1,0.6-0.2,1.3-0.2,2.1
			c0,0.6,0,1.1,0.1,1.7s0.2,1.2,0.4,1.8c0.2,0.6,0.5,1.1,0.8,1.5s0.8,0.6,1.3,0.6l-0.1,0.6c-0.7,0-1.3-0.3-1.8-0.9
			c-0.5-0.6-0.9-1.3-1.2-2.2c-0.3-0.9-0.4-1.9-0.4-3c0-1.8,0.3-3.3,1-4.4s1.5-1.8,2.5-1.8L89.6,145.4z"/>
		<path class="st8" d="M93.9,150.9v-0.4c0-0.7-0.4-1.1-1.2-1.1c-0.5,0-1,0.1-1.5,0.4v-0.7c0.5-0.2,1.1-0.3,1.6-0.3
			c1.3,0,1.9,0.6,1.9,1.7c0,0.3,0,0.8,0,1.4c0,0.6,0,1.1,0,1.4c0,0.4,0,0.8,0,1.1c-0.3,0-0.6,0-1.1,0.1s-0.7,0.1-0.9,0.1
			c-0.6,0-1.1-0.2-1.4-0.5c-0.3-0.3-0.5-0.7-0.5-1.2c0-0.6,0.3-1.1,0.8-1.4C92,151.1,92.8,150.9,93.9,150.9z M93.9,151.5
			c-0.8,0-1.4,0.1-1.8,0.3c-0.4,0.2-0.5,0.6-0.5,1c0,0.3,0.1,0.6,0.3,0.8s0.5,0.3,0.9,0.3c0.7,0,1.1-0.2,1.1-0.5
			C93.9,153.2,93.9,152.6,93.9,151.5z"/>
		<path class="st8" d="M99,149.4c-0.4,0-0.7,0.1-1,0.2c-0.3,0.1-0.4,0.3-0.4,0.5v4.3h-0.7v-5.4c0.4,0,0.8-0.1,1.2-0.2
			c0.4-0.1,0.8-0.2,1.1-0.2c0.5,0,1,0.1,1.3,0.4s0.5,0.8,0.5,1.4v3.8h-0.7v-3.6c0-0.5-0.1-0.8-0.3-1C99.8,149.5,99.5,149.4,99,149.4
			z M100.7,147c-0.4,0.6-0.8,0.9-1.1,0.9c-0.2,0-0.4-0.1-0.6-0.3c-0.3-0.2-0.5-0.3-0.6-0.3c-0.3,0-0.6,0.2-0.7,0.6l-0.3-0.3
			c0.4-0.6,0.8-0.9,1.2-0.9c0.2,0,0.4,0.1,0.6,0.2s0.5,0.2,0.6,0.2c0.3,0,0.5-0.2,0.7-0.6L100.7,147z"/>
		<path class="st8" d="M105.4,148.8c0.7,0,1.3,0.3,1.7,0.8s0.6,1.2,0.6,2.1c0,0.9-0.2,1.6-0.6,2.1s-1,0.8-1.7,0.8
			c-0.7,0-1.3-0.3-1.7-0.8s-0.7-1.2-0.7-2.1c0-0.9,0.2-1.6,0.7-2.1S104.7,148.8,105.4,148.8z M106.5,150c-0.3-0.4-0.7-0.6-1.2-0.6
			c-0.5,0-0.8,0.2-1.1,0.6c-0.3,0.4-0.4,0.9-0.4,1.7c0,0.7,0.1,1.3,0.4,1.7c0.3,0.4,0.7,0.6,1.2,0.6s0.8-0.2,1.1-0.6
			s0.4-0.9,0.4-1.7C107,151,106.8,150.4,106.5,150z"/>
		<path class="st8" d="M109.5,150.3c0-0.5,0.2-0.9,0.5-1.2c0.4-0.3,0.8-0.4,1.4-0.4c0.4,0,0.7,0.1,1,0.2v0.7
			c-0.4-0.1-0.7-0.2-1.1-0.2c-0.4,0-0.6,0.1-0.8,0.2c-0.2,0.1-0.3,0.3-0.3,0.6c0,0.3,0.1,0.5,0.4,0.7c0.3,0.2,0.6,0.4,0.9,0.5
			c0.3,0.1,0.6,0.3,0.9,0.6c0.3,0.3,0.4,0.6,0.4,0.9c0,0.5-0.2,0.9-0.5,1.2c-0.3,0.3-0.9,0.5-1.5,0.5c-0.4,0-0.8-0.1-1.2-0.2v-0.6
			c0.4,0.1,0.8,0.2,1.2,0.2c0.4,0,0.8-0.1,1-0.3s0.3-0.4,0.3-0.7c0-0.2-0.1-0.4-0.3-0.6c-0.2-0.2-0.4-0.3-0.6-0.4
			c-0.2-0.1-0.5-0.2-0.8-0.3s-0.5-0.3-0.6-0.5C109.6,150.9,109.5,150.6,109.5,150.3z"/>
		<path class="st8" d="M114,156.4c0.5,0,0.9-0.1,1.2-0.4s0.6-0.7,0.8-1.2c0.2-0.5,0.4-1.1,0.5-1.7c0.1-0.6,0.2-1.3,0.2-2.1
			c0-0.6,0-1.1-0.1-1.7c-0.1-0.6-0.2-1.2-0.4-1.8c-0.2-0.6-0.5-1.1-0.8-1.5c-0.4-0.4-0.8-0.6-1.3-0.6l0.1-0.6c0.7,0,1.3,0.3,1.8,0.9
			s0.9,1.3,1.2,2.2c0.3,0.9,0.4,1.9,0.4,3c0,1.8-0.3,3.3-1,4.4c-0.7,1.2-1.5,1.8-2.5,1.8L114,156.4z"/>
	</g>
	<g>
		<path class="st8" d="M250.3,153.7c2,0,3.2,0,3.6-0.1l0,0.7h-5l0-0.2c2.7-2,4.1-3.9,4.1-5.7c0-0.6-0.1-1-0.4-1.3
			c-0.3-0.3-0.7-0.4-1.1-0.4c-0.4,0-0.8,0.1-1,0.4c-0.3,0.3-0.4,0.7-0.4,1.1c0,0.1,0,0.3,0,0.4h-0.6c-0.1-0.2-0.1-0.4-0.1-0.6
			c0-0.5,0.2-1,0.6-1.4c0.4-0.4,0.9-0.6,1.5-0.6c0.8,0,1.3,0.2,1.7,0.7c0.4,0.4,0.6,1,0.6,1.7c0,0.9-0.3,1.8-1,2.7
			C252,152.2,251.2,153.1,250.3,153.7z"/>
		<path class="st8" d="M255.6,154c0-0.2,0.1-0.3,0.2-0.4c0.1-0.1,0.3-0.2,0.4-0.2c0.2,0,0.3,0.1,0.4,0.2c0.1,0.1,0.2,0.2,0.2,0.4
			c0,0.2-0.1,0.3-0.2,0.4c-0.1,0.1-0.2,0.2-0.4,0.2s-0.3-0.1-0.4-0.2C255.7,154.3,255.6,154.1,255.6,154z"/>
		<path class="st8" d="M258.7,152l-0.1-0.1c1-1.7,2.1-3.6,3.3-5.6h0.8c0,0.8,0,2,0,3.6v1.4h1.4v0.7h-1.4v2.4h-0.7V152H258.7z
			 M261.9,151.3v-3.9c-0.8,1.3-1.5,2.5-2.1,3.7c0,0,0,0.1,0,0.1c0,0,0,0,0.1,0H261.9z"/>
	</g>
	<g>
		<path class="st8" d="M352.4,147.8l2.7-1.7c0,1.5,0,2.8,0,3.9v4.5h-0.8v-6.9l-1.9,1.2V147.8z"/>
		<path class="st8" d="M358.2,154c0-0.2,0.1-0.3,0.2-0.4c0.1-0.1,0.3-0.2,0.4-0.2c0.2,0,0.3,0.1,0.4,0.2c0.1,0.1,0.2,0.2,0.2,0.4
			c0,0.2-0.1,0.3-0.2,0.4c-0.1,0.1-0.2,0.2-0.4,0.2c-0.2,0-0.3-0.1-0.4-0.2C358.2,154.3,358.2,154.1,358.2,154z"/>
		<path class="st8" d="M364.9,151.2c-0.3,0.3-0.7,0.5-1.3,0.5c-0.6,0-1.2-0.2-1.6-0.7c-0.4-0.5-0.7-1.1-0.7-2c0-0.8,0.2-1.4,0.6-2
			c0.4-0.6,1-0.9,1.7-0.9c0.7,0,1.3,0.3,1.7,0.8c0.4,0.5,0.6,1.3,0.6,2.2c0,1.2-0.3,2.3-1,3.3c-0.6,1-1.6,1.7-2.8,2.3l-0.3-0.5
			c0.8-0.4,1.5-0.8,2-1.5C364.5,152.1,364.8,151.6,364.9,151.2z M362.1,149c0,0.2,0,0.4,0.1,0.6s0.1,0.4,0.2,0.6
			c0.1,0.2,0.3,0.4,0.5,0.6c0.2,0.1,0.5,0.2,0.8,0.2c0.5,0,0.9-0.2,1.2-0.5c0.3-0.4,0.4-0.8,0.4-1.4c0-0.7-0.1-1.3-0.4-1.7
			c-0.3-0.4-0.7-0.6-1.1-0.6C362.6,146.8,362.1,147.5,362.1,149z"/>
	</g>
	<g>
		<path class="st8" d="M458.1,150.6v-0.7c0.1,0,0.1,0,0.3,0c0.5,0,0.9-0.2,1.2-0.5c0.3-0.3,0.5-0.7,0.5-1.1c0-0.4-0.1-0.8-0.4-1.1
			c-0.2-0.3-0.6-0.4-1.1-0.4c-0.6,0-1.1,0.1-1.5,0.4v-0.7c0.4-0.2,0.9-0.3,1.5-0.3c0.8,0,1.4,0.2,1.7,0.6c0.4,0.4,0.6,0.9,0.6,1.5
			c0,0.9-0.4,1.5-1.3,1.9c0.4,0.2,0.8,0.4,1.1,0.8c0.3,0.4,0.4,0.8,0.4,1.3c0,0.7-0.2,1.2-0.8,1.7s-1.2,0.7-2,0.7
			c-0.6,0-1-0.1-1.4-0.4v-0.6c0.4,0.2,0.9,0.4,1.4,0.4c0.6,0,1.1-0.2,1.4-0.5c0.3-0.3,0.5-0.7,0.5-1.2s-0.2-0.9-0.5-1.2
			c-0.3-0.3-0.8-0.5-1.3-0.5C458.4,150.5,458.3,150.5,458.1,150.6z"/>
	</g>
	<g>
		<path class="st8" d="M64.9,174.5c-0.6,0.2-1.2,0.3-1.8,0.3c-0.5,0-1-0.1-1.5-0.2c-0.5-0.1-0.9-0.4-1.3-0.7
			c-0.4-0.3-0.7-0.7-0.9-1.3c-0.2-0.5-0.3-1.2-0.3-1.9c0-0.7,0.1-1.4,0.3-2c0.2-0.6,0.5-1,0.9-1.4c0.4-0.4,0.8-0.6,1.3-0.8
			s1-0.3,1.6-0.3c0.6,0,1.1,0.1,1.6,0.2v0.8c-0.5-0.2-1.1-0.3-1.6-0.3c-1,0-1.8,0.3-2.4,0.9c-0.6,0.6-0.9,1.5-0.9,2.7
			c0,0.6,0.1,1.2,0.2,1.6s0.4,0.8,0.7,1.1c0.3,0.3,0.6,0.4,1,0.6s0.8,0.2,1.2,0.2c0.4,0,0.6-0.1,0.8-0.2c0.2-0.1,0.3-0.2,0.3-0.4
			v-2.9H65C65,171.3,64.9,172.5,64.9,174.5z"/>
		<path class="st8" d="M69.3,174.1c0.8,0,1.2-0.2,1.2-0.6v-4.3h0.7v5.4c-0.3,0-0.7,0-1.1,0.1c-0.4,0.1-0.7,0.1-1,0.1
			c-0.6,0-1.1-0.2-1.5-0.5c-0.4-0.3-0.6-0.8-0.6-1.4v-3.7h0.7v3.6c0,0.5,0.1,0.9,0.3,1.1S68.8,174.1,69.3,174.1z"/>
		<path class="st8" d="M76.5,171.1v-0.4c0-0.7-0.4-1.1-1.2-1.1c-0.5,0-1,0.1-1.5,0.4v-0.7c0.5-0.2,1.1-0.3,1.6-0.3
			c1.3,0,1.9,0.6,1.9,1.7c0,0.3,0,0.8,0,1.4c0,0.6,0,1.1,0,1.4c0,0.4,0,0.8,0,1.1c-0.3,0-0.6,0-1.1,0.1s-0.7,0.1-0.9,0.1
			c-0.6,0-1.1-0.2-1.4-0.5c-0.3-0.3-0.5-0.7-0.5-1.2c0-0.6,0.3-1.1,0.8-1.4C74.6,171.3,75.4,171.1,76.5,171.1z M76.5,171.7
			c-0.8,0-1.4,0.1-1.8,0.3c-0.4,0.2-0.5,0.6-0.5,1c0,0.3,0.1,0.6,0.3,0.8s0.5,0.3,0.9,0.3c0.7,0,1.1-0.2,1.1-0.5
			C76.5,173.4,76.5,172.8,76.5,171.7z"/>
		<path class="st8" d="M78.9,169.8v-0.7h0.8V168l0.7-0.4v1.6h1.8v0.7h-1.8c0,0.2,0,0.7,0,1.5c0,0.8,0,1.5,0,2s0.3,0.8,0.8,0.8
			c0.4,0,0.7-0.1,1.1-0.3v0.6c-0.4,0.2-0.9,0.3-1.3,0.3c-0.4,0-0.7-0.1-0.9-0.3c-0.2-0.2-0.4-0.5-0.4-1v-3.7H78.9z"/>
		<path class="st8" d="M84.6,171.6v0.3c0,0.8,0.2,1.3,0.5,1.7s0.9,0.6,1.5,0.6c0.4,0,0.8-0.1,1.1-0.2v0.6c-0.3,0.1-0.7,0.2-1.2,0.2
			c-0.8,0-1.5-0.2-2-0.7c-0.5-0.5-0.7-1.2-0.7-2.2c0-0.8,0.2-1.5,0.7-2.1c0.5-0.5,1.1-0.8,1.8-0.8c0.6,0,1.1,0.2,1.4,0.6
			c0.3,0.4,0.5,0.9,0.5,1.5c0,0.2,0,0.3,0,0.5H84.6z M84.7,170.9h2.4c0.1,0,0.2,0,0.2-0.1c0,0,0.1-0.1,0.1-0.2
			c0-0.3-0.1-0.6-0.3-0.8c-0.2-0.2-0.5-0.3-0.9-0.3c-0.5,0-0.9,0.1-1.1,0.4C84.9,170.3,84.8,170.6,84.7,170.9z"/>
		<path class="st8" d="M97.2,170.8v3.8h-0.7V171c0-0.5-0.1-0.9-0.3-1.1c-0.2-0.2-0.5-0.3-0.9-0.3c-0.3,0-0.6,0.1-0.9,0.2
			c-0.3,0.1-0.4,0.3-0.4,0.5c0,0.1,0,0.3,0,0.6v3.7h-0.7V171c0-0.9-0.4-1.4-1.1-1.4c-0.3,0-0.6,0.1-0.9,0.2
			c-0.3,0.1-0.4,0.3-0.4,0.6v4.2h-0.7v-5.4c0.4,0,0.8-0.1,1.2-0.2c0.4-0.1,0.8-0.2,1-0.2c0.6,0,1,0.2,1.3,0.5
			c0.5-0.4,1.1-0.5,1.8-0.5C96.6,169,97.2,169.6,97.2,170.8z"/>
		<path class="st8" d="M102.3,171.1v-0.4c0-0.7-0.4-1.1-1.2-1.1c-0.5,0-1,0.1-1.5,0.4v-0.7c0.5-0.2,1.1-0.3,1.6-0.3
			c1.3,0,1.9,0.6,1.9,1.7c0,0.3,0,0.8,0,1.4c0,0.6,0,1.1,0,1.4c0,0.4,0,0.8,0,1.1c-0.3,0-0.6,0-1.1,0.1s-0.7,0.1-0.9,0.1
			c-0.6,0-1.1-0.2-1.4-0.5c-0.3-0.3-0.5-0.7-0.5-1.2c0-0.6,0.3-1.1,0.8-1.4C100.4,171.3,101.2,171.1,102.3,171.1z M102.3,171.7
			c-0.8,0-1.4,0.1-1.8,0.3c-0.4,0.2-0.5,0.6-0.5,1c0,0.3,0.1,0.6,0.3,0.8s0.5,0.3,0.9,0.3c0.7,0,1.1-0.2,1.1-0.5
			C102.3,173.4,102.3,172.8,102.3,171.7z"/>
		<path class="st8" d="M105.3,165.7h0.8c0,0.3,0,0.9,0,1.9s0,1.9,0,2.5v4.5h-0.7V165.7z"/>
		<path class="st8" d="M111.2,171.1v-0.4c0-0.7-0.4-1.1-1.2-1.1c-0.5,0-1,0.1-1.5,0.4v-0.7c0.5-0.2,1.1-0.3,1.6-0.3
			c1.3,0,1.9,0.6,1.9,1.7c0,0.3,0,0.8,0,1.4c0,0.6,0,1.1,0,1.4c0,0.4,0,0.8,0,1.1c-0.3,0-0.6,0-1.1,0.1s-0.7,0.1-0.9,0.1
			c-0.6,0-1.1-0.2-1.4-0.5c-0.3-0.3-0.5-0.7-0.5-1.2c0-0.6,0.3-1.1,0.8-1.4C109.3,171.3,110.1,171.1,111.2,171.1z M111.2,171.7
			c-0.8,0-1.4,0.1-1.8,0.3c-0.4,0.2-0.5,0.6-0.5,1c0,0.3,0.1,0.6,0.3,0.8s0.5,0.3,0.9,0.3c0.7,0,1.1-0.2,1.1-0.5
			C111.2,173.4,111.2,172.8,111.2,171.7z"/>
		<path class="st8" d="M117.6,167.3l0.3,1l-1.7,0.2c0,0-0.1,0-0.1,0c0,0,0,0.1,0,0.1l1.3,1.2l-0.9,0.6l-0.7-1.6c0-0.1-0.1-0.1-0.2,0
			l-0.7,1.6l-0.9-0.6l1.3-1.2c0.1-0.1,0.1-0.1,0-0.2l-1.7-0.2l0.3-1l1.5,0.9c0,0,0.1,0,0.1,0c0,0,0-0.1,0-0.1l-0.4-1.7h1l-0.3,1.7
			c0,0.1,0,0.1,0,0.1c0,0,0.1,0,0.1,0L117.6,167.3z"/>
		<path class="st8" d="M126.7,165.6c-0.5,0-0.9,0.1-1.2,0.4s-0.6,0.7-0.8,1.2s-0.4,1.1-0.5,1.7c-0.1,0.6-0.2,1.3-0.2,2.1
			c0,0.6,0,1.1,0.1,1.7s0.2,1.2,0.4,1.8c0.2,0.6,0.5,1.1,0.8,1.5s0.8,0.6,1.3,0.6l-0.1,0.6c-0.7,0-1.3-0.3-1.8-0.9
			c-0.5-0.6-0.9-1.3-1.2-2.2c-0.3-0.9-0.4-1.9-0.4-3c0-1.8,0.3-3.3,1-4.4s1.5-1.8,2.5-1.8L126.7,165.6z"/>
		<path class="st8" d="M135.2,170.8v3.8h-0.7V171c0-0.5-0.1-0.9-0.3-1.1c-0.2-0.2-0.5-0.3-0.9-0.3c-0.3,0-0.6,0.1-0.9,0.2
			c-0.3,0.1-0.4,0.3-0.4,0.5c0,0.1,0,0.3,0,0.6v3.7h-0.7V171c0-0.9-0.4-1.4-1.1-1.4c-0.3,0-0.6,0.1-0.9,0.2
			c-0.3,0.1-0.4,0.3-0.4,0.6v4.2h-0.7v-5.4c0.4,0,0.8-0.1,1.2-0.2c0.4-0.1,0.8-0.2,1-0.2c0.6,0,1,0.2,1.3,0.5
			c0.5-0.4,1.1-0.5,1.8-0.5C134.6,169,135.2,169.6,135.2,170.8z"/>
		<path class="st8" d="M138,171.6v0.3c0,0.8,0.2,1.3,0.5,1.7s0.9,0.6,1.5,0.6c0.4,0,0.8-0.1,1.1-0.2v0.6c-0.3,0.1-0.7,0.2-1.2,0.2
			c-0.8,0-1.5-0.2-2-0.7c-0.5-0.5-0.7-1.2-0.7-2.2c0-0.8,0.2-1.5,0.7-2.1c0.5-0.5,1.1-0.8,1.8-0.8c0.6,0,1.1,0.2,1.4,0.6
			c0.3,0.4,0.5,0.9,0.5,1.5c0,0.2,0,0.3,0,0.5H138z M138.1,170.9h2.4c0.1,0,0.2,0,0.2-0.1c0,0,0.1-0.1,0.1-0.2
			c0-0.3-0.1-0.6-0.3-0.8c-0.2-0.2-0.5-0.3-0.9-0.3c-0.5,0-0.9,0.1-1.1,0.4C138.3,170.3,138.1,170.6,138.1,170.9z"/>
		<path class="st8" d="M143.2,170.5c0-0.5,0.2-0.9,0.5-1.2c0.4-0.3,0.8-0.4,1.4-0.4c0.4,0,0.7,0.1,1,0.2v0.7
			c-0.4-0.1-0.7-0.2-1.1-0.2c-0.4,0-0.6,0.1-0.8,0.2c-0.2,0.1-0.3,0.3-0.3,0.6c0,0.3,0.1,0.5,0.4,0.7c0.3,0.2,0.6,0.4,0.9,0.5
			c0.3,0.1,0.6,0.3,0.9,0.6c0.3,0.3,0.4,0.6,0.4,0.9c0,0.5-0.2,0.9-0.5,1.2c-0.3,0.3-0.9,0.5-1.5,0.5c-0.4,0-0.8-0.1-1.2-0.2V174
			c0.4,0.1,0.8,0.2,1.2,0.2c0.4,0,0.8-0.1,1-0.3s0.3-0.4,0.3-0.7c0-0.2-0.1-0.4-0.3-0.6c-0.2-0.2-0.4-0.3-0.6-0.4
			c-0.2-0.1-0.5-0.2-0.8-0.3s-0.5-0.3-0.6-0.5C143.3,171.1,143.2,170.8,143.2,170.5z"/>
		<path class="st8" d="M149,171.6v0.3c0,0.8,0.2,1.3,0.5,1.7s0.9,0.6,1.5,0.6c0.4,0,0.8-0.1,1.1-0.2v0.6c-0.3,0.1-0.7,0.2-1.2,0.2
			c-0.8,0-1.5-0.2-2-0.7c-0.5-0.5-0.7-1.2-0.7-2.2c0-0.8,0.2-1.5,0.7-2.1c0.5-0.5,1.1-0.8,1.8-0.8c0.6,0,1.1,0.2,1.4,0.6
			c0.3,0.4,0.5,0.9,0.5,1.5c0,0.2,0,0.3,0,0.5H149z M149.1,170.9h2.4c0.1,0,0.2,0,0.2-0.1c0,0,0.1-0.1,0.1-0.2
			c0-0.3-0.1-0.6-0.3-0.8c-0.2-0.2-0.5-0.3-0.9-0.3c-0.5,0-0.9,0.1-1.1,0.4C149.3,170.3,149.1,170.6,149.1,170.9z"/>
		<path class="st8" d="M154.2,170.5c0-0.5,0.2-0.9,0.5-1.2c0.4-0.3,0.8-0.4,1.4-0.4c0.4,0,0.7,0.1,1,0.2v0.7
			c-0.4-0.1-0.7-0.2-1.1-0.2c-0.4,0-0.6,0.1-0.8,0.2c-0.2,0.1-0.3,0.3-0.3,0.6c0,0.3,0.1,0.5,0.4,0.7c0.3,0.2,0.6,0.4,0.9,0.5
			c0.3,0.1,0.6,0.3,0.9,0.6c0.3,0.3,0.4,0.6,0.4,0.9c0,0.5-0.2,0.9-0.5,1.2c-0.3,0.3-0.9,0.5-1.5,0.5c-0.4,0-0.8-0.1-1.2-0.2V174
			c0.4,0.1,0.8,0.2,1.2,0.2c0.4,0,0.8-0.1,1-0.3s0.3-0.4,0.3-0.7c0-0.2-0.1-0.4-0.3-0.6c-0.2-0.2-0.4-0.3-0.6-0.4
			c-0.2-0.1-0.5-0.2-0.8-0.3s-0.5-0.3-0.6-0.5C154.3,171.1,154.2,170.8,154.2,170.5z"/>
		<path class="st8" d="M158.7,176.6c0.5,0,0.9-0.1,1.2-0.4s0.6-0.7,0.8-1.2c0.2-0.5,0.4-1.1,0.5-1.7c0.1-0.6,0.2-1.3,0.2-2.1
			c0-0.6,0-1.1-0.1-1.7c-0.1-0.6-0.2-1.2-0.4-1.8c-0.2-0.6-0.5-1.1-0.8-1.5c-0.4-0.4-0.8-0.6-1.3-0.6l0.1-0.6c0.7,0,1.3,0.3,1.8,0.9
			s0.9,1.3,1.2,2.2c0.3,0.9,0.4,1.9,0.4,3c0,1.8-0.3,3.3-1,4.4c-0.7,1.2-1.5,1.8-2.5,1.8L158.7,176.6z"/>
	</g>
	<g>
		<path class="st8" d="M249.9,168l2.7-1.7c0,1.5,0,2.8,0,3.9v4.5h-0.8v-6.9l-1.9,1.2V168z"/>
		<path class="st8" d="M255.6,174.2c0-0.2,0.1-0.3,0.2-0.4c0.1-0.1,0.3-0.2,0.4-0.2c0.2,0,0.3,0.1,0.4,0.2c0.1,0.1,0.2,0.2,0.2,0.4
			c0,0.2-0.1,0.3-0.2,0.4c-0.1,0.1-0.2,0.2-0.4,0.2s-0.3-0.1-0.4-0.2C255.7,174.5,255.6,174.3,255.6,174.2z"/>
		<path class="st8" d="M263,174.1c-0.4,0.4-1.1,0.6-1.8,0.6c-0.8,0-1.4-0.2-1.8-0.6c-0.4-0.4-0.7-1-0.7-1.7c0-0.5,0.1-1,0.4-1.3
			c0.3-0.4,0.6-0.7,1.1-0.8c-0.9-0.4-1.3-1-1.3-1.9c0-0.5,0.2-1,0.6-1.4s1-0.6,1.7-0.6c0.7,0,1.3,0.2,1.7,0.6s0.6,0.9,0.6,1.4
			c0,0.9-0.4,1.6-1.3,1.9c0.5,0.2,0.8,0.4,1.1,0.8c0.3,0.4,0.4,0.8,0.4,1.3C263.7,173.2,263.5,173.7,263,174.1z M262.4,171.2
			c-0.3-0.4-0.7-0.5-1.2-0.5c-0.5,0-0.9,0.2-1.2,0.5c-0.3,0.4-0.5,0.8-0.5,1.2c0,0.5,0.1,0.9,0.4,1.2c0.3,0.3,0.7,0.5,1.2,0.5
			c0.5,0,0.9-0.2,1.2-0.5c0.3-0.3,0.4-0.7,0.4-1.2C262.9,172,262.7,171.6,262.4,171.2z M261.2,170c0.4,0,0.8-0.2,1-0.5
			s0.4-0.7,0.4-1.1c0-0.4-0.1-0.8-0.4-1.1s-0.6-0.4-1.1-0.4c-0.5,0-0.9,0.1-1.1,0.4s-0.4,0.6-0.4,1.1c0,0.4,0.1,0.8,0.4,1.1
			C260.4,169.9,260.8,170,261.2,170z"/>
	</g>
	<g>
		<path class="st8" d="M352.4,168l2.7-1.7c0,1.5,0,2.8,0,3.9v4.5h-0.8v-6.9l-1.9,1.2V168z"/>
		<path class="st8" d="M358.2,174.2c0-0.2,0.1-0.3,0.2-0.4c0.1-0.1,0.3-0.2,0.4-0.2c0.2,0,0.3,0.1,0.4,0.2c0.1,0.1,0.2,0.2,0.2,0.4
			c0,0.2-0.1,0.3-0.2,0.4c-0.1,0.1-0.2,0.2-0.4,0.2c-0.2,0-0.3-0.1-0.4-0.2C358.2,174.5,358.2,174.3,358.2,174.2z"/>
		<path class="st8" d="M362.5,169.7c0.3-0.3,0.7-0.5,1.3-0.5c0.6,0,1.2,0.2,1.6,0.7c0.4,0.5,0.7,1.1,0.7,2c0,0.8-0.2,1.4-0.6,2
			c-0.4,0.6-1,0.9-1.7,0.9c-0.7,0-1.3-0.3-1.7-0.8c-0.4-0.5-0.6-1.3-0.6-2.2c0-1.2,0.3-2.3,1-3.3c0.6-1,1.6-1.7,2.8-2.3l0.3,0.5
			c-0.8,0.4-1.5,0.8-2,1.4C363,168.8,362.6,169.3,362.5,169.7z M365.3,171.9c0-0.2,0-0.4-0.1-0.6s-0.1-0.4-0.2-0.6
			c-0.1-0.2-0.3-0.4-0.5-0.6c-0.2-0.1-0.5-0.2-0.8-0.2c-0.5,0-0.9,0.2-1.2,0.5c-0.3,0.4-0.4,0.8-0.4,1.3c0,0.7,0.1,1.3,0.4,1.7
			c0.3,0.4,0.7,0.6,1.1,0.6C364.8,174.1,365.3,173.4,365.3,171.9z"/>
	</g>
	<g>
		<path class="st8" d="M452.9,173.9c2,0,3.2,0,3.6-0.1l0,0.7h-5l0-0.2c2.7-2,4.1-3.9,4.1-5.7c0-0.6-0.1-1-0.4-1.3
			c-0.3-0.3-0.7-0.4-1.1-0.4c-0.4,0-0.8,0.1-1,0.4s-0.4,0.7-0.4,1.1c0,0.1,0,0.3,0,0.4H452c-0.1-0.2-0.1-0.4-0.1-0.6
			c0-0.5,0.2-1,0.6-1.4c0.4-0.4,0.9-0.6,1.5-0.6c0.8,0,1.3,0.2,1.7,0.7c0.4,0.4,0.6,1,0.6,1.7c0,0.9-0.3,1.8-1,2.7
			C454.6,172.4,453.8,173.3,452.9,173.9z"/>
		<path class="st8" d="M458.2,174.2c0-0.2,0.1-0.3,0.2-0.4c0.1-0.1,0.3-0.2,0.4-0.2c0.2,0,0.3,0.1,0.4,0.2c0.1,0.1,0.2,0.2,0.2,0.4
			c0,0.2-0.1,0.3-0.2,0.4c-0.1,0.1-0.2,0.2-0.4,0.2c-0.2,0-0.3-0.1-0.4-0.2C458.3,174.5,458.2,174.3,458.2,174.2z"/>
		<path class="st8" d="M462.4,168l2.7-1.7c0,1.5,0,2.8,0,3.9v4.5h-0.8v-6.9l-1.9,1.2V168z"/>
	</g>
	<g>
		<path class="st8" d="M433.2,40.1l0.3,0.8L432,41c0,0-0.1,0-0.1,0c0,0,0,0.1,0,0.1l1.1,1l-0.7,0.5l-0.6-1.3c0-0.1-0.1-0.1-0.1,0
			l-0.6,1.3l-0.7-0.5l1.1-1c0.1-0.1,0.1-0.1,0-0.1l-1.4-0.1l0.3-0.8l1.2,0.7c0,0,0.1,0,0.1,0s0,0,0-0.1l-0.3-1.4h0.9l-0.3,1.4
			c0,0,0,0.1,0,0.1s0.1,0,0.1,0L433.2,40.1z"/>
		<path class="st8" d="M436.4,43c-0.3,0-0.6,0-0.9-0.1v3.2h-0.7v-6.7c0.2,0,0.5,0,0.8,0c0.3,0,0.6,0,0.8,0c0.7,0,1.2,0.2,1.6,0.5
			s0.6,0.8,0.6,1.4c0,0.6-0.2,1-0.6,1.3C437.6,42.9,437.1,43,436.4,43z M435.5,40.1c0,0.6,0,1.4,0,2.2c0.3,0.1,0.6,0.1,0.9,0.1
			c0.5,0,0.9-0.1,1.1-0.3c0.3-0.2,0.4-0.5,0.4-1c0-0.4-0.1-0.8-0.4-1s-0.6-0.3-1.1-0.3c-0.3,0-0.5,0-0.6,0c-0.1,0-0.2,0.1-0.2,0.1
			S435.5,40.1,435.5,40.1z"/>
		<path class="st8" d="M440.3,46.1h-0.6v-4.6h0.6V42c0.1-0.2,0.3-0.4,0.5-0.5c0.2-0.1,0.5-0.2,0.7-0.2c0.2,0,0.3,0,0.5,0v0.7
			c-0.2-0.1-0.4-0.1-0.6-0.1c-0.3,0-0.6,0.1-0.8,0.2c-0.2,0.1-0.3,0.3-0.3,0.6C440.3,43.4,440.3,44.5,440.3,46.1z"/>
		<path class="st8" d="M444.5,41.4c0.6,0,1.1,0.2,1.5,0.7c0.4,0.4,0.5,1,0.5,1.8c0,0.7-0.2,1.3-0.5,1.8c-0.4,0.4-0.8,0.7-1.5,0.7
			c-0.6,0-1.1-0.2-1.4-0.7c-0.4-0.4-0.5-1-0.5-1.8c0-0.7,0.2-1.3,0.5-1.8S443.9,41.4,444.5,41.4z M445.4,42.5
			c-0.2-0.3-0.6-0.5-1-0.5s-0.7,0.2-0.9,0.5c-0.2,0.3-0.3,0.8-0.3,1.4c0,0.6,0.1,1.1,0.4,1.4c0.2,0.3,0.6,0.5,1,0.5s0.7-0.2,0.9-0.5
			c0.2-0.3,0.3-0.8,0.3-1.4C445.8,43.2,445.7,42.8,445.4,42.5z"/>
		<path class="st8" d="M453.6,43v3.2H453v-3c0-0.4-0.1-0.7-0.2-0.9c-0.2-0.2-0.4-0.3-0.7-0.3c-0.3,0-0.5,0.1-0.7,0.2
			s-0.3,0.2-0.3,0.4c0,0.1,0,0.3,0,0.5v3.1h-0.6v-3c0-0.8-0.3-1.2-1-1.2c-0.3,0-0.5,0.1-0.7,0.2c-0.2,0.1-0.3,0.3-0.3,0.5v3.5h-0.6
			v-4.5c0.3,0,0.6,0,1-0.1s0.6-0.1,0.8-0.1c0.5,0,0.8,0.2,1.1,0.5c0.4-0.3,0.9-0.5,1.5-0.5C453.1,41.4,453.6,41.9,453.6,43z"/>
		<path class="st8" d="M456.8,41.4c0.6,0,1.1,0.2,1.5,0.7c0.4,0.4,0.5,1,0.5,1.8c0,0.7-0.2,1.3-0.5,1.8c-0.4,0.4-0.8,0.7-1.5,0.7
			c-0.6,0-1.1-0.2-1.4-0.7c-0.4-0.4-0.5-1-0.5-1.8c0-0.7,0.2-1.3,0.5-1.8S456.2,41.4,456.8,41.4z M457.8,42.5
			c-0.2-0.3-0.6-0.5-1-0.5s-0.7,0.2-0.9,0.5c-0.2,0.3-0.3,0.8-0.3,1.4c0,0.6,0.1,1.1,0.4,1.4c0.2,0.3,0.6,0.5,1,0.5s0.7-0.2,0.9-0.5
			c0.2-0.3,0.3-0.8,0.3-1.4C458.1,43.2,458,42.8,457.8,42.5z"/>
		<path class="st8" d="M459.6,42.1v-0.6h0.7v-1l0.6-0.4v1.3h1.5v0.6h-1.5c0,0.2,0,0.6,0,1.3c0,0.7,0,1.2,0,1.7
			c0,0.4,0.2,0.7,0.7,0.7c0.3,0,0.6-0.1,0.9-0.2V46c-0.4,0.2-0.7,0.3-1.1,0.3c-0.3,0-0.6-0.1-0.8-0.3s-0.3-0.5-0.3-0.8v-3.1H459.6z"
			/>
		<path class="st8" d="M465.2,41.4c0.6,0,1.1,0.2,1.5,0.7c0.4,0.4,0.5,1,0.5,1.8c0,0.7-0.2,1.3-0.5,1.8c-0.4,0.4-0.8,0.7-1.5,0.7
			c-0.6,0-1.1-0.2-1.4-0.7c-0.4-0.4-0.5-1-0.5-1.8c0-0.7,0.2-1.3,0.5-1.8S464.6,41.4,465.2,41.4z M466.2,42.5
			c-0.2-0.3-0.6-0.5-1-0.5s-0.7,0.2-0.9,0.5c-0.2,0.3-0.3,0.8-0.3,1.4c0,0.6,0.1,1.1,0.4,1.4c0.2,0.3,0.6,0.5,1,0.5s0.7-0.2,0.9-0.5
			c0.2-0.3,0.3-0.8,0.3-1.4C466.6,43.2,466.4,42.8,466.2,42.5z"/>
		<path class="st8" d="M469.1,46.1h-0.6v-4.6h0.6V42c0.1-0.2,0.3-0.4,0.5-0.5c0.2-0.1,0.5-0.2,0.7-0.2c0.2,0,0.3,0,0.5,0v0.7
			c-0.2-0.1-0.4-0.1-0.6-0.1c-0.3,0-0.6,0.1-0.8,0.2c-0.2,0.1-0.3,0.3-0.3,0.6C469.1,43.4,469.1,44.5,469.1,46.1z"/>
		<path class="st8" d="M478.5,39.4v0.7c-0.4-0.2-0.9-0.3-1.4-0.3c-0.8,0-1.5,0.2-2,0.7c-0.5,0.5-0.7,1.2-0.7,2.2s0.2,1.8,0.7,2.2
			s1.1,0.7,2,0.7c0.5,0,1-0.1,1.4-0.3V46c-0.5,0.2-1,0.3-1.4,0.3c-0.4,0-0.7,0-1.1-0.1s-0.6-0.2-0.9-0.4s-0.5-0.4-0.8-0.7
			s-0.4-0.6-0.5-1s-0.2-0.8-0.2-1.3c0-1.2,0.3-2.1,1-2.7c0.6-0.6,1.5-0.9,2.4-0.9C477.7,39.2,478.2,39.3,478.5,39.4z"/>
		<path class="st8" d="M482.8,45.8l-2.1-5.5c-0.2,3-0.3,4.9-0.3,5.9h-0.7l0.4-6.7h0.9c0.7,2.1,1.4,3.8,1.9,5
			c0.1,0.1,0.1,0.2,0.1,0.2c0,0,0.1-0.1,0.1-0.2l2-5h0.8l0.2,3.6c0.1,1.5,0.2,2.5,0.2,3.1h-0.7l-0.3-5.9c-0.6,1.6-1.4,3.4-2.2,5.5
			H482.8z"/>
		<path class="st8" d="M488.1,45.8c0-0.1,0-0.3,0.1-0.3s0.2-0.1,0.4-0.1c0.1,0,0.3,0,0.4,0.1c0.1,0.1,0.1,0.2,0.1,0.3
			c0,0.1,0,0.3-0.1,0.3c-0.1,0.1-0.2,0.1-0.4,0.1s-0.3,0-0.4-0.1C488.1,46,488.1,45.9,488.1,45.8z"/>
	</g>
	<g>
		<path class="st8" d="M430.1,55c0-0.5,0.2-1,0.6-1.3c0.4-0.3,0.9-0.5,1.6-0.5c0.4,0,0.7,0,1,0.1V54c-0.4-0.1-0.7-0.2-1-0.2
			c-0.4,0-0.8,0.1-1,0.3c-0.3,0.2-0.4,0.5-0.4,0.8c0,0.2,0.1,0.4,0.2,0.6s0.3,0.3,0.5,0.5c0.2,0.1,0.4,0.3,0.7,0.4
			c0.2,0.2,0.5,0.3,0.7,0.5c0.2,0.2,0.4,0.4,0.5,0.6s0.2,0.5,0.2,0.8c0,0.6-0.2,1.1-0.7,1.4s-1,0.5-1.7,0.5c-0.4,0-0.8,0-1.2-0.1
			v-0.6c0.4,0.1,0.8,0.1,1.1,0.1c0.5,0,0.9-0.1,1.3-0.3s0.5-0.5,0.5-0.9c0-0.2-0.1-0.5-0.2-0.7c-0.1-0.2-0.3-0.4-0.5-0.5
			c-0.2-0.1-0.4-0.3-0.7-0.4c-0.2-0.2-0.5-0.3-0.7-0.5s-0.4-0.3-0.5-0.6S430.1,55.3,430.1,55z"/>
		<path class="st8" d="M435.3,60.1h-0.7c0.2-0.4,0.7-1.7,1.5-3.7c0.8-2,1.3-3.3,1.4-3.7h0.8c-0.2,0.4-0.7,1.7-1.5,3.7
			C435.9,58.5,435.4,59.7,435.3,60.1z"/>
		<path class="st8" d="M439.2,53.4h0.7c0,1.3,0,2.3,0,3v3.7h-0.7V53.4z"/>
		<path class="st8" d="M441.6,55.9c0-0.1,0-0.3,0.1-0.3c0.1-0.1,0.2-0.1,0.4-0.1c0.1,0,0.3,0,0.4,0.1c0.1,0.1,0.1,0.2,0.1,0.3
			c0,0.1,0,0.3-0.1,0.3c-0.1,0.1-0.2,0.1-0.4,0.1s-0.3,0-0.4-0.1C441.7,56.2,441.6,56.1,441.6,55.9z M441.6,59.8
			c0-0.1,0-0.3,0.1-0.3s0.2-0.1,0.4-0.1c0.1,0,0.3,0,0.4,0.1c0.1,0.1,0.1,0.2,0.1,0.3c0,0.1,0,0.3-0.1,0.3c-0.1,0.1-0.2,0.1-0.4,0.1
			s-0.3,0-0.4-0.1C441.7,60,441.6,59.9,441.6,59.8z"/>
		<path class="st8" d="M446.1,56.7c0-0.4,0.1-0.7,0.4-1c0.3-0.2,0.7-0.4,1.2-0.4c0.3,0,0.6,0,0.9,0.1v0.6c-0.3-0.1-0.6-0.2-0.9-0.2
			c-0.3,0-0.5,0.1-0.7,0.2s-0.3,0.3-0.3,0.5c0,0.2,0.1,0.4,0.3,0.6c0.2,0.2,0.5,0.3,0.7,0.4c0.3,0.1,0.5,0.3,0.7,0.5
			c0.2,0.2,0.3,0.5,0.3,0.8c0,0.4-0.1,0.8-0.4,1c-0.3,0.3-0.7,0.4-1.3,0.4c-0.4,0-0.7,0-1-0.1v-0.5c0.3,0.1,0.7,0.2,1,0.2
			c0.4,0,0.6-0.1,0.8-0.2c0.2-0.1,0.3-0.3,0.3-0.6c0-0.2-0.1-0.4-0.2-0.5s-0.3-0.3-0.5-0.4c-0.2-0.1-0.4-0.2-0.6-0.3
			c-0.2-0.1-0.4-0.2-0.5-0.4C446.2,57.2,446.1,57,446.1,56.7z"/>
		<path class="st8" d="M450.4,53.7c0.1,0,0.2,0,0.3,0.1c0.1,0.1,0.1,0.2,0.1,0.3c0,0.1,0,0.2-0.1,0.3c-0.1,0.1-0.2,0.1-0.3,0.1
			c-0.1,0-0.2,0-0.3-0.1c-0.1-0.1-0.1-0.2-0.1-0.3c0-0.1,0-0.2,0.1-0.3C450.2,53.8,450.3,53.7,450.4,53.7z M450.1,55.6h0.6
			c0,1.3,0,2.8,0,4.6h-0.6V55.6z"/>
		<path class="st8" d="M454.1,56c-0.3,0-0.6,0.1-0.8,0.2c-0.2,0.1-0.3,0.2-0.3,0.4v3.6h-0.6v-4.5c0.3,0,0.7,0,1-0.1s0.6-0.1,0.9-0.1
			c0.4,0,0.8,0.1,1.1,0.4c0.3,0.2,0.4,0.6,0.4,1.2v3.2h-0.6v-3c0-0.4-0.1-0.7-0.3-0.9C454.8,56.1,454.5,56,454.1,56z"/>
		<path class="st8" d="M459.9,53.7c0.1,0,0.2,0,0.3,0.1c0.1,0.1,0.1,0.2,0.1,0.3c0,0.1,0,0.2-0.1,0.3c-0.1,0.1-0.2,0.1-0.3,0.1
			c-0.1,0-0.2,0-0.3-0.1c-0.1-0.1-0.1-0.2-0.1-0.3c0-0.1,0-0.2,0.1-0.3C459.6,53.8,459.7,53.7,459.9,53.7z M459.6,55.6h0.6
			c0,1.3,0,2.8,0,4.6h-0.6V55.6z"/>
		<path class="st8" d="M463.5,56c-0.3,0-0.6,0.1-0.8,0.2c-0.2,0.1-0.3,0.2-0.3,0.4v3.6h-0.6v-4.5c0.3,0,0.7,0,1-0.1s0.6-0.1,0.9-0.1
			c0.4,0,0.8,0.1,1.1,0.4c0.3,0.2,0.4,0.6,0.4,1.2v3.2h-0.6v-3c0-0.4-0.1-0.7-0.3-0.9C464.2,56.1,463.9,56,463.5,56z"/>
		<path class="st8" d="M467.6,56.1l0,4h-0.6v-4h-0.7v-0.6h0.7v-1.2c0-0.4,0.1-0.7,0.4-1c0.2-0.2,0.6-0.4,1.1-0.4
			c0.2,0,0.4,0,0.7,0.1v0.6c-0.3-0.1-0.6-0.1-0.8-0.1c-0.5,0-0.8,0.2-0.8,0.8v1.3h1.6v0.6H467.6z"/>
		<path class="st8" d="M471.6,55.4c0.6,0,1.1,0.2,1.5,0.7c0.4,0.4,0.5,1,0.5,1.8c0,0.7-0.2,1.3-0.5,1.8c-0.4,0.4-0.8,0.7-1.5,0.7
			c-0.6,0-1.1-0.2-1.4-0.7c-0.4-0.4-0.5-1-0.5-1.8c0-0.7,0.2-1.3,0.5-1.8S471,55.4,471.6,55.4z M472.5,56.5c-0.2-0.3-0.6-0.5-1-0.5
			s-0.7,0.2-0.9,0.5c-0.2,0.3-0.3,0.8-0.3,1.4c0,0.6,0.1,1.1,0.4,1.4c0.2,0.3,0.6,0.5,1,0.5s0.7-0.2,0.9-0.5
			c0.2-0.3,0.3-0.8,0.3-1.4C472.9,57.2,472.8,56.8,472.5,56.5z"/>
		<path class="st8" d="M475.4,60.1h-0.6v-4.6h0.6V56c0.1-0.2,0.3-0.4,0.5-0.5c0.2-0.1,0.5-0.2,0.7-0.2c0.2,0,0.3,0,0.5,0v0.7
			c-0.2-0.1-0.4-0.1-0.6-0.1c-0.3,0-0.6,0.1-0.8,0.2c-0.2,0.1-0.3,0.3-0.3,0.6C475.4,57.4,475.4,58.5,475.4,60.1z"/>
		<path class="st8" d="M483.9,57v3.2h-0.6v-3c0-0.4-0.1-0.7-0.2-0.9c-0.2-0.2-0.4-0.3-0.7-0.3c-0.3,0-0.5,0.1-0.7,0.2
			s-0.3,0.2-0.3,0.4c0,0.1,0,0.3,0,0.5v3.1h-0.6v-3c0-0.8-0.3-1.2-1-1.2c-0.3,0-0.5,0.1-0.7,0.2c-0.2,0.1-0.3,0.3-0.3,0.5v3.5H478
			v-4.5c0.3,0,0.6,0,1-0.1s0.6-0.1,0.8-0.1c0.5,0,0.8,0.2,1.1,0.5c0.4-0.3,0.9-0.5,1.5-0.5C483.4,55.4,483.9,55.9,483.9,57z"/>
		<path class="st8" d="M487.7,57.2v-0.3c0-0.6-0.3-0.9-1-0.9c-0.4,0-0.9,0.1-1.3,0.3v-0.5c0.4-0.2,0.9-0.3,1.3-0.3
			c1.1,0,1.6,0.5,1.6,1.4c0,0.3,0,0.7,0,1.2s0,0.9,0,1.2c0,0.3,0,0.6,0,0.9c-0.2,0-0.5,0-0.9,0.1c-0.4,0-0.6,0.1-0.8,0.1
			c-0.5,0-0.9-0.1-1.2-0.4c-0.3-0.3-0.4-0.6-0.4-1c0-0.5,0.2-0.9,0.6-1.2S486.8,57.2,487.7,57.2z M487.7,57.7
			c-0.7,0-1.2,0.1-1.5,0.3s-0.5,0.5-0.5,0.9c0,0.3,0.1,0.5,0.2,0.6s0.4,0.2,0.7,0.2c0.6,0,0.9-0.1,0.9-0.4
			C487.7,59.1,487.7,58.6,487.7,57.7z"/>
		<path class="st8" d="M490.3,57.8c0,1.3,0.5,1.9,1.6,1.9c0.2,0,0.5,0,0.7-0.1v0.5c-0.3,0.1-0.5,0.1-0.7,0.1c-0.7,0-1.3-0.2-1.7-0.6
			c-0.4-0.4-0.6-1-0.6-1.8c0-0.7,0.2-1.3,0.6-1.8s1-0.7,1.7-0.7c0.2,0,0.5,0,0.7,0.1v0.6c-0.2-0.1-0.5-0.1-0.8-0.1
			C490.8,56,490.3,56.6,490.3,57.8z"/>
		<path class="st8" d="M494.1,53.7c0.1,0,0.2,0,0.3,0.1c0.1,0.1,0.1,0.2,0.1,0.3c0,0.1,0,0.2-0.1,0.3c-0.1,0.1-0.2,0.1-0.3,0.1
			c-0.1,0-0.2,0-0.3-0.1c-0.1-0.1-0.1-0.2-0.1-0.3c0-0.1,0-0.2,0.1-0.3C493.9,53.8,494,53.7,494.1,53.7z M493.8,55.6h0.6
			c0,1.3,0,2.8,0,4.6h-0.6V55.6z"/>
		<path class="st8" d="M497.7,55.4c0.6,0,1.1,0.2,1.5,0.7c0.4,0.4,0.5,1,0.5,1.8c0,0.7-0.2,1.3-0.5,1.8c-0.4,0.4-0.8,0.7-1.5,0.7
			c-0.6,0-1.1-0.2-1.4-0.7c-0.4-0.4-0.5-1-0.5-1.8c0-0.7,0.2-1.3,0.5-1.8S497.1,55.4,497.7,55.4z M498.7,56.5
			c-0.2-0.3-0.6-0.5-1-0.5s-0.7,0.2-0.9,0.5c-0.2,0.3-0.3,0.8-0.3,1.4c0,0.6,0.1,1.1,0.4,1.4c0.2,0.3,0.6,0.5,1,0.5s0.7-0.2,0.9-0.5
			c0.2-0.3,0.3-0.8,0.3-1.4C499,57.2,498.9,56.8,498.7,56.5z M497.6,54.9H497c0.4-0.4,0.8-0.9,1.2-1.5h0.8L497.6,54.9z"/>
		<path class="st8" d="M502.7,56c-0.3,0-0.6,0.1-0.8,0.2c-0.2,0.1-0.3,0.2-0.3,0.4v3.6H501v-4.5c0.3,0,0.7,0,1-0.1s0.6-0.1,0.9-0.1
			c0.4,0,0.8,0.1,1.1,0.4c0.3,0.2,0.4,0.6,0.4,1.2v3.2h-0.6v-3c0-0.4-0.1-0.7-0.3-0.9C503.4,56.1,503.1,56,502.7,56z"/>
		<path class="st8" d="M505.9,59.8c0-0.1,0-0.3,0.1-0.3s0.2-0.1,0.4-0.1c0.1,0,0.3,0,0.4,0.1c0.1,0.1,0.1,0.2,0.1,0.3
			c0,0.1,0,0.3-0.1,0.3c-0.1,0.1-0.2,0.1-0.4,0.1s-0.3,0-0.4-0.1C506,60,505.9,59.9,505.9,59.8z"/>
	</g>
</g>
</svg>
