<?xml version="1.0" encoding="utf-8"?>
<!-- Generator: Adobe Illustrator 25.2.1, SVG Export Plug-In . SVG Version: 6.00 Build 0)  -->
<svg version="1.1" id="Capa_1" xmlns="http://www.w3.org/2000/svg" xmlns:xlink="http://www.w3.org/1999/xlink" x="0px" y="0px"
	 viewBox="0 0 680.9 351" style="enable-background:new 0 0 680.9 351;" xml:space="preserve">
<style type="text/css">
	.st0{clip-path:url(#SVGID_2_);fill:none;stroke:#EDEDF0;stroke-width:15;stroke-miterlimit:10;}
	
		.st1{clip-path:url(#SVGID_2_);fill:none;stroke:#FBCEA4;stroke-width:15;stroke-linecap:round;stroke-linejoin:round;stroke-miterlimit:10;}
	
		.st2{clip-path:url(#SVGID_2_);fill:none;stroke:#F8B375;stroke-width:15;stroke-linecap:round;stroke-linejoin:round;stroke-miterlimit:10;}
	
		.st3{clip-path:url(#SVGID_2_);fill:none;stroke:#EF7B10;stroke-width:15;stroke-linecap:round;stroke-linejoin:round;stroke-miterlimit:10;}
	.st4{clip-path:url(#SVGID_2_);fill:#4B5B6D;}
	.st5{fill:none;stroke:#5F6A77;stroke-linecap:round;stroke-linejoin:round;stroke-miterlimit:10;stroke-dasharray:0,2.976;}
	.st6{fill:none;stroke:#5F6A77;stroke-linecap:round;stroke-linejoin:round;stroke-miterlimit:10;}
	.st7{fill:none;stroke:#FFFFFF;stroke-linecap:round;stroke-linejoin:round;stroke-miterlimit:10;stroke-dasharray:0,3.623;}
	.st8{fill:none;stroke:#FFFFFF;stroke-linecap:round;stroke-linejoin:round;stroke-miterlimit:10;}
	.st9{clip-path:url(#SVGID_4_);fill:#FFFFFF;}
	.st10{fill:none;stroke:#5F6A77;stroke-linecap:round;stroke-linejoin:round;stroke-miterlimit:10;stroke-dasharray:0,2.995;}
	.st11{fill:none;stroke:#FFFFFF;stroke-linecap:round;stroke-linejoin:round;stroke-miterlimit:10;stroke-dasharray:0,3.159;}
	.st12{clip-path:url(#SVGID_6_);fill:#FFFFFF;}
	.st13{fill:none;stroke:#5F6A77;stroke-linecap:round;stroke-linejoin:round;stroke-miterlimit:10;stroke-dasharray:0,2.999;}
	.st14{fill:none;stroke:#4B5B6D;stroke-linecap:round;stroke-linejoin:round;stroke-miterlimit:10;stroke-dasharray:0,3.034;}
	.st15{fill:none;stroke:#4B5B6D;stroke-linecap:round;stroke-linejoin:round;stroke-miterlimit:10;}
	.st16{clip-path:url(#SVGID_8_);fill:#4B5B6D;}
	.st17{fill:#FFF3E9;}
	.st18{fill:#EF7B10;}
	.st19{fill:#FFFFFF;}
	.st20{fill:#4B5B6D;}
	.st21{fill:#657483;}
	.st22{clip-path:url(#SVGID_10_);fill:#657483;}
	.st23{clip-path:url(#SVGID_10_);fill:#4B5B6D;}
	.st24{clip-path:url(#SVGID_10_);fill:#FFFFFF;}
	.st25{clip-path:url(#SVGID_10_);fill:#EF7B10;}
	.st26{fill:none;stroke:#4B5B6D;stroke-linecap:round;stroke-linejoin:round;stroke-miterlimit:10;stroke-dasharray:0,3.003;}
	.st27{clip-path:url(#SVGID_12_);fill:none;stroke:#4B5B6D;stroke-linecap:round;stroke-linejoin:round;stroke-miterlimit:10;}
	.st28{fill:none;stroke:#4B5B6D;stroke-linecap:round;stroke-linejoin:round;stroke-miterlimit:10;stroke-dasharray:0,3.002;}
	.st29{clip-path:url(#SVGID_14_);fill:none;stroke:#4B5B6D;stroke-linecap:round;stroke-linejoin:round;stroke-miterlimit:10;}
</style>
<g>
	<g>
		<defs>
			<rect id="SVGID_1_" x="10.5" y="5.3" width="659.9" height="340.3"/>
		</defs>
		<clipPath id="SVGID_2_">
			<use xlink:href="#SVGID_1_"  style="overflow:visible;"/>
		</clipPath>
		<circle class="st0" cx="190" cy="205.5" r="74.7"/>
		<path class="st0" d="M190,304.8c-54.9,0-99.3-44.5-99.3-99.3c0-2.7,0.1-5.3,0.3-8c4.1-51.1,46.8-91.3,99-91.3
			c54.9,0,99.3,44.5,99.3,99.3C289.3,260.3,244.8,304.8,190,304.8z"/>
		<circle class="st0" cx="190" cy="205.5" r="124.7"/>
		<path class="st1" d="M173.2,132.7c5.4-1.2,11-1.9,16.8-1.9"/>
		<path class="st2" d="M91,197.5c4.1-51.1,46.8-91.3,99-91.3"/>
		<path class="st3" d="M313.2,224.8c-9.3,59.7-60.9,105.4-123.2,105.4c-68.9,0-124.7-55.8-124.7-124.7S121.1,80.8,190,80.8"/>
		<path class="st4" d="M428,81.2c0,0.7-0.1,1.3-0.4,1.7s-0.6,0.6-1.1,0.6c-0.5,0-0.9-0.2-1.2-0.6c-0.3-0.4-0.4-0.9-0.4-1.7
			c0-0.8,0.1-1.3,0.4-1.7s0.6-0.6,1.1-0.6c0.5,0,0.9,0.2,1.2,0.6S428,80.5,428,81.2 M424.7,79.1c-0.4,0.5-0.7,1.2-0.7,2.1
			c0,0.9,0.2,1.6,0.7,2.1c0.4,0.5,1,0.8,1.7,0.8c0.7,0,1.3-0.3,1.7-0.8c0.4-0.5,0.6-1.2,0.6-2.1c0-0.9-0.2-1.6-0.6-2.1
			s-1-0.8-1.7-0.8C425.7,78.3,425.1,78.5,424.7,79.1 M422.2,78.9c0.3,0,0.6,0,0.9,0.1v-0.7c-0.3,0-0.6-0.1-0.9-0.1
			c-0.9,0-1.5,0.3-2,0.8c-0.5,0.5-0.7,1.2-0.7,2.1c0,0.9,0.2,1.7,0.7,2.2s1.2,0.7,2,0.7c0.3,0,0.6,0,0.9-0.1v-0.6
			c-0.3,0.1-0.6,0.1-0.9,0.1c-1.3,0-1.9-0.8-1.9-2.3C420.3,79.7,420.9,78.9,422.2,78.9 M417.3,83.9h0.7c0-2.1,0-3.9,0-5.5h-0.8V83.9
			z M417.2,76.4c-0.1,0.1-0.1,0.2-0.1,0.4c0,0.2,0,0.3,0.1,0.4c0.1,0.1,0.2,0.2,0.4,0.2c0.1,0,0.3-0.1,0.4-0.2
			c0.1-0.1,0.2-0.2,0.2-0.4c0-0.1-0.1-0.3-0.2-0.4c-0.1-0.1-0.2-0.1-0.4-0.1C417.5,76.2,417.3,76.3,417.2,76.4 M415.1,83.9h1l-2-2.8
			c1-1.3,1.7-2.2,2.1-2.7h-0.9l-1.5,2.1c0,0.1-0.1,0.1-0.2,0l-1.5-2.1h-1c0.5,0.6,1.2,1.5,2.1,2.8l-2,2.7h0.9c0.5-0.8,1-1.5,1.4-2.1
			c0-0.1,0.1-0.1,0.1,0C414.3,82.6,414.7,83.3,415.1,83.9 M410.1,75.8h-0.9c-0.5,0.7-1,1.4-1.5,1.8h0.8L410.1,75.8z M407.5,79.3
			c0.2-0.3,0.6-0.4,1.1-0.4c0.4,0,0.7,0.1,0.9,0.3c0.2,0.2,0.3,0.4,0.3,0.8c0,0.1,0,0.2-0.1,0.2c0,0-0.1,0.1-0.2,0.1H407
			C407.1,79.9,407.3,79.6,407.5,79.3 M410.5,80.9c0-0.2,0-0.4,0-0.5c0-0.6-0.2-1.1-0.5-1.5c-0.3-0.4-0.8-0.6-1.4-0.6
			c-0.7,0-1.4,0.3-1.8,0.8c-0.5,0.5-0.7,1.2-0.7,2.1c0,1,0.2,1.7,0.7,2.2s1.2,0.7,2,0.7c0.4,0,0.8-0.1,1.2-0.2v-0.6
			c-0.3,0.1-0.7,0.2-1.1,0.2c-0.6,0-1.1-0.2-1.5-0.6c-0.4-0.4-0.5-0.9-0.5-1.7v-0.3H410.5z M400.9,83.5c1-2.5,1.9-4.8,2.6-6.6l0.3,7
			h0.8c-0.1-0.7-0.2-1.9-0.3-3.7l-0.3-4.3h-0.9l-2.4,6c-0.1,0.2-0.1,0.3-0.2,0.3s-0.1-0.1-0.2-0.3c-0.6-1.5-1.4-3.5-2.3-6.1H397
			l-0.5,8.1h0.8c0-1.1,0.1-3.5,0.3-7l2.5,6.6H400.9z M389.6,82.9c-0.1,0.2-0.3,0.2-0.5,0.2s-0.4-0.1-0.5-0.2s-0.2-0.5-0.2-1
			c0-0.5,0.1-0.8,0.2-1c0.1-0.2,0.3-0.2,0.5-0.2s0.4,0.1,0.5,0.2c0.1,0.2,0.2,0.5,0.2,1C389.8,82.4,389.7,82.7,389.6,82.9
			 M383.4,80.3c-0.1,0.2-0.3,0.2-0.5,0.2s-0.4-0.1-0.5-0.2c-0.1-0.2-0.2-0.5-0.2-1c0-0.5,0.1-0.8,0.2-1c0.1-0.2,0.3-0.2,0.5-0.2
			s0.4,0.1,0.5,0.2c0.1,0.2,0.2,0.5,0.2,1C383.6,79.8,383.5,80.2,383.4,80.3 M390.6,80.3c-0.3-0.4-0.8-0.5-1.5-0.5
			c-0.7,0-1.1,0.2-1.5,0.5c-0.3,0.4-0.5,0.9-0.5,1.6c0,0.7,0.2,1.2,0.5,1.6c0.3,0.4,0.8,0.5,1.5,0.5c0.6,0,1.1-0.2,1.5-0.5
			c0.3-0.4,0.5-0.9,0.5-1.6C391.1,81.2,390.9,80.7,390.6,80.3 M387.1,77.4l-3.4,6.5h1.2l3.4-6.5H387.1z M384.4,77.8
			c-0.3-0.4-0.8-0.5-1.5-0.5c-0.6,0-1.1,0.2-1.5,0.5c-0.3,0.4-0.5,0.9-0.5,1.6c0,0.7,0.2,1.2,0.5,1.6c0.3,0.4,0.8,0.5,1.5,0.5
			c0.6,0,1.1-0.2,1.5-0.5c0.3-0.4,0.5-0.9,0.5-1.6C384.9,78.6,384.7,78.1,384.4,77.8 M379.5,82.2h-4.1c0.2-0.1,0.4-0.3,0.8-0.6
			c0.4-0.3,0.8-0.6,1.1-1c0.6-0.6,1-1.1,1.3-1.6s0.4-1.1,0.4-1.6c0-0.9-0.3-1.6-0.9-2c-0.6-0.5-1.5-0.7-2.6-0.7
			c-0.6,0-1.1,0.1-1.7,0.2c-0.6,0.1-1,0.3-1.3,0.4v2h0.2c0.4-0.2,0.7-0.4,1.2-0.6c0.4-0.2,0.8-0.2,1.2-0.2c0.5,0,0.9,0.1,1.2,0.3
			c0.3,0.2,0.4,0.6,0.4,1c0,0.3-0.1,0.7-0.3,1.1c-0.2,0.4-0.6,0.8-1.1,1.3c-0.3,0.3-0.8,0.7-1.3,1.2c-0.6,0.4-1.1,0.9-1.7,1.3v1.5
			h7.2V82.2z M370.2,74.8h-7.2v1.8h4.7l-4.3,7.4h2.6l4.1-7.3V74.8z"/>
		<path class="st4" d="M415.4,102.9h-0.9c-0.5,0.7-1,1.4-1.5,1.8h0.8L415.4,102.9z M412.7,110.1c-0.2-0.2-0.3-0.6-0.3-1.1v-3.6h-0.7
			v3.7c0,0.6,0.2,1.1,0.6,1.4c0.4,0.3,0.9,0.5,1.5,0.5c0.3,0,0.6,0,1-0.1c0.4-0.1,0.8-0.1,1.1-0.1v-5.4h-0.7v4.3
			c0,0.4-0.4,0.6-1.2,0.6C413.3,110.5,413,110.4,412.7,110.1 M408.7,107c0-0.3,0.1-0.5,0.4-0.7c0.2-0.2,0.6-0.2,1-0.2
			c0.2,0,0.4,0,0.7,0.1v-0.8c-0.2,0-0.4,0-0.6,0c-0.3,0-0.6,0.1-0.9,0.2c-0.3,0.1-0.5,0.3-0.6,0.6v-0.6H408v5.5h0.7
			C408.7,109,408.7,107.7,408.7,107 M403.6,106.4c0.2-0.3,0.6-0.4,1.1-0.4c0.4,0,0.7,0.1,0.9,0.3c0.2,0.2,0.3,0.4,0.3,0.8
			c0,0.1,0,0.2-0.1,0.2c0,0-0.1,0.1-0.2,0.1h-2.4C403.2,107,403.3,106.7,403.6,106.4 M406.6,108c0-0.2,0-0.4,0-0.5
			c0-0.6-0.2-1.1-0.5-1.5c-0.3-0.4-0.8-0.6-1.4-0.6c-0.7,0-1.4,0.3-1.8,0.8c-0.5,0.5-0.7,1.2-0.7,2.1c0,1,0.2,1.7,0.7,2.2
			c0.5,0.5,1.2,0.7,2,0.7c0.4,0,0.8-0.1,1.2-0.2v-0.6c-0.3,0.1-0.7,0.2-1.1,0.2c-0.6,0-1.1-0.2-1.5-0.6c-0.4-0.4-0.5-0.9-0.5-1.7
			V108H406.6z M397.7,103.7c0,0,0.1-0.1,0.3-0.1c0.2,0,0.4,0,0.7,0c0.5,0,1,0.1,1.3,0.4c0.3,0.3,0.5,0.7,0.5,1.2
			c0,0.5-0.2,0.9-0.5,1.2c-0.3,0.3-0.8,0.4-1.4,0.4c-0.4,0-0.7,0-1-0.1c0-1.1,0-2,0.1-2.7C397.6,103.8,397.6,103.7,397.7,103.7
			 M400.6,106.7c0.5-0.4,0.7-0.9,0.7-1.6c0-0.7-0.2-1.3-0.7-1.7c-0.5-0.4-1.1-0.6-1.9-0.6c-0.3,0-0.6,0-0.9,0.1
			c-0.4,0-0.7,0.1-1,0.1v8.1h0.8v-3.8c0.4,0.1,0.7,0.1,1.1,0.1C399.5,107.3,400.1,107.1,400.6,106.7 M389.6,110
			c-0.1,0.2-0.3,0.2-0.5,0.2s-0.4-0.1-0.5-0.2c-0.1-0.2-0.2-0.5-0.2-1c0-0.5,0.1-0.8,0.2-1c0.1-0.2,0.3-0.2,0.5-0.2s0.4,0.1,0.5,0.2
			c0.1,0.2,0.2,0.5,0.2,1C389.8,109.5,389.7,109.8,389.6,110 M383.4,107.4c-0.1,0.2-0.3,0.2-0.5,0.2c-0.2,0-0.4-0.1-0.5-0.2
			c-0.1-0.2-0.2-0.5-0.2-1c0-0.5,0.1-0.8,0.2-1c0.1-0.2,0.3-0.2,0.5-0.2c0.2,0,0.4,0.1,0.5,0.2c0.1,0.2,0.2,0.5,0.2,1
			C383.6,106.9,383.5,107.3,383.4,107.4 M390.6,107.4c-0.3-0.4-0.8-0.5-1.5-0.5c-0.6,0-1.1,0.2-1.5,0.5c-0.3,0.3-0.5,0.9-0.5,1.6
			c0,0.7,0.2,1.2,0.5,1.6c0.3,0.4,0.8,0.5,1.5,0.5c0.6,0,1.1-0.2,1.5-0.5c0.3-0.4,0.5-0.9,0.5-1.6
			C391.1,108.3,390.9,107.8,390.6,107.4 M387.1,104.5l-3.4,6.5h1.2l3.4-6.5H387.1z M384.4,104.9c-0.3-0.3-0.8-0.5-1.5-0.5
			c-0.7,0-1.1,0.2-1.5,0.5c-0.3,0.4-0.5,0.9-0.5,1.6c0,0.7,0.2,1.2,0.5,1.6c0.3,0.4,0.8,0.5,1.5,0.5c0.6,0,1.1-0.2,1.5-0.5
			c0.3-0.4,0.5-0.9,0.5-1.6C384.9,105.7,384.7,105.2,384.4,104.9 M373.5,107.2l2.7-3.3v3.3H373.5z M379.6,107.2h-1.2v-5.4H376
			l-4.3,5.3v1.7h4.4v2.1h2.3v-2.1h1.2V107.2z M370.4,109.3h-4.1c0.2-0.1,0.4-0.3,0.8-0.6c0.4-0.3,0.8-0.6,1.1-1
			c0.6-0.6,1-1.1,1.3-1.6c0.3-0.5,0.4-1.1,0.4-1.6c0-0.9-0.3-1.6-0.9-2s-1.5-0.7-2.6-0.7c-0.6,0-1.1,0.1-1.7,0.2
			c-0.6,0.1-1,0.3-1.3,0.4v2h0.2c0.4-0.2,0.7-0.4,1.2-0.6c0.4-0.2,0.8-0.2,1.2-0.2c0.5,0,0.9,0.1,1.2,0.3c0.3,0.2,0.4,0.6,0.4,1
			c0,0.3-0.1,0.7-0.3,1.1c-0.2,0.4-0.6,0.8-1.1,1.3c-0.3,0.3-0.8,0.7-1.3,1.2c-0.6,0.4-1.1,0.9-1.7,1.3v1.5h7.2V109.3z"/>
		<path class="st4" d="M441.1,133.2c-0.5,0.4-0.8,0.8-0.8,1.4c0,0.5,0.2,0.9,0.5,1.2s0.8,0.5,1.4,0.5c0.2,0,0.5,0,0.9-0.1
			c0.4-0.1,0.8-0.1,1.1-0.1c0-0.3,0-0.7,0-1.1c0-0.3,0-0.8,0-1.4c0-0.6,0-1.1,0-1.4c0-1.1-0.6-1.7-1.9-1.7c-0.6,0-1.1,0.1-1.6,0.3
			v0.7c0.5-0.2,1-0.4,1.5-0.4c0.8,0,1.2,0.4,1.2,1.1v0.4C442.4,132.6,441.6,132.8,441.1,133.2 M443.4,135.1
			c-0.1,0.3-0.4,0.5-1.1,0.5c-0.4,0-0.7-0.1-0.9-0.3c-0.2-0.2-0.3-0.5-0.3-0.8c0-0.5,0.2-0.8,0.5-1c0.4-0.2,1-0.3,1.8-0.3
			C443.5,134.3,443.4,134.9,443.4,135.1 M438.2,136.1h0.7v-4.5c0-0.7,0-1.5,0-2.5c0-1,0-1.7,0-1.9h-0.8V136.1z M433.3,133.2
			c-0.5,0.4-0.8,0.8-0.8,1.4c0,0.5,0.2,0.9,0.5,1.2s0.8,0.5,1.4,0.5c0.2,0,0.5,0,0.9-0.1s0.8-0.1,1.1-0.1c0-0.3,0-0.7,0-1.1
			c0-0.3,0-0.8,0-1.4c0-0.6,0-1.1,0-1.4c0-1.1-0.6-1.7-1.9-1.7c-0.6,0-1.1,0.1-1.6,0.3v0.7c0.5-0.2,1-0.4,1.5-0.4
			c0.8,0,1.2,0.4,1.2,1.1v0.4C434.6,132.6,433.9,132.8,433.3,133.2 M435.7,135.1c-0.1,0.3-0.4,0.5-1.1,0.5c-0.4,0-0.7-0.1-0.9-0.3
			s-0.3-0.5-0.3-0.8c0-0.5,0.2-0.8,0.5-1c0.4-0.2,1-0.3,1.8-0.3C435.7,134.3,435.7,134.9,435.7,135.1 M429.5,130.5
			c-0.7,0-1.2,0.2-1.8,0.5c-0.3-0.4-0.7-0.5-1.3-0.5c-0.3,0-0.6,0.1-1,0.2c-0.4,0.1-0.8,0.1-1.2,0.1v5.4h0.7v-4.2
			c0-0.2,0.1-0.4,0.4-0.6c0.3-0.1,0.6-0.2,0.9-0.2c0.8,0,1.1,0.5,1.1,1.4v3.6h0.7v-3.7c0-0.3,0-0.5,0-0.6c0-0.2,0.1-0.4,0.4-0.5
			c0.3-0.1,0.6-0.2,0.9-0.2c0.4,0,0.7,0.1,0.9,0.3c0.2,0.2,0.3,0.6,0.3,1.1v3.6h0.7v-3.8C431.2,131.1,430.6,130.5,429.5,130.5
			 M419.8,131.5c0.2-0.3,0.6-0.4,1.1-0.4c0.4,0,0.7,0.1,0.9,0.3s0.3,0.4,0.3,0.8c0,0.1,0,0.2-0.1,0.2c0,0-0.1,0.1-0.2,0.1h-2.4
			C419.4,132.1,419.6,131.8,419.8,131.5 M422.8,133.1c0-0.2,0-0.4,0-0.5c0-0.6-0.2-1.2-0.5-1.5c-0.3-0.4-0.8-0.6-1.4-0.6
			c-0.7,0-1.4,0.3-1.8,0.8c-0.5,0.5-0.7,1.2-0.7,2.1c0,1,0.2,1.7,0.7,2.2s1.2,0.7,2,0.7c0.4,0,0.8-0.1,1.2-0.2v-0.6
			c-0.3,0.1-0.7,0.2-1.1,0.2c-0.6,0-1.1-0.2-1.5-0.6c-0.4-0.4-0.5-0.9-0.5-1.7v-0.3H422.8z M415,131.3v3.7c0,0.4,0.1,0.8,0.4,1
			c0.2,0.2,0.6,0.3,0.9,0.3c0.4,0,0.9-0.1,1.3-0.3v-0.6c-0.3,0.2-0.7,0.3-1.1,0.3c-0.5,0-0.8-0.3-0.8-0.8c0-0.5,0-1.2,0-2
			c0-0.8,0-1.3,0-1.5h1.8v-0.7h-1.8V129l-0.7,0.4v1.2h-0.8v0.7H415z M409.9,133.2c-0.5,0.4-0.8,0.8-0.8,1.4c0,0.5,0.2,0.9,0.5,1.2
			s0.8,0.5,1.4,0.5c0.2,0,0.5,0,0.9-0.1c0.4-0.1,0.8-0.1,1.1-0.1c0-0.3,0-0.7,0-1.1c0-0.3,0-0.8,0-1.4c0-0.6,0-1.1,0-1.4
			c0-1.1-0.6-1.7-1.9-1.7c-0.6,0-1.1,0.1-1.6,0.3v0.7c0.5-0.2,1-0.4,1.5-0.4c0.8,0,1.2,0.4,1.2,1.1v0.4
			C411.2,132.6,410.4,132.8,409.9,133.2 M412.2,135.1c-0.1,0.3-0.4,0.5-1.1,0.5c-0.4,0-0.7-0.1-0.9-0.3c-0.2-0.2-0.3-0.5-0.3-0.8
			c0-0.5,0.2-0.8,0.5-1c0.4-0.2,1-0.3,1.8-0.3C412.3,134.3,412.3,134.9,412.2,135.1 M404.6,135.3c-0.2-0.2-0.3-0.6-0.3-1.1v-3.6
			h-0.7v3.7c0,0.6,0.2,1.1,0.6,1.4c0.4,0.3,0.9,0.5,1.5,0.5c0.3,0,0.6,0,1-0.1c0.4-0.1,0.8-0.1,1.1-0.1v-5.4H407v4.3
			c0,0.4-0.4,0.6-1.2,0.6C405.2,135.6,404.8,135.5,404.6,135.3 M402,132.1h-0.8v2.9c0,0.2-0.1,0.3-0.3,0.4s-0.4,0.2-0.8,0.2
			c-0.4,0-0.9-0.1-1.2-0.2c-0.4-0.1-0.7-0.3-1-0.6c-0.3-0.3-0.5-0.6-0.7-1.1c-0.2-0.5-0.2-1-0.2-1.6c0-1.2,0.3-2.1,0.9-2.7
			s1.4-0.9,2.4-0.9c0.6,0,1.1,0.1,1.6,0.3v-0.8c-0.5-0.1-1-0.2-1.6-0.2c-0.6,0-1.1,0.1-1.6,0.3c-0.5,0.2-0.9,0.4-1.3,0.8
			c-0.4,0.4-0.7,0.8-0.9,1.4c-0.2,0.6-0.3,1.2-0.3,2c0,0.7,0.1,1.4,0.3,1.9c0.2,0.5,0.5,1,0.9,1.3s0.8,0.5,1.3,0.7
			c0.5,0.1,1,0.2,1.5,0.2c0.6,0,1.2-0.1,1.8-0.3C401.9,134.1,401.9,132.8,402,132.1 M381.5,135.1c-0.1,0.2-0.3,0.2-0.5,0.2
			s-0.4-0.1-0.5-0.2c-0.1-0.2-0.2-0.5-0.2-1c0-0.5,0.1-0.8,0.2-1c0.1-0.2,0.3-0.2,0.5-0.2s0.4,0.1,0.5,0.2c0.1,0.2,0.2,0.5,0.2,1
			C381.7,134.6,381.6,134.9,381.5,135.1 M375.3,132.5c-0.1,0.2-0.3,0.2-0.5,0.2c-0.2,0-0.4-0.1-0.5-0.2c-0.1-0.2-0.2-0.5-0.2-1
			c0-0.5,0.1-0.8,0.2-1c0.1-0.2,0.3-0.2,0.5-0.2c0.2,0,0.4,0.1,0.5,0.2c0.1,0.2,0.2,0.5,0.2,1C375.5,132,375.4,132.4,375.3,132.5
			 M382.5,132.5c-0.3-0.4-0.8-0.5-1.5-0.5c-0.6,0-1.1,0.2-1.5,0.5c-0.3,0.4-0.5,0.9-0.5,1.6c0,0.7,0.2,1.2,0.5,1.6
			c0.3,0.4,0.8,0.5,1.5,0.5c0.6,0,1.1-0.2,1.5-0.5c0.3-0.4,0.5-0.9,0.5-1.6C383,133.4,382.8,132.9,382.5,132.5 M379,129.6l-3.4,6.5
			h1.2l3.4-6.5H379z M376.3,130c-0.3-0.3-0.8-0.5-1.5-0.5c-0.7,0-1.1,0.2-1.5,0.5c-0.3,0.4-0.5,0.9-0.5,1.6c0,0.7,0.2,1.2,0.5,1.6
			c0.3,0.4,0.8,0.5,1.5,0.5c0.6,0,1.1-0.2,1.5-0.5c0.3-0.4,0.5-0.9,0.5-1.6C376.8,130.8,376.6,130.3,376.3,130 M365.4,132.3l2.7-3.3
			v3.3H365.4z M371.6,132.3h-1.2V127h-2.4l-4.3,5.3v1.7h4.4v2.1h2.3V134h1.2V132.3z"/>
	</g>
	<line class="st5" x1="203.3" y1="79.8" x2="344.6" y2="79.8"/>
	<path class="st6" d="M346.1,79.8L346.1,79.8 M200.3,79.8L200.3,79.8"/>
	<line class="st7" x1="193.9" y1="79.8" x2="195.7" y2="79.8"/>
	<path class="st8" d="M197.5,79.8L197.5,79.8 M190.2,79.8L190.2,79.8"/>
	<g>
		<defs>
			<rect id="SVGID_3_" x="10.5" y="5.3" width="659.9" height="340.3"/>
		</defs>
		<clipPath id="SVGID_4_">
			<use xlink:href="#SVGID_3_"  style="overflow:visible;"/>
		</clipPath>
		<path class="st9" d="M190.2,81.8c1.1,0,2-0.9,2-2c0-1.1-0.9-2-2-2c-1.1,0-2,0.9-2,2C188.2,80.9,189.1,81.8,190.2,81.8"/>
	</g>
	<line class="st10" x1="202.4" y1="105.9" x2="344.6" y2="105.9"/>
	<path class="st6" d="M346.1,105.9L346.1,105.9 M199.4,105.9L199.4,105.9"/>
	<line class="st11" x1="193.4" y1="105.9" x2="195" y2="105.9"/>
	<path class="st8" d="M196.6,105.9L196.6,105.9 M190.2,105.9L190.2,105.9"/>
	<g>
		<defs>
			<rect id="SVGID_5_" x="10.5" y="5.3" width="659.9" height="340.3"/>
		</defs>
		<clipPath id="SVGID_6_">
			<use xlink:href="#SVGID_5_"  style="overflow:visible;"/>
		</clipPath>
		<path class="st12" d="M190.2,107.9c1.1,0,2-0.9,2-2c0-1.1-0.9-2-2-2c-1.1,0-2,0.9-2,2C188.2,107,189.1,107.9,190.2,107.9"/>
	</g>
	<line class="st13" x1="205.1" y1="131" x2="344.6" y2="131"/>
	<path class="st6" d="M346.1,131L346.1,131 M202.1,131L202.1,131"/>
	<line class="st14" x1="193.3" y1="131" x2="197.8" y2="131"/>
	<path class="st15" d="M199.3,131L199.3,131 M190.2,131L190.2,131"/>
	<g>
		<defs>
			<rect id="SVGID_7_" x="10.5" y="5.3" width="659.9" height="340.3"/>
		</defs>
		<clipPath id="SVGID_8_">
			<use xlink:href="#SVGID_7_"  style="overflow:visible;"/>
		</clipPath>
		<path class="st16" d="M190.2,133c1.1,0,2-0.9,2-2c0-1.1-0.9-2-2-2c-1.1,0-2,0.9-2,2C188.2,132.1,189.1,133,190.2,133"/>
	</g>
	<path class="st17" d="M373.6,265.3h98.6v-20h-98.6V265.3z M472.2,265.3h68v-20h-68V265.3z M540.3,265.3h68v-20h-68V265.3z
		 M608.3,265.3h62.1v-20h-62.1V265.3z M373.6,225.7h98.6v-20.4h-98.6V225.7z"/>
	<path class="st18" d="M472.2,225.7h68v-20.4h-68V225.7z M540.3,225.7h68v-20.4h-68V225.7z M608.3,225.7h62.1v-20.4h-62.1V225.7z"/>
	<g>
		<path class="st19" d="M494.4,220v-0.6l0.8-0.8c2-1.9,2.9-2.9,2.9-4.1c0-0.8-0.4-1.5-1.5-1.5c-0.7,0-1.3,0.4-1.7,0.7l-0.3-0.7
			c0.5-0.4,1.3-0.8,2.2-0.8c1.7,0,2.4,1.2,2.4,2.3c0,1.4-1,2.6-2.7,4.2l-0.6,0.6v0h3.5v0.9H494.4z"/>
		<path class="st19" d="M503.1,220.2c-1.5,0-2.6-1.4-2.6-4c0-2.6,1.1-4.1,2.7-4.1c1.6,0,2.6,1.5,2.6,3.9
			C505.8,218.7,504.8,220.2,503.1,220.2L503.1,220.2z M503.1,219.4c1.1,0,1.6-1.3,1.6-3.2c0-1.9-0.5-3.2-1.6-3.2
			c-1,0-1.6,1.2-1.6,3.2C501.5,218.1,502.2,219.4,503.1,219.4L503.1,219.4z"/>
		<path class="st19" d="M509.1,213.2L509.1,213.2l-1.4,0.7l-0.2-0.8l1.7-0.9h0.9v7.8h-1V213.2z"/>
		<path class="st19" d="M515.7,212.1c1.5,0,2.3,0.9,2.3,1.9c0,0.7-0.3,1.4-1.3,1.8v0c1,0.4,1.6,1.1,1.6,2c0,1.4-1.2,2.3-2.7,2.3
			c-1.6,0-2.6-1-2.6-2.1c0-1,0.6-1.7,1.5-2.1v0c-0.9-0.4-1.2-1.1-1.2-1.8C513.2,212.9,514.3,212.1,515.7,212.1L515.7,212.1z
			 M515.6,219.4c0.9,0,1.6-0.6,1.6-1.4c0-0.9-0.7-1.4-1.7-1.7c-0.9,0.3-1.4,0.9-1.4,1.6C514,218.7,514.6,219.4,515.6,219.4
			L515.6,219.4z M515.6,212.9c-0.9,0-1.4,0.6-1.4,1.2c0,0.8,0.6,1.2,1.5,1.4c0.7-0.2,1.2-0.7,1.2-1.4
			C516.9,213.5,516.6,212.9,515.6,212.9L515.6,212.9z"/>
	</g>
	<g>
		<path class="st19" d="M562.4,220v-0.6l0.8-0.8c2-1.9,2.9-2.9,2.9-4.1c0-0.8-0.4-1.5-1.5-1.5c-0.7,0-1.3,0.4-1.7,0.7l-0.3-0.7
			c0.5-0.4,1.3-0.8,2.2-0.8c1.7,0,2.4,1.2,2.4,2.3c0,1.4-1,2.6-2.7,4.2l-0.6,0.6v0h3.5v0.9H562.4z"/>
		<path class="st19" d="M571.1,220.2c-1.5,0-2.6-1.4-2.6-4c0-2.6,1.1-4.1,2.7-4.1c1.6,0,2.6,1.5,2.6,3.9
			C573.8,218.7,572.8,220.2,571.1,220.2L571.1,220.2z M571.2,219.4c1.1,0,1.6-1.3,1.6-3.2c0-1.9-0.5-3.2-1.6-3.2
			c-1,0-1.6,1.2-1.6,3.2C569.6,218.1,570.2,219.4,571.2,219.4L571.2,219.4z"/>
		<path class="st19" d="M577.1,213.2L577.1,213.2l-1.4,0.7l-0.2-0.8l1.7-0.9h0.9v7.8h-1V213.2z"/>
		<path class="st19" d="M581.7,219.3c0.2,0,0.5,0,0.9,0c0.6-0.1,1.2-0.3,1.6-0.7c0.5-0.5,0.9-1.2,1-2.1h0c-0.4,0.5-1.1,0.8-1.8,0.8
			c-1.4,0-2.3-1.1-2.3-2.4c0-1.5,1.1-2.8,2.7-2.8s2.6,1.3,2.6,3.3c0,1.7-0.6,2.9-1.3,3.7c-0.6,0.6-1.4,0.9-2.3,1
			c-0.4,0-0.7,0.1-1,0.1V219.3z M583.6,212.9c-0.9,0-1.5,0.8-1.5,1.9c0,1,0.6,1.7,1.5,1.7c0.7,0,1.3-0.3,1.5-0.8
			c0-0.1,0.1-0.2,0.1-0.4C585.2,213.9,584.7,212.9,583.6,212.9L583.6,212.9z"/>
	</g>
	<g>
		<path class="st19" d="M627.5,220v-0.6l0.8-0.8c2-1.9,2.9-2.9,2.9-4.1c0-0.8-0.4-1.5-1.5-1.5c-0.7,0-1.3,0.4-1.7,0.7l-0.3-0.7
			c0.5-0.4,1.3-0.8,2.2-0.8c1.7,0,2.4,1.2,2.4,2.3c0,1.4-1,2.6-2.7,4.2l-0.6,0.6v0h3.5v0.9H627.5z"/>
		<path class="st19" d="M636.2,220.2c-1.5,0-2.6-1.4-2.6-4c0-2.6,1.1-4.1,2.7-4.1c1.6,0,2.6,1.5,2.6,3.9
			C638.9,218.7,637.9,220.2,636.2,220.2L636.2,220.2z M636.2,219.4c1.1,0,1.6-1.3,1.6-3.2c0-1.9-0.5-3.2-1.6-3.2
			c-1,0-1.6,1.2-1.6,3.2C634.6,218.1,635.3,219.4,636.2,219.4L636.2,219.4z"/>
		<path class="st19" d="M639.9,220v-0.6l0.8-0.8c2-1.9,2.9-2.9,2.9-4.1c0-0.8-0.4-1.5-1.5-1.5c-0.7,0-1.3,0.4-1.7,0.7l-0.3-0.7
			c0.5-0.4,1.3-0.8,2.2-0.8c1.7,0,2.4,1.2,2.4,2.3c0,1.4-1,2.6-2.7,4.2l-0.6,0.6v0h3.5v0.9H639.9z"/>
		<path class="st19" d="M648.6,220.2c-1.5,0-2.6-1.4-2.6-4c0-2.6,1.1-4.1,2.7-4.1c1.6,0,2.6,1.5,2.6,3.9
			C651.3,218.7,650.4,220.2,648.6,220.2L648.6,220.2z M648.7,219.4c1.1,0,1.6-1.3,1.6-3.2c0-1.9-0.5-3.2-1.6-3.2
			c-1,0-1.6,1.2-1.6,3.2C647.1,218.1,647.7,219.4,648.7,219.4L648.7,219.4z"/>
	</g>
	<g>
		<path class="st20" d="M385.3,235.2c-0.1-1.1-0.1-2.5-0.1-3.5h0c-0.3,0.9-0.6,2-1,3.1l-1.4,3.9h-0.8l-1.3-3.8
			c-0.4-1.1-0.7-2.2-0.9-3.1h0c0,1-0.1,2.4-0.2,3.6l-0.2,3.5h-1l0.6-8.1h1.3l1.4,3.9c0.3,1,0.6,1.9,0.8,2.7h0
			c0.2-0.8,0.5-1.7,0.9-2.7l1.4-3.9h1.3l0.5,8.1h-1L385.3,235.2z"/>
		<path class="st20" d="M388.7,236c0,1.4,0.9,2,2,2c0.8,0,1.2-0.1,1.6-0.3l0.2,0.8c-0.4,0.2-1,0.4-1.9,0.4c-1.8,0-2.9-1.2-2.9-2.9
			c0-1.8,1-3.1,2.7-3.1c1.9,0,2.4,1.7,2.4,2.7c0,0.2,0,0.4,0,0.5H388.7z M391.8,235.3c0-0.7-0.3-1.7-1.5-1.7c-1.1,0-1.5,1-1.6,1.7
			H391.8z M392,230.4l-1.5,1.7h-0.7l1.1-1.7H392z"/>
		<path class="st20" d="M394.4,232.9l0.8,1.2c0.2,0.3,0.4,0.6,0.6,0.9h0c0.2-0.3,0.4-0.6,0.6-1l0.8-1.2h1.2l-2,2.8l2,3h-1.2
			l-0.9-1.3c-0.2-0.3-0.4-0.7-0.6-1h0c-0.2,0.3-0.4,0.7-0.6,1l-0.8,1.3h-1.2l2.1-3l-2-2.8H394.4z"/>
		<path class="st20" d="M399.9,231.9c-0.4,0-0.6-0.3-0.6-0.6c0-0.4,0.3-0.7,0.7-0.7c0.4,0,0.6,0.3,0.6,0.7
			C400.6,231.6,400.3,231.9,399.9,231.9L399.9,231.9z M399.4,238.7v-5.8h1.1v5.8H399.4z"/>
		<path class="st20" d="M406.2,238.5c-0.3,0.1-0.9,0.3-1.7,0.3c-1.8,0-2.9-1.2-2.9-3c0-1.8,1.2-3.1,3.1-3.1c0.6,0,1.2,0.2,1.5,0.3
			l-0.2,0.8c-0.3-0.1-0.6-0.3-1.2-0.3c-1.3,0-2.1,1-2.1,2.2c0,1.3,0.9,2.2,2,2.2c0.6,0,1-0.1,1.3-0.3L406.2,238.5z"/>
		<path class="st20" d="M409.6,238.9c-1.6,0-2.8-1.2-2.8-3c0-1.9,1.3-3.1,2.9-3.1c1.7,0,2.8,1.2,2.8,3
			C412.5,237.9,411,238.9,409.6,238.9L409.6,238.9z M409.7,238.1c1,0,1.8-0.9,1.8-2.3c0-1-0.5-2.2-1.7-2.2c-1.2,0-1.8,1.2-1.8,2.3
			C407.9,237.1,408.7,238.1,409.7,238.1L409.7,238.1z"/>
	</g>
	<g>
		<path class="st21" d="M492.3,233.2L492.3,233.2l-1.4,0.7l-0.2-0.8l1.7-0.9h0.9v7.8h-1V233.2z"/>
		<path class="st21" d="M500.6,233c-0.2,0-0.5,0-0.8,0.1c-1.7,0.3-2.5,1.5-2.7,2.8h0c0.4-0.5,1-0.9,1.9-0.9c1.4,0,2.4,1,2.4,2.5
			c0,1.4-1,2.8-2.6,2.8c-1.7,0-2.7-1.3-2.7-3.3c0-1.5,0.5-2.7,1.3-3.5c0.6-0.6,1.5-1,2.5-1.2c0.3,0,0.6-0.1,0.8-0.1V233z
			 M498.8,239.3c0.9,0,1.5-0.8,1.5-1.9s-0.6-1.8-1.6-1.8c-0.6,0-1.2,0.4-1.5,1c-0.1,0.1-0.1,0.3-0.1,0.5
			C497.1,238.4,497.7,239.3,498.8,239.3L498.8,239.3z"/>
		<path class="st21" d="M502.1,241.5c0.3-0.7,0.6-2,0.7-2.9l1.2-0.1c-0.3,1-0.8,2.4-1.2,2.9L502.1,241.5z"/>
		<path class="st21" d="M507.6,232.1c1.5,0,2.3,0.9,2.3,1.9c0,0.7-0.3,1.4-1.3,1.8v0c1,0.4,1.6,1.1,1.6,2c0,1.4-1.2,2.3-2.7,2.3
			c-1.6,0-2.6-1-2.6-2.1c0-1,0.6-1.7,1.5-2.1v0c-0.9-0.4-1.2-1.1-1.2-1.8C505.2,232.9,506.2,232.1,507.6,232.1L507.6,232.1z
			 M507.5,239.4c0.9,0,1.6-0.6,1.6-1.4c0-0.9-0.7-1.4-1.7-1.7c-0.9,0.3-1.4,0.9-1.4,1.6C505.9,238.7,506.5,239.4,507.5,239.4
			L507.5,239.4z M507.5,232.9c-0.9,0-1.4,0.6-1.4,1.2c0,0.8,0.6,1.2,1.5,1.4c0.7-0.2,1.2-0.7,1.2-1.4
			C508.9,233.5,508.5,232.9,507.5,232.9L507.5,232.9z"/>
		<path class="st21" d="M511.5,238.8c0.3,0.2,1,0.5,1.7,0.5c1.3,0,1.8-0.9,1.8-1.5c0-1.1-1-1.6-2-1.6h-0.6v-0.8h0.6
			c0.8,0,1.7-0.4,1.7-1.3c0-0.6-0.4-1.2-1.4-1.2c-0.6,0-1.2,0.3-1.6,0.5l-0.3-0.8c0.4-0.3,1.2-0.6,2.1-0.6c1.5,0,2.2,0.9,2.2,1.9
			c0,0.8-0.5,1.5-1.4,1.8v0c1,0.2,1.7,0.9,1.7,2c0,1.2-1,2.3-2.8,2.3c-0.9,0-1.6-0.3-2-0.5L511.5,238.8z"/>
		<path class="st21" d="M521.9,233c-0.2,0-0.5,0-0.8,0.1c-1.7,0.3-2.5,1.5-2.7,2.8h0c0.4-0.5,1-0.9,1.9-0.9c1.4,0,2.4,1,2.4,2.5
			c0,1.4-1,2.8-2.6,2.8c-1.7,0-2.7-1.3-2.7-3.3c0-1.5,0.5-2.7,1.3-3.5c0.6-0.6,1.5-1,2.5-1.2c0.3,0,0.6-0.1,0.8-0.1V233z
			 M520.1,239.3c0.9,0,1.5-0.8,1.5-1.9s-0.6-1.8-1.6-1.8c-0.6,0-1.2,0.4-1.5,1c-0.1,0.1-0.1,0.3-0.1,0.5
			C518.4,238.4,519,239.3,520.1,239.3L520.1,239.3z"/>
	</g>
	<g>
		<path class="st21" d="M560.3,233.2L560.3,233.2l-1.4,0.7l-0.2-0.8l1.7-0.9h0.9v7.8h-1V233.2z"/>
		<path class="st21" d="M568.7,233c-0.2,0-0.5,0-0.8,0.1c-1.7,0.3-2.5,1.5-2.7,2.8h0c0.4-0.5,1-0.9,1.9-0.9c1.4,0,2.4,1,2.4,2.5
			c0,1.4-1,2.8-2.6,2.8c-1.7,0-2.7-1.3-2.7-3.3c0-1.5,0.5-2.7,1.3-3.5c0.6-0.6,1.5-1,2.5-1.2c0.3,0,0.6-0.1,0.8-0.1V233z
			 M566.9,239.3c0.9,0,1.5-0.8,1.5-1.9s-0.6-1.8-1.6-1.8c-0.6,0-1.2,0.4-1.5,1c-0.1,0.1-0.1,0.3-0.1,0.5
			C565.1,238.4,565.7,239.3,566.9,239.3L566.9,239.3z"/>
		<path class="st21" d="M570.1,241.5c0.3-0.7,0.6-2,0.7-2.9l1.2-0.1c-0.3,1-0.8,2.4-1.2,2.9L570.1,241.5z"/>
		<path class="st21" d="M573,240v-0.6l0.8-0.8c2-1.9,2.9-2.9,2.9-4.1c0-0.8-0.4-1.5-1.5-1.5c-0.7,0-1.3,0.4-1.7,0.7l-0.3-0.7
			c0.5-0.4,1.3-0.8,2.2-0.8c1.7,0,2.4,1.2,2.4,2.3c0,1.4-1,2.6-2.7,4.2l-0.6,0.6v0h3.5v0.9H573z"/>
		<path class="st21" d="M579.8,239.3c0.2,0,0.5,0,0.9,0c0.6-0.1,1.2-0.3,1.6-0.7c0.5-0.5,0.9-1.2,1-2.1h0c-0.4,0.5-1.1,0.8-1.8,0.8
			c-1.4,0-2.3-1.1-2.3-2.4c0-1.5,1.1-2.8,2.7-2.8s2.6,1.3,2.6,3.3c0,1.7-0.6,2.9-1.3,3.7c-0.6,0.6-1.4,0.9-2.3,1
			c-0.4,0-0.7,0.1-1,0.1V239.3z M581.8,232.9c-0.9,0-1.5,0.8-1.5,1.9c0,1,0.6,1.7,1.5,1.7c0.7,0,1.3-0.3,1.5-0.8
			c0-0.1,0.1-0.2,0.1-0.4C583.4,233.9,582.9,232.9,581.8,232.9L581.8,232.9z"/>
		<path class="st21" d="M589.9,233c-0.2,0-0.5,0-0.8,0.1c-1.7,0.3-2.5,1.5-2.7,2.8h0c0.4-0.5,1-0.9,1.9-0.9c1.4,0,2.4,1,2.4,2.5
			c0,1.4-1,2.8-2.6,2.8c-1.7,0-2.7-1.3-2.7-3.3c0-1.5,0.5-2.7,1.3-3.5c0.6-0.6,1.5-1,2.5-1.2c0.3,0,0.6-0.1,0.8-0.1V233z
			 M588.1,239.3c0.9,0,1.5-0.8,1.5-1.9s-0.6-1.8-1.6-1.8c-0.6,0-1.2,0.4-1.5,1c-0.1,0.1-0.1,0.3-0.1,0.5
			C586.4,238.4,587,239.3,588.1,239.3L588.1,239.3z"/>
	</g>
	<g>
		<path class="st21" d="M625.4,233.2L625.4,233.2l-1.4,0.7l-0.2-0.8l1.7-0.9h0.9v7.8h-1V233.2z"/>
		<path class="st21" d="M633.7,233c-0.2,0-0.5,0-0.8,0.1c-1.7,0.3-2.5,1.5-2.7,2.8h0c0.4-0.5,1-0.9,1.9-0.9c1.4,0,2.4,1,2.4,2.5
			c0,1.4-1,2.8-2.6,2.8c-1.7,0-2.7-1.3-2.7-3.3c0-1.5,0.5-2.7,1.3-3.5c0.6-0.6,1.5-1,2.5-1.2c0.3,0,0.6-0.1,0.8-0.1V233z
			 M631.9,239.3c0.9,0,1.5-0.8,1.5-1.9s-0.6-1.8-1.6-1.8c-0.6,0-1.2,0.4-1.5,1c-0.1,0.1-0.1,0.3-0.1,0.5
			C630.2,238.4,630.8,239.3,631.9,239.3L631.9,239.3z"/>
		<path class="st21" d="M635.2,241.5c0.3-0.7,0.6-2,0.7-2.9l1.2-0.1c-0.3,1-0.8,2.4-1.2,2.9L635.2,241.5z"/>
		<path class="st21" d="M640.4,233.2L640.4,233.2l-1.4,0.7l-0.2-0.8l1.7-0.9h0.9v7.8h-1V233.2z"/>
		<path class="st21" d="M646.9,232.1c1.5,0,2.3,0.9,2.3,1.9c0,0.7-0.3,1.4-1.3,1.8v0c1,0.4,1.6,1.1,1.6,2c0,1.4-1.2,2.3-2.7,2.3
			c-1.6,0-2.6-1-2.6-2.1c0-1,0.6-1.7,1.5-2.1v0c-0.9-0.4-1.2-1.1-1.2-1.8C644.5,232.9,645.5,232.1,646.9,232.1L646.9,232.1z
			 M646.9,239.4c0.9,0,1.6-0.6,1.6-1.4c0-0.9-0.7-1.4-1.7-1.7c-0.9,0.3-1.4,0.9-1.4,1.6C645.3,238.7,645.9,239.4,646.9,239.4
			L646.9,239.4z M646.9,232.9c-0.9,0-1.4,0.6-1.4,1.2c0,0.8,0.6,1.2,1.5,1.4c0.7-0.2,1.2-0.7,1.2-1.4
			C648.2,233.5,647.8,232.9,646.9,232.9L646.9,232.9z"/>
		<path class="st21" d="M652.8,233.2L652.8,233.2l-1.4,0.7l-0.2-0.8l1.7-0.9h0.9v7.8h-1V233.2z"/>
	</g>
	<g>
		<path class="st20" d="M378.5,250.4c0.5-0.1,1.2-0.2,2-0.2c1,0,1.8,0.2,2.3,0.7c0.4,0.4,0.7,1,0.7,1.7c0,0.7-0.2,1.3-0.6,1.7
			c-0.6,0.6-1.5,0.9-2.5,0.9c-0.3,0-0.6,0-0.8-0.1v3.2h-1V250.4z M379.5,254.2c0.2,0.1,0.5,0.1,0.9,0.1c1.3,0,2-0.6,2-1.7
			c0-1.1-0.8-1.6-1.9-1.6c-0.5,0-0.8,0-1,0.1V254.2z"/>
		<path class="st20" d="M385,255.6c0,1.4,0.9,2,2,2c0.8,0,1.2-0.1,1.6-0.3l0.2,0.8c-0.4,0.2-1,0.4-1.9,0.4c-1.8,0-2.9-1.2-2.9-2.9
			c0-1.8,1-3.1,2.7-3.1c1.9,0,2.4,1.7,2.4,2.7c0,0.2,0,0.4,0,0.5H385z M388.1,254.9c0-0.7-0.3-1.7-1.5-1.7c-1.1,0-1.5,1-1.6,1.7
			H388.1z"/>
		<path class="st20" d="M390.3,254.3c0-0.7,0-1.3,0-1.8h0.9l0,1.1h0c0.3-0.8,0.9-1.3,1.6-1.3c0.1,0,0.2,0,0.3,0v1
			c-0.1,0-0.2,0-0.4,0c-0.7,0-1.3,0.6-1.4,1.3c0,0.2,0,0.3,0,0.5v3.1h-1.1V254.3z"/>
		<path class="st20" d="M399,256.7c0,0.6,0,1.1,0,1.6h-0.9l-0.1-0.9h0c-0.3,0.5-0.9,1.1-1.9,1.1c-0.9,0-2-0.5-2-2.5v-3.4h1.1v3.2
			c0,1.1,0.3,1.9,1.3,1.9c0.7,0,1.2-0.5,1.4-1c0.1-0.1,0.1-0.3,0.1-0.5v-3.5h1.1V256.7z M398.3,250l-1.5,1.7h-0.7l1.1-1.7H398.3z"/>
	</g>
	<g>
		<path class="st21" d="M496.3,259.8v-2.1h-3.6V257l3.5-5h1.1v4.8h1.1v0.8h-1.1v2.1H496.3z M496.3,256.9v-2.6c0-0.4,0-0.8,0-1.2h0
			c-0.2,0.5-0.4,0.8-0.6,1.2l-1.9,2.7v0H496.3z"/>
		<path class="st21" d="M499,261.3c0.3-0.7,0.6-2,0.7-2.9l1.2-0.1c-0.3,1-0.8,2.4-1.2,2.9L499,261.3z"/>
		<path class="st21" d="M502.1,258.6c0.3,0.2,1,0.5,1.7,0.5c1.3,0,1.8-0.9,1.8-1.5c0-1.1-1-1.6-2-1.6H503v-0.8h0.6
			c0.8,0,1.7-0.4,1.7-1.3c0-0.6-0.4-1.2-1.4-1.2c-0.6,0-1.2,0.3-1.6,0.5l-0.3-0.8c0.4-0.3,1.2-0.6,2.1-0.6c1.5,0,2.2,0.9,2.2,1.9
			c0,0.8-0.5,1.5-1.4,1.8v0c1,0.2,1.7,0.9,1.7,2c0,1.2-1,2.3-2.8,2.3c-0.9,0-1.6-0.3-2-0.5L502.1,258.6z"/>
		<path class="st21" d="M510.6,260c-1.5,0-2.6-1.4-2.6-4c0-2.6,1.1-4.1,2.7-4.1c1.6,0,2.6,1.5,2.6,3.9
			C513.3,258.5,512.3,260,510.6,260L510.6,260z M510.6,259.1c1.1,0,1.6-1.3,1.6-3.2c0-1.9-0.5-3.2-1.6-3.2c-1,0-1.6,1.2-1.6,3.2
			C509,257.9,509.6,259.1,510.6,259.1L510.6,259.1z"/>
		<path class="st21" d="M514.6,258.6c0.3,0.2,1,0.5,1.7,0.5c1.3,0,1.8-0.9,1.8-1.5c0-1.1-1-1.6-2-1.6h-0.6v-0.8h0.6
			c0.8,0,1.7-0.4,1.7-1.3c0-0.6-0.4-1.2-1.4-1.2c-0.6,0-1.2,0.3-1.6,0.5l-0.3-0.8c0.4-0.3,1.2-0.6,2.1-0.6c1.5,0,2.2,0.9,2.2,1.9
			c0,0.8-0.5,1.5-1.4,1.8v0c1,0.2,1.7,0.9,1.7,2c0,1.2-1,2.3-2.8,2.3c-0.9,0-1.6-0.3-2-0.5L514.6,258.6z"/>
	</g>
	<g>
		<path class="st21" d="M565.8,252.9h-3l-0.3,2c0.2,0,0.3,0,0.6,0c0.6,0,1.2,0.1,1.7,0.4c0.6,0.3,1.1,1,1.1,2c0,1.5-1.2,2.7-2.9,2.7
			c-0.9,0-1.6-0.2-1.9-0.5l0.3-0.8c0.3,0.2,1,0.4,1.7,0.4c1,0,1.8-0.6,1.8-1.7c0-1-0.7-1.7-2.2-1.7c-0.5,0-0.8,0-1.1,0.1l0.5-3.7
			h3.7V252.9z"/>
		<path class="st21" d="M567,261.3c0.3-0.7,0.6-2,0.7-2.9l1.2-0.1c-0.3,1-0.8,2.4-1.2,2.9L567,261.3z"/>
		<path class="st21" d="M573.1,259.8v-2.1h-3.6V257l3.5-5h1.1v4.8h1.1v0.8h-1.1v2.1H573.1z M573.1,256.9v-2.6c0-0.4,0-0.8,0-1.2h0
			c-0.2,0.5-0.4,0.8-0.6,1.2l-1.9,2.7v0H573.1z"/>
		<path class="st21" d="M581.2,252v0.7l-3.4,7.1h-1.1l3.4-6.9v0h-3.8V252H581.2z"/>
		<path class="st21" d="M584.8,260c-1.5,0-2.6-1.4-2.6-4c0-2.6,1.1-4.1,2.7-4.1c1.6,0,2.6,1.5,2.6,3.9
			C587.5,258.5,586.5,260,584.8,260L584.8,260z M584.9,259.1c1.1,0,1.6-1.3,1.6-3.2c0-1.9-0.5-3.2-1.6-3.2c-1,0-1.6,1.2-1.6,3.2
			C583.3,257.9,583.9,259.1,584.9,259.1L584.9,259.1z"/>
	</g>
	<g>
		<path class="st21" d="M630.8,252.9h-3l-0.3,2c0.2,0,0.3,0,0.6,0c0.6,0,1.2,0.1,1.7,0.4c0.6,0.3,1.1,1,1.1,2c0,1.5-1.2,2.7-2.9,2.7
			c-0.9,0-1.6-0.2-1.9-0.5l0.3-0.8c0.3,0.2,1,0.4,1.7,0.4c1,0,1.8-0.6,1.8-1.7c0-1-0.7-1.7-2.2-1.7c-0.5,0-0.8,0-1.1,0.1l0.5-3.7
			h3.7V252.9z"/>
		<path class="st21" d="M632.1,261.3c0.3-0.7,0.6-2,0.7-2.9l1.2-0.1c-0.3,1-0.8,2.4-1.2,2.9L632.1,261.3z"/>
		<path class="st21" d="M635.2,258.6c0.3,0.2,1,0.5,1.7,0.5c1.3,0,1.8-0.9,1.8-1.5c0-1.1-1-1.6-2-1.6h-0.6v-0.8h0.6
			c0.8,0,1.7-0.4,1.7-1.3c0-0.6-0.4-1.2-1.4-1.2c-0.6,0-1.2,0.3-1.6,0.5l-0.3-0.8c0.4-0.3,1.2-0.6,2.1-0.6c1.5,0,2.2,0.9,2.2,1.9
			c0,0.8-0.5,1.5-1.4,1.8v0c1,0.2,1.7,0.9,1.7,2c0,1.2-1,2.3-2.8,2.3c-0.9,0-1.6-0.3-2-0.5L635.2,258.6z"/>
		<path class="st21" d="M645.8,252.9h-3l-0.3,2c0.2,0,0.3,0,0.6,0c0.6,0,1.2,0.1,1.7,0.4c0.6,0.3,1.1,1,1.1,2c0,1.5-1.2,2.7-2.9,2.7
			c-0.9,0-1.6-0.2-1.9-0.5l0.3-0.8c0.3,0.2,1,0.4,1.7,0.4c1,0,1.8-0.6,1.8-1.7c0-1-0.7-1.7-2.2-1.7c-0.5,0-0.8,0-1.1,0.1l0.5-3.7
			h3.7V252.9z"/>
		<path class="st21" d="M647.4,259.8v-0.6l0.8-0.8c2-1.9,2.9-2.9,2.9-4.1c0-0.8-0.4-1.5-1.5-1.5c-0.7,0-1.3,0.4-1.7,0.7l-0.3-0.7
			c0.5-0.4,1.3-0.8,2.2-0.8c1.7,0,2.4,1.2,2.4,2.3c0,1.4-1,2.6-2.7,4.2l-0.6,0.6v0h3.5v0.9H647.4z"/>
	</g>
	<g>
		<path class="st20" d="M384.7,278c-0.5,0.2-1.4,0.4-2.5,0.4c-1.2,0-2.2-0.3-3-1.1c-0.7-0.7-1.1-1.8-1.1-3c0-2.4,1.7-4.2,4.4-4.2
			c0.9,0,1.7,0.2,2,0.4l-0.3,0.9c-0.4-0.2-1-0.3-1.8-0.3c-2,0-3.2,1.2-3.2,3.2c0,2.1,1.2,3.3,3.1,3.3c0.7,0,1.2-0.1,1.4-0.2v-2.4
			H382v-0.8h2.7V278z"/>
		<path class="st20" d="M391,276.7c0,0.6,0,1.1,0,1.6h-0.9l-0.1-0.9h0c-0.3,0.5-0.9,1.1-1.9,1.1c-0.9,0-2-0.5-2-2.5v-3.4h1.1v3.2
			c0,1.1,0.3,1.9,1.3,1.9c0.7,0,1.2-0.5,1.4-1c0.1-0.1,0.1-0.3,0.1-0.5v-3.5h1.1V276.7z"/>
		<path class="st20" d="M396.7,276.9c0,0.5,0,1,0.1,1.4h-0.9l-0.1-0.7h0c-0.3,0.5-0.9,0.9-1.8,0.9c-1.2,0-1.8-0.8-1.8-1.7
			c0-1.4,1.2-2.2,3.5-2.2v-0.1c0-0.5-0.1-1.4-1.3-1.3c-0.6,0-1.1,0.2-1.5,0.4l-0.2-0.7c0.5-0.3,1.2-0.5,1.9-0.5
			c1.8,0,2.2,1.2,2.2,2.4V276.9z M395.7,275.4c-1.2,0-2.5,0.2-2.5,1.3c0,0.7,0.5,1,1,1c0.8,0,1.3-0.5,1.4-1c0-0.1,0-0.2,0-0.3V275.4
			z"/>
		<path class="st20" d="M399.5,271.1v1.4h1.5v0.8h-1.5v3.1c0,0.7,0.2,1.1,0.8,1.1c0.3,0,0.5,0,0.6-0.1l0,0.8
			c-0.2,0.1-0.5,0.1-0.9,0.1c-0.5,0-0.9-0.2-1.1-0.4c-0.3-0.3-0.4-0.8-0.4-1.5v-3.2h-0.9v-0.8h0.9v-1.1L399.5,271.1z"/>
		<path class="st20" d="M402.6,275.6c0,1.4,0.9,2,2,2c0.8,0,1.2-0.1,1.6-0.3l0.2,0.8c-0.4,0.2-1,0.4-1.9,0.4c-1.8,0-2.9-1.2-2.9-2.9
			c0-1.8,1-3.1,2.7-3.1c1.9,0,2.4,1.7,2.4,2.7c0,0.2,0,0.4,0,0.5H402.6z M405.7,274.9c0-0.7-0.3-1.7-1.5-1.7c-1.1,0-1.5,1-1.6,1.7
			H405.7z"/>
		<path class="st20" d="M407.9,274.1c0-0.6,0-1.1,0-1.6h0.9l0,0.9h0c0.3-0.6,0.9-1.1,1.8-1.1c0.8,0,1.4,0.5,1.6,1.2h0
			c0.2-0.3,0.4-0.6,0.7-0.8c0.3-0.3,0.7-0.4,1.3-0.4c0.8,0,1.9,0.5,1.9,2.5v3.4h-1V275c0-1.1-0.4-1.8-1.3-1.8
			c-0.6,0-1.1,0.4-1.3,0.9c0,0.2-0.1,0.3-0.1,0.5v3.6h-1v-3.5c0-0.9-0.4-1.6-1.2-1.6c-0.6,0-1.1,0.5-1.3,1.1
			c-0.1,0.2-0.1,0.3-0.1,0.5v3.5h-1V274.1z"/>
		<path class="st20" d="M421.9,276.9c0,0.5,0,1,0.1,1.4H421l-0.1-0.7h0c-0.3,0.5-0.9,0.9-1.8,0.9c-1.2,0-1.8-0.8-1.8-1.7
			c0-1.4,1.2-2.2,3.5-2.2v-0.1c0-0.5-0.1-1.4-1.3-1.3c-0.6,0-1.1,0.2-1.5,0.4l-0.2-0.7c0.5-0.3,1.2-0.5,1.9-0.5
			c1.8,0,2.2,1.2,2.2,2.4V276.9z M420.9,275.4c-1.2,0-2.5,0.2-2.5,1.3c0,0.7,0.5,1,1,1c0.8,0,1.3-0.5,1.4-1c0-0.1,0-0.2,0-0.3V275.4
			z"/>
		<path class="st20" d="M423.5,269.8h1.1v8.5h-1.1V269.8z"/>
		<path class="st20" d="M430.3,276.9c0,0.5,0,1,0.1,1.4h-0.9l-0.1-0.7h0c-0.3,0.5-0.9,0.9-1.8,0.9c-1.2,0-1.8-0.8-1.8-1.7
			c0-1.4,1.2-2.2,3.5-2.2v-0.1c0-0.5-0.1-1.4-1.3-1.3c-0.6,0-1.1,0.2-1.5,0.4l-0.2-0.7c0.5-0.3,1.2-0.5,1.9-0.5
			c1.8,0,2.2,1.2,2.2,2.4V276.9z M429.3,275.4c-1.2,0-2.5,0.2-2.5,1.3c0,0.7,0.5,1,1,1c0.8,0,1.3-0.5,1.4-1c0-0.1,0-0.2,0-0.3V275.4
			z"/>
	</g>
	<g>
		<path class="st21" d="M497.5,279.1c0.2,0,0.5,0,0.9,0c0.6-0.1,1.2-0.3,1.6-0.7c0.5-0.5,0.9-1.2,1-2.1h0c-0.4,0.5-1.1,0.8-1.8,0.8
			c-1.4,0-2.3-1.1-2.3-2.4c0-1.5,1.1-2.8,2.7-2.8s2.6,1.3,2.6,3.3c0,1.7-0.6,2.9-1.3,3.7c-0.6,0.6-1.4,0.9-2.3,1
			c-0.4,0-0.7,0.1-1,0.1V279.1z M499.4,272.7c-0.9,0-1.5,0.8-1.5,1.9c0,1,0.6,1.7,1.5,1.7c0.7,0,1.3-0.3,1.5-0.8
			c0-0.1,0.1-0.2,0.1-0.4C501,273.7,500.5,272.7,499.4,272.7L499.4,272.7z"/>
		<path class="st21" d="M503.7,279.8v-0.6l0.8-0.8c2-1.9,2.9-2.9,2.9-4.1c0-0.8-0.4-1.5-1.5-1.5c-0.7,0-1.3,0.4-1.7,0.7l-0.3-0.7
			c0.5-0.4,1.3-0.8,2.2-0.8c1.7,0,2.4,1.2,2.4,2.3c0,1.4-1,2.6-2.7,4.2l-0.6,0.6v0h3.5v0.9H503.7z"/>
		<path class="st21" d="M512.8,273L512.8,273l-1.4,0.7l-0.2-0.8l1.7-0.9h0.9v7.8h-1V273z"/>
	</g>
	<g>
		<path class="st21" d="M565.5,279.1c0.2,0,0.5,0,0.9,0c0.6-0.1,1.2-0.3,1.6-0.7c0.5-0.5,0.9-1.2,1-2.1h0c-0.4,0.5-1.1,0.8-1.8,0.8
			c-1.4,0-2.3-1.1-2.3-2.4c0-1.5,1.1-2.8,2.7-2.8s2.6,1.3,2.6,3.3c0,1.7-0.6,2.9-1.3,3.7c-0.6,0.6-1.4,0.9-2.3,1
			c-0.4,0-0.7,0.1-1,0.1V279.1z M567.4,272.7c-0.9,0-1.5,0.8-1.5,1.9c0,1,0.6,1.7,1.5,1.7c0.7,0,1.3-0.3,1.5-0.8
			c0-0.1,0.1-0.2,0.1-0.4C569,273.7,568.5,272.7,567.4,272.7L567.4,272.7z"/>
		<path class="st21" d="M576.2,272.8c-0.2,0-0.5,0-0.8,0.1c-1.7,0.3-2.5,1.5-2.7,2.8h0c0.4-0.5,1-0.9,1.9-0.9c1.4,0,2.4,1,2.4,2.5
			c0,1.4-1,2.8-2.6,2.8c-1.7,0-2.7-1.3-2.7-3.3c0-1.5,0.5-2.7,1.3-3.5c0.6-0.6,1.5-1,2.5-1.2c0.3,0,0.6-0.1,0.8-0.1V272.8z
			 M574.4,279.1c0.9,0,1.5-0.8,1.5-1.9s-0.6-1.8-1.6-1.8c-0.6,0-1.2,0.4-1.5,1c-0.1,0.1-0.1,0.3-0.1,0.5
			C572.6,278.2,573.2,279.1,574.4,279.1L574.4,279.1z"/>
		<path class="st21" d="M581,280c-1.5,0-2.6-1.4-2.6-4c0-2.6,1.1-4.1,2.7-4.1c1.6,0,2.6,1.5,2.6,3.9C583.7,278.5,582.7,280,581,280
			L581,280z M581.1,279.1c1.1,0,1.6-1.3,1.6-3.2c0-1.9-0.5-3.2-1.6-3.2c-1,0-1.6,1.2-1.6,3.2C579.5,277.9,580.1,279.1,581.1,279.1
			L581.1,279.1z"/>
	</g>
	<g>
		<path class="st21" d="M632.6,271.9c1.5,0,2.3,0.9,2.3,1.9c0,0.7-0.3,1.4-1.3,1.8v0c1,0.4,1.6,1.1,1.6,2c0,1.4-1.2,2.3-2.7,2.3
			c-1.6,0-2.6-1-2.6-2.1c0-1,0.6-1.7,1.5-2.1v0c-0.9-0.4-1.2-1.1-1.2-1.8C630.2,272.7,631.2,271.9,632.6,271.9L632.6,271.9z
			 M632.5,279.2c0.9,0,1.6-0.6,1.6-1.4c0-0.9-0.7-1.4-1.7-1.7c-0.9,0.3-1.4,0.9-1.4,1.6C630.9,278.5,631.5,279.2,632.5,279.2
			L632.5,279.2z M632.5,272.7c-0.9,0-1.4,0.6-1.4,1.2c0,0.8,0.6,1.2,1.5,1.4c0.7-0.2,1.2-0.7,1.2-1.4
			C633.8,273.3,633.5,272.7,632.5,272.7L632.5,272.7z"/>
		<path class="st21" d="M637,278.6c0.3,0.2,1,0.5,1.7,0.5c1.3,0,1.8-0.9,1.8-1.5c0-1.1-1-1.6-2-1.6h-0.6v-0.8h0.6
			c0.8,0,1.7-0.4,1.7-1.3c0-0.6-0.4-1.2-1.4-1.2c-0.6,0-1.2,0.3-1.6,0.5l-0.3-0.8c0.4-0.3,1.2-0.6,2.1-0.6c1.5,0,2.2,0.9,2.2,1.9
			c0,0.8-0.5,1.5-1.4,1.8v0c1,0.2,1.7,0.9,1.7,2c0,1.2-1,2.3-2.8,2.3c-0.9,0-1.6-0.3-2-0.5L637,278.6z"/>
		<path class="st21" d="M643.9,278.6c0.3,0.2,1,0.5,1.7,0.5c1.3,0,1.8-0.9,1.8-1.5c0-1.1-1-1.6-2-1.6h-0.6v-0.8h0.6
			c0.8,0,1.7-0.4,1.7-1.3c0-0.6-0.4-1.2-1.4-1.2c-0.6,0-1.2,0.3-1.6,0.5l-0.3-0.8c0.4-0.3,1.2-0.6,2.1-0.6c1.5,0,2.2,0.9,2.2,1.9
			c0,0.8-0.5,1.5-1.4,1.8v0c1,0.2,1.7,0.9,1.7,2c0,1.2-1,2.3-2.8,2.3c-0.9,0-1.6-0.3-2-0.5L643.9,278.6z"/>
	</g>
	<g>
		<defs>
			<rect id="SVGID_9_" x="10.5" y="5.3" width="659.9" height="340.3"/>
		</defs>
		<clipPath id="SVGID_10_">
			<use xlink:href="#SVGID_9_"  style="overflow:visible;"/>
		</clipPath>
		<path class="st22" d="M645.5,275.9c0.5,0,1,0.2,1.3,0.5c0.3,0.3,0.5,0.7,0.5,1.2s-0.2,0.9-0.5,1.2s-0.8,0.5-1.4,0.5
			c-0.6,0-1-0.1-1.4-0.4v0.6c0.4,0.2,0.9,0.4,1.4,0.4c0.9,0,1.5-0.2,2-0.7s0.8-1,0.8-1.7c0-0.5-0.1-0.9-0.4-1.3
			c-0.3-0.4-0.7-0.6-1.1-0.8c0.9-0.4,1.3-1,1.3-1.9c0-0.6-0.2-1.1-0.6-1.5c-0.4-0.4-0.9-0.6-1.7-0.6c-0.6,0-1.1,0.1-1.5,0.3v0.7
			c0.4-0.3,0.9-0.4,1.5-0.4c0.5,0,0.9,0.1,1.1,0.4c0.2,0.3,0.4,0.6,0.4,1.1c0,0.4-0.2,0.8-0.5,1.1c-0.3,0.3-0.7,0.5-1.2,0.5
			c-0.1,0-0.2,0-0.3,0v0.7C645.2,275.9,645.4,275.9,645.5,275.9 M639.1,275.9c0.5,0,1,0.2,1.3,0.5c0.3,0.3,0.5,0.7,0.5,1.2
			s-0.2,0.9-0.5,1.2c-0.3,0.3-0.8,0.5-1.4,0.5c-0.6,0-1-0.1-1.4-0.4v0.6c0.4,0.2,0.9,0.4,1.4,0.4c0.9,0,1.5-0.2,2-0.7s0.8-1,0.8-1.7
			c0-0.5-0.1-0.9-0.4-1.3s-0.7-0.6-1.1-0.8c0.9-0.4,1.3-1,1.3-1.9c0-0.6-0.2-1.1-0.6-1.5c-0.4-0.4-0.9-0.6-1.7-0.6
			c-0.6,0-1.1,0.1-1.5,0.3v0.7c0.4-0.3,0.9-0.4,1.5-0.4c0.5,0,0.9,0.1,1.1,0.4c0.2,0.3,0.4,0.6,0.4,1.1c0,0.4-0.2,0.8-0.5,1.1
			c-0.3,0.3-0.7,0.5-1.2,0.5c-0.1,0-0.2,0-0.3,0v0.7C638.8,275.9,638.9,275.9,639.1,275.9 M634.6,277.7c0,0.5-0.1,0.9-0.4,1.2
			c-0.3,0.3-0.7,0.5-1.2,0.5c-0.5,0-0.9-0.2-1.2-0.5c-0.3-0.3-0.4-0.7-0.4-1.2c0-0.5,0.2-0.9,0.5-1.2c0.3-0.4,0.7-0.5,1.2-0.5
			c0.5,0,0.9,0.2,1.2,0.5C634.4,276.8,634.6,277.2,634.6,277.7 M635.4,277.7c0-0.5-0.1-0.9-0.4-1.3c-0.3-0.4-0.6-0.7-1.1-0.8
			c0.9-0.4,1.3-1,1.3-1.9c0-0.5-0.2-1-0.6-1.4c-0.4-0.4-0.9-0.6-1.7-0.6s-1.3,0.2-1.7,0.6c-0.4,0.4-0.6,0.9-0.6,1.4
			c0,0.9,0.4,1.6,1.3,1.9c-0.5,0.2-0.8,0.4-1.1,0.8c-0.3,0.4-0.4,0.8-0.4,1.3c0,0.7,0.2,1.2,0.7,1.7c0.4,0.4,1.1,0.6,1.8,0.6
			s1.4-0.2,1.8-0.6C635.2,278.9,635.4,278.4,635.4,277.7 M631.9,274.8c-0.3-0.3-0.4-0.7-0.4-1.1c0-0.4,0.1-0.8,0.4-1.1
			c0.2-0.3,0.6-0.4,1.1-0.4s0.9,0.1,1.1,0.4c0.2,0.3,0.4,0.6,0.4,1.1c0,0.4-0.1,0.8-0.4,1.1c-0.3,0.3-0.6,0.5-1,0.5
			C632.5,275.2,632.1,275.1,631.9,274.8"/>
		<path class="st22" d="M580.7,272.2c0.5,0,0.9,0.3,1.3,1c0.3,0.6,0.5,1.5,0.5,2.5s-0.2,1.9-0.5,2.6c-0.3,0.7-0.7,1-1.3,1
			c-0.5,0-0.9-0.3-1.3-1c-0.3-0.7-0.5-1.5-0.5-2.6s0.2-1.9,0.5-2.5C579.8,272.5,580.2,272.2,580.7,272.2 M578.9,278.8
			c0.5,0.8,1.1,1.2,1.9,1.2c0.8,0,1.4-0.4,1.9-1.2c0.5-0.8,0.7-1.8,0.7-3c0-1.2-0.2-2.2-0.7-3c-0.5-0.8-1.1-1.2-1.9-1.2
			c-0.8,0-1.4,0.4-1.9,1.2c-0.5,0.8-0.7,1.8-0.7,3C578.2,276.9,578.4,277.9,578.9,278.8 M574.3,279.4c-0.5,0-0.9-0.2-1.1-0.6
			c-0.3-0.4-0.4-1-0.4-1.7c0-0.5,0.1-1,0.4-1.4c0.3-0.4,0.7-0.5,1.2-0.5c0.3,0,0.6,0.1,0.8,0.2c0.2,0.1,0.4,0.3,0.5,0.6
			s0.2,0.4,0.2,0.6c0,0.2,0.1,0.4,0.1,0.6C575.9,278.6,575.4,279.4,574.3,279.4 M574.1,273.4c0.5-0.6,1.2-1.1,2-1.4l-0.3-0.5
			c-1.2,0.5-2.2,1.3-2.8,2.3c-0.6,1-1,2.1-1,3.3c0,1,0.2,1.7,0.6,2.2c0.4,0.5,1,0.8,1.7,0.8c0.8,0,1.3-0.3,1.7-0.9s0.6-1.2,0.6-2
			c0-0.9-0.2-1.5-0.7-2c-0.4-0.5-1-0.7-1.6-0.7c-0.5,0-1,0.2-1.3,0.5C573.2,274.5,573.5,274,574.1,273.4 M567.8,272.2
			c0.5,0,0.9,0.2,1.1,0.6c0.3,0.4,0.4,1,0.4,1.7c0,0.5-0.1,1-0.4,1.4c-0.3,0.4-0.7,0.5-1.2,0.5c-0.3,0-0.6-0.1-0.8-0.2
			c-0.2-0.1-0.4-0.3-0.5-0.6s-0.2-0.4-0.2-0.6c0-0.2-0.1-0.4-0.1-0.6C566.2,272.9,566.8,272.2,567.8,272.2 M568,278.1
			c-0.6,0.6-1.2,1.1-2,1.5l0.3,0.5c1.2-0.5,2.2-1.3,2.8-2.3c0.6-1,1-2.1,1-3.3c0-1-0.2-1.7-0.6-2.2c-0.4-0.5-1-0.8-1.7-0.8
			c-0.8,0-1.3,0.3-1.7,0.9s-0.6,1.2-0.6,2c0,0.9,0.2,1.5,0.7,2c0.4,0.5,1,0.7,1.6,0.7c0.5,0,1-0.2,1.3-0.5
			C568.9,277,568.6,277.5,568,278.1"/>
		<path class="st22" d="M511.3,274l1.9-1.2v6.9h0.8v-4.5c0-1,0-2.3,0-3.9l-2.7,1.7V274z M507.7,276.7c0.7-1,1-1.9,1-2.7
			c0-0.7-0.2-1.3-0.6-1.7s-1-0.7-1.7-0.7c-0.6,0-1.1,0.2-1.5,0.6s-0.6,0.9-0.6,1.4c0,0.2,0,0.4,0.1,0.6h0.6c0-0.1,0-0.3,0-0.4
			c0-0.4,0.1-0.8,0.4-1.1c0.3-0.3,0.6-0.4,1-0.4c0.5,0,0.9,0.1,1.1,0.4c0.3,0.3,0.4,0.7,0.4,1.3c0,1.8-1.4,3.7-4.1,5.7l0,0.2h5
			l0-0.7c-0.4,0-1.6,0.1-3.6,0.1C506.2,278.5,507,277.6,507.7,276.7 M499.8,272.2c0.5,0,0.9,0.2,1.1,0.6c0.3,0.4,0.4,1,0.4,1.7
			c0,0.5-0.1,1-0.4,1.4c-0.3,0.4-0.7,0.5-1.2,0.5c-0.3,0-0.6-0.1-0.8-0.2c-0.2-0.1-0.4-0.3-0.5-0.6s-0.2-0.4-0.2-0.6
			s-0.1-0.4-0.1-0.6C498.2,272.9,498.7,272.2,499.8,272.2 M500,278.1c-0.6,0.6-1.2,1.1-2,1.5l0.3,0.5c1.2-0.5,2.2-1.3,2.8-2.3
			c0.6-1,1-2.1,1-3.3c0-1-0.2-1.7-0.6-2.2c-0.4-0.5-1-0.8-1.7-0.8c-0.8,0-1.3,0.3-1.7,0.9c-0.4,0.6-0.6,1.2-0.6,2
			c0,0.9,0.2,1.5,0.7,2c0.4,0.5,1,0.7,1.6,0.7c0.5,0,1-0.2,1.3-0.5C500.9,277,500.6,277.5,500,278.1"/>
		<path class="st23" d="M421.3,275.3c-0.5,0.4-0.8,0.8-0.8,1.4c0,0.5,0.2,0.9,0.5,1.2c0.3,0.3,0.8,0.5,1.4,0.5c0.2,0,0.5,0,0.9-0.1
			s0.8-0.1,1.1-0.1c0-0.3,0-0.7,0-1.1c0-0.3,0-0.8,0-1.4c0-0.6,0-1.1,0-1.4c0-1.1-0.6-1.7-1.9-1.7c-0.6,0-1.1,0.1-1.6,0.3v0.7
			c0.5-0.2,1-0.4,1.5-0.4c0.8,0,1.2,0.4,1.2,1.1v0.4C422.6,274.8,421.8,274.9,421.3,275.3 M423.6,277.3c-0.1,0.3-0.4,0.5-1.1,0.5
			c-0.4,0-0.7-0.1-0.9-0.3c-0.2-0.2-0.3-0.5-0.3-0.8c0-0.5,0.2-0.8,0.5-1c0.4-0.2,1-0.3,1.8-0.3
			C423.7,276.4,423.7,277.1,423.6,277.3 M418.6,278.3h0.7v-4.5c0-0.7,0-1.5,0-2.5c0-1,0-1.7,0-1.9h-0.8V278.3z M414,275.3
			c-0.5,0.4-0.8,0.8-0.8,1.4c0,0.5,0.2,0.9,0.5,1.2c0.3,0.3,0.8,0.5,1.4,0.5c0.2,0,0.5,0,0.9-0.1c0.4-0.1,0.8-0.1,1.1-0.1
			c0-0.3,0-0.7,0-1.1c0-0.3,0-0.8,0-1.4c0-0.6,0-1.1,0-1.4c0-1.1-0.6-1.7-1.9-1.7c-0.6,0-1.1,0.1-1.6,0.3v0.7c0.5-0.2,1-0.4,1.5-0.4
			c0.8,0,1.2,0.4,1.2,1.1v0.4C415.3,274.8,414.5,274.9,414,275.3 M416.4,277.3c-0.1,0.3-0.4,0.5-1.1,0.5c-0.4,0-0.7-0.1-0.9-0.3
			c-0.2-0.2-0.3-0.5-0.3-0.8c0-0.5,0.2-0.8,0.5-1c0.4-0.2,1-0.3,1.8-0.3C416.4,276.4,416.4,277.1,416.4,277.3 M410.4,272.6
			c-0.7,0-1.2,0.2-1.8,0.5c-0.3-0.4-0.7-0.5-1.3-0.5c-0.3,0-0.6,0-1,0.1c-0.4,0.1-0.8,0.1-1.2,0.1v5.4h0.7V274
			c0-0.2,0.1-0.4,0.4-0.6c0.3-0.1,0.6-0.2,0.9-0.2c0.8,0,1.1,0.5,1.1,1.4v3.6h0.7v-3.7c0-0.3,0-0.5,0-0.6c0-0.2,0.1-0.4,0.4-0.5
			c0.3-0.1,0.6-0.2,0.9-0.2c0.4,0,0.7,0.1,0.9,0.3c0.2,0.2,0.3,0.6,0.3,1.1v3.6h0.7v-3.8C412.1,273.2,411.5,272.6,410.4,272.6
			 M401,273.7c0.2-0.3,0.6-0.4,1.1-0.4c0.4,0,0.7,0.1,0.9,0.3c0.2,0.2,0.3,0.4,0.3,0.8c0,0.1,0,0.2-0.1,0.2c0,0-0.1,0.1-0.2,0.1
			h-2.4C400.6,274.3,400.7,274,401,273.7 M404,275.3c0-0.2,0-0.4,0-0.5c0-0.6-0.2-1.2-0.5-1.5c-0.3-0.4-0.8-0.6-1.4-0.6
			c-0.7,0-1.4,0.3-1.8,0.8c-0.5,0.5-0.7,1.2-0.7,2.1c0,1,0.2,1.7,0.7,2.2c0.5,0.5,1.2,0.7,2,0.7c0.4,0,0.8-0.1,1.2-0.2v-0.6
			c-0.3,0.1-0.7,0.2-1.1,0.2c-0.6,0-1.1-0.2-1.5-0.6s-0.5-0.9-0.5-1.7v-0.3H404z M396.4,273.5v3.7c0,0.4,0.1,0.8,0.4,1
			c0.2,0.2,0.6,0.3,0.9,0.3c0.4,0,0.9-0.1,1.3-0.3v-0.6c-0.3,0.2-0.7,0.3-1.1,0.3c-0.5,0-0.8-0.3-0.8-0.8c0-0.5,0-1.2,0-2
			c0-0.8,0-1.3,0-1.5h1.8v-0.7h-1.8v-1.6l-0.7,0.4v1.2h-0.8v0.7H396.4z M391.6,275.3c-0.5,0.4-0.8,0.8-0.8,1.4
			c0,0.5,0.2,0.9,0.5,1.2c0.3,0.3,0.8,0.5,1.4,0.5c0.2,0,0.5,0,0.9-0.1c0.4-0.1,0.8-0.1,1.1-0.1c0-0.3,0-0.7,0-1.1
			c0-0.3,0-0.8,0-1.4c0-0.6,0-1.1,0-1.4c0-1.1-0.6-1.7-1.9-1.7c-0.6,0-1.1,0.1-1.6,0.3v0.7c0.5-0.2,1-0.4,1.5-0.4
			c0.8,0,1.2,0.4,1.2,1.1v0.4C392.9,274.8,392.1,274.9,391.6,275.3 M393.9,277.3c-0.1,0.3-0.4,0.5-1.1,0.5c-0.4,0-0.7-0.1-0.9-0.3
			c-0.2-0.2-0.3-0.5-0.3-0.8c0-0.5,0.2-0.8,0.5-1c0.4-0.2,1-0.3,1.8-0.3C393.9,276.4,393.9,277.1,393.9,277.3 M386.5,277.4
			c-0.2-0.2-0.3-0.6-0.3-1.1v-3.6h-0.7v3.7c0,0.6,0.2,1.1,0.6,1.4c0.4,0.3,0.9,0.5,1.5,0.5c0.3,0,0.6,0,1-0.1
			c0.4-0.1,0.8-0.1,1.1-0.1v-5.4h-0.7v4.3c0,0.4-0.4,0.6-1.2,0.6C387.1,277.7,386.7,277.6,386.5,277.4 M384.1,274.3h-0.8v2.9
			c0,0.2-0.1,0.3-0.3,0.4c-0.2,0.1-0.4,0.2-0.8,0.2c-0.4,0-0.9-0.1-1.2-0.2c-0.4-0.1-0.7-0.3-1-0.6c-0.3-0.3-0.5-0.6-0.7-1.1
			c-0.2-0.5-0.2-1-0.2-1.6c0-1.2,0.3-2.1,0.9-2.7c0.6-0.6,1.4-0.9,2.4-0.9c0.6,0,1.1,0.1,1.6,0.3v-0.8c-0.5-0.1-1-0.2-1.6-0.2
			c-0.6,0-1.1,0.1-1.6,0.3s-0.9,0.4-1.3,0.8c-0.4,0.4-0.7,0.8-0.9,1.4c-0.2,0.6-0.3,1.2-0.3,2s0.1,1.4,0.3,1.9
			c0.2,0.5,0.5,1,0.9,1.3c0.4,0.3,0.8,0.5,1.3,0.7c0.5,0.1,1,0.2,1.5,0.2c0.6,0,1.2-0.1,1.8-0.3C384,276.2,384.1,274.9,384.1,274.3"
			/>
		<path class="st22" d="M651,256.7c0.7-1,1-1.9,1-2.7c0-0.7-0.2-1.3-0.6-1.7c-0.4-0.4-1-0.7-1.7-0.7c-0.6,0-1.1,0.2-1.5,0.6
			c-0.4,0.4-0.6,0.9-0.6,1.4c0,0.2,0,0.4,0.1,0.6h0.6c0-0.1,0-0.3,0-0.4c0-0.4,0.1-0.8,0.4-1.1c0.3-0.3,0.6-0.4,1-0.4
			c0.5,0,0.9,0.1,1.1,0.4c0.3,0.3,0.4,0.7,0.4,1.3c0,1.8-1.4,3.7-4.1,5.7l0,0.2h5l0-0.7c-0.4,0-1.6,0.1-3.6,0.1
			C649.5,258.5,650.3,257.6,651,256.7 M645.6,252.5v-0.7h-3.5l-0.2,4.1c0.5-0.1,0.9-0.2,1.3-0.2c0.7,0,1.2,0.2,1.5,0.5
			c0.3,0.3,0.5,0.8,0.5,1.4c0,0.6-0.2,1-0.5,1.4c-0.4,0.3-0.9,0.5-1.6,0.5c-0.6,0-1-0.1-1.4-0.4v0.6c0.4,0.2,0.9,0.4,1.4,0.4
			c1,0,1.7-0.2,2.2-0.7c0.5-0.5,0.7-1.1,0.7-1.8s-0.2-1.3-0.7-1.8c-0.5-0.5-1.1-0.7-2-0.7c-0.3,0-0.5,0-0.7,0.1l0.1-2.6
			C644.5,252.4,645.4,252.4,645.6,252.5 M637.6,255.9c0.5,0,1,0.2,1.3,0.5c0.3,0.3,0.5,0.7,0.5,1.2s-0.2,0.9-0.5,1.2
			c-0.3,0.3-0.8,0.5-1.4,0.5c-0.6,0-1-0.1-1.4-0.4v0.6c0.4,0.2,0.9,0.4,1.4,0.4c0.9,0,1.5-0.2,2-0.7c0.5-0.5,0.8-1,0.8-1.7
			c0-0.5-0.1-0.9-0.4-1.3c-0.3-0.4-0.6-0.6-1.1-0.8c0.9-0.4,1.3-1,1.3-1.9c0-0.6-0.2-1.1-0.6-1.5c-0.4-0.4-0.9-0.6-1.7-0.6
			c-0.6,0-1.1,0.1-1.5,0.3v0.7c0.4-0.3,0.9-0.4,1.5-0.4c0.5,0,0.9,0.1,1.1,0.4c0.2,0.3,0.4,0.6,0.4,1.1c0,0.4-0.2,0.8-0.5,1.1
			c-0.3,0.3-0.7,0.5-1.2,0.5c-0.1,0-0.2,0-0.3,0v0.7C637.3,255.9,637.5,255.9,637.6,255.9 M632.5,261.2l0.5,0.2l1.2-2.7h-1.1
			C633,260,632.7,260.8,632.5,261.2 M631,252.5v-0.7h-3.5l-0.2,4.1c0.5-0.1,0.9-0.2,1.3-0.2c0.7,0,1.2,0.2,1.5,0.5
			c0.3,0.3,0.5,0.8,0.5,1.4c0,0.6-0.2,1-0.5,1.4c-0.4,0.3-0.9,0.5-1.6,0.5c-0.6,0-1-0.1-1.4-0.4v0.6c0.4,0.2,0.9,0.4,1.4,0.4
			c1,0,1.7-0.2,2.2-0.7c0.5-0.5,0.7-1.1,0.7-1.8s-0.2-1.3-0.7-1.8s-1.1-0.7-2-0.7c-0.3,0-0.5,0-0.7,0.1l0.1-2.6
			C629.9,252.4,630.8,252.4,631,252.5"/>
		<path class="st22" d="M584.5,252.2c0.5,0,0.9,0.3,1.3,1c0.3,0.6,0.5,1.5,0.5,2.5s-0.2,1.9-0.5,2.6c-0.3,0.7-0.7,1-1.3,1
			c-0.5,0-0.9-0.3-1.3-1c-0.3-0.7-0.5-1.5-0.5-2.6s0.2-1.9,0.5-2.5C583.6,252.5,584,252.2,584.5,252.2 M582.6,258.8
			c0.5,0.8,1.1,1.2,1.9,1.2s1.4-0.4,1.9-1.2s0.7-1.8,0.7-3c0-1.2-0.2-2.2-0.7-3c-0.5-0.8-1.1-1.2-1.9-1.2s-1.4,0.4-1.9,1.2
			c-0.5,0.8-0.7,1.8-0.7,3C581.9,256.9,582.2,257.9,582.6,258.8 M581.2,251.9l-0.1-0.2h-4.8v0.7c1.1,0,2.3-0.1,3.6-0.1
			c0.1,0,0.2,0,0.2,0.1c0,0.1,0,0.2-0.1,0.3l-3,7h0.8L581.2,251.9z M571.5,256.7C571.4,256.7,571.4,256.7,571.5,256.7
			c-0.1-0.1-0.1-0.1-0.1-0.1c0.6-1.2,1.3-2.5,2.1-3.7v3.9H571.5z M573.5,257.4v2.4h0.7v-2.4h1.4v-0.7h-1.4v-1.4c0-1.6,0-2.9,0-3.6
			h-0.8c-1.3,2-2.4,3.8-3.3,5.6l0.1,0.1H573.5z M567.5,261.2l0.5,0.2l1.2-2.7h-1.1C567.9,260,567.7,260.8,567.5,261.2 M566,252.5
			v-0.7h-3.5l-0.2,4.1c0.5-0.1,0.9-0.2,1.3-0.2c0.7,0,1.2,0.2,1.5,0.5c0.3,0.3,0.5,0.8,0.5,1.4c0,0.6-0.2,1-0.5,1.4
			c-0.4,0.3-0.9,0.5-1.6,0.5c-0.6,0-1-0.1-1.4-0.4v0.6c0.4,0.2,0.9,0.4,1.4,0.4c1,0,1.7-0.2,2.2-0.7c0.5-0.5,0.7-1.1,0.7-1.8
			s-0.2-1.3-0.7-1.8s-1.1-0.7-2-0.7c-0.3,0-0.5,0-0.7,0.1l0.1-2.6C564.8,252.4,565.7,252.4,566,252.5"/>
		<path class="st22" d="M516.2,255.9c0.5,0,1,0.2,1.3,0.5c0.3,0.3,0.5,0.7,0.5,1.2s-0.2,0.9-0.5,1.2c-0.3,0.3-0.8,0.5-1.4,0.5
			c-0.6,0-1-0.1-1.4-0.4v0.6c0.4,0.2,0.9,0.4,1.4,0.4c0.9,0,1.5-0.2,2-0.7s0.8-1,0.8-1.7c0-0.5-0.1-0.9-0.4-1.3
			c-0.3-0.4-0.7-0.6-1.1-0.8c0.9-0.4,1.3-1,1.3-1.9c0-0.6-0.2-1.1-0.6-1.5c-0.4-0.4-0.9-0.6-1.7-0.6c-0.6,0-1.1,0.1-1.5,0.3v0.7
			c0.4-0.3,0.9-0.4,1.5-0.4c0.5,0,0.9,0.1,1.1,0.4c0.2,0.3,0.4,0.6,0.4,1.1c0,0.4-0.2,0.8-0.5,1.1s-0.7,0.5-1.2,0.5
			c-0.1,0-0.2,0-0.3,0v0.7C515.9,255.9,516,255.9,516.2,255.9 M510.6,252.2c0.5,0,0.9,0.3,1.3,1s0.5,1.5,0.5,2.6
			c0,1.1-0.2,1.9-0.5,2.6s-0.7,1-1.3,1c-0.5,0-0.9-0.3-1.3-1s-0.5-1.5-0.5-2.6c0-1.1,0.2-1.9,0.5-2.6S510.1,252.2,510.6,252.2
			 M508.8,258.8c0.5,0.8,1.1,1.2,1.9,1.2c0.8,0,1.4-0.4,1.9-1.2s0.7-1.8,0.7-3c0-1.2-0.2-2.2-0.7-3c-0.5-0.8-1.1-1.2-1.9-1.2
			c-0.8,0-1.4,0.4-1.9,1.2c-0.5,0.8-0.7,1.8-0.7,3C508,256.9,508.3,257.9,508.8,258.8 M504.5,255.9c0.5,0,1,0.2,1.3,0.5
			c0.3,0.3,0.5,0.7,0.5,1.2s-0.2,0.9-0.5,1.2s-0.8,0.5-1.4,0.5c-0.6,0-1-0.1-1.4-0.4v0.6c0.4,0.2,0.9,0.4,1.4,0.4
			c0.9,0,1.5-0.2,2-0.7s0.8-1,0.8-1.7c0-0.5-0.1-0.9-0.4-1.3c-0.3-0.4-0.7-0.6-1.1-0.8c0.9-0.4,1.3-1,1.3-1.9c0-0.6-0.2-1.1-0.6-1.5
			c-0.4-0.4-0.9-0.6-1.7-0.6c-0.6,0-1.1,0.1-1.5,0.3v0.7c0.4-0.3,0.9-0.4,1.5-0.4c0.5,0,0.9,0.1,1.1,0.4c0.2,0.3,0.4,0.6,0.4,1.1
			c0,0.4-0.2,0.8-0.5,1.1c-0.3,0.3-0.7,0.5-1.2,0.5c-0.1,0-0.2,0-0.3,0v0.7C504.2,255.9,504.4,255.9,504.5,255.9 M499.4,261.2
			l0.5,0.2l1.2-2.7h-1.1C499.8,260,499.6,260.8,499.4,261.2 M494.7,256.7C494.7,256.7,494.7,256.7,494.7,256.7
			c-0.1-0.1-0.1-0.1-0.1-0.1c0.6-1.2,1.3-2.5,2.1-3.7v3.9H494.7z M496.8,257.4v2.4h0.7v-2.4h1.4v-0.7h-1.4v-1.4c0-1.6,0-2.9,0-3.6
			h-0.8c-1.3,2-2.4,3.8-3.3,5.6l0.1,0.1H496.8z"/>
		<path class="st23" d="M396.5,250.2h-0.9c-0.5,0.7-1,1.4-1.5,1.8h0.8L396.5,250.2z M393.9,257.4c-0.2-0.2-0.3-0.6-0.3-1.1v-3.6
			h-0.7v3.7c0,0.6,0.2,1.1,0.6,1.4c0.4,0.3,0.9,0.5,1.5,0.5c0.3,0,0.6,0,1-0.1c0.4-0.1,0.8-0.1,1.1-0.1v-5.4h-0.7v4.3
			c0,0.4-0.4,0.6-1.2,0.6C394.5,257.7,394.1,257.6,393.9,257.4 M390.1,254.3c0-0.3,0.1-0.5,0.4-0.7c0.2-0.2,0.6-0.2,1-0.2
			c0.2,0,0.4,0,0.7,0.1v-0.8c-0.2,0-0.4,0-0.6,0c-0.3,0-0.6,0.1-0.9,0.2c-0.3,0.1-0.5,0.3-0.6,0.6v-0.6h-0.7v5.5h0.7
			C390.1,256.3,390.1,254.9,390.1,254.3 M385.2,253.7c0.2-0.3,0.6-0.4,1.1-0.4c0.4,0,0.7,0.1,0.9,0.3c0.2,0.2,0.3,0.4,0.3,0.8
			c0,0.1,0,0.2-0.1,0.2c0,0-0.1,0.1-0.2,0.1h-2.4C384.8,254.3,385,254,385.2,253.7 M388.2,255.3c0-0.2,0-0.4,0-0.5
			c0-0.6-0.2-1.2-0.5-1.5c-0.3-0.4-0.8-0.6-1.4-0.6c-0.7,0-1.4,0.3-1.8,0.8c-0.5,0.5-0.7,1.2-0.7,2.1c0,1,0.2,1.7,0.7,2.2
			s1.2,0.7,2,0.7c0.4,0,0.8-0.1,1.2-0.2v-0.6c-0.3,0.1-0.7,0.2-1.1,0.2c-0.6,0-1.1-0.2-1.5-0.6c-0.4-0.4-0.5-0.9-0.5-1.7v-0.3H388.2
			z M379.6,250.9c0,0,0.1-0.1,0.3-0.1s0.4,0,0.7,0c0.5,0,1,0.1,1.3,0.4c0.3,0.3,0.5,0.7,0.5,1.2c0,0.5-0.2,0.9-0.5,1.2
			c-0.3,0.3-0.8,0.4-1.4,0.4c-0.4,0-0.7,0-1-0.1c0-1.1,0-2,0.1-2.7C379.5,251,379.5,251,379.6,250.9 M382.5,253.9
			c0.5-0.4,0.7-0.9,0.7-1.6c0-0.7-0.2-1.3-0.7-1.7c-0.5-0.4-1.1-0.6-1.9-0.6c-0.3,0-0.6,0-0.9,0.1c-0.4,0-0.7,0.1-1,0.1v8.1h0.8
			v-3.8c0.4,0.1,0.7,0.1,1.1,0.1C381.4,254.6,382,254.4,382.5,253.9"/>
		<path class="st22" d="M651.1,234.2l1.9-1.2v6.9h0.8v-4.5c0-1,0-2.3,0-3.9l-2.7,1.7V234.2z M648.3,237.9c0,0.5-0.1,0.9-0.4,1.2
			s-0.7,0.5-1.2,0.5c-0.5,0-0.9-0.2-1.2-0.5c-0.3-0.3-0.4-0.7-0.4-1.2c0-0.5,0.2-0.9,0.5-1.2c0.3-0.4,0.7-0.5,1.2-0.5
			s0.9,0.2,1.2,0.5C648.2,237,648.3,237.4,648.3,237.9 M649.2,237.9c0-0.5-0.1-0.9-0.4-1.3c-0.3-0.4-0.6-0.7-1.1-0.8
			c0.9-0.4,1.3-1,1.3-1.9c0-0.5-0.2-1-0.6-1.4c-0.4-0.4-1-0.6-1.7-0.6c-0.7,0-1.3,0.2-1.7,0.6c-0.4,0.4-0.6,0.9-0.6,1.4
			c0,0.9,0.4,1.6,1.3,1.9c-0.5,0.2-0.8,0.4-1.1,0.8c-0.3,0.4-0.4,0.8-0.4,1.3c0,0.7,0.2,1.2,0.7,1.7c0.4,0.4,1.1,0.6,1.8,0.6
			s1.4-0.2,1.8-0.6C648.9,239.1,649.2,238.6,649.2,237.9 M645.6,235c-0.3-0.3-0.4-0.7-0.4-1.1c0-0.4,0.1-0.8,0.4-1.1
			c0.2-0.3,0.6-0.4,1.1-0.4c0.5,0,0.9,0.1,1.1,0.4c0.2,0.3,0.4,0.6,0.4,1.1c0,0.4-0.1,0.8-0.4,1.1s-0.6,0.5-1,0.5
			C646.2,235.4,645.9,235.3,645.6,235 M639.4,234.2l1.9-1.2v6.9h0.8v-4.5c0-1,0-2.3,0-3.9l-2.7,1.7V234.2z M635.5,241.4l0.5,0.2
			l1.2-2.7h-1.1C635.9,240.2,635.7,241,635.5,241.4 M632.1,239.6c-0.5,0-0.9-0.2-1.1-0.6s-0.4-1-0.4-1.7c0-0.5,0.1-1,0.4-1.4
			s0.7-0.5,1.2-0.5c0.3,0,0.6,0.1,0.8,0.2c0.2,0.1,0.4,0.3,0.5,0.6c0.1,0.2,0.2,0.4,0.2,0.6c0,0.2,0.1,0.4,0.1,0.6
			C633.7,238.8,633.1,239.6,632.1,239.6 M631.9,233.6c0.5-0.6,1.2-1.1,2-1.4l-0.3-0.5c-1.2,0.5-2.2,1.3-2.8,2.3c-0.6,1-1,2.1-1,3.3
			c0,1,0.2,1.7,0.6,2.2s1,0.8,1.7,0.8c0.8,0,1.3-0.3,1.7-0.9s0.6-1.2,0.6-2c0-0.9-0.2-1.5-0.7-2s-1-0.7-1.6-0.7
			c-0.5,0-1,0.2-1.3,0.5C631,234.7,631.3,234.2,631.9,233.6 M624.8,234.2l1.9-1.2v6.9h0.8v-4.5c0-1,0-2.3,0-3.9l-2.7,1.7V234.2z"/>
		<path class="st22" d="M587.4,239.6c-0.5,0-0.9-0.2-1.1-0.6c-0.3-0.4-0.4-1-0.4-1.7c0-0.5,0.1-1,0.4-1.4c0.3-0.4,0.7-0.5,1.2-0.5
			c0.3,0,0.6,0.1,0.8,0.2c0.2,0.1,0.4,0.3,0.5,0.6c0.1,0.2,0.2,0.4,0.2,0.6c0,0.2,0.1,0.4,0.1,0.6
			C589,238.8,588.5,239.6,587.4,239.6 M587.2,233.6c0.5-0.6,1.2-1.1,2-1.4l-0.3-0.5c-1.2,0.5-2.2,1.3-2.8,2.3c-0.6,1-1,2.1-1,3.3
			c0,1,0.2,1.7,0.6,2.2c0.4,0.5,1,0.8,1.7,0.8c0.8,0,1.3-0.3,1.7-0.9c0.4-0.6,0.6-1.2,0.6-2c0-0.9-0.2-1.5-0.7-2
			c-0.4-0.5-1-0.7-1.6-0.7c-0.5,0-1,0.2-1.3,0.5C586.3,234.7,586.7,234.2,587.2,233.6 M581.6,232.4c0.5,0,0.9,0.2,1.1,0.6
			c0.3,0.4,0.4,1,0.4,1.7c0,0.5-0.1,1-0.4,1.4c-0.3,0.4-0.7,0.5-1.2,0.5c-0.3,0-0.6-0.1-0.8-0.2c-0.2-0.1-0.4-0.3-0.5-0.6
			s-0.2-0.4-0.2-0.6c0-0.2-0.1-0.4-0.1-0.6C580,233.1,580.5,232.4,581.6,232.4 M581.8,238.3c-0.6,0.6-1.2,1.1-2,1.5l0.3,0.5
			c1.2-0.5,2.2-1.3,2.8-2.3c0.6-1,1-2.1,1-3.3c0-1-0.2-1.7-0.6-2.2c-0.4-0.5-1-0.8-1.7-0.8c-0.8,0-1.3,0.3-1.7,0.9
			c-0.4,0.6-0.6,1.2-0.6,2c0,0.9,0.2,1.5,0.7,2s1,0.7,1.6,0.7c0.5,0,1-0.2,1.3-0.5C582.7,237.2,582.3,237.7,581.8,238.3
			 M577.1,236.9c0.7-1,1-1.9,1-2.7c0-0.7-0.2-1.3-0.6-1.7c-0.4-0.4-1-0.7-1.7-0.7c-0.6,0-1.1,0.2-1.5,0.6c-0.4,0.4-0.6,0.9-0.6,1.4
			c0,0.2,0,0.4,0.1,0.6h0.6c0-0.1,0-0.3,0-0.4c0-0.4,0.1-0.8,0.4-1.1c0.3-0.3,0.6-0.4,1-0.4c0.5,0,0.9,0.1,1.1,0.4
			c0.3,0.3,0.4,0.7,0.4,1.3c0,1.8-1.4,3.7-4.1,5.7l0,0.2h5l0-0.7c-0.4,0-1.6,0.1-3.6,0.1C575.7,238.7,576.4,237.8,577.1,236.9
			 M570.4,241.4l0.5,0.2l1.2-2.7H571C570.8,240.2,570.6,241,570.4,241.4 M567,239.6c-0.5,0-0.9-0.2-1.1-0.6s-0.4-1-0.4-1.7
			c0-0.5,0.1-1,0.4-1.4s0.7-0.5,1.2-0.5c0.3,0,0.6,0.1,0.8,0.2c0.2,0.1,0.4,0.3,0.5,0.6c0.1,0.2,0.2,0.4,0.2,0.6
			c0,0.2,0.1,0.4,0.1,0.6C568.6,238.8,568.1,239.6,567,239.6 M566.8,233.6c0.5-0.6,1.2-1.1,2-1.4l-0.3-0.5c-1.2,0.5-2.2,1.3-2.8,2.3
			c-0.6,1-1,2.1-1,3.3c0,1,0.2,1.7,0.6,2.2s1,0.8,1.7,0.8c0.8,0,1.3-0.3,1.7-0.9s0.6-1.2,0.6-2c0-0.9-0.2-1.5-0.7-2s-1-0.7-1.6-0.7
			c-0.5,0-1,0.2-1.3,0.5C565.9,234.7,566.2,234.2,566.8,233.6 M559.7,234.2l1.9-1.2v6.9h0.8v-4.5c0-1,0-2.3,0-3.9l-2.7,1.7V234.2z"
			/>
		<path class="st22" d="M519.4,239.6c-0.5,0-0.9-0.2-1.1-0.6c-0.3-0.4-0.4-1-0.4-1.7c0-0.5,0.1-1,0.4-1.4c0.3-0.4,0.7-0.5,1.2-0.5
			c0.3,0,0.6,0.1,0.8,0.2c0.2,0.1,0.4,0.3,0.5,0.6c0.1,0.2,0.2,0.4,0.2,0.6c0,0.2,0.1,0.4,0.1,0.6
			C521,238.8,520.5,239.6,519.4,239.6 M519.2,233.6c0.5-0.6,1.2-1.1,2-1.4l-0.3-0.5c-1.2,0.5-2.2,1.3-2.8,2.3c-0.6,1-1,2.1-1,3.3
			c0,1,0.2,1.7,0.6,2.2c0.4,0.5,1,0.8,1.7,0.8c0.8,0,1.3-0.3,1.7-0.9c0.4-0.6,0.6-1.2,0.6-2c0-0.9-0.2-1.5-0.7-2
			c-0.4-0.5-1-0.7-1.6-0.7c-0.5,0-1,0.2-1.3,0.5C518.3,234.7,518.6,234.2,519.2,233.6 M513.2,236.1c0.5,0,1,0.2,1.3,0.5
			c0.3,0.3,0.5,0.7,0.5,1.2s-0.2,0.9-0.5,1.2c-0.3,0.3-0.8,0.5-1.4,0.5c-0.6,0-1-0.1-1.4-0.4v0.6c0.4,0.2,0.9,0.4,1.4,0.4
			c0.9,0,1.5-0.2,2-0.7c0.5-0.5,0.8-1,0.8-1.7c0-0.5-0.1-0.9-0.4-1.3c-0.3-0.4-0.7-0.6-1.1-0.8c0.9-0.4,1.3-1,1.3-1.9
			c0-0.6-0.2-1.1-0.6-1.5c-0.4-0.4-0.9-0.6-1.7-0.6c-0.6,0-1.1,0.1-1.5,0.3v0.7c0.4-0.3,0.9-0.4,1.5-0.4c0.5,0,0.9,0.1,1.1,0.4
			c0.2,0.3,0.4,0.6,0.4,1.1c0,0.4-0.2,0.8-0.5,1.1c-0.3,0.3-0.7,0.5-1.2,0.5c-0.1,0-0.2,0-0.3,0v0.7
			C513,236.1,513.1,236.1,513.2,236.1 M509.4,237.9c0,0.5-0.1,0.9-0.4,1.2s-0.7,0.5-1.2,0.5c-0.5,0-0.9-0.2-1.2-0.5
			c-0.3-0.3-0.4-0.7-0.4-1.2c0-0.5,0.2-0.9,0.5-1.2s0.7-0.5,1.2-0.5c0.5,0,0.9,0.2,1.2,0.5S509.4,237.4,509.4,237.9 M510.2,237.9
			c0-0.5-0.1-0.9-0.4-1.3s-0.6-0.7-1.1-0.8c0.9-0.4,1.3-1,1.3-1.9c0-0.5-0.2-1-0.6-1.4c-0.4-0.4-1-0.6-1.7-0.6s-1.3,0.2-1.7,0.6
			c-0.4,0.4-0.6,0.9-0.6,1.4c0,0.9,0.4,1.6,1.3,1.9c-0.5,0.2-0.8,0.4-1.1,0.8s-0.4,0.8-0.4,1.3c0,0.7,0.2,1.2,0.7,1.7
			c0.4,0.4,1.1,0.6,1.8,0.6s1.4-0.2,1.8-0.6C510,239.1,510.2,238.6,510.2,237.9 M506.6,235c-0.3-0.3-0.4-0.7-0.4-1.1
			c0-0.4,0.1-0.8,0.4-1.1c0.2-0.3,0.6-0.4,1.1-0.4s0.9,0.1,1.1,0.4c0.2,0.3,0.4,0.6,0.4,1.1c0,0.4-0.1,0.8-0.4,1.1s-0.6,0.5-1.1,0.5
			C507.3,235.4,506.9,235.3,506.6,235 M502.3,241.4l0.5,0.2l1.2-2.7H503C502.8,240.2,502.5,241,502.3,241.4 M499,239.6
			c-0.5,0-0.9-0.2-1.1-0.6c-0.3-0.4-0.4-1-0.4-1.7c0-0.5,0.1-1,0.4-1.4c0.3-0.4,0.7-0.5,1.2-0.5c0.3,0,0.6,0.1,0.8,0.2
			c0.2,0.1,0.4,0.3,0.5,0.6c0.1,0.2,0.2,0.4,0.2,0.6c0,0.2,0.1,0.4,0.1,0.6C500.6,238.8,500,239.6,499,239.6 M498.8,233.6
			c0.5-0.6,1.2-1.1,2-1.4l-0.3-0.5c-1.2,0.5-2.2,1.3-2.8,2.3c-0.6,1-1,2.1-1,3.3c0,1,0.2,1.7,0.6,2.2c0.4,0.5,1,0.8,1.7,0.8
			c0.8,0,1.3-0.3,1.7-0.9s0.6-1.2,0.6-2c0-0.9-0.2-1.5-0.7-2s-1-0.7-1.6-0.7c-0.5,0-1,0.2-1.3,0.5
			C497.9,234.7,498.2,234.2,498.8,233.6 M491.7,234.2l1.9-1.2v6.9h0.8v-4.5c0-1,0-2.3,0-3.9l-2.7,1.7V234.2z"/>
		<path class="st23" d="M408.7,235.9c0,0.7-0.1,1.3-0.4,1.7c-0.3,0.4-0.6,0.6-1.1,0.6c-0.5,0-0.9-0.2-1.2-0.6s-0.4-0.9-0.4-1.7
			c0-0.8,0.1-1.3,0.4-1.7c0.3-0.4,0.6-0.6,1.1-0.6c0.5,0,0.9,0.2,1.2,0.6C408.5,234.7,408.7,235.2,408.7,235.9 M405.4,233.8
			c-0.4,0.5-0.7,1.2-0.7,2.1c0,0.9,0.2,1.6,0.7,2.1c0.4,0.5,1,0.8,1.7,0.8c0.7,0,1.3-0.3,1.7-0.8c0.4-0.5,0.6-1.2,0.6-2.1
			c0-0.9-0.2-1.6-0.6-2.1c-0.4-0.5-1-0.8-1.7-0.8C406.4,233,405.8,233.3,405.4,233.8 M403.1,233.7c0.3,0,0.6,0,0.9,0.1v-0.7
			c-0.3,0-0.6-0.1-0.9-0.1c-0.9,0-1.5,0.3-2,0.8c-0.5,0.5-0.7,1.2-0.7,2.1c0,0.9,0.2,1.7,0.7,2.2c0.5,0.5,1.2,0.7,2,0.7
			c0.3,0,0.6,0,0.9-0.1v-0.6c-0.3,0.1-0.6,0.1-0.9,0.1c-1.3,0-1.9-0.8-1.9-2.3C401.2,234.4,401.9,233.7,403.1,233.7 M398.4,238.7
			h0.7c0-2.1,0-3.9,0-5.5h-0.8V238.7z M398.4,231.1c-0.1,0.1-0.1,0.2-0.1,0.4c0,0.2,0,0.3,0.1,0.4c0.1,0.1,0.2,0.1,0.4,0.1
			c0.1,0,0.3,0,0.4-0.1c0.1-0.1,0.1-0.2,0.1-0.4c0-0.1,0-0.3-0.1-0.4c-0.1-0.1-0.2-0.1-0.4-0.1C398.6,231,398.5,231,398.4,231.1
			 M396.5,238.7h1l-2-2.8c1-1.3,1.7-2.2,2.1-2.7h-0.9l-1.5,2.1c0,0.1-0.1,0.1-0.2,0l-1.5-2.1h-1c0.5,0.6,1.2,1.5,2.1,2.8l-2,2.7h0.9
			c0.5-0.8,1-1.5,1.4-2.1c0-0.1,0.1-0.1,0.1,0C395.7,237.4,396.1,238.1,396.5,238.7 M391.7,230.6h-0.9c-0.5,0.7-1,1.4-1.5,1.8h0.8
			L391.7,230.6z M389.1,234.1c0.2-0.3,0.6-0.4,1.1-0.4c0.4,0,0.7,0.1,0.9,0.3c0.2,0.2,0.3,0.4,0.3,0.8c0,0.1,0,0.2-0.1,0.2
			c0,0-0.1,0.1-0.2,0.1h-2.4C388.8,234.7,388.9,234.4,389.1,234.1 M392.2,235.7c0-0.2,0-0.4,0-0.5c0-0.6-0.2-1.1-0.5-1.5
			c-0.3-0.4-0.8-0.6-1.4-0.6c-0.7,0-1.4,0.3-1.8,0.8c-0.5,0.5-0.7,1.2-0.7,2.1c0,1,0.2,1.7,0.7,2.2c0.5,0.5,1.2,0.7,2,0.7
			c0.4,0,0.8-0.1,1.2-0.2V238c-0.3,0.1-0.7,0.2-1.1,0.2c-0.6,0-1.1-0.2-1.5-0.6c-0.4-0.4-0.5-0.9-0.5-1.7v-0.3H392.2z M382.8,238.3
			c1-2.5,1.9-4.8,2.6-6.6l0.3,7h0.8c-0.1-0.7-0.2-1.9-0.3-3.7l-0.3-4.3h-0.9l-2.4,6c-0.1,0.2-0.1,0.3-0.2,0.3c0,0-0.1-0.1-0.2-0.3
			c-0.6-1.5-1.4-3.5-2.3-6.1h-1.1l-0.5,8.1h0.8c0-1.1,0.1-3.5,0.3-7l2.5,6.6H382.8z"/>
		<path class="st24" d="M647.8,213.8c0.2-0.5,0.5-0.8,0.9-0.8c0.4,0,0.7,0.3,0.9,0.8c0.2,0.5,0.3,1.3,0.3,2.1c0,0.9-0.1,1.6-0.3,2.2
			c-0.2,0.6-0.5,0.9-0.9,0.9c-0.4,0-0.7-0.3-0.9-0.9c-0.2-0.6-0.4-1.3-0.4-2.2C647.5,215,647.6,214.3,647.8,213.8 M646.8,218.9
			c0.5,0.8,1.2,1.2,2,1.2c0.8,0,1.5-0.4,2-1.2c0.5-0.8,0.8-1.8,0.8-3c0-1.2-0.3-2.2-0.8-3c-0.5-0.8-1.2-1.2-2-1.2
			c-0.8,0-1.5,0.4-2,1.2c-0.5,0.8-0.8,1.8-0.8,3C646,217.1,646.3,218.1,646.8,218.9 M644.3,216.6c0.5-0.9,0.8-1.6,0.8-2.3
			c0-0.8-0.2-1.4-0.6-1.8c-0.4-0.5-1-0.7-1.9-0.7c-0.7,0-1.3,0.2-1.7,0.7c-0.4,0.4-0.7,1-0.7,1.5c0,0.3,0.1,0.5,0.2,0.8h1.2
			c-0.1-0.2-0.1-0.4-0.1-0.6c0-0.3,0.1-0.6,0.3-0.8c0.2-0.2,0.4-0.3,0.8-0.3c0.8,0,1.1,0.4,1.1,1.3c0,0.9-0.4,1.8-1.1,2.8
			c-0.7,1-1.6,1.8-2.7,2.6l0.1,0.3h5.2l0.1-1.2c-0.3,0-1.3,0-2.9,0C643.1,218.2,643.7,217.4,644.3,216.6 M635.3,213.8
			c0.2-0.5,0.5-0.8,0.9-0.8c0.4,0,0.7,0.3,0.9,0.8c0.2,0.5,0.3,1.3,0.3,2.1c0,0.9-0.1,1.6-0.3,2.2s-0.5,0.9-0.9,0.9
			s-0.7-0.3-0.9-0.9c-0.2-0.6-0.4-1.3-0.4-2.2C635,215,635.1,214.3,635.3,213.8 M634.3,218.9c0.5,0.8,1.2,1.2,2,1.2s1.5-0.4,2-1.2
			c0.5-0.8,0.8-1.8,0.8-3c0-1.2-0.3-2.2-0.8-3c-0.5-0.8-1.2-1.2-2-1.2s-1.5,0.4-2,1.2c-0.5,0.8-0.8,1.8-0.8,3
			C633.5,217.1,633.8,218.1,634.3,218.9 M631.8,216.6c0.5-0.9,0.8-1.6,0.8-2.3c0-0.8-0.2-1.4-0.6-1.8c-0.4-0.5-1-0.7-1.9-0.7
			c-0.7,0-1.3,0.2-1.7,0.7c-0.4,0.4-0.7,1-0.7,1.5c0,0.3,0.1,0.5,0.2,0.8h1.2c-0.1-0.2-0.1-0.4-0.1-0.6c0-0.3,0.1-0.6,0.3-0.8
			c0.2-0.2,0.4-0.3,0.8-0.3c0.8,0,1.1,0.4,1.1,1.3c0,0.9-0.4,1.8-1.1,2.8c-0.7,1-1.6,1.8-2.7,2.6l0.1,0.3h5.2l0.1-1.2
			c-0.3,0-1.3,0-2.9,0C630.6,218.2,631.2,217.4,631.8,216.6"/>
		<path class="st24" d="M583.6,212.9c0.4,0,0.6,0.2,0.9,0.5s0.3,0.8,0.3,1.3c0,0.5-0.1,0.8-0.3,1.1c-0.2,0.3-0.5,0.4-0.9,0.4
			c-0.3,0-0.5-0.1-0.7-0.3s-0.3-0.4-0.4-0.7c-0.1-0.2-0.1-0.4-0.1-0.6C582.5,213.5,582.9,212.9,583.6,212.9 M582.2,220.4
			c1.3-0.5,2.3-1.3,2.9-2.3c0.7-1,1-2.1,1-3.2c0-1-0.2-1.7-0.7-2.3c-0.5-0.5-1.1-0.8-1.8-0.8c-0.8,0-1.4,0.3-1.9,0.9
			s-0.7,1.3-0.7,2.1c0,0.9,0.2,1.5,0.6,2c0.4,0.5,0.9,0.7,1.6,0.7c0.4,0,0.7-0.1,0.9-0.2c-0.3,0.4-0.6,0.8-1.1,1.3
			c-0.5,0.4-1,0.8-1.6,1L582.2,220.4z M575.5,214.9l2-1.1v6.2h1.4v-4.5c0-0.6,0-1.4,0-2.4c0-1,0-1.5,0-1.7l-3.4,2V214.9z
			 M570.2,213.8c0.2-0.5,0.5-0.8,0.9-0.8c0.4,0,0.7,0.3,0.9,0.8c0.2,0.5,0.3,1.3,0.3,2.1c0,0.9-0.1,1.6-0.3,2.2s-0.5,0.9-0.9,0.9
			s-0.7-0.3-0.9-0.9c-0.2-0.6-0.4-1.3-0.4-2.2C569.9,215,570,214.3,570.2,213.8 M569.2,218.9c0.5,0.8,1.2,1.2,2,1.2s1.5-0.4,2-1.2
			c0.5-0.8,0.8-1.8,0.8-3c0-1.2-0.3-2.2-0.8-3c-0.5-0.8-1.2-1.2-2-1.2s-1.5,0.4-2,1.2c-0.5,0.8-0.8,1.8-0.8,3
			C568.4,217.1,568.7,218.1,569.2,218.9 M566.7,216.6c0.5-0.9,0.8-1.6,0.8-2.3c0-0.8-0.2-1.4-0.6-1.8c-0.4-0.5-1-0.7-1.9-0.7
			c-0.7,0-1.3,0.2-1.7,0.7c-0.4,0.4-0.7,1-0.7,1.5c0,0.3,0.1,0.5,0.2,0.8h1.2c-0.1-0.2-0.1-0.4-0.1-0.6c0-0.3,0.1-0.6,0.3-0.8
			c0.2-0.2,0.4-0.3,0.8-0.3c0.8,0,1.1,0.4,1.1,1.3c0,0.9-0.4,1.8-1.1,2.8c-0.7,1-1.6,1.8-2.7,2.6l0.1,0.3h5.2l0.1-1.2
			c-0.3,0-1.3,0-2.9,0C565.5,218.2,566.2,217.4,566.7,216.6"/>
		<path class="st24" d="M518.3,217.8c0-0.5-0.1-0.9-0.4-1.3s-0.6-0.6-0.9-0.8c0.3-0.1,0.6-0.4,0.8-0.7c0.2-0.3,0.3-0.7,0.3-1.1
			c0-0.6-0.2-1.1-0.6-1.5s-1-0.7-1.8-0.7c-0.8,0-1.4,0.2-1.8,0.7s-0.6,1-0.6,1.5c0,0.8,0.4,1.4,1.1,1.8c-0.4,0.1-0.7,0.4-1,0.8
			c-0.3,0.4-0.4,0.8-0.4,1.3c0,0.7,0.2,1.3,0.7,1.7s1.1,0.7,2,0.7c0.8,0,1.5-0.2,2-0.7S518.3,218.5,518.3,217.8 M516.5,216.7
			c0.2,0.3,0.4,0.6,0.4,0.9c0,0.4-0.1,0.7-0.3,1c-0.2,0.3-0.5,0.4-0.9,0.4s-0.7-0.1-0.9-0.4s-0.3-0.6-0.3-1c0-0.4,0.1-0.7,0.3-0.9
			c0.2-0.3,0.5-0.4,0.9-0.4C516,216.3,516.3,216.5,516.5,216.7 M514.6,214c0-0.3,0.1-0.6,0.3-0.8s0.4-0.3,0.8-0.3
			c0.4,0,0.6,0.1,0.8,0.3s0.3,0.5,0.3,0.8c0,0.3-0.1,0.6-0.3,0.8c-0.2,0.3-0.4,0.4-0.7,0.4s-0.6-0.1-0.8-0.4S514.6,214.3,514.6,214
			 M507.4,214.9l2-1.1v6.2h1.4v-4.5c0-0.6,0-1.4,0-2.4c0-1,0-1.5,0-1.7l-3.4,2V214.9z M502.2,213.8c0.2-0.5,0.5-0.8,0.9-0.8
			c0.4,0,0.7,0.3,0.9,0.8c0.2,0.5,0.3,1.3,0.3,2.1c0,0.9-0.1,1.6-0.3,2.2s-0.5,0.9-0.9,0.9c-0.4,0-0.7-0.3-0.9-0.9s-0.4-1.3-0.4-2.2
			C501.9,215,502,214.3,502.2,213.8 M501.2,218.9c0.5,0.8,1.2,1.2,2,1.2c0.8,0,1.5-0.4,2-1.2c0.5-0.8,0.8-1.8,0.8-3
			c0-1.2-0.3-2.2-0.8-3c-0.5-0.8-1.2-1.2-2-1.2c-0.8,0-1.5,0.4-2,1.2c-0.5,0.8-0.8,1.8-0.8,3C500.4,217.1,500.7,218.1,501.2,218.9
			 M498.7,216.6c0.5-0.9,0.8-1.6,0.8-2.3c0-0.8-0.2-1.4-0.6-1.8c-0.4-0.5-1-0.7-1.9-0.7c-0.7,0-1.3,0.2-1.7,0.7s-0.7,1-0.7,1.5
			c0,0.3,0.1,0.5,0.2,0.8h1.2c-0.1-0.2-0.1-0.4-0.1-0.6c0-0.3,0.1-0.6,0.3-0.8c0.2-0.2,0.4-0.3,0.8-0.3c0.8,0,1.1,0.4,1.1,1.3
			c0,0.9-0.4,1.8-1.1,2.8c-0.7,1-1.6,1.8-2.7,2.6l0.1,0.3h5.2l0.1-1.2c-0.3,0-1.3,0-2.9,0C497.5,218.2,498.1,217.4,498.7,216.6"/>
		<path class="st22" d="M645.5,275.9c0.5,0,1,0.2,1.3,0.5c0.3,0.3,0.5,0.7,0.5,1.2s-0.2,0.9-0.5,1.2s-0.8,0.5-1.4,0.5
			c-0.6,0-1-0.1-1.4-0.4v0.6c0.4,0.2,0.9,0.4,1.4,0.4c0.9,0,1.5-0.2,2-0.7s0.8-1,0.8-1.7c0-0.5-0.1-0.9-0.4-1.3
			c-0.3-0.4-0.7-0.6-1.1-0.8c0.9-0.4,1.3-1,1.3-1.9c0-0.6-0.2-1.1-0.6-1.5c-0.4-0.4-0.9-0.6-1.7-0.6c-0.6,0-1.1,0.1-1.5,0.3v0.7
			c0.4-0.3,0.9-0.4,1.5-0.4c0.5,0,0.9,0.1,1.1,0.4c0.2,0.3,0.4,0.6,0.4,1.1c0,0.4-0.2,0.8-0.5,1.1c-0.3,0.3-0.7,0.5-1.2,0.5
			c-0.1,0-0.2,0-0.3,0v0.7C645.2,275.9,645.4,275.9,645.5,275.9 M639.1,275.9c0.5,0,1,0.2,1.3,0.5c0.3,0.3,0.5,0.7,0.5,1.2
			s-0.2,0.9-0.5,1.2c-0.3,0.3-0.8,0.5-1.4,0.5c-0.6,0-1-0.1-1.4-0.4v0.6c0.4,0.2,0.9,0.4,1.4,0.4c0.9,0,1.5-0.2,2-0.7s0.8-1,0.8-1.7
			c0-0.5-0.1-0.9-0.4-1.3s-0.7-0.6-1.1-0.8c0.9-0.4,1.3-1,1.3-1.9c0-0.6-0.2-1.1-0.6-1.5c-0.4-0.4-0.9-0.6-1.7-0.6
			c-0.6,0-1.1,0.1-1.5,0.3v0.7c0.4-0.3,0.9-0.4,1.5-0.4c0.5,0,0.9,0.1,1.1,0.4c0.2,0.3,0.4,0.6,0.4,1.1c0,0.4-0.2,0.8-0.5,1.1
			c-0.3,0.3-0.7,0.5-1.2,0.5c-0.1,0-0.2,0-0.3,0v0.7C638.8,275.9,638.9,275.9,639.1,275.9 M634.6,277.7c0,0.5-0.1,0.9-0.4,1.2
			c-0.3,0.3-0.7,0.5-1.2,0.5c-0.5,0-0.9-0.2-1.2-0.5c-0.3-0.3-0.4-0.7-0.4-1.2c0-0.5,0.2-0.9,0.5-1.2c0.3-0.4,0.7-0.5,1.2-0.5
			c0.5,0,0.9,0.2,1.2,0.5C634.4,276.8,634.6,277.2,634.6,277.7 M635.4,277.7c0-0.5-0.1-0.9-0.4-1.3c-0.3-0.4-0.6-0.7-1.1-0.8
			c0.9-0.4,1.3-1,1.3-1.9c0-0.5-0.2-1-0.6-1.4c-0.4-0.4-0.9-0.6-1.7-0.6s-1.3,0.2-1.7,0.6c-0.4,0.4-0.6,0.9-0.6,1.4
			c0,0.9,0.4,1.6,1.3,1.9c-0.5,0.2-0.8,0.4-1.1,0.8c-0.3,0.4-0.4,0.8-0.4,1.3c0,0.7,0.2,1.2,0.7,1.7c0.4,0.4,1.1,0.6,1.8,0.6
			s1.4-0.2,1.8-0.6C635.2,278.9,635.4,278.4,635.4,277.7 M631.9,274.8c-0.3-0.3-0.4-0.7-0.4-1.1c0-0.4,0.1-0.8,0.4-1.1
			c0.2-0.3,0.6-0.4,1.1-0.4s0.9,0.1,1.1,0.4c0.2,0.3,0.4,0.6,0.4,1.1c0,0.4-0.1,0.8-0.4,1.1c-0.3,0.3-0.6,0.5-1,0.5
			C632.5,275.2,632.1,275.1,631.9,274.8"/>
		<path class="st22" d="M580.7,272.2c0.5,0,0.9,0.3,1.3,1c0.3,0.6,0.5,1.5,0.5,2.5s-0.2,1.9-0.5,2.6c-0.3,0.7-0.7,1-1.3,1
			c-0.5,0-0.9-0.3-1.3-1c-0.3-0.7-0.5-1.5-0.5-2.6s0.2-1.9,0.5-2.5C579.8,272.5,580.2,272.2,580.7,272.2 M578.9,278.8
			c0.5,0.8,1.1,1.2,1.9,1.2c0.8,0,1.4-0.4,1.9-1.2c0.5-0.8,0.7-1.8,0.7-3c0-1.2-0.2-2.2-0.7-3c-0.5-0.8-1.1-1.2-1.9-1.2
			c-0.8,0-1.4,0.4-1.9,1.2c-0.5,0.8-0.7,1.8-0.7,3C578.2,276.9,578.4,277.9,578.9,278.8 M574.3,279.4c-0.5,0-0.9-0.2-1.1-0.6
			c-0.3-0.4-0.4-1-0.4-1.7c0-0.5,0.1-1,0.4-1.4c0.3-0.4,0.7-0.5,1.2-0.5c0.3,0,0.6,0.1,0.8,0.2c0.2,0.1,0.4,0.3,0.5,0.6
			s0.2,0.4,0.2,0.6c0,0.2,0.1,0.4,0.1,0.6C575.9,278.6,575.4,279.4,574.3,279.4 M574.1,273.4c0.5-0.6,1.2-1.1,2-1.4l-0.3-0.5
			c-1.2,0.5-2.2,1.3-2.8,2.3c-0.6,1-1,2.1-1,3.3c0,1,0.2,1.7,0.6,2.2c0.4,0.5,1,0.8,1.7,0.8c0.8,0,1.3-0.3,1.7-0.9s0.6-1.2,0.6-2
			c0-0.9-0.2-1.5-0.7-2c-0.4-0.5-1-0.7-1.6-0.7c-0.5,0-1,0.2-1.3,0.5C573.2,274.5,573.5,274,574.1,273.4 M567.8,272.2
			c0.5,0,0.9,0.2,1.1,0.6c0.3,0.4,0.4,1,0.4,1.7c0,0.5-0.1,1-0.4,1.4c-0.3,0.4-0.7,0.5-1.2,0.5c-0.3,0-0.6-0.1-0.8-0.2
			c-0.2-0.1-0.4-0.3-0.5-0.6s-0.2-0.4-0.2-0.6c0-0.2-0.1-0.4-0.1-0.6C566.2,272.9,566.8,272.2,567.8,272.2 M568,278.1
			c-0.6,0.6-1.2,1.1-2,1.5l0.3,0.5c1.2-0.5,2.2-1.3,2.8-2.3c0.6-1,1-2.1,1-3.3c0-1-0.2-1.7-0.6-2.2c-0.4-0.5-1-0.8-1.7-0.8
			c-0.8,0-1.3,0.3-1.7,0.9s-0.6,1.2-0.6,2c0,0.9,0.2,1.5,0.7,2c0.4,0.5,1,0.7,1.6,0.7c0.5,0,1-0.2,1.3-0.5
			C568.9,277,568.6,277.5,568,278.1"/>
		<path class="st22" d="M511.3,274l1.9-1.2v6.9h0.8v-4.5c0-1,0-2.3,0-3.9l-2.7,1.7V274z M507.7,276.7c0.7-1,1-1.9,1-2.7
			c0-0.7-0.2-1.3-0.6-1.7s-1-0.7-1.7-0.7c-0.6,0-1.1,0.2-1.5,0.6s-0.6,0.9-0.6,1.4c0,0.2,0,0.4,0.1,0.6h0.6c0-0.1,0-0.3,0-0.4
			c0-0.4,0.1-0.8,0.4-1.1c0.3-0.3,0.6-0.4,1-0.4c0.5,0,0.9,0.1,1.1,0.4c0.3,0.3,0.4,0.7,0.4,1.3c0,1.8-1.4,3.7-4.1,5.7l0,0.2h5
			l0-0.7c-0.4,0-1.6,0.1-3.6,0.1C506.2,278.5,507,277.6,507.7,276.7 M499.8,272.2c0.5,0,0.9,0.2,1.1,0.6c0.3,0.4,0.4,1,0.4,1.7
			c0,0.5-0.1,1-0.4,1.4c-0.3,0.4-0.7,0.5-1.2,0.5c-0.3,0-0.6-0.1-0.8-0.2c-0.2-0.1-0.4-0.3-0.5-0.6s-0.2-0.4-0.2-0.6
			s-0.1-0.4-0.1-0.6C498.2,272.9,498.7,272.2,499.8,272.2 M500,278.1c-0.6,0.6-1.2,1.1-2,1.5l0.3,0.5c1.2-0.5,2.2-1.3,2.8-2.3
			c0.6-1,1-2.1,1-3.3c0-1-0.2-1.7-0.6-2.2c-0.4-0.5-1-0.8-1.7-0.8c-0.8,0-1.3,0.3-1.7,0.9c-0.4,0.6-0.6,1.2-0.6,2
			c0,0.9,0.2,1.5,0.7,2c0.4,0.5,1,0.7,1.6,0.7c0.5,0,1-0.2,1.3-0.5C500.9,277,500.6,277.5,500,278.1"/>
		<path class="st23" d="M421.3,275.3c-0.5,0.4-0.8,0.8-0.8,1.4c0,0.5,0.2,0.9,0.5,1.2c0.3,0.3,0.8,0.5,1.4,0.5c0.2,0,0.5,0,0.9-0.1
			s0.8-0.1,1.1-0.1c0-0.3,0-0.7,0-1.1c0-0.3,0-0.8,0-1.4c0-0.6,0-1.1,0-1.4c0-1.1-0.6-1.7-1.9-1.7c-0.6,0-1.1,0.1-1.6,0.3v0.7
			c0.5-0.2,1-0.4,1.5-0.4c0.8,0,1.2,0.4,1.2,1.1v0.4C422.6,274.8,421.8,274.9,421.3,275.3 M423.6,277.3c-0.1,0.3-0.4,0.5-1.1,0.5
			c-0.4,0-0.7-0.1-0.9-0.3c-0.2-0.2-0.3-0.5-0.3-0.8c0-0.5,0.2-0.8,0.5-1c0.4-0.2,1-0.3,1.8-0.3
			C423.7,276.4,423.7,277.1,423.6,277.3 M418.6,278.3h0.7v-4.5c0-0.7,0-1.5,0-2.5c0-1,0-1.7,0-1.9h-0.8V278.3z M414,275.3
			c-0.5,0.4-0.8,0.8-0.8,1.4c0,0.5,0.2,0.9,0.5,1.2c0.3,0.3,0.8,0.5,1.4,0.5c0.2,0,0.5,0,0.9-0.1c0.4-0.1,0.8-0.1,1.1-0.1
			c0-0.3,0-0.7,0-1.1c0-0.3,0-0.8,0-1.4c0-0.6,0-1.1,0-1.4c0-1.1-0.6-1.7-1.9-1.7c-0.6,0-1.1,0.1-1.6,0.3v0.7c0.5-0.2,1-0.4,1.5-0.4
			c0.8,0,1.2,0.4,1.2,1.1v0.4C415.3,274.8,414.5,274.9,414,275.3 M416.4,277.3c-0.1,0.3-0.4,0.5-1.1,0.5c-0.4,0-0.7-0.1-0.9-0.3
			c-0.2-0.2-0.3-0.5-0.3-0.8c0-0.5,0.2-0.8,0.5-1c0.4-0.2,1-0.3,1.8-0.3C416.4,276.4,416.4,277.1,416.4,277.3 M410.4,272.6
			c-0.7,0-1.2,0.2-1.8,0.5c-0.3-0.4-0.7-0.5-1.3-0.5c-0.3,0-0.6,0-1,0.1c-0.4,0.1-0.8,0.1-1.2,0.1v5.4h0.7V274
			c0-0.2,0.1-0.4,0.4-0.6c0.3-0.1,0.6-0.2,0.9-0.2c0.8,0,1.1,0.5,1.1,1.4v3.6h0.7v-3.7c0-0.3,0-0.5,0-0.6c0-0.2,0.1-0.4,0.4-0.5
			c0.3-0.1,0.6-0.2,0.9-0.2c0.4,0,0.7,0.1,0.9,0.3c0.2,0.2,0.3,0.6,0.3,1.1v3.6h0.7v-3.8C412.1,273.2,411.5,272.6,410.4,272.6
			 M401,273.7c0.2-0.3,0.6-0.4,1.1-0.4c0.4,0,0.7,0.1,0.9,0.3c0.2,0.2,0.3,0.4,0.3,0.8c0,0.1,0,0.2-0.1,0.2c0,0-0.1,0.1-0.2,0.1
			h-2.4C400.6,274.3,400.7,274,401,273.7 M404,275.3c0-0.2,0-0.4,0-0.5c0-0.6-0.2-1.2-0.5-1.5c-0.3-0.4-0.8-0.6-1.4-0.6
			c-0.7,0-1.4,0.3-1.8,0.8c-0.5,0.5-0.7,1.2-0.7,2.1c0,1,0.2,1.7,0.7,2.2c0.5,0.5,1.2,0.7,2,0.7c0.4,0,0.8-0.1,1.2-0.2v-0.6
			c-0.3,0.1-0.7,0.2-1.1,0.2c-0.6,0-1.1-0.2-1.5-0.6s-0.5-0.9-0.5-1.7v-0.3H404z M396.4,273.5v3.7c0,0.4,0.1,0.8,0.4,1
			c0.2,0.2,0.6,0.3,0.9,0.3c0.4,0,0.9-0.1,1.3-0.3v-0.6c-0.3,0.2-0.7,0.3-1.1,0.3c-0.5,0-0.8-0.3-0.8-0.8c0-0.5,0-1.2,0-2
			c0-0.8,0-1.3,0-1.5h1.8v-0.7h-1.8v-1.6l-0.7,0.4v1.2h-0.8v0.7H396.4z M391.6,275.3c-0.5,0.4-0.8,0.8-0.8,1.4
			c0,0.5,0.2,0.9,0.5,1.2c0.3,0.3,0.8,0.5,1.4,0.5c0.2,0,0.5,0,0.9-0.1c0.4-0.1,0.8-0.1,1.1-0.1c0-0.3,0-0.7,0-1.1
			c0-0.3,0-0.8,0-1.4c0-0.6,0-1.1,0-1.4c0-1.1-0.6-1.7-1.9-1.7c-0.6,0-1.1,0.1-1.6,0.3v0.7c0.5-0.2,1-0.4,1.5-0.4
			c0.8,0,1.2,0.4,1.2,1.1v0.4C392.9,274.8,392.1,274.9,391.6,275.3 M393.9,277.3c-0.1,0.3-0.4,0.5-1.1,0.5c-0.4,0-0.7-0.1-0.9-0.3
			c-0.2-0.2-0.3-0.5-0.3-0.8c0-0.5,0.2-0.8,0.5-1c0.4-0.2,1-0.3,1.8-0.3C393.9,276.4,393.9,277.1,393.9,277.3 M386.5,277.4
			c-0.2-0.2-0.3-0.6-0.3-1.1v-3.6h-0.7v3.7c0,0.6,0.2,1.1,0.6,1.4c0.4,0.3,0.9,0.5,1.5,0.5c0.3,0,0.6,0,1-0.1
			c0.4-0.1,0.8-0.1,1.1-0.1v-5.4h-0.7v4.3c0,0.4-0.4,0.6-1.2,0.6C387.1,277.7,386.7,277.6,386.5,277.4 M384.1,274.3h-0.8v2.9
			c0,0.2-0.1,0.3-0.3,0.4c-0.2,0.1-0.4,0.2-0.8,0.2c-0.4,0-0.9-0.1-1.2-0.2c-0.4-0.1-0.7-0.3-1-0.6c-0.3-0.3-0.5-0.6-0.7-1.1
			c-0.2-0.5-0.2-1-0.2-1.6c0-1.2,0.3-2.1,0.9-2.7c0.6-0.6,1.4-0.9,2.4-0.9c0.6,0,1.1,0.1,1.6,0.3v-0.8c-0.5-0.1-1-0.2-1.6-0.2
			c-0.6,0-1.1,0.1-1.6,0.3s-0.9,0.4-1.3,0.8c-0.4,0.4-0.7,0.8-0.9,1.4c-0.2,0.6-0.3,1.2-0.3,2s0.1,1.4,0.3,1.9
			c0.2,0.5,0.5,1,0.9,1.3c0.4,0.3,0.8,0.5,1.3,0.7c0.5,0.1,1,0.2,1.5,0.2c0.6,0,1.2-0.1,1.8-0.3C384,276.2,384.1,274.9,384.1,274.3"
			/>
		<path class="st22" d="M651,256.7c0.7-1,1-1.9,1-2.7c0-0.7-0.2-1.3-0.6-1.7c-0.4-0.4-1-0.7-1.7-0.7c-0.6,0-1.1,0.2-1.5,0.6
			c-0.4,0.4-0.6,0.9-0.6,1.4c0,0.2,0,0.4,0.1,0.6h0.6c0-0.1,0-0.3,0-0.4c0-0.4,0.1-0.8,0.4-1.1c0.3-0.3,0.6-0.4,1-0.4
			c0.5,0,0.9,0.1,1.1,0.4c0.3,0.3,0.4,0.7,0.4,1.3c0,1.8-1.4,3.7-4.1,5.7l0,0.2h5l0-0.7c-0.4,0-1.6,0.1-3.6,0.1
			C649.5,258.5,650.3,257.6,651,256.7 M645.6,252.5v-0.7h-3.5l-0.2,4.1c0.5-0.1,0.9-0.2,1.3-0.2c0.7,0,1.2,0.2,1.5,0.5
			c0.3,0.3,0.5,0.8,0.5,1.4c0,0.6-0.2,1-0.5,1.4c-0.4,0.3-0.9,0.5-1.6,0.5c-0.6,0-1-0.1-1.4-0.4v0.6c0.4,0.2,0.9,0.4,1.4,0.4
			c1,0,1.7-0.2,2.2-0.7c0.5-0.5,0.7-1.1,0.7-1.8s-0.2-1.3-0.7-1.8c-0.5-0.5-1.1-0.7-2-0.7c-0.3,0-0.5,0-0.7,0.1l0.1-2.6
			C644.5,252.4,645.4,252.4,645.6,252.5 M637.6,255.9c0.5,0,1,0.2,1.3,0.5c0.3,0.3,0.5,0.7,0.5,1.2s-0.2,0.9-0.5,1.2
			c-0.3,0.3-0.8,0.5-1.4,0.5c-0.6,0-1-0.1-1.4-0.4v0.6c0.4,0.2,0.9,0.4,1.4,0.4c0.9,0,1.5-0.2,2-0.7c0.5-0.5,0.8-1,0.8-1.7
			c0-0.5-0.1-0.9-0.4-1.3c-0.3-0.4-0.6-0.6-1.1-0.8c0.9-0.4,1.3-1,1.3-1.9c0-0.6-0.2-1.1-0.6-1.5c-0.4-0.4-0.9-0.6-1.7-0.6
			c-0.6,0-1.1,0.1-1.5,0.3v0.7c0.4-0.3,0.9-0.4,1.5-0.4c0.5,0,0.9,0.1,1.1,0.4c0.2,0.3,0.4,0.6,0.4,1.1c0,0.4-0.2,0.8-0.5,1.1
			c-0.3,0.3-0.7,0.5-1.2,0.5c-0.1,0-0.2,0-0.3,0v0.7C637.3,255.9,637.5,255.9,637.6,255.9 M632.5,261.2l0.5,0.2l1.2-2.7h-1.1
			C633,260,632.7,260.8,632.5,261.2 M631,252.5v-0.7h-3.5l-0.2,4.1c0.5-0.1,0.9-0.2,1.3-0.2c0.7,0,1.2,0.2,1.5,0.5
			c0.3,0.3,0.5,0.8,0.5,1.4c0,0.6-0.2,1-0.5,1.4c-0.4,0.3-0.9,0.5-1.6,0.5c-0.6,0-1-0.1-1.4-0.4v0.6c0.4,0.2,0.9,0.4,1.4,0.4
			c1,0,1.7-0.2,2.2-0.7c0.5-0.5,0.7-1.1,0.7-1.8s-0.2-1.3-0.7-1.8s-1.1-0.7-2-0.7c-0.3,0-0.5,0-0.7,0.1l0.1-2.6
			C629.9,252.4,630.8,252.4,631,252.5"/>
		<path class="st22" d="M584.5,252.2c0.5,0,0.9,0.3,1.3,1c0.3,0.6,0.5,1.5,0.5,2.5s-0.2,1.9-0.5,2.6c-0.3,0.7-0.7,1-1.3,1
			c-0.5,0-0.9-0.3-1.3-1c-0.3-0.7-0.5-1.5-0.5-2.6s0.2-1.9,0.5-2.5C583.6,252.5,584,252.2,584.5,252.2 M582.6,258.8
			c0.5,0.8,1.1,1.2,1.9,1.2s1.4-0.4,1.9-1.2s0.7-1.8,0.7-3c0-1.2-0.2-2.2-0.7-3c-0.5-0.8-1.1-1.2-1.9-1.2s-1.4,0.4-1.9,1.2
			c-0.5,0.8-0.7,1.8-0.7,3C581.9,256.9,582.2,257.9,582.6,258.8 M581.2,251.9l-0.1-0.2h-4.8v0.7c1.1,0,2.3-0.1,3.6-0.1
			c0.1,0,0.2,0,0.2,0.1c0,0.1,0,0.2-0.1,0.3l-3,7h0.8L581.2,251.9z M571.5,256.7C571.4,256.7,571.4,256.7,571.5,256.7
			c-0.1-0.1-0.1-0.1-0.1-0.1c0.6-1.2,1.3-2.5,2.1-3.7v3.9H571.5z M573.5,257.4v2.4h0.7v-2.4h1.4v-0.7h-1.4v-1.4c0-1.6,0-2.9,0-3.6
			h-0.8c-1.3,2-2.4,3.8-3.3,5.6l0.1,0.1H573.5z M567.5,261.2l0.5,0.2l1.2-2.7h-1.1C567.9,260,567.7,260.8,567.5,261.2 M566,252.5
			v-0.7h-3.5l-0.2,4.1c0.5-0.1,0.9-0.2,1.3-0.2c0.7,0,1.2,0.2,1.5,0.5c0.3,0.3,0.5,0.8,0.5,1.4c0,0.6-0.2,1-0.5,1.4
			c-0.4,0.3-0.9,0.5-1.6,0.5c-0.6,0-1-0.1-1.4-0.4v0.6c0.4,0.2,0.9,0.4,1.4,0.4c1,0,1.7-0.2,2.2-0.7c0.5-0.5,0.7-1.1,0.7-1.8
			s-0.2-1.3-0.7-1.8s-1.1-0.7-2-0.7c-0.3,0-0.5,0-0.7,0.1l0.1-2.6C564.8,252.4,565.7,252.4,566,252.5"/>
		<path class="st22" d="M516.2,255.9c0.5,0,1,0.2,1.3,0.5c0.3,0.3,0.5,0.7,0.5,1.2s-0.2,0.9-0.5,1.2c-0.3,0.3-0.8,0.5-1.4,0.5
			c-0.6,0-1-0.1-1.4-0.4v0.6c0.4,0.2,0.9,0.4,1.4,0.4c0.9,0,1.5-0.2,2-0.7s0.8-1,0.8-1.7c0-0.5-0.1-0.9-0.4-1.3
			c-0.3-0.4-0.7-0.6-1.1-0.8c0.9-0.4,1.3-1,1.3-1.9c0-0.6-0.2-1.1-0.6-1.5c-0.4-0.4-0.9-0.6-1.7-0.6c-0.6,0-1.1,0.1-1.5,0.3v0.7
			c0.4-0.3,0.9-0.4,1.5-0.4c0.5,0,0.9,0.1,1.1,0.4c0.2,0.3,0.4,0.6,0.4,1.1c0,0.4-0.2,0.8-0.5,1.1s-0.7,0.5-1.2,0.5
			c-0.1,0-0.2,0-0.3,0v0.7C515.9,255.9,516,255.9,516.2,255.9 M510.6,252.2c0.5,0,0.9,0.3,1.3,1s0.5,1.5,0.5,2.6
			c0,1.1-0.2,1.9-0.5,2.6s-0.7,1-1.3,1c-0.5,0-0.9-0.3-1.3-1s-0.5-1.5-0.5-2.6c0-1.1,0.2-1.9,0.5-2.6S510.1,252.2,510.6,252.2
			 M508.8,258.8c0.5,0.8,1.1,1.2,1.9,1.2c0.8,0,1.4-0.4,1.9-1.2s0.7-1.8,0.7-3c0-1.2-0.2-2.2-0.7-3c-0.5-0.8-1.1-1.2-1.9-1.2
			c-0.8,0-1.4,0.4-1.9,1.2c-0.5,0.8-0.7,1.8-0.7,3C508,256.9,508.3,257.9,508.8,258.8 M504.5,255.9c0.5,0,1,0.2,1.3,0.5
			c0.3,0.3,0.5,0.7,0.5,1.2s-0.2,0.9-0.5,1.2s-0.8,0.5-1.4,0.5c-0.6,0-1-0.1-1.4-0.4v0.6c0.4,0.2,0.9,0.4,1.4,0.4
			c0.9,0,1.5-0.2,2-0.7s0.8-1,0.8-1.7c0-0.5-0.1-0.9-0.4-1.3c-0.3-0.4-0.7-0.6-1.1-0.8c0.9-0.4,1.3-1,1.3-1.9c0-0.6-0.2-1.1-0.6-1.5
			c-0.4-0.4-0.9-0.6-1.7-0.6c-0.6,0-1.1,0.1-1.5,0.3v0.7c0.4-0.3,0.9-0.4,1.5-0.4c0.5,0,0.9,0.1,1.1,0.4c0.2,0.3,0.4,0.6,0.4,1.1
			c0,0.4-0.2,0.8-0.5,1.1c-0.3,0.3-0.7,0.5-1.2,0.5c-0.1,0-0.2,0-0.3,0v0.7C504.2,255.9,504.4,255.9,504.5,255.9 M499.4,261.2
			l0.5,0.2l1.2-2.7h-1.1C499.8,260,499.6,260.8,499.4,261.2 M494.7,256.7C494.7,256.7,494.7,256.7,494.7,256.7
			c-0.1-0.1-0.1-0.1-0.1-0.1c0.6-1.2,1.3-2.5,2.1-3.7v3.9H494.7z M496.8,257.4v2.4h0.7v-2.4h1.4v-0.7h-1.4v-1.4c0-1.6,0-2.9,0-3.6
			h-0.8c-1.3,2-2.4,3.8-3.3,5.6l0.1,0.1H496.8z"/>
		<path class="st23" d="M396.5,250.2h-0.9c-0.5,0.7-1,1.4-1.5,1.8h0.8L396.5,250.2z M393.9,257.4c-0.2-0.2-0.3-0.6-0.3-1.1v-3.6
			h-0.7v3.7c0,0.6,0.2,1.1,0.6,1.4c0.4,0.3,0.9,0.5,1.5,0.5c0.3,0,0.6,0,1-0.1c0.4-0.1,0.8-0.1,1.1-0.1v-5.4h-0.7v4.3
			c0,0.4-0.4,0.6-1.2,0.6C394.5,257.7,394.1,257.6,393.9,257.4 M390.1,254.3c0-0.3,0.1-0.5,0.4-0.7c0.2-0.2,0.6-0.2,1-0.2
			c0.2,0,0.4,0,0.7,0.1v-0.8c-0.2,0-0.4,0-0.6,0c-0.3,0-0.6,0.1-0.9,0.2c-0.3,0.1-0.5,0.3-0.6,0.6v-0.6h-0.7v5.5h0.7
			C390.1,256.3,390.1,254.9,390.1,254.3 M385.2,253.7c0.2-0.3,0.6-0.4,1.1-0.4c0.4,0,0.7,0.1,0.9,0.3c0.2,0.2,0.3,0.4,0.3,0.8
			c0,0.1,0,0.2-0.1,0.2c0,0-0.1,0.1-0.2,0.1h-2.4C384.8,254.3,385,254,385.2,253.7 M388.2,255.3c0-0.2,0-0.4,0-0.5
			c0-0.6-0.2-1.2-0.5-1.5c-0.3-0.4-0.8-0.6-1.4-0.6c-0.7,0-1.4,0.3-1.8,0.8c-0.5,0.5-0.7,1.2-0.7,2.1c0,1,0.2,1.7,0.7,2.2
			s1.2,0.7,2,0.7c0.4,0,0.8-0.1,1.2-0.2v-0.6c-0.3,0.1-0.7,0.2-1.1,0.2c-0.6,0-1.1-0.2-1.5-0.6c-0.4-0.4-0.5-0.9-0.5-1.7v-0.3H388.2
			z M379.6,250.9c0,0,0.1-0.1,0.3-0.1s0.4,0,0.7,0c0.5,0,1,0.1,1.3,0.4c0.3,0.3,0.5,0.7,0.5,1.2c0,0.5-0.2,0.9-0.5,1.2
			c-0.3,0.3-0.8,0.4-1.4,0.4c-0.4,0-0.7,0-1-0.1c0-1.1,0-2,0.1-2.7C379.5,251,379.5,251,379.6,250.9 M382.5,253.9
			c0.5-0.4,0.7-0.9,0.7-1.6c0-0.7-0.2-1.3-0.7-1.7c-0.5-0.4-1.1-0.6-1.9-0.6c-0.3,0-0.6,0-0.9,0.1c-0.4,0-0.7,0.1-1,0.1v8.1h0.8
			v-3.8c0.4,0.1,0.7,0.1,1.1,0.1C381.4,254.6,382,254.4,382.5,253.9"/>
		<path class="st22" d="M651.1,234.2l1.9-1.2v6.9h0.8v-4.5c0-1,0-2.3,0-3.9l-2.7,1.7V234.2z M648.3,237.9c0,0.5-0.1,0.9-0.4,1.2
			s-0.7,0.5-1.2,0.5c-0.5,0-0.9-0.2-1.2-0.5c-0.3-0.3-0.4-0.7-0.4-1.2c0-0.5,0.2-0.9,0.5-1.2c0.3-0.4,0.7-0.5,1.2-0.5
			s0.9,0.2,1.2,0.5C648.2,237,648.3,237.4,648.3,237.9 M649.2,237.9c0-0.5-0.1-0.9-0.4-1.3c-0.3-0.4-0.6-0.7-1.1-0.8
			c0.9-0.4,1.3-1,1.3-1.9c0-0.5-0.2-1-0.6-1.4c-0.4-0.4-1-0.6-1.7-0.6c-0.7,0-1.3,0.2-1.7,0.6c-0.4,0.4-0.6,0.9-0.6,1.4
			c0,0.9,0.4,1.6,1.3,1.9c-0.5,0.2-0.8,0.4-1.1,0.8c-0.3,0.4-0.4,0.8-0.4,1.3c0,0.7,0.2,1.2,0.7,1.7c0.4,0.4,1.1,0.6,1.8,0.6
			s1.4-0.2,1.8-0.6C648.9,239.1,649.2,238.6,649.2,237.9 M645.6,235c-0.3-0.3-0.4-0.7-0.4-1.1c0-0.4,0.1-0.8,0.4-1.1
			c0.2-0.3,0.6-0.4,1.1-0.4c0.5,0,0.9,0.1,1.1,0.4c0.2,0.3,0.4,0.6,0.4,1.1c0,0.4-0.1,0.8-0.4,1.1s-0.6,0.5-1,0.5
			C646.2,235.4,645.9,235.3,645.6,235 M639.4,234.2l1.9-1.2v6.9h0.8v-4.5c0-1,0-2.3,0-3.9l-2.7,1.7V234.2z M635.5,241.4l0.5,0.2
			l1.2-2.7h-1.1C635.9,240.2,635.7,241,635.5,241.4 M632.1,239.6c-0.5,0-0.9-0.2-1.1-0.6s-0.4-1-0.4-1.7c0-0.5,0.1-1,0.4-1.4
			s0.7-0.5,1.2-0.5c0.3,0,0.6,0.1,0.8,0.2c0.2,0.1,0.4,0.3,0.5,0.6c0.1,0.2,0.2,0.4,0.2,0.6c0,0.2,0.1,0.4,0.1,0.6
			C633.7,238.8,633.1,239.6,632.1,239.6 M631.9,233.6c0.5-0.6,1.2-1.1,2-1.4l-0.3-0.5c-1.2,0.5-2.2,1.3-2.8,2.3c-0.6,1-1,2.1-1,3.3
			c0,1,0.2,1.7,0.6,2.2s1,0.8,1.7,0.8c0.8,0,1.3-0.3,1.7-0.9s0.6-1.2,0.6-2c0-0.9-0.2-1.5-0.7-2s-1-0.7-1.6-0.7
			c-0.5,0-1,0.2-1.3,0.5C631,234.7,631.3,234.2,631.9,233.6 M624.8,234.2l1.9-1.2v6.9h0.8v-4.5c0-1,0-2.3,0-3.9l-2.7,1.7V234.2z"/>
		<path class="st22" d="M587.4,239.6c-0.5,0-0.9-0.2-1.1-0.6c-0.3-0.4-0.4-1-0.4-1.7c0-0.5,0.1-1,0.4-1.4c0.3-0.4,0.7-0.5,1.2-0.5
			c0.3,0,0.6,0.1,0.8,0.2c0.2,0.1,0.4,0.3,0.5,0.6c0.1,0.2,0.2,0.4,0.2,0.6c0,0.2,0.1,0.4,0.1,0.6
			C589,238.8,588.5,239.6,587.4,239.6 M587.2,233.6c0.5-0.6,1.2-1.1,2-1.4l-0.3-0.5c-1.2,0.5-2.2,1.3-2.8,2.3c-0.6,1-1,2.1-1,3.3
			c0,1,0.2,1.7,0.6,2.2c0.4,0.5,1,0.8,1.7,0.8c0.8,0,1.3-0.3,1.7-0.9c0.4-0.6,0.6-1.2,0.6-2c0-0.9-0.2-1.5-0.7-2
			c-0.4-0.5-1-0.7-1.6-0.7c-0.5,0-1,0.2-1.3,0.5C586.3,234.7,586.7,234.2,587.2,233.6 M581.6,232.4c0.5,0,0.9,0.2,1.1,0.6
			c0.3,0.4,0.4,1,0.4,1.7c0,0.5-0.1,1-0.4,1.4c-0.3,0.4-0.7,0.5-1.2,0.5c-0.3,0-0.6-0.1-0.8-0.2c-0.2-0.1-0.4-0.3-0.5-0.6
			s-0.2-0.4-0.2-0.6c0-0.2-0.1-0.4-0.1-0.6C580,233.1,580.5,232.4,581.6,232.4 M581.8,238.3c-0.6,0.6-1.2,1.1-2,1.5l0.3,0.5
			c1.2-0.5,2.2-1.3,2.8-2.3c0.6-1,1-2.1,1-3.3c0-1-0.2-1.7-0.6-2.2c-0.4-0.5-1-0.8-1.7-0.8c-0.8,0-1.3,0.3-1.7,0.9
			c-0.4,0.6-0.6,1.2-0.6,2c0,0.9,0.2,1.5,0.7,2s1,0.7,1.6,0.7c0.5,0,1-0.2,1.3-0.5C582.7,237.2,582.3,237.7,581.8,238.3
			 M577.1,236.9c0.7-1,1-1.9,1-2.7c0-0.7-0.2-1.3-0.6-1.7c-0.4-0.4-1-0.7-1.7-0.7c-0.6,0-1.1,0.2-1.5,0.6c-0.4,0.4-0.6,0.9-0.6,1.4
			c0,0.2,0,0.4,0.1,0.6h0.6c0-0.1,0-0.3,0-0.4c0-0.4,0.1-0.8,0.4-1.1c0.3-0.3,0.6-0.4,1-0.4c0.5,0,0.9,0.1,1.1,0.4
			c0.3,0.3,0.4,0.7,0.4,1.3c0,1.8-1.4,3.7-4.1,5.7l0,0.2h5l0-0.7c-0.4,0-1.6,0.1-3.6,0.1C575.7,238.7,576.4,237.8,577.1,236.9
			 M570.4,241.4l0.5,0.2l1.2-2.7H571C570.8,240.2,570.6,241,570.4,241.4 M567,239.6c-0.5,0-0.9-0.2-1.1-0.6s-0.4-1-0.4-1.7
			c0-0.5,0.1-1,0.4-1.4s0.7-0.5,1.2-0.5c0.3,0,0.6,0.1,0.8,0.2c0.2,0.1,0.4,0.3,0.5,0.6c0.1,0.2,0.2,0.4,0.2,0.6
			c0,0.2,0.1,0.4,0.1,0.6C568.6,238.8,568.1,239.6,567,239.6 M566.8,233.6c0.5-0.6,1.2-1.1,2-1.4l-0.3-0.5c-1.2,0.5-2.2,1.3-2.8,2.3
			c-0.6,1-1,2.1-1,3.3c0,1,0.2,1.7,0.6,2.2s1,0.8,1.7,0.8c0.8,0,1.3-0.3,1.7-0.9s0.6-1.2,0.6-2c0-0.9-0.2-1.5-0.7-2s-1-0.7-1.6-0.7
			c-0.5,0-1,0.2-1.3,0.5C565.9,234.7,566.2,234.2,566.8,233.6 M559.7,234.2l1.9-1.2v6.9h0.8v-4.5c0-1,0-2.3,0-3.9l-2.7,1.7V234.2z"
			/>
		<path class="st22" d="M519.4,239.6c-0.5,0-0.9-0.2-1.1-0.6c-0.3-0.4-0.4-1-0.4-1.7c0-0.5,0.1-1,0.4-1.4c0.3-0.4,0.7-0.5,1.2-0.5
			c0.3,0,0.6,0.1,0.8,0.2c0.2,0.1,0.4,0.3,0.5,0.6c0.1,0.2,0.2,0.4,0.2,0.6c0,0.2,0.1,0.4,0.1,0.6
			C521,238.8,520.5,239.6,519.4,239.6 M519.2,233.6c0.5-0.6,1.2-1.1,2-1.4l-0.3-0.5c-1.2,0.5-2.2,1.3-2.8,2.3c-0.6,1-1,2.1-1,3.3
			c0,1,0.2,1.7,0.6,2.2c0.4,0.5,1,0.8,1.7,0.8c0.8,0,1.3-0.3,1.7-0.9c0.4-0.6,0.6-1.2,0.6-2c0-0.9-0.2-1.5-0.7-2
			c-0.4-0.5-1-0.7-1.6-0.7c-0.5,0-1,0.2-1.3,0.5C518.3,234.7,518.6,234.2,519.2,233.6 M513.2,236.1c0.5,0,1,0.2,1.3,0.5
			c0.3,0.3,0.5,0.7,0.5,1.2s-0.2,0.9-0.5,1.2c-0.3,0.3-0.8,0.5-1.4,0.5c-0.6,0-1-0.1-1.4-0.4v0.6c0.4,0.2,0.9,0.4,1.4,0.4
			c0.9,0,1.5-0.2,2-0.7c0.5-0.5,0.8-1,0.8-1.7c0-0.5-0.1-0.9-0.4-1.3c-0.3-0.4-0.7-0.6-1.1-0.8c0.9-0.4,1.3-1,1.3-1.9
			c0-0.6-0.2-1.1-0.6-1.5c-0.4-0.4-0.9-0.6-1.7-0.6c-0.6,0-1.1,0.1-1.5,0.3v0.7c0.4-0.3,0.9-0.4,1.5-0.4c0.5,0,0.9,0.1,1.1,0.4
			c0.2,0.3,0.4,0.6,0.4,1.1c0,0.4-0.2,0.8-0.5,1.1c-0.3,0.3-0.7,0.5-1.2,0.5c-0.1,0-0.2,0-0.3,0v0.7
			C513,236.1,513.1,236.1,513.2,236.1 M509.4,237.9c0,0.5-0.1,0.9-0.4,1.2s-0.7,0.5-1.2,0.5c-0.5,0-0.9-0.2-1.2-0.5
			c-0.3-0.3-0.4-0.7-0.4-1.2c0-0.5,0.2-0.9,0.5-1.2s0.7-0.5,1.2-0.5c0.5,0,0.9,0.2,1.2,0.5S509.4,237.4,509.4,237.9 M510.2,237.9
			c0-0.5-0.1-0.9-0.4-1.3s-0.6-0.7-1.1-0.8c0.9-0.4,1.3-1,1.3-1.9c0-0.5-0.2-1-0.6-1.4c-0.4-0.4-1-0.6-1.7-0.6s-1.3,0.2-1.7,0.6
			c-0.4,0.4-0.6,0.9-0.6,1.4c0,0.9,0.4,1.6,1.3,1.9c-0.5,0.2-0.8,0.4-1.1,0.8s-0.4,0.8-0.4,1.3c0,0.7,0.2,1.2,0.7,1.7
			c0.4,0.4,1.1,0.6,1.8,0.6s1.4-0.2,1.8-0.6C510,239.1,510.2,238.6,510.2,237.9 M506.6,235c-0.3-0.3-0.4-0.7-0.4-1.1
			c0-0.4,0.1-0.8,0.4-1.1c0.2-0.3,0.6-0.4,1.1-0.4s0.9,0.1,1.1,0.4c0.2,0.3,0.4,0.6,0.4,1.1c0,0.4-0.1,0.8-0.4,1.1s-0.6,0.5-1.1,0.5
			C507.3,235.4,506.9,235.3,506.6,235 M502.3,241.4l0.5,0.2l1.2-2.7H503C502.8,240.2,502.5,241,502.3,241.4 M499,239.6
			c-0.5,0-0.9-0.2-1.1-0.6c-0.3-0.4-0.4-1-0.4-1.7c0-0.5,0.1-1,0.4-1.4c0.3-0.4,0.7-0.5,1.2-0.5c0.3,0,0.6,0.1,0.8,0.2
			c0.2,0.1,0.4,0.3,0.5,0.6c0.1,0.2,0.2,0.4,0.2,0.6c0,0.2,0.1,0.4,0.1,0.6C500.6,238.8,500,239.6,499,239.6 M498.8,233.6
			c0.5-0.6,1.2-1.1,2-1.4l-0.3-0.5c-1.2,0.5-2.2,1.3-2.8,2.3c-0.6,1-1,2.1-1,3.3c0,1,0.2,1.7,0.6,2.2c0.4,0.5,1,0.8,1.7,0.8
			c0.8,0,1.3-0.3,1.7-0.9s0.6-1.2,0.6-2c0-0.9-0.2-1.5-0.7-2s-1-0.7-1.6-0.7c-0.5,0-1,0.2-1.3,0.5
			C497.9,234.7,498.2,234.2,498.8,233.6 M491.7,234.2l1.9-1.2v6.9h0.8v-4.5c0-1,0-2.3,0-3.9l-2.7,1.7V234.2z"/>
		<path class="st23" d="M408.7,235.9c0,0.7-0.1,1.3-0.4,1.7c-0.3,0.4-0.6,0.6-1.1,0.6c-0.5,0-0.9-0.2-1.2-0.6s-0.4-0.9-0.4-1.7
			c0-0.8,0.1-1.3,0.4-1.7c0.3-0.4,0.6-0.6,1.1-0.6c0.5,0,0.9,0.2,1.2,0.6C408.5,234.7,408.7,235.2,408.7,235.9 M405.4,233.8
			c-0.4,0.5-0.7,1.2-0.7,2.1c0,0.9,0.2,1.6,0.7,2.1c0.4,0.5,1,0.8,1.7,0.8c0.7,0,1.3-0.3,1.7-0.8c0.4-0.5,0.6-1.2,0.6-2.1
			c0-0.9-0.2-1.6-0.6-2.1c-0.4-0.5-1-0.8-1.7-0.8C406.4,233,405.8,233.3,405.4,233.8 M403.1,233.7c0.3,0,0.6,0,0.9,0.1v-0.7
			c-0.3,0-0.6-0.1-0.9-0.1c-0.9,0-1.5,0.3-2,0.8c-0.5,0.5-0.7,1.2-0.7,2.1c0,0.9,0.2,1.7,0.7,2.2c0.5,0.5,1.2,0.7,2,0.7
			c0.3,0,0.6,0,0.9-0.1v-0.6c-0.3,0.1-0.6,0.1-0.9,0.1c-1.3,0-1.9-0.8-1.9-2.3C401.2,234.4,401.9,233.7,403.1,233.7 M398.4,238.7
			h0.7c0-2.1,0-3.9,0-5.5h-0.8V238.7z M398.4,231.1c-0.1,0.1-0.1,0.2-0.1,0.4c0,0.2,0,0.3,0.1,0.4c0.1,0.1,0.2,0.1,0.4,0.1
			c0.1,0,0.3,0,0.4-0.1c0.1-0.1,0.1-0.2,0.1-0.4c0-0.1,0-0.3-0.1-0.4c-0.1-0.1-0.2-0.1-0.4-0.1C398.6,231,398.5,231,398.4,231.1
			 M396.5,238.7h1l-2-2.8c1-1.3,1.7-2.2,2.1-2.7h-0.9l-1.5,2.1c0,0.1-0.1,0.1-0.2,0l-1.5-2.1h-1c0.5,0.6,1.2,1.5,2.1,2.8l-2,2.7h0.9
			c0.5-0.8,1-1.5,1.4-2.1c0-0.1,0.1-0.1,0.1,0C395.7,237.4,396.1,238.1,396.5,238.7 M391.7,230.6h-0.9c-0.5,0.7-1,1.4-1.5,1.8h0.8
			L391.7,230.6z M389.1,234.1c0.2-0.3,0.6-0.4,1.1-0.4c0.4,0,0.7,0.1,0.9,0.3c0.2,0.2,0.3,0.4,0.3,0.8c0,0.1,0,0.2-0.1,0.2
			c0,0-0.1,0.1-0.2,0.1h-2.4C388.8,234.7,388.9,234.4,389.1,234.1 M392.2,235.7c0-0.2,0-0.4,0-0.5c0-0.6-0.2-1.1-0.5-1.5
			c-0.3-0.4-0.8-0.6-1.4-0.6c-0.7,0-1.4,0.3-1.8,0.8c-0.5,0.5-0.7,1.2-0.7,2.1c0,1,0.2,1.7,0.7,2.2c0.5,0.5,1.2,0.7,2,0.7
			c0.4,0,0.8-0.1,1.2-0.2V238c-0.3,0.1-0.7,0.2-1.1,0.2c-0.6,0-1.1-0.2-1.5-0.6c-0.4-0.4-0.5-0.9-0.5-1.7v-0.3H392.2z M382.8,238.3
			c1-2.5,1.9-4.8,2.6-6.6l0.3,7h0.8c-0.1-0.7-0.2-1.9-0.3-3.7l-0.3-4.3h-0.9l-2.4,6c-0.1,0.2-0.1,0.3-0.2,0.3c0,0-0.1-0.1-0.2-0.3
			c-0.6-1.5-1.4-3.5-2.3-6.1h-1.1l-0.5,8.1h0.8c0-1.1,0.1-3.5,0.3-7l2.5,6.6H382.8z"/>
		<path class="st24" d="M647.8,213.8c0.2-0.5,0.5-0.8,0.9-0.8c0.4,0,0.7,0.3,0.9,0.8c0.2,0.5,0.3,1.3,0.3,2.1c0,0.9-0.1,1.6-0.3,2.2
			c-0.2,0.6-0.5,0.9-0.9,0.9c-0.4,0-0.7-0.3-0.9-0.9c-0.2-0.6-0.4-1.3-0.4-2.2C647.5,215,647.6,214.3,647.8,213.8 M646.8,218.9
			c0.5,0.8,1.2,1.2,2,1.2c0.8,0,1.5-0.4,2-1.2c0.5-0.8,0.8-1.8,0.8-3c0-1.2-0.3-2.2-0.8-3c-0.5-0.8-1.2-1.2-2-1.2
			c-0.8,0-1.5,0.4-2,1.2c-0.5,0.8-0.8,1.8-0.8,3C646,217.1,646.3,218.1,646.8,218.9 M644.3,216.6c0.5-0.9,0.8-1.6,0.8-2.3
			c0-0.8-0.2-1.4-0.6-1.8c-0.4-0.5-1-0.7-1.9-0.7c-0.7,0-1.3,0.2-1.7,0.7c-0.4,0.4-0.7,1-0.7,1.5c0,0.3,0.1,0.5,0.2,0.8h1.2
			c-0.1-0.2-0.1-0.4-0.1-0.6c0-0.3,0.1-0.6,0.3-0.8c0.2-0.2,0.4-0.3,0.8-0.3c0.8,0,1.1,0.4,1.1,1.3c0,0.9-0.4,1.8-1.1,2.8
			c-0.7,1-1.6,1.8-2.7,2.6l0.1,0.3h5.2l0.1-1.2c-0.3,0-1.3,0-2.9,0C643.1,218.2,643.7,217.4,644.3,216.6 M635.3,213.8
			c0.2-0.5,0.5-0.8,0.9-0.8c0.4,0,0.7,0.3,0.9,0.8c0.2,0.5,0.3,1.3,0.3,2.1c0,0.9-0.1,1.6-0.3,2.2s-0.5,0.9-0.9,0.9
			s-0.7-0.3-0.9-0.9c-0.2-0.6-0.4-1.3-0.4-2.2C635,215,635.1,214.3,635.3,213.8 M634.3,218.9c0.5,0.8,1.2,1.2,2,1.2s1.5-0.4,2-1.2
			c0.5-0.8,0.8-1.8,0.8-3c0-1.2-0.3-2.2-0.8-3c-0.5-0.8-1.2-1.2-2-1.2s-1.5,0.4-2,1.2c-0.5,0.8-0.8,1.8-0.8,3
			C633.5,217.1,633.8,218.1,634.3,218.9 M631.8,216.6c0.5-0.9,0.8-1.6,0.8-2.3c0-0.8-0.2-1.4-0.6-1.8c-0.4-0.5-1-0.7-1.9-0.7
			c-0.7,0-1.3,0.2-1.7,0.7c-0.4,0.4-0.7,1-0.7,1.5c0,0.3,0.1,0.5,0.2,0.8h1.2c-0.1-0.2-0.1-0.4-0.1-0.6c0-0.3,0.1-0.6,0.3-0.8
			c0.2-0.2,0.4-0.3,0.8-0.3c0.8,0,1.1,0.4,1.1,1.3c0,0.9-0.4,1.8-1.1,2.8c-0.7,1-1.6,1.8-2.7,2.6l0.1,0.3h5.2l0.1-1.2
			c-0.3,0-1.3,0-2.9,0C630.6,218.2,631.2,217.4,631.8,216.6"/>
		<path class="st24" d="M583.6,212.9c0.4,0,0.6,0.2,0.9,0.5s0.3,0.8,0.3,1.3c0,0.5-0.1,0.8-0.3,1.1c-0.2,0.3-0.5,0.4-0.9,0.4
			c-0.3,0-0.5-0.1-0.7-0.3s-0.3-0.4-0.4-0.7c-0.1-0.2-0.1-0.4-0.1-0.6C582.5,213.5,582.9,212.9,583.6,212.9 M582.2,220.4
			c1.3-0.5,2.3-1.3,2.9-2.3c0.7-1,1-2.1,1-3.2c0-1-0.2-1.7-0.7-2.3c-0.5-0.5-1.1-0.8-1.8-0.8c-0.8,0-1.4,0.3-1.9,0.9
			s-0.7,1.3-0.7,2.1c0,0.9,0.2,1.5,0.6,2c0.4,0.5,0.9,0.7,1.6,0.7c0.4,0,0.7-0.1,0.9-0.2c-0.3,0.4-0.6,0.8-1.1,1.3
			c-0.5,0.4-1,0.8-1.6,1L582.2,220.4z M575.5,214.9l2-1.1v6.2h1.4v-4.5c0-0.6,0-1.4,0-2.4c0-1,0-1.5,0-1.7l-3.4,2V214.9z
			 M570.2,213.8c0.2-0.5,0.5-0.8,0.9-0.8c0.4,0,0.7,0.3,0.9,0.8c0.2,0.5,0.3,1.3,0.3,2.1c0,0.9-0.1,1.6-0.3,2.2s-0.5,0.9-0.9,0.9
			s-0.7-0.3-0.9-0.9c-0.2-0.6-0.4-1.3-0.4-2.2C569.9,215,570,214.3,570.2,213.8 M569.2,218.9c0.5,0.8,1.2,1.2,2,1.2s1.5-0.4,2-1.2
			c0.5-0.8,0.8-1.8,0.8-3c0-1.2-0.3-2.2-0.8-3c-0.5-0.8-1.2-1.2-2-1.2s-1.5,0.4-2,1.2c-0.5,0.8-0.8,1.8-0.8,3
			C568.4,217.1,568.7,218.1,569.2,218.9 M566.7,216.6c0.5-0.9,0.8-1.6,0.8-2.3c0-0.8-0.2-1.4-0.6-1.8c-0.4-0.5-1-0.7-1.9-0.7
			c-0.7,0-1.3,0.2-1.7,0.7c-0.4,0.4-0.7,1-0.7,1.5c0,0.3,0.1,0.5,0.2,0.8h1.2c-0.1-0.2-0.1-0.4-0.1-0.6c0-0.3,0.1-0.6,0.3-0.8
			c0.2-0.2,0.4-0.3,0.8-0.3c0.8,0,1.1,0.4,1.1,1.3c0,0.9-0.4,1.8-1.1,2.8c-0.7,1-1.6,1.8-2.7,2.6l0.1,0.3h5.2l0.1-1.2
			c-0.3,0-1.3,0-2.9,0C565.5,218.2,566.2,217.4,566.7,216.6"/>
		<path class="st24" d="M518.3,217.8c0-0.5-0.1-0.9-0.4-1.3s-0.6-0.6-0.9-0.8c0.3-0.1,0.6-0.4,0.8-0.7c0.2-0.3,0.3-0.7,0.3-1.1
			c0-0.6-0.2-1.1-0.6-1.5s-1-0.7-1.8-0.7c-0.8,0-1.4,0.2-1.8,0.7s-0.6,1-0.6,1.5c0,0.8,0.4,1.4,1.1,1.8c-0.4,0.1-0.7,0.4-1,0.8
			c-0.3,0.4-0.4,0.8-0.4,1.3c0,0.7,0.2,1.3,0.7,1.7s1.1,0.7,2,0.7c0.8,0,1.5-0.2,2-0.7S518.3,218.5,518.3,217.8 M516.5,216.7
			c0.2,0.3,0.4,0.6,0.4,0.9c0,0.4-0.1,0.7-0.3,1c-0.2,0.3-0.5,0.4-0.9,0.4s-0.7-0.1-0.9-0.4s-0.3-0.6-0.3-1c0-0.4,0.1-0.7,0.3-0.9
			c0.2-0.3,0.5-0.4,0.9-0.4C516,216.3,516.3,216.5,516.5,216.7 M514.6,214c0-0.3,0.1-0.6,0.3-0.8s0.4-0.3,0.8-0.3
			c0.4,0,0.6,0.1,0.8,0.3s0.3,0.5,0.3,0.8c0,0.3-0.1,0.6-0.3,0.8c-0.2,0.3-0.4,0.4-0.7,0.4s-0.6-0.1-0.8-0.4S514.6,214.3,514.6,214
			 M507.4,214.9l2-1.1v6.2h1.4v-4.5c0-0.6,0-1.4,0-2.4c0-1,0-1.5,0-1.7l-3.4,2V214.9z M502.2,213.8c0.2-0.5,0.5-0.8,0.9-0.8
			c0.4,0,0.7,0.3,0.9,0.8c0.2,0.5,0.3,1.3,0.3,2.1c0,0.9-0.1,1.6-0.3,2.2s-0.5,0.9-0.9,0.9c-0.4,0-0.7-0.3-0.9-0.9s-0.4-1.3-0.4-2.2
			C501.9,215,502,214.3,502.2,213.8 M501.2,218.9c0.5,0.8,1.2,1.2,2,1.2c0.8,0,1.5-0.4,2-1.2c0.5-0.8,0.8-1.8,0.8-3
			c0-1.2-0.3-2.2-0.8-3c-0.5-0.8-1.2-1.2-2-1.2c-0.8,0-1.5,0.4-2,1.2c-0.5,0.8-0.8,1.8-0.8,3C500.4,217.1,500.7,218.1,501.2,218.9
			 M498.7,216.6c0.5-0.9,0.8-1.6,0.8-2.3c0-0.8-0.2-1.4-0.6-1.8c-0.4-0.5-1-0.7-1.9-0.7c-0.7,0-1.3,0.2-1.7,0.7s-0.7,1-0.7,1.5
			c0,0.3,0.1,0.5,0.2,0.8h1.2c-0.1-0.2-0.1-0.4-0.1-0.6c0-0.3,0.1-0.6,0.3-0.8c0.2-0.2,0.4-0.3,0.8-0.3c0.8,0,1.1,0.4,1.1,1.3
			c0,0.9-0.4,1.8-1.1,2.8c-0.7,1-1.6,1.8-2.7,2.6l0.1,0.3h5.2l0.1-1.2c-0.3,0-1.3,0-2.9,0C497.5,218.2,498.1,217.4,498.7,216.6"/>
		<path class="st25" d="M289.2,20.5c-0.4-0.5-1-0.8-1.8-1c-0.4-0.1-0.7-0.2-1.1-0.2c-0.4-0.1-0.7-0.1-1-0.2c-0.6-0.1-1-0.2-1.1-0.4
			s-0.2-0.3-0.2-0.5c0-0.3,0.2-0.5,0.5-0.6c0.3-0.1,0.8-0.2,1.3-0.2c0.6,0,1.2,0.1,1.8,0.3c0.6,0.2,1.1,0.5,1.6,0.8h0.3v-2.5
			c-0.4-0.2-0.9-0.3-1.6-0.5c-0.7-0.1-1.4-0.2-2.1-0.2c-1.6,0-2.8,0.3-3.7,0.9c-0.9,0.6-1.3,1.4-1.3,2.4c0,0.7,0.2,1.4,0.7,1.9
			c0.4,0.5,1.1,0.9,2,1.1c0.3,0.1,0.7,0.2,1.1,0.2c0.4,0.1,0.7,0.1,1,0.2c0.5,0.1,0.8,0.2,1,0.3c0.2,0.1,0.3,0.3,0.3,0.5
			c0,0.3-0.1,0.5-0.4,0.6c-0.3,0.1-0.8,0.2-1.4,0.2c-0.5,0-0.9,0-1.3-0.1c-0.4-0.1-0.8-0.2-1.1-0.3c-0.4-0.2-0.7-0.3-0.9-0.4
			c-0.2-0.1-0.4-0.3-0.5-0.4h-0.3v2.6c0.4,0.2,1,0.4,1.7,0.5s1.5,0.2,2.4,0.2c1.6,0,2.8-0.3,3.8-0.9c0.9-0.6,1.4-1.4,1.4-2.5
			C289.8,21.5,289.6,20.9,289.2,20.5 M276.7,10.6l-2.2,3.5h2.2l3.1-3.3v-0.2H276.7z M278.3,15.5h-3.2v9.9h3.2V15.5z M269,25.3h3.1
			v-6.7c0-1.2-0.4-2.1-1.2-2.6c-0.8-0.6-2.1-0.8-3.9-0.8c-0.8,0-1.5,0.1-2.3,0.2c-0.8,0.1-1.3,0.2-1.6,0.3v2.4h0.3
			c0.3-0.1,0.7-0.2,1.3-0.4c0.6-0.2,1.1-0.3,1.7-0.3c0.9,0,1.5,0.1,2,0.3c0.4,0.2,0.7,0.6,0.7,1.1v0.1c-0.9,0.1-1.8,0.1-2.7,0.2
			c-0.9,0.1-1.6,0.3-2.2,0.6c-0.6,0.3-1,0.6-1.4,1.1c-0.3,0.5-0.5,1-0.5,1.8c0,0.9,0.3,1.6,1,2.2c0.6,0.6,1.4,0.9,2.4,0.9
			c0.4,0,0.8,0,1.1-0.1c0.3-0.1,0.7-0.2,1-0.3c0.2-0.1,0.5-0.2,0.7-0.4c0.3-0.2,0.5-0.3,0.6-0.5V25.3z M268.2,23.3
			c-0.3,0.1-0.6,0.2-1,0.2c-0.4,0-0.7,0-0.9-0.1c-0.2-0.1-0.3-0.1-0.5-0.3c-0.1-0.1-0.2-0.2-0.3-0.4c0-0.1-0.1-0.3-0.1-0.5
			c0-0.3,0.1-0.6,0.3-0.7s0.4-0.3,0.7-0.4c0.3-0.1,0.6-0.2,1.1-0.2c0.5-0.1,1-0.1,1.4-0.1v2C268.8,23,268.5,23.1,268.2,23.3
			 M256.9,22.5c-0.4,0.5-1,0.7-1.9,0.7c-0.2,0-0.5,0-0.7,0c-0.2,0-0.5-0.1-0.7-0.2v-5c0.3-0.2,0.6-0.3,0.9-0.4
			c0.3-0.1,0.6-0.1,0.9-0.1c0.7,0,1.2,0.2,1.6,0.6c0.3,0.4,0.5,1.1,0.5,2.1C257.5,21.3,257.3,22,256.9,22.5 M259.8,16.5
			c-0.7-0.9-1.6-1.4-2.9-1.4c-0.7,0-1.2,0.1-1.8,0.4c-0.5,0.2-1,0.6-1.5,0.9v-1h-3.2V29h3.2v-4.1c0.4,0.2,0.8,0.4,1.2,0.5
			c0.4,0.1,0.9,0.2,1.4,0.2c0.6,0,1.2-0.1,1.7-0.4c0.5-0.2,1-0.6,1.4-1c0.4-0.4,0.7-1,1-1.7c0.2-0.7,0.4-1.4,0.4-2.2
			C260.8,18.7,260.4,17.4,259.8,16.5 M242.5,15.5c-0.1,0-0.2,0-0.4,0c-0.1,0-0.3,0-0.4,0c-0.4,0-0.9,0.1-1.4,0.3
			c-0.5,0.2-1.1,0.6-1.8,1.2v-1.5h-3.2v9.9h3.2v-6.6c0.4-0.1,0.8-0.2,1.1-0.3c0.3-0.1,0.7-0.1,1.2-0.1c0.2,0,0.4,0,0.7,0
			c0.3,0,0.5,0.1,0.6,0.1h0.3V15.5z M228.6,23.3c-0.3,0.1-0.5,0.1-0.8,0.1c-0.3,0-0.6-0.1-0.9-0.2c-0.3-0.1-0.5-0.3-0.7-0.5
			c-0.2-0.2-0.3-0.6-0.4-1c-0.1-0.4-0.1-0.9-0.1-1.4c0-0.6,0.1-1.1,0.2-1.5c0.1-0.4,0.3-0.7,0.5-0.9c0.2-0.2,0.4-0.4,0.7-0.5
			c0.2-0.1,0.5-0.1,0.8-0.1c0.3,0,0.6,0,0.9,0.1c0.3,0.1,0.5,0.3,0.7,0.5c0.2,0.2,0.3,0.5,0.4,0.9c0.1,0.4,0.2,0.9,0.2,1.5
			c0,0.6-0.1,1.1-0.2,1.5c-0.1,0.4-0.3,0.7-0.5,0.9C229,23,228.8,23.2,228.6,23.3 M231.7,16.6c-0.9-0.9-2.3-1.4-4-1.4
			c-1.7,0-3,0.5-4,1.4c-1,0.9-1.4,2.2-1.4,3.8c0,1.6,0.5,2.9,1.4,3.8c0.9,0.9,2.3,1.4,4,1.4s3-0.5,4-1.4c0.9-0.9,1.4-2.2,1.4-3.8
			C233.1,18.8,232.6,17.5,231.7,16.6 M216.9,22.5c-0.4,0.5-1,0.7-1.9,0.7c-0.2,0-0.5,0-0.7,0c-0.2,0-0.5-0.1-0.7-0.2v-5
			c0.3-0.2,0.6-0.3,0.9-0.4c0.3-0.1,0.6-0.1,0.9-0.1c0.7,0,1.2,0.2,1.6,0.6c0.3,0.4,0.5,1.1,0.5,2.1C217.5,21.3,217.3,22,216.9,22.5
			 M219.7,16.5c-0.7-0.9-1.6-1.4-2.9-1.4c-0.7,0-1.2,0.1-1.8,0.4c-0.5,0.2-1,0.6-1.5,0.9v-1h-3.2V29h3.2v-4.1
			c0.4,0.2,0.8,0.4,1.2,0.5s0.9,0.2,1.4,0.2c0.6,0,1.2-0.1,1.7-0.4c0.5-0.2,1-0.6,1.4-1c0.4-0.4,0.7-1,1-1.7
			c0.2-0.7,0.4-1.4,0.4-2.2C220.7,18.7,220.4,17.4,219.7,16.5 M201.6,20.5c-0.4-0.5-1-0.8-1.8-1c-0.4-0.1-0.7-0.2-1.1-0.2
			c-0.4-0.1-0.7-0.1-1-0.2c-0.6-0.1-1-0.2-1.1-0.4c-0.2-0.1-0.2-0.3-0.2-0.5c0-0.3,0.2-0.5,0.5-0.6c0.3-0.1,0.8-0.2,1.3-0.2
			c0.6,0,1.2,0.1,1.8,0.3c0.6,0.2,1.1,0.5,1.6,0.8h0.3v-2.5c-0.4-0.2-0.9-0.3-1.6-0.5c-0.7-0.1-1.4-0.2-2.1-0.2
			c-1.6,0-2.8,0.3-3.7,0.9c-0.9,0.6-1.3,1.4-1.3,2.4c0,0.7,0.2,1.4,0.7,1.9c0.4,0.5,1.1,0.9,2,1.1c0.3,0.1,0.7,0.2,1.1,0.2
			c0.4,0.1,0.7,0.1,1,0.2c0.5,0.1,0.8,0.2,1,0.3c0.2,0.1,0.3,0.3,0.3,0.5c0,0.3-0.1,0.5-0.4,0.6c-0.3,0.1-0.8,0.2-1.4,0.2
			c-0.5,0-0.9,0-1.3-0.1c-0.4-0.1-0.8-0.2-1.1-0.3c-0.4-0.2-0.7-0.3-0.9-0.4c-0.2-0.1-0.4-0.3-0.5-0.4H193v2.6
			c0.4,0.2,1,0.4,1.7,0.5c0.7,0.2,1.5,0.2,2.4,0.2c1.6,0,2.8-0.3,3.8-0.9s1.4-1.4,1.4-2.5C202.2,21.5,202,20.9,201.6,20.5
			 M184.1,19.1c0-0.7,0.3-1.2,0.7-1.5c0.4-0.3,0.9-0.5,1.5-0.5c0.7,0,1.1,0.2,1.5,0.5c0.3,0.3,0.5,0.8,0.5,1.5H184.1z M191.4,19.9
			c0-1.5-0.4-2.7-1.2-3.5c-0.8-0.8-2-1.2-3.6-1.2c-1.7,0-3.1,0.5-4.1,1.4c-1,1-1.5,2.2-1.5,3.9c0,1.6,0.5,2.9,1.6,3.8
			c1.1,0.9,2.6,1.3,4.6,1.3c0.8,0,1.5-0.1,2.1-0.2s1.3-0.3,2-0.6v-2.5h-0.4c-0.4,0.3-0.9,0.5-1.5,0.8c-0.6,0.2-1.3,0.4-1.9,0.4
			c-1.1,0-1.9-0.2-2.4-0.6c-0.5-0.4-0.8-1-0.9-1.8h7.2V19.9z M179.9,15.5c-0.1,0-0.2,0-0.4,0c-0.1,0-0.3,0-0.4,0
			c-0.4,0-0.9,0.1-1.4,0.3c-0.5,0.2-1.1,0.6-1.8,1.2v-1.5h-3.2v9.9h3.2v-6.6c0.4-0.1,0.8-0.2,1.1-0.3c0.3-0.1,0.7-0.1,1.2-0.1
			c0.2,0,0.4,0,0.7,0s0.5,0.1,0.6,0.1h0.3V15.5z M165.9,23.3c-0.3,0.1-0.5,0.1-0.8,0.1c-0.3,0-0.6-0.1-0.9-0.2
			c-0.3-0.1-0.5-0.3-0.7-0.5c-0.2-0.2-0.3-0.6-0.4-1c-0.1-0.4-0.1-0.9-0.1-1.4c0-0.6,0.1-1.1,0.2-1.5c0.1-0.4,0.3-0.7,0.5-0.9
			c0.2-0.2,0.4-0.4,0.7-0.5c0.2-0.1,0.5-0.1,0.8-0.1c0.3,0,0.6,0,0.9,0.1c0.3,0.1,0.5,0.3,0.7,0.5c0.2,0.2,0.3,0.5,0.4,0.9
			c0.1,0.4,0.2,0.9,0.2,1.5c0,0.6-0.1,1.1-0.2,1.5c-0.1,0.4-0.3,0.7-0.5,0.9C166.4,23,166.1,23.2,165.9,23.3 M169,16.6
			c-0.9-0.9-2.3-1.4-4-1.4c-1.7,0-3,0.5-4,1.4c-1,0.9-1.4,2.2-1.4,3.8c0,1.6,0.5,2.9,1.4,3.8c0.9,0.9,2.3,1.4,4,1.4
			c1.7,0,3-0.5,4-1.4c0.9-0.9,1.4-2.2,1.4-3.8C170.4,18.8,170,17.5,169,16.6 M153.3,23c-0.3,0.1-0.6,0.2-0.9,0.2
			c-0.7,0-1.3-0.2-1.6-0.7c-0.3-0.4-0.5-1.1-0.5-2.1c0-0.9,0.2-1.6,0.6-2.2c0.4-0.5,1-0.8,1.9-0.8c0.2,0,0.4,0,0.7,0.1
			c0.2,0,0.5,0.1,0.7,0.2v4.8C153.9,22.8,153.7,22.9,153.3,23 M157.4,11.7h-3.2v4.2c-0.4-0.2-0.8-0.4-1.2-0.5
			c-0.4-0.1-0.9-0.2-1.5-0.2c-0.6,0-1.1,0.1-1.7,0.4c-0.6,0.2-1.1,0.6-1.4,1c-0.4,0.5-0.8,1-1,1.7c-0.2,0.6-0.4,1.4-0.4,2.2
			c0,1.6,0.4,2.8,1.1,3.7c0.7,0.9,1.7,1.4,2.9,1.4c0.6,0,1.2-0.1,1.6-0.3s1-0.5,1.5-1v1h3.2V11.7z M141.7,25.3h3.1v-6.7
			c0-1.2-0.4-2.1-1.2-2.6c-0.8-0.6-2.1-0.8-3.9-0.8c-0.8,0-1.5,0.1-2.3,0.2c-0.8,0.1-1.3,0.2-1.6,0.3v2.4h0.3
			c0.3-0.1,0.7-0.2,1.3-0.4c0.6-0.2,1.1-0.3,1.7-0.3c0.9,0,1.5,0.1,2,0.3c0.4,0.2,0.7,0.6,0.7,1.1v0.1c-0.9,0.1-1.8,0.1-2.7,0.2
			c-0.9,0.1-1.6,0.3-2.2,0.6c-0.6,0.3-1,0.6-1.4,1.1c-0.3,0.5-0.5,1-0.5,1.8c0,0.9,0.3,1.6,0.9,2.2c0.6,0.6,1.4,0.9,2.4,0.9
			c0.4,0,0.8,0,1.1-0.1c0.3-0.1,0.7-0.2,1-0.3c0.2-0.1,0.5-0.2,0.7-0.4c0.3-0.2,0.5-0.3,0.6-0.5V25.3z M140.9,23.3
			c-0.3,0.1-0.6,0.2-1,0.2c-0.4,0-0.7,0-0.9-0.1c-0.2-0.1-0.3-0.1-0.5-0.3c-0.1-0.1-0.2-0.2-0.3-0.4c0-0.1-0.1-0.3-0.1-0.5
			c0-0.3,0.1-0.6,0.3-0.7c0.2-0.2,0.4-0.3,0.7-0.4c0.3-0.1,0.6-0.2,1.1-0.2c0.5-0.1,1-0.1,1.4-0.1v2C141.5,23,141.2,23.1,140.9,23.3
			 M134,15.5c-0.1,0-0.2,0-0.4,0c-0.1,0-0.3,0-0.4,0c-0.4,0-0.9,0.1-1.4,0.3c-0.5,0.2-1.1,0.6-1.8,1.2v-1.5h-3.2v9.9h3.2v-6.6
			c0.4-0.1,0.8-0.2,1.1-0.3c0.3-0.1,0.7-0.1,1.2-0.1c0.2,0,0.4,0,0.7,0c0.3,0,0.5,0.1,0.6,0.1h0.3V15.5z M120,23.3
			c-0.3,0.1-0.5,0.1-0.8,0.1c-0.3,0-0.6-0.1-0.9-0.2c-0.3-0.1-0.5-0.3-0.7-0.5c-0.2-0.2-0.3-0.6-0.4-1c-0.1-0.4-0.2-0.9-0.2-1.4
			c0-0.6,0.1-1.1,0.2-1.5c0.1-0.4,0.3-0.7,0.5-0.9c0.2-0.2,0.4-0.4,0.7-0.5c0.2-0.1,0.5-0.1,0.8-0.1c0.3,0,0.6,0,0.9,0.1
			c0.3,0.1,0.5,0.3,0.7,0.5c0.2,0.2,0.3,0.5,0.4,0.9c0.1,0.4,0.2,0.9,0.2,1.5c0,0.6-0.1,1.1-0.2,1.5c-0.1,0.4-0.3,0.7-0.5,0.9
			C120.5,23,120.2,23.2,120,23.3 M123.1,16.6c-0.9-0.9-2.3-1.4-4-1.4c-1.7,0-3,0.5-4,1.4c-1,0.9-1.4,2.2-1.4,3.8
			c0,1.6,0.5,2.9,1.4,3.8c0.9,0.9,2.3,1.4,4,1.4s3-0.5,4-1.4c0.9-0.9,1.4-2.2,1.4-3.8C124.5,18.8,124.1,17.5,123.1,16.6 M108.3,22.5
			c-0.4,0.5-1,0.7-1.9,0.7c-0.3,0-0.5,0-0.7,0c-0.2,0-0.4-0.1-0.6-0.2v-4.9c0.3-0.2,0.6-0.3,0.9-0.4c0.3-0.1,0.6-0.1,0.9-0.1
			c0.8,0,1.3,0.2,1.6,0.7c0.3,0.5,0.4,1.1,0.4,2C108.9,21.3,108.7,22.1,108.3,22.5 M111.1,16.5c-0.7-0.9-1.6-1.3-2.9-1.3
			c-0.7,0-1.2,0.1-1.8,0.4c-0.5,0.2-1,0.6-1.5,0.9v-4.8h-3.2v13.7h3l0.1-0.5c0.4,0.2,0.8,0.4,1.2,0.5c0.4,0.1,0.9,0.2,1.4,0.2
			c1.3,0,2.4-0.5,3.2-1.5c0.9-1,1.3-2.2,1.3-3.8C112.2,18.7,111.8,17.4,111.1,16.5 M95.8,25.3h3.1v-6.7c0-1.2-0.4-2.1-1.2-2.6
			c-0.8-0.6-2.1-0.8-3.9-0.8c-0.8,0-1.5,0.1-2.3,0.2c-0.8,0.1-1.3,0.2-1.6,0.3v2.4h0.3c0.3-0.1,0.7-0.2,1.3-0.4
			c0.6-0.2,1.1-0.3,1.7-0.3c0.9,0,1.5,0.1,2,0.3c0.4,0.2,0.7,0.6,0.7,1.1v0.1c-0.9,0.1-1.8,0.1-2.7,0.2c-0.9,0.1-1.6,0.3-2.2,0.6
			c-0.6,0.3-1,0.6-1.4,1.1c-0.3,0.5-0.5,1-0.5,1.8c0,0.9,0.3,1.6,0.9,2.2c0.6,0.6,1.4,0.9,2.4,0.9c0.4,0,0.8,0,1.1-0.1
			c0.3-0.1,0.7-0.2,1-0.3c0.2-0.1,0.5-0.2,0.7-0.4c0.3-0.2,0.5-0.3,0.6-0.5V25.3z M95,23.3c-0.3,0.1-0.6,0.2-1,0.2
			c-0.4,0-0.7,0-0.9-0.1c-0.2-0.1-0.3-0.1-0.5-0.3c-0.1-0.1-0.2-0.2-0.3-0.4c0-0.1-0.1-0.3-0.1-0.5c0-0.3,0.1-0.6,0.2-0.7
			s0.4-0.3,0.7-0.4c0.3-0.1,0.6-0.2,1.1-0.2c0.5-0.1,1-0.1,1.4-0.1v2C95.6,23,95.3,23.1,95,23.3 M86.9,11.7h-3.2v13.7h3.2V11.7z
			 M76.9,23.3c-0.3,0.1-0.5,0.1-0.8,0.1c-0.3,0-0.6-0.1-0.9-0.2c-0.3-0.1-0.5-0.3-0.7-0.5c-0.2-0.2-0.3-0.6-0.4-1
			c-0.1-0.4-0.2-0.9-0.2-1.4c0-0.6,0.1-1.1,0.2-1.5c0.1-0.4,0.3-0.7,0.5-0.9c0.2-0.2,0.4-0.4,0.7-0.5c0.2-0.1,0.5-0.1,0.8-0.1
			c0.3,0,0.6,0,0.9,0.1c0.3,0.1,0.5,0.3,0.7,0.5c0.2,0.2,0.3,0.5,0.4,0.9c0.1,0.4,0.2,0.9,0.2,1.5c0,0.6-0.1,1.1-0.2,1.5
			c-0.1,0.4-0.3,0.7-0.5,0.9C77.3,23,77.1,23.2,76.9,23.3 M80,16.6c-0.9-0.9-2.3-1.4-4-1.4c-1.7,0-3,0.5-4,1.4
			c-1,0.9-1.4,2.2-1.4,3.8c0,1.6,0.5,2.9,1.4,3.8c0.9,0.9,2.3,1.4,4,1.4s3-0.5,4-1.4c0.9-0.9,1.4-2.2,1.4-3.8
			C81.4,18.8,80.9,17.5,80,16.6 M65.9,25.5c0.4-0.1,0.8-0.2,1.2-0.3c0.3-0.1,0.6-0.2,0.9-0.3c0.3-0.1,0.6-0.3,0.9-0.4v-3.1h-0.4
			c-0.2,0.1-0.4,0.3-0.6,0.5c-0.2,0.2-0.5,0.4-0.8,0.5c-0.3,0.2-0.7,0.4-1.1,0.5c-0.4,0.1-0.8,0.2-1.2,0.2c-0.4,0-0.9-0.1-1.3-0.2
			c-0.4-0.1-0.8-0.4-1.2-0.7c-0.4-0.3-0.6-0.7-0.9-1.3c-0.2-0.5-0.3-1.2-0.3-2.1c0-0.8,0.1-1.4,0.3-2c0.2-0.5,0.5-1,0.8-1.3
			c0.4-0.3,0.8-0.6,1.2-0.7c0.4-0.1,0.9-0.2,1.4-0.2c0.4,0,0.8,0.1,1.2,0.2c0.4,0.1,0.7,0.3,1,0.5c0.3,0.2,0.6,0.4,0.8,0.6
			c0.2,0.2,0.5,0.4,0.6,0.5H69v-3.2c-0.2-0.1-0.5-0.2-0.8-0.4c-0.3-0.1-0.7-0.3-1.1-0.4c-0.4-0.1-0.8-0.2-1.2-0.2
			C65.4,12,64.9,12,64.4,12c-1,0-1.9,0.2-2.8,0.5c-0.8,0.3-1.5,0.8-2.1,1.3c-0.6,0.6-1,1.3-1.4,2.2c-0.3,0.8-0.5,1.8-0.5,2.8
			c0,1.1,0.2,2.1,0.5,2.9s0.8,1.6,1.4,2.1c0.6,0.6,1.3,1,2.1,1.3c0.8,0.3,1.7,0.4,2.7,0.4C65,25.6,65.6,25.6,65.9,25.5"/>
	</g>
	<line class="st26" x1="37.6" y1="8.8" x2="37.6" y2="343.6"/>
	<g>
		<defs>
			<rect id="SVGID_11_" x="10.5" y="5.3" width="659.9" height="340.3"/>
		</defs>
		<clipPath id="SVGID_12_">
			<use xlink:href="#SVGID_11_"  style="overflow:visible;"/>
		</clipPath>
		<path class="st27" d="M37.6,345.1L37.6,345.1 M37.6,5.8L37.6,5.8"/>
	</g>
	<line class="st28" x1="449.4" y1="45.8" x2="12.5" y2="45.8"/>
	<g>
		<defs>
			<rect id="SVGID_13_" x="10.5" y="5.3" width="659.9" height="340.3"/>
		</defs>
		<clipPath id="SVGID_14_">
			<use xlink:href="#SVGID_13_"  style="overflow:visible;"/>
		</clipPath>
		<path class="st29" d="M11,45.8L11,45.8 M452.4,45.8L452.4,45.8"/>
	</g>
</g>
</svg>
