<?xml version="1.0" encoding="utf-8"?>
<!-- Generator: Adobe Illustrator 25.2.1, SVG Export Plug-In . SVG Version: 6.00 Build 0)  -->
<svg version="1.1" id="Capa_1" xmlns="http://www.w3.org/2000/svg" xmlns:xlink="http://www.w3.org/1999/xlink" x="0px" y="0px"
	 viewBox="0 0 274.2 476.5" style="enable-background:new 0 0 274.2 476.5;" xml:space="preserve">
<style type="text/css">
	.st0{fill:none;stroke:#480174;stroke-linecap:round;stroke-linejoin:round;stroke-miterlimit:10;stroke-dasharray:0,2.998;}
	.st1{fill:none;stroke:#480174;stroke-linecap:round;stroke-linejoin:round;stroke-miterlimit:10;}
	.st2{fill:none;stroke:#480174;stroke-linecap:round;stroke-linejoin:round;stroke-miterlimit:10;stroke-dasharray:0,3.019;}
	.st3{fill:none;stroke:#480174;stroke-width:21;stroke-miterlimit:10;}
	.st4{fill:#FFFFFF;}
	.st5{fill:#252525;}
	.st6{fill:#CC145A;}
	.st7{fill:#E2A31D;}
</style>
<g>
	<line class="st0" x1="43" y1="22.1" x2="43" y2="455.2"/>
	<path class="st1" d="M43,456.7L43,456.7 M43,19.1L43,19.1"/>
	<line class="st2" x1="247.5" y1="77.6" x2="22.6" y2="77.6"/>
	<path class="st1" d="M21.1,77.6L21.1,77.6 M250.6,77.6L250.6,77.6"/>
	<line class="st3" x1="65.4" y1="111.2" x2="173.2" y2="111.2"/>
	<line class="st3" x1="65.4" y1="171.2" x2="148.2" y2="171.2"/>
	<line class="st3" x1="65.4" y1="233.6" x2="158.3" y2="233.6"/>
	<line class="st3" x1="65.4" y1="291.2" x2="148.2" y2="291.2"/>
	<line class="st3" x1="65.4" y1="351.2" x2="103.3" y2="351.2"/>
	<line class="st3" x1="65.4" y1="411.2" x2="116.1" y2="411.2"/>
	<g>
		<path class="st4" d="M84,117.2h-8.7v-2.3H78V108h-2.8v-2.1c0.4,0,0.8,0,1.2-0.1s0.7-0.1,1-0.3c0.3-0.1,0.5-0.3,0.7-0.6
			s0.2-0.5,0.3-0.9h2.9v10.8H84V117.2z"/>
		<path class="st4" d="M98.9,110.7c0,1.1-0.1,2.1-0.3,3s-0.5,1.6-0.9,2.1c-0.4,0.6-1,1-1.7,1.3c-0.7,0.3-1.5,0.4-2.5,0.4
			c-1,0-1.8-0.1-2.5-0.4c-0.7-0.3-1.3-0.7-1.7-1.3c-0.4-0.6-0.7-1.3-0.9-2.1s-0.3-1.8-0.3-2.9c0-1.1,0.1-2.1,0.3-3s0.5-1.5,0.9-2.1
			c0.4-0.6,1-1,1.7-1.3c0.7-0.3,1.5-0.4,2.5-0.4c1,0,1.8,0.1,2.5,0.4c0.7,0.3,1.2,0.7,1.7,1.3c0.4,0.6,0.7,1.3,0.9,2.1
			S98.9,109.6,98.9,110.7z M95.5,110.7c0-1.6-0.2-2.7-0.5-3.4c-0.3-0.7-0.8-1-1.5-1s-1.2,0.3-1.5,1c-0.3,0.7-0.5,1.8-0.5,3.4
			c0,1.6,0.2,2.7,0.5,3.4s0.8,1,1.5,1s1.2-0.3,1.5-1S95.5,112.2,95.5,110.7z"/>
		<path class="st4" d="M112.8,112.8c0,0.7-0.1,1.3-0.4,1.9s-0.6,1.1-1.1,1.5c-0.5,0.4-1.2,0.8-1.9,1s-1.5,0.3-2.4,0.3
			c-1,0-1.9-0.1-2.7-0.3s-1.3-0.3-1.8-0.5v-2.9h0.4c0.5,0.3,1.1,0.6,1.7,0.8s1.2,0.3,1.8,0.3c0.4,0,0.8,0,1.2-0.1s0.8-0.2,1-0.5
			c0.2-0.2,0.4-0.4,0.5-0.6s0.2-0.5,0.2-0.9c0-0.3-0.1-0.6-0.2-0.8s-0.3-0.4-0.5-0.5c-0.3-0.2-0.7-0.3-1.1-0.4s-0.8-0.1-1.2-0.1
			c-0.5,0-1,0-1.5,0.1s-0.9,0.2-1.3,0.3h-0.4v-7.4h9.3v2.5h-6.1v2.1c0.2,0,0.4,0,0.7,0s0.5,0,0.7,0c0.7,0,1.4,0.1,1.9,0.2
			s1.1,0.3,1.5,0.6c0.5,0.3,0.9,0.7,1.2,1.3S112.8,112,112.8,112.8z"/>
		<path class="st4" d="M120.8,113.8l-3.2,6.7h-2l1.7-6.7H120.8z"/>
		<path class="st4" d="M133.8,111.1c0.3,0.2,0.5,0.5,0.7,0.9s0.3,0.8,0.3,1.3c0,0.6-0.1,1.2-0.4,1.7s-0.6,1-1.1,1.4
			c-0.5,0.4-1.1,0.7-1.7,0.8s-1.5,0.3-2.4,0.3c-1.1,0-2-0.1-2.8-0.3s-1.4-0.4-1.9-0.6v-2.9h0.3c0.5,0.3,1.1,0.6,1.8,0.8
			s1.3,0.3,1.9,0.3c0.3,0,0.7,0,1.1-0.1s0.7-0.2,1-0.4c0.2-0.1,0.4-0.3,0.5-0.5s0.2-0.5,0.2-0.9c0-0.4-0.1-0.7-0.3-0.9
			s-0.4-0.4-0.7-0.4c-0.3-0.1-0.6-0.1-1-0.2s-0.8,0-1.1,0h-0.7v-2.3h0.7c0.5,0,0.9,0,1.2,0s0.7-0.1,0.9-0.2c0.3-0.1,0.5-0.3,0.6-0.4
			s0.2-0.5,0.2-0.8c0-0.3-0.1-0.5-0.2-0.6s-0.3-0.3-0.5-0.4c-0.2-0.1-0.5-0.2-0.8-0.2s-0.6-0.1-0.8-0.1c-0.6,0-1.1,0.1-1.8,0.3
			s-1.3,0.5-1.9,0.8h-0.3v-2.8c0.5-0.2,1.1-0.4,2-0.6s1.7-0.3,2.5-0.3c0.8,0,1.5,0.1,2.2,0.2s1.1,0.3,1.5,0.6c0.5,0.3,0.8,0.6,1.1,1
			s0.4,0.9,0.4,1.4c0,0.7-0.2,1.4-0.7,1.9s-1,0.9-1.8,1.1v0.1c0.3,0,0.6,0.1,0.9,0.2S133.5,110.8,133.8,111.1z"/>
		<path class="st4" d="M149,112.8c0,0.7-0.1,1.3-0.4,1.9s-0.6,1.1-1.1,1.5c-0.5,0.4-1.2,0.8-1.9,1s-1.5,0.3-2.4,0.3
			c-1,0-1.9-0.1-2.7-0.3s-1.3-0.3-1.8-0.5v-2.9h0.4c0.5,0.3,1.1,0.6,1.7,0.8s1.2,0.3,1.8,0.3c0.4,0,0.8,0,1.2-0.1s0.8-0.2,1-0.5
			c0.2-0.2,0.4-0.4,0.5-0.6s0.2-0.5,0.2-0.9c0-0.3-0.1-0.6-0.2-0.8s-0.3-0.4-0.5-0.5c-0.3-0.2-0.7-0.3-1.1-0.4s-0.8-0.1-1.2-0.1
			c-0.5,0-1,0-1.5,0.1s-0.9,0.2-1.3,0.3h-0.4v-7.4h9.3v2.5h-6.1v2.1c0.2,0,0.4,0,0.7,0s0.5,0,0.7,0c0.7,0,1.4,0.1,1.9,0.2
			s1.1,0.3,1.5,0.6c0.5,0.3,0.9,0.7,1.2,1.3S149,112,149,112.8z"/>
		<path class="st4" d="M163.1,112.8c0,0.7-0.1,1.3-0.4,1.9s-0.6,1.1-1.1,1.5c-0.5,0.4-1.2,0.8-1.9,1s-1.5,0.3-2.4,0.3
			c-1,0-1.9-0.1-2.7-0.3s-1.3-0.3-1.8-0.5v-2.9h0.4c0.5,0.3,1.1,0.6,1.7,0.8s1.2,0.3,1.8,0.3c0.4,0,0.8,0,1.2-0.1s0.8-0.2,1-0.5
			c0.2-0.2,0.4-0.4,0.5-0.6s0.2-0.5,0.2-0.9c0-0.3-0.1-0.6-0.2-0.8s-0.3-0.4-0.5-0.5c-0.3-0.2-0.7-0.3-1.1-0.4s-0.8-0.1-1.2-0.1
			c-0.5,0-1,0-1.5,0.1s-0.9,0.2-1.3,0.3h-0.4v-7.4h9.3v2.5h-6.1v2.1c0.2,0,0.4,0,0.7,0s0.5,0,0.7,0c0.7,0,1.4,0.1,1.9,0.2
			s1.1,0.3,1.5,0.6c0.5,0.3,0.9,0.7,1.2,1.3S163.1,112,163.1,112.8z"/>
	</g>
	<g>
		<path class="st5" d="M69.8,137.4c-0.6,0-1.1-0.1-1.6-0.2s-0.9-0.3-1.2-0.6c-0.3-0.3-0.6-0.6-0.8-1.1s-0.3-0.9-0.3-1.5
			c0-0.6,0.1-1.1,0.3-1.6s0.5-0.8,0.9-1.1c0.4-0.3,0.8-0.5,1.2-0.6s0.9-0.2,1.4-0.2c0.4,0,0.9,0,1.2,0.1s0.7,0.2,1.1,0.4v1.8h-0.3
			c-0.1-0.1-0.2-0.2-0.3-0.2c-0.1-0.1-0.3-0.2-0.4-0.3c-0.2-0.1-0.3-0.2-0.5-0.2c-0.2-0.1-0.4-0.1-0.7-0.1c-0.6,0-1,0.2-1.3,0.5
			c-0.3,0.4-0.5,0.8-0.5,1.5c0,0.6,0.2,1.1,0.5,1.4c0.3,0.3,0.8,0.5,1.3,0.5c0.3,0,0.5,0,0.7-0.1c0.2-0.1,0.4-0.1,0.5-0.2
			c0.1-0.1,0.2-0.2,0.4-0.2c0.1-0.1,0.2-0.2,0.3-0.3h0.3v1.8c-0.3,0.2-0.7,0.3-1,0.4S70.3,137.4,69.8,137.4z"/>
		<path class="st5" d="M75.9,137.2h-2.1v-9.1h2.1V137.2z"/>
		<path class="st5" d="M80.3,129.7h-2.2v-1.6h2.2V129.7z M80.3,137.2h-2.1v-6.6h2.1V137.2z"/>
		<path class="st5" d="M89,134.3h-4.8c0,0.5,0.2,0.9,0.6,1.2s0.9,0.4,1.6,0.4c0.4,0,0.9-0.1,1.3-0.2s0.7-0.3,1-0.5h0.2v1.7
			c-0.5,0.2-0.9,0.3-1.3,0.4s-0.9,0.1-1.4,0.1c-1.3,0-2.3-0.3-3-0.9s-1.1-1.4-1.1-2.5c0-1.1,0.3-1.9,1-2.6s1.6-1,2.7-1
			c1.1,0,1.9,0.3,2.4,0.8s0.8,1.3,0.8,2.3V134.3z M87,133.1c0-0.4-0.1-0.8-0.3-1s-0.5-0.3-1-0.3c-0.4,0-0.7,0.1-1,0.3
			s-0.4,0.5-0.4,1H87z"/>
		<path class="st5" d="M97.4,137.2h-2.1v-3.3c0-0.3,0-0.5,0-0.8s-0.1-0.5-0.1-0.6c-0.1-0.1-0.2-0.2-0.3-0.3s-0.4-0.1-0.6-0.1
			c-0.2,0-0.4,0-0.6,0.1s-0.4,0.2-0.6,0.3v4.7h-2.1v-6.6h2.1v0.7c0.4-0.3,0.7-0.5,1.1-0.7s0.7-0.2,1.1-0.2c0.7,0,1.3,0.2,1.7,0.6
			c0.4,0.4,0.6,1,0.6,1.9V137.2z"/>
		<path class="st5" d="M103.9,137.2c-0.2,0.1-0.5,0.1-0.7,0.1s-0.6,0-0.9,0c-0.8,0-1.4-0.2-1.8-0.5s-0.6-0.9-0.6-1.7v-3.1h-0.9v-1.4
			h0.9v-1.9h2.1v1.9h2v1.4h-2v2.3c0,0.2,0,0.4,0,0.6c0,0.2,0,0.3,0.1,0.5c0.1,0.1,0.2,0.2,0.3,0.3c0.1,0.1,0.3,0.1,0.6,0.1
			c0.1,0,0.3,0,0.4-0.1s0.3-0.1,0.4-0.1h0.2V137.2z"/>
		<path class="st5" d="M111.9,134.3h-4.8c0,0.5,0.2,0.9,0.6,1.2s0.9,0.4,1.6,0.4c0.4,0,0.9-0.1,1.3-0.2s0.7-0.3,1-0.5h0.2v1.7
			c-0.5,0.2-0.9,0.3-1.3,0.4s-0.9,0.1-1.4,0.1c-1.3,0-2.3-0.3-3-0.9s-1.1-1.4-1.1-2.5c0-1.1,0.3-1.9,1-2.6s1.6-1,2.7-1
			c1.1,0,1.9,0.3,2.4,0.8s0.8,1.3,0.8,2.3V134.3z M109.8,133.1c0-0.4-0.1-0.8-0.3-1s-0.5-0.3-1-0.3c-0.4,0-0.7,0.1-1,0.3
			s-0.4,0.5-0.4,1H109.8z"/>
		<path class="st5" d="M119.4,135.1c0,0.7-0.3,1.2-0.9,1.6s-1.4,0.6-2.5,0.6c-0.6,0-1.1-0.1-1.6-0.2s-0.9-0.2-1.1-0.4v-1.7h0.2
			c0.1,0.1,0.2,0.2,0.4,0.2s0.3,0.2,0.6,0.3c0.2,0.1,0.5,0.2,0.7,0.2s0.6,0.1,0.9,0.1c0.4,0,0.7,0,0.9-0.1s0.3-0.2,0.3-0.4
			c0-0.2-0.1-0.3-0.2-0.3s-0.3-0.1-0.7-0.2c-0.2,0-0.4-0.1-0.6-0.1s-0.5-0.1-0.7-0.1c-0.6-0.2-1-0.4-1.3-0.7s-0.4-0.7-0.4-1.2
			c0-0.6,0.3-1.2,0.9-1.6s1.4-0.6,2.5-0.6c0.5,0,1,0,1.4,0.1s0.8,0.2,1.1,0.3v1.7h-0.2c-0.3-0.2-0.7-0.4-1.1-0.5s-0.8-0.2-1.2-0.2
			c-0.3,0-0.6,0-0.9,0.1s-0.3,0.2-0.3,0.4c0,0.2,0.1,0.3,0.2,0.4s0.4,0.2,0.7,0.2c0.2,0,0.4,0.1,0.7,0.1s0.5,0.1,0.7,0.2
			c0.6,0.1,1,0.4,1.2,0.7S119.4,134.7,119.4,135.1z"/>
	</g>
	<g>
		<path class="st4" d="M83.4,173.4c0,1-0.4,1.8-1.2,2.5s-1.9,1.1-3.3,1.2v3.2h-1.5v-3.1c-0.7,0-1.4-0.1-2.3-0.2s-1.5-0.3-2-0.6v-2.6
			h0.4c0.5,0.3,1.2,0.5,1.9,0.7s1.4,0.3,2.1,0.3v-2.4l-0.9-0.2c-0.5-0.1-1-0.3-1.5-0.4s-0.8-0.4-1.2-0.7s-0.6-0.6-0.8-1
			s-0.3-0.9-0.3-1.5c0-0.9,0.4-1.6,1.2-2.2s1.9-1,3.3-1.1v-2h1.5v2c0.5,0,1.2,0.1,1.9,0.2s1.3,0.3,1.7,0.4v2.5H82
			c-0.4-0.2-0.9-0.4-1.5-0.6s-1.1-0.3-1.8-0.3v2.2l0.7,0.1c1.3,0.3,2.3,0.6,2.9,1.2S83.4,172.5,83.4,173.4z M77.4,169.7v-2
			c-0.4,0-0.7,0.1-1,0.3s-0.5,0.4-0.5,0.7c0,0.3,0.1,0.5,0.3,0.6S76.8,169.6,77.4,169.7z M80.2,173.8c0-0.3-0.2-0.6-0.5-0.8
			s-0.6-0.3-0.9-0.3v2.2c0.4-0.1,0.7-0.2,1-0.3S80.2,174.1,80.2,173.8z"/>
		<path class="st4" d="M96,166.7l-5.9,10.5h-3.8l6.1-10.6h-6.7v-2.5H96V166.7z"/>
		<path class="st4" d="M109.1,177.2H98.8V175c0.8-0.6,1.6-1.2,2.4-1.8s1.4-1.2,1.9-1.7c0.7-0.7,1.2-1.3,1.5-1.8s0.4-1,0.4-1.5
			c0-0.6-0.2-1.1-0.6-1.4s-0.9-0.5-1.7-0.5c-0.5,0-1.1,0.1-1.7,0.3s-1.1,0.5-1.7,0.9h-0.3v-2.9c0.4-0.2,1-0.4,1.8-0.5
			s1.6-0.3,2.4-0.3c1.6,0,2.9,0.3,3.8,1s1.3,1.7,1.3,2.9c0,0.8-0.2,1.6-0.6,2.4s-1,1.5-1.9,2.3c-0.5,0.5-1.1,0.9-1.6,1.4
			s-0.9,0.7-1.2,0.9h5.9V177.2z"/>
		<path class="st4" d="M120.6,171.1c0.3,0.2,0.5,0.5,0.7,0.9s0.3,0.8,0.3,1.3c0,0.6-0.1,1.2-0.4,1.7s-0.6,1-1.1,1.4
			c-0.5,0.4-1.1,0.7-1.7,0.8s-1.5,0.3-2.4,0.3c-1.1,0-2-0.1-2.8-0.3s-1.4-0.4-1.9-0.6v-2.9h0.3c0.5,0.3,1.1,0.6,1.8,0.8
			s1.3,0.3,1.9,0.3c0.3,0,0.7,0,1.1-0.1s0.7-0.2,1-0.4c0.2-0.1,0.4-0.3,0.5-0.5s0.2-0.5,0.2-0.9c0-0.4-0.1-0.7-0.3-0.9
			s-0.4-0.4-0.7-0.4c-0.3-0.1-0.6-0.1-1-0.2s-0.8,0-1.1,0h-0.7v-2.3h0.7c0.5,0,0.9,0,1.2,0s0.7-0.1,0.9-0.2c0.3-0.1,0.5-0.3,0.6-0.4
			s0.2-0.5,0.2-0.8c0-0.3-0.1-0.5-0.2-0.6s-0.3-0.3-0.5-0.4c-0.2-0.1-0.5-0.2-0.8-0.2s-0.6-0.1-0.8-0.1c-0.6,0-1.1,0.1-1.8,0.3
			s-1.3,0.5-1.9,0.8h-0.3v-2.8c0.5-0.2,1.1-0.4,2-0.6s1.7-0.3,2.5-0.3c0.8,0,1.5,0.1,2.2,0.2s1.1,0.3,1.5,0.6c0.5,0.3,0.8,0.6,1.1,1
			s0.4,0.9,0.4,1.4c0,0.7-0.2,1.4-0.7,1.9s-1,0.9-1.8,1.1v0.1c0.3,0,0.6,0.1,0.9,0.2S120.3,170.8,120.6,171.1z"/>
		<path class="st4" d="M127.7,177.2h-3.3v-3.5h3.3V177.2z"/>
		<path class="st4" d="M140.9,166.7l-5.9,10.5h-3.8l6.1-10.6h-6.7v-2.5h10.3V166.7z"/>
	</g>
	<g>
		<path class="st5" d="M69.8,197.4c-0.6,0-1.1-0.1-1.6-0.2s-0.9-0.3-1.2-0.6c-0.3-0.3-0.6-0.6-0.8-1.1s-0.3-0.9-0.3-1.5
			c0-0.6,0.1-1.1,0.3-1.6s0.5-0.8,0.9-1.1c0.4-0.3,0.8-0.5,1.2-0.6s0.9-0.2,1.4-0.2c0.4,0,0.9,0,1.2,0.1s0.7,0.2,1.1,0.4v1.8h-0.3
			c-0.1-0.1-0.2-0.2-0.3-0.2c-0.1-0.1-0.3-0.2-0.4-0.3c-0.2-0.1-0.3-0.2-0.5-0.2c-0.2-0.1-0.4-0.1-0.7-0.1c-0.6,0-1,0.2-1.3,0.5
			c-0.3,0.4-0.5,0.8-0.5,1.5c0,0.6,0.2,1.1,0.5,1.4c0.3,0.3,0.8,0.5,1.3,0.5c0.3,0,0.5,0,0.7-0.1c0.2-0.1,0.4-0.1,0.5-0.2
			c0.1-0.1,0.2-0.2,0.4-0.2c0.1-0.1,0.2-0.2,0.3-0.3h0.3v1.8c-0.3,0.2-0.7,0.3-1,0.4S70.3,197.4,69.8,197.4z"/>
		<path class="st5" d="M77.6,196.5c-0.1,0.1-0.3,0.2-0.4,0.3s-0.3,0.2-0.5,0.3c-0.2,0.1-0.4,0.2-0.6,0.2s-0.5,0.1-0.7,0.1
			c-0.6,0-1.1-0.2-1.6-0.6s-0.6-0.9-0.6-1.5c0-0.5,0.1-0.9,0.3-1.2s0.5-0.5,0.9-0.7c0.4-0.2,0.9-0.3,1.5-0.4s1.2-0.1,1.8-0.2v0
			c0-0.4-0.1-0.6-0.4-0.8s-0.7-0.2-1.3-0.2c-0.3,0-0.7,0.1-1.1,0.2s-0.7,0.2-0.8,0.3h-0.2v-1.6c0.2-0.1,0.6-0.1,1.1-0.2
			s1-0.1,1.5-0.1c1.2,0,2.1,0.2,2.6,0.6s0.8,0.9,0.8,1.7v4.5h-2.1V196.5z M77.6,195.5v-1.4c-0.3,0-0.6,0.1-0.9,0.1
			c-0.3,0-0.6,0.1-0.8,0.1c-0.2,0.1-0.4,0.2-0.5,0.3s-0.2,0.3-0.2,0.5c0,0.1,0,0.2,0,0.3c0,0.1,0.1,0.2,0.2,0.2
			c0.1,0.1,0.2,0.1,0.3,0.2c0.1,0,0.3,0.1,0.6,0.1c0.2,0,0.4,0,0.6-0.1C77.2,195.7,77.4,195.6,77.6,195.5z"/>
		<path class="st5" d="M86.5,192.6h-0.2c-0.1,0-0.2-0.1-0.4-0.1s-0.4,0-0.5,0c-0.3,0-0.6,0-0.8,0.1s-0.5,0.1-0.7,0.2v4.4h-2.1v-6.6
			h2.1v1c0.5-0.4,0.9-0.7,1.2-0.8c0.3-0.1,0.7-0.2,0.9-0.2c0.1,0,0.2,0,0.3,0c0.1,0,0.2,0,0.2,0V192.6z"/>
		<path class="st5" d="M92,197.2c-0.2,0.1-0.5,0.1-0.7,0.1s-0.6,0-0.9,0c-0.8,0-1.4-0.2-1.8-0.5s-0.6-0.9-0.6-1.7v-3.1H87v-1.4h0.9
			v-1.9H90v1.9h2v1.4h-2v2.3c0,0.2,0,0.4,0,0.6c0,0.2,0,0.3,0.1,0.5c0.1,0.1,0.2,0.2,0.3,0.3c0.1,0.1,0.3,0.1,0.6,0.1
			c0.1,0,0.3,0,0.4-0.1s0.3-0.1,0.4-0.1H92V197.2z"/>
		<path class="st5" d="M99.9,194.3H95c0,0.5,0.2,0.9,0.6,1.2s0.9,0.4,1.6,0.4c0.4,0,0.9-0.1,1.3-0.2s0.7-0.3,1-0.5h0.2v1.7
			c-0.5,0.2-0.9,0.3-1.3,0.4s-0.9,0.1-1.4,0.1c-1.3,0-2.3-0.3-3-0.9s-1.1-1.4-1.1-2.5c0-1.1,0.3-1.9,1-2.6s1.6-1,2.7-1
			c1.1,0,1.9,0.3,2.4,0.8s0.8,1.3,0.8,2.3V194.3z M97.8,193.1c0-0.4-0.1-0.8-0.3-1s-0.5-0.3-1-0.3c-0.4,0-0.7,0.1-1,0.3
			s-0.4,0.5-0.4,1H97.8z"/>
		<path class="st5" d="M106.2,192.6H106c-0.1,0-0.2-0.1-0.4-0.1s-0.4,0-0.5,0c-0.3,0-0.6,0-0.8,0.1s-0.5,0.1-0.7,0.2v4.4h-2.1v-6.6
			h2.1v1c0.5-0.4,0.9-0.7,1.2-0.8c0.3-0.1,0.7-0.2,0.9-0.2c0.1,0,0.2,0,0.3,0c0.1,0,0.2,0,0.2,0V192.6z"/>
		<path class="st5" d="M111.5,196.5c-0.1,0.1-0.3,0.2-0.4,0.3s-0.3,0.2-0.5,0.3c-0.2,0.1-0.4,0.2-0.6,0.2s-0.5,0.1-0.7,0.1
			c-0.6,0-1.1-0.2-1.6-0.6s-0.6-0.9-0.6-1.5c0-0.5,0.1-0.9,0.3-1.2s0.5-0.5,0.9-0.7c0.4-0.2,0.9-0.3,1.5-0.4s1.2-0.1,1.8-0.2v0
			c0-0.4-0.1-0.6-0.4-0.8s-0.7-0.2-1.3-0.2c-0.3,0-0.7,0.1-1.1,0.2s-0.7,0.2-0.8,0.3h-0.2v-1.6c0.2-0.1,0.6-0.1,1.1-0.2
			s1-0.1,1.5-0.1c1.2,0,2.1,0.2,2.6,0.6s0.8,0.9,0.8,1.7v4.5h-2.1V196.5z M111.5,195.5v-1.4c-0.3,0-0.6,0.1-0.9,0.1
			c-0.3,0-0.6,0.1-0.8,0.1c-0.2,0.1-0.4,0.2-0.5,0.3s-0.2,0.3-0.2,0.5c0,0.1,0,0.2,0,0.3c0,0.1,0.1,0.2,0.2,0.2
			c0.1,0.1,0.2,0.1,0.3,0.2c0.1,0,0.3,0.1,0.6,0.1c0.2,0,0.4,0,0.6-0.1C111.2,195.7,111.4,195.6,111.5,195.5z"/>
		<path class="st5" d="M124.4,199.6h-2.2c-0.8-0.9-1.3-1.8-1.7-2.7s-0.5-1.9-0.5-3.1s0.2-2.1,0.5-3.1s0.9-1.8,1.7-2.7h2.2v0.2
			c-0.3,0.3-0.6,0.6-0.9,1s-0.6,0.8-0.8,1.3c-0.2,0.5-0.4,1-0.6,1.5s-0.2,1.2-0.2,1.8c0,0.7,0.1,1.3,0.2,1.8s0.3,1.1,0.6,1.5
			c0.2,0.5,0.5,0.9,0.8,1.3s0.6,0.7,0.9,1V199.6z"/>
		<path class="st5" d="M132.9,192.5v4.7h-2.1v-3.3c0-0.3,0-0.6,0-0.8s-0.1-0.4-0.1-0.5s-0.2-0.2-0.3-0.3s-0.3-0.1-0.6-0.1
			c-0.2,0-0.4,0-0.6,0.1s-0.4,0.2-0.5,0.3v4.7h-2.1v-6.6h2.1v0.7c0.4-0.3,0.7-0.5,1-0.7s0.7-0.2,1.1-0.2c0.4,0,0.8,0.1,1.1,0.3
			c0.3,0.2,0.6,0.5,0.8,0.9c0.4-0.4,0.8-0.6,1.2-0.8s0.8-0.3,1.2-0.3c0.7,0,1.2,0.2,1.6,0.6c0.4,0.4,0.6,1,0.6,1.8v4.3h-2.1v-3.3
			c0-0.3,0-0.6,0-0.8s-0.1-0.4-0.1-0.5c-0.1-0.1-0.2-0.2-0.3-0.3s-0.3-0.1-0.6-0.1c-0.2,0-0.3,0-0.5,0.1S133.2,192.4,132.9,192.5z"
			/>
		<path class="st5" d="M141.5,189.7h-2.2v-1.6h2.2V189.7z M141.4,197.2h-2.1v-6.6h2.1V197.2z"/>
		<path class="st5" d="M145.7,197.2h-2.1v-9.1h2.1V197.2z"/>
		<path class="st5" d="M149.9,197.2h-2.1v-9.1h2.1V197.2z"/>
		<path class="st5" d="M158.7,193.9c0,1.1-0.3,1.9-0.9,2.6s-1.5,0.9-2.7,0.9s-2-0.3-2.7-0.9s-0.9-1.5-0.9-2.6c0-1.1,0.3-1.9,1-2.6
			s1.5-0.9,2.7-0.9c1.1,0,2,0.3,2.7,0.9S158.7,192.8,158.7,193.9z M156.1,195.5c0.1-0.2,0.2-0.4,0.3-0.6s0.1-0.6,0.1-1
			c0-0.4,0-0.7-0.1-1s-0.2-0.5-0.3-0.6c-0.1-0.2-0.3-0.3-0.5-0.3s-0.4-0.1-0.6-0.1s-0.4,0-0.5,0.1s-0.3,0.2-0.5,0.3
			c-0.1,0.2-0.2,0.4-0.3,0.6s-0.1,0.6-0.1,1c0,0.4,0,0.7,0.1,0.9s0.2,0.5,0.3,0.6c0.1,0.2,0.3,0.3,0.4,0.3s0.4,0.1,0.6,0.1
			c0.2,0,0.4,0,0.5-0.1S156,195.7,156.1,195.5z"/>
		<path class="st5" d="M166.9,197.2h-2.1v-3.3c0-0.3,0-0.5,0-0.8s-0.1-0.5-0.1-0.6c-0.1-0.1-0.2-0.2-0.3-0.3s-0.4-0.1-0.6-0.1
			c-0.2,0-0.4,0-0.6,0.1s-0.4,0.2-0.6,0.3v4.7h-2.1v-6.6h2.1v0.7c0.4-0.3,0.7-0.5,1.1-0.7s0.7-0.2,1.1-0.2c0.7,0,1.3,0.2,1.7,0.6
			c0.4,0.4,0.6,1,0.6,1.9V197.2z"/>
		<path class="st5" d="M175.5,194.3h-4.8c0,0.5,0.2,0.9,0.6,1.2s0.9,0.4,1.6,0.4c0.4,0,0.9-0.1,1.3-0.2s0.7-0.3,1-0.5h0.2v1.7
			c-0.5,0.2-0.9,0.3-1.3,0.4s-0.9,0.1-1.4,0.1c-1.3,0-2.3-0.3-3-0.9s-1.1-1.4-1.1-2.5c0-1.1,0.3-1.9,1-2.6s1.6-1,2.7-1
			c1.1,0,1.9,0.3,2.4,0.8s0.8,1.3,0.8,2.3V194.3z M173.4,193.1c0-0.4-0.1-0.8-0.3-1s-0.5-0.3-1-0.3c-0.4,0-0.7,0.1-1,0.3
			s-0.4,0.5-0.4,1H173.4z"/>
		<path class="st5" d="M182.8,195.1c0,0.7-0.3,1.2-0.9,1.6s-1.4,0.6-2.5,0.6c-0.6,0-1.1-0.1-1.6-0.2s-0.9-0.2-1.1-0.4v-1.7h0.2
			c0.1,0.1,0.2,0.2,0.4,0.2s0.3,0.2,0.6,0.3c0.2,0.1,0.5,0.2,0.7,0.2s0.6,0.1,0.9,0.1c0.4,0,0.7,0,0.9-0.1s0.3-0.2,0.3-0.4
			c0-0.2-0.1-0.3-0.2-0.3s-0.3-0.1-0.7-0.2c-0.2,0-0.4-0.1-0.6-0.1s-0.5-0.1-0.7-0.1c-0.6-0.2-1-0.4-1.3-0.7s-0.4-0.7-0.4-1.2
			c0-0.6,0.3-1.2,0.9-1.6s1.4-0.6,2.5-0.6c0.5,0,1,0,1.4,0.1s0.8,0.2,1.1,0.3v1.7h-0.2c-0.3-0.2-0.7-0.4-1.1-0.5s-0.8-0.2-1.2-0.2
			c-0.3,0-0.6,0-0.9,0.1s-0.3,0.2-0.3,0.4c0,0.2,0.1,0.3,0.2,0.4s0.4,0.2,0.7,0.2c0.2,0,0.4,0.1,0.7,0.1s0.5,0.1,0.7,0.2
			c0.6,0.1,1,0.4,1.2,0.7S182.8,194.7,182.8,195.1z"/>
		<path class="st5" d="M194.9,197.2h-2.1v-0.7c-0.4,0.3-0.7,0.5-1,0.7c-0.3,0.1-0.7,0.2-1.1,0.2c-0.8,0-1.4-0.3-1.9-0.9
			S188,195,188,194c0-0.6,0.1-1.1,0.2-1.5c0.2-0.4,0.4-0.8,0.7-1.1c0.3-0.3,0.6-0.5,1-0.7s0.8-0.2,1.1-0.2c0.4,0,0.7,0,1,0.1
			s0.5,0.2,0.8,0.3v-2.8h2.1V197.2z M192.8,195.4v-3.2c-0.1-0.1-0.3-0.1-0.5-0.1c-0.2,0-0.3,0-0.5,0c-0.6,0-1,0.2-1.2,0.5
			s-0.4,0.8-0.4,1.4c0,0.6,0.1,1.1,0.3,1.4s0.6,0.4,1.1,0.4c0.2,0,0.4,0,0.6-0.1S192.6,195.5,192.8,195.4z"/>
		<path class="st5" d="M203.5,194.3h-4.8c0,0.5,0.2,0.9,0.6,1.2s0.9,0.4,1.6,0.4c0.4,0,0.9-0.1,1.3-0.2s0.7-0.3,1-0.5h0.2v1.7
			c-0.5,0.2-0.9,0.3-1.3,0.4s-0.9,0.1-1.4,0.1c-1.3,0-2.3-0.3-3-0.9s-1.1-1.4-1.1-2.5c0-1.1,0.3-1.9,1-2.6s1.6-1,2.7-1
			c1.1,0,1.9,0.3,2.4,0.8s0.8,1.3,0.8,2.3V194.3z M201.4,193.1c0-0.4-0.1-0.8-0.3-1s-0.5-0.3-1-0.3c-0.4,0-0.7,0.1-1,0.3
			s-0.4,0.5-0.4,1H201.4z"/>
		<path class="st5" d="M216.2,193.8c0,0.5-0.1,1-0.2,1.5c-0.2,0.4-0.4,0.8-0.7,1.1c-0.3,0.3-0.6,0.5-1,0.7s-0.7,0.2-1.1,0.2
			c-0.4,0-0.7,0-1-0.1c-0.3-0.1-0.5-0.2-0.8-0.3v2.7h-2.1v-9h2.1v0.7c0.3-0.3,0.7-0.5,1-0.6s0.7-0.2,1.2-0.2c0.8,0,1.5,0.3,1.9,0.9
			C216,192,216.2,192.8,216.2,193.8z M214,193.9c0-0.6-0.1-1.1-0.3-1.4c-0.2-0.3-0.6-0.4-1-0.4c-0.2,0-0.4,0-0.6,0.1
			s-0.4,0.1-0.6,0.3v3.3c0.1,0.1,0.3,0.1,0.5,0.1s0.3,0,0.5,0c0.6,0,1-0.2,1.2-0.5S214,194.5,214,193.9z"/>
		<path class="st5" d="M224.3,194.3h-4.8c0,0.5,0.2,0.9,0.6,1.2s0.9,0.4,1.6,0.4c0.4,0,0.9-0.1,1.3-0.2s0.7-0.3,1-0.5h0.2v1.7
			c-0.5,0.2-0.9,0.3-1.3,0.4s-0.9,0.1-1.4,0.1c-1.3,0-2.3-0.3-3-0.9s-1.1-1.4-1.1-2.5c0-1.1,0.3-1.9,1-2.6s1.6-1,2.7-1
			c1.1,0,1.9,0.3,2.4,0.8s0.8,1.3,0.8,2.3V194.3z M222.2,193.1c0-0.4-0.1-0.8-0.3-1s-0.5-0.3-1-0.3c-0.4,0-0.7,0.1-1,0.3
			s-0.4,0.5-0.4,1H222.2z"/>
		<path class="st5" d="M231.6,195.1c0,0.7-0.3,1.2-0.9,1.6s-1.4,0.6-2.5,0.6c-0.6,0-1.1-0.1-1.6-0.2s-0.9-0.2-1.1-0.4v-1.7h0.2
			c0.1,0.1,0.2,0.2,0.4,0.2s0.3,0.2,0.6,0.3c0.2,0.1,0.5,0.2,0.7,0.2s0.6,0.1,0.9,0.1c0.4,0,0.7,0,0.9-0.1s0.3-0.2,0.3-0.4
			c0-0.2-0.1-0.3-0.2-0.3s-0.3-0.1-0.7-0.2c-0.2,0-0.4-0.1-0.6-0.1s-0.5-0.1-0.7-0.1c-0.6-0.2-1-0.4-1.3-0.7s-0.4-0.7-0.4-1.2
			c0-0.6,0.3-1.2,0.9-1.6s1.4-0.6,2.5-0.6c0.5,0,1,0,1.4,0.1s0.8,0.2,1.1,0.3v1.7h-0.2c-0.3-0.2-0.7-0.4-1.1-0.5s-0.8-0.2-1.2-0.2
			c-0.3,0-0.6,0-0.9,0.1s-0.3,0.2-0.3,0.4c0,0.2,0.1,0.3,0.2,0.4s0.4,0.2,0.7,0.2c0.2,0,0.4,0.1,0.7,0.1s0.5,0.1,0.7,0.2
			c0.6,0.1,1,0.4,1.2,0.7S231.6,194.7,231.6,195.1z"/>
		<path class="st5" d="M239.8,193.9c0,1.1-0.3,1.9-0.9,2.6s-1.5,0.9-2.7,0.9s-2-0.3-2.7-0.9s-0.9-1.5-0.9-2.6c0-1.1,0.3-1.9,1-2.6
			s1.5-0.9,2.7-0.9c1.1,0,2,0.3,2.7,0.9S239.8,192.8,239.8,193.9z M237.2,195.5c0.1-0.2,0.2-0.4,0.3-0.6s0.1-0.6,0.1-1
			c0-0.4,0-0.7-0.1-1s-0.2-0.5-0.3-0.6c-0.1-0.2-0.3-0.3-0.5-0.3s-0.4-0.1-0.6-0.1s-0.4,0-0.5,0.1s-0.3,0.2-0.5,0.3
			c-0.1,0.2-0.2,0.4-0.3,0.6s-0.1,0.6-0.1,1c0,0.4,0,0.7,0.1,0.9s0.2,0.5,0.3,0.6c0.1,0.2,0.3,0.3,0.4,0.3s0.4,0.1,0.6,0.1
			c0.2,0,0.4,0,0.5-0.1S237.1,195.7,237.2,195.5z"/>
		<path class="st5" d="M247.2,195.1c0,0.7-0.3,1.2-0.9,1.6s-1.4,0.6-2.5,0.6c-0.6,0-1.1-0.1-1.6-0.2s-0.9-0.2-1.1-0.4v-1.7h0.2
			c0.1,0.1,0.2,0.2,0.4,0.2s0.3,0.2,0.6,0.3c0.2,0.1,0.5,0.2,0.7,0.2s0.6,0.1,0.9,0.1c0.4,0,0.7,0,0.9-0.1s0.3-0.2,0.3-0.4
			c0-0.2-0.1-0.3-0.2-0.3s-0.3-0.1-0.7-0.2c-0.2,0-0.4-0.1-0.6-0.1s-0.5-0.1-0.7-0.1c-0.6-0.2-1-0.4-1.3-0.7s-0.4-0.7-0.4-1.2
			c0-0.6,0.3-1.2,0.9-1.6s1.4-0.6,2.5-0.6c0.5,0,1,0,1.4,0.1s0.8,0.2,1.1,0.3v1.7h-0.2c-0.3-0.2-0.7-0.4-1.1-0.5s-0.8-0.2-1.2-0.2
			c-0.3,0-0.6,0-0.9,0.1s-0.3,0.2-0.3,0.4c0,0.2,0.1,0.3,0.2,0.4s0.4,0.2,0.7,0.2c0.2,0,0.4,0.1,0.7,0.1s0.5,0.1,0.7,0.2
			c0.6,0.1,1,0.4,1.2,0.7S247.2,194.7,247.2,195.1z"/>
		<path class="st5" d="M253.1,193.9c0,1.1-0.2,2.1-0.5,3.1s-0.9,1.8-1.7,2.7h-2.2v-0.2c0.3-0.3,0.6-0.6,0.9-1s0.6-0.8,0.8-1.3
			c0.2-0.5,0.4-1,0.6-1.5s0.2-1.1,0.2-1.8c0-0.6-0.1-1.2-0.2-1.8s-0.3-1.1-0.6-1.5c-0.2-0.5-0.5-0.9-0.8-1.3s-0.6-0.7-0.9-1v-0.2
			h2.2c0.8,0.9,1.3,1.8,1.7,2.7S253.1,192.8,253.1,193.9z"/>
	</g>
	<g>
		<path class="st4" d="M82.6,239.6h-8.7v-2.3h2.8v-6.9h-2.8v-2.1c0.4,0,0.8,0,1.2-0.1s0.7-0.1,1-0.3c0.3-0.1,0.5-0.3,0.7-0.6
			s0.2-0.5,0.3-0.9h2.9v10.8h2.7V239.6z"/>
		<path class="st4" d="M96.3,239.6H86v-2.2c0.8-0.6,1.6-1.2,2.4-1.8s1.4-1.2,1.9-1.7c0.7-0.7,1.2-1.3,1.5-1.8s0.4-1,0.4-1.5
			c0-0.6-0.2-1.1-0.6-1.4c-0.4-0.3-0.9-0.5-1.7-0.5c-0.5,0-1.1,0.1-1.7,0.3s-1.1,0.5-1.7,0.9h-0.3v-2.9c0.4-0.2,1-0.4,1.8-0.5
			s1.6-0.3,2.4-0.3c1.6,0,2.9,0.3,3.8,1s1.3,1.7,1.3,2.9c0,0.8-0.2,1.6-0.6,2.4s-1,1.5-1.9,2.3c-0.5,0.5-1.1,0.9-1.6,1.4
			c-0.5,0.4-0.9,0.7-1.2,0.9h5.9V239.6z"/>
		<path class="st4" d="M102.1,239.6h-3.3v-3.5h3.3V239.6z"/>
		<path class="st4" d="M115.3,235.2c0,0.7-0.1,1.3-0.4,1.9s-0.6,1.1-1.1,1.5c-0.5,0.4-1.2,0.8-1.9,1c-0.7,0.2-1.5,0.3-2.4,0.3
			c-1,0-1.9-0.1-2.7-0.3c-0.7-0.2-1.3-0.3-1.8-0.5v-2.9h0.4c0.5,0.3,1.1,0.6,1.7,0.8s1.2,0.3,1.8,0.3c0.4,0,0.8,0,1.2-0.1
			s0.8-0.2,1-0.5c0.2-0.2,0.4-0.4,0.5-0.6s0.2-0.5,0.2-0.9c0-0.3-0.1-0.6-0.2-0.8c-0.1-0.2-0.3-0.4-0.5-0.5
			c-0.3-0.2-0.7-0.3-1.1-0.4c-0.4-0.1-0.8-0.1-1.2-0.1c-0.5,0-1,0-1.5,0.1c-0.5,0.1-0.9,0.2-1.3,0.3h-0.4v-7.4h9.3v2.5h-6.1v2.1
			c0.2,0,0.4,0,0.7,0c0.3,0,0.5,0,0.7,0c0.7,0,1.4,0.1,1.9,0.2s1.1,0.3,1.5,0.6c0.5,0.3,0.9,0.7,1.2,1.3
			C115.1,233.7,115.3,234.4,115.3,235.2z"/>
		<path class="st4" d="M128.1,232.3c0,1.1-0.1,2.1-0.4,3.1s-0.7,1.7-1.3,2.4c-0.6,0.7-1.4,1.2-2.3,1.6s-2,0.5-3.2,0.5
			c-0.4,0-0.9,0-1.4-0.1s-0.8-0.1-1-0.1v-2.6h0.4c0.2,0.1,0.4,0.2,0.8,0.3s0.8,0.1,1.3,0.1c0.5,0,0.9-0.1,1.3-0.2
			c0.4-0.1,0.8-0.3,1.1-0.5c0.3-0.3,0.6-0.6,0.9-1s0.4-0.9,0.4-1.4c-0.5,0.3-1,0.5-1.4,0.7c-0.4,0.2-1,0.2-1.6,0.2
			c-0.5,0-1-0.1-1.4-0.2c-0.4-0.1-0.9-0.3-1.2-0.6c-0.5-0.3-0.9-0.8-1.2-1.4c-0.3-0.6-0.4-1.3-0.4-2.1c0-1.4,0.5-2.5,1.5-3.4
			s2.3-1.3,3.8-1.3c0.8,0,1.5,0.1,2.2,0.3s1.2,0.5,1.6,1c0.5,0.5,0.9,1.1,1.2,1.9C128,230.3,128.1,231.2,128.1,232.3z M124.7,231.8
			c0-0.7-0.1-1.3-0.2-1.8s-0.3-0.8-0.6-1.1c-0.2-0.2-0.4-0.3-0.6-0.4c-0.2-0.1-0.5-0.1-0.7-0.1c-0.2,0-0.4,0-0.7,0.1
			s-0.4,0.2-0.6,0.4c-0.2,0.2-0.3,0.4-0.4,0.7c-0.1,0.3-0.2,0.7-0.2,1.1c0,0.4,0.1,0.8,0.2,1c0.1,0.3,0.3,0.5,0.5,0.7
			c0.2,0.2,0.4,0.3,0.7,0.3s0.6,0.1,0.9,0.1c0.3,0,0.6,0,0.9-0.1c0.3-0.1,0.6-0.1,0.7-0.2c0-0.1,0-0.2,0-0.3
			C124.7,232.3,124.7,232.1,124.7,231.8z"/>
		<path class="st4" d="M138.5,230.5c0,1.5-0.3,2.5-1,3.2s-1.7,1.1-2.9,1.1c-1.3,0-2.3-0.4-3-1.1c-0.7-0.7-1-1.8-1-3.2
			c0-1.4,0.3-2.5,1-3.2s1.7-1.1,3-1.1c1.3,0,2.3,0.4,3,1.1S138.5,229.1,138.5,230.5z M135.9,230.5c0-0.9-0.1-1.6-0.3-1.9
			s-0.6-0.5-1.1-0.5s-0.8,0.2-1.1,0.5s-0.3,1-0.3,1.9c0,0.9,0.1,1.6,0.3,1.9c0.2,0.3,0.6,0.5,1.1,0.5s0.8-0.2,1.1-0.5
			C135.8,232.1,135.9,231.5,135.9,230.5z M145.3,226.5l-6.9,13.1h-2.4l6.9-13.1H145.3z M150.9,235.6c0,1.5-0.3,2.5-1,3.2
			s-1.7,1.1-2.9,1.1c-1.3,0-2.3-0.4-3-1.1c-0.7-0.7-1-1.8-1-3.2c0-1.4,0.3-2.5,1-3.2s1.7-1.1,3-1.1c1.3,0,2.3,0.4,3,1.1
			S150.9,234.2,150.9,235.6z M148.3,235.6c0-0.9-0.1-1.6-0.3-1.9s-0.6-0.5-1.1-0.5s-0.8,0.2-1.1,0.5s-0.3,1-0.3,1.9
			c0,0.9,0.1,1.6,0.3,1.9c0.2,0.3,0.6,0.5,1.1,0.5s0.8-0.2,1.1-0.5C148.2,237.2,148.3,236.6,148.3,235.6z"/>
	</g>
	<g>
		<path class="st5" d="M69.8,257.4c-0.6,0-1.1-0.1-1.6-0.2s-0.9-0.3-1.2-0.6c-0.3-0.3-0.6-0.6-0.8-1.1s-0.3-0.9-0.3-1.5
			c0-0.6,0.1-1.1,0.3-1.6s0.5-0.8,0.9-1.1c0.4-0.3,0.8-0.5,1.2-0.6s0.9-0.2,1.4-0.2c0.4,0,0.9,0,1.2,0.1s0.7,0.2,1.1,0.4v1.8h-0.3
			c-0.1-0.1-0.2-0.2-0.3-0.2c-0.1-0.1-0.3-0.2-0.4-0.3c-0.2-0.1-0.3-0.2-0.5-0.2c-0.2-0.1-0.4-0.1-0.7-0.1c-0.6,0-1,0.2-1.3,0.5
			c-0.3,0.4-0.5,0.8-0.5,1.5c0,0.6,0.2,1.1,0.5,1.4c0.3,0.3,0.8,0.5,1.3,0.5c0.3,0,0.5,0,0.7-0.1c0.2-0.1,0.4-0.1,0.5-0.2
			c0.1-0.1,0.2-0.2,0.4-0.2c0.1-0.1,0.2-0.2,0.3-0.3h0.3v1.8c-0.3,0.2-0.7,0.3-1,0.4S70.3,257.4,69.8,257.4z"/>
		<path class="st5" d="M77.7,256.5c-0.1,0.1-0.3,0.2-0.4,0.3s-0.3,0.2-0.5,0.3c-0.2,0.1-0.4,0.2-0.6,0.2s-0.5,0.1-0.7,0.1
			c-0.6,0-1.1-0.2-1.6-0.6s-0.6-0.9-0.6-1.5c0-0.5,0.1-0.9,0.3-1.2s0.5-0.5,0.9-0.7c0.4-0.2,0.9-0.3,1.5-0.4s1.2-0.1,1.8-0.2v0
			c0-0.4-0.1-0.6-0.4-0.8s-0.7-0.2-1.3-0.2c-0.3,0-0.7,0.1-1.1,0.2s-0.7,0.2-0.8,0.3h-0.2v-1.6c0.2-0.1,0.6-0.1,1.1-0.2
			s1-0.1,1.5-0.1c1.2,0,2.1,0.2,2.6,0.6s0.8,0.9,0.8,1.7v4.5h-2.1V256.5z M77.7,255.5v-1.4c-0.3,0-0.6,0.1-0.9,0.1s-0.6,0.1-0.8,0.1
			c-0.2,0.1-0.4,0.2-0.5,0.3c-0.1,0.1-0.2,0.3-0.2,0.5c0,0.1,0,0.2,0,0.3c0,0.1,0.1,0.2,0.2,0.2c0.1,0.1,0.2,0.1,0.3,0.2
			s0.3,0.1,0.6,0.1c0.2,0,0.4,0,0.6-0.1C77.4,255.7,77.6,255.6,77.7,255.5z"/>
		<path class="st5" d="M86.9,252.6h-0.2c-0.1,0-0.2-0.1-0.4-0.1s-0.4,0-0.5,0c-0.3,0-0.6,0-0.8,0.1s-0.5,0.1-0.7,0.2v4.4h-2.1v-6.6
			h2.1v1c0.5-0.4,0.9-0.7,1.2-0.8c0.3-0.1,0.7-0.2,0.9-0.2c0.1,0,0.2,0,0.3,0c0.1,0,0.2,0,0.2,0V252.6z"/>
		<path class="st5" d="M92.5,257.2c-0.2,0.1-0.5,0.1-0.7,0.1s-0.6,0-0.9,0c-0.8,0-1.4-0.2-1.8-0.5s-0.6-0.9-0.6-1.7v-3.1h-0.9v-1.4
			h0.9v-1.9h2.1v1.9h2v1.4h-2v2.3c0,0.2,0,0.4,0,0.6c0,0.2,0,0.3,0.1,0.5c0.1,0.1,0.2,0.2,0.3,0.3c0.1,0.1,0.3,0.1,0.6,0.1
			c0.1,0,0.3,0,0.4-0.1s0.3-0.1,0.4-0.1h0.2V257.2z"/>
		<path class="st5" d="M100.6,254.3h-4.8c0,0.5,0.2,0.9,0.6,1.2s0.9,0.4,1.6,0.4c0.4,0,0.9-0.1,1.3-0.2s0.7-0.3,1-0.5h0.2v1.7
			c-0.5,0.2-0.9,0.3-1.3,0.4s-0.9,0.1-1.4,0.1c-1.3,0-2.3-0.3-3-0.9c-0.7-0.6-1.1-1.4-1.1-2.5c0-1.1,0.3-1.9,1-2.6s1.6-1,2.7-1
			c1.1,0,1.9,0.3,2.4,0.8s0.8,1.3,0.8,2.3V254.3z M98.5,253.1c0-0.4-0.1-0.8-0.3-1s-0.5-0.3-1-0.3c-0.4,0-0.7,0.1-1,0.3
			s-0.4,0.5-0.4,1H98.5z"/>
		<path class="st5" d="M107.1,252.6h-0.2c-0.1,0-0.2-0.1-0.4-0.1s-0.4,0-0.5,0c-0.3,0-0.6,0-0.8,0.1s-0.5,0.1-0.7,0.2v4.4h-2.1v-6.6
			h2.1v1c0.5-0.4,0.9-0.7,1.2-0.8c0.3-0.1,0.7-0.2,0.9-0.2c0.1,0,0.2,0,0.3,0c0.1,0,0.2,0,0.2,0V252.6z"/>
		<path class="st5" d="M112.6,256.5c-0.1,0.1-0.3,0.2-0.4,0.3s-0.3,0.2-0.5,0.3c-0.2,0.1-0.4,0.2-0.6,0.2s-0.5,0.1-0.7,0.1
			c-0.6,0-1.1-0.2-1.6-0.6s-0.6-0.9-0.6-1.5c0-0.5,0.1-0.9,0.3-1.2s0.5-0.5,0.9-0.7c0.4-0.2,0.9-0.3,1.5-0.4s1.2-0.1,1.8-0.2v0
			c0-0.4-0.1-0.6-0.4-0.8s-0.7-0.2-1.3-0.2c-0.3,0-0.7,0.1-1.1,0.2s-0.7,0.2-0.8,0.3h-0.2v-1.6c0.2-0.1,0.6-0.1,1.1-0.2
			s1-0.1,1.5-0.1c1.2,0,2.1,0.2,2.6,0.6s0.8,0.9,0.8,1.7v4.5h-2.1V256.5z M112.6,255.5v-1.4c-0.3,0-0.6,0.1-0.9,0.1
			s-0.6,0.1-0.8,0.1c-0.2,0.1-0.4,0.2-0.5,0.3c-0.1,0.1-0.2,0.3-0.2,0.5c0,0.1,0,0.2,0,0.3c0,0.1,0.1,0.2,0.2,0.2
			c0.1,0.1,0.2,0.1,0.3,0.2s0.3,0.1,0.6,0.1c0.2,0,0.4,0,0.6-0.1C112.2,255.7,112.4,255.6,112.6,255.5z"/>
		<path class="st5" d="M128,250.6l-2.5,6.6H123l-2.5-6.6h2.2l1.5,4.5l1.5-4.5H128z"/>
		<path class="st5" d="M135.9,254.3h-4.8c0,0.5,0.2,0.9,0.6,1.2s0.9,0.4,1.6,0.4c0.4,0,0.9-0.1,1.3-0.2s0.7-0.3,1-0.5h0.2v1.7
			c-0.5,0.2-0.9,0.3-1.3,0.4s-0.9,0.1-1.4,0.1c-1.3,0-2.3-0.3-3-0.9c-0.7-0.6-1.1-1.4-1.1-2.5c0-1.1,0.3-1.9,1-2.6s1.6-1,2.7-1
			c1.1,0,1.9,0.3,2.4,0.8s0.8,1.3,0.8,2.3V254.3z M133.8,253.1c0-0.4-0.1-0.8-0.3-1s-0.5-0.3-1-0.3c-0.4,0-0.7,0.1-1,0.3
			s-0.4,0.5-0.4,1H133.8z"/>
		<path class="st5" d="M144.3,257.2h-2.1v-3.3c0-0.3,0-0.5,0-0.8s-0.1-0.5-0.1-0.6c-0.1-0.1-0.2-0.2-0.3-0.3s-0.4-0.1-0.6-0.1
			c-0.2,0-0.4,0-0.6,0.1s-0.4,0.2-0.6,0.3v4.7h-2.1v-6.6h2.1v0.7c0.4-0.3,0.7-0.5,1.1-0.7s0.7-0.2,1.1-0.2c0.7,0,1.3,0.2,1.7,0.6
			c0.4,0.4,0.6,1,0.6,1.9V257.2z"/>
		<path class="st5" d="M149.9,257.4c-0.6,0-1.1-0.1-1.6-0.2s-0.9-0.3-1.2-0.6c-0.3-0.3-0.6-0.6-0.8-1.1s-0.3-0.9-0.3-1.5
			c0-0.6,0.1-1.1,0.3-1.6s0.5-0.8,0.9-1.1c0.4-0.3,0.8-0.5,1.2-0.6s0.9-0.2,1.4-0.2c0.4,0,0.9,0,1.2,0.1s0.7,0.2,1.1,0.4v1.8h-0.3
			c-0.1-0.1-0.2-0.2-0.3-0.2c-0.1-0.1-0.3-0.2-0.4-0.3c-0.2-0.1-0.3-0.2-0.5-0.2c-0.2-0.1-0.4-0.1-0.7-0.1c-0.6,0-1,0.2-1.3,0.5
			c-0.3,0.4-0.5,0.8-0.5,1.5c0,0.6,0.2,1.1,0.5,1.4c0.3,0.3,0.8,0.5,1.3,0.5c0.3,0,0.5,0,0.7-0.1c0.2-0.1,0.4-0.1,0.5-0.2
			c0.1-0.1,0.2-0.2,0.4-0.2c0.1-0.1,0.2-0.2,0.3-0.3h0.3v1.8c-0.3,0.2-0.7,0.3-1,0.4S150.4,257.4,149.9,257.4z"/>
		<path class="st5" d="M156,249.7h-2.2v-1.6h2.2V249.7z M156,257.2h-2.1v-6.6h2.1V257.2z"/>
		<path class="st5" d="M164.7,257.2h-2.1v-0.7c-0.4,0.3-0.7,0.5-1,0.7c-0.3,0.1-0.7,0.2-1.1,0.2c-0.8,0-1.4-0.3-1.9-0.9
			c-0.5-0.6-0.7-1.4-0.7-2.5c0-0.6,0.1-1.1,0.2-1.5c0.2-0.4,0.4-0.8,0.7-1.1c0.3-0.3,0.6-0.5,1-0.7s0.8-0.2,1.1-0.2
			c0.4,0,0.7,0,1,0.1s0.5,0.2,0.8,0.3v-2.8h2.1V257.2z M162.6,255.4v-3.2c-0.1-0.1-0.3-0.1-0.5-0.1c-0.2,0-0.3,0-0.5,0
			c-0.6,0-1,0.2-1.2,0.5c-0.3,0.3-0.4,0.8-0.4,1.4c0,0.6,0.1,1.1,0.3,1.4c0.2,0.3,0.6,0.4,1.1,0.4c0.2,0,0.4,0,0.6-0.1
			S162.4,255.5,162.6,255.4z"/>
		<path class="st5" d="M170.9,256.5c-0.1,0.1-0.3,0.2-0.4,0.3s-0.3,0.2-0.5,0.3c-0.2,0.1-0.4,0.2-0.6,0.2s-0.5,0.1-0.7,0.1
			c-0.6,0-1.1-0.2-1.6-0.6s-0.6-0.9-0.6-1.5c0-0.5,0.1-0.9,0.3-1.2s0.5-0.5,0.9-0.7c0.4-0.2,0.9-0.3,1.5-0.4s1.2-0.1,1.8-0.2v0
			c0-0.4-0.1-0.6-0.4-0.8s-0.7-0.2-1.3-0.2c-0.3,0-0.7,0.1-1.1,0.2s-0.7,0.2-0.8,0.3H167v-1.6c0.2-0.1,0.6-0.1,1.1-0.2
			s1-0.1,1.5-0.1c1.2,0,2.1,0.2,2.6,0.6s0.8,0.9,0.8,1.7v4.5h-2.1V256.5z M170.9,255.5v-1.4c-0.3,0-0.6,0.1-0.9,0.1
			s-0.6,0.1-0.8,0.1c-0.2,0.1-0.4,0.2-0.5,0.3c-0.1,0.1-0.2,0.3-0.2,0.5c0,0.1,0,0.2,0,0.3c0,0.1,0.1,0.2,0.2,0.2
			c0.1,0.1,0.2,0.1,0.3,0.2s0.3,0.1,0.6,0.1c0.2,0,0.4,0,0.6-0.1C170.6,255.7,170.8,255.6,170.9,255.5z"/>
	</g>
	<g>
		<path class="st4" d="M83.4,293.4c0,1-0.4,1.8-1.2,2.5s-1.9,1.1-3.3,1.2v3.2h-1.5v-3.1c-0.7,0-1.4-0.1-2.3-0.2s-1.5-0.3-2-0.6v-2.6
			h0.4c0.5,0.3,1.2,0.5,1.9,0.7s1.4,0.3,2.1,0.3v-2.4l-0.9-0.2c-0.5-0.1-1-0.3-1.5-0.4s-0.8-0.4-1.2-0.7s-0.6-0.6-0.8-1
			c-0.2-0.4-0.3-0.9-0.3-1.5c0-0.9,0.4-1.6,1.2-2.2s1.9-1,3.3-1.1v-2h1.5v2c0.5,0,1.2,0.1,1.9,0.2s1.3,0.3,1.7,0.4v2.5H82
			c-0.4-0.2-0.9-0.4-1.5-0.6s-1.1-0.3-1.8-0.3v2.2l0.7,0.1c1.3,0.3,2.3,0.6,2.9,1.2S83.4,292.5,83.4,293.4z M77.4,289.7v-2
			c-0.4,0-0.7,0.1-1,0.3c-0.3,0.2-0.5,0.4-0.5,0.7c0,0.3,0.1,0.5,0.3,0.6S76.8,289.6,77.4,289.7z M80.2,293.8c0-0.3-0.2-0.6-0.5-0.8
			c-0.3-0.2-0.6-0.3-0.9-0.3v2.2c0.4-0.1,0.7-0.2,1-0.3C80,294.4,80.2,294.1,80.2,293.8z"/>
		<path class="st4" d="M96.3,292.8c0,0.7-0.1,1.3-0.4,1.9s-0.6,1.1-1,1.5c-0.5,0.4-1,0.8-1.6,1s-1.4,0.3-2.2,0.3
			c-0.8,0-1.5-0.1-2.1-0.3c-0.6-0.2-1.2-0.5-1.7-1c-0.5-0.5-0.9-1.2-1.2-2s-0.4-1.7-0.4-2.9c0-1.1,0.1-2.2,0.4-3.1s0.7-1.7,1.3-2.4
			c0.6-0.7,1.3-1.2,2.2-1.5s2-0.5,3.3-0.5c0.4,0,0.9,0,1.4,0.1s0.8,0.1,1,0.1v2.6h-0.3c-0.2-0.1-0.4-0.2-0.8-0.3
			c-0.4-0.1-0.8-0.1-1.3-0.1c-1.1,0-2,0.3-2.6,0.8s-1,1.3-1.1,2.3c0.5-0.3,0.9-0.5,1.4-0.7c0.5-0.2,1-0.2,1.6-0.2
			c0.5,0,1,0.1,1.4,0.2s0.8,0.3,1.2,0.6c0.5,0.3,0.9,0.8,1.2,1.4S96.3,291.9,96.3,292.8z M92.3,294.7c0.2-0.2,0.3-0.4,0.4-0.7
			c0.1-0.3,0.2-0.6,0.2-1.1c0-0.4-0.1-0.8-0.2-1c-0.1-0.3-0.3-0.5-0.5-0.7c-0.2-0.2-0.5-0.3-0.7-0.3c-0.3-0.1-0.6-0.1-0.9-0.1
			c-0.3,0-0.5,0-0.8,0.1s-0.5,0.1-0.8,0.2c0,0.1,0,0.2,0,0.3s0,0.3,0,0.5c0,0.7,0.1,1.3,0.2,1.8c0.1,0.5,0.3,0.8,0.6,1.1
			c0.2,0.2,0.4,0.3,0.6,0.4s0.5,0.1,0.7,0.1c0.2,0,0.4,0,0.6-0.1S92.1,294.9,92.3,294.7z"/>
		<path class="st4" d="M102.6,293.8l-3.2,6.7h-2l1.7-6.7H102.6z"/>
		<path class="st4" d="M115.6,293.6c0,1.2-0.5,2.1-1.5,2.8s-2.3,1.1-4.1,1.1c-1,0-1.8-0.1-2.5-0.3s-1.3-0.5-1.7-0.8
			c-0.4-0.3-0.8-0.8-1-1.2s-0.3-1-0.3-1.5c0-0.7,0.2-1.2,0.6-1.7s1-1,2-1.3v-0.1c-0.8-0.4-1.3-0.8-1.7-1.3s-0.5-1.2-0.5-1.9
			c0-1,0.5-1.9,1.4-2.5s2.2-1,3.8-1c1.6,0,2.9,0.3,3.8,0.9s1.4,1.4,1.4,2.4c0,0.6-0.2,1.2-0.6,1.7s-1,0.9-1.8,1.2v0.1
			c0.9,0.3,1.6,0.8,2,1.4S115.6,292.8,115.6,293.6z M112.2,293.7c0-0.4-0.1-0.7-0.3-1s-0.6-0.5-1.3-0.7c-0.2-0.1-0.5-0.2-0.8-0.3
			s-0.7-0.2-0.9-0.3c-0.3,0.2-0.5,0.5-0.7,0.8c-0.2,0.3-0.3,0.7-0.3,1.1c0,0.6,0.2,1.1,0.7,1.5c0.4,0.4,1,0.5,1.7,0.5
			c0.2,0,0.4,0,0.7-0.1c0.3-0.1,0.5-0.1,0.7-0.3c0.2-0.1,0.4-0.3,0.5-0.5S112.2,294,112.2,293.7z M112,287.5c0-0.4-0.2-0.8-0.5-1.1
			s-0.8-0.4-1.4-0.4c-0.2,0-0.4,0-0.6,0.1s-0.4,0.1-0.6,0.2c-0.2,0.1-0.3,0.2-0.4,0.4s-0.2,0.3-0.2,0.5c0,0.3,0.1,0.6,0.3,0.8
			s0.5,0.4,1,0.6c0.2,0.1,0.4,0.2,0.7,0.3s0.6,0.2,1,0.3c0.3-0.3,0.5-0.6,0.6-0.9S112,287.9,112,287.5z"/>
		<path class="st4" d="M128.1,286.7l-5.9,10.5h-3.8l6.1-10.6h-6.7v-2.5h10.3V286.7z"/>
		<path class="st4" d="M141.1,290.7c0,1.1-0.1,2.1-0.3,3s-0.5,1.6-0.9,2.1c-0.4,0.6-1,1-1.7,1.3s-1.5,0.4-2.5,0.4
			c-1,0-1.8-0.1-2.5-0.4s-1.3-0.7-1.7-1.3c-0.4-0.6-0.7-1.3-0.9-2.1s-0.3-1.8-0.3-2.9c0-1.1,0.1-2.1,0.3-3c0.2-0.8,0.5-1.5,0.9-2.1
			c0.4-0.6,1-1,1.7-1.3s1.5-0.4,2.5-0.4c1,0,1.8,0.1,2.5,0.4s1.2,0.7,1.7,1.3c0.4,0.6,0.7,1.3,0.9,2.1
			C141,288.6,141.1,289.6,141.1,290.7z M137.7,290.7c0-1.6-0.2-2.7-0.5-3.4c-0.3-0.7-0.8-1-1.5-1s-1.2,0.3-1.5,1
			c-0.3,0.7-0.5,1.8-0.5,3.4c0,1.6,0.2,2.7,0.5,3.4s0.8,1,1.5,1s1.2-0.3,1.5-1S137.7,292.2,137.7,290.7z"/>
	</g>
	<g>
		<path class="st5" d="M72.1,315.1c0,0.7-0.3,1.2-0.9,1.6s-1.4,0.6-2.5,0.6c-0.6,0-1.1-0.1-1.6-0.2s-0.9-0.2-1.1-0.4v-1.7h0.2
			c0.1,0.1,0.2,0.2,0.4,0.2s0.3,0.2,0.6,0.3c0.2,0.1,0.5,0.2,0.7,0.2s0.6,0.1,0.9,0.1c0.4,0,0.7,0,0.9-0.1s0.3-0.2,0.3-0.4
			c0-0.2-0.1-0.3-0.2-0.3s-0.3-0.1-0.7-0.2c-0.2,0-0.4-0.1-0.6-0.1s-0.5-0.1-0.7-0.1c-0.6-0.2-1-0.4-1.3-0.7s-0.4-0.7-0.4-1.2
			c0-0.6,0.3-1.2,0.9-1.6s1.4-0.6,2.5-0.6c0.5,0,1,0,1.4,0.1s0.8,0.2,1.1,0.3v1.7h-0.2c-0.3-0.2-0.7-0.4-1.1-0.5s-0.8-0.2-1.2-0.2
			c-0.3,0-0.6,0-0.9,0.1s-0.3,0.2-0.3,0.4c0,0.2,0.1,0.3,0.2,0.4s0.4,0.2,0.7,0.2c0.2,0,0.4,0.1,0.7,0.1s0.5,0.1,0.7,0.2
			c0.6,0.1,1,0.4,1.2,0.7S72.1,314.7,72.1,315.1z"/>
		<path class="st5" d="M77.8,316.5c-0.1,0.1-0.3,0.2-0.4,0.3s-0.3,0.2-0.5,0.3c-0.2,0.1-0.4,0.2-0.6,0.2s-0.5,0.1-0.7,0.1
			c-0.6,0-1.1-0.2-1.6-0.6s-0.6-0.9-0.6-1.5c0-0.5,0.1-0.9,0.3-1.2s0.5-0.5,0.9-0.7c0.4-0.2,0.9-0.3,1.5-0.4s1.2-0.1,1.8-0.2v0
			c0-0.4-0.1-0.6-0.4-0.8s-0.7-0.2-1.3-0.2c-0.3,0-0.7,0.1-1.1,0.2s-0.7,0.2-0.8,0.3h-0.2v-1.6c0.2-0.1,0.6-0.1,1.1-0.2
			s1-0.1,1.5-0.1c1.2,0,2.1,0.2,2.6,0.6s0.8,0.9,0.8,1.7v4.5h-2.1V316.5z M77.8,315.5v-1.4c-0.3,0-0.6,0.1-0.9,0.1s-0.6,0.1-0.8,0.1
			c-0.2,0.1-0.4,0.2-0.5,0.3c-0.1,0.1-0.2,0.3-0.2,0.5c0,0.1,0,0.2,0,0.3c0,0.1,0.1,0.2,0.2,0.2c0.1,0.1,0.2,0.1,0.3,0.2
			s0.3,0.1,0.6,0.1c0.2,0,0.4,0,0.6-0.1C77.5,315.7,77.6,315.6,77.8,315.5z"/>
		<path class="st5" d="M84.3,317.2h-2.1v-9.1h2.1V317.2z"/>
		<path class="st5" d="M92.9,317.2h-2.1v-0.7c-0.4,0.3-0.7,0.5-1,0.7c-0.3,0.1-0.7,0.2-1.1,0.2c-0.8,0-1.4-0.3-1.9-0.9
			s-0.7-1.4-0.7-2.5c0-0.6,0.1-1.1,0.2-1.5c0.2-0.4,0.4-0.8,0.7-1.1c0.3-0.3,0.6-0.5,1-0.7s0.8-0.2,1.1-0.2c0.4,0,0.7,0,1,0.1
			s0.5,0.2,0.8,0.3v-2.8h2.1V317.2z M90.8,315.4v-3.2c-0.1-0.1-0.3-0.1-0.5-0.1c-0.2,0-0.3,0-0.5,0c-0.6,0-1,0.2-1.2,0.5
			c-0.3,0.3-0.4,0.8-0.4,1.4c0,0.6,0.1,1.1,0.3,1.4c0.2,0.3,0.6,0.4,1.1,0.4c0.2,0,0.4,0,0.6-0.1S90.7,315.5,90.8,315.4z"/>
		<path class="st5" d="M101.9,313.9c0,1.1-0.3,1.9-0.9,2.6s-1.5,0.9-2.7,0.9s-2-0.3-2.7-0.9s-0.9-1.5-0.9-2.6c0-1.1,0.3-1.9,1-2.6
			s1.5-0.9,2.7-0.9c1.1,0,2,0.3,2.7,0.9S101.9,312.8,101.9,313.9z M99.4,315.5c0.1-0.2,0.2-0.4,0.3-0.6s0.1-0.6,0.1-1
			c0-0.4,0-0.7-0.1-1s-0.2-0.5-0.3-0.6c-0.1-0.2-0.3-0.3-0.5-0.3s-0.4-0.1-0.6-0.1s-0.4,0-0.5,0.1s-0.3,0.2-0.5,0.3
			c-0.1,0.2-0.2,0.4-0.3,0.6s-0.1,0.6-0.1,1c0,0.4,0,0.7,0.1,0.9s0.2,0.5,0.3,0.6c0.1,0.2,0.3,0.3,0.4,0.3s0.4,0.1,0.6,0.1
			c0.2,0,0.4,0,0.5-0.1S99.2,315.7,99.4,315.5z"/>
		<path class="st5" d="M115,313.8c0,0.5-0.1,1-0.2,1.5c-0.2,0.4-0.4,0.8-0.7,1.1c-0.3,0.3-0.6,0.5-1,0.7s-0.7,0.2-1.1,0.2
			c-0.4,0-0.7,0-1-0.1c-0.3-0.1-0.5-0.2-0.8-0.3v2.7h-2.1v-9h2.1v0.7c0.3-0.3,0.7-0.5,1-0.6s0.7-0.2,1.2-0.2c0.8,0,1.5,0.3,1.9,0.9
			C114.8,312,115,312.8,115,313.8z M112.8,313.9c0-0.6-0.1-1.1-0.3-1.4c-0.2-0.3-0.6-0.4-1-0.4c-0.2,0-0.4,0-0.6,0.1
			s-0.4,0.1-0.6,0.3v3.3c0.1,0.1,0.3,0.1,0.5,0.1s0.3,0,0.5,0c0.6,0,1-0.2,1.2-0.5C112.7,315,112.8,314.5,112.8,313.9z"/>
		<path class="st5" d="M121.6,312.6h-0.2c-0.1,0-0.2-0.1-0.4-0.1s-0.4,0-0.5,0c-0.3,0-0.6,0-0.8,0.1s-0.5,0.1-0.7,0.2v4.4h-2.1v-6.6
			h2.1v1c0.5-0.4,0.9-0.7,1.2-0.8c0.3-0.1,0.7-0.2,0.9-0.2c0.1,0,0.2,0,0.3,0c0.1,0,0.2,0,0.2,0V312.6z"/>
		<path class="st5" d="M129.8,313.9c0,1.1-0.3,1.9-0.9,2.6s-1.5,0.9-2.7,0.9s-2-0.3-2.7-0.9s-0.9-1.5-0.9-2.6c0-1.1,0.3-1.9,1-2.6
			s1.5-0.9,2.7-0.9c1.1,0,2,0.3,2.7,0.9S129.8,312.8,129.8,313.9z M127.2,315.5c0.1-0.2,0.2-0.4,0.3-0.6s0.1-0.6,0.1-1
			c0-0.4,0-0.7-0.1-1s-0.2-0.5-0.3-0.6c-0.1-0.2-0.3-0.3-0.5-0.3s-0.4-0.1-0.6-0.1s-0.4,0-0.5,0.1s-0.3,0.2-0.5,0.3
			c-0.1,0.2-0.2,0.4-0.3,0.6s-0.1,0.6-0.1,1c0,0.4,0,0.7,0.1,0.9s0.2,0.5,0.3,0.6c0.1,0.2,0.3,0.3,0.4,0.3s0.4,0.1,0.6,0.1
			c0.2,0,0.4,0,0.5-0.1S127.1,315.7,127.2,315.5z"/>
		<path class="st5" d="M138,312.5v4.7h-2.1v-3.3c0-0.3,0-0.6,0-0.8s-0.1-0.4-0.1-0.5s-0.2-0.2-0.3-0.3s-0.3-0.1-0.6-0.1
			c-0.2,0-0.4,0-0.6,0.1s-0.4,0.2-0.5,0.3v4.7h-2.1v-6.6h2.1v0.7c0.4-0.3,0.7-0.5,1-0.7s0.7-0.2,1.1-0.2c0.4,0,0.8,0.1,1.1,0.3
			c0.3,0.2,0.6,0.5,0.8,0.9c0.4-0.4,0.8-0.6,1.2-0.8s0.8-0.3,1.2-0.3c0.7,0,1.2,0.2,1.6,0.6c0.4,0.4,0.6,1,0.6,1.8v4.3h-2.1v-3.3
			c0-0.3,0-0.6,0-0.8s-0.1-0.4-0.1-0.5c-0.1-0.1-0.2-0.2-0.3-0.3s-0.3-0.1-0.6-0.1c-0.2,0-0.3,0-0.5,0.1S138.3,312.4,138,312.5z"/>
		<path class="st5" d="M151.1,314.3h-4.8c0,0.5,0.2,0.9,0.6,1.2s0.9,0.4,1.6,0.4c0.4,0,0.9-0.1,1.3-0.2s0.7-0.3,1-0.5h0.2v1.7
			c-0.5,0.2-0.9,0.3-1.3,0.4s-0.9,0.1-1.4,0.1c-1.3,0-2.3-0.3-3-0.9s-1.1-1.4-1.1-2.5c0-1.1,0.3-1.9,1-2.6s1.6-1,2.7-1
			c1.1,0,1.9,0.3,2.4,0.8s0.8,1.3,0.8,2.3V314.3z M149,313.1c0-0.4-0.1-0.8-0.3-1s-0.5-0.3-1-0.3c-0.4,0-0.7,0.1-1,0.3
			s-0.4,0.5-0.4,1H149z"/>
		<path class="st5" d="M159.2,317.2h-2.1v-0.7c-0.4,0.3-0.7,0.5-1,0.7c-0.3,0.1-0.7,0.2-1.1,0.2c-0.8,0-1.4-0.3-1.9-0.9
			s-0.7-1.4-0.7-2.5c0-0.6,0.1-1.1,0.2-1.5c0.2-0.4,0.4-0.8,0.7-1.1c0.3-0.3,0.6-0.5,1-0.7s0.8-0.2,1.1-0.2c0.4,0,0.7,0,1,0.1
			s0.5,0.2,0.8,0.3v-2.8h2.1V317.2z M157.1,315.4v-3.2c-0.1-0.1-0.3-0.1-0.5-0.1c-0.2,0-0.3,0-0.5,0c-0.6,0-1,0.2-1.2,0.5
			c-0.3,0.3-0.4,0.8-0.4,1.4c0,0.6,0.1,1.1,0.3,1.4c0.2,0.3,0.6,0.4,1.1,0.4c0.2,0,0.4,0,0.6-0.1S157,315.5,157.1,315.4z"/>
		<path class="st5" d="M163.7,309.7h-2.2v-1.6h2.2V309.7z M163.6,317.2h-2.1v-6.6h2.1V317.2z"/>
		<path class="st5" d="M172.7,313.9c0,1.1-0.3,1.9-0.9,2.6s-1.5,0.9-2.7,0.9s-2-0.3-2.7-0.9s-0.9-1.5-0.9-2.6c0-1.1,0.3-1.9,1-2.6
			s1.5-0.9,2.7-0.9c1.1,0,2,0.3,2.7,0.9S172.7,312.8,172.7,313.9z M170.1,315.5c0.1-0.2,0.2-0.4,0.3-0.6s0.1-0.6,0.1-1
			c0-0.4,0-0.7-0.1-1s-0.2-0.5-0.3-0.6c-0.1-0.2-0.3-0.3-0.5-0.3s-0.4-0.1-0.6-0.1s-0.4,0-0.5,0.1s-0.3,0.2-0.5,0.3
			c-0.1,0.2-0.2,0.4-0.3,0.6s-0.1,0.6-0.1,1c0,0.4,0,0.7,0.1,0.9s0.2,0.5,0.3,0.6c0.1,0.2,0.3,0.3,0.4,0.3s0.4,0.1,0.6,0.1
			c0.2,0,0.4,0,0.5-0.1S169.9,315.7,170.1,315.5z"/>
		<path class="st5" d="M185.7,313.8c0,0.5-0.1,1-0.2,1.5c-0.2,0.4-0.4,0.8-0.7,1.1c-0.3,0.3-0.6,0.5-1,0.7s-0.7,0.2-1.1,0.2
			c-0.4,0-0.7,0-1-0.1c-0.3-0.1-0.5-0.2-0.8-0.3v2.7h-2.1v-9h2.1v0.7c0.3-0.3,0.7-0.5,1-0.6s0.7-0.2,1.2-0.2c0.8,0,1.5,0.3,1.9,0.9
			C185.5,312,185.7,312.8,185.7,313.8z M183.6,313.9c0-0.6-0.1-1.1-0.3-1.4c-0.2-0.3-0.6-0.4-1-0.4c-0.2,0-0.4,0-0.6,0.1
			s-0.4,0.1-0.6,0.3v3.3c0.1,0.1,0.3,0.1,0.5,0.1s0.3,0,0.5,0c0.6,0,1-0.2,1.2-0.5C183.4,315,183.6,314.5,183.6,313.9z"/>
		<path class="st5" d="M194.3,313.9c0,1.1-0.3,1.9-0.9,2.6s-1.5,0.9-2.7,0.9s-2-0.3-2.7-0.9s-0.9-1.5-0.9-2.6c0-1.1,0.3-1.9,1-2.6
			s1.5-0.9,2.7-0.9c1.1,0,2,0.3,2.7,0.9S194.3,312.8,194.3,313.9z M191.7,315.5c0.1-0.2,0.2-0.4,0.3-0.6s0.1-0.6,0.1-1
			c0-0.4,0-0.7-0.1-1s-0.2-0.5-0.3-0.6c-0.1-0.2-0.3-0.3-0.5-0.3s-0.4-0.1-0.6-0.1s-0.4,0-0.5,0.1s-0.3,0.2-0.5,0.3
			c-0.1,0.2-0.2,0.4-0.3,0.6s-0.1,0.6-0.1,1c0,0.4,0,0.7,0.1,0.9s0.2,0.5,0.3,0.6c0.1,0.2,0.3,0.3,0.4,0.3s0.4,0.1,0.6,0.1
			c0.2,0,0.4,0,0.5-0.1S191.6,315.7,191.7,315.5z"/>
		<path class="st5" d="M200.8,312.6h-0.2c-0.1,0-0.2-0.1-0.4-0.1s-0.4,0-0.5,0c-0.3,0-0.6,0-0.8,0.1s-0.5,0.1-0.7,0.2v4.4h-2.1v-6.6
			h2.1v1c0.5-0.4,0.9-0.7,1.2-0.8c0.3-0.1,0.7-0.2,0.9-0.2c0.1,0,0.2,0,0.3,0c0.1,0,0.2,0,0.2,0V312.6z"/>
		<path class="st5" d="M210.2,317.4c-0.6,0-1.1-0.1-1.6-0.2s-0.9-0.3-1.2-0.6c-0.3-0.3-0.6-0.6-0.8-1.1s-0.3-0.9-0.3-1.5
			c0-0.6,0.1-1.1,0.3-1.6s0.5-0.8,0.9-1.1c0.4-0.3,0.8-0.5,1.2-0.6s0.9-0.2,1.4-0.2c0.4,0,0.9,0,1.2,0.1s0.7,0.2,1.1,0.4v1.8h-0.3
			c-0.1-0.1-0.2-0.2-0.3-0.2c-0.1-0.1-0.3-0.2-0.4-0.3c-0.2-0.1-0.3-0.2-0.5-0.2c-0.2-0.1-0.4-0.1-0.7-0.1c-0.6,0-1,0.2-1.3,0.5
			c-0.3,0.4-0.5,0.8-0.5,1.5c0,0.6,0.2,1.1,0.5,1.4c0.3,0.3,0.8,0.5,1.3,0.5c0.3,0,0.5,0,0.7-0.1c0.2-0.1,0.4-0.1,0.5-0.2
			c0.1-0.1,0.2-0.2,0.4-0.2c0.1-0.1,0.2-0.2,0.3-0.3h0.3v1.8c-0.3,0.2-0.7,0.3-1,0.4S210.6,317.4,210.2,317.4z"/>
		<path class="st5" d="M216.2,317.2h-2.1v-9.1h2.1V317.2z"/>
		<path class="st5" d="M220.7,309.7h-2.2v-1.6h2.2V309.7z M220.6,317.2h-2.1v-6.6h2.1V317.2z"/>
		<path class="st5" d="M229.4,314.3h-4.8c0,0.5,0.2,0.9,0.6,1.2s0.9,0.4,1.6,0.4c0.4,0,0.9-0.1,1.3-0.2s0.7-0.3,1-0.5h0.2v1.7
			c-0.5,0.2-0.9,0.3-1.3,0.4s-0.9,0.1-1.4,0.1c-1.3,0-2.3-0.3-3-0.9s-1.1-1.4-1.1-2.5c0-1.1,0.3-1.9,1-2.6s1.6-1,2.7-1
			c1.1,0,1.9,0.3,2.4,0.8s0.8,1.3,0.8,2.3V314.3z M227.3,313.1c0-0.4-0.1-0.8-0.3-1s-0.5-0.3-1-0.3c-0.4,0-0.7,0.1-1,0.3
			s-0.4,0.5-0.4,1H227.3z"/>
		<path class="st5" d="M237.7,317.2h-2.1v-3.3c0-0.3,0-0.5,0-0.8s-0.1-0.5-0.1-0.6c-0.1-0.1-0.2-0.2-0.3-0.3s-0.4-0.1-0.6-0.1
			c-0.2,0-0.4,0-0.6,0.1s-0.4,0.2-0.6,0.3v4.7h-2.1v-6.6h2.1v0.7c0.4-0.3,0.7-0.5,1.1-0.7s0.7-0.2,1.1-0.2c0.7,0,1.3,0.2,1.7,0.6
			c0.4,0.4,0.6,1,0.6,1.9V317.2z"/>
		<path class="st5" d="M244.2,317.2c-0.2,0.1-0.5,0.1-0.7,0.1s-0.6,0-0.9,0c-0.8,0-1.4-0.2-1.8-0.5s-0.6-0.9-0.6-1.7v-3.1h-0.9v-1.4
			h0.9v-1.9h2.1v1.9h2v1.4h-2v2.3c0,0.2,0,0.4,0,0.6c0,0.2,0,0.3,0.1,0.5c0.1,0.1,0.2,0.2,0.3,0.3c0.1,0.1,0.3,0.1,0.6,0.1
			c0.1,0,0.3,0,0.4-0.1s0.3-0.1,0.4-0.1h0.2V317.2z"/>
		<path class="st5" d="M252.2,314.3h-4.8c0,0.5,0.2,0.9,0.6,1.2s0.9,0.4,1.6,0.4c0.4,0,0.9-0.1,1.3-0.2s0.7-0.3,1-0.5h0.2v1.7
			c-0.5,0.2-0.9,0.3-1.3,0.4s-0.9,0.1-1.4,0.1c-1.3,0-2.3-0.3-3-0.9s-1.1-1.4-1.1-2.5c0-1.1,0.3-1.9,1-2.6s1.6-1,2.7-1
			c1.1,0,1.9,0.3,2.4,0.8s0.8,1.3,0.8,2.3V314.3z M250.1,313.1c0-0.4-0.1-0.8-0.3-1s-0.5-0.3-1-0.3c-0.4,0-0.7,0.1-1,0.3
			s-0.4,0.5-0.4,1H250.1z"/>
	</g>
	<g>
		<path class="st4" d="M83.7,354.2h-1.8v3h-3.2v-3h-6.3v-2.5l6.1-7.6h3.4v7.7h1.8V354.2z M78.6,351.8v-4.7l-3.8,4.7H78.6z"/>
		<path class="st4" d="M96.3,357.2H86V355c0.8-0.6,1.6-1.2,2.4-1.8s1.4-1.2,1.9-1.7c0.7-0.7,1.2-1.3,1.5-1.8s0.4-1,0.4-1.5
			c0-0.6-0.2-1.1-0.6-1.4c-0.4-0.3-0.9-0.5-1.7-0.5c-0.5,0-1.1,0.1-1.7,0.3s-1.1,0.5-1.7,0.9h-0.3v-2.9c0.4-0.2,1-0.4,1.8-0.5
			s1.6-0.3,2.4-0.3c1.6,0,2.9,0.3,3.8,1s1.3,1.7,1.3,2.9c0,0.8-0.2,1.6-0.6,2.4s-1,1.5-1.9,2.3c-0.5,0.5-1.1,0.9-1.6,1.4
			c-0.5,0.4-0.9,0.7-1.2,0.9h5.9V357.2z"/>
	</g>
	<path class="st5" d="M73.1,373.9c0,1.1-0.3,1.9-0.9,2.6c-0.6,0.6-1.5,0.9-2.7,0.9c-1.1,0-2-0.3-2.7-0.9c-0.6-0.6-0.9-1.5-0.9-2.6
		c0-1.1,0.3-1.9,1-2.6c0.6-0.6,1.5-0.9,2.7-0.9c1.1,0,2,0.3,2.7,0.9C72.8,372,73.1,372.8,73.1,373.9z M70.5,375.5
		c0.1-0.2,0.2-0.4,0.3-0.6c0.1-0.2,0.1-0.6,0.1-1c0-0.4,0-0.7-0.1-1c-0.1-0.3-0.2-0.5-0.3-0.6c-0.1-0.2-0.3-0.3-0.5-0.3
		c-0.2-0.1-0.4-0.1-0.6-0.1c-0.2,0-0.4,0-0.5,0.1c-0.2,0.1-0.3,0.2-0.5,0.3c-0.1,0.2-0.2,0.4-0.3,0.6c-0.1,0.3-0.1,0.6-0.1,1
		c0,0.4,0,0.7,0.1,0.9c0.1,0.3,0.2,0.5,0.3,0.6c0.1,0.2,0.3,0.3,0.4,0.3c0.2,0.1,0.4,0.1,0.6,0.1c0.2,0,0.4,0,0.5-0.1
		C70.3,375.8,70.4,375.7,70.5,375.5z M78.9,369.6c-0.1,0-0.2-0.1-0.3-0.1c-0.2,0-0.3-0.1-0.4-0.1c-0.4,0-0.6,0.1-0.8,0.2
		c-0.1,0.2-0.2,0.4-0.2,0.9v0.1h4.5v6.6h-2.1V372h-2.3v5.2h-2.1v-5.2h-0.9v-1.4h0.9v-0.2c0-0.8,0.2-1.4,0.6-1.8
		c0.4-0.4,1-0.6,1.9-0.6c0.3,0,0.6,0,0.8,0c0.2,0,0.5,0,0.6,0.1v1.5H78.9L78.9,369.6z M81.8,369.7h-2.1v-1.6h2.1V369.7z M87.4,377.4
		c-0.6,0-1.1-0.1-1.6-0.2s-0.9-0.3-1.2-0.6c-0.3-0.3-0.6-0.6-0.8-1.1c-0.2-0.4-0.3-0.9-0.3-1.5c0-0.6,0.1-1.1,0.3-1.6
		s0.5-0.8,0.9-1.1c0.4-0.3,0.8-0.5,1.2-0.6c0.5-0.1,0.9-0.2,1.4-0.2c0.4,0,0.9,0,1.2,0.1c0.4,0.1,0.7,0.2,1.1,0.4v1.8h-0.3
		c-0.1-0.1-0.2-0.2-0.3-0.2s-0.3-0.2-0.4-0.3c-0.2-0.1-0.3-0.2-0.5-0.2c-0.2-0.1-0.4-0.1-0.7-0.1c-0.6,0-1,0.2-1.3,0.5
		s-0.5,0.8-0.5,1.5c0,0.6,0.2,1.1,0.5,1.4s0.7,0.5,1.3,0.5c0.3,0,0.5,0,0.7-0.1c0.2-0.1,0.4-0.1,0.5-0.2c0.1-0.1,0.2-0.2,0.4-0.2
		c0.1-0.1,0.2-0.2,0.3-0.3h0.3v1.8c-0.3,0.2-0.7,0.3-1,0.4C88.3,377.3,87.9,377.4,87.4,377.4z M93.5,369.7h-2.2v-1.6h2.2V369.7z
		 M93.5,377.2h-2.1v-6.6h2.1V377.2z M102.4,377.2h-2.1v-3.3c0-0.3,0-0.5,0-0.8c0-0.3-0.1-0.5-0.1-0.6c-0.1-0.1-0.2-0.2-0.3-0.3
		c-0.2-0.1-0.4-0.1-0.6-0.1c-0.2,0-0.4,0-0.6,0.1c-0.2,0.1-0.4,0.2-0.6,0.3v4.7h-2.1v-6.6h2.1v0.7c0.4-0.3,0.7-0.5,1.1-0.7
		c0.3-0.2,0.7-0.2,1.1-0.2c0.7,0,1.3,0.2,1.7,0.6c0.4,0.4,0.6,1,0.6,1.9V377.2z M108.6,376.5c-0.1,0.1-0.3,0.2-0.4,0.3
		c-0.2,0.1-0.3,0.2-0.5,0.3c-0.2,0.1-0.4,0.2-0.6,0.2c-0.2,0-0.5,0.1-0.7,0.1c-0.6,0-1.1-0.2-1.6-0.6s-0.6-0.9-0.6-1.5
		c0-0.5,0.1-0.9,0.3-1.2c0.2-0.3,0.5-0.5,0.9-0.7c0.4-0.2,0.9-0.3,1.5-0.4c0.6-0.1,1.2-0.1,1.8-0.2v0c0-0.4-0.1-0.6-0.4-0.8
		c-0.3-0.1-0.7-0.2-1.3-0.2c-0.3,0-0.7,0.1-1.1,0.2c-0.4,0.1-0.7,0.2-0.8,0.3h-0.2v-1.6c0.2-0.1,0.6-0.1,1.1-0.2
		c0.5-0.1,1-0.1,1.5-0.1c1.2,0,2.1,0.2,2.6,0.6s0.8,0.9,0.8,1.7v4.5h-2.1V376.5z M108.6,375.5v-1.4c-0.3,0-0.6,0.1-0.9,0.1
		c-0.3,0-0.6,0.1-0.8,0.1c-0.2,0.1-0.4,0.2-0.5,0.3s-0.2,0.3-0.2,0.5c0,0.1,0,0.2,0,0.3s0.1,0.2,0.2,0.2c0.1,0.1,0.2,0.1,0.3,0.2
		c0.1,0,0.3,0.1,0.6,0.1c0.2,0,0.4,0,0.6-0.1S108.4,375.6,108.6,375.5z M118.6,375.1c0,0.7-0.3,1.2-0.9,1.6s-1.4,0.6-2.5,0.6
		c-0.6,0-1.1-0.1-1.6-0.2c-0.5-0.1-0.9-0.2-1.1-0.4v-1.7h0.2c0.1,0.1,0.2,0.2,0.4,0.2c0.1,0.1,0.3,0.2,0.6,0.3
		c0.2,0.1,0.5,0.2,0.7,0.2c0.3,0.1,0.6,0.1,0.9,0.1c0.4,0,0.7,0,0.9-0.1c0.2-0.1,0.3-0.2,0.3-0.4c0-0.2-0.1-0.3-0.2-0.3
		c-0.1-0.1-0.3-0.1-0.7-0.2c-0.2,0-0.4-0.1-0.6-0.1c-0.3,0-0.5-0.1-0.7-0.1c-0.6-0.2-1-0.4-1.3-0.7c-0.3-0.3-0.4-0.7-0.4-1.2
		c0-0.6,0.3-1.2,0.9-1.6c0.6-0.4,1.4-0.6,2.5-0.6c0.5,0,1,0,1.4,0.1s0.8,0.2,1.1,0.3v1.7h-0.2c-0.3-0.2-0.7-0.4-1.1-0.5
		c-0.4-0.1-0.8-0.2-1.2-0.2c-0.3,0-0.6,0-0.9,0.1c-0.2,0.1-0.3,0.2-0.3,0.4c0,0.2,0.1,0.3,0.2,0.4s0.4,0.2,0.7,0.2
		c0.2,0,0.4,0.1,0.7,0.1c0.2,0,0.5,0.1,0.7,0.2c0.6,0.1,1,0.4,1.2,0.7C118.5,374.3,118.6,374.7,118.6,375.1z M131.1,377.2H129v-0.7
		c-0.4,0.3-0.7,0.5-1,0.7c-0.3,0.1-0.7,0.2-1.1,0.2c-0.8,0-1.4-0.3-1.9-0.9c-0.5-0.6-0.7-1.4-0.7-2.5c0-0.6,0.1-1.1,0.2-1.5
		c0.2-0.4,0.4-0.8,0.7-1.1c0.3-0.3,0.6-0.5,1-0.7c0.4-0.2,0.8-0.2,1.1-0.2c0.4,0,0.7,0,1,0.1c0.3,0.1,0.5,0.2,0.8,0.3v-2.8h2.1
		V377.2z M129,375.4v-3.2c-0.1-0.1-0.3-0.1-0.5-0.1s-0.3,0-0.5,0c-0.6,0-1,0.2-1.2,0.5s-0.4,0.8-0.4,1.4c0,0.6,0.1,1.1,0.3,1.4
		s0.6,0.4,1.1,0.4c0.2,0,0.4,0,0.6-0.1C128.7,375.6,128.8,375.5,129,375.4z M139.9,374.3h-4.8c0,0.5,0.2,0.9,0.6,1.2
		c0.4,0.3,0.9,0.4,1.6,0.4c0.4,0,0.9-0.1,1.3-0.2c0.4-0.2,0.7-0.3,1-0.5h0.2v1.7c-0.5,0.2-0.9,0.3-1.3,0.4s-0.9,0.1-1.4,0.1
		c-1.3,0-2.3-0.3-3-0.9c-0.7-0.6-1.1-1.4-1.1-2.5c0-1.1,0.3-1.9,1-2.6c0.7-0.6,1.6-1,2.7-1c1.1,0,1.9,0.3,2.4,0.8
		c0.5,0.5,0.8,1.3,0.8,2.3V374.3z M137.8,373.1c0-0.4-0.1-0.8-0.3-1c-0.2-0.2-0.5-0.3-1-0.3c-0.4,0-0.7,0.1-1,0.3
		c-0.3,0.2-0.4,0.5-0.4,1H137.8z M151.8,375.1c0,0.7-0.3,1.2-0.9,1.6s-1.4,0.6-2.5,0.6c-0.6,0-1.1-0.1-1.6-0.2
		c-0.5-0.1-0.9-0.2-1.1-0.4v-1.7h0.2c0.1,0.1,0.2,0.2,0.4,0.2c0.1,0.1,0.3,0.2,0.6,0.3c0.2,0.1,0.5,0.2,0.7,0.2
		c0.3,0.1,0.6,0.1,0.9,0.1c0.4,0,0.7,0,0.9-0.1c0.2-0.1,0.3-0.2,0.3-0.4c0-0.2-0.1-0.3-0.2-0.3c-0.1-0.1-0.3-0.1-0.7-0.2
		c-0.2,0-0.4-0.1-0.6-0.1c-0.3,0-0.5-0.1-0.7-0.1c-0.6-0.2-1-0.4-1.3-0.7c-0.3-0.3-0.4-0.7-0.4-1.2c0-0.6,0.3-1.2,0.9-1.6
		c0.6-0.4,1.4-0.6,2.5-0.6c0.5,0,1,0,1.4,0.1s0.8,0.2,1.1,0.3v1.7h-0.2c-0.3-0.2-0.7-0.4-1.1-0.5c-0.4-0.1-0.8-0.2-1.2-0.2
		c-0.3,0-0.6,0-0.9,0.1c-0.2,0.1-0.3,0.2-0.3,0.4c0,0.2,0.1,0.3,0.2,0.4s0.4,0.2,0.7,0.2c0.2,0,0.4,0.1,0.7,0.1
		c0.2,0,0.5,0.1,0.7,0.2c0.6,0.1,1,0.4,1.2,0.7C151.7,374.3,151.8,374.7,151.8,375.1z M160,374.3h-4.8c0,0.5,0.2,0.9,0.6,1.2
		c0.4,0.3,0.9,0.4,1.6,0.4c0.4,0,0.9-0.1,1.3-0.2c0.4-0.2,0.7-0.3,1-0.5h0.2v1.7c-0.5,0.2-0.9,0.3-1.3,0.4s-0.9,0.1-1.4,0.1
		c-1.3,0-2.3-0.3-3-0.9c-0.7-0.6-1.1-1.4-1.1-2.5c0-1.1,0.3-1.9,1-2.6c0.7-0.6,1.6-1,2.7-1c1.1,0,1.9,0.3,2.4,0.8
		c0.5,0.5,0.8,1.3,0.8,2.3V374.3z M157.9,373.1c0-0.4-0.1-0.8-0.3-1c-0.2-0.2-0.5-0.3-1-0.3c-0.4,0-0.7,0.1-1,0.3
		c-0.3,0.2-0.4,0.5-0.4,1H157.9z M166.5,372.6h-0.2c-0.1,0-0.2-0.1-0.4-0.1c-0.2,0-0.4,0-0.5,0c-0.3,0-0.6,0-0.8,0.1
		c-0.2,0-0.5,0.1-0.7,0.2v4.4h-2.1v-6.6h2.1v1c0.5-0.4,0.9-0.7,1.2-0.8c0.3-0.1,0.7-0.2,0.9-0.2c0.1,0,0.2,0,0.3,0
		c0.1,0,0.2,0,0.2,0V372.6z M174.7,370.6l-2.5,6.6h-2.4l-2.5-6.6h2.2l1.5,4.5l1.5-4.5H174.7z M178.3,369.7h-2.2v-1.6h2.2V369.7z
		 M178.3,377.2h-2.1v-6.6h2.1V377.2z M184,377.4c-0.6,0-1.1-0.1-1.6-0.2s-0.9-0.3-1.2-0.6c-0.3-0.3-0.6-0.6-0.8-1.1
		c-0.2-0.4-0.3-0.9-0.3-1.5c0-0.6,0.1-1.1,0.3-1.6s0.5-0.8,0.9-1.1c0.4-0.3,0.8-0.5,1.2-0.6c0.5-0.1,0.9-0.2,1.4-0.2
		c0.4,0,0.9,0,1.2,0.1c0.4,0.1,0.7,0.2,1.1,0.4v1.8h-0.3c-0.1-0.1-0.2-0.2-0.3-0.2s-0.3-0.2-0.4-0.3c-0.2-0.1-0.3-0.2-0.5-0.2
		c-0.2-0.1-0.4-0.1-0.7-0.1c-0.6,0-1,0.2-1.3,0.5s-0.5,0.8-0.5,1.5c0,0.6,0.2,1.1,0.5,1.4s0.7,0.5,1.3,0.5c0.3,0,0.5,0,0.7-0.1
		c0.2-0.1,0.4-0.1,0.5-0.2c0.1-0.1,0.2-0.2,0.4-0.2c0.1-0.1,0.2-0.2,0.3-0.3h0.3v1.8c-0.3,0.2-0.7,0.3-1,0.4
		C184.8,377.3,184.4,377.4,184,377.4z M190.1,369.7h-2.2v-1.6h2.2V369.7z M190,377.2h-2.1v-6.6h2.1V377.2z M199,373.9
		c0,1.1-0.3,1.9-0.9,2.6c-0.6,0.6-1.5,0.9-2.7,0.9c-1.1,0-2-0.3-2.7-0.9c-0.6-0.6-0.9-1.5-0.9-2.6c0-1.1,0.3-1.9,1-2.6
		c0.6-0.6,1.5-0.9,2.7-0.9c1.1,0,2,0.3,2.7,0.9C198.7,372,199,372.8,199,373.9z M196.4,375.5c0.1-0.2,0.2-0.4,0.3-0.6
		c0.1-0.2,0.1-0.6,0.1-1c0-0.4,0-0.7-0.1-1c-0.1-0.3-0.2-0.5-0.3-0.6c-0.1-0.2-0.3-0.3-0.5-0.3c-0.2-0.1-0.4-0.1-0.6-0.1
		c-0.2,0-0.4,0-0.5,0.1c-0.2,0.1-0.3,0.2-0.5,0.3c-0.1,0.2-0.2,0.4-0.3,0.6c-0.1,0.3-0.1,0.6-0.1,1c0,0.4,0,0.7,0.1,0.9
		c0.1,0.3,0.2,0.5,0.3,0.6c0.1,0.2,0.3,0.3,0.4,0.3c0.2,0.1,0.4,0.1,0.6,0.1c0.2,0,0.4,0,0.5-0.1
		C196.2,375.8,196.3,375.7,196.4,375.5z M206.6,375.1c0,0.7-0.3,1.2-0.9,1.6s-1.4,0.6-2.5,0.6c-0.6,0-1.1-0.1-1.6-0.2
		c-0.5-0.1-0.9-0.2-1.1-0.4v-1.7h0.2c0.1,0.1,0.2,0.2,0.4,0.2c0.1,0.1,0.3,0.2,0.6,0.3c0.2,0.1,0.5,0.2,0.7,0.2
		c0.3,0.1,0.6,0.1,0.9,0.1c0.4,0,0.7,0,0.9-0.1c0.2-0.1,0.3-0.2,0.3-0.4c0-0.2-0.1-0.3-0.2-0.3c-0.1-0.1-0.3-0.1-0.7-0.2
		c-0.2,0-0.4-0.1-0.6-0.1c-0.3,0-0.5-0.1-0.7-0.1c-0.6-0.2-1-0.4-1.3-0.7c-0.3-0.3-0.4-0.7-0.4-1.2c0-0.6,0.3-1.2,0.9-1.6
		c0.6-0.4,1.4-0.6,2.5-0.6c0.5,0,1,0,1.4,0.1s0.8,0.2,1.1,0.3v1.7h-0.2c-0.3-0.2-0.7-0.4-1.1-0.5c-0.4-0.1-0.8-0.2-1.2-0.2
		c-0.3,0-0.6,0-0.9,0.1c-0.2,0.1-0.3,0.2-0.3,0.4c0,0.2,0.1,0.3,0.2,0.4s0.4,0.2,0.7,0.2c0.2,0,0.4,0.1,0.7,0.1
		c0.2,0,0.5,0.1,0.7,0.2c0.6,0.1,1,0.4,1.2,0.7C206.4,374.3,206.6,374.7,206.6,375.1z"/>
	<g>
		<path class="st4" d="M83.5,413.6c0,1.2-0.5,2.1-1.5,2.8s-2.3,1.1-4.1,1.1c-1,0-1.8-0.1-2.5-0.3s-1.3-0.5-1.7-0.8
			c-0.4-0.3-0.8-0.8-1-1.2s-0.3-1-0.3-1.5c0-0.7,0.2-1.2,0.6-1.7s1-1,2-1.3v-0.1c-0.8-0.4-1.3-0.8-1.7-1.3s-0.5-1.2-0.5-1.9
			c0-1,0.5-1.9,1.4-2.5s2.2-1,3.8-1c1.6,0,2.9,0.3,3.8,0.9s1.4,1.4,1.4,2.4c0,0.6-0.2,1.2-0.6,1.7s-1,0.9-1.8,1.2v0.1
			c0.9,0.3,1.6,0.8,2,1.4S83.5,412.8,83.5,413.6z M80.1,413.7c0-0.4-0.1-0.7-0.3-1s-0.6-0.5-1.3-0.7c-0.2-0.1-0.5-0.2-0.8-0.3
			s-0.7-0.2-0.9-0.3c-0.3,0.2-0.5,0.5-0.7,0.8c-0.2,0.3-0.3,0.7-0.3,1.1c0,0.6,0.2,1.1,0.7,1.5c0.4,0.4,1,0.5,1.7,0.5
			c0.2,0,0.4,0,0.7-0.1c0.3-0.1,0.5-0.1,0.7-0.3c0.2-0.1,0.4-0.3,0.5-0.5S80.1,414,80.1,413.7z M79.9,407.5c0-0.4-0.2-0.8-0.5-1.1
			S78.6,406,78,406c-0.2,0-0.4,0-0.6,0.1s-0.4,0.1-0.6,0.2c-0.2,0.1-0.3,0.2-0.4,0.4s-0.2,0.3-0.2,0.5c0,0.3,0.1,0.6,0.3,0.8
			s0.5,0.4,1,0.6c0.2,0.1,0.4,0.2,0.7,0.3s0.6,0.2,1,0.3c0.3-0.3,0.5-0.6,0.6-0.9S79.9,407.9,79.9,407.5z"/>
		<path class="st4" d="M95,411.1c0.3,0.2,0.5,0.5,0.7,0.9s0.3,0.8,0.3,1.3c0,0.6-0.1,1.2-0.4,1.7s-0.6,1-1.1,1.4
			c-0.5,0.4-1.1,0.7-1.7,0.8c-0.7,0.2-1.5,0.3-2.4,0.3c-1.1,0-2-0.1-2.8-0.3s-1.4-0.4-1.9-0.6v-2.9h0.3c0.5,0.3,1.1,0.6,1.8,0.8
			s1.3,0.3,1.9,0.3c0.3,0,0.7,0,1.1-0.1c0.4-0.1,0.7-0.2,1-0.4c0.2-0.1,0.4-0.3,0.5-0.5c0.1-0.2,0.2-0.5,0.2-0.9
			c0-0.4-0.1-0.7-0.3-0.9s-0.4-0.4-0.7-0.4c-0.3-0.1-0.6-0.1-1-0.2c-0.4,0-0.8,0-1.1,0h-0.7v-2.3h0.7c0.5,0,0.9,0,1.2,0
			s0.7-0.1,0.9-0.2c0.3-0.1,0.5-0.3,0.6-0.4c0.1-0.2,0.2-0.5,0.2-0.8c0-0.3-0.1-0.5-0.2-0.6c-0.1-0.2-0.3-0.3-0.5-0.4
			c-0.2-0.1-0.5-0.2-0.8-0.2s-0.6-0.1-0.8-0.1c-0.6,0-1.1,0.1-1.8,0.3s-1.3,0.5-1.9,0.8H86v-2.8c0.5-0.2,1.1-0.4,2-0.6
			c0.8-0.2,1.7-0.3,2.5-0.3c0.8,0,1.5,0.1,2.2,0.2c0.6,0.1,1.1,0.3,1.5,0.6c0.5,0.3,0.8,0.6,1.1,1s0.4,0.9,0.4,1.4
			c0,0.7-0.2,1.4-0.7,1.9c-0.5,0.6-1,0.9-1.8,1.1v0.1c0.3,0,0.6,0.1,0.9,0.2S94.7,410.8,95,411.1z"/>
		<path class="st4" d="M107.8,411.1c0.3,0.2,0.5,0.5,0.7,0.9s0.3,0.8,0.3,1.3c0,0.6-0.1,1.2-0.4,1.7s-0.6,1-1.1,1.4
			c-0.5,0.4-1.1,0.7-1.7,0.8c-0.7,0.2-1.5,0.3-2.4,0.3c-1.1,0-2-0.1-2.8-0.3s-1.4-0.4-1.9-0.6v-2.9h0.3c0.5,0.3,1.1,0.6,1.8,0.8
			s1.3,0.3,1.9,0.3c0.3,0,0.7,0,1.1-0.1c0.4-0.1,0.7-0.2,1-0.4c0.2-0.1,0.4-0.3,0.5-0.5c0.1-0.2,0.2-0.5,0.2-0.9
			c0-0.4-0.1-0.7-0.3-0.9s-0.4-0.4-0.7-0.4c-0.3-0.1-0.6-0.1-1-0.2c-0.4,0-0.8,0-1.1,0h-0.7v-2.3h0.7c0.5,0,0.9,0,1.2,0
			s0.7-0.1,0.9-0.2c0.3-0.1,0.5-0.3,0.6-0.4c0.1-0.2,0.2-0.5,0.2-0.8c0-0.3-0.1-0.5-0.2-0.6c-0.1-0.2-0.3-0.3-0.5-0.4
			c-0.2-0.1-0.5-0.2-0.8-0.2s-0.6-0.1-0.8-0.1c-0.6,0-1.1,0.1-1.8,0.3s-1.3,0.5-1.9,0.8h-0.3v-2.8c0.5-0.2,1.1-0.4,2-0.6
			c0.8-0.2,1.7-0.3,2.5-0.3c0.8,0,1.5,0.1,2.2,0.2c0.6,0.1,1.1,0.3,1.5,0.6c0.5,0.3,0.8,0.6,1.1,1s0.4,0.9,0.4,1.4
			c0,0.7-0.2,1.4-0.7,1.9c-0.5,0.6-1,0.9-1.8,1.1v0.1c0.3,0,0.6,0.1,0.9,0.2S107.5,410.8,107.8,411.1z"/>
	</g>
	<g>
		<path class="st5" d="M69.8,437.4c-0.6,0-1.1-0.1-1.6-0.2s-0.9-0.3-1.2-0.6c-0.3-0.3-0.6-0.6-0.8-1.1s-0.3-0.9-0.3-1.5
			c0-0.6,0.1-1.1,0.3-1.6s0.5-0.8,0.9-1.1c0.4-0.3,0.8-0.5,1.2-0.6s0.9-0.2,1.4-0.2c0.4,0,0.9,0,1.2,0.1s0.7,0.2,1.1,0.4v1.8h-0.3
			c-0.1-0.1-0.2-0.2-0.3-0.2c-0.1-0.1-0.3-0.2-0.4-0.3c-0.2-0.1-0.3-0.2-0.5-0.2c-0.2-0.1-0.4-0.1-0.7-0.1c-0.6,0-1,0.2-1.3,0.5
			c-0.3,0.4-0.5,0.8-0.5,1.5c0,0.6,0.2,1.1,0.5,1.4c0.3,0.3,0.8,0.5,1.3,0.5c0.3,0,0.5,0,0.7-0.1c0.2-0.1,0.4-0.1,0.5-0.2
			c0.1-0.1,0.2-0.2,0.4-0.2c0.1-0.1,0.2-0.2,0.3-0.3h0.3v1.8c-0.3,0.2-0.7,0.3-1,0.4S70.3,437.4,69.8,437.4z"/>
		<path class="st5" d="M80.5,433.9c0,1.1-0.3,1.9-0.9,2.6s-1.5,0.9-2.7,0.9s-2-0.3-2.7-0.9s-0.9-1.5-0.9-2.6c0-1.1,0.3-1.9,1-2.6
			s1.5-0.9,2.7-0.9c1.1,0,2,0.3,2.7,0.9S80.5,432.8,80.5,433.9z M77.9,435.5c0.1-0.2,0.2-0.4,0.3-0.6s0.1-0.6,0.1-1
			c0-0.4,0-0.7-0.1-1s-0.2-0.5-0.3-0.6c-0.1-0.2-0.3-0.3-0.5-0.3s-0.4-0.1-0.6-0.1s-0.4,0-0.5,0.1s-0.3,0.2-0.5,0.3
			c-0.1,0.2-0.2,0.4-0.3,0.6s-0.1,0.6-0.1,1c0,0.4,0,0.7,0.1,0.9s0.2,0.5,0.3,0.6c0.1,0.2,0.3,0.3,0.4,0.3s0.4,0.1,0.6,0.1
			c0.2,0,0.4,0,0.5-0.1S77.8,435.7,77.9,435.5z"/>
		<path class="st5" d="M84.4,437.2h-2.1v-9.1h2.1V437.2z"/>
		<path class="st5" d="M90.7,436.5c-0.1,0.1-0.3,0.2-0.4,0.3s-0.3,0.2-0.5,0.3c-0.2,0.1-0.4,0.2-0.6,0.2s-0.5,0.1-0.7,0.1
			c-0.6,0-1.1-0.2-1.6-0.6s-0.6-0.9-0.6-1.5c0-0.5,0.1-0.9,0.3-1.2s0.5-0.5,0.9-0.7c0.4-0.2,0.9-0.3,1.5-0.4s1.2-0.1,1.8-0.2v0
			c0-0.4-0.1-0.6-0.4-0.8s-0.7-0.2-1.3-0.2c-0.3,0-0.7,0.1-1.1,0.2s-0.7,0.2-0.8,0.3h-0.2v-1.6c0.2-0.1,0.6-0.1,1.1-0.2
			s1-0.1,1.5-0.1c1.2,0,2.1,0.2,2.6,0.6s0.8,0.9,0.8,1.7v4.5h-2.1V436.5z M90.7,435.5v-1.4c-0.3,0-0.6,0.1-0.9,0.1s-0.6,0.1-0.8,0.1
			c-0.2,0.1-0.4,0.2-0.5,0.3c-0.1,0.1-0.2,0.3-0.2,0.5c0,0.1,0,0.2,0,0.3c0,0.1,0.1,0.2,0.2,0.2c0.1,0.1,0.2,0.1,0.3,0.2
			s0.3,0.1,0.6,0.1c0.2,0,0.4,0,0.6-0.1C90.3,435.7,90.5,435.6,90.7,435.5z"/>
		<path class="st5" d="M101.9,433.8c0,1-0.3,1.9-0.9,2.5c-0.6,0.7-1.3,1-2.1,1c-0.4,0-0.7,0-1-0.1s-0.5-0.2-0.8-0.3l-0.1,0.3h-2
			v-9.1h2.1v3.2c0.3-0.3,0.7-0.5,1-0.6s0.7-0.2,1.2-0.2c0.8,0,1.5,0.3,1.9,0.9C101.7,431.9,101.9,432.8,101.9,433.8z M99.7,433.9
			c0-0.6-0.1-1-0.3-1.4c-0.2-0.3-0.6-0.5-1.1-0.5c-0.2,0-0.4,0-0.6,0.1s-0.4,0.1-0.6,0.3v3.3c0.2,0.1,0.3,0.1,0.4,0.1s0.3,0,0.5,0
			c0.6,0,1-0.2,1.2-0.5C99.6,435,99.7,434.5,99.7,433.9z"/>
		<path class="st5" d="M110.4,433.9c0,1.1-0.3,1.9-0.9,2.6s-1.5,0.9-2.7,0.9s-2-0.3-2.7-0.9s-0.9-1.5-0.9-2.6c0-1.1,0.3-1.9,1-2.6
			s1.5-0.9,2.7-0.9c1.1,0,2,0.3,2.7,0.9S110.4,432.8,110.4,433.9z M107.8,435.5c0.1-0.2,0.2-0.4,0.3-0.6s0.1-0.6,0.1-1
			c0-0.4,0-0.7-0.1-1s-0.2-0.5-0.3-0.6c-0.1-0.2-0.3-0.3-0.5-0.3s-0.4-0.1-0.6-0.1s-0.4,0-0.5,0.1s-0.3,0.2-0.5,0.3
			c-0.1,0.2-0.2,0.4-0.3,0.6s-0.1,0.6-0.1,1c0,0.4,0,0.7,0.1,0.9s0.2,0.5,0.3,0.6c0.1,0.2,0.3,0.3,0.4,0.3s0.4,0.1,0.6,0.1
			c0.2,0,0.4,0,0.5-0.1S107.7,435.7,107.8,435.5z"/>
		<path class="st5" d="M117,432.6h-0.2c-0.1,0-0.2-0.1-0.4-0.1s-0.4,0-0.5,0c-0.3,0-0.6,0-0.8,0.1s-0.5,0.1-0.7,0.2v4.4h-2.1v-6.6
			h2.1v1c0.5-0.4,0.9-0.7,1.2-0.8c0.3-0.1,0.7-0.2,0.9-0.2c0.1,0,0.2,0,0.3,0c0.1,0,0.2,0,0.2,0V432.6z"/>
		<path class="st5" d="M122.5,436.5c-0.1,0.1-0.3,0.2-0.4,0.3s-0.3,0.2-0.5,0.3c-0.2,0.1-0.4,0.2-0.6,0.2s-0.5,0.1-0.7,0.1
			c-0.6,0-1.1-0.2-1.6-0.6s-0.6-0.9-0.6-1.5c0-0.5,0.1-0.9,0.3-1.2s0.5-0.5,0.9-0.7c0.4-0.2,0.9-0.3,1.5-0.4s1.2-0.1,1.8-0.2v0
			c0-0.4-0.1-0.6-0.4-0.8s-0.7-0.2-1.3-0.2c-0.3,0-0.7,0.1-1.1,0.2s-0.7,0.2-0.8,0.3h-0.2v-1.6c0.2-0.1,0.6-0.1,1.1-0.2
			s1-0.1,1.5-0.1c1.2,0,2.1,0.2,2.6,0.6s0.8,0.9,0.8,1.7v4.5h-2.1V436.5z M122.5,435.5v-1.4c-0.3,0-0.6,0.1-0.9,0.1
			s-0.6,0.1-0.8,0.1c-0.2,0.1-0.4,0.2-0.5,0.3c-0.1,0.1-0.2,0.3-0.2,0.5c0,0.1,0,0.2,0,0.3c0,0.1,0.1,0.2,0.2,0.2
			c0.1,0.1,0.2,0.1,0.3,0.2s0.3,0.1,0.6,0.1c0.2,0,0.4,0,0.6-0.1C122.1,435.7,122.3,435.6,122.5,435.5z"/>
		<path class="st5" d="M133.2,437.2h-2.1v-0.7c-0.4,0.3-0.7,0.5-1,0.7c-0.3,0.1-0.7,0.2-1.1,0.2c-0.8,0-1.4-0.3-1.9-0.9
			s-0.7-1.4-0.7-2.5c0-0.6,0.1-1.1,0.2-1.5c0.2-0.4,0.4-0.8,0.7-1.1c0.3-0.3,0.6-0.5,1-0.7c0.4-0.2,0.8-0.2,1.1-0.2
			c0.4,0,0.7,0,1,0.1s0.5,0.2,0.8,0.3v-2.8h2.1V437.2z M131.1,435.4v-3.2c-0.1-0.1-0.3-0.1-0.5-0.1c-0.2,0-0.3,0-0.5,0
			c-0.6,0-1,0.2-1.2,0.5c-0.3,0.3-0.4,0.8-0.4,1.4c0,0.6,0.1,1.1,0.3,1.4c0.2,0.3,0.6,0.4,1.1,0.4c0.2,0,0.4,0,0.6-0.1
			S130.9,435.5,131.1,435.4z"/>
		<path class="st5" d="M142.2,433.9c0,1.1-0.3,1.9-0.9,2.6s-1.5,0.9-2.7,0.9s-2-0.3-2.7-0.9s-0.9-1.5-0.9-2.6c0-1.1,0.3-1.9,1-2.6
			s1.5-0.9,2.7-0.9c1.1,0,2,0.3,2.7,0.9S142.2,432.8,142.2,433.9z M139.6,435.5c0.1-0.2,0.2-0.4,0.3-0.6s0.1-0.6,0.1-1
			c0-0.4,0-0.7-0.1-1s-0.2-0.5-0.3-0.6c-0.1-0.2-0.3-0.3-0.5-0.3s-0.4-0.1-0.6-0.1s-0.4,0-0.5,0.1s-0.3,0.2-0.5,0.3
			c-0.1,0.2-0.2,0.4-0.3,0.6s-0.1,0.6-0.1,1c0,0.4,0,0.7,0.1,0.9s0.2,0.5,0.3,0.6c0.1,0.2,0.3,0.3,0.4,0.3s0.4,0.1,0.6,0.1
			c0.2,0,0.4,0,0.5-0.1S139.5,435.7,139.6,435.5z"/>
		<path class="st5" d="M148.8,432.6h-0.2c-0.1,0-0.2-0.1-0.4-0.1s-0.4,0-0.5,0c-0.3,0-0.6,0-0.8,0.1s-0.5,0.1-0.7,0.2v4.4H144v-6.6
			h2.1v1c0.5-0.4,0.9-0.7,1.2-0.8c0.3-0.1,0.7-0.2,0.9-0.2c0.1,0,0.2,0,0.3,0c0.1,0,0.2,0,0.2,0V432.6z"/>
		<path class="st5" d="M156.7,434.3h-4.8c0,0.5,0.2,0.9,0.6,1.2s0.9,0.4,1.6,0.4c0.4,0,0.9-0.1,1.3-0.2s0.7-0.3,1-0.5h0.2v1.7
			c-0.5,0.2-0.9,0.3-1.3,0.4s-0.9,0.1-1.4,0.1c-1.3,0-2.3-0.3-3-0.9s-1.1-1.4-1.1-2.5c0-1.1,0.3-1.9,1-2.6s1.6-1,2.7-1
			c1.1,0,1.9,0.3,2.4,0.8s0.8,1.3,0.8,2.3V434.3z M154.6,433.1c0-0.4-0.1-0.8-0.3-1s-0.5-0.3-1-0.3c-0.4,0-0.7,0.1-1,0.3
			s-0.4,0.5-0.4,1H154.6z"/>
		<path class="st5" d="M164.2,435.1c0,0.7-0.3,1.2-0.9,1.6s-1.4,0.6-2.5,0.6c-0.6,0-1.1-0.1-1.6-0.2s-0.9-0.2-1.1-0.4v-1.7h0.2
			c0.1,0.1,0.2,0.2,0.4,0.2s0.3,0.2,0.6,0.3c0.2,0.1,0.5,0.2,0.7,0.2s0.6,0.1,0.9,0.1c0.4,0,0.7,0,0.9-0.1s0.3-0.2,0.3-0.4
			c0-0.2-0.1-0.3-0.2-0.3s-0.3-0.1-0.7-0.2c-0.2,0-0.4-0.1-0.6-0.1s-0.5-0.1-0.7-0.1c-0.6-0.2-1-0.4-1.3-0.7s-0.4-0.7-0.4-1.2
			c0-0.6,0.3-1.2,0.9-1.6s1.4-0.6,2.5-0.6c0.5,0,1,0,1.4,0.1s0.8,0.2,1.1,0.3v1.7h-0.2c-0.3-0.2-0.7-0.4-1.1-0.5s-0.8-0.2-1.2-0.2
			c-0.3,0-0.6,0-0.9,0.1s-0.3,0.2-0.3,0.4c0,0.2,0.1,0.3,0.2,0.4s0.4,0.2,0.7,0.2c0.2,0,0.4,0.1,0.7,0.1s0.5,0.1,0.7,0.2
			c0.6,0.1,1,0.4,1.2,0.7S164.2,434.7,164.2,435.1z"/>
	</g>
	<polygon class="st6" points="122,55.1 122,56.1 120.3,56.1 120.3,61.3 119.2,61.3 119.2,56.1 117.5,56.1 117.5,55.1 	"/>
	<g>
		<path class="st6" d="M125.5,56.6v3.9l0.1,0.8h-0.9l-0.1-0.5h0c-0.3,0.5-0.8,0.7-1.3,0.7c-1,0-1.5-0.5-1.5-1.6v-3.2h1.1v3
			c0,0.6,0.1,1,0.7,1c0.5,0,0.9-0.4,0.9-0.9v-3.1H125.5z"/>
		<path class="st6" d="M130.2,57.3c-0.7,0-1,0.7-1.1,1.4c0.5,0,1.6-0.1,1.6-0.9C130.7,57.5,130.5,57.3,130.2,57.3 M131.7,57.8
			c0,1.4-1.7,1.6-2.5,1.6c0,0.6,0.4,1.2,1.1,1.2c0.5,0,0.9-0.3,1.1-0.4l0.3,0.7c-0.1,0.1-0.7,0.5-1.6,0.5c-1.5,0-2.1-1-2.1-2.4
			c0-1.4,0.8-2.6,2.2-2.6C131.1,56.5,131.7,57,131.7,57.8"/>
		<path class="st6" d="M132.4,60.2c0.3,0.2,0.8,0.4,1.3,0.4c0.4,0,0.7-0.2,0.7-0.6c0-0.4-0.3-0.5-0.8-0.7c-0.6-0.2-1.4-0.4-1.4-1.4
			c0-1,0.8-1.5,1.6-1.5c0.7,0,1.2,0.3,1.6,0.7l-0.5,0.7c-0.3-0.3-0.7-0.5-1.1-0.5c-0.3,0-0.6,0.2-0.6,0.5c0,0.4,0.4,0.5,0.8,0.7
			c0.6,0.2,1.4,0.5,1.4,1.4c0,1-0.7,1.5-1.7,1.5c-0.8,0-1.4-0.3-1.6-0.5L132.4,60.2z"/>
		<path class="st6" d="M137.7,57.4c-0.2,0-0.3,0-0.5,0.1v2.9c0.2,0.2,0.5,0.2,0.8,0.2c0.8,0,1-0.8,1-1.5
			C138.9,57.9,138.5,57.4,137.7,57.4 M137.2,63.3h-1.1v-6.5c0.7-0.2,1.3-0.3,1.8-0.3c1.4,0,2.1,0.8,2.1,2.4c0,1.6-0.7,2.5-1.9,2.5
			c-0.3,0-0.7-0.1-0.9-0.3V63.3z"/>
		<path class="st6" d="M142.7,57.3c-0.7,0-1,0.7-1.1,1.4c0.5,0,1.6-0.1,1.6-0.9C143.2,57.5,143,57.3,142.7,57.3 M144.2,57.8
			c0,1.4-1.7,1.6-2.5,1.6c0,0.6,0.4,1.2,1.1,1.2c0.5,0,0.9-0.3,1.1-0.4l0.3,0.7c-0.1,0.1-0.7,0.5-1.6,0.5c-1.5,0-2.1-1-2.1-2.4
			c0-1.4,0.8-2.6,2.2-2.6C143.6,56.5,144.2,57,144.2,57.8"/>
		<path class="st6" d="M147.8,60.1l0.4,0.7c-0.3,0.3-0.9,0.5-1.5,0.5c-1.3,0-2.1-0.9-2.1-2.4c0-1.9,1.1-2.5,2.1-2.5
			c0.6,0,1.2,0.2,1.6,0.9l-0.7,0.6c-0.2-0.3-0.6-0.6-1-0.6c-0.6,0-1,0.5-1,1.6c0,1,0.3,1.6,1.1,1.6
			C147.1,60.5,147.4,60.4,147.8,60.1"/>
		<path class="st6" d="M148.9,56.6h1.1v4.7h-1.1V56.6z M149.4,54.7c0.4,0,0.6,0.3,0.6,0.6c0,0.4-0.3,0.6-0.6,0.6
			c-0.4,0-0.6-0.3-0.6-0.6C148.8,54.9,149,54.7,149.4,54.7"/>
		<path class="st6" d="M153.5,57.4c-0.1-0.1-0.4-0.1-0.7-0.1c-0.8,0-1.1,0.8-1.1,1.8c0,0.8,0.2,1.5,0.9,1.5c0.6,0,0.9-0.4,0.9-0.8
			V57.4z M154.5,60.4l0.1,0.9h-0.9l-0.1-0.5l0,0c-0.3,0.4-0.7,0.6-1.2,0.6c-1.3,0-1.7-0.9-1.7-2.3c0-1.6,0.8-2.7,2.3-2.7
			c0.3,0,0.9,0.1,1.6,0.3V60.4z"/>
		<path class="st6" d="M156.5,54.9v4.9c0,0.6,0.1,0.8,0.5,0.8c0.2,0,0.4-0.1,0.6-0.2l0.2,0.7c-0.2,0.2-0.7,0.3-1.1,0.3
			c-1.2,0-1.3-0.7-1.3-1.4v-5.2H156.5z"/>
		<path class="st6" d="M158.2,56.6h1.1v4.7h-1.1V56.6z M158.7,54.7c0.4,0,0.6,0.3,0.6,0.6c0,0.4-0.3,0.6-0.6,0.6
			c-0.4,0-0.6-0.3-0.6-0.6C158.1,54.9,158.3,54.7,158.7,54.7"/>
		<path class="st6" d="M160.1,60.2c0.3,0.2,0.8,0.4,1.3,0.4c0.4,0,0.7-0.2,0.7-0.6c0-0.4-0.3-0.5-0.8-0.7c-0.6-0.2-1.4-0.4-1.4-1.4
			c0-1,0.8-1.5,1.6-1.5c0.7,0,1.2,0.3,1.6,0.7l-0.5,0.7c-0.3-0.3-0.7-0.5-1.1-0.5c-0.3,0-0.6,0.2-0.6,0.5c0,0.4,0.4,0.5,0.8,0.7
			c0.6,0.2,1.4,0.5,1.4,1.4c0,1-0.7,1.5-1.7,1.5c-0.8,0-1.4-0.3-1.6-0.5L160.1,60.2z"/>
		<path class="st6" d="M164.7,54.8v1.8h1.2v0.9h-1.2v2.4c0,0.6,0.2,0.7,0.6,0.7c0.2,0,0.5-0.1,0.6-0.2l0.3,0.7
			c-0.3,0.2-0.7,0.3-1.1,0.3c-1.4,0-1.4-0.9-1.4-1.5v-5H164.7z"/>
		<path class="st6" d="M169.3,57.4c-0.1-0.1-0.4-0.1-0.7-0.1c-0.8,0-1.1,0.8-1.1,1.8c0,0.8,0.2,1.5,0.9,1.5c0.6,0,0.9-0.4,0.9-0.8
			V57.4z M170.3,60.4l0.1,0.9h-0.9l-0.1-0.5l0,0c-0.3,0.4-0.7,0.6-1.2,0.6c-1.3,0-1.7-0.9-1.7-2.3c0-1.6,0.8-2.7,2.3-2.7
			c0.3,0,0.9,0.1,1.6,0.3V60.4z"/>
		<path class="st6" d="M137.2,66.2c-0.7,0-1,0.7-1.1,1.4c0.5,0,1.6-0.1,1.6-0.9C137.7,66.4,137.5,66.2,137.2,66.2 M138.7,66.7
			c0,1.4-1.7,1.6-2.5,1.6c0,0.6,0.4,1.2,1.1,1.2c0.5,0,0.9-0.3,1.1-0.4l0.3,0.7c-0.1,0.1-0.7,0.5-1.6,0.5c-1.5,0-2.1-1-2.1-2.4
			c0-1.4,0.8-2.6,2.2-2.6C138.1,65.4,138.7,65.9,138.7,66.7"/>
		<path class="st6" d="M139.3,70.2v-3.9l-0.1-0.8h0.9l0.1,0.6c0.3-0.5,0.8-0.7,1.4-0.7c0.9,0,1.4,0.5,1.4,1.6v3.2h-1.1v-3
			c0-0.6-0.1-1-0.7-1c-0.5,0-0.9,0.5-0.9,0.9v3H139.3z"/>
		<path class="st6" d="M148.7,69.1l0.4,0.7c-0.3,0.3-0.9,0.5-1.5,0.5c-1.3,0-2.1-0.9-2.1-2.4c0-1.9,1.1-2.5,2.1-2.5
			c0.6,0,1.2,0.2,1.6,0.9l-0.7,0.6c-0.2-0.3-0.6-0.6-1-0.6c-0.6,0-1,0.5-1,1.6c0,1,0.3,1.6,1.1,1.6C148,69.5,148.3,69.3,148.7,69.1"
			/>
		<path class="st6" d="M150.8,70.2h-1.1v-3.9l-0.1-0.8h0.9l0.1,0.7c0.2-0.5,0.6-0.8,1.1-0.8c0.3,0,0.5,0.1,0.7,0.2l-0.2,0.9
			c-0.2-0.1-0.4-0.2-0.6-0.2c-0.5,0-0.8,0.4-0.8,0.9V70.2z"/>
		<path class="st6" d="M154.9,62.8c0.3,0.1,0.7,0.2,0.7,0.6c0,0.1-0.1,0.3-0.2,0.5c-0.3,0.3-0.7,0.7-1.1,1.1l-0.3-0.3L154.9,62.8z
			 M154.7,66.2c-0.7,0-1,0.7-1.1,1.4c0.5,0,1.6-0.1,1.6-0.9C155.2,66.4,155,66.2,154.7,66.2 M156.2,66.7c0,1.4-1.7,1.6-2.5,1.6
			c0,0.6,0.4,1.2,1.1,1.2c0.5,0,0.9-0.3,1.1-0.4l0.3,0.7c-0.1,0.1-0.7,0.5-1.6,0.5c-1.5,0-2.1-1-2.1-2.4c0-1.4,0.8-2.6,2.2-2.6
			C155.6,65.4,156.2,65.9,156.2,66.7"/>
		<path class="st6" d="M159.5,66.4c-0.2-0.1-0.4-0.1-0.7-0.1c-0.8,0-1.1,0.8-1.1,1.7c0,0.8,0.2,1.6,0.9,1.6c0.5,0,0.9-0.4,0.9-0.8
			V66.4z M159.5,65.5v-1.8h1v5.5l0.1,0.9h-0.9l-0.1-0.5l0,0c-0.3,0.4-0.7,0.6-1.2,0.6c-1.4,0-1.8-1.1-1.8-2.3c0-1.6,0.8-2.7,2.1-2.7
			C159.1,65.4,159.3,65.5,159.5,65.5"/>
		<path class="st6" d="M161.7,65.5h1.1v4.7h-1.1V65.5z M162.2,63.6c0.4,0,0.6,0.3,0.6,0.6c0,0.4-0.3,0.6-0.6,0.6
			c-0.4,0-0.6-0.3-0.6-0.6C161.6,63.9,161.9,63.6,162.2,63.6"/>
		<path class="st6" d="M164.9,63.8v1.8h1.2v0.9h-1.2v2.4c0,0.6,0.2,0.7,0.6,0.7c0.2,0,0.5-0.1,0.6-0.2l0.3,0.7
			c-0.3,0.2-0.7,0.3-1.1,0.3c-1.4,0-1.4-0.9-1.4-1.5v-5H164.9z"/>
		<path class="st6" d="M169.5,67.9c0-1-0.2-1.7-0.9-1.7c-0.6,0-0.9,0.6-0.9,1.5c0,0.9,0.1,1.8,0.9,1.8
			C169.2,69.5,169.5,68.9,169.5,67.9 M168.6,65.4c0.7,0,1.9,0.2,1.9,2.4c0,1.8-0.9,2.6-2.1,2.6c-1.2,0-1.9-0.8-1.9-2.5
			C166.6,65.9,167.7,65.4,168.6,65.4"/>
		<path class="st7" d="M85.3,66.2c-0.5,0.2-3.5-0.6-3.5-0.6s2.2,1.4,2.4,1.7c0.2,0.3-0.4,2.8-0.4,2.8s1.4-2,1.9-2.6
			c0.3-0.4,1.1-0.3,1.5-0.2c0.4,0.1,4.3,0.8,7.9-1.9c2.4-1.8,2.3-2.1,2.3-2.1s-2.2-1.6-5.6-0.9C88.5,63.1,85.9,66,85.3,66.2"/>
		<path class="st6" d="M67.4,60c-0.8,0.2-3.9-1.1-3.9-1.1s3.1,1.9,3.2,2.2c0.1,0.3-1.9,3.4-1.9,3.4s2-1.8,2.9-2.5
			c0.7-0.6,2.5-0.9,3.6-0.8c1,0.1,5.2,0.7,10.5-3c3.5-2.4,3.4-2.8,3.4-2.8s-3-1.9-7.8-0.8C72.4,55.8,68.1,59.8,67.4,60"/>
		<path class="st6" d="M101.1,57.3c-0.5,0.1-2.3-1.1-2.3-1.1s1.7,1.5,1.7,1.7c0,0.2-1.5,1.9-1.5,1.9s1.4-0.9,2-1.2
			c0.5-0.3,1.6-0.2,2.3,0c0.6,0.2,3.1,1,6.7-0.6c2.4-1.1,2.4-1.3,2.4-1.3s-1.7-1.5-4.7-1.4C104.6,55.3,101.6,57.2,101.1,57.3"/>
		<path class="st7" d="M139.1,29.1c-0.5,0.1-3.4-0.5-3.4-0.5s2.2,1.2,2.2,1.5c0.1,0.3-0.9,2.3-0.9,2.3s1.6-1.7,2-2.1
			c0.3-0.3,1-0.3,1.5-0.2c0.5,0.1,3.3,0.6,6.5-1.2c2.1-1.1,2.1-1.4,2.1-1.4s-1.6-1.1-4.4-0.7C141.8,27.4,139.5,29,139.1,29.1"/>
		<path class="st6" d="M161.9,28.4c-0.8,0.1-4.8-1.4-4.8-1.4s2.8,2.3,3.1,2.7c0.2,0.4-1,3.8-1,3.8s2.2-2.5,3.1-3.2
			c0.5-0.5,1.6-0.2,2.2,0c0.5,0.2,5.9,1.9,11.3-1.3c3.6-2.1,3.6-2.5,3.6-2.5s-2.9-2.6-7.7-2.2C166.8,24.7,162.7,28.3,161.9,28.4"/>
		<path class="st6" d="M85.7,47.2c-0.8,0.4-1.7,0.6-2.5,0.6c-3.4,0-6.2-1.9-6.2-6.6c0-4.8,3-6.8,6.3-6.8c0.8,0,1.7,0.1,2.5,0.3V37
			c-0.7-0.3-1.6-0.5-2.5-0.5c-2.4,0-4,1.3-4,4.6c0,3.5,1.8,4.6,4.1,4.6c0.9,0,1.7-0.2,2.5-0.5V47.2z"/>
		<path class="st6" d="M88.7,43c0,1.9,0.8,2.9,1.8,2.9c1,0,1.7-0.9,1.7-2.9c0-1.9-0.8-2.8-1.8-2.8C89.4,40.2,88.7,41,88.7,43
			 M94.4,43c0,2.8-1.5,4.7-3.9,4.7c-2.3,0-3.9-1.9-3.9-4.7c0-2.8,1.6-4.7,3.9-4.7C92.8,38.3,94.4,40.2,94.4,43"/>
		<path class="st6" d="M106.8,47.5h-2v-5.7c0-1.2-0.4-1.6-1.3-1.6c-0.5,0-1.3,0.2-1.3,0.7c0,0.2,0.1,0.5,0.1,0.8v5.9h-2v-5.7
			c0-1.2-0.5-1.6-1.2-1.6c-0.7,0-1.3,0.2-1.3,0.8v6.5h-2v-8.7c1.8,0,2.3-0.4,3.6-0.4c1.2,0,1.7,0.3,2.1,0.7c0.7-0.4,1.5-0.7,2.6-0.7
			c1.7,0,2.9,0.8,2.9,3.2V47.5z"/>
		<path class="st6" d="M111.4,40.1c-0.7,0-1.1,0.3-1.1,0.6v4.6c0,0.3,0.5,0.6,1.1,0.6c1.3,0,2-0.9,2-2.8
			C113.4,41,112.7,40.1,111.4,40.1 M108.3,51.6c0-2,0.1-3.4,0.1-5.9v-7.1c1.2,0,2-0.3,3.2-0.3c2.2,0,4,1.6,4,4.7c0,3-2,4.6-3.8,4.6
			c-0.8,0-1.2-0.2-1.5-0.4v4.3H108.3z"/>
		<path class="st6" d="M121,43.2c-1.7,0.1-2.5,0.6-2.5,1.6c0,0.7,0.5,1.2,1.3,1.2c0.7,0,1.1-0.2,1.1-0.5C121,45.2,121,44.3,121,43.2
			 M121,41.6v-0.3c0-0.7-0.5-1.2-1.3-1.2c-0.9,0-1.7,0.2-2.7,0.6v-2c0.9-0.3,1.8-0.4,2.8-0.4c2,0,3.2,0.8,3.2,2.9
			c0,1.5-0.1,2.7-0.1,4.1c0,0.7,0,1.6,0.1,2c-1.5,0-2.2,0.2-3.5,0.2c-2.1,0-3.2-1-3.2-2.8C116.5,43.2,117.8,41.7,121,41.6"/>
		<path class="st6" d="M124.6,47.5v-8.9h1.9v0.8c0.5-0.8,1.4-1.1,2.2-1.1c0.4,0,0.7,0,0.9,0.1v2.2c-0.3-0.2-0.9-0.2-1.4-0.2
			c-0.8,0-1.5,0.3-1.6,1.1c0,1.5,0,3.8,0,6.1H124.6z"/>
		<path class="st6" d="M132.4,38.6h2.5v1.8h-2.5c0,1.9,0,3.2,0,4.6c0,0.7,0.4,0.9,1.1,0.9c0.6,0,1-0.1,1.4-0.3v1.8
			c-0.6,0.2-1.2,0.3-1.9,0.3c-1.5,0-2.5-0.7-2.5-2.4V37l2-1.3V38.6z"/>
		<path class="st6" d="M140.5,43.2c-1.7,0.1-2.5,0.6-2.5,1.6c0,0.7,0.5,1.2,1.3,1.2c0.7,0,1.1-0.2,1.1-0.5
			C140.5,45.2,140.5,44.3,140.5,43.2 M140.5,41.6v-0.3c0-0.7-0.5-1.2-1.3-1.2c-0.9,0-1.7,0.2-2.7,0.6v-2c0.9-0.3,1.8-0.4,2.8-0.4
			c2,0,3.2,0.8,3.2,2.9c0,1.5-0.1,2.7-0.1,4.1c0,0.7,0,1.6,0.1,2c-1.5,0-2.2,0.2-3.5,0.2c-2.1,0-3.2-1-3.2-2.8
			C135.9,43.2,137.3,41.7,140.5,41.6"/>
		<path class="st6" d="M155.2,47.5h-2v-5.7c0-1.2-0.4-1.6-1.3-1.6c-0.5,0-1.3,0.2-1.3,0.7c0,0.2,0.1,0.5,0.1,0.8v5.9h-2v-5.7
			c0-1.2-0.5-1.6-1.2-1.6c-0.7,0-1.3,0.2-1.3,0.8v6.5h-2v-8.7c1.8,0,2.3-0.4,3.6-0.4c1.2,0,1.7,0.3,2.1,0.7c0.7-0.4,1.5-0.7,2.6-0.7
			c1.7,0,2.9,0.8,2.9,3.1V47.5z"/>
		<path class="st6" d="M158.7,43c0,1.9,0.8,2.9,1.8,2.9c1,0,1.7-0.9,1.7-2.9c0-1.9-0.8-2.8-1.8-2.8C159.4,40.2,158.7,41,158.7,43
			 M164.3,43c0,2.8-1.5,4.7-3.9,4.7c-2.3,0-3.9-1.9-3.9-4.7c0-2.8,1.6-4.7,3.9-4.7C162.8,38.3,164.3,40.2,164.3,43"/>
		<path class="st6" d="M168.5,38.3c0.7,0,1.2,0.1,2,0.3v2c-0.9-0.4-1.5-0.5-2-0.5c-0.7,0-1.1,0.3-1.1,0.8c0,1.4,3.6,1.2,3.6,4
			c0,1.5-1,2.9-3.4,2.9c-0.7,0-1.5-0.1-2.2-0.3v-1.9c0.7,0.2,1.5,0.4,2.1,0.4c1,0,1.5-0.4,1.5-1c0-1.5-3.6-1.3-3.6-3.9
			C165.2,39.4,166.4,38.3,168.5,38.3"/>
		<path class="st6" d="M174.6,45.5c0.4,0,0.6-0.2,0.6-0.5c0-0.3-0.2-0.4-0.6-0.4c-0.2,0-0.3,0.1-0.3,0.1c0,0.3,0,0.6,0,0.9H174.6z
			 M174.3,47H174v-2.8c0.3,0,0.5,0,0.8,0c0.5,0,0.9,0.3,0.9,0.8c0,0.3-0.2,0.6-0.5,0.7c0,0,0,0,0,0.1c0,0,0,0.1,0,0.1l0.7,1.2h-0.4
			l-0.6-0.9c-0.1-0.2-0.2-0.2-0.3-0.2h-0.2V47z M174.9,43.9c-1,0-1.6,0.8-1.6,1.8c0,1,0.6,1.8,1.6,1.8c1,0,1.6-0.8,1.6-1.8
			C176.5,44.7,175.8,43.9,174.9,43.9 M174.9,47.7c-1.2,0-2-0.9-2-2.1c0-1.2,0.8-2.1,2-2.1c1.2,0,2,0.9,2,2.1
			C176.9,46.8,176,47.7,174.9,47.7"/>
	</g>
</g>
</svg>
