<?xml version="1.0" encoding="utf-8"?>
<!-- Generator: Adobe Illustrator 25.2.1, SVG Export Plug-In . SVG Version: 6.00 Build 0)  -->
<svg version="1.1" id="Capa_1" xmlns="http://www.w3.org/2000/svg" xmlns:xlink="http://www.w3.org/1999/xlink" x="0px" y="0px"
	 viewBox="0 0 274.2 476.5" style="enable-background:new 0 0 274.2 476.5;" xml:space="preserve">
<style type="text/css">
	.st0{fill:none;stroke:#480174;stroke-linecap:round;stroke-linejoin:round;stroke-miterlimit:10;stroke-dasharray:0,3.004;}
	.st1{fill:none;stroke:#480174;stroke-linecap:round;stroke-linejoin:round;stroke-miterlimit:10;}
	.st2{fill:none;stroke:#480174;stroke-linecap:round;stroke-linejoin:round;stroke-miterlimit:10;stroke-dasharray:0,3.019;}
	.st3{fill:none;stroke:#480174;stroke-width:21;stroke-miterlimit:10;}
	.st4{fill:#FFFFFF;}
	.st5{fill:#252525;}
	.st6{fill:#E2A31D;}
	.st7{fill:#CC145A;}
</style>
<g>
	<line class="st0" x1="43" y1="21.8" x2="43" y2="446.9"/>
	<path class="st1" d="M43,448.4L43,448.4 M43,18.8L43,18.8"/>
	<line class="st2" x1="247.5" y1="77.4" x2="22.6" y2="77.4"/>
	<path class="st1" d="M21.1,77.4L21.1,77.4 M250.6,77.4L250.6,77.4"/>
	<line class="st3" x1="65.4" y1="111" x2="169.9" y2="111"/>
	<line class="st3" x1="65.4" y1="171" x2="161" y2="171"/>
	<line class="st3" x1="65.4" y1="233.4" x2="145.5" y2="233.4"/>
	<line class="st3" x1="65.4" y1="291" x2="161" y2="291"/>
	<line class="st3" x1="65.4" y1="351" x2="116.1" y2="351"/>
	<line class="st3" x1="65.4" y1="411" x2="135.4" y2="411"/>
	<g>
		<path class="st4" d="M84.8,112.5c0,0.7-0.1,1.3-0.4,1.9s-0.6,1.1-1,1.5c-0.5,0.4-1,0.8-1.6,1s-1.4,0.3-2.2,0.3
			c-0.8,0-1.5-0.1-2.1-0.3s-1.2-0.5-1.7-1c-0.5-0.5-0.9-1.2-1.2-2s-0.4-1.7-0.4-2.9c0-1.1,0.1-2.2,0.4-3.1s0.7-1.7,1.3-2.4
			c0.6-0.7,1.3-1.2,2.2-1.5s2-0.5,3.3-0.5c0.4,0,0.9,0,1.4,0.1s0.8,0.1,1,0.1v2.6h-0.3c-0.2-0.1-0.4-0.2-0.8-0.3s-0.8-0.1-1.3-0.1
			c-1.1,0-2,0.3-2.6,0.8s-1,1.3-1.1,2.3c0.5-0.3,0.9-0.5,1.4-0.7s1-0.3,1.6-0.3c0.5,0,1,0.1,1.4,0.2s0.8,0.3,1.2,0.6
			c0.5,0.3,0.9,0.8,1.2,1.4S84.8,111.7,84.8,112.5z M80.8,114.5c0.2-0.2,0.3-0.4,0.4-0.7s0.2-0.6,0.2-1.1c0-0.4-0.1-0.8-0.2-1.1
			s-0.3-0.5-0.5-0.7c-0.2-0.2-0.5-0.3-0.7-0.3s-0.6-0.1-0.9-0.1c-0.3,0-0.5,0-0.8,0.1s-0.5,0.1-0.8,0.2c0,0.1,0,0.2,0,0.3
			s0,0.3,0,0.5c0,0.7,0.1,1.3,0.2,1.8s0.3,0.8,0.6,1.1c0.2,0.2,0.4,0.3,0.6,0.4s0.5,0.1,0.7,0.1c0.2,0,0.4,0,0.6-0.1
			S80.6,114.7,80.8,114.5z"/>
		<path class="st4" d="M97.3,106.5L91.4,117h-3.8l6.1-10.6h-6.7v-2.5h10.3V106.5z"/>
		<path class="st4" d="M110.1,106.5l-5.9,10.5h-3.8l6.1-10.6h-6.7v-2.5h10.3V106.5z"/>
		<path class="st4" d="M116.7,113.5l-3.2,6.7h-2l1.7-6.7H116.7z"/>
		<path class="st4" d="M129.7,112.5c0,0.7-0.1,1.3-0.4,1.9s-0.6,1.1-1,1.5c-0.5,0.4-1,0.8-1.6,1s-1.4,0.3-2.2,0.3
			c-0.8,0-1.5-0.1-2.1-0.3s-1.2-0.5-1.7-1c-0.5-0.5-0.9-1.2-1.2-2s-0.4-1.7-0.4-2.9c0-1.1,0.1-2.2,0.4-3.1s0.7-1.7,1.3-2.4
			c0.6-0.7,1.3-1.2,2.2-1.5s2-0.5,3.3-0.5c0.4,0,0.9,0,1.4,0.1c0.5,0.1,0.8,0.1,1,0.1v2.6h-0.3c-0.2-0.1-0.4-0.2-0.8-0.3
			s-0.8-0.1-1.3-0.1c-1.1,0-2,0.3-2.6,0.8s-1,1.3-1.1,2.3c0.5-0.3,0.9-0.5,1.4-0.7s1-0.3,1.6-0.3c0.5,0,1,0.1,1.4,0.2
			s0.8,0.3,1.2,0.6c0.5,0.3,0.9,0.8,1.2,1.4S129.7,111.7,129.7,112.5z M125.7,114.5c0.2-0.2,0.3-0.4,0.4-0.7s0.2-0.6,0.2-1.1
			c0-0.4-0.1-0.8-0.2-1.1s-0.3-0.5-0.5-0.7c-0.2-0.2-0.5-0.3-0.7-0.3s-0.6-0.1-0.9-0.1c-0.3,0-0.5,0-0.8,0.1s-0.5,0.1-0.8,0.2
			c0,0.1,0,0.2,0,0.3s0,0.3,0,0.5c0,0.7,0.1,1.3,0.2,1.8s0.3,0.8,0.6,1.1c0.2,0.2,0.4,0.3,0.6,0.4s0.5,0.1,0.7,0.1
			c0.2,0,0.4,0,0.6-0.1S125.5,114.7,125.7,114.5z"/>
		<path class="st4" d="M142.2,106.5l-5.9,10.5h-3.8l6.1-10.6H132v-2.5h10.3V106.5z"/>
		<path class="st4" d="M155.3,113.3c0,1.2-0.5,2.1-1.5,2.8s-2.3,1.1-4.1,1.1c-1,0-1.8-0.1-2.5-0.3s-1.3-0.5-1.7-0.8
			c-0.4-0.3-0.8-0.8-1-1.2s-0.3-1-0.3-1.5c0-0.7,0.2-1.2,0.6-1.7s1-1,2-1.3v-0.1c-0.8-0.4-1.3-0.8-1.7-1.3s-0.5-1.2-0.5-1.9
			c0-1,0.5-1.9,1.4-2.5s2.2-1,3.8-1c1.6,0,2.9,0.3,3.8,0.9s1.4,1.4,1.4,2.4c0,0.6-0.2,1.2-0.6,1.7s-1,0.9-1.8,1.2v0.1
			c0.9,0.3,1.6,0.8,2,1.4S155.3,112.5,155.3,113.3z M152,113.5c0-0.4-0.1-0.7-0.3-1s-0.6-0.5-1.3-0.7c-0.2-0.1-0.5-0.2-0.8-0.3
			s-0.7-0.2-0.9-0.3c-0.3,0.2-0.5,0.5-0.7,0.8s-0.3,0.7-0.3,1.1c0,0.6,0.2,1.1,0.7,1.5s1,0.5,1.7,0.5c0.2,0,0.4,0,0.7-0.1
			s0.5-0.1,0.7-0.3c0.2-0.1,0.4-0.3,0.5-0.5S152,113.8,152,113.5z M151.7,107.3c0-0.4-0.2-0.8-0.5-1.1s-0.8-0.4-1.4-0.4
			c-0.2,0-0.4,0-0.6,0.1s-0.4,0.1-0.6,0.2c-0.2,0.1-0.3,0.2-0.4,0.4s-0.2,0.3-0.2,0.5c0,0.3,0.1,0.6,0.3,0.8s0.5,0.4,1,0.6
			c0.2,0.1,0.4,0.2,0.7,0.3s0.6,0.2,1,0.3c0.3-0.3,0.5-0.6,0.6-0.9S151.7,107.6,151.7,107.3z"/>
	</g>
	<g>
		<path class="st5" d="M69.8,137.2c-0.6,0-1.1-0.1-1.6-0.2s-0.9-0.3-1.2-0.6c-0.3-0.3-0.6-0.6-0.8-1.1s-0.3-0.9-0.3-1.5
			c0-0.6,0.1-1.1,0.3-1.6s0.5-0.8,0.9-1.1c0.4-0.3,0.8-0.5,1.2-0.6s0.9-0.2,1.4-0.2c0.4,0,0.9,0,1.2,0.1s0.7,0.2,1.1,0.4v1.8h-0.3
			c-0.1-0.1-0.2-0.2-0.3-0.2c-0.1-0.1-0.3-0.2-0.4-0.3c-0.2-0.1-0.3-0.2-0.5-0.2c-0.2-0.1-0.4-0.1-0.7-0.1c-0.6,0-1,0.2-1.3,0.5
			c-0.3,0.4-0.5,0.8-0.5,1.5c0,0.6,0.2,1.1,0.5,1.4c0.3,0.3,0.8,0.5,1.3,0.5c0.3,0,0.5,0,0.7-0.1c0.2-0.1,0.4-0.1,0.5-0.2
			c0.1-0.1,0.2-0.2,0.4-0.2c0.1-0.1,0.2-0.2,0.3-0.3h0.3v1.8c-0.3,0.2-0.7,0.3-1,0.4S70.3,137.2,69.8,137.2z"/>
		<path class="st5" d="M75.9,137h-2.1v-9.1h2.1V137z"/>
		<path class="st5" d="M80.3,129.5h-2.2v-1.6h2.2V129.5z M80.3,137h-2.1v-6.6h2.1V137z"/>
		<path class="st5" d="M89,134.1h-4.8c0,0.5,0.2,0.9,0.6,1.2s0.9,0.4,1.6,0.4c0.4,0,0.9-0.1,1.3-0.2s0.7-0.3,1-0.5h0.2v1.7
			c-0.5,0.2-0.9,0.3-1.3,0.4s-0.9,0.1-1.4,0.1c-1.3,0-2.3-0.3-3-0.9s-1.1-1.4-1.1-2.5c0-1.1,0.3-1.9,1-2.6s1.6-1,2.7-1
			c1.1,0,1.9,0.3,2.4,0.8s0.8,1.3,0.8,2.3V134.1z M87,132.8c0-0.4-0.1-0.8-0.3-1s-0.5-0.3-1-0.3c-0.4,0-0.7,0.1-1,0.3
			s-0.4,0.5-0.4,1H87z"/>
		<path class="st5" d="M97.4,137h-2.1v-3.3c0-0.3,0-0.5,0-0.8s-0.1-0.5-0.1-0.6c-0.1-0.1-0.2-0.2-0.3-0.3s-0.4-0.1-0.6-0.1
			c-0.2,0-0.4,0-0.6,0.1s-0.4,0.2-0.6,0.3v4.7h-2.1v-6.6h2.1v0.7c0.4-0.3,0.7-0.5,1.1-0.7s0.7-0.2,1.1-0.2c0.7,0,1.3,0.2,1.7,0.6
			c0.4,0.4,0.6,1,0.6,1.9V137z"/>
		<path class="st5" d="M103.9,136.9c-0.2,0.1-0.5,0.1-0.7,0.1s-0.6,0-0.9,0c-0.8,0-1.4-0.2-1.8-0.5s-0.6-0.9-0.6-1.7v-3.1h-0.9v-1.4
			h0.9v-1.9h2.1v1.9h2v1.4h-2v2.3c0,0.2,0,0.4,0,0.6c0,0.2,0,0.3,0.1,0.5c0.1,0.1,0.2,0.2,0.3,0.3c0.1,0.1,0.3,0.1,0.6,0.1
			c0.1,0,0.3,0,0.4-0.1s0.3-0.1,0.4-0.1h0.2V136.9z"/>
		<path class="st5" d="M111.9,134.1h-4.8c0,0.5,0.2,0.9,0.6,1.2s0.9,0.4,1.6,0.4c0.4,0,0.9-0.1,1.3-0.2s0.7-0.3,1-0.5h0.2v1.7
			c-0.5,0.2-0.9,0.3-1.3,0.4s-0.9,0.1-1.4,0.1c-1.3,0-2.3-0.3-3-0.9s-1.1-1.4-1.1-2.5c0-1.1,0.3-1.9,1-2.6s1.6-1,2.7-1
			c1.1,0,1.9,0.3,2.4,0.8s0.8,1.3,0.8,2.3V134.1z M109.8,132.8c0-0.4-0.1-0.8-0.3-1s-0.5-0.3-1-0.3c-0.4,0-0.7,0.1-1,0.3
			s-0.4,0.5-0.4,1H109.8z"/>
		<path class="st5" d="M119.4,134.9c0,0.7-0.3,1.2-0.9,1.6s-1.4,0.6-2.5,0.6c-0.6,0-1.1-0.1-1.6-0.2s-0.9-0.2-1.1-0.4v-1.7h0.2
			c0.1,0.1,0.2,0.2,0.4,0.2s0.3,0.2,0.6,0.3c0.2,0.1,0.5,0.2,0.7,0.2s0.6,0.1,0.9,0.1c0.4,0,0.7,0,0.9-0.1s0.3-0.2,0.3-0.4
			c0-0.2-0.1-0.3-0.2-0.3s-0.3-0.1-0.7-0.2c-0.2,0-0.4-0.1-0.6-0.1s-0.5-0.1-0.7-0.1c-0.6-0.2-1-0.4-1.3-0.7s-0.4-0.7-0.4-1.2
			c0-0.6,0.3-1.2,0.9-1.6s1.4-0.6,2.5-0.6c0.5,0,1,0,1.4,0.1s0.8,0.2,1.1,0.3v1.7h-0.2c-0.3-0.2-0.7-0.4-1.1-0.5s-0.8-0.2-1.2-0.2
			c-0.3,0-0.6,0-0.9,0.1s-0.3,0.2-0.3,0.4c0,0.2,0.1,0.3,0.2,0.4s0.4,0.2,0.7,0.2c0.2,0,0.4,0.1,0.7,0.1s0.5,0.1,0.7,0.2
			c0.6,0.1,1,0.4,1.2,0.7S119.4,134.4,119.4,134.9z"/>
	</g>
	<g>
		<path class="st4" d="M83.4,173.2c0,1-0.4,1.8-1.2,2.5s-1.9,1.1-3.3,1.2v3.2h-1.5V177c-0.7,0-1.4-0.1-2.3-0.2s-1.5-0.3-2-0.6v-2.6
			h0.4c0.5,0.3,1.2,0.5,1.9,0.7s1.4,0.3,2.1,0.3v-2.4l-0.9-0.2c-0.5-0.1-1-0.3-1.5-0.4s-0.8-0.4-1.2-0.7s-0.6-0.6-0.8-1
			s-0.3-0.9-0.3-1.5c0-0.9,0.4-1.6,1.2-2.2s1.9-1,3.3-1.1v-2h1.5v2c0.5,0,1.2,0.1,1.9,0.2s1.3,0.3,1.7,0.4v2.5H82
			c-0.4-0.2-0.9-0.4-1.5-0.6s-1.1-0.3-1.8-0.3v2.2l0.7,0.1c1.3,0.3,2.3,0.6,2.9,1.2S83.4,172.3,83.4,173.2z M77.4,169.5v-2
			c-0.4,0-0.7,0.1-1,0.3s-0.5,0.4-0.5,0.7c0,0.3,0.1,0.5,0.3,0.6S76.8,169.4,77.4,169.5z M80.2,173.5c0-0.3-0.2-0.6-0.5-0.8
			s-0.6-0.3-0.9-0.3v2.2c0.4-0.1,0.7-0.2,1-0.3S80.2,173.9,80.2,173.5z"/>
		<path class="st4" d="M95.4,177h-8.7v-2.3h2.8v-6.9h-2.8v-2.1c0.4,0,0.8,0,1.2-0.1s0.7-0.1,1-0.3c0.3-0.1,0.5-0.3,0.7-0.6
			s0.2-0.5,0.3-0.9h2.9v10.8h2.7V177z"/>
		<path class="st4" d="M108.8,172.5c0,0.7-0.1,1.3-0.4,1.9s-0.6,1.1-1.1,1.5c-0.5,0.4-1.2,0.8-1.9,1s-1.5,0.3-2.4,0.3
			c-1,0-1.9-0.1-2.7-0.3s-1.3-0.3-1.8-0.5v-2.9H99c0.5,0.3,1.1,0.6,1.7,0.8s1.2,0.3,1.8,0.3c0.4,0,0.8,0,1.2-0.1s0.8-0.2,1-0.5
			c0.2-0.2,0.4-0.4,0.5-0.6s0.2-0.5,0.2-0.9c0-0.3-0.1-0.6-0.2-0.8s-0.3-0.4-0.5-0.5c-0.3-0.2-0.7-0.3-1.1-0.4s-0.8-0.1-1.2-0.1
			c-0.5,0-1,0-1.5,0.1s-0.9,0.2-1.3,0.3h-0.4v-7.4h9.3v2.5h-6.1v2.1c0.2,0,0.4,0,0.7,0s0.5,0,0.7,0c0.7,0,1.4,0.1,1.9,0.2
			s1.1,0.3,1.5,0.6c0.5,0.3,0.9,0.7,1.2,1.3S108.8,171.7,108.8,172.5z"/>
		<path class="st4" d="M115.4,173.5l-3.2,6.7h-2l1.7-6.7H115.4z"/>
		<path class="st4" d="M128.4,172.5c0,0.7-0.1,1.3-0.4,1.9c-0.2,0.6-0.6,1.1-1,1.5c-0.5,0.4-1,0.8-1.6,1s-1.4,0.3-2.2,0.3
			c-0.8,0-1.5-0.1-2.1-0.3s-1.2-0.5-1.7-1c-0.5-0.5-0.9-1.2-1.2-2s-0.4-1.7-0.4-2.9c0-1.1,0.1-2.2,0.4-3.1s0.7-1.7,1.3-2.4
			c0.6-0.7,1.3-1.2,2.2-1.5s2-0.5,3.3-0.5c0.4,0,0.9,0,1.4,0.1s0.8,0.1,1,0.1v2.6h-0.3c-0.2-0.1-0.4-0.2-0.8-0.3s-0.8-0.1-1.3-0.1
			c-1.1,0-2,0.3-2.6,0.8s-1,1.3-1.1,2.3c0.5-0.3,0.9-0.5,1.4-0.7s1-0.3,1.6-0.3c0.5,0,1,0.1,1.4,0.2s0.8,0.3,1.2,0.6
			c0.5,0.3,0.9,0.8,1.2,1.4C128.2,170.9,128.4,171.7,128.4,172.5z M124.4,174.5c0.2-0.2,0.3-0.4,0.4-0.7s0.2-0.6,0.2-1.1
			c0-0.4-0.1-0.8-0.2-1.1s-0.3-0.5-0.5-0.7c-0.2-0.2-0.5-0.3-0.7-0.3s-0.6-0.1-0.9-0.1c-0.3,0-0.5,0-0.8,0.1s-0.5,0.1-0.8,0.2
			c0,0.1,0,0.2,0,0.3s0,0.3,0,0.5c0,0.7,0.1,1.3,0.2,1.8s0.3,0.8,0.6,1.1c0.2,0.2,0.4,0.3,0.6,0.4s0.5,0.1,0.7,0.1
			c0.2,0,0.4,0,0.6-0.1S124.2,174.7,124.4,174.5z"/>
		<path class="st4" d="M141.2,177h-10.3v-2.2c0.8-0.6,1.6-1.2,2.4-1.8s1.4-1.2,1.9-1.7c0.7-0.7,1.2-1.3,1.5-1.8s0.4-1,0.4-1.5
			c0-0.6-0.2-1.1-0.6-1.4s-0.9-0.5-1.7-0.5c-0.5,0-1.1,0.1-1.7,0.3s-1.1,0.5-1.7,0.9h-0.3v-2.9c0.4-0.2,1-0.4,1.8-0.5
			s1.6-0.3,2.4-0.3c1.6,0,2.9,0.3,3.8,1s1.3,1.7,1.3,2.9c0,0.8-0.2,1.6-0.6,2.4s-1,1.5-1.9,2.3c-0.5,0.5-1.1,0.9-1.6,1.4
			s-0.9,0.7-1.2,0.9h5.9V177z"/>
		<path class="st4" d="M152.7,170.8c0.3,0.2,0.5,0.5,0.7,0.9s0.3,0.8,0.3,1.3c0,0.6-0.1,1.2-0.4,1.7s-0.6,1-1.1,1.4
			c-0.5,0.4-1.1,0.7-1.7,0.8s-1.5,0.3-2.4,0.3c-1.1,0-2-0.1-2.8-0.3s-1.4-0.4-1.9-0.6v-2.9h0.3c0.5,0.3,1.1,0.6,1.8,0.8
			s1.3,0.3,1.9,0.3c0.3,0,0.7,0,1.1-0.1s0.7-0.2,1-0.4c0.2-0.1,0.4-0.3,0.5-0.5s0.2-0.5,0.2-0.9c0-0.4-0.1-0.7-0.3-0.9
			s-0.4-0.4-0.7-0.4c-0.3-0.1-0.6-0.1-1-0.2s-0.8,0-1.1,0h-0.7V169h0.7c0.5,0,0.9,0,1.2,0s0.7-0.1,0.9-0.2c0.3-0.1,0.5-0.3,0.6-0.4
			s0.2-0.5,0.2-0.8c0-0.3-0.1-0.5-0.2-0.6s-0.3-0.3-0.5-0.4c-0.2-0.1-0.5-0.2-0.8-0.2s-0.6-0.1-0.8-0.1c-0.6,0-1.1,0.1-1.8,0.3
			s-1.3,0.5-1.9,0.8h-0.3v-2.8c0.5-0.2,1.1-0.4,2-0.6s1.7-0.3,2.5-0.3c0.8,0,1.5,0.1,2.2,0.2s1.1,0.3,1.5,0.6c0.5,0.3,0.8,0.6,1.1,1
			s0.4,0.9,0.4,1.4c0,0.7-0.2,1.4-0.7,1.9s-1,0.9-1.8,1.1v0.1c0.3,0,0.6,0.1,0.9,0.2S152.4,170.6,152.7,170.8z"/>
	</g>
	<g>
		<path class="st5" d="M69.8,197.2c-0.6,0-1.1-0.1-1.6-0.2s-0.9-0.3-1.2-0.6c-0.3-0.3-0.6-0.6-0.8-1.1s-0.3-0.9-0.3-1.5
			c0-0.6,0.1-1.1,0.3-1.6s0.5-0.8,0.9-1.1c0.4-0.3,0.8-0.5,1.2-0.6s0.9-0.2,1.4-0.2c0.4,0,0.9,0,1.2,0.1s0.7,0.2,1.1,0.4v1.8h-0.3
			c-0.1-0.1-0.2-0.2-0.3-0.2c-0.1-0.1-0.3-0.2-0.4-0.3c-0.2-0.1-0.3-0.2-0.5-0.2c-0.2-0.1-0.4-0.1-0.7-0.1c-0.6,0-1,0.2-1.3,0.5
			c-0.3,0.4-0.5,0.8-0.5,1.5c0,0.6,0.2,1.1,0.5,1.4c0.3,0.3,0.8,0.5,1.3,0.5c0.3,0,0.5,0,0.7-0.1c0.2-0.1,0.4-0.1,0.5-0.2
			c0.1-0.1,0.2-0.2,0.4-0.2c0.1-0.1,0.2-0.2,0.3-0.3h0.3v1.8c-0.3,0.2-0.7,0.3-1,0.4S70.3,197.2,69.8,197.2z"/>
		<path class="st5" d="M77.6,196.3c-0.1,0.1-0.3,0.2-0.4,0.3s-0.3,0.2-0.5,0.3c-0.2,0.1-0.4,0.2-0.6,0.2s-0.5,0.1-0.7,0.1
			c-0.6,0-1.1-0.2-1.6-0.6s-0.6-0.9-0.6-1.5c0-0.5,0.1-0.9,0.3-1.2s0.5-0.5,0.9-0.7c0.4-0.2,0.9-0.3,1.5-0.4s1.2-0.1,1.8-0.2v0
			c0-0.4-0.1-0.6-0.4-0.8s-0.7-0.2-1.3-0.2c-0.3,0-0.7,0.1-1.1,0.2s-0.7,0.2-0.8,0.3h-0.2v-1.6c0.2-0.1,0.6-0.1,1.1-0.2
			s1-0.1,1.5-0.1c1.2,0,2.1,0.2,2.6,0.6s0.8,0.9,0.8,1.7v4.5h-2.1V196.3z M77.6,195.3v-1.4c-0.3,0-0.6,0.1-0.9,0.1
			c-0.3,0-0.6,0.1-0.8,0.1c-0.2,0.1-0.4,0.2-0.5,0.3s-0.2,0.3-0.2,0.5c0,0.1,0,0.2,0,0.3c0,0.1,0.1,0.2,0.2,0.2
			c0.1,0.1,0.2,0.1,0.3,0.2c0.1,0,0.3,0.1,0.6,0.1c0.2,0,0.4,0,0.6-0.1C77.2,195.5,77.4,195.4,77.6,195.3z"/>
		<path class="st5" d="M86.5,192.4h-0.2c-0.1,0-0.2-0.1-0.4-0.1s-0.4,0-0.5,0c-0.3,0-0.6,0-0.8,0.1s-0.5,0.1-0.7,0.2v4.4h-2.1v-6.6
			h2.1v1c0.5-0.4,0.9-0.7,1.2-0.8c0.3-0.1,0.7-0.2,0.9-0.2c0.1,0,0.2,0,0.3,0c0.1,0,0.2,0,0.2,0V192.4z"/>
		<path class="st5" d="M92,196.9c-0.2,0.1-0.5,0.1-0.7,0.1s-0.6,0-0.9,0c-0.8,0-1.4-0.2-1.8-0.5s-0.6-0.9-0.6-1.7v-3.1H87v-1.4h0.9
			v-1.9H90v1.9h2v1.4h-2v2.3c0,0.2,0,0.4,0,0.6c0,0.2,0,0.3,0.1,0.5c0.1,0.1,0.2,0.2,0.3,0.3c0.1,0.1,0.3,0.1,0.6,0.1
			c0.1,0,0.3,0,0.4-0.1s0.3-0.1,0.4-0.1H92V196.9z"/>
		<path class="st5" d="M99.9,194.1H95c0,0.5,0.2,0.9,0.6,1.2s0.9,0.4,1.6,0.4c0.4,0,0.9-0.1,1.3-0.2s0.7-0.3,1-0.5h0.2v1.7
			c-0.5,0.2-0.9,0.3-1.3,0.4s-0.9,0.1-1.4,0.1c-1.3,0-2.3-0.3-3-0.9s-1.1-1.4-1.1-2.5c0-1.1,0.3-1.9,1-2.6s1.6-1,2.7-1
			c1.1,0,1.9,0.3,2.4,0.8s0.8,1.3,0.8,2.3V194.1z M97.8,192.8c0-0.4-0.1-0.8-0.3-1s-0.5-0.3-1-0.3c-0.4,0-0.7,0.1-1,0.3
			s-0.4,0.5-0.4,1H97.8z"/>
		<path class="st5" d="M106.2,192.4H106c-0.1,0-0.2-0.1-0.4-0.1s-0.4,0-0.5,0c-0.3,0-0.6,0-0.8,0.1s-0.5,0.1-0.7,0.2v4.4h-2.1v-6.6
			h2.1v1c0.5-0.4,0.9-0.7,1.2-0.8c0.3-0.1,0.7-0.2,0.9-0.2c0.1,0,0.2,0,0.3,0c0.1,0,0.2,0,0.2,0V192.4z"/>
		<path class="st5" d="M111.5,196.3c-0.1,0.1-0.3,0.2-0.4,0.3s-0.3,0.2-0.5,0.3c-0.2,0.1-0.4,0.2-0.6,0.2s-0.5,0.1-0.7,0.1
			c-0.6,0-1.1-0.2-1.6-0.6s-0.6-0.9-0.6-1.5c0-0.5,0.1-0.9,0.3-1.2s0.5-0.5,0.9-0.7c0.4-0.2,0.9-0.3,1.5-0.4s1.2-0.1,1.8-0.2v0
			c0-0.4-0.1-0.6-0.4-0.8s-0.7-0.2-1.3-0.2c-0.3,0-0.7,0.1-1.1,0.2s-0.7,0.2-0.8,0.3h-0.2v-1.6c0.2-0.1,0.6-0.1,1.1-0.2
			s1-0.1,1.5-0.1c1.2,0,2.1,0.2,2.6,0.6s0.8,0.9,0.8,1.7v4.5h-2.1V196.3z M111.5,195.3v-1.4c-0.3,0-0.6,0.1-0.9,0.1
			c-0.3,0-0.6,0.1-0.8,0.1c-0.2,0.1-0.4,0.2-0.5,0.3s-0.2,0.3-0.2,0.5c0,0.1,0,0.2,0,0.3c0,0.1,0.1,0.2,0.2,0.2
			c0.1,0.1,0.2,0.1,0.3,0.2c0.1,0,0.3,0.1,0.6,0.1c0.2,0,0.4,0,0.6-0.1C111.2,195.5,111.4,195.4,111.5,195.3z"/>
		<path class="st5" d="M124.4,199.4h-2.2c-0.8-0.9-1.3-1.8-1.7-2.7s-0.5-1.9-0.5-3.1s0.2-2.1,0.5-3.1s0.9-1.8,1.7-2.7h2.2v0.2
			c-0.3,0.3-0.6,0.6-0.9,1s-0.6,0.8-0.8,1.3c-0.2,0.5-0.4,1-0.6,1.5s-0.2,1.2-0.2,1.8c0,0.7,0.1,1.3,0.2,1.8s0.3,1.1,0.6,1.5
			c0.2,0.5,0.5,0.9,0.8,1.3s0.6,0.7,0.9,1V199.4z"/>
		<path class="st5" d="M132.9,192.3v4.7h-2.1v-3.3c0-0.3,0-0.6,0-0.8s-0.1-0.4-0.1-0.5s-0.2-0.2-0.3-0.3s-0.3-0.1-0.6-0.1
			c-0.2,0-0.4,0-0.6,0.1s-0.4,0.2-0.5,0.3v4.7h-2.1v-6.6h2.1v0.7c0.4-0.3,0.7-0.5,1-0.7s0.7-0.2,1.1-0.2c0.4,0,0.8,0.1,1.1,0.3
			c0.3,0.2,0.6,0.5,0.8,0.9c0.4-0.4,0.8-0.6,1.2-0.8s0.8-0.3,1.2-0.3c0.7,0,1.2,0.2,1.6,0.6c0.4,0.4,0.6,1,0.6,1.8v4.3h-2.1v-3.3
			c0-0.3,0-0.6,0-0.8s-0.1-0.4-0.1-0.5c-0.1-0.1-0.2-0.2-0.3-0.3s-0.3-0.1-0.6-0.1c-0.2,0-0.3,0-0.5,0.1S133.2,192.2,132.9,192.3z"
			/>
		<path class="st5" d="M141.5,189.5h-2.2v-1.6h2.2V189.5z M141.4,197h-2.1v-6.6h2.1V197z"/>
		<path class="st5" d="M145.7,197h-2.1v-9.1h2.1V197z"/>
		<path class="st5" d="M149.9,197h-2.1v-9.1h2.1V197z"/>
		<path class="st5" d="M158.7,193.7c0,1.1-0.3,1.9-0.9,2.6s-1.5,0.9-2.7,0.9s-2-0.3-2.7-0.9s-0.9-1.5-0.9-2.6c0-1.1,0.3-1.9,1-2.6
			s1.5-0.9,2.7-0.9c1.1,0,2,0.3,2.7,0.9S158.7,192.6,158.7,193.7z M156.1,195.3c0.1-0.2,0.2-0.4,0.3-0.6s0.1-0.6,0.1-1
			c0-0.4,0-0.7-0.1-1s-0.2-0.5-0.3-0.6c-0.1-0.2-0.3-0.3-0.5-0.3s-0.4-0.1-0.6-0.1s-0.4,0-0.5,0.1s-0.3,0.2-0.5,0.3
			c-0.1,0.2-0.2,0.4-0.3,0.6s-0.1,0.6-0.1,1c0,0.4,0,0.7,0.1,0.9s0.2,0.5,0.3,0.6c0.1,0.2,0.3,0.3,0.4,0.3s0.4,0.1,0.6,0.1
			c0.2,0,0.4,0,0.5-0.1S156,195.4,156.1,195.3z"/>
		<path class="st5" d="M166.9,197h-2.1v-3.3c0-0.3,0-0.5,0-0.8s-0.1-0.5-0.1-0.6c-0.1-0.1-0.2-0.2-0.3-0.3s-0.4-0.1-0.6-0.1
			c-0.2,0-0.4,0-0.6,0.1s-0.4,0.2-0.6,0.3v4.7h-2.1v-6.6h2.1v0.7c0.4-0.3,0.7-0.5,1.1-0.7s0.7-0.2,1.1-0.2c0.7,0,1.3,0.2,1.7,0.6
			c0.4,0.4,0.6,1,0.6,1.9V197z"/>
		<path class="st5" d="M175.5,194.1h-4.8c0,0.5,0.2,0.9,0.6,1.2s0.9,0.4,1.6,0.4c0.4,0,0.9-0.1,1.3-0.2s0.7-0.3,1-0.5h0.2v1.7
			c-0.5,0.2-0.9,0.3-1.3,0.4s-0.9,0.1-1.4,0.1c-1.3,0-2.3-0.3-3-0.9s-1.1-1.4-1.1-2.5c0-1.1,0.3-1.9,1-2.6s1.6-1,2.7-1
			c1.1,0,1.9,0.3,2.4,0.8s0.8,1.3,0.8,2.3V194.1z M173.4,192.8c0-0.4-0.1-0.8-0.3-1s-0.5-0.3-1-0.3c-0.4,0-0.7,0.1-1,0.3
			s-0.4,0.5-0.4,1H173.4z"/>
		<path class="st5" d="M182.8,194.9c0,0.7-0.3,1.2-0.9,1.6s-1.4,0.6-2.5,0.6c-0.6,0-1.1-0.1-1.6-0.2s-0.9-0.2-1.1-0.4v-1.7h0.2
			c0.1,0.1,0.2,0.2,0.4,0.2s0.3,0.2,0.6,0.3c0.2,0.1,0.5,0.2,0.7,0.2s0.6,0.1,0.9,0.1c0.4,0,0.7,0,0.9-0.1s0.3-0.2,0.3-0.4
			c0-0.2-0.1-0.3-0.2-0.3s-0.3-0.1-0.7-0.2c-0.2,0-0.4-0.1-0.6-0.1s-0.5-0.1-0.7-0.1c-0.6-0.2-1-0.4-1.3-0.7s-0.4-0.7-0.4-1.2
			c0-0.6,0.3-1.2,0.9-1.6s1.4-0.6,2.5-0.6c0.5,0,1,0,1.4,0.1s0.8,0.2,1.1,0.3v1.7h-0.2c-0.3-0.2-0.7-0.4-1.1-0.5s-0.8-0.2-1.2-0.2
			c-0.3,0-0.6,0-0.9,0.1s-0.3,0.2-0.3,0.4c0,0.2,0.1,0.3,0.2,0.4s0.4,0.2,0.7,0.2c0.2,0,0.4,0.1,0.7,0.1s0.5,0.1,0.7,0.2
			c0.6,0.1,1,0.4,1.2,0.7S182.8,194.4,182.8,194.9z"/>
		<path class="st5" d="M194.9,197h-2.1v-0.7c-0.4,0.3-0.7,0.5-1,0.7c-0.3,0.1-0.7,0.2-1.1,0.2c-0.8,0-1.4-0.3-1.9-0.9
			s-0.7-1.4-0.7-2.5c0-0.6,0.1-1.1,0.2-1.5c0.2-0.4,0.4-0.8,0.7-1.1c0.3-0.3,0.6-0.5,1-0.7s0.8-0.2,1.1-0.2c0.4,0,0.7,0,1,0.1
			s0.5,0.2,0.8,0.3v-2.8h2.1V197z M192.8,195.2v-3.2c-0.1-0.1-0.3-0.1-0.5-0.1c-0.2,0-0.3,0-0.5,0c-0.6,0-1,0.2-1.2,0.5
			s-0.4,0.8-0.4,1.4c0,0.6,0.1,1.1,0.3,1.4s0.6,0.4,1.1,0.4c0.2,0,0.4,0,0.6-0.1S192.6,195.3,192.8,195.2z"/>
		<path class="st5" d="M203.5,194.1h-4.8c0,0.5,0.2,0.9,0.6,1.2s0.9,0.4,1.6,0.4c0.4,0,0.9-0.1,1.3-0.2s0.7-0.3,1-0.5h0.2v1.7
			c-0.5,0.2-0.9,0.3-1.3,0.4s-0.9,0.1-1.4,0.1c-1.3,0-2.3-0.3-3-0.9s-1.1-1.4-1.1-2.5c0-1.1,0.3-1.9,1-2.6s1.6-1,2.7-1
			c1.1,0,1.9,0.3,2.4,0.8s0.8,1.3,0.8,2.3V194.1z M201.4,192.8c0-0.4-0.1-0.8-0.3-1s-0.5-0.3-1-0.3c-0.4,0-0.7,0.1-1,0.3
			s-0.4,0.5-0.4,1H201.4z"/>
		<path class="st5" d="M216.2,193.6c0,0.5-0.1,1-0.2,1.5c-0.2,0.4-0.4,0.8-0.7,1.1c-0.3,0.3-0.6,0.5-1,0.7s-0.7,0.2-1.1,0.2
			c-0.4,0-0.7,0-1-0.1c-0.3-0.1-0.5-0.2-0.8-0.3v2.7h-2.1v-9h2.1v0.7c0.3-0.3,0.7-0.5,1-0.6s0.7-0.2,1.2-0.2c0.8,0,1.5,0.3,1.9,0.9
			C216,191.7,216.2,192.5,216.2,193.6z M214,193.6c0-0.6-0.1-1.1-0.3-1.4c-0.2-0.3-0.6-0.4-1-0.4c-0.2,0-0.4,0-0.6,0.1
			s-0.4,0.1-0.6,0.3v3.3c0.1,0.1,0.3,0.1,0.5,0.1s0.3,0,0.5,0c0.6,0,1-0.2,1.2-0.5S214,194.3,214,193.6z"/>
		<path class="st5" d="M224.3,194.1h-4.8c0,0.5,0.2,0.9,0.6,1.2s0.9,0.4,1.6,0.4c0.4,0,0.9-0.1,1.3-0.2s0.7-0.3,1-0.5h0.2v1.7
			c-0.5,0.2-0.9,0.3-1.3,0.4s-0.9,0.1-1.4,0.1c-1.3,0-2.3-0.3-3-0.9s-1.1-1.4-1.1-2.5c0-1.1,0.3-1.9,1-2.6s1.6-1,2.7-1
			c1.1,0,1.9,0.3,2.4,0.8s0.8,1.3,0.8,2.3V194.1z M222.2,192.8c0-0.4-0.1-0.8-0.3-1s-0.5-0.3-1-0.3c-0.4,0-0.7,0.1-1,0.3
			s-0.4,0.5-0.4,1H222.2z"/>
		<path class="st5" d="M231.6,194.9c0,0.7-0.3,1.2-0.9,1.6s-1.4,0.6-2.5,0.6c-0.6,0-1.1-0.1-1.6-0.2s-0.9-0.2-1.1-0.4v-1.7h0.2
			c0.1,0.1,0.2,0.2,0.4,0.2s0.3,0.2,0.6,0.3c0.2,0.1,0.5,0.2,0.7,0.2s0.6,0.1,0.9,0.1c0.4,0,0.7,0,0.9-0.1s0.3-0.2,0.3-0.4
			c0-0.2-0.1-0.3-0.2-0.3s-0.3-0.1-0.7-0.2c-0.2,0-0.4-0.1-0.6-0.1s-0.5-0.1-0.7-0.1c-0.6-0.2-1-0.4-1.3-0.7s-0.4-0.7-0.4-1.2
			c0-0.6,0.3-1.2,0.9-1.6s1.4-0.6,2.5-0.6c0.5,0,1,0,1.4,0.1s0.8,0.2,1.1,0.3v1.7h-0.2c-0.3-0.2-0.7-0.4-1.1-0.5s-0.8-0.2-1.2-0.2
			c-0.3,0-0.6,0-0.9,0.1s-0.3,0.2-0.3,0.4c0,0.2,0.1,0.3,0.2,0.4s0.4,0.2,0.7,0.2c0.2,0,0.4,0.1,0.7,0.1s0.5,0.1,0.7,0.2
			c0.6,0.1,1,0.4,1.2,0.7S231.6,194.4,231.6,194.9z"/>
		<path class="st5" d="M239.8,193.7c0,1.1-0.3,1.9-0.9,2.6s-1.5,0.9-2.7,0.9s-2-0.3-2.7-0.9s-0.9-1.5-0.9-2.6c0-1.1,0.3-1.9,1-2.6
			s1.5-0.9,2.7-0.9c1.1,0,2,0.3,2.7,0.9S239.8,192.6,239.8,193.7z M237.2,195.3c0.1-0.2,0.2-0.4,0.3-0.6s0.1-0.6,0.1-1
			c0-0.4,0-0.7-0.1-1s-0.2-0.5-0.3-0.6c-0.1-0.2-0.3-0.3-0.5-0.3s-0.4-0.1-0.6-0.1s-0.4,0-0.5,0.1s-0.3,0.2-0.5,0.3
			c-0.1,0.2-0.2,0.4-0.3,0.6s-0.1,0.6-0.1,1c0,0.4,0,0.7,0.1,0.9s0.2,0.5,0.3,0.6c0.1,0.2,0.3,0.3,0.4,0.3s0.4,0.1,0.6,0.1
			c0.2,0,0.4,0,0.5-0.1S237.1,195.4,237.2,195.3z"/>
		<path class="st5" d="M247.2,194.9c0,0.7-0.3,1.2-0.9,1.6s-1.4,0.6-2.5,0.6c-0.6,0-1.1-0.1-1.6-0.2s-0.9-0.2-1.1-0.4v-1.7h0.2
			c0.1,0.1,0.2,0.2,0.4,0.2s0.3,0.2,0.6,0.3c0.2,0.1,0.5,0.2,0.7,0.2s0.6,0.1,0.9,0.1c0.4,0,0.7,0,0.9-0.1s0.3-0.2,0.3-0.4
			c0-0.2-0.1-0.3-0.2-0.3s-0.3-0.1-0.7-0.2c-0.2,0-0.4-0.1-0.6-0.1s-0.5-0.1-0.7-0.1c-0.6-0.2-1-0.4-1.3-0.7s-0.4-0.7-0.4-1.2
			c0-0.6,0.3-1.2,0.9-1.6s1.4-0.6,2.5-0.6c0.5,0,1,0,1.4,0.1s0.8,0.2,1.1,0.3v1.7h-0.2c-0.3-0.2-0.7-0.4-1.1-0.5s-0.8-0.2-1.2-0.2
			c-0.3,0-0.6,0-0.9,0.1s-0.3,0.2-0.3,0.4c0,0.2,0.1,0.3,0.2,0.4s0.4,0.2,0.7,0.2c0.2,0,0.4,0.1,0.7,0.1s0.5,0.1,0.7,0.2
			c0.6,0.1,1,0.4,1.2,0.7S247.2,194.4,247.2,194.9z"/>
		<path class="st5" d="M253.1,193.6c0,1.1-0.2,2.1-0.5,3.1s-0.9,1.8-1.7,2.7h-2.2v-0.2c0.3-0.3,0.6-0.6,0.9-1s0.6-0.8,0.8-1.3
			c0.2-0.5,0.4-1,0.6-1.5s0.2-1.1,0.2-1.8c0-0.6-0.1-1.2-0.2-1.8s-0.3-1.1-0.6-1.5c-0.2-0.5-0.5-0.9-0.8-1.3s-0.6-0.7-0.9-1v-0.2
			h2.2c0.8,0.9,1.3,1.8,1.7,2.7S253.1,192.5,253.1,193.6z"/>
	</g>
	<g>
		<path class="st4" d="M83.7,236.4h-1.8v3h-3.2v-3h-6.3v-2.5l6.1-7.6h3.4v7.7h1.8V236.4z M78.6,234v-4.7l-3.8,4.7H78.6z"/>
		<path class="st4" d="M89.3,239.4H86v-3.5h3.3V239.4z"/>
		<path class="st4" d="M102.5,234.9c0,0.7-0.1,1.3-0.4,1.9s-0.6,1.1-1.1,1.5c-0.5,0.4-1.2,0.8-1.9,1c-0.7,0.2-1.5,0.3-2.4,0.3
			c-1,0-1.9-0.1-2.7-0.3c-0.7-0.2-1.3-0.3-1.8-0.5V236h0.4c0.5,0.3,1.1,0.6,1.7,0.8s1.2,0.3,1.8,0.3c0.4,0,0.8,0,1.2-0.1
			s0.8-0.2,1-0.5c0.2-0.2,0.4-0.4,0.5-0.6s0.2-0.5,0.2-0.9c0-0.3-0.1-0.6-0.2-0.8c-0.1-0.2-0.3-0.4-0.5-0.5
			c-0.3-0.2-0.7-0.3-1.1-0.4c-0.4-0.1-0.8-0.1-1.2-0.1c-0.5,0-1,0-1.5,0.1c-0.5,0.1-0.9,0.2-1.3,0.3h-0.4v-7.4h9.3v2.5H96v2.1
			c0.2,0,0.4,0,0.7,0c0.3,0,0.5,0,0.7,0c0.7,0,1.4,0.1,1.9,0.2s1.1,0.3,1.5,0.6c0.5,0.3,0.9,0.7,1.2,1.3
			C102.3,233.5,102.5,234.1,102.5,234.9z"/>
		<path class="st4" d="M115.6,235.7c0,1.2-0.5,2.1-1.5,2.8s-2.3,1.1-4.1,1.1c-1,0-1.8-0.1-2.5-0.3s-1.3-0.5-1.7-0.8
			c-0.4-0.3-0.8-0.8-1-1.2s-0.3-1-0.3-1.5c0-0.7,0.2-1.2,0.6-1.7s1-1,2-1.3v-0.1c-0.8-0.4-1.3-0.8-1.7-1.3s-0.5-1.2-0.5-1.9
			c0-1,0.5-1.9,1.4-2.5s2.2-1,3.8-1c1.6,0,2.9,0.3,3.8,0.9s1.4,1.4,1.4,2.4c0,0.6-0.2,1.2-0.6,1.7s-1,0.9-1.8,1.2v0.1
			c0.9,0.3,1.6,0.8,2,1.4S115.6,234.9,115.6,235.7z M112.2,235.9c0-0.4-0.1-0.7-0.3-1s-0.6-0.5-1.3-0.7c-0.2-0.1-0.5-0.2-0.8-0.3
			s-0.7-0.2-0.9-0.3c-0.3,0.2-0.5,0.5-0.7,0.8c-0.2,0.3-0.3,0.7-0.3,1.1c0,0.6,0.2,1.1,0.7,1.5c0.4,0.4,1,0.5,1.7,0.5
			c0.2,0,0.4,0,0.7-0.1c0.3-0.1,0.5-0.1,0.7-0.3c0.2-0.1,0.4-0.3,0.5-0.5S112.2,236.2,112.2,235.9z M112,229.7
			c0-0.4-0.2-0.8-0.5-1.1s-0.8-0.4-1.4-0.4c-0.2,0-0.4,0-0.6,0.1s-0.4,0.1-0.6,0.2c-0.2,0.1-0.3,0.2-0.4,0.4s-0.2,0.3-0.2,0.5
			c0,0.3,0.1,0.6,0.3,0.8s0.5,0.4,1,0.6c0.2,0.1,0.4,0.2,0.7,0.3s0.6,0.2,1,0.3c0.3-0.3,0.5-0.6,0.6-0.9S112,230,112,229.7z"/>
		<path class="st4" d="M125.7,230.3c0,1.5-0.3,2.5-1,3.2s-1.7,1.1-2.9,1.1c-1.3,0-2.3-0.4-3-1.1c-0.7-0.7-1-1.8-1-3.2
			c0-1.4,0.3-2.5,1-3.2s1.7-1.1,3-1.1c1.3,0,2.3,0.4,3,1.1S125.7,228.8,125.7,230.3z M123.1,230.3c0-0.9-0.1-1.6-0.3-1.9
			s-0.6-0.5-1.1-0.5s-0.8,0.2-1.1,0.5s-0.3,1-0.3,1.9c0,0.9,0.1,1.6,0.3,1.9c0.2,0.3,0.6,0.5,1.1,0.5s0.8-0.2,1.1-0.5
			C123,231.9,123.1,231.2,123.1,230.3z M132.5,226.3l-6.9,13.1h-2.4l6.9-13.1H132.5z M138.1,235.4c0,1.5-0.3,2.5-1,3.2
			s-1.7,1.1-2.9,1.1c-1.3,0-2.3-0.4-3-1.1c-0.7-0.7-1-1.8-1-3.2c0-1.4,0.3-2.5,1-3.2s1.7-1.1,3-1.1c1.3,0,2.3,0.4,3,1.1
			S138.1,233.9,138.1,235.4z M135.5,235.4c0-0.9-0.1-1.6-0.3-1.9s-0.6-0.5-1.1-0.5s-0.8,0.2-1.1,0.5s-0.3,1-0.3,1.9
			c0,0.9,0.1,1.6,0.3,1.9c0.2,0.3,0.6,0.5,1.1,0.5s0.8-0.2,1.1-0.5C135.4,237,135.5,236.3,135.5,235.4z"/>
	</g>
	<g>
		<path class="st5" d="M69.8,257.2c-0.6,0-1.1-0.1-1.6-0.2s-0.9-0.3-1.2-0.6c-0.3-0.3-0.6-0.6-0.8-1.1s-0.3-0.9-0.3-1.5
			c0-0.6,0.1-1.1,0.3-1.6s0.5-0.8,0.9-1.1c0.4-0.3,0.8-0.5,1.2-0.6s0.9-0.2,1.4-0.2c0.4,0,0.9,0,1.2,0.1s0.7,0.2,1.1,0.4v1.8h-0.3
			c-0.1-0.1-0.2-0.2-0.3-0.2c-0.1-0.1-0.3-0.2-0.4-0.3c-0.2-0.1-0.3-0.2-0.5-0.2c-0.2-0.1-0.4-0.1-0.7-0.1c-0.6,0-1,0.2-1.3,0.5
			c-0.3,0.4-0.5,0.8-0.5,1.5c0,0.6,0.2,1.1,0.5,1.4c0.3,0.3,0.8,0.5,1.3,0.5c0.3,0,0.5,0,0.7-0.1c0.2-0.1,0.4-0.1,0.5-0.2
			c0.1-0.1,0.2-0.2,0.4-0.2c0.1-0.1,0.2-0.2,0.3-0.3h0.3v1.8c-0.3,0.2-0.7,0.3-1,0.4S70.3,257.2,69.8,257.2z"/>
		<path class="st5" d="M77.7,256.3c-0.1,0.1-0.3,0.2-0.4,0.3s-0.3,0.2-0.5,0.3c-0.2,0.1-0.4,0.2-0.6,0.2s-0.5,0.1-0.7,0.1
			c-0.6,0-1.1-0.2-1.6-0.6s-0.6-0.9-0.6-1.5c0-0.5,0.1-0.9,0.3-1.2s0.5-0.5,0.9-0.7c0.4-0.2,0.9-0.3,1.5-0.4s1.2-0.1,1.8-0.2v0
			c0-0.4-0.1-0.6-0.4-0.8s-0.7-0.2-1.3-0.2c-0.3,0-0.7,0.1-1.1,0.2s-0.7,0.2-0.8,0.3h-0.2v-1.6c0.2-0.1,0.6-0.1,1.1-0.2
			s1-0.1,1.5-0.1c1.2,0,2.1,0.2,2.6,0.6s0.8,0.9,0.8,1.7v4.5h-2.1V256.3z M77.7,255.3v-1.4c-0.3,0-0.6,0.1-0.9,0.1s-0.6,0.1-0.8,0.1
			c-0.2,0.1-0.4,0.2-0.5,0.3c-0.1,0.1-0.2,0.3-0.2,0.5c0,0.1,0,0.2,0,0.3c0,0.1,0.1,0.2,0.2,0.2c0.1,0.1,0.2,0.1,0.3,0.2
			s0.3,0.1,0.6,0.1c0.2,0,0.4,0,0.6-0.1C77.4,255.5,77.6,255.4,77.7,255.3z"/>
		<path class="st5" d="M86.9,252.4h-0.2c-0.1,0-0.2-0.1-0.4-0.1s-0.4,0-0.5,0c-0.3,0-0.6,0-0.8,0.1s-0.5,0.1-0.7,0.2v4.4h-2.1v-6.6
			h2.1v1c0.5-0.4,0.9-0.7,1.2-0.8c0.3-0.1,0.7-0.2,0.9-0.2c0.1,0,0.2,0,0.3,0c0.1,0,0.2,0,0.2,0V252.4z"/>
		<path class="st5" d="M92.5,256.9c-0.2,0.1-0.5,0.1-0.7,0.1s-0.6,0-0.9,0c-0.8,0-1.4-0.2-1.8-0.5s-0.6-0.9-0.6-1.7v-3.1h-0.9v-1.4
			h0.9v-1.9h2.1v1.9h2v1.4h-2v2.3c0,0.2,0,0.4,0,0.6c0,0.2,0,0.3,0.1,0.5c0.1,0.1,0.2,0.2,0.3,0.3c0.1,0.1,0.3,0.1,0.6,0.1
			c0.1,0,0.3,0,0.4-0.1s0.3-0.1,0.4-0.1h0.2V256.9z"/>
		<path class="st5" d="M100.6,254.1h-4.8c0,0.5,0.2,0.9,0.6,1.2s0.9,0.4,1.6,0.4c0.4,0,0.9-0.1,1.3-0.2s0.7-0.3,1-0.5h0.2v1.7
			c-0.5,0.2-0.9,0.3-1.3,0.4s-0.9,0.1-1.4,0.1c-1.3,0-2.3-0.3-3-0.9s-1.1-1.4-1.1-2.5c0-1.1,0.3-1.9,1-2.6s1.6-1,2.7-1
			c1.1,0,1.9,0.3,2.4,0.8s0.8,1.3,0.8,2.3V254.1z M98.5,252.8c0-0.4-0.1-0.8-0.3-1s-0.5-0.3-1-0.3c-0.4,0-0.7,0.1-1,0.3
			s-0.4,0.5-0.4,1H98.5z"/>
		<path class="st5" d="M107.1,252.4h-0.2c-0.1,0-0.2-0.1-0.4-0.1s-0.4,0-0.5,0c-0.3,0-0.6,0-0.8,0.1s-0.5,0.1-0.7,0.2v4.4h-2.1v-6.6
			h2.1v1c0.5-0.4,0.9-0.7,1.2-0.8c0.3-0.1,0.7-0.2,0.9-0.2c0.1,0,0.2,0,0.3,0c0.1,0,0.2,0,0.2,0V252.4z"/>
		<path class="st5" d="M112.6,256.3c-0.1,0.1-0.3,0.2-0.4,0.3s-0.3,0.2-0.5,0.3c-0.2,0.1-0.4,0.2-0.6,0.2s-0.5,0.1-0.7,0.1
			c-0.6,0-1.1-0.2-1.6-0.6s-0.6-0.9-0.6-1.5c0-0.5,0.1-0.9,0.3-1.2s0.5-0.5,0.9-0.7c0.4-0.2,0.9-0.3,1.5-0.4s1.2-0.1,1.8-0.2v0
			c0-0.4-0.1-0.6-0.4-0.8s-0.7-0.2-1.3-0.2c-0.3,0-0.7,0.1-1.1,0.2s-0.7,0.2-0.8,0.3h-0.2v-1.6c0.2-0.1,0.6-0.1,1.1-0.2
			s1-0.1,1.5-0.1c1.2,0,2.1,0.2,2.6,0.6s0.8,0.9,0.8,1.7v4.5h-2.1V256.3z M112.6,255.3v-1.4c-0.3,0-0.6,0.1-0.9,0.1
			s-0.6,0.1-0.8,0.1c-0.2,0.1-0.4,0.2-0.5,0.3c-0.1,0.1-0.2,0.3-0.2,0.5c0,0.1,0,0.2,0,0.3c0,0.1,0.1,0.2,0.2,0.2
			c0.1,0.1,0.2,0.1,0.3,0.2s0.3,0.1,0.6,0.1c0.2,0,0.4,0,0.6-0.1C112.2,255.5,112.4,255.4,112.6,255.3z"/>
		<path class="st5" d="M128,250.4l-2.5,6.6H123l-2.5-6.6h2.2l1.5,4.5l1.5-4.5H128z"/>
		<path class="st5" d="M135.9,254.1h-4.8c0,0.5,0.2,0.9,0.6,1.2s0.9,0.4,1.6,0.4c0.4,0,0.9-0.1,1.3-0.2s0.7-0.3,1-0.5h0.2v1.7
			c-0.5,0.2-0.9,0.3-1.3,0.4s-0.9,0.1-1.4,0.1c-1.3,0-2.3-0.3-3-0.9s-1.1-1.4-1.1-2.5c0-1.1,0.3-1.9,1-2.6s1.6-1,2.7-1
			c1.1,0,1.9,0.3,2.4,0.8s0.8,1.3,0.8,2.3V254.1z M133.8,252.8c0-0.4-0.1-0.8-0.3-1s-0.5-0.3-1-0.3c-0.4,0-0.7,0.1-1,0.3
			s-0.4,0.5-0.4,1H133.8z"/>
		<path class="st5" d="M144.3,257h-2.1v-3.3c0-0.3,0-0.5,0-0.8s-0.1-0.5-0.1-0.6c-0.1-0.1-0.2-0.2-0.3-0.3s-0.4-0.1-0.6-0.1
			c-0.2,0-0.4,0-0.6,0.1s-0.4,0.2-0.6,0.3v4.7h-2.1v-6.6h2.1v0.7c0.4-0.3,0.7-0.5,1.1-0.7s0.7-0.2,1.1-0.2c0.7,0,1.3,0.2,1.7,0.6
			c0.4,0.4,0.6,1,0.6,1.9V257z"/>
		<path class="st5" d="M149.9,257.2c-0.6,0-1.1-0.1-1.6-0.2s-0.9-0.3-1.2-0.6c-0.3-0.3-0.6-0.6-0.8-1.1s-0.3-0.9-0.3-1.5
			c0-0.6,0.1-1.1,0.3-1.6s0.5-0.8,0.9-1.1c0.4-0.3,0.8-0.5,1.2-0.6s0.9-0.2,1.4-0.2c0.4,0,0.9,0,1.2,0.1s0.7,0.2,1.1,0.4v1.8h-0.3
			c-0.1-0.1-0.2-0.2-0.3-0.2c-0.1-0.1-0.3-0.2-0.4-0.3c-0.2-0.1-0.3-0.2-0.5-0.2c-0.2-0.1-0.4-0.1-0.7-0.1c-0.6,0-1,0.2-1.3,0.5
			c-0.3,0.4-0.5,0.8-0.5,1.5c0,0.6,0.2,1.1,0.5,1.4c0.3,0.3,0.8,0.5,1.3,0.5c0.3,0,0.5,0,0.7-0.1c0.2-0.1,0.4-0.1,0.5-0.2
			c0.1-0.1,0.2-0.2,0.4-0.2c0.1-0.1,0.2-0.2,0.3-0.3h0.3v1.8c-0.3,0.2-0.7,0.3-1,0.4S150.4,257.2,149.9,257.2z"/>
		<path class="st5" d="M156,249.5h-2.2v-1.6h2.2V249.5z M156,257h-2.1v-6.6h2.1V257z"/>
		<path class="st5" d="M164.7,257h-2.1v-0.7c-0.4,0.3-0.7,0.5-1,0.7c-0.3,0.1-0.7,0.2-1.1,0.2c-0.8,0-1.4-0.3-1.9-0.9
			s-0.7-1.4-0.7-2.5c0-0.6,0.1-1.1,0.2-1.5c0.2-0.4,0.4-0.8,0.7-1.1c0.3-0.3,0.6-0.5,1-0.7s0.8-0.2,1.1-0.2c0.4,0,0.7,0,1,0.1
			s0.5,0.2,0.8,0.3v-2.8h2.1V257z M162.6,255.2v-3.2c-0.1-0.1-0.3-0.1-0.5-0.1c-0.2,0-0.3,0-0.5,0c-0.6,0-1,0.2-1.2,0.5
			c-0.3,0.3-0.4,0.8-0.4,1.4c0,0.6,0.1,1.1,0.3,1.4c0.2,0.3,0.6,0.4,1.1,0.4c0.2,0,0.4,0,0.6-0.1S162.4,255.3,162.6,255.2z"/>
		<path class="st5" d="M170.9,256.3c-0.1,0.1-0.3,0.2-0.4,0.3s-0.3,0.2-0.5,0.3c-0.2,0.1-0.4,0.2-0.6,0.2s-0.5,0.1-0.7,0.1
			c-0.6,0-1.1-0.2-1.6-0.6s-0.6-0.9-0.6-1.5c0-0.5,0.1-0.9,0.3-1.2s0.5-0.5,0.9-0.7c0.4-0.2,0.9-0.3,1.5-0.4s1.2-0.1,1.8-0.2v0
			c0-0.4-0.1-0.6-0.4-0.8s-0.7-0.2-1.3-0.2c-0.3,0-0.7,0.1-1.1,0.2s-0.7,0.2-0.8,0.3H167v-1.6c0.2-0.1,0.6-0.1,1.1-0.2
			s1-0.1,1.5-0.1c1.2,0,2.1,0.2,2.6,0.6s0.8,0.9,0.8,1.7v4.5h-2.1V256.3z M170.9,255.3v-1.4c-0.3,0-0.6,0.1-0.9,0.1
			s-0.6,0.1-0.8,0.1c-0.2,0.1-0.4,0.2-0.5,0.3c-0.1,0.1-0.2,0.3-0.2,0.5c0,0.1,0,0.2,0,0.3c0,0.1,0.1,0.2,0.2,0.2
			c0.1,0.1,0.2,0.1,0.3,0.2s0.3,0.1,0.6,0.1c0.2,0,0.4,0,0.6-0.1C170.6,255.5,170.8,255.4,170.9,255.3z"/>
	</g>
	<g>
		<path class="st4" d="M83.4,293.2c0,1-0.4,1.8-1.2,2.5s-1.9,1.1-3.3,1.2v3.2h-1.5V297c-0.7,0-1.4-0.1-2.3-0.2s-1.5-0.3-2-0.6v-2.6
			h0.4c0.5,0.3,1.2,0.5,1.9,0.7s1.4,0.3,2.1,0.3v-2.4l-0.9-0.2c-0.5-0.1-1-0.3-1.5-0.4s-0.8-0.4-1.2-0.7s-0.6-0.6-0.8-1
			c-0.2-0.4-0.3-0.9-0.3-1.5c0-0.9,0.4-1.6,1.2-2.2s1.9-1,3.3-1.1v-2h1.5v2c0.5,0,1.2,0.1,1.9,0.2s1.3,0.3,1.7,0.4v2.5H82
			c-0.4-0.2-0.9-0.4-1.5-0.6s-1.1-0.3-1.8-0.3v2.2l0.7,0.1c1.3,0.3,2.3,0.6,2.9,1.2S83.4,292.3,83.4,293.2z M77.4,289.5v-2
			c-0.4,0-0.7,0.1-1,0.3c-0.3,0.2-0.5,0.4-0.5,0.7c0,0.3,0.1,0.5,0.3,0.6S76.8,289.4,77.4,289.5z M80.2,293.5c0-0.3-0.2-0.6-0.5-0.8
			c-0.3-0.2-0.6-0.3-0.9-0.3v2.2c0.4-0.1,0.7-0.2,1-0.3C80,294.1,80.2,293.9,80.2,293.5z"/>
		<path class="st4" d="M96.3,297H86v-2.2c0.8-0.6,1.6-1.2,2.4-1.8s1.4-1.2,1.9-1.7c0.7-0.7,1.2-1.3,1.5-1.8s0.4-1,0.4-1.5
			c0-0.6-0.2-1.1-0.6-1.4c-0.4-0.3-0.9-0.5-1.7-0.5c-0.5,0-1.1,0.1-1.7,0.3s-1.1,0.5-1.7,0.9h-0.3v-2.9c0.4-0.2,1-0.4,1.8-0.5
			s1.6-0.3,2.4-0.3c1.6,0,2.9,0.3,3.8,1s1.3,1.7,1.3,2.9c0,0.8-0.2,1.6-0.6,2.4s-1,1.5-1.9,2.3c-0.5,0.5-1.1,0.9-1.6,1.4
			c-0.5,0.4-0.9,0.7-1.2,0.9h5.9V297z"/>
		<path class="st4" d="M107.8,290.8c0.3,0.2,0.5,0.5,0.7,0.9s0.3,0.8,0.3,1.3c0,0.6-0.1,1.2-0.4,1.7s-0.6,1-1.1,1.4
			c-0.5,0.4-1.1,0.7-1.7,0.8c-0.7,0.2-1.5,0.3-2.4,0.3c-1.1,0-2-0.1-2.8-0.3s-1.4-0.4-1.9-0.6v-2.9h0.3c0.5,0.3,1.1,0.6,1.8,0.8
			s1.3,0.3,1.9,0.3c0.3,0,0.7,0,1.1-0.1c0.4-0.1,0.7-0.2,1-0.4c0.2-0.1,0.4-0.3,0.5-0.5c0.1-0.2,0.2-0.5,0.2-0.9
			c0-0.4-0.1-0.7-0.3-0.9s-0.4-0.4-0.7-0.4c-0.3-0.1-0.6-0.1-1-0.2c-0.4,0-0.8,0-1.1,0h-0.7V289h0.7c0.5,0,0.9,0,1.2,0
			s0.7-0.1,0.9-0.2c0.3-0.1,0.5-0.3,0.6-0.4c0.1-0.2,0.2-0.5,0.2-0.8c0-0.3-0.1-0.5-0.2-0.6c-0.1-0.2-0.3-0.3-0.5-0.4
			c-0.2-0.1-0.5-0.2-0.8-0.2s-0.6-0.1-0.8-0.1c-0.6,0-1.1,0.1-1.8,0.3s-1.3,0.5-1.9,0.8h-0.3v-2.8c0.5-0.2,1.1-0.4,2-0.6
			c0.8-0.2,1.7-0.3,2.5-0.3c0.8,0,1.5,0.1,2.2,0.2c0.6,0.1,1.1,0.3,1.5,0.6c0.5,0.3,0.8,0.6,1.1,1s0.4,0.9,0.4,1.4
			c0,0.7-0.2,1.4-0.7,1.9c-0.5,0.6-1,0.9-1.8,1.1v0.1c0.3,0,0.6,0.1,0.9,0.2S107.5,290.6,107.8,290.8z"/>
		<path class="st4" d="M115.4,293.5l-3.2,6.7h-2l1.7-6.7H115.4z"/>
		<path class="st4" d="M128.3,290.4c0,1.1-0.1,2.1-0.3,3c-0.2,0.9-0.5,1.6-0.9,2.1c-0.4,0.6-1,1-1.7,1.3s-1.5,0.4-2.5,0.4
			c-1,0-1.8-0.1-2.5-0.4s-1.3-0.7-1.7-1.3c-0.4-0.6-0.7-1.3-0.9-2.1s-0.3-1.8-0.3-2.9c0-1.1,0.1-2.1,0.3-3c0.2-0.8,0.5-1.5,0.9-2.1
			c0.4-0.6,1-1,1.7-1.3s1.5-0.4,2.5-0.4c1,0,1.8,0.1,2.5,0.4s1.2,0.7,1.7,1.3c0.4,0.6,0.7,1.3,0.9,2.1
			C128.2,288.4,128.3,289.3,128.3,290.4z M124.9,290.4c0-1.6-0.2-2.7-0.5-3.4c-0.3-0.7-0.8-1-1.5-1s-1.2,0.3-1.5,1
			c-0.3,0.7-0.5,1.8-0.5,3.4c0,1.6,0.2,2.7,0.5,3.4s0.8,1,1.5,1s1.2-0.3,1.5-1S124.9,292,124.9,290.4z"/>
		<path class="st4" d="M140.9,292.5c0,0.7-0.1,1.3-0.4,1.9s-0.6,1.1-1.1,1.5c-0.5,0.4-1.2,0.8-1.9,1c-0.7,0.2-1.5,0.3-2.4,0.3
			c-1,0-1.9-0.1-2.7-0.3c-0.7-0.2-1.3-0.3-1.8-0.5v-2.9h0.4c0.5,0.3,1.1,0.6,1.7,0.8s1.2,0.3,1.8,0.3c0.4,0,0.8,0,1.2-0.1
			s0.8-0.2,1-0.5c0.2-0.2,0.4-0.4,0.5-0.6s0.2-0.5,0.2-0.9c0-0.3-0.1-0.6-0.2-0.8c-0.1-0.2-0.3-0.4-0.5-0.5
			c-0.3-0.2-0.7-0.3-1.1-0.4c-0.4-0.1-0.8-0.1-1.2-0.1c-0.5,0-1,0-1.5,0.1c-0.5,0.1-0.9,0.2-1.3,0.3h-0.4v-7.4h9.3v2.5h-6.1v2.1
			c0.2,0,0.4,0,0.7,0c0.3,0,0.5,0,0.7,0c0.7,0,1.4,0.1,1.9,0.2s1.1,0.3,1.5,0.6c0.5,0.3,0.9,0.7,1.2,1.3
			C140.7,291.1,140.9,291.7,140.9,292.5z"/>
		<path class="st4" d="M153.7,292.5c0,0.7-0.1,1.3-0.4,1.9s-0.6,1.1-1.1,1.5c-0.5,0.4-1.2,0.8-1.9,1c-0.7,0.2-1.5,0.3-2.4,0.3
			c-1,0-1.9-0.1-2.7-0.3c-0.7-0.2-1.3-0.3-1.8-0.5v-2.9h0.4c0.5,0.3,1.1,0.6,1.7,0.8s1.2,0.3,1.8,0.3c0.4,0,0.8,0,1.2-0.1
			s0.8-0.2,1-0.5c0.2-0.2,0.4-0.4,0.5-0.6s0.2-0.5,0.2-0.9c0-0.3-0.1-0.6-0.2-0.8c-0.1-0.2-0.3-0.4-0.5-0.5
			c-0.3-0.2-0.7-0.3-1.1-0.4c-0.4-0.1-0.8-0.1-1.2-0.1c-0.5,0-1,0-1.5,0.1c-0.5,0.1-0.9,0.2-1.3,0.3H144v-7.4h9.3v2.5h-6.1v2.1
			c0.2,0,0.4,0,0.7,0c0.3,0,0.5,0,0.7,0c0.7,0,1.4,0.1,1.9,0.2s1.1,0.3,1.5,0.6c0.5,0.3,0.9,0.7,1.2,1.3
			C153.5,291.1,153.7,291.7,153.7,292.5z"/>
	</g>
	<g>
		<path class="st5" d="M72.1,314.9c0,0.7-0.3,1.2-0.9,1.6s-1.4,0.6-2.5,0.6c-0.6,0-1.1-0.1-1.6-0.2s-0.9-0.2-1.1-0.4v-1.7h0.2
			c0.1,0.1,0.2,0.2,0.4,0.2s0.3,0.2,0.6,0.3c0.2,0.1,0.5,0.2,0.7,0.2s0.6,0.1,0.9,0.1c0.4,0,0.7,0,0.9-0.1s0.3-0.2,0.3-0.4
			c0-0.2-0.1-0.3-0.2-0.3s-0.3-0.1-0.7-0.2c-0.2,0-0.4-0.1-0.6-0.1s-0.5-0.1-0.7-0.1c-0.6-0.2-1-0.4-1.3-0.7s-0.4-0.7-0.4-1.2
			c0-0.6,0.3-1.2,0.9-1.6s1.4-0.6,2.5-0.6c0.5,0,1,0,1.4,0.1s0.8,0.2,1.1,0.3v1.7h-0.2c-0.3-0.2-0.7-0.4-1.1-0.5s-0.8-0.2-1.2-0.2
			c-0.3,0-0.6,0-0.9,0.1s-0.3,0.2-0.3,0.4c0,0.2,0.1,0.3,0.2,0.4s0.4,0.2,0.7,0.2c0.2,0,0.4,0.1,0.7,0.1s0.5,0.1,0.7,0.2
			c0.6,0.1,1,0.4,1.2,0.7S72.1,314.4,72.1,314.9z"/>
		<path class="st5" d="M77.8,316.3c-0.1,0.1-0.3,0.2-0.4,0.3s-0.3,0.2-0.5,0.3c-0.2,0.1-0.4,0.2-0.6,0.2s-0.5,0.1-0.7,0.1
			c-0.6,0-1.1-0.2-1.6-0.6s-0.6-0.9-0.6-1.5c0-0.5,0.1-0.9,0.3-1.2s0.5-0.5,0.9-0.7c0.4-0.2,0.9-0.3,1.5-0.4s1.2-0.1,1.8-0.2v0
			c0-0.4-0.1-0.6-0.4-0.8s-0.7-0.2-1.3-0.2c-0.3,0-0.7,0.1-1.1,0.2s-0.7,0.2-0.8,0.3h-0.2v-1.6c0.2-0.1,0.6-0.1,1.1-0.2
			s1-0.1,1.5-0.1c1.2,0,2.1,0.2,2.6,0.6s0.8,0.9,0.8,1.7v4.5h-2.1V316.3z M77.8,315.3v-1.4c-0.3,0-0.6,0.1-0.9,0.1s-0.6,0.1-0.8,0.1
			c-0.2,0.1-0.4,0.2-0.5,0.3c-0.1,0.1-0.2,0.3-0.2,0.5c0,0.1,0,0.2,0,0.3c0,0.1,0.1,0.2,0.2,0.2c0.1,0.1,0.2,0.1,0.3,0.2
			s0.3,0.1,0.6,0.1c0.2,0,0.4,0,0.6-0.1C77.5,315.5,77.6,315.4,77.8,315.3z"/>
		<path class="st5" d="M84.3,317h-2.1v-9.1h2.1V317z"/>
		<path class="st5" d="M92.9,317h-2.1v-0.7c-0.4,0.3-0.7,0.5-1,0.7c-0.3,0.1-0.7,0.2-1.1,0.2c-0.8,0-1.4-0.3-1.9-0.9
			s-0.7-1.4-0.7-2.5c0-0.6,0.1-1.1,0.2-1.5c0.2-0.4,0.4-0.8,0.7-1.1c0.3-0.3,0.6-0.5,1-0.7s0.8-0.2,1.1-0.2c0.4,0,0.7,0,1,0.1
			s0.5,0.2,0.8,0.3v-2.8h2.1V317z M90.8,315.2v-3.2c-0.1-0.1-0.3-0.1-0.5-0.1c-0.2,0-0.3,0-0.5,0c-0.6,0-1,0.2-1.2,0.5
			c-0.3,0.3-0.4,0.8-0.4,1.4c0,0.6,0.1,1.1,0.3,1.4c0.2,0.3,0.6,0.4,1.1,0.4c0.2,0,0.4,0,0.6-0.1S90.7,315.3,90.8,315.2z"/>
		<path class="st5" d="M101.9,313.7c0,1.1-0.3,1.9-0.9,2.6s-1.5,0.9-2.7,0.9s-2-0.3-2.7-0.9s-0.9-1.5-0.9-2.6c0-1.1,0.3-1.9,1-2.6
			s1.5-0.9,2.7-0.9c1.1,0,2,0.3,2.7,0.9S101.9,312.6,101.9,313.7z M99.4,315.3c0.1-0.2,0.2-0.4,0.3-0.6s0.1-0.6,0.1-1
			c0-0.4,0-0.7-0.1-1s-0.2-0.5-0.3-0.6c-0.1-0.2-0.3-0.3-0.5-0.3s-0.4-0.1-0.6-0.1s-0.4,0-0.5,0.1s-0.3,0.2-0.5,0.3
			c-0.1,0.2-0.2,0.4-0.3,0.6s-0.1,0.6-0.1,1c0,0.4,0,0.7,0.1,0.9s0.2,0.5,0.3,0.6c0.1,0.2,0.3,0.3,0.4,0.3s0.4,0.1,0.6,0.1
			c0.2,0,0.4,0,0.5-0.1S99.2,315.4,99.4,315.3z"/>
		<path class="st5" d="M115,313.6c0,0.5-0.1,1-0.2,1.5c-0.2,0.4-0.4,0.8-0.7,1.1c-0.3,0.3-0.6,0.5-1,0.7s-0.7,0.2-1.1,0.2
			c-0.4,0-0.7,0-1-0.1c-0.3-0.1-0.5-0.2-0.8-0.3v2.7h-2.1v-9h2.1v0.7c0.3-0.3,0.7-0.5,1-0.6s0.7-0.2,1.2-0.2c0.8,0,1.5,0.3,1.9,0.9
			C114.8,311.7,115,312.5,115,313.6z M112.8,313.6c0-0.6-0.1-1.1-0.3-1.4c-0.2-0.3-0.6-0.4-1-0.4c-0.2,0-0.4,0-0.6,0.1
			s-0.4,0.1-0.6,0.3v3.3c0.1,0.1,0.3,0.1,0.5,0.1s0.3,0,0.5,0c0.6,0,1-0.2,1.2-0.5C112.7,314.8,112.8,314.3,112.8,313.6z"/>
		<path class="st5" d="M121.6,312.4h-0.2c-0.1,0-0.2-0.1-0.4-0.1s-0.4,0-0.5,0c-0.3,0-0.6,0-0.8,0.1s-0.5,0.1-0.7,0.2v4.4h-2.1v-6.6
			h2.1v1c0.5-0.4,0.9-0.7,1.2-0.8c0.3-0.1,0.7-0.2,0.9-0.2c0.1,0,0.2,0,0.3,0c0.1,0,0.2,0,0.2,0V312.4z"/>
		<path class="st5" d="M129.8,313.7c0,1.1-0.3,1.9-0.9,2.6s-1.5,0.9-2.7,0.9s-2-0.3-2.7-0.9s-0.9-1.5-0.9-2.6c0-1.1,0.3-1.9,1-2.6
			s1.5-0.9,2.7-0.9c1.1,0,2,0.3,2.7,0.9S129.8,312.6,129.8,313.7z M127.2,315.3c0.1-0.2,0.2-0.4,0.3-0.6s0.1-0.6,0.1-1
			c0-0.4,0-0.7-0.1-1s-0.2-0.5-0.3-0.6c-0.1-0.2-0.3-0.3-0.5-0.3s-0.4-0.1-0.6-0.1s-0.4,0-0.5,0.1s-0.3,0.2-0.5,0.3
			c-0.1,0.2-0.2,0.4-0.3,0.6s-0.1,0.6-0.1,1c0,0.4,0,0.7,0.1,0.9s0.2,0.5,0.3,0.6c0.1,0.2,0.3,0.3,0.4,0.3s0.4,0.1,0.6,0.1
			c0.2,0,0.4,0,0.5-0.1S127.1,315.4,127.2,315.3z"/>
		<path class="st5" d="M138,312.3v4.7h-2.1v-3.3c0-0.3,0-0.6,0-0.8s-0.1-0.4-0.1-0.5s-0.2-0.2-0.3-0.3s-0.3-0.1-0.6-0.1
			c-0.2,0-0.4,0-0.6,0.1s-0.4,0.2-0.5,0.3v4.7h-2.1v-6.6h2.1v0.7c0.4-0.3,0.7-0.5,1-0.7s0.7-0.2,1.1-0.2c0.4,0,0.8,0.1,1.1,0.3
			c0.3,0.2,0.6,0.5,0.8,0.9c0.4-0.4,0.8-0.6,1.2-0.8s0.8-0.3,1.2-0.3c0.7,0,1.2,0.2,1.6,0.6c0.4,0.4,0.6,1,0.6,1.8v4.3h-2.1v-3.3
			c0-0.3,0-0.6,0-0.8s-0.1-0.4-0.1-0.5c-0.1-0.1-0.2-0.2-0.3-0.3s-0.3-0.1-0.6-0.1c-0.2,0-0.3,0-0.5,0.1S138.3,312.2,138,312.3z"/>
		<path class="st5" d="M151.1,314.1h-4.8c0,0.5,0.2,0.9,0.6,1.2s0.9,0.4,1.6,0.4c0.4,0,0.9-0.1,1.3-0.2s0.7-0.3,1-0.5h0.2v1.7
			c-0.5,0.2-0.9,0.3-1.3,0.4s-0.9,0.1-1.4,0.1c-1.3,0-2.3-0.3-3-0.9s-1.1-1.4-1.1-2.5c0-1.1,0.3-1.9,1-2.6s1.6-1,2.7-1
			c1.1,0,1.9,0.3,2.4,0.8s0.8,1.3,0.8,2.3V314.1z M149,312.8c0-0.4-0.1-0.8-0.3-1s-0.5-0.3-1-0.3c-0.4,0-0.7,0.1-1,0.3
			s-0.4,0.5-0.4,1H149z"/>
		<path class="st5" d="M159.2,317h-2.1v-0.7c-0.4,0.3-0.7,0.5-1,0.7c-0.3,0.1-0.7,0.2-1.1,0.2c-0.8,0-1.4-0.3-1.9-0.9
			s-0.7-1.4-0.7-2.5c0-0.6,0.1-1.1,0.2-1.5c0.2-0.4,0.4-0.8,0.7-1.1c0.3-0.3,0.6-0.5,1-0.7s0.8-0.2,1.1-0.2c0.4,0,0.7,0,1,0.1
			s0.5,0.2,0.8,0.3v-2.8h2.1V317z M157.1,315.2v-3.2c-0.1-0.1-0.3-0.1-0.5-0.1c-0.2,0-0.3,0-0.5,0c-0.6,0-1,0.2-1.2,0.5
			c-0.3,0.3-0.4,0.8-0.4,1.4c0,0.6,0.1,1.1,0.3,1.4c0.2,0.3,0.6,0.4,1.1,0.4c0.2,0,0.4,0,0.6-0.1S157,315.3,157.1,315.2z"/>
		<path class="st5" d="M163.7,309.5h-2.2v-1.6h2.2V309.5z M163.6,317h-2.1v-6.6h2.1V317z"/>
		<path class="st5" d="M172.7,313.7c0,1.1-0.3,1.9-0.9,2.6s-1.5,0.9-2.7,0.9s-2-0.3-2.7-0.9s-0.9-1.5-0.9-2.6c0-1.1,0.3-1.9,1-2.6
			s1.5-0.9,2.7-0.9c1.1,0,2,0.3,2.7,0.9S172.7,312.6,172.7,313.7z M170.1,315.3c0.1-0.2,0.2-0.4,0.3-0.6s0.1-0.6,0.1-1
			c0-0.4,0-0.7-0.1-1s-0.2-0.5-0.3-0.6c-0.1-0.2-0.3-0.3-0.5-0.3s-0.4-0.1-0.6-0.1s-0.4,0-0.5,0.1s-0.3,0.2-0.5,0.3
			c-0.1,0.2-0.2,0.4-0.3,0.6s-0.1,0.6-0.1,1c0,0.4,0,0.7,0.1,0.9s0.2,0.5,0.3,0.6c0.1,0.2,0.3,0.3,0.4,0.3s0.4,0.1,0.6,0.1
			c0.2,0,0.4,0,0.5-0.1S169.9,315.4,170.1,315.3z"/>
		<path class="st5" d="M185.7,313.6c0,0.5-0.1,1-0.2,1.5c-0.2,0.4-0.4,0.8-0.7,1.1c-0.3,0.3-0.6,0.5-1,0.7s-0.7,0.2-1.1,0.2
			c-0.4,0-0.7,0-1-0.1c-0.3-0.1-0.5-0.2-0.8-0.3v2.7h-2.1v-9h2.1v0.7c0.3-0.3,0.7-0.5,1-0.6s0.7-0.2,1.2-0.2c0.8,0,1.5,0.3,1.9,0.9
			C185.5,311.7,185.7,312.5,185.7,313.6z M183.6,313.6c0-0.6-0.1-1.1-0.3-1.4c-0.2-0.3-0.6-0.4-1-0.4c-0.2,0-0.4,0-0.6,0.1
			s-0.4,0.1-0.6,0.3v3.3c0.1,0.1,0.3,0.1,0.5,0.1s0.3,0,0.5,0c0.6,0,1-0.2,1.2-0.5C183.4,314.8,183.6,314.3,183.6,313.6z"/>
		<path class="st5" d="M194.3,313.7c0,1.1-0.3,1.9-0.9,2.6s-1.5,0.9-2.7,0.9s-2-0.3-2.7-0.9s-0.9-1.5-0.9-2.6c0-1.1,0.3-1.9,1-2.6
			s1.5-0.9,2.7-0.9c1.1,0,2,0.3,2.7,0.9S194.3,312.6,194.3,313.7z M191.7,315.3c0.1-0.2,0.2-0.4,0.3-0.6s0.1-0.6,0.1-1
			c0-0.4,0-0.7-0.1-1s-0.2-0.5-0.3-0.6c-0.1-0.2-0.3-0.3-0.5-0.3s-0.4-0.1-0.6-0.1s-0.4,0-0.5,0.1s-0.3,0.2-0.5,0.3
			c-0.1,0.2-0.2,0.4-0.3,0.6s-0.1,0.6-0.1,1c0,0.4,0,0.7,0.1,0.9s0.2,0.5,0.3,0.6c0.1,0.2,0.3,0.3,0.4,0.3s0.4,0.1,0.6,0.1
			c0.2,0,0.4,0,0.5-0.1S191.6,315.4,191.7,315.3z"/>
		<path class="st5" d="M200.8,312.4h-0.2c-0.1,0-0.2-0.1-0.4-0.1s-0.4,0-0.5,0c-0.3,0-0.6,0-0.8,0.1s-0.5,0.1-0.7,0.2v4.4h-2.1v-6.6
			h2.1v1c0.5-0.4,0.9-0.7,1.2-0.8c0.3-0.1,0.7-0.2,0.9-0.2c0.1,0,0.2,0,0.3,0c0.1,0,0.2,0,0.2,0V312.4z"/>
		<path class="st5" d="M210.2,317.2c-0.6,0-1.1-0.1-1.6-0.2s-0.9-0.3-1.2-0.6c-0.3-0.3-0.6-0.6-0.8-1.1s-0.3-0.9-0.3-1.5
			c0-0.6,0.1-1.1,0.3-1.6s0.5-0.8,0.9-1.1c0.4-0.3,0.8-0.5,1.2-0.6s0.9-0.2,1.4-0.2c0.4,0,0.9,0,1.2,0.1s0.7,0.2,1.1,0.4v1.8h-0.3
			c-0.1-0.1-0.2-0.2-0.3-0.2c-0.1-0.1-0.3-0.2-0.4-0.3c-0.2-0.1-0.3-0.2-0.5-0.2c-0.2-0.1-0.4-0.1-0.7-0.1c-0.6,0-1,0.2-1.3,0.5
			c-0.3,0.4-0.5,0.8-0.5,1.5c0,0.6,0.2,1.1,0.5,1.4c0.3,0.3,0.8,0.5,1.3,0.5c0.3,0,0.5,0,0.7-0.1c0.2-0.1,0.4-0.1,0.5-0.2
			c0.1-0.1,0.2-0.2,0.4-0.2c0.1-0.1,0.2-0.2,0.3-0.3h0.3v1.8c-0.3,0.2-0.7,0.3-1,0.4S210.6,317.2,210.2,317.2z"/>
		<path class="st5" d="M216.2,317h-2.1v-9.1h2.1V317z"/>
		<path class="st5" d="M220.7,309.5h-2.2v-1.6h2.2V309.5z M220.6,317h-2.1v-6.6h2.1V317z"/>
		<path class="st5" d="M229.4,314.1h-4.8c0,0.5,0.2,0.9,0.6,1.2s0.9,0.4,1.6,0.4c0.4,0,0.9-0.1,1.3-0.2s0.7-0.3,1-0.5h0.2v1.7
			c-0.5,0.2-0.9,0.3-1.3,0.4s-0.9,0.1-1.4,0.1c-1.3,0-2.3-0.3-3-0.9s-1.1-1.4-1.1-2.5c0-1.1,0.3-1.9,1-2.6s1.6-1,2.7-1
			c1.1,0,1.9,0.3,2.4,0.8s0.8,1.3,0.8,2.3V314.1z M227.3,312.8c0-0.4-0.1-0.8-0.3-1s-0.5-0.3-1-0.3c-0.4,0-0.7,0.1-1,0.3
			s-0.4,0.5-0.4,1H227.3z"/>
		<path class="st5" d="M237.7,317h-2.1v-3.3c0-0.3,0-0.5,0-0.8s-0.1-0.5-0.1-0.6c-0.1-0.1-0.2-0.2-0.3-0.3s-0.4-0.1-0.6-0.1
			c-0.2,0-0.4,0-0.6,0.1s-0.4,0.2-0.6,0.3v4.7h-2.1v-6.6h2.1v0.7c0.4-0.3,0.7-0.5,1.1-0.7s0.7-0.2,1.1-0.2c0.7,0,1.3,0.2,1.7,0.6
			c0.4,0.4,0.6,1,0.6,1.9V317z"/>
		<path class="st5" d="M244.2,316.9c-0.2,0.1-0.5,0.1-0.7,0.1s-0.6,0-0.9,0c-0.8,0-1.4-0.2-1.8-0.5s-0.6-0.9-0.6-1.7v-3.1h-0.9v-1.4
			h0.9v-1.9h2.1v1.9h2v1.4h-2v2.3c0,0.2,0,0.4,0,0.6c0,0.2,0,0.3,0.1,0.5c0.1,0.1,0.2,0.2,0.3,0.3c0.1,0.1,0.3,0.1,0.6,0.1
			c0.1,0,0.3,0,0.4-0.1s0.3-0.1,0.4-0.1h0.2V316.9z"/>
		<path class="st5" d="M252.2,314.1h-4.8c0,0.5,0.2,0.9,0.6,1.2s0.9,0.4,1.6,0.4c0.4,0,0.9-0.1,1.3-0.2s0.7-0.3,1-0.5h0.2v1.7
			c-0.5,0.2-0.9,0.3-1.3,0.4s-0.9,0.1-1.4,0.1c-1.3,0-2.3-0.3-3-0.9s-1.1-1.4-1.1-2.5c0-1.1,0.3-1.9,1-2.6s1.6-1,2.7-1
			c1.1,0,1.9,0.3,2.4,0.8s0.8,1.3,0.8,2.3V314.1z M250.1,312.8c0-0.4-0.1-0.8-0.3-1s-0.5-0.3-1-0.3c-0.4,0-0.7,0.1-1,0.3
			s-0.4,0.5-0.4,1H250.1z"/>
	</g>
	<g>
		<path class="st4" d="M82.6,357h-8.7v-2.3h2.8v-6.9h-2.8v-2.1c0.4,0,0.8,0,1.2-0.1s0.7-0.1,1-0.3c0.3-0.1,0.5-0.3,0.7-0.6
			s0.2-0.5,0.3-0.9h2.9v10.8h2.7V357z"/>
		<path class="st4" d="M96.2,350.4c0,1.1-0.1,2.1-0.3,3s-0.5,1.6-0.9,2.1c-0.4,0.6-1,1-1.7,1.3s-1.5,0.4-2.5,0.4
			c-1,0-1.8-0.1-2.5-0.4s-1.3-0.7-1.7-1.3c-0.4-0.6-0.7-1.3-0.9-2.1s-0.3-1.8-0.3-2.9c0-1.1,0.1-2.1,0.3-3c0.2-0.8,0.5-1.5,0.9-2.1
			c0.4-0.6,1-1,1.7-1.3s1.5-0.4,2.5-0.4c1,0,1.8,0.1,2.5,0.4s1.2,0.7,1.7,1.3c0.4,0.6,0.7,1.3,0.9,2.1
			C96.1,348.4,96.2,349.3,96.2,350.4z M92.8,350.4c0-1.6-0.2-2.7-0.5-3.4c-0.3-0.7-0.8-1-1.5-1s-1.2,0.3-1.5,1
			c-0.3,0.7-0.5,1.8-0.5,3.4c0,1.6,0.2,2.7,0.5,3.4s0.8,1,1.5,1s1.2-0.3,1.5-1S92.8,352,92.8,350.4z"/>
		<path class="st4" d="M109.1,353.3c0,1.2-0.5,2.1-1.5,2.8s-2.3,1.1-4.1,1.1c-1,0-1.8-0.1-2.5-0.3s-1.3-0.5-1.7-0.8
			c-0.4-0.3-0.8-0.8-1-1.2s-0.3-1-0.3-1.5c0-0.7,0.2-1.2,0.6-1.7s1-1,2-1.3v-0.1c-0.8-0.4-1.3-0.8-1.7-1.3s-0.5-1.2-0.5-1.9
			c0-1,0.5-1.9,1.4-2.5s2.2-1,3.8-1c1.6,0,2.9,0.3,3.8,0.9s1.4,1.4,1.4,2.4c0,0.6-0.2,1.2-0.6,1.7s-1,0.9-1.8,1.2v0.1
			c0.9,0.3,1.6,0.8,2,1.4S109.1,352.5,109.1,353.3z M105.7,353.5c0-0.4-0.1-0.7-0.3-1s-0.6-0.5-1.3-0.7c-0.2-0.1-0.5-0.2-0.8-0.3
			s-0.7-0.2-0.9-0.3c-0.3,0.2-0.5,0.5-0.7,0.8c-0.2,0.3-0.3,0.7-0.3,1.1c0,0.6,0.2,1.1,0.7,1.5c0.4,0.4,1,0.5,1.7,0.5
			c0.2,0,0.4,0,0.7-0.1c0.3-0.1,0.5-0.1,0.7-0.3c0.2-0.1,0.4-0.3,0.5-0.5S105.7,353.8,105.7,353.5z M105.5,347.3
			c0-0.4-0.2-0.8-0.5-1.1s-0.8-0.4-1.4-0.4c-0.2,0-0.4,0-0.6,0.1s-0.4,0.1-0.6,0.2c-0.2,0.1-0.3,0.2-0.4,0.4s-0.2,0.3-0.2,0.5
			c0,0.3,0.1,0.6,0.3,0.8s0.5,0.4,1,0.6c0.2,0.1,0.4,0.2,0.7,0.3s0.6,0.2,1,0.3c0.3-0.3,0.5-0.6,0.6-0.9S105.5,347.6,105.5,347.3z"
			/>
	</g>
	<g>
		<path class="st5" d="M70.4,376.3c-0.1,0.1-0.3,0.2-0.4,0.3s-0.3,0.2-0.5,0.3c-0.2,0.1-0.4,0.2-0.6,0.2s-0.5,0.1-0.7,0.1
			c-0.6,0-1.1-0.2-1.6-0.6s-0.6-0.9-0.6-1.5c0-0.5,0.1-0.9,0.3-1.2s0.5-0.5,0.9-0.7c0.4-0.2,0.9-0.3,1.5-0.4s1.2-0.1,1.8-0.2v0
			c0-0.4-0.1-0.6-0.4-0.8s-0.7-0.2-1.3-0.2c-0.3,0-0.7,0.1-1.1,0.2s-0.7,0.2-0.8,0.3h-0.2v-1.6c0.2-0.1,0.6-0.1,1.1-0.2
			s1-0.1,1.5-0.1c1.2,0,2.1,0.2,2.6,0.6s0.8,0.9,0.8,1.7v4.5h-2.1V376.3z M70.4,375.3v-1.4c-0.3,0-0.6,0.1-0.9,0.1s-0.6,0.1-0.8,0.1
			c-0.2,0.1-0.4,0.2-0.5,0.3c-0.1,0.1-0.2,0.3-0.2,0.5c0,0.1,0,0.2,0,0.3c0,0.1,0.1,0.2,0.2,0.2c0.1,0.1,0.2,0.1,0.3,0.2
			s0.3,0.1,0.6,0.1c0.2,0,0.4,0,0.6-0.1C70,375.5,70.2,375.4,70.4,375.3z"/>
		<path class="st5" d="M81.1,376.2c0,0.6-0.1,1.1-0.3,1.6s-0.4,0.8-0.7,1c-0.3,0.2-0.7,0.4-1.1,0.5s-1,0.2-1.5,0.2
			c-0.5,0-0.9,0-1.4-0.1s-0.8-0.1-1.2-0.2v-1.6h0.3c0.3,0.1,0.6,0.2,0.9,0.3s0.7,0.1,1,0.1c0.4,0,0.7,0,1-0.1
			c0.2-0.1,0.4-0.2,0.6-0.3c0.1-0.1,0.2-0.3,0.3-0.5s0.1-0.4,0.1-0.7v-0.1c-0.3,0.2-0.5,0.4-0.8,0.5s-0.7,0.2-1,0.2
			c-0.9,0-1.6-0.3-2.1-0.8s-0.7-1.4-0.7-2.5c0-0.5,0.1-1,0.2-1.4c0.2-0.4,0.4-0.7,0.6-1c0.3-0.3,0.6-0.5,1-0.6s0.8-0.2,1.2-0.2
			c0.4,0,0.7,0,1,0.1s0.6,0.2,0.8,0.3l0.1-0.3h2.1V376.2z M79,374.9v-3c-0.1-0.1-0.3-0.1-0.4-0.1s-0.3,0-0.5,0c-0.6,0-1,0.2-1.2,0.5
			s-0.4,0.8-0.4,1.3c0,0.6,0.1,1.1,0.4,1.3s0.6,0.4,1,0.4c0.2,0,0.4,0,0.6-0.1C78.7,375.1,78.8,375,79,374.9z"/>
		<path class="st5" d="M89.9,374.1h-4.8c0,0.5,0.2,0.9,0.6,1.2s0.9,0.4,1.6,0.4c0.4,0,0.9-0.1,1.3-0.2s0.7-0.3,1-0.5h0.2v1.7
			c-0.5,0.2-0.9,0.3-1.3,0.4s-0.9,0.1-1.4,0.1c-1.3,0-2.3-0.3-3-0.9s-1.1-1.4-1.1-2.5c0-1.1,0.3-1.9,1-2.6s1.6-1,2.7-1
			c1.1,0,1.9,0.3,2.4,0.8s0.8,1.3,0.8,2.3V374.1z M87.8,372.8c0-0.4-0.1-0.8-0.3-1s-0.5-0.3-1-0.3c-0.4,0-0.7,0.1-1,0.3
			s-0.4,0.5-0.4,1H87.8z"/>
		<path class="st5" d="M98.3,377h-2.1v-3.3c0-0.3,0-0.5,0-0.8s-0.1-0.5-0.1-0.6c-0.1-0.1-0.2-0.2-0.3-0.3s-0.4-0.1-0.6-0.1
			c-0.2,0-0.4,0-0.6,0.1s-0.4,0.2-0.6,0.3v4.7h-2.1v-6.6h2.1v0.7c0.4-0.3,0.7-0.5,1.1-0.7s0.7-0.2,1.1-0.2c0.7,0,1.3,0.2,1.7,0.6
			c0.4,0.4,0.6,1,0.6,1.9V377z"/>
		<path class="st5" d="M103.9,377.2c-0.6,0-1.1-0.1-1.6-0.2s-0.9-0.3-1.2-0.6c-0.3-0.3-0.6-0.6-0.8-1.1s-0.3-0.9-0.3-1.5
			c0-0.6,0.1-1.1,0.3-1.6s0.5-0.8,0.9-1.1c0.4-0.3,0.8-0.5,1.2-0.6s0.9-0.2,1.4-0.2c0.4,0,0.9,0,1.2,0.1s0.7,0.2,1.1,0.4v1.8h-0.3
			c-0.1-0.1-0.2-0.2-0.3-0.2c-0.1-0.1-0.3-0.2-0.4-0.3c-0.2-0.1-0.3-0.2-0.5-0.2c-0.2-0.1-0.4-0.1-0.7-0.1c-0.6,0-1,0.2-1.3,0.5
			c-0.3,0.4-0.5,0.8-0.5,1.5c0,0.6,0.2,1.1,0.5,1.4c0.3,0.3,0.8,0.5,1.3,0.5c0.3,0,0.5,0,0.7-0.1c0.2-0.1,0.4-0.1,0.5-0.2
			c0.1-0.1,0.2-0.2,0.4-0.2c0.1-0.1,0.2-0.2,0.3-0.3h0.3v1.8c-0.3,0.2-0.7,0.3-1,0.4S104.4,377.2,103.9,377.2z"/>
		<path class="st5" d="M110,369.5h-2.2v-1.6h2.2V369.5z M110,377h-2.1v-6.6h2.1V377z"/>
		<path class="st5" d="M116.2,376.3c-0.1,0.1-0.3,0.2-0.4,0.3s-0.3,0.2-0.5,0.3c-0.2,0.1-0.4,0.2-0.6,0.2s-0.5,0.1-0.7,0.1
			c-0.6,0-1.1-0.2-1.6-0.6s-0.6-0.9-0.6-1.5c0-0.5,0.1-0.9,0.3-1.2s0.5-0.5,0.9-0.7c0.4-0.2,0.9-0.3,1.5-0.4s1.2-0.1,1.8-0.2v0
			c0-0.4-0.1-0.6-0.4-0.8s-0.7-0.2-1.3-0.2c-0.3,0-0.7,0.1-1.1,0.2s-0.7,0.2-0.8,0.3h-0.2v-1.6c0.2-0.1,0.6-0.1,1.1-0.2
			s1-0.1,1.5-0.1c1.2,0,2.1,0.2,2.6,0.6s0.8,0.9,0.8,1.7v4.5h-2.1V376.3z M116.2,375.3v-1.4c-0.3,0-0.6,0.1-0.9,0.1
			s-0.6,0.1-0.8,0.1c-0.2,0.1-0.4,0.2-0.5,0.3c-0.1,0.1-0.2,0.3-0.2,0.5c0,0.1,0,0.2,0,0.3c0,0.1,0.1,0.2,0.2,0.2
			c0.1,0.1,0.2,0.1,0.3,0.2s0.3,0.1,0.6,0.1c0.2,0,0.4,0,0.6-0.1C115.9,375.5,116.1,375.4,116.2,375.3z"/>
		<path class="st5" d="M126.3,374.9c0,0.7-0.3,1.2-0.9,1.6s-1.4,0.6-2.5,0.6c-0.6,0-1.1-0.1-1.6-0.2s-0.9-0.2-1.1-0.4v-1.7h0.2
			c0.1,0.1,0.2,0.2,0.4,0.2s0.3,0.2,0.6,0.3c0.2,0.1,0.5,0.2,0.7,0.2s0.6,0.1,0.9,0.1c0.4,0,0.7,0,0.9-0.1s0.3-0.2,0.3-0.4
			c0-0.2-0.1-0.3-0.2-0.3s-0.3-0.1-0.7-0.2c-0.2,0-0.4-0.1-0.6-0.1s-0.5-0.1-0.7-0.1c-0.6-0.2-1-0.4-1.3-0.7s-0.4-0.7-0.4-1.2
			c0-0.6,0.3-1.2,0.9-1.6s1.4-0.6,2.5-0.6c0.5,0,1,0,1.4,0.1s0.8,0.2,1.1,0.3v1.7h-0.2c-0.3-0.2-0.7-0.4-1.1-0.5s-0.8-0.2-1.2-0.2
			c-0.3,0-0.6,0-0.9,0.1s-0.3,0.2-0.3,0.4c0,0.2,0.1,0.3,0.2,0.4s0.4,0.2,0.7,0.2c0.2,0,0.4,0.1,0.7,0.1s0.5,0.1,0.7,0.2
			c0.6,0.1,1,0.4,1.2,0.7S126.3,374.4,126.3,374.9z"/>
	</g>
	<g>
		<path class="st4" d="M83.2,412.5c0,0.7-0.1,1.3-0.4,1.9s-0.6,1.1-1.1,1.5c-0.5,0.4-1.2,0.8-1.9,1c-0.7,0.2-1.5,0.3-2.4,0.3
			c-1,0-1.9-0.1-2.7-0.3c-0.7-0.2-1.3-0.3-1.8-0.5v-2.9h0.4c0.5,0.3,1.1,0.6,1.7,0.8s1.2,0.3,1.8,0.3c0.4,0,0.8,0,1.2-0.1
			s0.8-0.2,1-0.5c0.2-0.2,0.4-0.4,0.5-0.6s0.2-0.5,0.2-0.9c0-0.3-0.1-0.6-0.2-0.8c-0.1-0.2-0.3-0.4-0.5-0.5
			c-0.3-0.2-0.7-0.3-1.1-0.4c-0.4-0.1-0.8-0.1-1.2-0.1c-0.5,0-1,0-1.5,0.1c-0.5,0.1-0.9,0.2-1.3,0.3h-0.4v-7.4h9.3v2.5h-6.1v2.1
			c0.2,0,0.4,0,0.7,0c0.3,0,0.5,0,0.7,0c0.7,0,1.4,0.1,1.9,0.2s1.1,0.3,1.5,0.6c0.5,0.3,0.9,0.7,1.2,1.3
			C83,411.1,83.2,411.7,83.2,412.5z"/>
		<path class="st4" d="M89.8,413.5l-3.2,6.7h-2l1.7-6.7H89.8z"/>
		<path class="st4" d="M101.5,410.8c0.3,0.2,0.5,0.5,0.7,0.9s0.3,0.8,0.3,1.3c0,0.6-0.1,1.2-0.4,1.7s-0.6,1-1.1,1.4
			c-0.5,0.4-1.1,0.7-1.7,0.8c-0.7,0.2-1.5,0.3-2.4,0.3c-1.1,0-2-0.1-2.8-0.3s-1.4-0.4-1.9-0.6v-2.9h0.3c0.5,0.3,1.1,0.6,1.8,0.8
			s1.3,0.3,1.9,0.3c0.3,0,0.7,0,1.1-0.1c0.4-0.1,0.7-0.2,1-0.4c0.2-0.1,0.4-0.3,0.5-0.5c0.1-0.2,0.2-0.5,0.2-0.9
			c0-0.4-0.1-0.7-0.3-0.9s-0.4-0.4-0.7-0.4c-0.3-0.1-0.6-0.1-1-0.2c-0.4,0-0.8,0-1.1,0h-0.7V409h0.7c0.5,0,0.9,0,1.2,0
			s0.7-0.1,0.9-0.2c0.3-0.1,0.5-0.3,0.6-0.4c0.1-0.2,0.2-0.5,0.2-0.8c0-0.3-0.1-0.5-0.2-0.6c-0.1-0.2-0.3-0.3-0.5-0.4
			c-0.2-0.1-0.5-0.2-0.8-0.2s-0.6-0.1-0.8-0.1c-0.6,0-1.1,0.1-1.8,0.3s-1.3,0.5-1.9,0.8h-0.3v-2.8c0.5-0.2,1.1-0.4,2-0.6
			c0.8-0.2,1.7-0.3,2.5-0.3c0.8,0,1.5,0.1,2.2,0.2c0.6,0.1,1.1,0.3,1.5,0.6c0.5,0.3,0.8,0.6,1.1,1s0.4,0.9,0.4,1.4
			c0,0.7-0.2,1.4-0.7,1.9c-0.5,0.6-1,0.9-1.8,1.1v0.1c0.3,0,0.6,0.1,0.9,0.2S101.2,410.6,101.5,410.8z"/>
		<path class="st4" d="M115.3,412.5c0,0.7-0.1,1.3-0.4,1.9s-0.6,1.1-1.1,1.5c-0.5,0.4-1.2,0.8-1.9,1c-0.7,0.2-1.5,0.3-2.4,0.3
			c-1,0-1.9-0.1-2.7-0.3c-0.7-0.2-1.3-0.3-1.8-0.5v-2.9h0.4c0.5,0.3,1.1,0.6,1.7,0.8s1.2,0.3,1.8,0.3c0.4,0,0.8,0,1.2-0.1
			s0.8-0.2,1-0.5c0.2-0.2,0.4-0.4,0.5-0.6s0.2-0.5,0.2-0.9c0-0.3-0.1-0.6-0.2-0.8c-0.1-0.2-0.3-0.4-0.5-0.5
			c-0.3-0.2-0.7-0.3-1.1-0.4c-0.4-0.1-0.8-0.1-1.2-0.1c-0.5,0-1,0-1.5,0.1c-0.5,0.1-0.9,0.2-1.3,0.3h-0.4v-7.4h9.3v2.5h-6.1v2.1
			c0.2,0,0.4,0,0.7,0c0.3,0,0.5,0,0.7,0c0.7,0,1.4,0.1,1.9,0.2s1.1,0.3,1.5,0.6c0.5,0.3,0.9,0.7,1.2,1.3
			C115.1,411.1,115.3,411.7,115.3,412.5z"/>
		<path class="st4" d="M128.4,417h-10.3v-2.2c0.8-0.6,1.6-1.2,2.4-1.8s1.4-1.2,1.9-1.7c0.7-0.7,1.2-1.3,1.5-1.8s0.4-1,0.4-1.5
			c0-0.6-0.2-1.1-0.6-1.4c-0.4-0.3-0.9-0.5-1.7-0.5c-0.5,0-1.1,0.1-1.7,0.3s-1.1,0.5-1.7,0.9h-0.3v-2.9c0.4-0.2,1-0.4,1.8-0.5
			s1.6-0.3,2.4-0.3c1.6,0,2.9,0.3,3.8,1s1.3,1.7,1.3,2.9c0,0.8-0.2,1.6-0.6,2.4s-1,1.5-1.9,2.3c-0.5,0.5-1.1,0.9-1.6,1.4
			c-0.5,0.4-0.9,0.7-1.2,0.9h5.9V417z"/>
	</g>
	<g>
		<path class="st5" d="M69.8,437.2c-0.6,0-1.1-0.1-1.6-0.2s-0.9-0.3-1.2-0.6c-0.3-0.3-0.6-0.6-0.8-1.1s-0.3-0.9-0.3-1.5
			c0-0.6,0.1-1.1,0.3-1.6s0.5-0.8,0.9-1.1c0.4-0.3,0.8-0.5,1.2-0.6s0.9-0.2,1.4-0.2c0.4,0,0.9,0,1.2,0.1s0.7,0.2,1.1,0.4v1.8h-0.3
			c-0.1-0.1-0.2-0.2-0.3-0.2c-0.1-0.1-0.3-0.2-0.4-0.3c-0.2-0.1-0.3-0.2-0.5-0.2c-0.2-0.1-0.4-0.1-0.7-0.1c-0.6,0-1,0.2-1.3,0.5
			c-0.3,0.4-0.5,0.8-0.5,1.5c0,0.6,0.2,1.1,0.5,1.4c0.3,0.3,0.8,0.5,1.3,0.5c0.3,0,0.5,0,0.7-0.1c0.2-0.1,0.4-0.1,0.5-0.2
			c0.1-0.1,0.2-0.2,0.4-0.2c0.1-0.1,0.2-0.2,0.3-0.3h0.3v1.8c-0.3,0.2-0.7,0.3-1,0.4S70.3,437.2,69.8,437.2z"/>
		<path class="st5" d="M80.5,433.7c0,1.1-0.3,1.9-0.9,2.6s-1.5,0.9-2.7,0.9s-2-0.3-2.7-0.9s-0.9-1.5-0.9-2.6c0-1.1,0.3-1.9,1-2.6
			s1.5-0.9,2.7-0.9c1.1,0,2,0.3,2.7,0.9S80.5,432.6,80.5,433.7z M77.9,435.3c0.1-0.2,0.2-0.4,0.3-0.6s0.1-0.6,0.1-1
			c0-0.4,0-0.7-0.1-1s-0.2-0.5-0.3-0.6c-0.1-0.2-0.3-0.3-0.5-0.3s-0.4-0.1-0.6-0.1s-0.4,0-0.5,0.1s-0.3,0.2-0.5,0.3
			c-0.1,0.2-0.2,0.4-0.3,0.6s-0.1,0.6-0.1,1c0,0.4,0,0.7,0.1,0.9s0.2,0.5,0.3,0.6c0.1,0.2,0.3,0.3,0.4,0.3s0.4,0.1,0.6,0.1
			c0.2,0,0.4,0,0.5-0.1S77.8,435.4,77.9,435.3z"/>
		<path class="st5" d="M84.4,437h-2.1v-9.1h2.1V437z"/>
		<path class="st5" d="M90.7,436.3c-0.1,0.1-0.3,0.2-0.4,0.3s-0.3,0.2-0.5,0.3c-0.2,0.1-0.4,0.2-0.6,0.2s-0.5,0.1-0.7,0.1
			c-0.6,0-1.1-0.2-1.6-0.6s-0.6-0.9-0.6-1.5c0-0.5,0.1-0.9,0.3-1.2s0.5-0.5,0.9-0.7c0.4-0.2,0.9-0.3,1.5-0.4s1.2-0.1,1.8-0.2v0
			c0-0.4-0.1-0.6-0.4-0.8s-0.7-0.2-1.3-0.2c-0.3,0-0.7,0.1-1.1,0.2s-0.7,0.2-0.8,0.3h-0.2v-1.6c0.2-0.1,0.6-0.1,1.1-0.2
			s1-0.1,1.5-0.1c1.2,0,2.1,0.2,2.6,0.6s0.8,0.9,0.8,1.7v4.5h-2.1V436.3z M90.7,435.3v-1.4c-0.3,0-0.6,0.1-0.9,0.1s-0.6,0.1-0.8,0.1
			c-0.2,0.1-0.4,0.2-0.5,0.3c-0.1,0.1-0.2,0.3-0.2,0.5c0,0.1,0,0.2,0,0.3c0,0.1,0.1,0.2,0.2,0.2c0.1,0.1,0.2,0.1,0.3,0.2
			s0.3,0.1,0.6,0.1c0.2,0,0.4,0,0.6-0.1C90.3,435.5,90.5,435.4,90.7,435.3z"/>
		<path class="st5" d="M101.9,433.6c0,1-0.3,1.9-0.9,2.5c-0.6,0.7-1.3,1-2.1,1c-0.4,0-0.7,0-1-0.1s-0.5-0.2-0.8-0.3L97,437h-2v-9.1
			h2.1v3.2c0.3-0.3,0.7-0.5,1-0.6s0.7-0.2,1.2-0.2c0.8,0,1.5,0.3,1.9,0.9C101.7,431.7,101.9,432.5,101.9,433.6z M99.7,433.6
			c0-0.6-0.1-1-0.3-1.4c-0.2-0.3-0.6-0.5-1.1-0.5c-0.2,0-0.4,0-0.6,0.1s-0.4,0.1-0.6,0.3v3.3c0.2,0.1,0.3,0.1,0.4,0.1s0.3,0,0.5,0
			c0.6,0,1-0.2,1.2-0.5C99.6,434.8,99.7,434.3,99.7,433.6z"/>
		<path class="st5" d="M110.4,433.7c0,1.1-0.3,1.9-0.9,2.6s-1.5,0.9-2.7,0.9s-2-0.3-2.7-0.9s-0.9-1.5-0.9-2.6c0-1.1,0.3-1.9,1-2.6
			s1.5-0.9,2.7-0.9c1.1,0,2,0.3,2.7,0.9S110.4,432.6,110.4,433.7z M107.8,435.3c0.1-0.2,0.2-0.4,0.3-0.6s0.1-0.6,0.1-1
			c0-0.4,0-0.7-0.1-1s-0.2-0.5-0.3-0.6c-0.1-0.2-0.3-0.3-0.5-0.3s-0.4-0.1-0.6-0.1s-0.4,0-0.5,0.1s-0.3,0.2-0.5,0.3
			c-0.1,0.2-0.2,0.4-0.3,0.6s-0.1,0.6-0.1,1c0,0.4,0,0.7,0.1,0.9s0.2,0.5,0.3,0.6c0.1,0.2,0.3,0.3,0.4,0.3s0.4,0.1,0.6,0.1
			c0.2,0,0.4,0,0.5-0.1S107.7,435.4,107.8,435.3z"/>
		<path class="st5" d="M117,432.4h-0.2c-0.1,0-0.2-0.1-0.4-0.1s-0.4,0-0.5,0c-0.3,0-0.6,0-0.8,0.1s-0.5,0.1-0.7,0.2v4.4h-2.1v-6.6
			h2.1v1c0.5-0.4,0.9-0.7,1.2-0.8c0.3-0.1,0.7-0.2,0.9-0.2c0.1,0,0.2,0,0.3,0c0.1,0,0.2,0,0.2,0V432.4z"/>
		<path class="st5" d="M122.5,436.3c-0.1,0.1-0.3,0.2-0.4,0.3s-0.3,0.2-0.5,0.3c-0.2,0.1-0.4,0.2-0.6,0.2s-0.5,0.1-0.7,0.1
			c-0.6,0-1.1-0.2-1.6-0.6s-0.6-0.9-0.6-1.5c0-0.5,0.1-0.9,0.3-1.2s0.5-0.5,0.9-0.7c0.4-0.2,0.9-0.3,1.5-0.4s1.2-0.1,1.8-0.2v0
			c0-0.4-0.1-0.6-0.4-0.8s-0.7-0.2-1.3-0.2c-0.3,0-0.7,0.1-1.1,0.2s-0.7,0.2-0.8,0.3h-0.2v-1.6c0.2-0.1,0.6-0.1,1.1-0.2
			s1-0.1,1.5-0.1c1.2,0,2.1,0.2,2.6,0.6s0.8,0.9,0.8,1.7v4.5h-2.1V436.3z M122.5,435.3v-1.4c-0.3,0-0.6,0.1-0.9,0.1
			s-0.6,0.1-0.8,0.1c-0.2,0.1-0.4,0.2-0.5,0.3c-0.1,0.1-0.2,0.3-0.2,0.5c0,0.1,0,0.2,0,0.3c0,0.1,0.1,0.2,0.2,0.2
			c0.1,0.1,0.2,0.1,0.3,0.2s0.3,0.1,0.6,0.1c0.2,0,0.4,0,0.6-0.1C122.1,435.5,122.3,435.4,122.5,435.3z"/>
		<path class="st5" d="M133.2,437h-2.1v-0.7c-0.4,0.3-0.7,0.5-1,0.7c-0.3,0.1-0.7,0.2-1.1,0.2c-0.8,0-1.4-0.3-1.9-0.9
			s-0.7-1.4-0.7-2.5c0-0.6,0.1-1.1,0.2-1.5c0.2-0.4,0.4-0.8,0.7-1.1c0.3-0.3,0.6-0.5,1-0.7c0.4-0.2,0.8-0.2,1.1-0.2
			c0.4,0,0.7,0,1,0.1s0.5,0.2,0.8,0.3v-2.8h2.1V437z M131.1,435.2v-3.2c-0.1-0.1-0.3-0.1-0.5-0.1c-0.2,0-0.3,0-0.5,0
			c-0.6,0-1,0.2-1.2,0.5c-0.3,0.3-0.4,0.8-0.4,1.4c0,0.6,0.1,1.1,0.3,1.4c0.2,0.3,0.6,0.4,1.1,0.4c0.2,0,0.4,0,0.6-0.1
			S130.9,435.3,131.1,435.2z"/>
		<path class="st5" d="M142.2,433.7c0,1.1-0.3,1.9-0.9,2.6s-1.5,0.9-2.7,0.9s-2-0.3-2.7-0.9s-0.9-1.5-0.9-2.6c0-1.1,0.3-1.9,1-2.6
			s1.5-0.9,2.7-0.9c1.1,0,2,0.3,2.7,0.9S142.2,432.6,142.2,433.7z M139.6,435.3c0.1-0.2,0.2-0.4,0.3-0.6s0.1-0.6,0.1-1
			c0-0.4,0-0.7-0.1-1s-0.2-0.5-0.3-0.6c-0.1-0.2-0.3-0.3-0.5-0.3s-0.4-0.1-0.6-0.1s-0.4,0-0.5,0.1s-0.3,0.2-0.5,0.3
			c-0.1,0.2-0.2,0.4-0.3,0.6s-0.1,0.6-0.1,1c0,0.4,0,0.7,0.1,0.9s0.2,0.5,0.3,0.6c0.1,0.2,0.3,0.3,0.4,0.3s0.4,0.1,0.6,0.1
			c0.2,0,0.4,0,0.5-0.1S139.5,435.4,139.6,435.3z"/>
		<path class="st5" d="M148.8,432.4h-0.2c-0.1,0-0.2-0.1-0.4-0.1s-0.4,0-0.5,0c-0.3,0-0.6,0-0.8,0.1s-0.5,0.1-0.7,0.2v4.4H144v-6.6
			h2.1v1c0.5-0.4,0.9-0.7,1.2-0.8c0.3-0.1,0.7-0.2,0.9-0.2c0.1,0,0.2,0,0.3,0c0.1,0,0.2,0,0.2,0V432.4z"/>
		<path class="st5" d="M156.7,434.1h-4.8c0,0.5,0.2,0.9,0.6,1.2s0.9,0.4,1.6,0.4c0.4,0,0.9-0.1,1.3-0.2s0.7-0.3,1-0.5h0.2v1.7
			c-0.5,0.2-0.9,0.3-1.3,0.4s-0.9,0.1-1.4,0.1c-1.3,0-2.3-0.3-3-0.9s-1.1-1.4-1.1-2.5c0-1.1,0.3-1.9,1-2.6s1.6-1,2.7-1
			c1.1,0,1.9,0.3,2.4,0.8s0.8,1.3,0.8,2.3V434.1z M154.6,432.8c0-0.4-0.1-0.8-0.3-1s-0.5-0.3-1-0.3c-0.4,0-0.7,0.1-1,0.3
			s-0.4,0.5-0.4,1H154.6z"/>
		<path class="st5" d="M164.2,434.9c0,0.7-0.3,1.2-0.9,1.6s-1.4,0.6-2.5,0.6c-0.6,0-1.1-0.1-1.6-0.2s-0.9-0.2-1.1-0.4v-1.7h0.2
			c0.1,0.1,0.2,0.2,0.4,0.2s0.3,0.2,0.6,0.3c0.2,0.1,0.5,0.2,0.7,0.2s0.6,0.1,0.9,0.1c0.4,0,0.7,0,0.9-0.1s0.3-0.2,0.3-0.4
			c0-0.2-0.1-0.3-0.2-0.3s-0.3-0.1-0.7-0.2c-0.2,0-0.4-0.1-0.6-0.1s-0.5-0.1-0.7-0.1c-0.6-0.2-1-0.4-1.3-0.7s-0.4-0.7-0.4-1.2
			c0-0.6,0.3-1.2,0.9-1.6s1.4-0.6,2.5-0.6c0.5,0,1,0,1.4,0.1s0.8,0.2,1.1,0.3v1.7h-0.2c-0.3-0.2-0.7-0.4-1.1-0.5s-0.8-0.2-1.2-0.2
			c-0.3,0-0.6,0-0.9,0.1s-0.3,0.2-0.3,0.4c0,0.2,0.1,0.3,0.2,0.4s0.4,0.2,0.7,0.2c0.2,0,0.4,0.1,0.7,0.1s0.5,0.1,0.7,0.2
			c0.6,0.1,1,0.4,1.2,0.7S164.2,434.4,164.2,434.9z"/>
	</g>
	<g>
		<path class="st6" d="M139.1,29.8c-0.5,0.1-3.4-0.5-3.4-0.5s2.2,1.1,2.2,1.4c0.1,0.3-0.9,2.2-0.9,2.2s1.6-1.6,2-2
			c0.3-0.3,1-0.3,1.5-0.2c0.5,0.1,3.3,0.5,6.5-1.1c2.1-1.1,2.1-1.3,2.1-1.3s-1.6-1.1-4.4-0.6C141.7,28.2,139.5,29.7,139.1,29.8"/>
		<path class="st6" d="M85.3,65.3c-0.5,0.1-3.5-0.5-3.5-0.5s2.2,1.3,2.4,1.6c0.2,0.3-0.4,2.6-0.4,2.6s1.4-1.9,1.9-2.4
			c0.3-0.3,1.1-0.3,1.5-0.2c0.4,0.1,4.3,0.8,7.9-1.8c2.4-1.7,2.3-2,2.3-2s-2.2-1.5-5.6-0.8C88.5,62.3,85.9,65.1,85.3,65.3"/>
		<path class="st7" d="M161.9,29.1c-0.8,0.1-4.8-1.3-4.8-1.3s2.8,2.2,3.1,2.6c0.2,0.4-1,3.6-1,3.6s2.2-2.4,3.1-3.1
			c0.5-0.4,1.6-0.2,2.2,0c0.5,0.2,5.9,1.8,11.3-1.2c3.6-2,3.6-2.4,3.6-2.4s-2.9-2.5-7.7-2.1C166.8,25.6,162.7,29,161.9,29.1"/>
		<path class="st7" d="M67.4,59.4c-0.8,0.2-3.9-1-3.9-1s3.1,1.8,3.2,2.1c0.1,0.3-1.9,3.3-1.9,3.3s2-1.8,2.9-2.4
			c0.7-0.6,2.5-0.8,3.6-0.7c1,0.1,5.2,0.7,10.5-2.8C85,55.4,85,55,85,55s-3-1.8-7.8-0.8C72.3,55.3,68.1,59.2,67.4,59.4"/>
		<path class="st7" d="M101.1,56.8c-0.5,0.1-2.3-1.1-2.3-1.1s1.7,1.5,1.7,1.7c0,0.2-1.5,1.8-1.5,1.8s1.4-0.8,2-1.2
			c0.5-0.3,1.6-0.2,2.3,0c0.6,0.2,3.1,1,6.7-0.6c2.4-1,2.4-1.3,2.4-1.3s-1.7-1.5-4.7-1.4C104.6,54.8,101.6,56.7,101.1,56.8"/>
		<path class="st7" d="M85.6,47.1c-0.8,0.4-1.7,0.5-2.5,0.5c-3.4,0-6.2-1.8-6.2-6.3c0-4.6,3-6.5,6.3-6.5c0.8,0,1.7,0.1,2.5,0.3v2.1
			c-0.7-0.3-1.6-0.5-2.5-0.5c-2.4,0-4,1.2-4,4.4c0,3.3,1.8,4.4,4.1,4.4c0.9,0,1.7-0.1,2.5-0.5V47.1z"/>
		<path class="st7" d="M88.7,43.1c0,1.8,0.8,2.7,1.8,2.7c1,0,1.7-0.8,1.7-2.7c0-1.8-0.8-2.7-1.8-2.7C89.4,40.4,88.7,41.2,88.7,43.1
			 M94.3,43.1c0,2.7-1.5,4.5-3.9,4.5c-2.3,0-3.9-1.8-3.9-4.5c0-2.7,1.6-4.5,3.9-4.5C92.8,38.6,94.3,40.4,94.3,43.1"/>
		<path class="st7" d="M106.8,47.4h-2V42c0-1.1-0.4-1.5-1.3-1.5c-0.5,0-1.3,0.2-1.3,0.6c0,0.2,0.1,0.5,0.1,0.7v5.6h-2V42
			c0-1.1-0.5-1.5-1.2-1.5c-0.7,0-1.3,0.2-1.3,0.8v6.2h-2v-8.3c1.8,0,2.3-0.4,3.6-0.4c1.2,0,1.7,0.3,2.1,0.7c0.7-0.4,1.5-0.7,2.6-0.7
			c1.7,0,2.9,0.8,2.9,3V47.4z"/>
		<path class="st7" d="M111.4,40.3c-0.7,0-1.1,0.3-1.1,0.6v4.4c0,0.3,0.5,0.6,1.1,0.6c1.3,0,2-0.8,2-2.7
			C113.4,41.2,112.7,40.3,111.4,40.3 M108.3,51.4c0-1.9,0.1-3.2,0.1-5.6v-6.8c1.2,0,2-0.3,3.2-0.3c2.2,0,4,1.6,4,4.5
			c0,2.8-2,4.4-3.8,4.4c-0.8,0-1.2-0.2-1.5-0.4v4.2H108.3z"/>
		<path class="st7" d="M121,43.3c-1.7,0.1-2.5,0.6-2.5,1.5c0,0.7,0.5,1.1,1.3,1.1c0.7,0,1.1-0.2,1.1-0.5C121,45.2,121,44.3,121,43.3
			 M121,41.8v-0.3c0-0.7-0.5-1.1-1.3-1.1c-0.9,0-1.7,0.2-2.7,0.6V39c0.9-0.3,1.8-0.4,2.8-0.4c2,0,3.2,0.8,3.2,2.8
			c0,1.4-0.1,2.6-0.1,4c0,0.7,0,1.5,0.1,1.9c-1.5,0-2.2,0.2-3.5,0.2c-2.1,0-3.2-1-3.2-2.6C116.4,43.2,117.8,41.9,121,41.8"/>
		<path class="st7" d="M124.6,47.4v-8.5h1.9v0.8c0.5-0.8,1.4-1.1,2.2-1.1c0.4,0,0.7,0,0.9,0.1v2.1c-0.3-0.2-0.9-0.2-1.4-0.2
			c-0.8,0-1.5,0.3-1.6,1c0,1.4,0,3.6,0,5.8H124.6z"/>
		<path class="st7" d="M132.4,38.9h2.5v1.7h-2.5c0,1.8,0,3,0,4.4c0,0.6,0.4,0.9,1,0.9c0.5,0,1-0.1,1.4-0.3v1.8
			c-0.6,0.2-1.2,0.3-1.9,0.3c-1.5,0-2.5-0.7-2.5-2.2v-8l2-1.2V38.9z"/>
		<path class="st7" d="M140.5,43.3c-1.7,0.1-2.5,0.6-2.5,1.5c0,0.7,0.5,1.1,1.3,1.1c0.7,0,1.1-0.2,1.1-0.5
			C140.5,45.2,140.5,44.3,140.5,43.3 M140.5,41.8v-0.3c0-0.7-0.5-1.1-1.3-1.1c-0.9,0-1.7,0.2-2.6,0.6V39c0.9-0.3,1.8-0.4,2.8-0.4
			c2,0,3.2,0.8,3.2,2.8c0,1.4-0.1,2.6-0.1,4c0,0.7,0,1.5,0.1,1.9c-1.5,0-2.2,0.2-3.5,0.2c-2.1,0-3.2-1-3.2-2.6
			C135.9,43.2,137.3,41.9,140.5,41.8"/>
		<path class="st7" d="M155.2,47.4h-2V42c0-1.1-0.4-1.5-1.3-1.5c-0.5,0-1.3,0.2-1.3,0.6c0,0.2,0.1,0.5,0.1,0.7v5.6h-2V42
			c0-1.1-0.5-1.5-1.2-1.5c-0.7,0-1.3,0.2-1.3,0.8v6.2h-2v-8.3c1.8,0,2.3-0.4,3.6-0.4c1.2,0,1.7,0.3,2.1,0.7c0.7-0.4,1.5-0.7,2.6-0.7
			c1.7,0,2.9,0.8,2.9,3V47.4z"/>
		<path class="st7" d="M158.6,43.1c0,1.8,0.8,2.7,1.8,2.7c1,0,1.7-0.8,1.7-2.7c0-1.8-0.8-2.7-1.8-2.7
			C159.3,40.4,158.6,41.2,158.6,43.1 M164.3,43.1c0,2.7-1.5,4.5-3.9,4.5c-2.3,0-3.9-1.8-3.9-4.5c0-2.7,1.6-4.5,3.9-4.5
			C162.7,38.6,164.3,40.4,164.3,43.1"/>
		<path class="st7" d="M168.4,38.6c0.7,0,1.2,0.1,2,0.3v1.9c-0.9-0.3-1.5-0.4-2-0.4c-0.7,0-1.1,0.3-1.1,0.7c0,1.3,3.6,1.2,3.6,3.8
			c0,1.4-1,2.8-3.4,2.8c-0.7,0-1.5-0.1-2.2-0.3v-1.8c0.7,0.2,1.5,0.3,2.1,0.3c1,0,1.5-0.4,1.5-0.9c0-1.4-3.6-1.2-3.6-3.7
			C165.2,39.6,166.4,38.6,168.4,38.6"/>
		<path class="st7" d="M119.3,62.6v-9.7h5v1.2c-0.9-0.1-2-0.1-3.5-0.1c-0.1,0-0.2,0.1-0.2,0.2c0,0.6,0,1.6,0,2.8h3.3v1.1h-3.3v4.5
			H119.3z"/>
		<path class="st7" d="M126.9,55.9c0,2-0.1,4.6-0.1,6.7h-1.2v-6.7H126.9z M127,53.9c0,0.5-0.3,0.8-0.8,0.8c-0.5,0-0.8-0.3-0.8-0.8
			c0-0.4,0.3-0.8,0.8-0.8C126.7,53.2,127,53.5,127,53.9"/>
		<path class="st7" d="M129.2,57.5v5.1H128v-6.5c1.4,0,1.6-0.3,2.9-0.3c1.2,0,2.3,0.6,2.3,2.3v4.5H132v-4.3c0-1-0.5-1.4-1.4-1.4
			C129.8,56.9,129.2,57.2,129.2,57.5"/>
		<path class="st7" d="M138,59.2c-1.7,0-2.4,0.5-2.4,1.4c0,0.6,0.4,1.1,1.2,1.1c0.7,0,1.1-0.2,1.1-0.5C138,60.9,138,60.2,138,59.2
			 M138,58.3v-0.3c0-0.7-0.4-1.1-1.3-1.1c-0.7,0-1.3,0.1-2,0.4v-1.1c0.7-0.2,1.3-0.4,2.1-0.4c1.5,0,2.4,0.6,2.4,2.1
			c0,1.2,0,2.2,0,3.3c0,0.6,0,1.1,0.1,1.4c-1.1,0-1.7,0.2-2.6,0.2c-1.6,0-2.4-0.8-2.4-2C134.3,59.4,135.4,58.3,138,58.3"/>
		<path class="st7" d="M141.7,57.5v5.1h-1.2v-6.5c1.4,0,1.6-0.3,2.9-0.3c1.2,0,2.3,0.6,2.3,2.3v4.5h-1.2v-4.3c0-1-0.5-1.4-1.4-1.4
			C142.2,56.9,141.7,57.2,141.7,57.5"/>
		<path class="st7" d="M150.1,61.7c0.4,0,0.7,0,1.1-0.1v1.1c-0.4,0.1-0.8,0.1-1.1,0.1c-2,0-3.4-1.2-3.4-3.5c0-2.1,1.2-3.5,3.4-3.5
			c0.4,0,0.7,0,1.1,0.1V57c-0.4-0.1-0.7-0.2-1.1-0.2c-1.2,0-2,0.7-2,2.4C148.1,61,148.8,61.7,150.1,61.7"/>
		<path class="st7" d="M153.7,55.9c0,2-0.1,4.6-0.1,6.7h-1.2v-6.7H153.7z M153.8,53.9c0,0.5-0.3,0.8-0.8,0.8c-0.5,0-0.8-0.3-0.8-0.8
			c0-0.4,0.3-0.8,0.8-0.8C153.4,53.2,153.8,53.5,153.8,53.9"/>
		<path class="st7" d="M158.5,58.2c0.2,0,0.3-0.1,0.3-0.3c0-0.6-0.4-1-1.2-1c-1.1,0-1.5,0.7-1.6,1.4H158.5z M155.9,59.2
			c0,0.1,0,0.2,0,0.3c0,1.5,0.9,2.3,2.1,2.3c0.4,0,1-0.1,1.5-0.3v1.1c-0.5,0.2-1.1,0.2-1.6,0.2c-2,0-3.4-1.1-3.4-3.6
			c0-2.1,1.3-3.5,3.1-3.5c1.7,0,2.4,1.2,2.4,2.7c0,0.2,0,0.5-0.1,0.8H155.9z"/>
		<path class="st7" d="M161.2,62.6v-6.7h1.2v0.7c0.4-0.6,1.1-0.9,1.8-0.9c0.3,0,0.5,0,0.7,0.1v1.3c-0.3-0.1-0.6-0.1-1-0.1
			c-0.8,0-1.4,0.3-1.4,1c0,1.2,0,2.9,0,4.7H161.2z"/>
		<path class="st7" d="M169,59.2c-1.7,0-2.4,0.5-2.4,1.4c0,0.6,0.4,1.1,1.2,1.1c0.7,0,1.1-0.2,1.1-0.5C169,60.9,169,60.2,169,59.2
			 M169,58.3v-0.3c0-0.7-0.4-1.1-1.3-1.1c-0.7,0-1.3,0.1-2,0.4v-1.1c0.7-0.2,1.3-0.4,2.1-0.4c1.5,0,2.4,0.6,2.4,2.1
			c0,1.2,0,2.2,0,3.3c0,0.6,0,1.1,0.1,1.4c-1.1,0-1.7,0.2-2.6,0.2c-1.6,0-2.4-0.8-2.4-2C165.3,59.4,166.4,58.3,169,58.3"/>
		<path class="st7" d="M174.4,60.5c0.4,0,0.6-0.2,0.6-0.5c0-0.3-0.2-0.4-0.6-0.4c-0.2,0-0.3,0.1-0.3,0.1c0,0.3,0,0.6,0,0.8H174.4z
			 M174.2,61.9h-0.4v-2.7c0.3,0,0.5,0,0.8,0c0.5,0,0.9,0.3,0.9,0.7c0,0.3-0.2,0.5-0.5,0.7c0,0,0,0,0,0.1c0,0,0,0.1,0,0.1l0.7,1.1
			h-0.4l-0.6-0.9c-0.1-0.2-0.2-0.2-0.3-0.2h-0.2V61.9z M174.7,58.9c-1,0-1.6,0.8-1.6,1.7c0,0.9,0.6,1.7,1.6,1.7c1,0,1.6-0.8,1.6-1.7
			C176.3,59.7,175.6,58.9,174.7,58.9 M174.7,62.6c-1.2,0-2-0.9-2-2c0-1.1,0.8-2,2-2c1.2,0,2,0.9,2,2
			C176.7,61.7,175.9,62.6,174.7,62.6"/>
	</g>
</g>
</svg>
