<?xml version="1.0" encoding="utf-8"?>
<!-- Generator: Adobe Illustrator 25.2.1, SVG Export Plug-In . SVG Version: 6.00 Build 0)  -->
<svg version="1.1" id="Capa_1" xmlns="http://www.w3.org/2000/svg" xmlns:xlink="http://www.w3.org/1999/xlink" x="0px" y="0px"
	 viewBox="0 0 274.2 535.8" style="enable-background:new 0 0 274.2 535.8;" xml:space="preserve">
<style type="text/css">
	.st0{fill:none;stroke:#480174;stroke-linecap:round;stroke-linejoin:round;stroke-miterlimit:10;stroke-dasharray:0,2.998;}
	.st1{fill:none;stroke:#480174;stroke-linecap:round;stroke-linejoin:round;stroke-miterlimit:10;}
	.st2{fill:none;stroke:#480174;stroke-linecap:round;stroke-linejoin:round;stroke-miterlimit:10;stroke-dasharray:0,3.019;}
	.st3{fill:none;stroke:#480174;stroke-width:21;stroke-miterlimit:10;}
	.st4{fill:#FFFFFF;}
	.st5{fill:#252525;}
	.st6{fill:#E2A31D;}
	.st7{fill:#CC145A;}
</style>
<g>
	<line class="st0" x1="43" y1="22.1" x2="43" y2="515.2"/>
	<path class="st1" d="M43,516.7L43,516.7 M43,19.1L43,19.1"/>
	<line class="st2" x1="247.5" y1="77.6" x2="22.6" y2="77.6"/>
	<path class="st1" d="M21.1,77.6L21.1,77.6 M250.6,77.6L250.6,77.6"/>
	<line class="st3" x1="65.4" y1="111.2" x2="180.3" y2="111.2"/>
	<line class="st3" x1="65.4" y1="171.2" x2="161" y2="171.2"/>
	<line class="st3" x1="65.4" y1="233.6" x2="140.4" y2="233.6"/>
	<line class="st3" x1="65.4" y1="291.2" x2="154.9" y2="291.2"/>
	<line class="st3" x1="65.4" y1="351.2" x2="116.1" y2="351.2"/>
	<line class="st3" x1="65.4" y1="411.2" x2="116.1" y2="411.2"/>
	<line class="st3" x1="65.4" y1="471.2" x2="148.2" y2="471.2"/>
	<g>
		<path class="st4" d="M83.5,117.2H73.2V115c0.8-0.6,1.6-1.2,2.4-1.8s1.4-1.2,1.9-1.7c0.7-0.7,1.2-1.3,1.5-1.8s0.4-1,0.4-1.5
			c0-0.6-0.2-1.1-0.6-1.4s-0.9-0.5-1.7-0.5c-0.5,0-1.1,0.1-1.7,0.3s-1.1,0.5-1.7,0.9h-0.3v-2.9c0.4-0.2,1-0.4,1.8-0.5
			s1.6-0.3,2.4-0.3c1.6,0,2.9,0.3,3.8,1s1.3,1.7,1.3,2.9c0,0.8-0.2,1.6-0.6,2.4s-1,1.5-1.9,2.3c-0.5,0.5-1.1,0.9-1.6,1.4
			s-0.9,0.7-1.2,0.9h5.9V117.2z"/>
		<path class="st4" d="M89.8,113.8l-3.2,6.7h-2l1.7-6.7H89.8z"/>
		<path class="st4" d="M101.9,117.2h-8.7v-2.3H96V108h-2.8v-2.1c0.4,0,0.8,0,1.2-0.1s0.7-0.1,1-0.3c0.3-0.1,0.5-0.3,0.7-0.6
			s0.2-0.5,0.3-0.9h2.9v10.8h2.7V117.2z"/>
		<path class="st4" d="M115.3,106.7l-5.9,10.5h-3.8l6.1-10.6H105v-2.5h10.3V106.7z"/>
		<path class="st4" d="M128.1,112.8c0,0.7-0.1,1.3-0.4,1.9s-0.6,1.1-1.1,1.5c-0.5,0.4-1.2,0.8-1.9,1s-1.5,0.3-2.4,0.3
			c-1,0-1.9-0.1-2.7-0.3s-1.3-0.3-1.8-0.5v-2.9h0.4c0.5,0.3,1.1,0.6,1.7,0.8s1.2,0.3,1.8,0.3c0.4,0,0.8,0,1.2-0.1s0.8-0.2,1-0.5
			c0.2-0.2,0.4-0.4,0.5-0.6s0.2-0.5,0.2-0.9c0-0.3-0.1-0.6-0.2-0.8s-0.3-0.4-0.5-0.5c-0.3-0.2-0.7-0.3-1.1-0.4s-0.8-0.1-1.2-0.1
			c-0.5,0-1,0-1.5,0.1s-0.9,0.2-1.3,0.3h-0.4v-7.4h9.3v2.5h-6.1v2.1c0.2,0,0.4,0,0.7,0s0.5,0,0.7,0c0.7,0,1.4,0.1,1.9,0.2
			s1.1,0.3,1.5,0.6c0.5,0.3,0.9,0.7,1.2,1.3S128.1,112,128.1,112.8z"/>
		<path class="st4" d="M134.7,113.8l-3.2,6.7h-2l1.7-6.7H134.7z"/>
		<path class="st4" d="M146.8,117.2h-8.7v-2.3h2.8V108h-2.8v-2.1c0.4,0,0.8,0,1.2-0.1s0.7-0.1,1-0.3c0.3-0.1,0.5-0.3,0.7-0.6
			s0.2-0.5,0.3-0.9h2.9v10.8h2.7V117.2z"/>
		<path class="st4" d="M160.6,114.2h-1.8v3h-3.2v-3h-6.3v-2.5l6.1-7.6h3.4v7.7h1.8V114.2z M155.6,111.8v-4.7l-3.8,4.7H155.6z"/>
		<path class="st4" d="M173.3,117.2H163V115c0.8-0.6,1.6-1.2,2.4-1.8s1.4-1.2,1.9-1.7c0.7-0.7,1.2-1.3,1.5-1.8s0.4-1,0.4-1.5
			c0-0.6-0.2-1.1-0.6-1.4s-0.9-0.5-1.7-0.5c-0.5,0-1.1,0.1-1.7,0.3s-1.1,0.5-1.7,0.9h-0.3v-2.9c0.4-0.2,1-0.4,1.8-0.5
			s1.6-0.3,2.4-0.3c1.6,0,2.9,0.3,3.8,1s1.3,1.7,1.3,2.9c0,0.8-0.2,1.6-0.6,2.4s-1,1.5-1.9,2.3c-0.5,0.5-1.1,0.9-1.6,1.4
			s-0.9,0.7-1.2,0.9h5.9V117.2z"/>
	</g>
	<g>
		<path class="st5" d="M69.8,137.4c-0.6,0-1.1-0.1-1.6-0.2s-0.9-0.3-1.2-0.6c-0.3-0.3-0.6-0.6-0.8-1.1s-0.3-0.9-0.3-1.5
			c0-0.6,0.1-1.1,0.3-1.6s0.5-0.8,0.9-1.1c0.4-0.3,0.8-0.5,1.2-0.6s0.9-0.2,1.4-0.2c0.4,0,0.9,0,1.2,0.1s0.7,0.2,1.1,0.4v1.8h-0.3
			c-0.1-0.1-0.2-0.2-0.3-0.2c-0.1-0.1-0.3-0.2-0.4-0.3c-0.2-0.1-0.3-0.2-0.5-0.2c-0.2-0.1-0.4-0.1-0.7-0.1c-0.6,0-1,0.2-1.3,0.5
			c-0.3,0.4-0.5,0.8-0.5,1.5c0,0.6,0.2,1.1,0.5,1.4c0.3,0.3,0.8,0.5,1.3,0.5c0.3,0,0.5,0,0.7-0.1c0.2-0.1,0.4-0.1,0.5-0.2
			c0.1-0.1,0.2-0.2,0.4-0.2c0.1-0.1,0.2-0.2,0.3-0.3h0.3v1.8c-0.3,0.2-0.7,0.3-1,0.4S70.3,137.4,69.8,137.4z"/>
		<path class="st5" d="M75.9,137.2h-2.1v-9.1h2.1V137.2z"/>
		<path class="st5" d="M80.3,129.7h-2.2v-1.6h2.2V129.7z M80.3,137.2h-2.1v-6.6h2.1V137.2z"/>
		<path class="st5" d="M89,134.3h-4.8c0,0.5,0.2,0.9,0.6,1.2s0.9,0.4,1.6,0.4c0.4,0,0.9-0.1,1.3-0.2s0.7-0.3,1-0.5h0.2v1.7
			c-0.5,0.2-0.9,0.3-1.3,0.4s-0.9,0.1-1.4,0.1c-1.3,0-2.3-0.3-3-0.9s-1.1-1.4-1.1-2.5c0-1.1,0.3-1.9,1-2.6s1.6-1,2.7-1
			c1.1,0,1.9,0.3,2.4,0.8s0.8,1.3,0.8,2.3V134.3z M87,133.1c0-0.4-0.1-0.8-0.3-1s-0.5-0.3-1-0.3c-0.4,0-0.7,0.1-1,0.3
			s-0.4,0.5-0.4,1H87z"/>
		<path class="st5" d="M97.4,137.2h-2.1v-3.3c0-0.3,0-0.5,0-0.8s-0.1-0.5-0.1-0.6c-0.1-0.1-0.2-0.2-0.3-0.3s-0.4-0.1-0.6-0.1
			c-0.2,0-0.4,0-0.6,0.1s-0.4,0.2-0.6,0.3v4.7h-2.1v-6.6h2.1v0.7c0.4-0.3,0.7-0.5,1.1-0.7s0.7-0.2,1.1-0.2c0.7,0,1.3,0.2,1.7,0.6
			c0.4,0.4,0.6,1,0.6,1.9V137.2z"/>
		<path class="st5" d="M103.9,137.2c-0.2,0.1-0.5,0.1-0.7,0.1s-0.6,0-0.9,0c-0.8,0-1.4-0.2-1.8-0.5s-0.6-0.9-0.6-1.7v-3.1h-0.9v-1.4
			h0.9v-1.9h2.1v1.9h2v1.4h-2v2.3c0,0.2,0,0.4,0,0.6c0,0.2,0,0.3,0.1,0.5c0.1,0.1,0.2,0.2,0.3,0.3c0.1,0.1,0.3,0.1,0.6,0.1
			c0.1,0,0.3,0,0.4-0.1s0.3-0.1,0.4-0.1h0.2V137.2z"/>
		<path class="st5" d="M111.9,134.3h-4.8c0,0.5,0.2,0.9,0.6,1.2s0.9,0.4,1.6,0.4c0.4,0,0.9-0.1,1.3-0.2s0.7-0.3,1-0.5h0.2v1.7
			c-0.5,0.2-0.9,0.3-1.3,0.4s-0.9,0.1-1.4,0.1c-1.3,0-2.3-0.3-3-0.9s-1.1-1.4-1.1-2.5c0-1.1,0.3-1.9,1-2.6s1.6-1,2.7-1
			c1.1,0,1.9,0.3,2.4,0.8s0.8,1.3,0.8,2.3V134.3z M109.8,133.1c0-0.4-0.1-0.8-0.3-1s-0.5-0.3-1-0.3c-0.4,0-0.7,0.1-1,0.3
			s-0.4,0.5-0.4,1H109.8z"/>
		<path class="st5" d="M119.4,135.1c0,0.7-0.3,1.2-0.9,1.6s-1.4,0.6-2.5,0.6c-0.6,0-1.1-0.1-1.6-0.2s-0.9-0.2-1.1-0.4v-1.7h0.2
			c0.1,0.1,0.2,0.2,0.4,0.2s0.3,0.2,0.6,0.3c0.2,0.1,0.5,0.2,0.7,0.2s0.6,0.1,0.9,0.1c0.4,0,0.7,0,0.9-0.1s0.3-0.2,0.3-0.4
			c0-0.2-0.1-0.3-0.2-0.3s-0.3-0.1-0.7-0.2c-0.2,0-0.4-0.1-0.6-0.1s-0.5-0.1-0.7-0.1c-0.6-0.2-1-0.4-1.3-0.7s-0.4-0.7-0.4-1.2
			c0-0.6,0.3-1.2,0.9-1.6s1.4-0.6,2.5-0.6c0.5,0,1,0,1.4,0.1s0.8,0.2,1.1,0.3v1.7h-0.2c-0.3-0.2-0.7-0.4-1.1-0.5s-0.8-0.2-1.2-0.2
			c-0.3,0-0.6,0-0.9,0.1s-0.3,0.2-0.3,0.4c0,0.2,0.1,0.3,0.2,0.4s0.4,0.2,0.7,0.2c0.2,0,0.4,0.1,0.7,0.1s0.5,0.1,0.7,0.2
			c0.6,0.1,1,0.4,1.2,0.7S119.4,134.7,119.4,135.1z"/>
	</g>
	<g>
		<path class="st4" d="M83.4,173.4c0,1-0.4,1.8-1.2,2.5s-1.9,1.1-3.3,1.2v3.2h-1.5v-3.1c-0.7,0-1.4-0.1-2.3-0.2s-1.5-0.3-2-0.6v-2.6
			h0.4c0.5,0.3,1.2,0.5,1.9,0.7s1.4,0.3,2.1,0.3v-2.4l-0.9-0.2c-0.5-0.1-1-0.3-1.5-0.4s-0.8-0.4-1.2-0.7s-0.6-0.6-0.8-1
			s-0.3-0.9-0.3-1.5c0-0.9,0.4-1.6,1.2-2.2s1.9-1,3.3-1.1v-2h1.5v2c0.5,0,1.2,0.1,1.9,0.2s1.3,0.3,1.7,0.4v2.5H82
			c-0.4-0.2-0.9-0.4-1.5-0.6s-1.1-0.3-1.8-0.3v2.2l0.7,0.1c1.3,0.3,2.3,0.6,2.9,1.2S83.4,172.5,83.4,173.4z M77.4,169.7v-2
			c-0.4,0-0.7,0.1-1,0.3s-0.5,0.4-0.5,0.7c0,0.3,0.1,0.5,0.3,0.6S76.8,169.6,77.4,169.7z M80.2,173.8c0-0.3-0.2-0.6-0.5-0.8
			s-0.6-0.3-0.9-0.3v2.2c0.4-0.1,0.7-0.2,1-0.3S80.2,174.1,80.2,173.8z"/>
		<path class="st4" d="M96.3,177.2H86V175c0.8-0.6,1.6-1.2,2.4-1.8s1.4-1.2,1.9-1.7c0.7-0.7,1.2-1.3,1.5-1.8s0.4-1,0.4-1.5
			c0-0.6-0.2-1.1-0.6-1.4s-0.9-0.5-1.7-0.5c-0.5,0-1.1,0.1-1.7,0.3s-1.1,0.5-1.7,0.9h-0.3v-2.9c0.4-0.2,1-0.4,1.8-0.5
			s1.6-0.3,2.4-0.3c1.6,0,2.9,0.3,3.8,1s1.3,1.7,1.3,2.9c0,0.8-0.2,1.6-0.6,2.4s-1,1.5-1.9,2.3c-0.5,0.5-1.1,0.9-1.6,1.4
			s-0.9,0.7-1.2,0.9h5.9V177.2z"/>
		<path class="st4" d="M109.1,177.2H98.8V175c0.8-0.6,1.6-1.2,2.4-1.8s1.4-1.2,1.9-1.7c0.7-0.7,1.2-1.3,1.5-1.8s0.4-1,0.4-1.5
			c0-0.6-0.2-1.1-0.6-1.4s-0.9-0.5-1.7-0.5c-0.5,0-1.1,0.1-1.7,0.3s-1.1,0.5-1.7,0.9h-0.3v-2.9c0.4-0.2,1-0.4,1.8-0.5
			s1.6-0.3,2.4-0.3c1.6,0,2.9,0.3,3.8,1s1.3,1.7,1.3,2.9c0,0.8-0.2,1.6-0.6,2.4s-1,1.5-1.9,2.3c-0.5,0.5-1.1,0.9-1.6,1.4
			s-0.9,0.7-1.2,0.9h5.9V177.2z"/>
		<path class="st4" d="M115.4,173.8l-3.2,6.7h-2l1.7-6.7H115.4z"/>
		<path class="st4" d="M128.3,170.7c0,1.1-0.1,2.1-0.3,3c-0.2,0.9-0.5,1.6-0.9,2.1c-0.4,0.6-1,1-1.7,1.3c-0.7,0.3-1.5,0.4-2.5,0.4
			c-1,0-1.8-0.1-2.5-0.4c-0.7-0.3-1.3-0.7-1.7-1.3c-0.4-0.6-0.7-1.3-0.9-2.1s-0.3-1.8-0.3-2.9c0-1.1,0.1-2.1,0.3-3s0.5-1.5,0.9-2.1
			c0.4-0.6,1-1,1.7-1.3c0.7-0.3,1.5-0.4,2.5-0.4c1,0,1.8,0.1,2.5,0.4c0.7,0.3,1.2,0.7,1.7,1.3c0.4,0.6,0.7,1.3,0.9,2.1
			C128.2,168.6,128.3,169.6,128.3,170.7z M124.9,170.7c0-1.6-0.2-2.7-0.5-3.4c-0.3-0.7-0.8-1-1.5-1s-1.2,0.3-1.5,1
			c-0.3,0.7-0.5,1.8-0.5,3.4c0,1.6,0.2,2.7,0.5,3.4s0.8,1,1.5,1s1.2-0.3,1.5-1S124.9,172.2,124.9,170.7z"/>
		<path class="st4" d="M140.9,169.9c0,1.1-0.1,2.1-0.4,3.1s-0.7,1.7-1.3,2.4c-0.6,0.7-1.4,1.2-2.3,1.6c-0.9,0.3-2,0.5-3.2,0.5
			c-0.4,0-0.9,0-1.4-0.1s-0.8-0.1-1-0.1v-2.6h0.4c0.2,0.1,0.4,0.2,0.8,0.3s0.8,0.1,1.3,0.1c0.5,0,0.9-0.1,1.3-0.2s0.8-0.3,1.1-0.5
			c0.3-0.3,0.6-0.6,0.9-1s0.4-0.9,0.4-1.4c-0.5,0.3-1,0.5-1.4,0.7c-0.4,0.2-1,0.2-1.6,0.2c-0.5,0-1-0.1-1.4-0.2
			c-0.4-0.1-0.9-0.3-1.2-0.6c-0.5-0.3-0.9-0.8-1.2-1.4s-0.4-1.3-0.4-2.1c0-1.4,0.5-2.5,1.5-3.4s2.3-1.3,3.8-1.3
			c0.8,0,1.5,0.1,2.2,0.3c0.6,0.2,1.2,0.5,1.6,1c0.5,0.5,0.9,1.1,1.2,1.9C140.7,167.9,140.9,168.8,140.9,169.9z M137.5,169.4
			c0-0.7-0.1-1.3-0.2-1.8c-0.1-0.5-0.3-0.8-0.6-1.1c-0.2-0.2-0.4-0.3-0.6-0.4c-0.2-0.1-0.5-0.1-0.7-0.1c-0.2,0-0.4,0-0.7,0.1
			c-0.2,0.1-0.4,0.2-0.6,0.4c-0.2,0.2-0.3,0.4-0.4,0.7c-0.1,0.3-0.2,0.7-0.2,1.1c0,0.4,0.1,0.8,0.2,1c0.1,0.3,0.3,0.5,0.5,0.7
			c0.2,0.2,0.4,0.3,0.7,0.3s0.6,0.1,0.9,0.1c0.3,0,0.6,0,0.9-0.1c0.3-0.1,0.6-0.1,0.7-0.2c0-0.1,0-0.2,0-0.3
			C137.5,169.9,137.5,169.7,137.5,169.4z"/>
		<path class="st4" d="M152.7,171.1c0.3,0.2,0.5,0.5,0.7,0.9s0.3,0.8,0.3,1.3c0,0.6-0.1,1.2-0.4,1.7s-0.6,1-1.1,1.4
			c-0.5,0.4-1.1,0.7-1.7,0.8s-1.5,0.3-2.4,0.3c-1.1,0-2-0.1-2.8-0.3s-1.4-0.4-1.9-0.6v-2.9h0.3c0.5,0.3,1.1,0.6,1.8,0.8
			s1.3,0.3,1.9,0.3c0.3,0,0.7,0,1.1-0.1s0.7-0.2,1-0.4c0.2-0.1,0.4-0.3,0.5-0.5s0.2-0.5,0.2-0.9c0-0.4-0.1-0.7-0.3-0.9
			s-0.4-0.4-0.7-0.4c-0.3-0.1-0.6-0.1-1-0.2s-0.8,0-1.1,0h-0.7v-2.3h0.7c0.5,0,0.9,0,1.2,0s0.7-0.1,0.9-0.2c0.3-0.1,0.5-0.3,0.6-0.4
			s0.2-0.5,0.2-0.8c0-0.3-0.1-0.5-0.2-0.6s-0.3-0.3-0.5-0.4c-0.2-0.1-0.5-0.2-0.8-0.2s-0.6-0.1-0.8-0.1c-0.6,0-1.1,0.1-1.8,0.3
			s-1.3,0.5-1.9,0.8h-0.3v-2.8c0.5-0.2,1.1-0.4,2-0.6s1.7-0.3,2.5-0.3c0.8,0,1.5,0.1,2.2,0.2s1.1,0.3,1.5,0.6c0.5,0.3,0.8,0.6,1.1,1
			s0.4,0.9,0.4,1.4c0,0.7-0.2,1.4-0.7,1.9s-1,0.9-1.8,1.1v0.1c0.3,0,0.6,0.1,0.9,0.2S152.4,170.8,152.7,171.1z"/>
	</g>
	<g>
		<path class="st5" d="M69.8,197.4c-0.6,0-1.1-0.1-1.6-0.2s-0.9-0.3-1.2-0.6c-0.3-0.3-0.6-0.6-0.8-1.1s-0.3-0.9-0.3-1.5
			c0-0.6,0.1-1.1,0.3-1.6s0.5-0.8,0.9-1.1c0.4-0.3,0.8-0.5,1.2-0.6s0.9-0.2,1.4-0.2c0.4,0,0.9,0,1.2,0.1s0.7,0.2,1.1,0.4v1.8h-0.3
			c-0.1-0.1-0.2-0.2-0.3-0.2c-0.1-0.1-0.3-0.2-0.4-0.3c-0.2-0.1-0.3-0.2-0.5-0.2c-0.2-0.1-0.4-0.1-0.7-0.1c-0.6,0-1,0.2-1.3,0.5
			c-0.3,0.4-0.5,0.8-0.5,1.5c0,0.6,0.2,1.1,0.5,1.4c0.3,0.3,0.8,0.5,1.3,0.5c0.3,0,0.5,0,0.7-0.1c0.2-0.1,0.4-0.1,0.5-0.2
			c0.1-0.1,0.2-0.2,0.4-0.2c0.1-0.1,0.2-0.2,0.3-0.3h0.3v1.8c-0.3,0.2-0.7,0.3-1,0.4S70.3,197.4,69.8,197.4z"/>
		<path class="st5" d="M77.6,196.5c-0.1,0.1-0.3,0.2-0.4,0.3s-0.3,0.2-0.5,0.3c-0.2,0.1-0.4,0.2-0.6,0.2s-0.5,0.1-0.7,0.1
			c-0.6,0-1.1-0.2-1.6-0.6s-0.6-0.9-0.6-1.5c0-0.5,0.1-0.9,0.3-1.2s0.5-0.5,0.9-0.7c0.4-0.2,0.9-0.3,1.5-0.4s1.2-0.1,1.8-0.2v0
			c0-0.4-0.1-0.6-0.4-0.8s-0.7-0.2-1.3-0.2c-0.3,0-0.7,0.1-1.1,0.2s-0.7,0.2-0.8,0.3h-0.2v-1.6c0.2-0.1,0.6-0.1,1.1-0.2
			s1-0.1,1.5-0.1c1.2,0,2.1,0.2,2.6,0.6s0.8,0.9,0.8,1.7v4.5h-2.1V196.5z M77.6,195.5v-1.4c-0.3,0-0.6,0.1-0.9,0.1
			c-0.3,0-0.6,0.1-0.8,0.1c-0.2,0.1-0.4,0.2-0.5,0.3s-0.2,0.3-0.2,0.5c0,0.1,0,0.2,0,0.3c0,0.1,0.1,0.2,0.2,0.2
			c0.1,0.1,0.2,0.1,0.3,0.2c0.1,0,0.3,0.1,0.6,0.1c0.2,0,0.4,0,0.6-0.1C77.2,195.7,77.4,195.6,77.6,195.5z"/>
		<path class="st5" d="M86.5,192.6h-0.2c-0.1,0-0.2-0.1-0.4-0.1s-0.4,0-0.5,0c-0.3,0-0.6,0-0.8,0.1s-0.5,0.1-0.7,0.2v4.4h-2.1v-6.6
			h2.1v1c0.5-0.4,0.9-0.7,1.2-0.8c0.3-0.1,0.7-0.2,0.9-0.2c0.1,0,0.2,0,0.3,0c0.1,0,0.2,0,0.2,0V192.6z"/>
		<path class="st5" d="M92,197.2c-0.2,0.1-0.5,0.1-0.7,0.1s-0.6,0-0.9,0c-0.8,0-1.4-0.2-1.8-0.5s-0.6-0.9-0.6-1.7v-3.1H87v-1.4h0.9
			v-1.9H90v1.9h2v1.4h-2v2.3c0,0.2,0,0.4,0,0.6c0,0.2,0,0.3,0.1,0.5c0.1,0.1,0.2,0.2,0.3,0.3c0.1,0.1,0.3,0.1,0.6,0.1
			c0.1,0,0.3,0,0.4-0.1s0.3-0.1,0.4-0.1H92V197.2z"/>
		<path class="st5" d="M99.9,194.3H95c0,0.5,0.2,0.9,0.6,1.2s0.9,0.4,1.6,0.4c0.4,0,0.9-0.1,1.3-0.2s0.7-0.3,1-0.5h0.2v1.7
			c-0.5,0.2-0.9,0.3-1.3,0.4s-0.9,0.1-1.4,0.1c-1.3,0-2.3-0.3-3-0.9s-1.1-1.4-1.1-2.5c0-1.1,0.3-1.9,1-2.6s1.6-1,2.7-1
			c1.1,0,1.9,0.3,2.4,0.8s0.8,1.3,0.8,2.3V194.3z M97.8,193.1c0-0.4-0.1-0.8-0.3-1s-0.5-0.3-1-0.3c-0.4,0-0.7,0.1-1,0.3
			s-0.4,0.5-0.4,1H97.8z"/>
		<path class="st5" d="M106.2,192.6H106c-0.1,0-0.2-0.1-0.4-0.1s-0.4,0-0.5,0c-0.3,0-0.6,0-0.8,0.1s-0.5,0.1-0.7,0.2v4.4h-2.1v-6.6
			h2.1v1c0.5-0.4,0.9-0.7,1.2-0.8c0.3-0.1,0.7-0.2,0.9-0.2c0.1,0,0.2,0,0.3,0c0.1,0,0.2,0,0.2,0V192.6z"/>
		<path class="st5" d="M111.5,196.5c-0.1,0.1-0.3,0.2-0.4,0.3s-0.3,0.2-0.5,0.3c-0.2,0.1-0.4,0.2-0.6,0.2s-0.5,0.1-0.7,0.1
			c-0.6,0-1.1-0.2-1.6-0.6s-0.6-0.9-0.6-1.5c0-0.5,0.1-0.9,0.3-1.2s0.5-0.5,0.9-0.7c0.4-0.2,0.9-0.3,1.5-0.4s1.2-0.1,1.8-0.2v0
			c0-0.4-0.1-0.6-0.4-0.8s-0.7-0.2-1.3-0.2c-0.3,0-0.7,0.1-1.1,0.2s-0.7,0.2-0.8,0.3h-0.2v-1.6c0.2-0.1,0.6-0.1,1.1-0.2
			s1-0.1,1.5-0.1c1.2,0,2.1,0.2,2.6,0.6s0.8,0.9,0.8,1.7v4.5h-2.1V196.5z M111.5,195.5v-1.4c-0.3,0-0.6,0.1-0.9,0.1
			c-0.3,0-0.6,0.1-0.8,0.1c-0.2,0.1-0.4,0.2-0.5,0.3s-0.2,0.3-0.2,0.5c0,0.1,0,0.2,0,0.3c0,0.1,0.1,0.2,0.2,0.2
			c0.1,0.1,0.2,0.1,0.3,0.2c0.1,0,0.3,0.1,0.6,0.1c0.2,0,0.4,0,0.6-0.1C111.2,195.7,111.4,195.6,111.5,195.5z"/>
		<path class="st5" d="M124.4,199.6h-2.2c-0.8-0.9-1.3-1.8-1.7-2.7s-0.5-1.9-0.5-3.1s0.2-2.1,0.5-3.1s0.9-1.8,1.7-2.7h2.2v0.2
			c-0.3,0.3-0.6,0.6-0.9,1s-0.6,0.8-0.8,1.3c-0.2,0.5-0.4,1-0.6,1.5s-0.2,1.2-0.2,1.8c0,0.7,0.1,1.3,0.2,1.8s0.3,1.1,0.6,1.5
			c0.2,0.5,0.5,0.9,0.8,1.3s0.6,0.7,0.9,1V199.6z"/>
		<path class="st5" d="M132.9,192.5v4.7h-2.1v-3.3c0-0.3,0-0.6,0-0.8s-0.1-0.4-0.1-0.5s-0.2-0.2-0.3-0.3s-0.3-0.1-0.6-0.1
			c-0.2,0-0.4,0-0.6,0.1s-0.4,0.2-0.5,0.3v4.7h-2.1v-6.6h2.1v0.7c0.4-0.3,0.7-0.5,1-0.7s0.7-0.2,1.1-0.2c0.4,0,0.8,0.1,1.1,0.3
			c0.3,0.2,0.6,0.5,0.8,0.9c0.4-0.4,0.8-0.6,1.2-0.8s0.8-0.3,1.2-0.3c0.7,0,1.2,0.2,1.6,0.6c0.4,0.4,0.6,1,0.6,1.8v4.3h-2.1v-3.3
			c0-0.3,0-0.6,0-0.8s-0.1-0.4-0.1-0.5c-0.1-0.1-0.2-0.2-0.3-0.3s-0.3-0.1-0.6-0.1c-0.2,0-0.3,0-0.5,0.1S133.2,192.4,132.9,192.5z"
			/>
		<path class="st5" d="M141.5,189.7h-2.2v-1.6h2.2V189.7z M141.4,197.2h-2.1v-6.6h2.1V197.2z"/>
		<path class="st5" d="M145.7,197.2h-2.1v-9.1h2.1V197.2z"/>
		<path class="st5" d="M149.9,197.2h-2.1v-9.1h2.1V197.2z"/>
		<path class="st5" d="M158.7,193.9c0,1.1-0.3,1.9-0.9,2.6s-1.5,0.9-2.7,0.9s-2-0.3-2.7-0.9s-0.9-1.5-0.9-2.6c0-1.1,0.3-1.9,1-2.6
			s1.5-0.9,2.7-0.9c1.1,0,2,0.3,2.7,0.9S158.7,192.8,158.7,193.9z M156.1,195.5c0.1-0.2,0.2-0.4,0.3-0.6s0.1-0.6,0.1-1
			c0-0.4,0-0.7-0.1-1s-0.2-0.5-0.3-0.6c-0.1-0.2-0.3-0.3-0.5-0.3s-0.4-0.1-0.6-0.1s-0.4,0-0.5,0.1s-0.3,0.2-0.5,0.3
			c-0.1,0.2-0.2,0.4-0.3,0.6s-0.1,0.6-0.1,1c0,0.4,0,0.7,0.1,0.9s0.2,0.5,0.3,0.6c0.1,0.2,0.3,0.3,0.4,0.3s0.4,0.1,0.6,0.1
			c0.2,0,0.4,0,0.5-0.1S156,195.7,156.1,195.5z"/>
		<path class="st5" d="M166.9,197.2h-2.1v-3.3c0-0.3,0-0.5,0-0.8s-0.1-0.5-0.1-0.6c-0.1-0.1-0.2-0.2-0.3-0.3s-0.4-0.1-0.6-0.1
			c-0.2,0-0.4,0-0.6,0.1s-0.4,0.2-0.6,0.3v4.7h-2.1v-6.6h2.1v0.7c0.4-0.3,0.7-0.5,1.1-0.7s0.7-0.2,1.1-0.2c0.7,0,1.3,0.2,1.7,0.6
			c0.4,0.4,0.6,1,0.6,1.9V197.2z"/>
		<path class="st5" d="M175.5,194.3h-4.8c0,0.5,0.2,0.9,0.6,1.2s0.9,0.4,1.6,0.4c0.4,0,0.9-0.1,1.3-0.2s0.7-0.3,1-0.5h0.2v1.7
			c-0.5,0.2-0.9,0.3-1.3,0.4s-0.9,0.1-1.4,0.1c-1.3,0-2.3-0.3-3-0.9s-1.1-1.4-1.1-2.5c0-1.1,0.3-1.9,1-2.6s1.6-1,2.7-1
			c1.1,0,1.9,0.3,2.4,0.8s0.8,1.3,0.8,2.3V194.3z M173.4,193.1c0-0.4-0.1-0.8-0.3-1s-0.5-0.3-1-0.3c-0.4,0-0.7,0.1-1,0.3
			s-0.4,0.5-0.4,1H173.4z"/>
		<path class="st5" d="M182.8,195.1c0,0.7-0.3,1.2-0.9,1.6s-1.4,0.6-2.5,0.6c-0.6,0-1.1-0.1-1.6-0.2s-0.9-0.2-1.1-0.4v-1.7h0.2
			c0.1,0.1,0.2,0.2,0.4,0.2s0.3,0.2,0.6,0.3c0.2,0.1,0.5,0.2,0.7,0.2s0.6,0.1,0.9,0.1c0.4,0,0.7,0,0.9-0.1s0.3-0.2,0.3-0.4
			c0-0.2-0.1-0.3-0.2-0.3s-0.3-0.1-0.7-0.2c-0.2,0-0.4-0.1-0.6-0.1s-0.5-0.1-0.7-0.1c-0.6-0.2-1-0.4-1.3-0.7s-0.4-0.7-0.4-1.2
			c0-0.6,0.3-1.2,0.9-1.6s1.4-0.6,2.5-0.6c0.5,0,1,0,1.4,0.1s0.8,0.2,1.1,0.3v1.7h-0.2c-0.3-0.2-0.7-0.4-1.1-0.5s-0.8-0.2-1.2-0.2
			c-0.3,0-0.6,0-0.9,0.1s-0.3,0.2-0.3,0.4c0,0.2,0.1,0.3,0.2,0.4s0.4,0.2,0.7,0.2c0.2,0,0.4,0.1,0.7,0.1s0.5,0.1,0.7,0.2
			c0.6,0.1,1,0.4,1.2,0.7S182.8,194.7,182.8,195.1z"/>
		<path class="st5" d="M194.9,197.2h-2.1v-0.7c-0.4,0.3-0.7,0.5-1,0.7c-0.3,0.1-0.7,0.2-1.1,0.2c-0.8,0-1.4-0.3-1.9-0.9
			S188,195,188,194c0-0.6,0.1-1.1,0.2-1.5c0.2-0.4,0.4-0.8,0.7-1.1c0.3-0.3,0.6-0.5,1-0.7s0.8-0.2,1.1-0.2c0.4,0,0.7,0,1,0.1
			s0.5,0.2,0.8,0.3v-2.8h2.1V197.2z M192.8,195.4v-3.2c-0.1-0.1-0.3-0.1-0.5-0.1c-0.2,0-0.3,0-0.5,0c-0.6,0-1,0.2-1.2,0.5
			s-0.4,0.8-0.4,1.4c0,0.6,0.1,1.1,0.3,1.4s0.6,0.4,1.1,0.4c0.2,0,0.4,0,0.6-0.1S192.6,195.5,192.8,195.4z"/>
		<path class="st5" d="M203.5,194.3h-4.8c0,0.5,0.2,0.9,0.6,1.2s0.9,0.4,1.6,0.4c0.4,0,0.9-0.1,1.3-0.2s0.7-0.3,1-0.5h0.2v1.7
			c-0.5,0.2-0.9,0.3-1.3,0.4s-0.9,0.1-1.4,0.1c-1.3,0-2.3-0.3-3-0.9s-1.1-1.4-1.1-2.5c0-1.1,0.3-1.9,1-2.6s1.6-1,2.7-1
			c1.1,0,1.9,0.3,2.4,0.8s0.8,1.3,0.8,2.3V194.3z M201.4,193.1c0-0.4-0.1-0.8-0.3-1s-0.5-0.3-1-0.3c-0.4,0-0.7,0.1-1,0.3
			s-0.4,0.5-0.4,1H201.4z"/>
		<path class="st5" d="M216.2,193.8c0,0.5-0.1,1-0.2,1.5c-0.2,0.4-0.4,0.8-0.7,1.1c-0.3,0.3-0.6,0.5-1,0.7s-0.7,0.2-1.1,0.2
			c-0.4,0-0.7,0-1-0.1c-0.3-0.1-0.5-0.2-0.8-0.3v2.7h-2.1v-9h2.1v0.7c0.3-0.3,0.7-0.5,1-0.6s0.7-0.2,1.2-0.2c0.8,0,1.5,0.3,1.9,0.9
			C216,192,216.2,192.8,216.2,193.8z M214,193.9c0-0.6-0.1-1.1-0.3-1.4c-0.2-0.3-0.6-0.4-1-0.4c-0.2,0-0.4,0-0.6,0.1
			s-0.4,0.1-0.6,0.3v3.3c0.1,0.1,0.3,0.1,0.5,0.1s0.3,0,0.5,0c0.6,0,1-0.2,1.2-0.5S214,194.5,214,193.9z"/>
		<path class="st5" d="M224.3,194.3h-4.8c0,0.5,0.2,0.9,0.6,1.2s0.9,0.4,1.6,0.4c0.4,0,0.9-0.1,1.3-0.2s0.7-0.3,1-0.5h0.2v1.7
			c-0.5,0.2-0.9,0.3-1.3,0.4s-0.9,0.1-1.4,0.1c-1.3,0-2.3-0.3-3-0.9s-1.1-1.4-1.1-2.5c0-1.1,0.3-1.9,1-2.6s1.6-1,2.7-1
			c1.1,0,1.9,0.3,2.4,0.8s0.8,1.3,0.8,2.3V194.3z M222.2,193.1c0-0.4-0.1-0.8-0.3-1s-0.5-0.3-1-0.3c-0.4,0-0.7,0.1-1,0.3
			s-0.4,0.5-0.4,1H222.2z"/>
		<path class="st5" d="M231.6,195.1c0,0.7-0.3,1.2-0.9,1.6s-1.4,0.6-2.5,0.6c-0.6,0-1.1-0.1-1.6-0.2s-0.9-0.2-1.1-0.4v-1.7h0.2
			c0.1,0.1,0.2,0.2,0.4,0.2s0.3,0.2,0.6,0.3c0.2,0.1,0.5,0.2,0.7,0.2s0.6,0.1,0.9,0.1c0.4,0,0.7,0,0.9-0.1s0.3-0.2,0.3-0.4
			c0-0.2-0.1-0.3-0.2-0.3s-0.3-0.1-0.7-0.2c-0.2,0-0.4-0.1-0.6-0.1s-0.5-0.1-0.7-0.1c-0.6-0.2-1-0.4-1.3-0.7s-0.4-0.7-0.4-1.2
			c0-0.6,0.3-1.2,0.9-1.6s1.4-0.6,2.5-0.6c0.5,0,1,0,1.4,0.1s0.8,0.2,1.1,0.3v1.7h-0.2c-0.3-0.2-0.7-0.4-1.1-0.5s-0.8-0.2-1.2-0.2
			c-0.3,0-0.6,0-0.9,0.1s-0.3,0.2-0.3,0.4c0,0.2,0.1,0.3,0.2,0.4s0.4,0.2,0.7,0.2c0.2,0,0.4,0.1,0.7,0.1s0.5,0.1,0.7,0.2
			c0.6,0.1,1,0.4,1.2,0.7S231.6,194.7,231.6,195.1z"/>
		<path class="st5" d="M239.8,193.9c0,1.1-0.3,1.9-0.9,2.6s-1.5,0.9-2.7,0.9s-2-0.3-2.7-0.9s-0.9-1.5-0.9-2.6c0-1.1,0.3-1.9,1-2.6
			s1.5-0.9,2.7-0.9c1.1,0,2,0.3,2.7,0.9S239.8,192.8,239.8,193.9z M237.2,195.5c0.1-0.2,0.2-0.4,0.3-0.6s0.1-0.6,0.1-1
			c0-0.4,0-0.7-0.1-1s-0.2-0.5-0.3-0.6c-0.1-0.2-0.3-0.3-0.5-0.3s-0.4-0.1-0.6-0.1s-0.4,0-0.5,0.1s-0.3,0.2-0.5,0.3
			c-0.1,0.2-0.2,0.4-0.3,0.6s-0.1,0.6-0.1,1c0,0.4,0,0.7,0.1,0.9s0.2,0.5,0.3,0.6c0.1,0.2,0.3,0.3,0.4,0.3s0.4,0.1,0.6,0.1
			c0.2,0,0.4,0,0.5-0.1S237.1,195.7,237.2,195.5z"/>
		<path class="st5" d="M247.2,195.1c0,0.7-0.3,1.2-0.9,1.6s-1.4,0.6-2.5,0.6c-0.6,0-1.1-0.1-1.6-0.2s-0.9-0.2-1.1-0.4v-1.7h0.2
			c0.1,0.1,0.2,0.2,0.4,0.2s0.3,0.2,0.6,0.3c0.2,0.1,0.5,0.2,0.7,0.2s0.6,0.1,0.9,0.1c0.4,0,0.7,0,0.9-0.1s0.3-0.2,0.3-0.4
			c0-0.2-0.1-0.3-0.2-0.3s-0.3-0.1-0.7-0.2c-0.2,0-0.4-0.1-0.6-0.1s-0.5-0.1-0.7-0.1c-0.6-0.2-1-0.4-1.3-0.7s-0.4-0.7-0.4-1.2
			c0-0.6,0.3-1.2,0.9-1.6s1.4-0.6,2.5-0.6c0.5,0,1,0,1.4,0.1s0.8,0.2,1.1,0.3v1.7h-0.2c-0.3-0.2-0.7-0.4-1.1-0.5s-0.8-0.2-1.2-0.2
			c-0.3,0-0.6,0-0.9,0.1s-0.3,0.2-0.3,0.4c0,0.2,0.1,0.3,0.2,0.4s0.4,0.2,0.7,0.2c0.2,0,0.4,0.1,0.7,0.1s0.5,0.1,0.7,0.2
			c0.6,0.1,1,0.4,1.2,0.7S247.2,194.7,247.2,195.1z"/>
		<path class="st5" d="M253.1,193.9c0,1.1-0.2,2.1-0.5,3.1s-0.9,1.8-1.7,2.7h-2.2v-0.2c0.3-0.3,0.6-0.6,0.9-1s0.6-0.8,0.8-1.3
			c0.2-0.5,0.4-1,0.6-1.5s0.2-1.1,0.2-1.8c0-0.6-0.1-1.2-0.2-1.8s-0.3-1.1-0.6-1.5c-0.2-0.5-0.5-0.9-0.8-1.3s-0.6-0.7-0.9-1v-0.2
			h2.2c0.8,0.9,1.3,1.8,1.7,2.7S253.1,192.8,253.1,193.9z"/>
	</g>
	<g>
		<path class="st4" d="M83.2,235.2c0,0.7-0.1,1.3-0.4,1.9s-0.6,1.1-1.1,1.5c-0.5,0.4-1.2,0.8-1.9,1c-0.7,0.2-1.5,0.3-2.4,0.3
			c-1,0-1.9-0.1-2.7-0.3c-0.7-0.2-1.3-0.3-1.8-0.5v-2.9h0.4c0.5,0.3,1.1,0.6,1.7,0.8s1.2,0.3,1.8,0.3c0.4,0,0.8,0,1.2-0.1
			s0.8-0.2,1-0.5c0.2-0.2,0.4-0.4,0.5-0.6s0.2-0.5,0.2-0.9c0-0.3-0.1-0.6-0.2-0.8c-0.1-0.2-0.3-0.4-0.5-0.5
			c-0.3-0.2-0.7-0.3-1.1-0.4c-0.4-0.1-0.8-0.1-1.2-0.1c-0.5,0-1,0-1.5,0.1c-0.5,0.1-0.9,0.2-1.3,0.3h-0.4v-7.4h9.3v2.5h-6.1v2.1
			c0.2,0,0.4,0,0.7,0c0.3,0,0.5,0,0.7,0c0.7,0,1.4,0.1,1.9,0.2s1.1,0.3,1.5,0.6c0.5,0.3,0.9,0.7,1.2,1.3
			C83,233.7,83.2,234.4,83.2,235.2z"/>
		<path class="st4" d="M89.3,239.6H86v-3.5h3.3V239.6z"/>
		<path class="st4" d="M102.8,235.2c0,0.7-0.1,1.3-0.4,1.9s-0.6,1.1-1,1.5c-0.5,0.4-1,0.8-1.6,1s-1.4,0.3-2.2,0.3
			c-0.8,0-1.5-0.1-2.1-0.3c-0.6-0.2-1.2-0.5-1.7-1c-0.5-0.5-0.9-1.2-1.2-2s-0.4-1.7-0.4-2.9c0-1.1,0.1-2.2,0.4-3.1s0.7-1.7,1.3-2.4
			c0.6-0.7,1.3-1.2,2.2-1.5s2-0.5,3.3-0.5c0.4,0,0.9,0,1.4,0.1s0.8,0.1,1,0.1v2.6h-0.3c-0.2-0.1-0.4-0.2-0.8-0.3
			c-0.4-0.1-0.8-0.1-1.3-0.1c-1.1,0-2,0.3-2.6,0.8s-1,1.3-1.1,2.3c0.5-0.3,0.9-0.5,1.4-0.7c0.5-0.2,1-0.2,1.6-0.2
			c0.5,0,1,0.1,1.4,0.2s0.8,0.3,1.2,0.6c0.5,0.3,0.9,0.8,1.2,1.4S102.8,234.3,102.8,235.2z M98.8,237.1c0.2-0.2,0.3-0.4,0.4-0.7
			c0.1-0.3,0.2-0.6,0.2-1.1c0-0.4-0.1-0.8-0.2-1c-0.1-0.3-0.3-0.5-0.5-0.7c-0.2-0.2-0.5-0.3-0.7-0.3c-0.3-0.1-0.6-0.1-0.9-0.1
			c-0.3,0-0.5,0-0.8,0.1s-0.5,0.1-0.8,0.2c0,0.1,0,0.2,0,0.3s0,0.3,0,0.5c0,0.7,0.1,1.3,0.2,1.8c0.1,0.5,0.3,0.8,0.6,1.1
			c0.2,0.2,0.4,0.3,0.6,0.4s0.5,0.1,0.7,0.1c0.2,0,0.4,0,0.6-0.1S98.6,237.3,98.8,237.1z"/>
		<path class="st4" d="M115.8,236.6H114v3h-3.2v-3h-6.3v-2.5l6.1-7.6h3.4v7.7h1.8V236.6z M110.7,234.2v-4.7l-3.8,4.7H110.7z"/>
	</g>
	<g>
		<path class="st4" d="M123.6,232.5c0,1.1-0.3,2-0.8,2.5s-1.3,0.8-2.3,0.8c-1,0-1.8-0.3-2.3-0.8c-0.5-0.6-0.8-1.4-0.8-2.5
			c0-1.1,0.3-2,0.8-2.5c0.5-0.5,1.3-0.8,2.3-0.8c1,0,1.8,0.3,2.3,0.8C123.4,230.6,123.6,231.4,123.6,232.5z M121.6,232.5
			c0-0.7-0.1-1.2-0.3-1.5s-0.4-0.4-0.8-0.4s-0.7,0.1-0.8,0.4s-0.3,0.8-0.3,1.5c0,0.7,0.1,1.2,0.3,1.5s0.4,0.4,0.8,0.4
			s0.7-0.1,0.8-0.4S121.6,233.3,121.6,232.5z M129,229.4l-5.3,10.2h-1.8l5.3-10.2H129z M133.3,236.5c0,1.1-0.3,2-0.8,2.5
			s-1.3,0.8-2.3,0.8c-1,0-1.8-0.3-2.3-0.8c-0.5-0.6-0.8-1.4-0.8-2.5c0-1.1,0.3-2,0.8-2.5c0.5-0.5,1.3-0.8,2.3-0.8
			c1,0,1.8,0.3,2.3,0.8C133,234.5,133.3,235.4,133.3,236.5z M131.3,236.5c0-0.7-0.1-1.2-0.3-1.5s-0.4-0.4-0.8-0.4s-0.7,0.1-0.8,0.4
			s-0.3,0.8-0.3,1.5c0,0.7,0.1,1.2,0.3,1.5s0.4,0.4,0.8,0.4s0.7-0.1,0.8-0.4S131.3,237.2,131.3,236.5z"/>
	</g>
	<g>
		<path class="st5" d="M69.8,257.4c-0.6,0-1.1-0.1-1.6-0.2s-0.9-0.3-1.2-0.6c-0.3-0.3-0.6-0.6-0.8-1.1s-0.3-0.9-0.3-1.5
			c0-0.6,0.1-1.1,0.3-1.6s0.5-0.8,0.9-1.1c0.4-0.3,0.8-0.5,1.2-0.6s0.9-0.2,1.4-0.2c0.4,0,0.9,0,1.2,0.1s0.7,0.2,1.1,0.4v1.8h-0.3
			c-0.1-0.1-0.2-0.2-0.3-0.2c-0.1-0.1-0.3-0.2-0.4-0.3c-0.2-0.1-0.3-0.2-0.5-0.2c-0.2-0.1-0.4-0.1-0.7-0.1c-0.6,0-1,0.2-1.3,0.5
			c-0.3,0.4-0.5,0.8-0.5,1.5c0,0.6,0.2,1.1,0.5,1.4c0.3,0.3,0.8,0.5,1.3,0.5c0.3,0,0.5,0,0.7-0.1c0.2-0.1,0.4-0.1,0.5-0.2
			c0.1-0.1,0.2-0.2,0.4-0.2c0.1-0.1,0.2-0.2,0.3-0.3h0.3v1.8c-0.3,0.2-0.7,0.3-1,0.4S70.3,257.4,69.8,257.4z"/>
		<path class="st5" d="M77.7,256.5c-0.1,0.1-0.3,0.2-0.4,0.3s-0.3,0.2-0.5,0.3c-0.2,0.1-0.4,0.2-0.6,0.2s-0.5,0.1-0.7,0.1
			c-0.6,0-1.1-0.2-1.6-0.6s-0.6-0.9-0.6-1.5c0-0.5,0.1-0.9,0.3-1.2s0.5-0.5,0.9-0.7c0.4-0.2,0.9-0.3,1.5-0.4s1.2-0.1,1.8-0.2v0
			c0-0.4-0.1-0.6-0.4-0.8s-0.7-0.2-1.3-0.2c-0.3,0-0.7,0.1-1.1,0.2s-0.7,0.2-0.8,0.3h-0.2v-1.6c0.2-0.1,0.6-0.1,1.1-0.2
			s1-0.1,1.5-0.1c1.2,0,2.1,0.2,2.6,0.6s0.8,0.9,0.8,1.7v4.5h-2.1V256.5z M77.7,255.5v-1.4c-0.3,0-0.6,0.1-0.9,0.1s-0.6,0.1-0.8,0.1
			c-0.2,0.1-0.4,0.2-0.5,0.3c-0.1,0.1-0.2,0.3-0.2,0.5c0,0.1,0,0.2,0,0.3c0,0.1,0.1,0.2,0.2,0.2c0.1,0.1,0.2,0.1,0.3,0.2
			s0.3,0.1,0.6,0.1c0.2,0,0.4,0,0.6-0.1C77.4,255.7,77.6,255.6,77.7,255.5z"/>
		<path class="st5" d="M86.9,252.6h-0.2c-0.1,0-0.2-0.1-0.4-0.1s-0.4,0-0.5,0c-0.3,0-0.6,0-0.8,0.1s-0.5,0.1-0.7,0.2v4.4h-2.1v-6.6
			h2.1v1c0.5-0.4,0.9-0.7,1.2-0.8c0.3-0.1,0.7-0.2,0.9-0.2c0.1,0,0.2,0,0.3,0c0.1,0,0.2,0,0.2,0V252.6z"/>
		<path class="st5" d="M92.5,257.2c-0.2,0.1-0.5,0.1-0.7,0.1s-0.6,0-0.9,0c-0.8,0-1.4-0.2-1.8-0.5s-0.6-0.9-0.6-1.7v-3.1h-0.9v-1.4
			h0.9v-1.9h2.1v1.9h2v1.4h-2v2.3c0,0.2,0,0.4,0,0.6c0,0.2,0,0.3,0.1,0.5c0.1,0.1,0.2,0.2,0.3,0.3c0.1,0.1,0.3,0.1,0.6,0.1
			c0.1,0,0.3,0,0.4-0.1s0.3-0.1,0.4-0.1h0.2V257.2z"/>
		<path class="st5" d="M100.6,254.3h-4.8c0,0.5,0.2,0.9,0.6,1.2s0.9,0.4,1.6,0.4c0.4,0,0.9-0.1,1.3-0.2s0.7-0.3,1-0.5h0.2v1.7
			c-0.5,0.2-0.9,0.3-1.3,0.4s-0.9,0.1-1.4,0.1c-1.3,0-2.3-0.3-3-0.9c-0.7-0.6-1.1-1.4-1.1-2.5c0-1.1,0.3-1.9,1-2.6s1.6-1,2.7-1
			c1.1,0,1.9,0.3,2.4,0.8s0.8,1.3,0.8,2.3V254.3z M98.5,253.1c0-0.4-0.1-0.8-0.3-1s-0.5-0.3-1-0.3c-0.4,0-0.7,0.1-1,0.3
			s-0.4,0.5-0.4,1H98.5z"/>
		<path class="st5" d="M107.1,252.6h-0.2c-0.1,0-0.2-0.1-0.4-0.1s-0.4,0-0.5,0c-0.3,0-0.6,0-0.8,0.1s-0.5,0.1-0.7,0.2v4.4h-2.1v-6.6
			h2.1v1c0.5-0.4,0.9-0.7,1.2-0.8c0.3-0.1,0.7-0.2,0.9-0.2c0.1,0,0.2,0,0.3,0c0.1,0,0.2,0,0.2,0V252.6z"/>
		<path class="st5" d="M112.6,256.5c-0.1,0.1-0.3,0.2-0.4,0.3s-0.3,0.2-0.5,0.3c-0.2,0.1-0.4,0.2-0.6,0.2s-0.5,0.1-0.7,0.1
			c-0.6,0-1.1-0.2-1.6-0.6s-0.6-0.9-0.6-1.5c0-0.5,0.1-0.9,0.3-1.2s0.5-0.5,0.9-0.7c0.4-0.2,0.9-0.3,1.5-0.4s1.2-0.1,1.8-0.2v0
			c0-0.4-0.1-0.6-0.4-0.8s-0.7-0.2-1.3-0.2c-0.3,0-0.7,0.1-1.1,0.2s-0.7,0.2-0.8,0.3h-0.2v-1.6c0.2-0.1,0.6-0.1,1.1-0.2
			s1-0.1,1.5-0.1c1.2,0,2.1,0.2,2.6,0.6s0.8,0.9,0.8,1.7v4.5h-2.1V256.5z M112.6,255.5v-1.4c-0.3,0-0.6,0.1-0.9,0.1
			s-0.6,0.1-0.8,0.1c-0.2,0.1-0.4,0.2-0.5,0.3c-0.1,0.1-0.2,0.3-0.2,0.5c0,0.1,0,0.2,0,0.3c0,0.1,0.1,0.2,0.2,0.2
			c0.1,0.1,0.2,0.1,0.3,0.2s0.3,0.1,0.6,0.1c0.2,0,0.4,0,0.6-0.1C112.2,255.7,112.4,255.6,112.6,255.5z"/>
		<path class="st5" d="M128,250.6l-2.5,6.6H123l-2.5-6.6h2.2l1.5,4.5l1.5-4.5H128z"/>
		<path class="st5" d="M135.9,254.3h-4.8c0,0.5,0.2,0.9,0.6,1.2s0.9,0.4,1.6,0.4c0.4,0,0.9-0.1,1.3-0.2s0.7-0.3,1-0.5h0.2v1.7
			c-0.5,0.2-0.9,0.3-1.3,0.4s-0.9,0.1-1.4,0.1c-1.3,0-2.3-0.3-3-0.9c-0.7-0.6-1.1-1.4-1.1-2.5c0-1.1,0.3-1.9,1-2.6s1.6-1,2.7-1
			c1.1,0,1.9,0.3,2.4,0.8s0.8,1.3,0.8,2.3V254.3z M133.8,253.1c0-0.4-0.1-0.8-0.3-1s-0.5-0.3-1-0.3c-0.4,0-0.7,0.1-1,0.3
			s-0.4,0.5-0.4,1H133.8z"/>
		<path class="st5" d="M144.3,257.2h-2.1v-3.3c0-0.3,0-0.5,0-0.8s-0.1-0.5-0.1-0.6c-0.1-0.1-0.2-0.2-0.3-0.3s-0.4-0.1-0.6-0.1
			c-0.2,0-0.4,0-0.6,0.1s-0.4,0.2-0.6,0.3v4.7h-2.1v-6.6h2.1v0.7c0.4-0.3,0.7-0.5,1.1-0.7s0.7-0.2,1.1-0.2c0.7,0,1.3,0.2,1.7,0.6
			c0.4,0.4,0.6,1,0.6,1.9V257.2z"/>
		<path class="st5" d="M149.9,257.4c-0.6,0-1.1-0.1-1.6-0.2s-0.9-0.3-1.2-0.6c-0.3-0.3-0.6-0.6-0.8-1.1s-0.3-0.9-0.3-1.5
			c0-0.6,0.1-1.1,0.3-1.6s0.5-0.8,0.9-1.1c0.4-0.3,0.8-0.5,1.2-0.6s0.9-0.2,1.4-0.2c0.4,0,0.9,0,1.2,0.1s0.7,0.2,1.1,0.4v1.8h-0.3
			c-0.1-0.1-0.2-0.2-0.3-0.2c-0.1-0.1-0.3-0.2-0.4-0.3c-0.2-0.1-0.3-0.2-0.5-0.2c-0.2-0.1-0.4-0.1-0.7-0.1c-0.6,0-1,0.2-1.3,0.5
			c-0.3,0.4-0.5,0.8-0.5,1.5c0,0.6,0.2,1.1,0.5,1.4c0.3,0.3,0.8,0.5,1.3,0.5c0.3,0,0.5,0,0.7-0.1c0.2-0.1,0.4-0.1,0.5-0.2
			c0.1-0.1,0.2-0.2,0.4-0.2c0.1-0.1,0.2-0.2,0.3-0.3h0.3v1.8c-0.3,0.2-0.7,0.3-1,0.4S150.4,257.4,149.9,257.4z"/>
		<path class="st5" d="M156,249.7h-2.2v-1.6h2.2V249.7z M156,257.2h-2.1v-6.6h2.1V257.2z"/>
		<path class="st5" d="M164.7,257.2h-2.1v-0.7c-0.4,0.3-0.7,0.5-1,0.7c-0.3,0.1-0.7,0.2-1.1,0.2c-0.8,0-1.4-0.3-1.9-0.9
			c-0.5-0.6-0.7-1.4-0.7-2.5c0-0.6,0.1-1.1,0.2-1.5c0.2-0.4,0.4-0.8,0.7-1.1c0.3-0.3,0.6-0.5,1-0.7s0.8-0.2,1.1-0.2
			c0.4,0,0.7,0,1,0.1s0.5,0.2,0.8,0.3v-2.8h2.1V257.2z M162.6,255.4v-3.2c-0.1-0.1-0.3-0.1-0.5-0.1c-0.2,0-0.3,0-0.5,0
			c-0.6,0-1,0.2-1.2,0.5c-0.3,0.3-0.4,0.8-0.4,1.4c0,0.6,0.1,1.1,0.3,1.4c0.2,0.3,0.6,0.4,1.1,0.4c0.2,0,0.4,0,0.6-0.1
			S162.4,255.5,162.6,255.4z"/>
		<path class="st5" d="M170.9,256.5c-0.1,0.1-0.3,0.2-0.4,0.3s-0.3,0.2-0.5,0.3c-0.2,0.1-0.4,0.2-0.6,0.2s-0.5,0.1-0.7,0.1
			c-0.6,0-1.1-0.2-1.6-0.6s-0.6-0.9-0.6-1.5c0-0.5,0.1-0.9,0.3-1.2s0.5-0.5,0.9-0.7c0.4-0.2,0.9-0.3,1.5-0.4s1.2-0.1,1.8-0.2v0
			c0-0.4-0.1-0.6-0.4-0.8s-0.7-0.2-1.3-0.2c-0.3,0-0.7,0.1-1.1,0.2s-0.7,0.2-0.8,0.3H167v-1.6c0.2-0.1,0.6-0.1,1.1-0.2
			s1-0.1,1.5-0.1c1.2,0,2.1,0.2,2.6,0.6s0.8,0.9,0.8,1.7v4.5h-2.1V256.5z M170.9,255.5v-1.4c-0.3,0-0.6,0.1-0.9,0.1
			s-0.6,0.1-0.8,0.1c-0.2,0.1-0.4,0.2-0.5,0.3c-0.1,0.1-0.2,0.3-0.2,0.5c0,0.1,0,0.2,0,0.3c0,0.1,0.1,0.2,0.2,0.2
			c0.1,0.1,0.2,0.1,0.3,0.2s0.3,0.1,0.6,0.1c0.2,0,0.4,0,0.6-0.1C170.6,255.7,170.8,255.6,170.9,255.5z"/>
	</g>
	<g>
		<path class="st4" d="M83.4,293.4c0,1-0.4,1.8-1.2,2.5s-1.9,1.1-3.3,1.2v3.2h-1.5v-3.1c-0.7,0-1.4-0.1-2.3-0.2s-1.5-0.3-2-0.6v-2.6
			h0.4c0.5,0.3,1.2,0.5,1.9,0.7s1.4,0.3,2.1,0.3v-2.4l-0.9-0.2c-0.5-0.1-1-0.3-1.5-0.4s-0.8-0.4-1.2-0.7s-0.6-0.6-0.8-1
			c-0.2-0.4-0.3-0.9-0.3-1.5c0-0.9,0.4-1.6,1.2-2.2s1.9-1,3.3-1.1v-2h1.5v2c0.5,0,1.2,0.1,1.9,0.2s1.3,0.3,1.7,0.4v2.5H82
			c-0.4-0.2-0.9-0.4-1.5-0.6s-1.1-0.3-1.8-0.3v2.2l0.7,0.1c1.3,0.3,2.3,0.6,2.9,1.2S83.4,292.5,83.4,293.4z M77.4,289.7v-2
			c-0.4,0-0.7,0.1-1,0.3c-0.3,0.2-0.5,0.4-0.5,0.7c0,0.3,0.1,0.5,0.3,0.6S76.8,289.6,77.4,289.7z M80.2,293.8c0-0.3-0.2-0.6-0.5-0.8
			c-0.3-0.2-0.6-0.3-0.9-0.3v2.2c0.4-0.1,0.7-0.2,1-0.3C80,294.4,80.2,294.1,80.2,293.8z"/>
		<path class="st4" d="M95.4,297.2h-8.7v-2.3h2.8V288h-2.8v-2.1c0.4,0,0.8,0,1.2-0.1s0.7-0.1,1-0.3c0.3-0.1,0.5-0.3,0.7-0.6
			s0.2-0.5,0.3-0.9h2.9v10.8h2.7V297.2z"/>
		<path class="st4" d="M109,290.7c0,1.1-0.1,2.1-0.3,3s-0.5,1.6-0.9,2.1c-0.4,0.6-1,1-1.7,1.3s-1.5,0.4-2.5,0.4
			c-1,0-1.8-0.1-2.5-0.4s-1.3-0.7-1.7-1.3c-0.4-0.6-0.7-1.3-0.9-2.1s-0.3-1.8-0.3-2.9c0-1.1,0.1-2.1,0.3-3c0.2-0.8,0.5-1.5,0.9-2.1
			c0.4-0.6,1-1,1.7-1.3s1.5-0.4,2.5-0.4c1,0,1.8,0.1,2.5,0.4s1.2,0.7,1.7,1.3c0.4,0.6,0.7,1.3,0.9,2.1
			C108.9,288.6,109,289.6,109,290.7z M105.6,290.7c0-1.6-0.2-2.7-0.5-3.4c-0.3-0.7-0.8-1-1.5-1s-1.2,0.3-1.5,1
			c-0.3,0.7-0.5,1.8-0.5,3.4c0,1.6,0.2,2.7,0.5,3.4s0.8,1,1.5,1s1.2-0.3,1.5-1S105.6,292.2,105.6,290.7z"/>
		<path class="st4" d="M115.4,293.8l-3.2,6.7h-2l1.7-6.7H115.4z"/>
		<path class="st4" d="M127.5,297.2h-8.7v-2.3h2.8V288h-2.8v-2.1c0.4,0,0.8,0,1.2-0.1s0.7-0.1,1-0.3c0.3-0.1,0.5-0.3,0.7-0.6
			s0.2-0.5,0.3-0.9h2.9v10.8h2.7V297.2z"/>
		<path class="st4" d="M140.9,292.8c0,0.7-0.1,1.3-0.4,1.9s-0.6,1.1-1.1,1.5c-0.5,0.4-1.2,0.8-1.9,1c-0.7,0.2-1.5,0.3-2.4,0.3
			c-1,0-1.9-0.1-2.7-0.3c-0.7-0.2-1.3-0.3-1.8-0.5v-2.9h0.4c0.5,0.3,1.1,0.6,1.7,0.8s1.2,0.3,1.8,0.3c0.4,0,0.8,0,1.2-0.1
			s0.8-0.2,1-0.5c0.2-0.2,0.4-0.4,0.5-0.6s0.2-0.5,0.2-0.9c0-0.3-0.1-0.6-0.2-0.8c-0.1-0.2-0.3-0.4-0.5-0.5
			c-0.3-0.2-0.7-0.3-1.1-0.4c-0.4-0.1-0.8-0.1-1.2-0.1c-0.5,0-1,0-1.5,0.1c-0.5,0.1-0.9,0.2-1.3,0.3h-0.4v-7.4h9.3v2.5h-6.1v2.1
			c0.2,0,0.4,0,0.7,0c0.3,0,0.5,0,0.7,0c0.7,0,1.4,0.1,1.9,0.2s1.1,0.3,1.5,0.6c0.5,0.3,0.9,0.7,1.2,1.3
			C140.7,291.3,140.9,292,140.9,292.8z"/>
		<path class="st4" d="M153.7,286.7l-5.9,10.5H144l6.1-10.6h-6.7v-2.5h10.3V286.7z"/>
	</g>
	<g>
		<path class="st5" d="M72.1,315.1c0,0.7-0.3,1.2-0.9,1.6s-1.4,0.6-2.5,0.6c-0.6,0-1.1-0.1-1.6-0.2s-0.9-0.2-1.1-0.4v-1.7h0.2
			c0.1,0.1,0.2,0.2,0.4,0.2s0.3,0.2,0.6,0.3c0.2,0.1,0.5,0.2,0.7,0.2s0.6,0.1,0.9,0.1c0.4,0,0.7,0,0.9-0.1s0.3-0.2,0.3-0.4
			c0-0.2-0.1-0.3-0.2-0.3s-0.3-0.1-0.7-0.2c-0.2,0-0.4-0.1-0.6-0.1s-0.5-0.1-0.7-0.1c-0.6-0.2-1-0.4-1.3-0.7s-0.4-0.7-0.4-1.2
			c0-0.6,0.3-1.2,0.9-1.6s1.4-0.6,2.5-0.6c0.5,0,1,0,1.4,0.1s0.8,0.2,1.1,0.3v1.7h-0.2c-0.3-0.2-0.7-0.4-1.1-0.5s-0.8-0.2-1.2-0.2
			c-0.3,0-0.6,0-0.9,0.1s-0.3,0.2-0.3,0.4c0,0.2,0.1,0.3,0.2,0.4s0.4,0.2,0.7,0.2c0.2,0,0.4,0.1,0.7,0.1s0.5,0.1,0.7,0.2
			c0.6,0.1,1,0.4,1.2,0.7S72.1,314.7,72.1,315.1z"/>
		<path class="st5" d="M77.8,316.5c-0.1,0.1-0.3,0.2-0.4,0.3s-0.3,0.2-0.5,0.3c-0.2,0.1-0.4,0.2-0.6,0.2s-0.5,0.1-0.7,0.1
			c-0.6,0-1.1-0.2-1.6-0.6s-0.6-0.9-0.6-1.5c0-0.5,0.1-0.9,0.3-1.2s0.5-0.5,0.9-0.7c0.4-0.2,0.9-0.3,1.5-0.4s1.2-0.1,1.8-0.2v0
			c0-0.4-0.1-0.6-0.4-0.8s-0.7-0.2-1.3-0.2c-0.3,0-0.7,0.1-1.1,0.2s-0.7,0.2-0.8,0.3h-0.2v-1.6c0.2-0.1,0.6-0.1,1.1-0.2
			s1-0.1,1.5-0.1c1.2,0,2.1,0.2,2.6,0.6s0.8,0.9,0.8,1.7v4.5h-2.1V316.5z M77.8,315.5v-1.4c-0.3,0-0.6,0.1-0.9,0.1s-0.6,0.1-0.8,0.1
			c-0.2,0.1-0.4,0.2-0.5,0.3c-0.1,0.1-0.2,0.3-0.2,0.5c0,0.1,0,0.2,0,0.3c0,0.1,0.1,0.2,0.2,0.2c0.1,0.1,0.2,0.1,0.3,0.2
			s0.3,0.1,0.6,0.1c0.2,0,0.4,0,0.6-0.1C77.5,315.7,77.6,315.6,77.8,315.5z"/>
		<path class="st5" d="M84.3,317.2h-2.1v-9.1h2.1V317.2z"/>
		<path class="st5" d="M92.9,317.2h-2.1v-0.7c-0.4,0.3-0.7,0.5-1,0.7c-0.3,0.1-0.7,0.2-1.1,0.2c-0.8,0-1.4-0.3-1.9-0.9
			s-0.7-1.4-0.7-2.5c0-0.6,0.1-1.1,0.2-1.5c0.2-0.4,0.4-0.8,0.7-1.1c0.3-0.3,0.6-0.5,1-0.7s0.8-0.2,1.1-0.2c0.4,0,0.7,0,1,0.1
			s0.5,0.2,0.8,0.3v-2.8h2.1V317.2z M90.8,315.4v-3.2c-0.1-0.1-0.3-0.1-0.5-0.1c-0.2,0-0.3,0-0.5,0c-0.6,0-1,0.2-1.2,0.5
			c-0.3,0.3-0.4,0.8-0.4,1.4c0,0.6,0.1,1.1,0.3,1.4c0.2,0.3,0.6,0.4,1.1,0.4c0.2,0,0.4,0,0.6-0.1S90.7,315.5,90.8,315.4z"/>
		<path class="st5" d="M101.9,313.9c0,1.1-0.3,1.9-0.9,2.6s-1.5,0.9-2.7,0.9s-2-0.3-2.7-0.9s-0.9-1.5-0.9-2.6c0-1.1,0.3-1.9,1-2.6
			s1.5-0.9,2.7-0.9c1.1,0,2,0.3,2.7,0.9S101.9,312.8,101.9,313.9z M99.4,315.5c0.1-0.2,0.2-0.4,0.3-0.6s0.1-0.6,0.1-1
			c0-0.4,0-0.7-0.1-1s-0.2-0.5-0.3-0.6c-0.1-0.2-0.3-0.3-0.5-0.3s-0.4-0.1-0.6-0.1s-0.4,0-0.5,0.1s-0.3,0.2-0.5,0.3
			c-0.1,0.2-0.2,0.4-0.3,0.6s-0.1,0.6-0.1,1c0,0.4,0,0.7,0.1,0.9s0.2,0.5,0.3,0.6c0.1,0.2,0.3,0.3,0.4,0.3s0.4,0.1,0.6,0.1
			c0.2,0,0.4,0,0.5-0.1S99.2,315.7,99.4,315.5z"/>
		<path class="st5" d="M115,313.8c0,0.5-0.1,1-0.2,1.5c-0.2,0.4-0.4,0.8-0.7,1.1c-0.3,0.3-0.6,0.5-1,0.7s-0.7,0.2-1.1,0.2
			c-0.4,0-0.7,0-1-0.1c-0.3-0.1-0.5-0.2-0.8-0.3v2.7h-2.1v-9h2.1v0.7c0.3-0.3,0.7-0.5,1-0.6s0.7-0.2,1.2-0.2c0.8,0,1.5,0.3,1.9,0.9
			C114.8,312,115,312.8,115,313.8z M112.8,313.9c0-0.6-0.1-1.1-0.3-1.4c-0.2-0.3-0.6-0.4-1-0.4c-0.2,0-0.4,0-0.6,0.1
			s-0.4,0.1-0.6,0.3v3.3c0.1,0.1,0.3,0.1,0.5,0.1s0.3,0,0.5,0c0.6,0,1-0.2,1.2-0.5C112.7,315,112.8,314.5,112.8,313.9z"/>
		<path class="st5" d="M121.6,312.6h-0.2c-0.1,0-0.2-0.1-0.4-0.1s-0.4,0-0.5,0c-0.3,0-0.6,0-0.8,0.1s-0.5,0.1-0.7,0.2v4.4h-2.1v-6.6
			h2.1v1c0.5-0.4,0.9-0.7,1.2-0.8c0.3-0.1,0.7-0.2,0.9-0.2c0.1,0,0.2,0,0.3,0c0.1,0,0.2,0,0.2,0V312.6z"/>
		<path class="st5" d="M129.8,313.9c0,1.1-0.3,1.9-0.9,2.6s-1.5,0.9-2.7,0.9s-2-0.3-2.7-0.9s-0.9-1.5-0.9-2.6c0-1.1,0.3-1.9,1-2.6
			s1.5-0.9,2.7-0.9c1.1,0,2,0.3,2.7,0.9S129.8,312.8,129.8,313.9z M127.2,315.5c0.1-0.2,0.2-0.4,0.3-0.6s0.1-0.6,0.1-1
			c0-0.4,0-0.7-0.1-1s-0.2-0.5-0.3-0.6c-0.1-0.2-0.3-0.3-0.5-0.3s-0.4-0.1-0.6-0.1s-0.4,0-0.5,0.1s-0.3,0.2-0.5,0.3
			c-0.1,0.2-0.2,0.4-0.3,0.6s-0.1,0.6-0.1,1c0,0.4,0,0.7,0.1,0.9s0.2,0.5,0.3,0.6c0.1,0.2,0.3,0.3,0.4,0.3s0.4,0.1,0.6,0.1
			c0.2,0,0.4,0,0.5-0.1S127.1,315.7,127.2,315.5z"/>
		<path class="st5" d="M138,312.5v4.7h-2.1v-3.3c0-0.3,0-0.6,0-0.8s-0.1-0.4-0.1-0.5s-0.2-0.2-0.3-0.3s-0.3-0.1-0.6-0.1
			c-0.2,0-0.4,0-0.6,0.1s-0.4,0.2-0.5,0.3v4.7h-2.1v-6.6h2.1v0.7c0.4-0.3,0.7-0.5,1-0.7s0.7-0.2,1.1-0.2c0.4,0,0.8,0.1,1.1,0.3
			c0.3,0.2,0.6,0.5,0.8,0.9c0.4-0.4,0.8-0.6,1.2-0.8s0.8-0.3,1.2-0.3c0.7,0,1.2,0.2,1.6,0.6c0.4,0.4,0.6,1,0.6,1.8v4.3h-2.1v-3.3
			c0-0.3,0-0.6,0-0.8s-0.1-0.4-0.1-0.5c-0.1-0.1-0.2-0.2-0.3-0.3s-0.3-0.1-0.6-0.1c-0.2,0-0.3,0-0.5,0.1S138.3,312.4,138,312.5z"/>
		<path class="st5" d="M151.1,314.3h-4.8c0,0.5,0.2,0.9,0.6,1.2s0.9,0.4,1.6,0.4c0.4,0,0.9-0.1,1.3-0.2s0.7-0.3,1-0.5h0.2v1.7
			c-0.5,0.2-0.9,0.3-1.3,0.4s-0.9,0.1-1.4,0.1c-1.3,0-2.3-0.3-3-0.9s-1.1-1.4-1.1-2.5c0-1.1,0.3-1.9,1-2.6s1.6-1,2.7-1
			c1.1,0,1.9,0.3,2.4,0.8s0.8,1.3,0.8,2.3V314.3z M149,313.1c0-0.4-0.1-0.8-0.3-1s-0.5-0.3-1-0.3c-0.4,0-0.7,0.1-1,0.3
			s-0.4,0.5-0.4,1H149z"/>
		<path class="st5" d="M159.2,317.2h-2.1v-0.7c-0.4,0.3-0.7,0.5-1,0.7c-0.3,0.1-0.7,0.2-1.1,0.2c-0.8,0-1.4-0.3-1.9-0.9
			s-0.7-1.4-0.7-2.5c0-0.6,0.1-1.1,0.2-1.5c0.2-0.4,0.4-0.8,0.7-1.1c0.3-0.3,0.6-0.5,1-0.7s0.8-0.2,1.1-0.2c0.4,0,0.7,0,1,0.1
			s0.5,0.2,0.8,0.3v-2.8h2.1V317.2z M157.1,315.4v-3.2c-0.1-0.1-0.3-0.1-0.5-0.1c-0.2,0-0.3,0-0.5,0c-0.6,0-1,0.2-1.2,0.5
			c-0.3,0.3-0.4,0.8-0.4,1.4c0,0.6,0.1,1.1,0.3,1.4c0.2,0.3,0.6,0.4,1.1,0.4c0.2,0,0.4,0,0.6-0.1S157,315.5,157.1,315.4z"/>
		<path class="st5" d="M163.7,309.7h-2.2v-1.6h2.2V309.7z M163.6,317.2h-2.1v-6.6h2.1V317.2z"/>
		<path class="st5" d="M172.7,313.9c0,1.1-0.3,1.9-0.9,2.6s-1.5,0.9-2.7,0.9s-2-0.3-2.7-0.9s-0.9-1.5-0.9-2.6c0-1.1,0.3-1.9,1-2.6
			s1.5-0.9,2.7-0.9c1.1,0,2,0.3,2.7,0.9S172.7,312.8,172.7,313.9z M170.1,315.5c0.1-0.2,0.2-0.4,0.3-0.6s0.1-0.6,0.1-1
			c0-0.4,0-0.7-0.1-1s-0.2-0.5-0.3-0.6c-0.1-0.2-0.3-0.3-0.5-0.3s-0.4-0.1-0.6-0.1s-0.4,0-0.5,0.1s-0.3,0.2-0.5,0.3
			c-0.1,0.2-0.2,0.4-0.3,0.6s-0.1,0.6-0.1,1c0,0.4,0,0.7,0.1,0.9s0.2,0.5,0.3,0.6c0.1,0.2,0.3,0.3,0.4,0.3s0.4,0.1,0.6,0.1
			c0.2,0,0.4,0,0.5-0.1S169.9,315.7,170.1,315.5z"/>
		<path class="st5" d="M185.7,313.8c0,0.5-0.1,1-0.2,1.5c-0.2,0.4-0.4,0.8-0.7,1.1c-0.3,0.3-0.6,0.5-1,0.7s-0.7,0.2-1.1,0.2
			c-0.4,0-0.7,0-1-0.1c-0.3-0.1-0.5-0.2-0.8-0.3v2.7h-2.1v-9h2.1v0.7c0.3-0.3,0.7-0.5,1-0.6s0.7-0.2,1.2-0.2c0.8,0,1.5,0.3,1.9,0.9
			C185.5,312,185.7,312.8,185.7,313.8z M183.6,313.9c0-0.6-0.1-1.1-0.3-1.4c-0.2-0.3-0.6-0.4-1-0.4c-0.2,0-0.4,0-0.6,0.1
			s-0.4,0.1-0.6,0.3v3.3c0.1,0.1,0.3,0.1,0.5,0.1s0.3,0,0.5,0c0.6,0,1-0.2,1.2-0.5C183.4,315,183.6,314.5,183.6,313.9z"/>
		<path class="st5" d="M194.3,313.9c0,1.1-0.3,1.9-0.9,2.6s-1.5,0.9-2.7,0.9s-2-0.3-2.7-0.9s-0.9-1.5-0.9-2.6c0-1.1,0.3-1.9,1-2.6
			s1.5-0.9,2.7-0.9c1.1,0,2,0.3,2.7,0.9S194.3,312.8,194.3,313.9z M191.7,315.5c0.1-0.2,0.2-0.4,0.3-0.6s0.1-0.6,0.1-1
			c0-0.4,0-0.7-0.1-1s-0.2-0.5-0.3-0.6c-0.1-0.2-0.3-0.3-0.5-0.3s-0.4-0.1-0.6-0.1s-0.4,0-0.5,0.1s-0.3,0.2-0.5,0.3
			c-0.1,0.2-0.2,0.4-0.3,0.6s-0.1,0.6-0.1,1c0,0.4,0,0.7,0.1,0.9s0.2,0.5,0.3,0.6c0.1,0.2,0.3,0.3,0.4,0.3s0.4,0.1,0.6,0.1
			c0.2,0,0.4,0,0.5-0.1S191.6,315.7,191.7,315.5z"/>
		<path class="st5" d="M200.8,312.6h-0.2c-0.1,0-0.2-0.1-0.4-0.1s-0.4,0-0.5,0c-0.3,0-0.6,0-0.8,0.1s-0.5,0.1-0.7,0.2v4.4h-2.1v-6.6
			h2.1v1c0.5-0.4,0.9-0.7,1.2-0.8c0.3-0.1,0.7-0.2,0.9-0.2c0.1,0,0.2,0,0.3,0c0.1,0,0.2,0,0.2,0V312.6z"/>
		<path class="st5" d="M210.2,317.4c-0.6,0-1.1-0.1-1.6-0.2s-0.9-0.3-1.2-0.6c-0.3-0.3-0.6-0.6-0.8-1.1s-0.3-0.9-0.3-1.5
			c0-0.6,0.1-1.1,0.3-1.6s0.5-0.8,0.9-1.1c0.4-0.3,0.8-0.5,1.2-0.6s0.9-0.2,1.4-0.2c0.4,0,0.9,0,1.2,0.1s0.7,0.2,1.1,0.4v1.8h-0.3
			c-0.1-0.1-0.2-0.2-0.3-0.2c-0.1-0.1-0.3-0.2-0.4-0.3c-0.2-0.1-0.3-0.2-0.5-0.2c-0.2-0.1-0.4-0.1-0.7-0.1c-0.6,0-1,0.2-1.3,0.5
			c-0.3,0.4-0.5,0.8-0.5,1.5c0,0.6,0.2,1.1,0.5,1.4c0.3,0.3,0.8,0.5,1.3,0.5c0.3,0,0.5,0,0.7-0.1c0.2-0.1,0.4-0.1,0.5-0.2
			c0.1-0.1,0.2-0.2,0.4-0.2c0.1-0.1,0.2-0.2,0.3-0.3h0.3v1.8c-0.3,0.2-0.7,0.3-1,0.4S210.6,317.4,210.2,317.4z"/>
		<path class="st5" d="M216.2,317.2h-2.1v-9.1h2.1V317.2z"/>
		<path class="st5" d="M220.7,309.7h-2.2v-1.6h2.2V309.7z M220.6,317.2h-2.1v-6.6h2.1V317.2z"/>
		<path class="st5" d="M229.4,314.3h-4.8c0,0.5,0.2,0.9,0.6,1.2s0.9,0.4,1.6,0.4c0.4,0,0.9-0.1,1.3-0.2s0.7-0.3,1-0.5h0.2v1.7
			c-0.5,0.2-0.9,0.3-1.3,0.4s-0.9,0.1-1.4,0.1c-1.3,0-2.3-0.3-3-0.9s-1.1-1.4-1.1-2.5c0-1.1,0.3-1.9,1-2.6s1.6-1,2.7-1
			c1.1,0,1.9,0.3,2.4,0.8s0.8,1.3,0.8,2.3V314.3z M227.3,313.1c0-0.4-0.1-0.8-0.3-1s-0.5-0.3-1-0.3c-0.4,0-0.7,0.1-1,0.3
			s-0.4,0.5-0.4,1H227.3z"/>
		<path class="st5" d="M237.7,317.2h-2.1v-3.3c0-0.3,0-0.5,0-0.8s-0.1-0.5-0.1-0.6c-0.1-0.1-0.2-0.2-0.3-0.3s-0.4-0.1-0.6-0.1
			c-0.2,0-0.4,0-0.6,0.1s-0.4,0.2-0.6,0.3v4.7h-2.1v-6.6h2.1v0.7c0.4-0.3,0.7-0.5,1.1-0.7s0.7-0.2,1.1-0.2c0.7,0,1.3,0.2,1.7,0.6
			c0.4,0.4,0.6,1,0.6,1.9V317.2z"/>
		<path class="st5" d="M244.2,317.2c-0.2,0.1-0.5,0.1-0.7,0.1s-0.6,0-0.9,0c-0.8,0-1.4-0.2-1.8-0.5s-0.6-0.9-0.6-1.7v-3.1h-0.9v-1.4
			h0.9v-1.9h2.1v1.9h2v1.4h-2v2.3c0,0.2,0,0.4,0,0.6c0,0.2,0,0.3,0.1,0.5c0.1,0.1,0.2,0.2,0.3,0.3c0.1,0.1,0.3,0.1,0.6,0.1
			c0.1,0,0.3,0,0.4-0.1s0.3-0.1,0.4-0.1h0.2V317.2z"/>
		<path class="st5" d="M252.2,314.3h-4.8c0,0.5,0.2,0.9,0.6,1.2s0.9,0.4,1.6,0.4c0.4,0,0.9-0.1,1.3-0.2s0.7-0.3,1-0.5h0.2v1.7
			c-0.5,0.2-0.9,0.3-1.3,0.4s-0.9,0.1-1.4,0.1c-1.3,0-2.3-0.3-3-0.9s-1.1-1.4-1.1-2.5c0-1.1,0.3-1.9,1-2.6s1.6-1,2.7-1
			c1.1,0,1.9,0.3,2.4,0.8s0.8,1.3,0.8,2.3V314.3z M250.1,313.1c0-0.4-0.1-0.8-0.3-1s-0.5-0.3-1-0.3c-0.4,0-0.7,0.1-1,0.3
			s-0.4,0.5-0.4,1H250.1z"/>
	</g>
	<g>
		<path class="st4" d="M83.2,352.8c0,0.7-0.1,1.3-0.4,1.9s-0.6,1.1-1.1,1.5c-0.5,0.4-1.2,0.8-1.9,1c-0.7,0.2-1.5,0.3-2.4,0.3
			c-1,0-1.9-0.1-2.7-0.3c-0.7-0.2-1.3-0.3-1.8-0.5v-2.9h0.4c0.5,0.3,1.1,0.6,1.7,0.8s1.2,0.3,1.8,0.3c0.4,0,0.8,0,1.2-0.1
			s0.8-0.2,1-0.5c0.2-0.2,0.4-0.4,0.5-0.6s0.2-0.5,0.2-0.9c0-0.3-0.1-0.6-0.2-0.8c-0.1-0.2-0.3-0.4-0.5-0.5
			c-0.3-0.2-0.7-0.3-1.1-0.4c-0.4-0.1-0.8-0.1-1.2-0.1c-0.5,0-1,0-1.5,0.1c-0.5,0.1-0.9,0.2-1.3,0.3h-0.4v-7.4h9.3v2.5h-6.1v2.1
			c0.2,0,0.4,0,0.7,0c0.3,0,0.5,0,0.7,0c0.7,0,1.4,0.1,1.9,0.2s1.1,0.3,1.5,0.6c0.5,0.3,0.9,0.7,1.2,1.3
			C83,351.3,83.2,352,83.2,352.8z"/>
		<path class="st4" d="M96.5,354.2h-1.8v3h-3.2v-3h-6.3v-2.5l6.1-7.6h3.4v7.7h1.8V354.2z M91.4,351.8v-4.7l-3.8,4.7H91.4z"/>
		<path class="st4" d="M107.8,351.1c0.3,0.2,0.5,0.5,0.7,0.9s0.3,0.8,0.3,1.3c0,0.6-0.1,1.2-0.4,1.7s-0.6,1-1.1,1.4
			c-0.5,0.4-1.1,0.7-1.7,0.8c-0.7,0.2-1.5,0.3-2.4,0.3c-1.1,0-2-0.1-2.8-0.3s-1.4-0.4-1.9-0.6v-2.9h0.3c0.5,0.3,1.1,0.6,1.8,0.8
			s1.3,0.3,1.9,0.3c0.3,0,0.7,0,1.1-0.1c0.4-0.1,0.7-0.2,1-0.4c0.2-0.1,0.4-0.3,0.5-0.5c0.1-0.2,0.2-0.5,0.2-0.9
			c0-0.4-0.1-0.7-0.3-0.9s-0.4-0.4-0.7-0.4c-0.3-0.1-0.6-0.1-1-0.2c-0.4,0-0.8,0-1.1,0h-0.7v-2.3h0.7c0.5,0,0.9,0,1.2,0
			s0.7-0.1,0.9-0.2c0.3-0.1,0.5-0.3,0.6-0.4c0.1-0.2,0.2-0.5,0.2-0.8c0-0.3-0.1-0.5-0.2-0.6c-0.1-0.2-0.3-0.3-0.5-0.4
			c-0.2-0.1-0.5-0.2-0.8-0.2s-0.6-0.1-0.8-0.1c-0.6,0-1.1,0.1-1.8,0.3s-1.3,0.5-1.9,0.8h-0.3v-2.8c0.5-0.2,1.1-0.4,2-0.6
			c0.8-0.2,1.7-0.3,2.5-0.3c0.8,0,1.5,0.1,2.2,0.2c0.6,0.1,1.1,0.3,1.5,0.6c0.5,0.3,0.8,0.6,1.1,1s0.4,0.9,0.4,1.4
			c0,0.7-0.2,1.4-0.7,1.9c-0.5,0.6-1,0.9-1.8,1.1v0.1c0.3,0,0.6,0.1,0.9,0.2S107.5,350.8,107.8,351.1z"/>
	</g>
	<path class="st5" d="M73.1,373.9c0,1.1-0.3,1.9-0.9,2.6c-0.6,0.6-1.5,0.9-2.7,0.9c-1.1,0-2-0.3-2.7-0.9c-0.6-0.6-0.9-1.5-0.9-2.6
		c0-1.1,0.3-1.9,1-2.6c0.6-0.6,1.5-0.9,2.7-0.9c1.1,0,2,0.3,2.7,0.9C72.8,372,73.1,372.8,73.1,373.9z M70.5,375.5
		c0.1-0.2,0.2-0.4,0.3-0.6c0.1-0.2,0.1-0.6,0.1-1c0-0.4,0-0.7-0.1-1c-0.1-0.3-0.2-0.5-0.3-0.6c-0.1-0.2-0.3-0.3-0.5-0.3
		c-0.2-0.1-0.4-0.1-0.6-0.1c-0.2,0-0.4,0-0.5,0.1c-0.2,0.1-0.3,0.2-0.5,0.3c-0.1,0.2-0.2,0.4-0.3,0.6c-0.1,0.3-0.1,0.6-0.1,1
		c0,0.4,0,0.7,0.1,0.9c0.1,0.3,0.2,0.5,0.3,0.6c0.1,0.2,0.3,0.3,0.4,0.3c0.2,0.1,0.4,0.1,0.6,0.1c0.2,0,0.4,0,0.5-0.1
		C70.3,375.8,70.4,375.7,70.5,375.5z M78.9,369.6c-0.1,0-0.2-0.1-0.3-0.1c-0.2,0-0.3-0.1-0.4-0.1c-0.4,0-0.6,0.1-0.8,0.2
		c-0.1,0.2-0.2,0.4-0.2,0.9v0.1h4.5v6.6h-2.1V372h-2.3v5.2h-2.1v-5.2h-0.9v-1.4h0.9v-0.2c0-0.8,0.2-1.4,0.6-1.8
		c0.4-0.4,1-0.6,1.9-0.6c0.3,0,0.6,0,0.8,0c0.2,0,0.5,0,0.6,0.1v1.5H78.9L78.9,369.6z M81.8,369.7h-2.1v-1.6h2.1V369.7z M87.4,377.4
		c-0.6,0-1.1-0.1-1.6-0.2s-0.9-0.3-1.2-0.6c-0.3-0.3-0.6-0.6-0.8-1.1c-0.2-0.4-0.3-0.9-0.3-1.5c0-0.6,0.1-1.1,0.3-1.6
		s0.5-0.8,0.9-1.1c0.4-0.3,0.8-0.5,1.2-0.6c0.5-0.1,0.9-0.2,1.4-0.2c0.4,0,0.9,0,1.2,0.1c0.4,0.1,0.7,0.2,1.1,0.4v1.8h-0.3
		c-0.1-0.1-0.2-0.2-0.3-0.2s-0.3-0.2-0.4-0.3c-0.2-0.1-0.3-0.2-0.5-0.2c-0.2-0.1-0.4-0.1-0.7-0.1c-0.6,0-1,0.2-1.3,0.5
		s-0.5,0.8-0.5,1.5c0,0.6,0.2,1.1,0.5,1.4s0.7,0.5,1.3,0.5c0.3,0,0.5,0,0.7-0.1c0.2-0.1,0.4-0.1,0.5-0.2c0.1-0.1,0.2-0.2,0.4-0.2
		c0.1-0.1,0.2-0.2,0.3-0.3h0.3v1.8c-0.3,0.2-0.7,0.3-1,0.4C88.3,377.3,87.9,377.4,87.4,377.4z M93.5,369.7h-2.2v-1.6h2.2V369.7z
		 M93.5,377.2h-2.1v-6.6h2.1V377.2z M102.4,377.2h-2.1v-3.3c0-0.3,0-0.5,0-0.8c0-0.3-0.1-0.5-0.1-0.6c-0.1-0.1-0.2-0.2-0.3-0.3
		c-0.2-0.1-0.4-0.1-0.6-0.1c-0.2,0-0.4,0-0.6,0.1c-0.2,0.1-0.4,0.2-0.6,0.3v4.7h-2.1v-6.6h2.1v0.7c0.4-0.3,0.7-0.5,1.1-0.7
		c0.3-0.2,0.7-0.2,1.1-0.2c0.7,0,1.3,0.2,1.7,0.6c0.4,0.4,0.6,1,0.6,1.9V377.2z M108.6,376.5c-0.1,0.1-0.3,0.2-0.4,0.3
		c-0.2,0.1-0.3,0.2-0.5,0.3c-0.2,0.1-0.4,0.2-0.6,0.2c-0.2,0-0.5,0.1-0.7,0.1c-0.6,0-1.1-0.2-1.6-0.6s-0.6-0.9-0.6-1.5
		c0-0.5,0.1-0.9,0.3-1.2c0.2-0.3,0.5-0.5,0.9-0.7c0.4-0.2,0.9-0.3,1.5-0.4c0.6-0.1,1.2-0.1,1.8-0.2v0c0-0.4-0.1-0.6-0.4-0.8
		c-0.3-0.1-0.7-0.2-1.3-0.2c-0.3,0-0.7,0.1-1.1,0.2c-0.4,0.1-0.7,0.2-0.8,0.3h-0.2v-1.6c0.2-0.1,0.6-0.1,1.1-0.2
		c0.5-0.1,1-0.1,1.5-0.1c1.2,0,2.1,0.2,2.6,0.6s0.8,0.9,0.8,1.7v4.5h-2.1V376.5z M108.6,375.5v-1.4c-0.3,0-0.6,0.1-0.9,0.1
		c-0.3,0-0.6,0.1-0.8,0.1c-0.2,0.1-0.4,0.2-0.5,0.3s-0.2,0.3-0.2,0.5c0,0.1,0,0.2,0,0.3s0.1,0.2,0.2,0.2c0.1,0.1,0.2,0.1,0.3,0.2
		c0.1,0,0.3,0.1,0.6,0.1c0.2,0,0.4,0,0.6-0.1S108.4,375.6,108.6,375.5z M118.6,375.1c0,0.7-0.3,1.2-0.9,1.6s-1.4,0.6-2.5,0.6
		c-0.6,0-1.1-0.1-1.6-0.2c-0.5-0.1-0.9-0.2-1.1-0.4v-1.7h0.2c0.1,0.1,0.2,0.2,0.4,0.2c0.1,0.1,0.3,0.2,0.6,0.3
		c0.2,0.1,0.5,0.2,0.7,0.2c0.3,0.1,0.6,0.1,0.9,0.1c0.4,0,0.7,0,0.9-0.1c0.2-0.1,0.3-0.2,0.3-0.4c0-0.2-0.1-0.3-0.2-0.3
		c-0.1-0.1-0.3-0.1-0.7-0.2c-0.2,0-0.4-0.1-0.6-0.1c-0.3,0-0.5-0.1-0.7-0.1c-0.6-0.2-1-0.4-1.3-0.7c-0.3-0.3-0.4-0.7-0.4-1.2
		c0-0.6,0.3-1.2,0.9-1.6c0.6-0.4,1.4-0.6,2.5-0.6c0.5,0,1,0,1.4,0.1s0.8,0.2,1.1,0.3v1.7h-0.2c-0.3-0.2-0.7-0.4-1.1-0.5
		c-0.4-0.1-0.8-0.2-1.2-0.2c-0.3,0-0.6,0-0.9,0.1c-0.2,0.1-0.3,0.2-0.3,0.4c0,0.2,0.1,0.3,0.2,0.4s0.4,0.2,0.7,0.2
		c0.2,0,0.4,0.1,0.7,0.1c0.2,0,0.5,0.1,0.7,0.2c0.6,0.1,1,0.4,1.2,0.7C118.5,374.3,118.6,374.7,118.6,375.1z M131.1,377.2H129v-0.7
		c-0.4,0.3-0.7,0.5-1,0.7c-0.3,0.1-0.7,0.2-1.1,0.2c-0.8,0-1.4-0.3-1.9-0.9c-0.5-0.6-0.7-1.4-0.7-2.5c0-0.6,0.1-1.1,0.2-1.5
		c0.2-0.4,0.4-0.8,0.7-1.1c0.3-0.3,0.6-0.5,1-0.7c0.4-0.2,0.8-0.2,1.1-0.2c0.4,0,0.7,0,1,0.1c0.3,0.1,0.5,0.2,0.8,0.3v-2.8h2.1
		V377.2z M129,375.4v-3.2c-0.1-0.1-0.3-0.1-0.5-0.1s-0.3,0-0.5,0c-0.6,0-1,0.2-1.2,0.5s-0.4,0.8-0.4,1.4c0,0.6,0.1,1.1,0.3,1.4
		s0.6,0.4,1.1,0.4c0.2,0,0.4,0,0.6-0.1C128.7,375.6,128.8,375.5,129,375.4z M139.9,374.3h-4.8c0,0.5,0.2,0.9,0.6,1.2
		c0.4,0.3,0.9,0.4,1.6,0.4c0.4,0,0.9-0.1,1.3-0.2c0.4-0.2,0.7-0.3,1-0.5h0.2v1.7c-0.5,0.2-0.9,0.3-1.3,0.4s-0.9,0.1-1.4,0.1
		c-1.3,0-2.3-0.3-3-0.9c-0.7-0.6-1.1-1.4-1.1-2.5c0-1.1,0.3-1.9,1-2.6c0.7-0.6,1.6-1,2.7-1c1.1,0,1.9,0.3,2.4,0.8
		c0.5,0.5,0.8,1.3,0.8,2.3V374.3z M137.8,373.1c0-0.4-0.1-0.8-0.3-1c-0.2-0.2-0.5-0.3-1-0.3c-0.4,0-0.7,0.1-1,0.3
		c-0.3,0.2-0.4,0.5-0.4,1H137.8z M151.8,375.1c0,0.7-0.3,1.2-0.9,1.6s-1.4,0.6-2.5,0.6c-0.6,0-1.1-0.1-1.6-0.2
		c-0.5-0.1-0.9-0.2-1.1-0.4v-1.7h0.2c0.1,0.1,0.2,0.2,0.4,0.2c0.1,0.1,0.3,0.2,0.6,0.3c0.2,0.1,0.5,0.2,0.7,0.2
		c0.3,0.1,0.6,0.1,0.9,0.1c0.4,0,0.7,0,0.9-0.1c0.2-0.1,0.3-0.2,0.3-0.4c0-0.2-0.1-0.3-0.2-0.3c-0.1-0.1-0.3-0.1-0.7-0.2
		c-0.2,0-0.4-0.1-0.6-0.1c-0.3,0-0.5-0.1-0.7-0.1c-0.6-0.2-1-0.4-1.3-0.7c-0.3-0.3-0.4-0.7-0.4-1.2c0-0.6,0.3-1.2,0.9-1.6
		c0.6-0.4,1.4-0.6,2.5-0.6c0.5,0,1,0,1.4,0.1s0.8,0.2,1.1,0.3v1.7h-0.2c-0.3-0.2-0.7-0.4-1.1-0.5c-0.4-0.1-0.8-0.2-1.2-0.2
		c-0.3,0-0.6,0-0.9,0.1c-0.2,0.1-0.3,0.2-0.3,0.4c0,0.2,0.1,0.3,0.2,0.4s0.4,0.2,0.7,0.2c0.2,0,0.4,0.1,0.7,0.1
		c0.2,0,0.5,0.1,0.7,0.2c0.6,0.1,1,0.4,1.2,0.7C151.7,374.3,151.8,374.7,151.8,375.1z M160,374.3h-4.8c0,0.5,0.2,0.9,0.6,1.2
		c0.4,0.3,0.9,0.4,1.6,0.4c0.4,0,0.9-0.1,1.3-0.2c0.4-0.2,0.7-0.3,1-0.5h0.2v1.7c-0.5,0.2-0.9,0.3-1.3,0.4s-0.9,0.1-1.4,0.1
		c-1.3,0-2.3-0.3-3-0.9c-0.7-0.6-1.1-1.4-1.1-2.5c0-1.1,0.3-1.9,1-2.6c0.7-0.6,1.6-1,2.7-1c1.1,0,1.9,0.3,2.4,0.8
		c0.5,0.5,0.8,1.3,0.8,2.3V374.3z M157.9,373.1c0-0.4-0.1-0.8-0.3-1c-0.2-0.2-0.5-0.3-1-0.3c-0.4,0-0.7,0.1-1,0.3
		c-0.3,0.2-0.4,0.5-0.4,1H157.9z M166.5,372.6h-0.2c-0.1,0-0.2-0.1-0.4-0.1c-0.2,0-0.4,0-0.5,0c-0.3,0-0.6,0-0.8,0.1
		c-0.2,0-0.5,0.1-0.7,0.2v4.4h-2.1v-6.6h2.1v1c0.5-0.4,0.9-0.7,1.2-0.8c0.3-0.1,0.7-0.2,0.9-0.2c0.1,0,0.2,0,0.3,0
		c0.1,0,0.2,0,0.2,0V372.6z M174.7,370.6l-2.5,6.6h-2.4l-2.5-6.6h2.2l1.5,4.5l1.5-4.5H174.7z M178.3,369.7h-2.2v-1.6h2.2V369.7z
		 M178.3,377.2h-2.1v-6.6h2.1V377.2z M184,377.4c-0.6,0-1.1-0.1-1.6-0.2s-0.9-0.3-1.2-0.6c-0.3-0.3-0.6-0.6-0.8-1.1
		c-0.2-0.4-0.3-0.9-0.3-1.5c0-0.6,0.1-1.1,0.3-1.6s0.5-0.8,0.9-1.1c0.4-0.3,0.8-0.5,1.2-0.6c0.5-0.1,0.9-0.2,1.4-0.2
		c0.4,0,0.9,0,1.2,0.1c0.4,0.1,0.7,0.2,1.1,0.4v1.8h-0.3c-0.1-0.1-0.2-0.2-0.3-0.2s-0.3-0.2-0.4-0.3c-0.2-0.1-0.3-0.2-0.5-0.2
		c-0.2-0.1-0.4-0.1-0.7-0.1c-0.6,0-1,0.2-1.3,0.5s-0.5,0.8-0.5,1.5c0,0.6,0.2,1.1,0.5,1.4s0.7,0.5,1.3,0.5c0.3,0,0.5,0,0.7-0.1
		c0.2-0.1,0.4-0.1,0.5-0.2c0.1-0.1,0.2-0.2,0.4-0.2c0.1-0.1,0.2-0.2,0.3-0.3h0.3v1.8c-0.3,0.2-0.7,0.3-1,0.4
		C184.8,377.3,184.4,377.4,184,377.4z M190.1,369.7h-2.2v-1.6h2.2V369.7z M190,377.2h-2.1v-6.6h2.1V377.2z M199,373.9
		c0,1.1-0.3,1.9-0.9,2.6c-0.6,0.6-1.5,0.9-2.7,0.9c-1.1,0-2-0.3-2.7-0.9c-0.6-0.6-0.9-1.5-0.9-2.6c0-1.1,0.3-1.9,1-2.6
		c0.6-0.6,1.5-0.9,2.7-0.9c1.1,0,2,0.3,2.7,0.9C198.7,372,199,372.8,199,373.9z M196.4,375.5c0.1-0.2,0.2-0.4,0.3-0.6
		c0.1-0.2,0.1-0.6,0.1-1c0-0.4,0-0.7-0.1-1c-0.1-0.3-0.2-0.5-0.3-0.6c-0.1-0.2-0.3-0.3-0.5-0.3c-0.2-0.1-0.4-0.1-0.6-0.1
		c-0.2,0-0.4,0-0.5,0.1c-0.2,0.1-0.3,0.2-0.5,0.3c-0.1,0.2-0.2,0.4-0.3,0.6c-0.1,0.3-0.1,0.6-0.1,1c0,0.4,0,0.7,0.1,0.9
		c0.1,0.3,0.2,0.5,0.3,0.6c0.1,0.2,0.3,0.3,0.4,0.3c0.2,0.1,0.4,0.1,0.6,0.1c0.2,0,0.4,0,0.5-0.1
		C196.2,375.8,196.3,375.7,196.4,375.5z M206.6,375.1c0,0.7-0.3,1.2-0.9,1.6s-1.4,0.6-2.5,0.6c-0.6,0-1.1-0.1-1.6-0.2
		c-0.5-0.1-0.9-0.2-1.1-0.4v-1.7h0.2c0.1,0.1,0.2,0.2,0.4,0.2c0.1,0.1,0.3,0.2,0.6,0.3c0.2,0.1,0.5,0.2,0.7,0.2
		c0.3,0.1,0.6,0.1,0.9,0.1c0.4,0,0.7,0,0.9-0.1c0.2-0.1,0.3-0.2,0.3-0.4c0-0.2-0.1-0.3-0.2-0.3c-0.1-0.1-0.3-0.1-0.7-0.2
		c-0.2,0-0.4-0.1-0.6-0.1c-0.3,0-0.5-0.1-0.7-0.1c-0.6-0.2-1-0.4-1.3-0.7c-0.3-0.3-0.4-0.7-0.4-1.2c0-0.6,0.3-1.2,0.9-1.6
		c0.6-0.4,1.4-0.6,2.5-0.6c0.5,0,1,0,1.4,0.1s0.8,0.2,1.1,0.3v1.7h-0.2c-0.3-0.2-0.7-0.4-1.1-0.5c-0.4-0.1-0.8-0.2-1.2-0.2
		c-0.3,0-0.6,0-0.9,0.1c-0.2,0.1-0.3,0.2-0.3,0.4c0,0.2,0.1,0.3,0.2,0.4s0.4,0.2,0.7,0.2c0.2,0,0.4,0.1,0.7,0.1
		c0.2,0,0.5,0.1,0.7,0.2c0.6,0.1,1,0.4,1.2,0.7C206.4,374.3,206.6,374.7,206.6,375.1z"/>
	<g>
		<path class="st4" d="M82.6,417.2h-8.7v-2.3h2.8V408h-2.8v-2.1c0.4,0,0.8,0,1.2-0.1s0.7-0.1,1-0.3c0.3-0.1,0.5-0.3,0.7-0.6
			s0.2-0.5,0.3-0.9h2.9v10.8h2.7V417.2z"/>
		<path class="st4" d="M96.3,412.8c0,0.7-0.1,1.3-0.4,1.9s-0.6,1.1-1,1.5c-0.5,0.4-1,0.8-1.6,1s-1.4,0.3-2.2,0.3
			c-0.8,0-1.5-0.1-2.1-0.3c-0.6-0.2-1.2-0.5-1.7-1c-0.5-0.5-0.9-1.2-1.2-2s-0.4-1.7-0.4-2.9c0-1.1,0.1-2.2,0.4-3.1s0.7-1.7,1.3-2.4
			c0.6-0.7,1.3-1.2,2.2-1.5s2-0.5,3.3-0.5c0.4,0,0.9,0,1.4,0.1s0.8,0.1,1,0.1v2.6h-0.3c-0.2-0.1-0.4-0.2-0.8-0.3
			c-0.4-0.1-0.8-0.1-1.3-0.1c-1.1,0-2,0.3-2.6,0.8s-1,1.3-1.1,2.3c0.5-0.3,0.9-0.5,1.4-0.7c0.5-0.2,1-0.2,1.6-0.2
			c0.5,0,1,0.1,1.4,0.2s0.8,0.3,1.2,0.6c0.5,0.3,0.9,0.8,1.2,1.4S96.3,411.9,96.3,412.8z M92.3,414.7c0.2-0.2,0.3-0.4,0.4-0.7
			c0.1-0.3,0.2-0.6,0.2-1.1c0-0.4-0.1-0.8-0.2-1c-0.1-0.3-0.3-0.5-0.5-0.7c-0.2-0.2-0.5-0.3-0.7-0.3c-0.3-0.1-0.6-0.1-0.9-0.1
			c-0.3,0-0.5,0-0.8,0.1s-0.5,0.1-0.8,0.2c0,0.1,0,0.2,0,0.3s0,0.3,0,0.5c0,0.7,0.1,1.3,0.2,1.8c0.1,0.5,0.3,0.8,0.6,1.1
			c0.2,0.2,0.4,0.3,0.6,0.4s0.5,0.1,0.7,0.1c0.2,0,0.4,0,0.6-0.1S92.1,414.9,92.3,414.7z"/>
		<path class="st4" d="M107.8,411.1c0.3,0.2,0.5,0.5,0.7,0.9s0.3,0.8,0.3,1.3c0,0.6-0.1,1.2-0.4,1.7s-0.6,1-1.1,1.4
			c-0.5,0.4-1.1,0.7-1.7,0.8c-0.7,0.2-1.5,0.3-2.4,0.3c-1.1,0-2-0.1-2.8-0.3s-1.4-0.4-1.9-0.6v-2.9h0.3c0.5,0.3,1.1,0.6,1.8,0.8
			s1.3,0.3,1.9,0.3c0.3,0,0.7,0,1.1-0.1c0.4-0.1,0.7-0.2,1-0.4c0.2-0.1,0.4-0.3,0.5-0.5c0.1-0.2,0.2-0.5,0.2-0.9
			c0-0.4-0.1-0.7-0.3-0.9s-0.4-0.4-0.7-0.4c-0.3-0.1-0.6-0.1-1-0.2c-0.4,0-0.8,0-1.1,0h-0.7v-2.3h0.7c0.5,0,0.9,0,1.2,0
			s0.7-0.1,0.9-0.2c0.3-0.1,0.5-0.3,0.6-0.4c0.1-0.2,0.2-0.5,0.2-0.8c0-0.3-0.1-0.5-0.2-0.6c-0.1-0.2-0.3-0.3-0.5-0.4
			c-0.2-0.1-0.5-0.2-0.8-0.2s-0.6-0.1-0.8-0.1c-0.6,0-1.1,0.1-1.8,0.3s-1.3,0.5-1.9,0.8h-0.3v-2.8c0.5-0.2,1.1-0.4,2-0.6
			c0.8-0.2,1.7-0.3,2.5-0.3c0.8,0,1.5,0.1,2.2,0.2c0.6,0.1,1.1,0.3,1.5,0.6c0.5,0.3,0.8,0.6,1.1,1s0.4,0.9,0.4,1.4
			c0,0.7-0.2,1.4-0.7,1.9c-0.5,0.6-1,0.9-1.8,1.1v0.1c0.3,0,0.6,0.1,0.9,0.2S107.5,410.8,107.8,411.1z"/>
	</g>
	<g>
		<path class="st5" d="M72.1,435.1c0,0.7-0.3,1.2-0.9,1.6s-1.4,0.6-2.5,0.6c-0.6,0-1.1-0.1-1.6-0.2s-0.9-0.2-1.1-0.4v-1.7h0.2
			c0.1,0.1,0.2,0.2,0.4,0.2s0.3,0.2,0.6,0.3c0.2,0.1,0.5,0.2,0.7,0.2s0.6,0.1,0.9,0.1c0.4,0,0.7,0,0.9-0.1s0.3-0.2,0.3-0.4
			c0-0.2-0.1-0.3-0.2-0.3s-0.3-0.1-0.7-0.2c-0.2,0-0.4-0.1-0.6-0.1s-0.5-0.1-0.7-0.1c-0.6-0.2-1-0.4-1.3-0.7s-0.4-0.7-0.4-1.2
			c0-0.6,0.3-1.2,0.9-1.6s1.4-0.6,2.5-0.6c0.5,0,1,0,1.4,0.1s0.8,0.2,1.1,0.3v1.7h-0.2c-0.3-0.2-0.7-0.4-1.1-0.5s-0.8-0.2-1.2-0.2
			c-0.3,0-0.6,0-0.9,0.1s-0.3,0.2-0.3,0.4c0,0.2,0.1,0.3,0.2,0.4s0.4,0.2,0.7,0.2c0.2,0,0.4,0.1,0.7,0.1s0.5,0.1,0.7,0.2
			c0.6,0.1,1,0.4,1.2,0.7S72.1,434.7,72.1,435.1z"/>
		<path class="st5" d="M80.4,437.2h-2.1v-0.7c-0.4,0.3-0.7,0.5-1.1,0.7s-0.7,0.2-1.2,0.2c-0.7,0-1.3-0.2-1.7-0.6s-0.6-1-0.6-1.9
			v-4.3h2.1v3.3c0,0.3,0,0.6,0,0.8s0.1,0.4,0.1,0.5c0.1,0.1,0.2,0.2,0.3,0.3s0.4,0.1,0.6,0.1c0.2,0,0.4,0,0.6-0.1s0.4-0.2,0.6-0.3
			v-4.7h2.1V437.2z"/>
		<path class="st5" d="M86.1,437.4c-0.6,0-1.1-0.1-1.6-0.2s-0.9-0.3-1.2-0.6c-0.3-0.3-0.6-0.6-0.8-1.1s-0.3-0.9-0.3-1.5
			c0-0.6,0.1-1.1,0.3-1.6s0.5-0.8,0.9-1.1c0.4-0.3,0.8-0.5,1.2-0.6s0.9-0.2,1.4-0.2c0.4,0,0.9,0,1.2,0.1s0.7,0.2,1.1,0.4v1.8H88
			c-0.1-0.1-0.2-0.2-0.3-0.2c-0.1-0.1-0.3-0.2-0.4-0.3c-0.2-0.1-0.3-0.2-0.5-0.2c-0.2-0.1-0.4-0.1-0.7-0.1c-0.6,0-1,0.2-1.3,0.5
			c-0.3,0.4-0.5,0.8-0.5,1.5c0,0.6,0.2,1.1,0.5,1.4c0.3,0.3,0.8,0.5,1.3,0.5c0.3,0,0.5,0,0.7-0.1c0.2-0.1,0.4-0.1,0.5-0.2
			c0.1-0.1,0.2-0.2,0.4-0.2c0.1-0.1,0.2-0.2,0.3-0.3h0.3v1.8c-0.3,0.2-0.7,0.3-1,0.4S86.5,437.4,86.1,437.4z"/>
		<path class="st5" d="M96.6,437.2h-2.1v-0.7c-0.4,0.3-0.7,0.5-1.1,0.7s-0.7,0.2-1.2,0.2c-0.7,0-1.3-0.2-1.7-0.6s-0.6-1-0.6-1.9
			v-4.3h2.1v3.3c0,0.3,0,0.6,0,0.8s0.1,0.4,0.1,0.5c0.1,0.1,0.2,0.2,0.3,0.3s0.4,0.1,0.6,0.1c0.2,0,0.4,0,0.6-0.1s0.4-0.2,0.6-0.3
			v-4.7h2.1V437.2z"/>
		<path class="st5" d="M103.6,432.6h-0.2c-0.1,0-0.2-0.1-0.4-0.1s-0.4,0-0.5,0c-0.3,0-0.6,0-0.8,0.1s-0.5,0.1-0.7,0.2v4.4h-2.1v-6.6
			h2.1v1c0.5-0.4,0.9-0.7,1.2-0.8c0.3-0.1,0.7-0.2,0.9-0.2c0.1,0,0.2,0,0.3,0c0.1,0,0.2,0,0.2,0V432.6z"/>
		<path class="st5" d="M110.8,435.1c0,0.7-0.3,1.2-0.9,1.6s-1.4,0.6-2.5,0.6c-0.6,0-1.1-0.1-1.6-0.2s-0.9-0.2-1.1-0.4v-1.7h0.2
			c0.1,0.1,0.2,0.2,0.4,0.2s0.3,0.2,0.6,0.3c0.2,0.1,0.5,0.2,0.7,0.2s0.6,0.1,0.9,0.1c0.4,0,0.7,0,0.9-0.1s0.3-0.2,0.3-0.4
			c0-0.2-0.1-0.3-0.2-0.3s-0.3-0.1-0.7-0.2c-0.2,0-0.4-0.1-0.6-0.1s-0.5-0.1-0.7-0.1c-0.6-0.2-1-0.4-1.3-0.7s-0.4-0.7-0.4-1.2
			c0-0.6,0.3-1.2,0.9-1.6s1.4-0.6,2.5-0.6c0.5,0,1,0,1.4,0.1s0.8,0.2,1.1,0.3v1.7h-0.2c-0.3-0.2-0.7-0.4-1.1-0.5s-0.8-0.2-1.2-0.2
			c-0.3,0-0.6,0-0.9,0.1s-0.3,0.2-0.3,0.4c0,0.2,0.1,0.3,0.2,0.4s0.4,0.2,0.7,0.2c0.2,0,0.4,0.1,0.7,0.1s0.5,0.1,0.7,0.2
			c0.6,0.1,1,0.4,1.2,0.7S110.8,434.7,110.8,435.1z"/>
		<path class="st5" d="M116.5,436.5c-0.1,0.1-0.3,0.2-0.4,0.3s-0.3,0.2-0.5,0.3c-0.2,0.1-0.4,0.2-0.6,0.2s-0.5,0.1-0.7,0.1
			c-0.6,0-1.1-0.2-1.6-0.6s-0.6-0.9-0.6-1.5c0-0.5,0.1-0.9,0.3-1.2s0.5-0.5,0.9-0.7c0.4-0.2,0.9-0.3,1.5-0.4s1.2-0.1,1.8-0.2v0
			c0-0.4-0.1-0.6-0.4-0.8s-0.7-0.2-1.3-0.2c-0.3,0-0.7,0.1-1.1,0.2s-0.7,0.2-0.8,0.3h-0.2v-1.6c0.2-0.1,0.6-0.1,1.1-0.2
			s1-0.1,1.5-0.1c1.2,0,2.1,0.2,2.6,0.6s0.8,0.9,0.8,1.7v4.5h-2.1V436.5z M116.5,435.5v-1.4c-0.3,0-0.6,0.1-0.9,0.1
			s-0.6,0.1-0.8,0.1c-0.2,0.1-0.4,0.2-0.5,0.3c-0.1,0.1-0.2,0.3-0.2,0.5c0,0.1,0,0.2,0,0.3c0,0.1,0.1,0.2,0.2,0.2
			c0.1,0.1,0.2,0.1,0.3,0.2s0.3,0.1,0.6,0.1c0.2,0,0.4,0,0.6-0.1C116.1,435.7,116.3,435.6,116.5,435.5z"/>
		<path class="st5" d="M122.9,437.2h-2.1v-9.1h2.1V437.2z"/>
		<path class="st5" d="M131.7,434.3h-4.8c0,0.5,0.2,0.9,0.6,1.2s0.9,0.4,1.6,0.4c0.4,0,0.9-0.1,1.3-0.2s0.7-0.3,1-0.5h0.2v1.7
			c-0.5,0.2-0.9,0.3-1.3,0.4s-0.9,0.1-1.4,0.1c-1.3,0-2.3-0.3-3-0.9s-1.1-1.4-1.1-2.5c0-1.1,0.3-1.9,1-2.6s1.6-1,2.7-1
			c1.1,0,1.9,0.3,2.4,0.8s0.8,1.3,0.8,2.3V434.3z M129.6,433.1c0-0.4-0.1-0.8-0.3-1s-0.5-0.3-1-0.3c-0.4,0-0.7,0.1-1,0.3
			s-0.4,0.5-0.4,1H129.6z"/>
		<path class="st5" d="M139.2,435.1c0,0.7-0.3,1.2-0.9,1.6s-1.4,0.6-2.5,0.6c-0.6,0-1.1-0.1-1.6-0.2s-0.9-0.2-1.1-0.4v-1.7h0.2
			c0.1,0.1,0.2,0.2,0.4,0.2s0.3,0.2,0.6,0.3c0.2,0.1,0.5,0.2,0.7,0.2s0.6,0.1,0.9,0.1c0.4,0,0.7,0,0.9-0.1s0.3-0.2,0.3-0.4
			c0-0.2-0.1-0.3-0.2-0.3s-0.3-0.1-0.7-0.2c-0.2,0-0.4-0.1-0.6-0.1s-0.5-0.1-0.7-0.1c-0.6-0.2-1-0.4-1.3-0.7s-0.4-0.7-0.4-1.2
			c0-0.6,0.3-1.2,0.9-1.6s1.4-0.6,2.5-0.6c0.5,0,1,0,1.4,0.1s0.8,0.2,1.1,0.3v1.7h-0.2c-0.3-0.2-0.7-0.4-1.1-0.5s-0.8-0.2-1.2-0.2
			c-0.3,0-0.6,0-0.9,0.1s-0.3,0.2-0.3,0.4c0,0.2,0.1,0.3,0.2,0.4s0.4,0.2,0.7,0.2c0.2,0,0.4,0.1,0.7,0.1s0.5,0.1,0.7,0.2
			c0.6,0.1,1,0.4,1.2,0.7S139.2,434.7,139.2,435.1z"/>
	</g>
	<g>
		<path class="st4" d="M82.6,477.2h-8.7v-2.3h2.8V468h-2.8v-2.1c0.4,0,0.8,0,1.2-0.1s0.7-0.1,1-0.3c0.3-0.1,0.5-0.3,0.7-0.6
			s0.2-0.5,0.3-0.9h2.9v10.8h2.7V477.2z"/>
		<path class="st4" d="M96.5,474.2h-1.8v3h-3.2v-3h-6.3v-2.5l6.1-7.6h3.4v7.7h1.8V474.2z M91.4,471.8v-4.7l-3.8,4.7H91.4z"/>
		<path class="st4" d="M102.6,473.8l-3.2,6.7h-2l1.7-6.7H102.6z"/>
		<path class="st4" d="M115.6,472.8c0,0.7-0.1,1.3-0.4,1.9s-0.6,1.1-1,1.5c-0.5,0.4-1,0.8-1.6,1s-1.4,0.3-2.2,0.3
			c-0.8,0-1.5-0.1-2.1-0.3c-0.6-0.2-1.2-0.5-1.7-1c-0.5-0.5-0.9-1.2-1.2-2s-0.4-1.7-0.4-2.9c0-1.1,0.1-2.2,0.4-3.1s0.7-1.7,1.3-2.4
			c0.6-0.7,1.3-1.2,2.2-1.5s2-0.5,3.3-0.5c0.4,0,0.9,0,1.4,0.1s0.8,0.1,1,0.1v2.6h-0.3c-0.2-0.1-0.4-0.2-0.8-0.3
			c-0.4-0.1-0.8-0.1-1.3-0.1c-1.1,0-2,0.3-2.6,0.8s-1,1.3-1.1,2.3c0.5-0.3,0.9-0.5,1.4-0.7c0.5-0.2,1-0.2,1.6-0.2
			c0.5,0,1,0.1,1.4,0.2s0.8,0.3,1.2,0.6c0.5,0.3,0.9,0.8,1.2,1.4S115.6,471.9,115.6,472.8z M111.6,474.7c0.2-0.2,0.3-0.4,0.4-0.7
			c0.1-0.3,0.2-0.6,0.2-1.1c0-0.4-0.1-0.8-0.2-1c-0.1-0.3-0.3-0.5-0.5-0.7c-0.2-0.2-0.5-0.3-0.7-0.3c-0.3-0.1-0.6-0.1-0.9-0.1
			c-0.3,0-0.5,0-0.8,0.1s-0.5,0.1-0.8,0.2c0,0.1,0,0.2,0,0.3s0,0.3,0,0.5c0,0.7,0.1,1.3,0.2,1.8c0.1,0.5,0.3,0.8,0.6,1.1
			c0.2,0.2,0.4,0.3,0.6,0.4s0.5,0.1,0.7,0.1c0.2,0,0.4,0,0.6-0.1S111.4,474.9,111.6,474.7z"/>
		<path class="st4" d="M128.3,470.7c0,1.1-0.1,2.1-0.3,3c-0.2,0.9-0.5,1.6-0.9,2.1c-0.4,0.6-1,1-1.7,1.3s-1.5,0.4-2.5,0.4
			c-1,0-1.8-0.1-2.5-0.4s-1.3-0.7-1.7-1.3c-0.4-0.6-0.7-1.3-0.9-2.1s-0.3-1.8-0.3-2.9c0-1.1,0.1-2.1,0.3-3c0.2-0.8,0.5-1.5,0.9-2.1
			c0.4-0.6,1-1,1.7-1.3s1.5-0.4,2.5-0.4c1,0,1.8,0.1,2.5,0.4s1.2,0.7,1.7,1.3c0.4,0.6,0.7,1.3,0.9,2.1
			C128.2,468.6,128.3,469.6,128.3,470.7z M124.9,470.7c0-1.6-0.2-2.7-0.5-3.4c-0.3-0.7-0.8-1-1.5-1s-1.2,0.3-1.5,1
			c-0.3,0.7-0.5,1.8-0.5,3.4c0,1.6,0.2,2.7,0.5,3.4s0.8,1,1.5,1s1.2-0.3,1.5-1S124.9,472.2,124.9,470.7z"/>
		<path class="st4" d="M141.3,474.2h-1.8v3h-3.2v-3H130v-2.5l6.1-7.6h3.4v7.7h1.8V474.2z M136.3,471.8v-4.7l-3.8,4.7H136.3z"/>
	</g>
	<g>
		<path class="st5" d="M69.8,497.4c-0.6,0-1.1-0.1-1.6-0.2s-0.9-0.3-1.2-0.6c-0.3-0.3-0.6-0.6-0.8-1.1s-0.3-0.9-0.3-1.5
			c0-0.6,0.1-1.1,0.3-1.6s0.5-0.8,0.9-1.1c0.4-0.3,0.8-0.5,1.2-0.6s0.9-0.2,1.4-0.2c0.4,0,0.9,0,1.2,0.1s0.7,0.2,1.1,0.4v1.8h-0.3
			c-0.1-0.1-0.2-0.2-0.3-0.2c-0.1-0.1-0.3-0.2-0.4-0.3c-0.2-0.1-0.3-0.2-0.5-0.2c-0.2-0.1-0.4-0.1-0.7-0.1c-0.6,0-1,0.2-1.3,0.5
			c-0.3,0.4-0.5,0.8-0.5,1.5c0,0.6,0.2,1.1,0.5,1.4c0.3,0.3,0.8,0.5,1.3,0.5c0.3,0,0.5,0,0.7-0.1c0.2-0.1,0.4-0.1,0.5-0.2
			c0.1-0.1,0.2-0.2,0.4-0.2c0.1-0.1,0.2-0.2,0.3-0.3h0.3v1.8c-0.3,0.2-0.7,0.3-1,0.4S70.3,497.4,69.8,497.4z"/>
		<path class="st5" d="M80.5,493.9c0,1.1-0.3,1.9-0.9,2.6s-1.5,0.9-2.7,0.9s-2-0.3-2.7-0.9s-0.9-1.5-0.9-2.6c0-1.1,0.3-1.9,1-2.6
			s1.5-0.9,2.7-0.9c1.1,0,2,0.3,2.7,0.9S80.5,492.8,80.5,493.9z M77.9,495.5c0.1-0.2,0.2-0.4,0.3-0.6s0.1-0.6,0.1-1
			c0-0.4,0-0.7-0.1-1s-0.2-0.5-0.3-0.6c-0.1-0.2-0.3-0.3-0.5-0.3s-0.4-0.1-0.6-0.1s-0.4,0-0.5,0.1s-0.3,0.2-0.5,0.3
			c-0.1,0.2-0.2,0.4-0.3,0.6s-0.1,0.6-0.1,1c0,0.4,0,0.7,0.1,0.9s0.2,0.5,0.3,0.6c0.1,0.2,0.3,0.3,0.4,0.3s0.4,0.1,0.6,0.1
			c0.2,0,0.4,0,0.5-0.1S77.8,495.7,77.9,495.5z"/>
		<path class="st5" d="M84.4,497.2h-2.1v-9.1h2.1V497.2z"/>
		<path class="st5" d="M90.7,496.5c-0.1,0.1-0.3,0.2-0.4,0.3s-0.3,0.2-0.5,0.3c-0.2,0.1-0.4,0.2-0.6,0.2s-0.5,0.1-0.7,0.1
			c-0.6,0-1.1-0.2-1.6-0.6s-0.6-0.9-0.6-1.5c0-0.5,0.1-0.9,0.3-1.2s0.5-0.5,0.9-0.7c0.4-0.2,0.9-0.3,1.5-0.4s1.2-0.1,1.8-0.2v0
			c0-0.4-0.1-0.6-0.4-0.8s-0.7-0.2-1.3-0.2c-0.3,0-0.7,0.1-1.1,0.2s-0.7,0.2-0.8,0.3h-0.2v-1.6c0.2-0.1,0.6-0.1,1.1-0.2
			s1-0.1,1.5-0.1c1.2,0,2.1,0.2,2.6,0.6s0.8,0.9,0.8,1.7v4.5h-2.1V496.5z M90.7,495.5v-1.4c-0.3,0-0.6,0.1-0.9,0.1s-0.6,0.1-0.8,0.1
			c-0.2,0.1-0.4,0.2-0.5,0.3c-0.1,0.1-0.2,0.3-0.2,0.5c0,0.1,0,0.2,0,0.3c0,0.1,0.1,0.2,0.2,0.2c0.1,0.1,0.2,0.1,0.3,0.2
			s0.3,0.1,0.6,0.1c0.2,0,0.4,0,0.6-0.1C90.3,495.7,90.5,495.6,90.7,495.5z"/>
		<path class="st5" d="M101.9,493.8c0,1-0.3,1.9-0.9,2.5c-0.6,0.7-1.3,1-2.1,1c-0.4,0-0.7,0-1-0.1s-0.5-0.2-0.8-0.3l-0.1,0.3h-2
			v-9.1h2.1v3.2c0.3-0.3,0.7-0.5,1-0.6s0.7-0.2,1.2-0.2c0.8,0,1.5,0.3,1.9,0.9C101.7,491.9,101.9,492.8,101.9,493.8z M99.7,493.9
			c0-0.6-0.1-1-0.3-1.4c-0.2-0.3-0.6-0.5-1.1-0.5c-0.2,0-0.4,0-0.6,0.1s-0.4,0.1-0.6,0.3v3.3c0.2,0.1,0.3,0.1,0.4,0.1s0.3,0,0.5,0
			c0.6,0,1-0.2,1.2-0.5C99.6,495,99.7,494.5,99.7,493.9z"/>
		<path class="st5" d="M110.4,493.9c0,1.1-0.3,1.9-0.9,2.6s-1.5,0.9-2.7,0.9s-2-0.3-2.7-0.9s-0.9-1.5-0.9-2.6c0-1.1,0.3-1.9,1-2.6
			s1.5-0.9,2.7-0.9c1.1,0,2,0.3,2.7,0.9S110.4,492.8,110.4,493.9z M107.8,495.5c0.1-0.2,0.2-0.4,0.3-0.6s0.1-0.6,0.1-1
			c0-0.4,0-0.7-0.1-1s-0.2-0.5-0.3-0.6c-0.1-0.2-0.3-0.3-0.5-0.3s-0.4-0.1-0.6-0.1s-0.4,0-0.5,0.1s-0.3,0.2-0.5,0.3
			c-0.1,0.2-0.2,0.4-0.3,0.6s-0.1,0.6-0.1,1c0,0.4,0,0.7,0.1,0.9s0.2,0.5,0.3,0.6c0.1,0.2,0.3,0.3,0.4,0.3s0.4,0.1,0.6,0.1
			c0.2,0,0.4,0,0.5-0.1S107.7,495.7,107.8,495.5z"/>
		<path class="st5" d="M117,492.6h-0.2c-0.1,0-0.2-0.1-0.4-0.1s-0.4,0-0.5,0c-0.3,0-0.6,0-0.8,0.1s-0.5,0.1-0.7,0.2v4.4h-2.1v-6.6
			h2.1v1c0.5-0.4,0.9-0.7,1.2-0.8c0.3-0.1,0.7-0.2,0.9-0.2c0.1,0,0.2,0,0.3,0c0.1,0,0.2,0,0.2,0V492.6z"/>
		<path class="st5" d="M122.5,496.5c-0.1,0.1-0.3,0.2-0.4,0.3s-0.3,0.2-0.5,0.3c-0.2,0.1-0.4,0.2-0.6,0.2s-0.5,0.1-0.7,0.1
			c-0.6,0-1.1-0.2-1.6-0.6s-0.6-0.9-0.6-1.5c0-0.5,0.1-0.9,0.3-1.2s0.5-0.5,0.9-0.7c0.4-0.2,0.9-0.3,1.5-0.4s1.2-0.1,1.8-0.2v0
			c0-0.4-0.1-0.6-0.4-0.8s-0.7-0.2-1.3-0.2c-0.3,0-0.7,0.1-1.1,0.2s-0.7,0.2-0.8,0.3h-0.2v-1.6c0.2-0.1,0.6-0.1,1.1-0.2
			s1-0.1,1.5-0.1c1.2,0,2.1,0.2,2.6,0.6s0.8,0.9,0.8,1.7v4.5h-2.1V496.5z M122.5,495.5v-1.4c-0.3,0-0.6,0.1-0.9,0.1
			s-0.6,0.1-0.8,0.1c-0.2,0.1-0.4,0.2-0.5,0.3c-0.1,0.1-0.2,0.3-0.2,0.5c0,0.1,0,0.2,0,0.3c0,0.1,0.1,0.2,0.2,0.2
			c0.1,0.1,0.2,0.1,0.3,0.2s0.3,0.1,0.6,0.1c0.2,0,0.4,0,0.6-0.1C122.1,495.7,122.3,495.6,122.5,495.5z"/>
		<path class="st5" d="M133.2,497.2h-2.1v-0.7c-0.4,0.3-0.7,0.5-1,0.7c-0.3,0.1-0.7,0.2-1.1,0.2c-0.8,0-1.4-0.3-1.9-0.9
			s-0.7-1.4-0.7-2.5c0-0.6,0.1-1.1,0.2-1.5c0.2-0.4,0.4-0.8,0.7-1.1c0.3-0.3,0.6-0.5,1-0.7c0.4-0.2,0.8-0.2,1.1-0.2
			c0.4,0,0.7,0,1,0.1s0.5,0.2,0.8,0.3v-2.8h2.1V497.2z M131.1,495.4v-3.2c-0.1-0.1-0.3-0.1-0.5-0.1c-0.2,0-0.3,0-0.5,0
			c-0.6,0-1,0.2-1.2,0.5c-0.3,0.3-0.4,0.8-0.4,1.4c0,0.6,0.1,1.1,0.3,1.4c0.2,0.3,0.6,0.4,1.1,0.4c0.2,0,0.4,0,0.6-0.1
			S130.9,495.5,131.1,495.4z"/>
		<path class="st5" d="M142.2,493.9c0,1.1-0.3,1.9-0.9,2.6s-1.5,0.9-2.7,0.9s-2-0.3-2.7-0.9s-0.9-1.5-0.9-2.6c0-1.1,0.3-1.9,1-2.6
			s1.5-0.9,2.7-0.9c1.1,0,2,0.3,2.7,0.9S142.2,492.8,142.2,493.9z M139.6,495.5c0.1-0.2,0.2-0.4,0.3-0.6s0.1-0.6,0.1-1
			c0-0.4,0-0.7-0.1-1s-0.2-0.5-0.3-0.6c-0.1-0.2-0.3-0.3-0.5-0.3s-0.4-0.1-0.6-0.1s-0.4,0-0.5,0.1s-0.3,0.2-0.5,0.3
			c-0.1,0.2-0.2,0.4-0.3,0.6s-0.1,0.6-0.1,1c0,0.4,0,0.7,0.1,0.9s0.2,0.5,0.3,0.6c0.1,0.2,0.3,0.3,0.4,0.3s0.4,0.1,0.6,0.1
			c0.2,0,0.4,0,0.5-0.1S139.5,495.7,139.6,495.5z"/>
		<path class="st5" d="M148.8,492.6h-0.2c-0.1,0-0.2-0.1-0.4-0.1s-0.4,0-0.5,0c-0.3,0-0.6,0-0.8,0.1s-0.5,0.1-0.7,0.2v4.4H144v-6.6
			h2.1v1c0.5-0.4,0.9-0.7,1.2-0.8c0.3-0.1,0.7-0.2,0.9-0.2c0.1,0,0.2,0,0.3,0c0.1,0,0.2,0,0.2,0V492.6z"/>
		<path class="st5" d="M156.7,494.3h-4.8c0,0.5,0.2,0.9,0.6,1.2s0.9,0.4,1.6,0.4c0.4,0,0.9-0.1,1.3-0.2s0.7-0.3,1-0.5h0.2v1.7
			c-0.5,0.2-0.9,0.3-1.3,0.4s-0.9,0.1-1.4,0.1c-1.3,0-2.3-0.3-3-0.9s-1.1-1.4-1.1-2.5c0-1.1,0.3-1.9,1-2.6s1.6-1,2.7-1
			c1.1,0,1.9,0.3,2.4,0.8s0.8,1.3,0.8,2.3V494.3z M154.6,493.1c0-0.4-0.1-0.8-0.3-1s-0.5-0.3-1-0.3c-0.4,0-0.7,0.1-1,0.3
			s-0.4,0.5-0.4,1H154.6z"/>
		<path class="st5" d="M164.2,495.1c0,0.7-0.3,1.2-0.9,1.6s-1.4,0.6-2.5,0.6c-0.6,0-1.1-0.1-1.6-0.2s-0.9-0.2-1.1-0.4v-1.7h0.2
			c0.1,0.1,0.2,0.2,0.4,0.2s0.3,0.2,0.6,0.3c0.2,0.1,0.5,0.2,0.7,0.2s0.6,0.1,0.9,0.1c0.4,0,0.7,0,0.9-0.1s0.3-0.2,0.3-0.4
			c0-0.2-0.1-0.3-0.2-0.3s-0.3-0.1-0.7-0.2c-0.2,0-0.4-0.1-0.6-0.1s-0.5-0.1-0.7-0.1c-0.6-0.2-1-0.4-1.3-0.7s-0.4-0.7-0.4-1.2
			c0-0.6,0.3-1.2,0.9-1.6s1.4-0.6,2.5-0.6c0.5,0,1,0,1.4,0.1s0.8,0.2,1.1,0.3v1.7h-0.2c-0.3-0.2-0.7-0.4-1.1-0.5s-0.8-0.2-1.2-0.2
			c-0.3,0-0.6,0-0.9,0.1s-0.3,0.2-0.3,0.4c0,0.2,0.1,0.3,0.2,0.4s0.4,0.2,0.7,0.2c0.2,0,0.4,0.1,0.7,0.1s0.5,0.1,0.7,0.2
			c0.6,0.1,1,0.4,1.2,0.7S164.2,494.7,164.2,495.1z"/>
	</g>
	<g>
		<path class="st6" d="M139.3,30.1c-0.5,0.1-3.5-0.5-3.5-0.5s2.3,1.2,2.3,1.5c0.1,0.3-0.9,2.3-0.9,2.3s1.6-1.7,2.1-2.1
			c0.4-0.3,1-0.3,1.6-0.2c0.5,0.1,3.4,0.6,6.8-1.2c2.2-1.1,2.2-1.4,2.2-1.4s-1.7-1.1-4.6-0.7C142.1,28.4,139.8,30,139.3,30.1"/>
		<path class="st6" d="M94.6,67.1C94,67.3,91,66.6,91,66.6s2.3,1.4,2.5,1.7C93.6,68.5,93,71,93,71s1.4-2,2-2.5
			c0.3-0.4,1.2-0.3,1.6-0.2c0.4,0.1,4.5,0.8,8.2-1.9c2.5-1.8,2.4-2.1,2.4-2.1s-2.3-1.6-5.8-0.9C97.9,64.1,95.2,67,94.6,67.1"/>
		<path class="st7" d="M163.1,29.4c-0.8,0.1-5-1.4-5-1.4s3,2.3,3.2,2.7c0.2,0.4-1,3.8-1,3.8s2.3-2.5,3.2-3.2c0.5-0.4,1.7-0.2,2.3,0
			c0.6,0.2,6.1,1.9,11.9-1.3c3.7-2.1,3.7-2.5,3.7-2.5s-3-2.6-8-2.2C168.3,25.7,163.9,29.3,163.1,29.4"/>
		<path class="st7" d="M69.5,61c-0.8,0.2-4.1-1.1-4.1-1.1s3.2,1.9,3.3,2.2c0.1,0.3-2,3.4-2,3.4s2.1-1.8,3-2.5
			c0.8-0.6,2.6-0.9,3.7-0.8c1,0.1,5.4,0.7,10.9-3c3.6-2.4,3.6-2.8,3.6-2.8s-3.2-1.9-8.2-0.8C74.7,56.7,70.3,60.7,69.5,61"/>
		<path class="st7" d="M111,58.2c-0.5,0.1-2.4-1.1-2.4-1.1s1.7,1.5,1.8,1.7c0,0.2-1.6,1.9-1.6,1.9s1.5-0.9,2.1-1.2
			c0.5-0.3,1.7-0.2,2.4-0.1c0.6,0.2,3.2,1,7-0.6c2.5-1.1,2.5-1.3,2.5-1.3s-1.7-1.5-4.9-1.4C114.7,56.2,111.5,58.2,111,58.2"/>
		<path class="st7" d="M83.5,48.2c-0.8,0.4-1.7,0.6-2.7,0.6c-3.5,0-6.5-1.9-6.5-6.6c0-4.8,3.1-6.7,6.6-6.7c0.8,0,1.8,0.1,2.6,0.3
			v2.2c-0.8-0.3-1.6-0.5-2.6-0.5c-2.5,0-4.2,1.3-4.2,4.6c0,3.5,1.9,4.6,4.2,4.6c1,0,1.8-0.2,2.6-0.5V48.2z"/>
		<path class="st7" d="M86.7,44c0,1.9,0.8,2.9,1.9,2.9c1,0,1.8-0.9,1.8-2.9c0-1.9-0.8-2.8-1.9-2.8C87.4,41.1,86.7,42,86.7,44
			 M92.6,44c0,2.8-1.6,4.7-4.1,4.7c-2.4,0-4.1-1.9-4.1-4.7c0-2.8,1.6-4.7,4.1-4.7C91,39.3,92.6,41.2,92.6,44"/>
		<path class="st7" d="M105.6,48.4h-2.1v-5.7c0-1.2-0.5-1.6-1.4-1.6c-0.5,0-1.4,0.2-1.4,0.7c0,0.2,0.1,0.5,0.1,0.8v5.9h-2.1v-5.7
			c0-1.2-0.5-1.6-1.3-1.6c-0.7,0-1.4,0.2-1.4,0.8v6.4h-2.1v-8.7c1.8,0,2.4-0.4,3.8-0.4c1.2,0,1.7,0.3,2.2,0.7
			c0.7-0.4,1.6-0.7,2.7-0.7c1.8,0,3,0.8,3,3.1V48.4z"/>
		<path class="st7" d="M110.4,41.1c-0.7,0-1.1,0.3-1.1,0.6v4.5c0,0.3,0.5,0.6,1.1,0.6c1.3,0,2.1-0.9,2.1-2.8
			C112.5,42,111.7,41.1,110.4,41.1 M107.1,52.6c0-2,0.1-3.4,0.1-5.9v-7.1c1.3,0,2.1-0.3,3.4-0.3c2.3,0,4.2,1.6,4.2,4.7
			c0,3-2,4.6-3.9,4.6c-0.8,0-1.3-0.2-1.6-0.4v4.3H107.1z"/>
		<path class="st7" d="M120.4,44.1c-1.7,0.1-2.6,0.6-2.6,1.6c0,0.7,0.5,1.2,1.3,1.2c0.8,0,1.1-0.2,1.2-0.5
			C120.4,46.1,120.4,45.3,120.4,44.1 M120.4,42.6v-0.3c0-0.7-0.5-1.2-1.4-1.2c-0.9,0-1.8,0.2-2.8,0.6v-1.9c1-0.3,1.9-0.4,2.9-0.4
			c2,0,3.3,0.8,3.3,2.9c0,1.5-0.1,2.7-0.1,4.1c0,0.7,0,1.6,0.1,2c-1.5,0-2.3,0.2-3.6,0.2c-2.2,0-3.3-1-3.3-2.7
			C115.7,44.1,117.1,42.7,120.4,42.6"/>
		<path class="st7" d="M124.2,48.4v-8.9h2v0.8c0.5-0.8,1.4-1.1,2.3-1.1c0.4,0,0.7,0,1,0.1v2.2c-0.4-0.2-0.9-0.2-1.5-0.2
			c-0.9,0-1.6,0.3-1.6,1.1c0,1.5,0,3.8,0,6H124.2z"/>
		<path class="st7" d="M132.3,39.6h2.6v1.8h-2.6c0,1.9,0,3.2,0,4.6c0,0.7,0.4,0.9,1.1,0.9c0.6,0,1-0.1,1.5-0.3v1.8
			c-0.6,0.2-1.3,0.3-2,0.3c-1.5,0-2.6-0.7-2.6-2.3V38l2.1-1.2V39.6z"/>
		<path class="st7" d="M140.8,44.1c-1.7,0.1-2.6,0.6-2.6,1.6c0,0.7,0.5,1.2,1.3,1.2c0.8,0,1.1-0.2,1.2-0.5
			C140.7,46.1,140.8,45.3,140.8,44.1 M140.8,42.6v-0.3c0-0.7-0.5-1.2-1.4-1.2c-0.9,0-1.8,0.2-2.8,0.6v-1.9c1-0.3,1.9-0.4,2.9-0.4
			c2,0,3.3,0.8,3.3,2.9c0,1.5-0.1,2.7-0.1,4.1c0,0.7,0,1.6,0.1,2c-1.5,0-2.3,0.2-3.6,0.2c-2.2,0-3.3-1-3.3-2.7
			C136,44.1,137.4,42.7,140.8,42.6"/>
		<path class="st7" d="M156.1,48.4h-2.1v-5.7c0-1.2-0.5-1.6-1.4-1.6c-0.6,0-1.4,0.2-1.4,0.7c0,0.2,0.1,0.5,0.1,0.8v5.9h-2.1v-5.7
			c0-1.2-0.5-1.6-1.3-1.6c-0.7,0-1.4,0.2-1.4,0.8v6.4h-2.1v-8.7c1.8,0,2.4-0.4,3.8-0.4c1.2,0,1.7,0.3,2.2,0.7
			c0.7-0.4,1.6-0.7,2.7-0.7c1.8,0,3,0.8,3,3.1V48.4z"/>
		<path class="st7" d="M159.7,44c0,1.9,0.8,2.9,1.9,2.9c1,0,1.8-0.9,1.8-2.9c0-1.9-0.8-2.8-1.9-2.8C160.5,41.1,159.7,42,159.7,44
			 M165.6,44c0,2.8-1.6,4.7-4.1,4.7c-2.4,0-4.1-1.9-4.1-4.7c0-2.8,1.6-4.7,4.1-4.7C164,39.3,165.6,41.2,165.6,44"/>
		<path class="st7" d="M170,39.3c0.7,0,1.3,0.1,2,0.3v2c-0.9-0.4-1.5-0.5-2.1-0.5c-0.7,0-1.2,0.3-1.2,0.8c0,1.4,3.7,1.2,3.7,4
			c0,1.5-1.1,2.9-3.5,2.9c-0.8,0-1.6-0.1-2.3-0.3v-1.9c0.7,0.2,1.6,0.4,2.2,0.4c1,0,1.5-0.4,1.5-1c0-1.5-3.7-1.3-3.7-3.9
			C166.5,40.4,167.8,39.3,170,39.3"/>
		<path class="st7" d="M143.2,63.3c1.3,0,2.2-0.7,2.2-1.8c0-1.1-0.9-2-2.8-2c-0.3,0-0.6,0-0.8,0v3.4
			C141.9,63.2,142.3,63.3,143.2,63.3 M141.9,58.3h0.5c1.9,0,2.5-0.8,2.5-1.6c0-0.9-0.6-1.5-1.9-1.5c-0.9,0-1.1,0.1-1.1,0.3
			C141.9,56.5,141.9,57.7,141.9,58.3 M146.9,61.5c0,1.8-1.5,2.9-3.7,2.9c-1.1,0-1.6-0.1-2.7-0.1V54.2c1.1,0,1.6-0.1,2.6-0.1
			c2.2,0,3.3,1.1,3.3,2.6c0,1-0.6,1.9-1.8,2.2C146,59.1,146.9,60.3,146.9,61.5"/>
		<path class="st7" d="M151.6,60.8c-1.7,0-2.5,0.5-2.5,1.5c0,0.6,0.5,1.1,1.2,1.1c0.8,0,1.1-0.2,1.2-0.5
			C151.6,62.6,151.6,61.8,151.6,60.8 M151.6,59.8v-0.4c0-0.8-0.5-1.2-1.3-1.2c-0.7,0-1.4,0.2-2,0.5v-1.2c0.7-0.3,1.4-0.4,2.2-0.4
			c1.5,0,2.5,0.6,2.5,2.2c0,1.2,0,2.3,0,3.4c0,0.6,0,1.1,0.1,1.5c-1.1,0-1.8,0.2-2.7,0.2c-1.6,0-2.5-0.8-2.5-2.1
			C147.7,61,148.9,59.8,151.6,59.8"/>
		<path class="st7" d="M155.4,59v5.3h-1.3v-6.8c1.5,0,1.7-0.4,3-0.4c1.3,0,2.4,0.6,2.4,2.4v4.8h-1.3v-4.5c0-1.1-0.5-1.5-1.5-1.5
			C156,58.3,155.4,58.7,155.4,59"/>
		<path class="st7" d="M164.1,63.4c0.4,0,0.8,0,1.1-0.1v1.1c-0.4,0.1-0.8,0.1-1.2,0.1c-2.1,0-3.5-1.2-3.5-3.7c0-2.2,1.2-3.7,3.5-3.7
			c0.4,0,0.8,0,1.2,0.1v1.2c-0.4-0.1-0.7-0.2-1.2-0.2c-1.3,0-2.1,0.7-2.1,2.5C162,62.6,162.8,63.4,164.1,63.4"/>
		<path class="st7" d="M167.4,60.8c0,1.7,0.8,2.6,1.8,2.6c1,0,1.7-0.8,1.7-2.6c0-1.7-0.8-2.5-1.7-2.5
			C168.1,58.3,167.4,59.1,167.4,60.8 M172.2,60.8c0,2.2-1.2,3.7-3.1,3.7c-1.9,0-3.1-1.5-3.1-3.7c0-2.2,1.2-3.7,3.1-3.7
			C171,57.2,172.2,58.6,172.2,60.8"/>
		<path class="st7" d="M175.9,62.5c0.4,0,0.6-0.1,0.6-0.4c0-0.2-0.2-0.4-0.5-0.4c-0.2,0-0.3,0-0.3,0.1c0,0.3,0,0.5,0,0.7H175.9z
			 M175.7,63.7h-0.3v-2.3c0.2,0,0.4,0,0.7,0c0.4,0,0.8,0.2,0.8,0.6c0,0.3-0.1,0.5-0.4,0.6c0,0,0,0,0,0.1c0,0,0,0,0,0.1l0.6,1h-0.4
			l-0.5-0.8c-0.1-0.1-0.2-0.2-0.3-0.2h-0.2V63.7z M176.1,61.1c-0.8,0-1.4,0.6-1.4,1.5c0,0.8,0.5,1.5,1.4,1.5c0.8,0,1.4-0.6,1.4-1.5
			C177.5,61.8,176.9,61.1,176.1,61.1 M176.1,64.3c-1,0-1.7-0.8-1.7-1.7c0-1,0.7-1.8,1.7-1.8c1,0,1.7,0.8,1.7,1.8
			C177.9,63.6,177.1,64.3,176.1,64.3"/>
	</g>
</g>
</svg>
