<?xml version="1.0" encoding="utf-8"?>
<!-- Generator: Adobe Illustrator 25.2.1, SVG Export Plug-In . SVG Version: 6.00 Build 0)  -->
<svg version="1.1" id="Capa_1" xmlns="http://www.w3.org/2000/svg" xmlns:xlink="http://www.w3.org/1999/xlink" x="0px" y="0px"
	 viewBox="0 0 274.2 476.5" style="enable-background:new 0 0 274.2 476.5;" xml:space="preserve">
<style type="text/css">
	.st0{fill:none;stroke:#480174;stroke-linecap:round;stroke-linejoin:round;stroke-miterlimit:10;stroke-dasharray:0,3;}
	.st1{fill:none;stroke:#480174;stroke-linecap:round;stroke-linejoin:round;stroke-miterlimit:10;}
	.st2{fill:none;stroke:#480174;stroke-linecap:round;stroke-linejoin:round;stroke-miterlimit:10;stroke-dasharray:0,3.019;}
	.st3{fill:none;stroke:#480174;stroke-width:21;stroke-miterlimit:10;}
	.st4{fill:#FFFFFF;}
	.st5{fill:#252525;}
	.st6{clip-path:url(#SVGID_2_);fill:#009E54;}
</style>
<g>
	<line class="st0" x1="28.8" y1="40.8" x2="28.8" y2="375.3"/>
	<path class="st1" d="M28.8,376.8L28.8,376.8 M28.8,37.8L28.8,37.8"/>
	<line class="st2" x1="233.4" y1="77.7" x2="8.5" y2="77.7"/>
	<path class="st1" d="M6.9,77.7L6.9,77.7 M236.4,77.7L236.4,77.7"/>
	<line class="st3" x1="51.2" y1="111.3" x2="140.2" y2="111.3"/>
	<line class="st3" x1="51.2" y1="175.3" x2="146.8" y2="175.3"/>
	<line class="st3" x1="51.2" y1="233.7" x2="134" y2="233.7"/>
	<line class="st3" x1="51.2" y1="291.3" x2="121.2" y2="291.3"/>
	<line class="st3" x1="51.2" y1="351.3" x2="89.1" y2="351.3"/>
	<g>
		<path class="st4" d="M69.5,114.3h-1.8v3h-3.2v-3h-6.3v-2.5l6.1-7.6h3.4v7.7h1.8V114.3z M64.5,111.9v-4.7l-3.8,4.7H64.5z"/>
		<path class="st4" d="M82.1,117.3H71.8v-2.2c0.8-0.6,1.6-1.2,2.4-1.8s1.4-1.2,1.9-1.7c0.7-0.7,1.2-1.3,1.5-1.8s0.4-1,0.4-1.5
			c0-0.6-0.2-1.1-0.6-1.4c-0.4-0.3-0.9-0.5-1.7-0.5c-0.5,0-1.1,0.1-1.7,0.3s-1.1,0.5-1.7,0.9h-0.3v-2.9c0.4-0.2,1-0.4,1.8-0.5
			s1.6-0.3,2.4-0.3c1.6,0,2.9,0.3,3.8,1s1.3,1.7,1.3,2.9c0,0.8-0.2,1.6-0.6,2.4s-1,1.5-1.9,2.3c-0.5,0.5-1.1,0.9-1.6,1.4
			c-0.5,0.4-0.9,0.7-1.2,0.9h5.9V117.3z"/>
		<path class="st4" d="M88.4,113.8l-3.2,6.7h-2l1.7-6.7H88.4z"/>
		<path class="st4" d="M101.1,110c0,1.1-0.1,2.1-0.4,3.1s-0.7,1.7-1.3,2.4c-0.6,0.7-1.4,1.2-2.3,1.6s-2,0.5-3.2,0.5
			c-0.4,0-0.9,0-1.4-0.1s-0.8-0.1-1-0.1v-2.6h0.4c0.2,0.1,0.4,0.2,0.8,0.3s0.8,0.1,1.3,0.1c0.5,0,0.9-0.1,1.3-0.2
			c0.4-0.1,0.8-0.3,1.1-0.5c0.3-0.3,0.6-0.6,0.9-1s0.4-0.9,0.4-1.4c-0.5,0.3-1,0.5-1.4,0.7c-0.4,0.2-1,0.2-1.6,0.2
			c-0.5,0-1-0.1-1.4-0.2c-0.4-0.1-0.9-0.3-1.2-0.6c-0.5-0.3-0.9-0.8-1.2-1.4c-0.3-0.6-0.4-1.3-0.4-2.1c0-1.4,0.5-2.5,1.5-3.4
			s2.3-1.3,3.8-1.3c0.8,0,1.5,0.1,2.2,0.3s1.2,0.5,1.6,1c0.5,0.5,0.9,1.1,1.2,1.9C101,107.9,101.1,108.9,101.1,110z M97.7,109.5
			c0-0.7-0.1-1.3-0.2-1.8s-0.3-0.8-0.6-1.1c-0.2-0.2-0.4-0.3-0.6-0.4c-0.2-0.1-0.5-0.1-0.7-0.1c-0.2,0-0.4,0-0.7,0.1
			s-0.4,0.2-0.6,0.4c-0.2,0.2-0.3,0.4-0.4,0.7c-0.1,0.3-0.2,0.7-0.2,1.1c0,0.4,0.1,0.8,0.2,1c0.1,0.3,0.3,0.5,0.5,0.7
			c0.2,0.2,0.4,0.3,0.7,0.3s0.6,0.1,0.9,0.1c0.3,0,0.6,0,0.9-0.1c0.3-0.1,0.6-0.1,0.7-0.2c0-0.1,0-0.2,0-0.3
			C97.7,109.9,97.7,109.7,97.7,109.5z"/>
		<path class="st4" d="M113.4,117.3h-8.7V115h2.8v-6.9h-2.8v-2.1c0.4,0,0.8,0,1.2-0.1s0.7-0.1,1-0.3c0.3-0.1,0.5-0.3,0.7-0.6
			s0.2-0.5,0.3-0.9h2.9V115h2.7V117.3z"/>
		<path class="st4" d="M126.7,106.8l-5.9,10.5H117l6.2-10.6h-6.7v-2.5h10.3V106.8z"/>
	</g>
	<g>
		<path class="st5" d="M55.7,135.5c-0.6,0-1.1-0.1-1.6-0.2s-0.9-0.3-1.2-0.6c-0.3-0.3-0.6-0.6-0.8-1.1s-0.3-0.9-0.3-1.5
			c0-0.6,0.1-1.1,0.3-1.6s0.5-0.8,0.9-1.1c0.4-0.3,0.8-0.5,1.2-0.6s0.9-0.2,1.4-0.2c0.4,0,0.9,0,1.2,0.1s0.7,0.2,1.1,0.4v1.8h-0.3
			c-0.1-0.1-0.2-0.2-0.3-0.2s-0.3-0.2-0.4-0.3c-0.2-0.1-0.3-0.2-0.5-0.2c-0.2-0.1-0.4-0.1-0.7-0.1c-0.6,0-1,0.2-1.3,0.5
			c-0.3,0.4-0.5,0.8-0.5,1.5c0,0.6,0.2,1.1,0.5,1.4c0.3,0.3,0.8,0.5,1.3,0.5c0.3,0,0.5,0,0.7-0.1c0.2-0.1,0.4-0.1,0.5-0.2
			c0.1-0.1,0.2-0.2,0.4-0.2s0.2-0.2,0.3-0.3h0.3v1.8c-0.3,0.2-0.7,0.3-1,0.4S56.1,135.5,55.7,135.5z"/>
		<path class="st5" d="M61.7,135.3h-2.1v-9.1h2.1V135.3z"/>
		<path class="st5" d="M66.2,127.8h-2.2v-1.6h2.2V127.8z M66.1,135.3H64v-6.6h2.1V135.3z"/>
		<path class="st5" d="M74.9,132.4H70c0,0.5,0.2,0.9,0.6,1.2s0.9,0.4,1.6,0.4c0.4,0,0.9-0.1,1.3-0.2s0.7-0.3,1-0.5h0.2v1.7
			c-0.5,0.2-0.9,0.3-1.3,0.4s-0.9,0.1-1.4,0.1c-1.3,0-2.3-0.3-3-0.9s-1.1-1.4-1.1-2.5c0-1.1,0.3-1.9,1-2.6s1.6-1,2.7-1
			c1.1,0,1.9,0.3,2.4,0.8s0.8,1.3,0.8,2.3V132.4z M72.8,131.1c0-0.4-0.1-0.8-0.3-1s-0.5-0.3-1-0.3c-0.4,0-0.7,0.1-1,0.3
			s-0.4,0.5-0.4,1H72.8z"/>
		<path class="st5" d="M83.2,135.3h-2.1V132c0-0.3,0-0.5,0-0.8s-0.1-0.5-0.1-0.6c-0.1-0.1-0.2-0.2-0.3-0.3s-0.4-0.1-0.6-0.1
			c-0.2,0-0.4,0-0.6,0.1s-0.4,0.2-0.6,0.3v4.7h-2.1v-6.6h2.1v0.7c0.4-0.3,0.7-0.5,1.1-0.7c0.3-0.2,0.7-0.2,1.1-0.2
			c0.7,0,1.3,0.2,1.7,0.6c0.4,0.4,0.6,1,0.6,1.9V135.3z"/>
		<path class="st5" d="M89.7,135.2c-0.2,0.1-0.5,0.1-0.7,0.1s-0.6,0-0.9,0c-0.8,0-1.4-0.2-1.8-0.5s-0.6-0.9-0.6-1.7v-3.1h-0.9v-1.4
			h0.9v-1.9h2.1v1.9h2v1.4h-2v2.3c0,0.2,0,0.4,0,0.6c0,0.2,0,0.3,0.1,0.5c0.1,0.1,0.2,0.2,0.3,0.3s0.3,0.1,0.6,0.1
			c0.1,0,0.3,0,0.4-0.1c0.2,0,0.3-0.1,0.4-0.1h0.2V135.2z"/>
		<path class="st5" d="M97.7,132.4h-4.8c0,0.5,0.2,0.9,0.6,1.2s0.9,0.4,1.6,0.4c0.4,0,0.9-0.1,1.3-0.2s0.7-0.3,1-0.5h0.2v1.7
			c-0.5,0.2-0.9,0.3-1.3,0.4s-0.9,0.1-1.4,0.1c-1.3,0-2.3-0.3-3-0.9s-1.1-1.4-1.1-2.5c0-1.1,0.3-1.9,1-2.6s1.6-1,2.7-1
			c1.1,0,1.9,0.3,2.4,0.8s0.8,1.3,0.8,2.3V132.4z M95.6,131.1c0-0.4-0.1-0.8-0.3-1s-0.5-0.3-1-0.3c-0.4,0-0.7,0.1-1,0.3
			s-0.4,0.5-0.4,1H95.6z"/>
		<path class="st5" d="M105.2,133.2c0,0.7-0.3,1.2-0.9,1.6s-1.4,0.6-2.5,0.6c-0.6,0-1.1-0.1-1.6-0.2s-0.9-0.2-1.1-0.4v-1.7h0.2
			c0.1,0.1,0.2,0.2,0.4,0.2s0.3,0.2,0.6,0.3c0.2,0.1,0.5,0.2,0.7,0.2s0.6,0.1,0.9,0.1c0.4,0,0.7,0,0.9-0.1s0.3-0.2,0.3-0.4
			c0-0.2-0.1-0.3-0.2-0.3s-0.3-0.1-0.7-0.2c-0.2,0-0.4-0.1-0.6-0.1s-0.5-0.1-0.7-0.1c-0.6-0.2-1-0.4-1.3-0.7s-0.4-0.7-0.4-1.2
			c0-0.6,0.3-1.2,0.9-1.6s1.4-0.6,2.5-0.6c0.5,0,1,0,1.4,0.1s0.8,0.2,1.1,0.3v1.7h-0.2c-0.3-0.2-0.7-0.4-1.1-0.5s-0.8-0.2-1.2-0.2
			c-0.3,0-0.6,0-0.9,0.1s-0.3,0.2-0.3,0.4c0,0.2,0.1,0.3,0.2,0.4s0.4,0.2,0.7,0.2c0.2,0,0.4,0.1,0.7,0.1s0.5,0.1,0.7,0.2
			c0.6,0.1,1,0.4,1.2,0.7S105.2,132.7,105.2,133.2z"/>
		<path class="st5" d="M117.7,135.3h-2.1v-0.7c-0.4,0.3-0.7,0.5-1,0.7c-0.3,0.1-0.7,0.2-1.1,0.2c-0.8,0-1.4-0.3-1.9-0.9
			c-0.5-0.6-0.7-1.4-0.7-2.5c0-0.6,0.1-1.1,0.2-1.5s0.4-0.8,0.7-1.1c0.3-0.3,0.6-0.5,1-0.7c0.4-0.2,0.8-0.2,1.1-0.2
			c0.4,0,0.7,0,1,0.1c0.3,0.1,0.5,0.2,0.8,0.3v-2.8h2.1V135.3z M115.6,133.5v-3.2c-0.1-0.1-0.3-0.1-0.5-0.1c-0.2,0-0.3,0-0.5,0
			c-0.6,0-1,0.2-1.2,0.5c-0.3,0.3-0.4,0.8-0.4,1.4c0,0.6,0.1,1.1,0.3,1.4c0.2,0.3,0.6,0.4,1.1,0.4c0.2,0,0.4,0,0.6-0.1
			C115.2,133.7,115.4,133.6,115.6,133.5z"/>
		<path class="st5" d="M122.1,127.8h-2.2v-1.6h2.2V127.8z M122.1,135.3H120v-6.6h2.1V135.3z"/>
		<path class="st5" d="M130.1,133.2c0,0.7-0.3,1.2-0.9,1.6s-1.4,0.6-2.5,0.6c-0.6,0-1.1-0.1-1.6-0.2s-0.9-0.2-1.1-0.4v-1.7h0.2
			c0.1,0.1,0.2,0.2,0.4,0.2s0.3,0.2,0.6,0.3c0.2,0.1,0.5,0.2,0.7,0.2s0.6,0.1,0.9,0.1c0.4,0,0.7,0,0.9-0.1s0.3-0.2,0.3-0.4
			c0-0.2-0.1-0.3-0.2-0.3s-0.3-0.1-0.7-0.2c-0.2,0-0.4-0.1-0.6-0.1s-0.5-0.1-0.7-0.1c-0.6-0.2-1-0.4-1.3-0.7s-0.4-0.7-0.4-1.2
			c0-0.6,0.3-1.2,0.9-1.6s1.4-0.6,2.5-0.6c0.5,0,1,0,1.4,0.1s0.8,0.2,1.1,0.3v1.7h-0.2c-0.3-0.2-0.7-0.4-1.1-0.5s-0.8-0.2-1.2-0.2
			c-0.3,0-0.6,0-0.9,0.1s-0.3,0.2-0.3,0.4c0,0.2,0.1,0.3,0.2,0.4s0.4,0.2,0.7,0.2c0.2,0,0.4,0.1,0.7,0.1s0.5,0.1,0.7,0.2
			c0.6,0.1,1,0.4,1.2,0.7S130.1,132.7,130.1,133.2z"/>
		<path class="st5" d="M136,135.2c-0.2,0.1-0.5,0.1-0.7,0.1s-0.6,0-0.9,0c-0.8,0-1.4-0.2-1.8-0.5s-0.6-0.9-0.6-1.7v-3.1H131v-1.4
			h0.9v-1.9h2.1v1.9h2v1.4h-2v2.3c0,0.2,0,0.4,0,0.6c0,0.2,0,0.3,0.1,0.5c0.1,0.1,0.2,0.2,0.3,0.3s0.3,0.1,0.6,0.1
			c0.1,0,0.3,0,0.4-0.1c0.2,0,0.3-0.1,0.4-0.1h0.2V135.2z"/>
		<path class="st5" d="M142.3,130.7h-0.2c-0.1,0-0.2-0.1-0.4-0.1c-0.2,0-0.4,0-0.5,0c-0.3,0-0.6,0-0.8,0.1c-0.2,0-0.5,0.1-0.7,0.2
			v4.4h-2.1v-6.6h2.1v1c0.5-0.4,0.9-0.7,1.2-0.8c0.3-0.1,0.7-0.2,0.9-0.2c0.1,0,0.2,0,0.3,0s0.2,0,0.2,0V130.7z"/>
		<path class="st5" d="M146,127.8h-2.2v-1.6h2.2V127.8z M145.9,135.3h-2.1v-6.6h2.1V135.3z"/>
		<path class="st5" d="M155.1,131.9c0,1-0.3,1.9-0.9,2.5c-0.6,0.7-1.3,1-2.1,1c-0.4,0-0.7,0-1-0.1c-0.3-0.1-0.5-0.2-0.8-0.3
			l-0.1,0.3h-2v-9.1h2.1v3.2c0.3-0.3,0.7-0.5,1-0.6c0.3-0.2,0.7-0.2,1.2-0.2c0.8,0,1.5,0.3,1.9,0.9S155.1,130.8,155.1,131.9z
			 M152.9,131.9c0-0.6-0.1-1-0.3-1.4c-0.2-0.3-0.6-0.5-1.1-0.5c-0.2,0-0.4,0-0.6,0.1c-0.2,0.1-0.4,0.1-0.6,0.3v3.3
			c0.2,0.1,0.3,0.1,0.4,0.1c0.1,0,0.3,0,0.5,0c0.6,0,1-0.2,1.2-0.5C152.7,133.1,152.9,132.6,152.9,131.9z"/>
		<path class="st5" d="M163.4,135.3h-2.1v-0.7c-0.4,0.3-0.7,0.5-1.1,0.7c-0.3,0.2-0.7,0.2-1.2,0.2c-0.7,0-1.3-0.2-1.7-0.6
			c-0.4-0.4-0.6-1-0.6-1.9v-4.3h2.1v3.3c0,0.3,0,0.6,0,0.8s0.1,0.4,0.1,0.5c0.1,0.1,0.2,0.2,0.3,0.3s0.4,0.1,0.6,0.1
			c0.2,0,0.4,0,0.6-0.1s0.4-0.2,0.6-0.3v-4.7h2.1V135.3z"/>
		<path class="st5" d="M167.9,127.8h-2.2v-1.6h2.2V127.8z M167.8,135.3h-2.1v-6.6h2.1V135.3z"/>
		<path class="st5" d="M176.5,135.3h-2.1v-0.7c-0.4,0.3-0.7,0.5-1,0.7c-0.3,0.1-0.7,0.2-1.1,0.2c-0.8,0-1.4-0.3-1.9-0.9
			c-0.5-0.6-0.7-1.4-0.7-2.5c0-0.6,0.1-1.1,0.2-1.5s0.4-0.8,0.7-1.1c0.3-0.3,0.6-0.5,1-0.7c0.4-0.2,0.8-0.2,1.1-0.2
			c0.4,0,0.7,0,1,0.1c0.3,0.1,0.5,0.2,0.8,0.3v-2.8h2.1V135.3z M174.4,133.5v-3.2c-0.1-0.1-0.3-0.1-0.5-0.1c-0.2,0-0.3,0-0.5,0
			c-0.6,0-1,0.2-1.2,0.5c-0.3,0.3-0.4,0.8-0.4,1.4c0,0.6,0.1,1.1,0.3,1.4c0.2,0.3,0.6,0.4,1.1,0.4c0.2,0,0.4,0,0.6-0.1
			C174,133.7,174.2,133.6,174.4,133.5z"/>
		<path class="st5" d="M185.5,132c0,1.1-0.3,1.9-0.9,2.6s-1.5,0.9-2.7,0.9s-2-0.3-2.7-0.9s-0.9-1.5-0.9-2.6c0-1.1,0.3-1.9,1-2.6
			s1.5-0.9,2.7-0.9c1.1,0,2,0.3,2.7,0.9S185.5,130.9,185.5,132z M182.9,133.6c0.1-0.2,0.2-0.4,0.3-0.6s0.1-0.6,0.1-1
			c0-0.4,0-0.7-0.1-1s-0.2-0.5-0.3-0.6c-0.1-0.2-0.3-0.3-0.5-0.3s-0.4-0.1-0.6-0.1s-0.4,0-0.5,0.1s-0.3,0.2-0.5,0.3
			c-0.1,0.2-0.2,0.4-0.3,0.6s-0.1,0.6-0.1,1c0,0.4,0,0.7,0.1,0.9s0.2,0.5,0.3,0.6c0.1,0.2,0.3,0.3,0.4,0.3s0.4,0.1,0.6,0.1
			c0.2,0,0.4,0,0.5-0.1S182.8,133.7,182.9,133.6z"/>
		<path class="st5" d="M192.1,130.7h-0.2c-0.1,0-0.2-0.1-0.4-0.1c-0.2,0-0.4,0-0.5,0c-0.3,0-0.6,0-0.8,0.1c-0.2,0-0.5,0.1-0.7,0.2
			v4.4h-2.1v-6.6h2.1v1c0.5-0.4,0.9-0.7,1.2-0.8c0.3-0.1,0.7-0.2,0.9-0.2c0.1,0,0.2,0,0.3,0s0.2,0,0.2,0V130.7z"/>
		<path class="st5" d="M197.5,134.6c-0.1,0.1-0.3,0.2-0.4,0.3s-0.3,0.2-0.5,0.3c-0.2,0.1-0.4,0.2-0.6,0.2s-0.5,0.1-0.7,0.1
			c-0.6,0-1.1-0.2-1.6-0.6s-0.6-0.9-0.6-1.5c0-0.5,0.1-0.9,0.3-1.2s0.5-0.5,0.9-0.7c0.4-0.2,0.9-0.3,1.5-0.4s1.2-0.1,1.8-0.2v0
			c0-0.4-0.1-0.6-0.4-0.8s-0.7-0.2-1.3-0.2c-0.3,0-0.7,0.1-1.1,0.2s-0.7,0.2-0.8,0.3h-0.2v-1.6c0.2-0.1,0.6-0.1,1.1-0.2
			s1-0.1,1.5-0.1c1.2,0,2.1,0.2,2.6,0.6s0.8,0.9,0.8,1.7v4.5h-2.1V134.6z M197.5,133.6v-1.4c-0.3,0-0.6,0.1-0.9,0.1
			s-0.6,0.1-0.8,0.1c-0.2,0.1-0.4,0.2-0.5,0.3c-0.1,0.1-0.2,0.3-0.2,0.5c0,0.1,0,0.2,0,0.3c0,0.1,0.1,0.2,0.2,0.2
			c0.1,0.1,0.2,0.1,0.3,0.2s0.3,0.1,0.6,0.1c0.2,0,0.4,0,0.6-0.1C197.2,133.8,197.4,133.7,197.5,133.6z"/>
		<path class="st5" d="M207.6,133.2c0,0.7-0.3,1.2-0.9,1.6s-1.4,0.6-2.5,0.6c-0.6,0-1.1-0.1-1.6-0.2s-0.9-0.2-1.1-0.4v-1.7h0.2
			c0.1,0.1,0.2,0.2,0.4,0.2s0.3,0.2,0.6,0.3c0.2,0.1,0.5,0.2,0.7,0.2s0.6,0.1,0.9,0.1c0.4,0,0.7,0,0.9-0.1s0.3-0.2,0.3-0.4
			c0-0.2-0.1-0.3-0.2-0.3s-0.3-0.1-0.7-0.2c-0.2,0-0.4-0.1-0.6-0.1s-0.5-0.1-0.7-0.1c-0.6-0.2-1-0.4-1.3-0.7s-0.4-0.7-0.4-1.2
			c0-0.6,0.3-1.2,0.9-1.6s1.4-0.6,2.5-0.6c0.5,0,1,0,1.4,0.1s0.8,0.2,1.1,0.3v1.7h-0.2c-0.3-0.2-0.7-0.4-1.1-0.5s-0.8-0.2-1.2-0.2
			c-0.3,0-0.6,0-0.9,0.1s-0.3,0.2-0.3,0.4c0,0.2,0.1,0.3,0.2,0.4s0.4,0.2,0.7,0.2c0.2,0,0.4,0.1,0.7,0.1s0.5,0.1,0.7,0.2
			c0.6,0.1,1,0.4,1.2,0.7S207.6,132.7,207.6,133.2z"/>
	</g>
	<g>
		<path class="st5" d="M56.2,152.6c-0.1,0.1-0.3,0.2-0.4,0.3s-0.3,0.2-0.5,0.3c-0.2,0.1-0.4,0.2-0.6,0.2s-0.5,0.1-0.7,0.1
			c-0.6,0-1.1-0.2-1.6-0.6s-0.6-0.9-0.6-1.5c0-0.5,0.1-0.9,0.3-1.2s0.5-0.5,0.9-0.7c0.4-0.2,0.9-0.3,1.5-0.4s1.2-0.1,1.8-0.2v0
			c0-0.4-0.1-0.6-0.4-0.8S55,148,54.5,148c-0.3,0-0.7,0.1-1.1,0.2s-0.7,0.2-0.8,0.3h-0.2v-1.6c0.2-0.1,0.6-0.1,1.1-0.2
			s1-0.1,1.5-0.1c1.2,0,2.1,0.2,2.6,0.6s0.8,0.9,0.8,1.7v4.5h-2.1V152.6z M56.2,151.6v-1.4c-0.3,0-0.6,0.1-0.9,0.1s-0.6,0.1-0.8,0.1
			c-0.2,0.1-0.4,0.2-0.5,0.3c-0.1,0.1-0.2,0.3-0.2,0.5c0,0.1,0,0.2,0,0.3c0,0.1,0.1,0.2,0.2,0.2c0.1,0.1,0.2,0.1,0.3,0.2
			s0.3,0.1,0.6,0.1c0.2,0,0.4,0,0.6-0.1C55.9,151.8,56,151.7,56.2,151.6z"/>
		<path class="st5" d="M64,153.5c-0.6,0-1.1-0.1-1.6-0.2s-0.9-0.3-1.2-0.6c-0.3-0.3-0.6-0.6-0.8-1.1s-0.3-0.9-0.3-1.5
			c0-0.6,0.1-1.1,0.3-1.6s0.5-0.8,0.9-1.1c0.4-0.3,0.8-0.5,1.2-0.6s0.9-0.2,1.4-0.2c0.4,0,0.9,0,1.2,0.1s0.7,0.2,1.1,0.4v1.8h-0.3
			c-0.1-0.1-0.2-0.2-0.3-0.2s-0.3-0.2-0.4-0.3c-0.2-0.1-0.3-0.2-0.5-0.2c-0.2-0.1-0.4-0.1-0.7-0.1c-0.6,0-1,0.2-1.3,0.5
			c-0.3,0.4-0.5,0.8-0.5,1.5c0,0.6,0.2,1.1,0.5,1.4c0.3,0.3,0.8,0.5,1.3,0.5c0.3,0,0.5,0,0.7-0.1c0.2-0.1,0.4-0.1,0.5-0.2
			c0.1-0.1,0.2-0.2,0.4-0.2s0.2-0.2,0.3-0.3h0.3v1.8c-0.3,0.2-0.7,0.3-1,0.4S64.4,153.5,64,153.5z"/>
		<path class="st5" d="M72.1,153.2c-0.2,0.1-0.5,0.1-0.7,0.1s-0.6,0-0.9,0c-0.8,0-1.4-0.2-1.8-0.5S68,152,68,151.2v-3.1h-0.9v-1.4
			H68v-1.9h2.1v1.9h2v1.4h-2v2.3c0,0.2,0,0.4,0,0.6c0,0.2,0,0.3,0.1,0.5c0.1,0.1,0.2,0.2,0.3,0.3s0.3,0.1,0.6,0.1
			c0.1,0,0.3,0,0.4-0.1c0.2,0,0.3-0.1,0.4-0.1h0.2V153.2z"/>
		<path class="st5" d="M75.8,145.8h-2.2v-1.6h2.2V145.8z M75.8,153.3h-2.1v-6.6h2.1V153.3z"/>
		<path class="st5" d="M84.7,146.7l-2.5,6.6h-2.4l-2.5-6.6h2.2l1.5,4.5l1.5-4.5H84.7z"/>
		<path class="st5" d="M90.1,152.6c-0.1,0.1-0.3,0.2-0.4,0.3s-0.3,0.2-0.5,0.3c-0.2,0.1-0.4,0.2-0.6,0.2s-0.5,0.1-0.7,0.1
			c-0.6,0-1.1-0.2-1.6-0.6s-0.6-0.9-0.6-1.5c0-0.5,0.1-0.9,0.3-1.2s0.5-0.5,0.9-0.7c0.4-0.2,0.9-0.3,1.5-0.4s1.2-0.1,1.8-0.2v0
			c0-0.4-0.1-0.6-0.4-0.8S89,148,88.4,148c-0.3,0-0.7,0.1-1.1,0.2s-0.7,0.2-0.8,0.3h-0.2v-1.6c0.2-0.1,0.6-0.1,1.1-0.2
			s1-0.1,1.5-0.1c1.2,0,2.1,0.2,2.6,0.6s0.8,0.9,0.8,1.7v4.5h-2.1V152.6z M90.1,151.6v-1.4c-0.3,0-0.6,0.1-0.9,0.1s-0.6,0.1-0.8,0.1
			c-0.2,0.1-0.4,0.2-0.5,0.3c-0.1,0.1-0.2,0.3-0.2,0.5c0,0.1,0,0.2,0,0.3c0,0.1,0.1,0.2,0.2,0.2c0.1,0.1,0.2,0.1,0.3,0.2
			s0.3,0.1,0.6,0.1c0.2,0,0.4,0,0.6-0.1C89.8,151.8,90,151.7,90.1,151.6z"/>
		<path class="st5" d="M100.2,151.2c0,0.7-0.3,1.2-0.9,1.6s-1.4,0.6-2.5,0.6c-0.6,0-1.1-0.1-1.6-0.2s-0.9-0.2-1.1-0.4v-1.7h0.2
			c0.1,0.1,0.2,0.2,0.4,0.2s0.3,0.2,0.6,0.3c0.2,0.1,0.5,0.2,0.7,0.2s0.6,0.1,0.9,0.1c0.4,0,0.7,0,0.9-0.1s0.3-0.2,0.3-0.4
			c0-0.2-0.1-0.3-0.2-0.3s-0.3-0.1-0.7-0.2c-0.2,0-0.4-0.1-0.6-0.1s-0.5-0.1-0.7-0.1c-0.6-0.2-1-0.4-1.3-0.7s-0.4-0.7-0.4-1.2
			c0-0.6,0.3-1.2,0.9-1.6s1.4-0.6,2.5-0.6c0.5,0,1,0,1.4,0.1s0.8,0.2,1.1,0.3v1.7h-0.2c-0.3-0.2-0.7-0.4-1.1-0.5s-0.8-0.2-1.2-0.2
			c-0.3,0-0.6,0-0.9,0.1s-0.3,0.2-0.3,0.4c0,0.2,0.1,0.3,0.2,0.4s0.4,0.2,0.7,0.2c0.2,0,0.4,0.1,0.7,0.1s0.5,0.1,0.7,0.2
			c0.6,0.1,1,0.4,1.2,0.7S100.2,150.7,100.2,151.2z"/>
	</g>
	<g>
		<path class="st5" d="M112.7,155.7h-2.1v-3.1c-0.3,0.3-0.7,0.5-1,0.6s-0.7,0.2-1.1,0.2c-0.8,0-1.4-0.3-1.9-0.9
			c-0.5-0.6-0.7-1.4-0.7-2.5c0-0.6,0.1-1.1,0.2-1.5c0.2-0.4,0.4-0.8,0.7-1.1c0.3-0.3,0.6-0.5,1-0.7c0.4-0.2,0.8-0.2,1.1-0.2
			c0.4,0,0.7,0,0.9,0.1c0.3,0.1,0.5,0.2,0.8,0.3l0.1-0.3h2.1V155.7z M110.6,151.5v-3.2c-0.1-0.1-0.3-0.1-0.5-0.1s-0.3,0-0.5,0
			c-0.6,0-1,0.2-1.2,0.5c-0.3,0.3-0.4,0.8-0.4,1.4c0,0.6,0.1,1.1,0.3,1.4c0.2,0.3,0.6,0.4,1.1,0.4c0.2,0,0.4,0,0.6-0.1
			C110.2,151.7,110.4,151.6,110.6,151.5z"/>
		<path class="st5" d="M121.5,153.3h-2.1v-0.7c-0.4,0.3-0.7,0.5-1.1,0.7c-0.3,0.2-0.7,0.2-1.2,0.2c-0.7,0-1.3-0.2-1.7-0.6
			c-0.4-0.4-0.6-1-0.6-1.9v-4.3h2.1v3.3c0,0.3,0,0.6,0,0.8s0.1,0.4,0.1,0.5c0.1,0.1,0.2,0.2,0.3,0.3s0.4,0.1,0.6,0.1
			c0.2,0,0.4,0,0.6-0.1s0.4-0.2,0.6-0.3v-4.7h2.1V153.3z"/>
		<path class="st5" d="M130.3,150.4h-4.8c0,0.5,0.2,0.9,0.6,1.2s0.9,0.4,1.6,0.4c0.4,0,0.9-0.1,1.3-0.2s0.7-0.3,1-0.5h0.2v1.7
			c-0.5,0.2-0.9,0.3-1.3,0.4s-0.9,0.1-1.4,0.1c-1.3,0-2.3-0.3-3-0.9s-1.1-1.4-1.1-2.5c0-1.1,0.3-1.9,1-2.6s1.6-1,2.7-1
			c1.1,0,1.9,0.3,2.4,0.8s0.8,1.3,0.8,2.3V150.4z M128.2,149.1c0-0.4-0.1-0.8-0.3-1c-0.2-0.2-0.5-0.3-1-0.3c-0.4,0-0.7,0.1-1,0.3
			s-0.4,0.5-0.4,1H128.2z"/>
		<path class="st5" d="M140.5,152.6c-0.1,0.1-0.3,0.2-0.4,0.3s-0.3,0.2-0.5,0.3c-0.2,0.1-0.4,0.2-0.6,0.2s-0.5,0.1-0.7,0.1
			c-0.6,0-1.1-0.2-1.6-0.6s-0.6-0.9-0.6-1.5c0-0.5,0.1-0.9,0.3-1.2s0.5-0.5,0.9-0.7c0.4-0.2,0.9-0.3,1.5-0.4s1.2-0.1,1.8-0.2v0
			c0-0.4-0.1-0.6-0.4-0.8s-0.7-0.2-1.3-0.2c-0.3,0-0.7,0.1-1.1,0.2s-0.7,0.2-0.8,0.3h-0.2v-1.6c0.2-0.1,0.6-0.1,1.1-0.2
			s1-0.1,1.5-0.1c1.2,0,2.1,0.2,2.6,0.6s0.8,0.9,0.8,1.7v4.5h-2.1V152.6z M140.5,151.6v-1.4c-0.3,0-0.6,0.1-0.9,0.1
			s-0.6,0.1-0.8,0.1c-0.2,0.1-0.4,0.2-0.5,0.3c-0.1,0.1-0.2,0.3-0.2,0.5c0,0.1,0,0.2,0,0.3c0,0.1,0.1,0.2,0.2,0.2
			c0.1,0.1,0.2,0.1,0.3,0.2s0.3,0.1,0.6,0.1c0.2,0,0.4,0,0.6-0.1C140.1,151.8,140.3,151.7,140.5,151.6z"/>
		<path class="st5" d="M149,153.2c-0.2,0.1-0.5,0.1-0.7,0.1s-0.6,0-0.9,0c-0.8,0-1.4-0.2-1.8-0.5s-0.6-0.9-0.6-1.7v-3.1h-0.9v-1.4
			h0.9v-1.9h2.1v1.9h2v1.4h-2v2.3c0,0.2,0,0.4,0,0.6c0,0.2,0,0.3,0.1,0.5c0.1,0.1,0.2,0.2,0.3,0.3c0.1,0.1,0.3,0.1,0.6,0.1
			c0.1,0,0.3,0,0.4-0.1c0.2,0,0.3-0.1,0.4-0.1h0.2V153.2z"/>
		<path class="st5" d="M152.7,145.8h-2.2v-1.6h2.2V145.8z M152.7,153.3h-2.1v-6.6h2.1V153.3z"/>
		<path class="st5" d="M161.4,150.4h-4.8c0,0.5,0.2,0.9,0.6,1.2s0.9,0.4,1.6,0.4c0.4,0,0.9-0.1,1.3-0.2s0.7-0.3,1-0.5h0.2v1.7
			c-0.5,0.2-0.9,0.3-1.3,0.4s-0.9,0.1-1.4,0.1c-1.3,0-2.3-0.3-3-0.9s-1.1-1.4-1.1-2.5c0-1.1,0.3-1.9,1-2.6s1.6-1,2.7-1
			c1.1,0,1.9,0.3,2.4,0.8s0.8,1.3,0.8,2.3V150.4z M159.3,149.1c0-0.4-0.1-0.8-0.3-1s-0.5-0.3-1-0.3c-0.4,0-0.7,0.1-1,0.3
			s-0.4,0.5-0.4,1H159.3z"/>
		<path class="st5" d="M169.8,153.3h-2.1V150c0-0.3,0-0.5,0-0.8s-0.1-0.5-0.1-0.6c-0.1-0.1-0.2-0.2-0.3-0.3s-0.4-0.1-0.6-0.1
			c-0.2,0-0.4,0-0.6,0.1s-0.4,0.2-0.6,0.3v4.7h-2.1v-6.6h2.1v0.7c0.4-0.3,0.7-0.5,1.1-0.7c0.3-0.2,0.7-0.2,1.1-0.2
			c0.7,0,1.3,0.2,1.7,0.6c0.4,0.4,0.6,1,0.6,1.9V153.3z"/>
		<path class="st5" d="M178.5,153.3h-2.1v-0.7c-0.4,0.3-0.7,0.5-1,0.7c-0.3,0.1-0.7,0.2-1.1,0.2c-0.8,0-1.4-0.3-1.9-0.9
			c-0.5-0.6-0.7-1.4-0.7-2.5c0-0.6,0.1-1.1,0.2-1.5s0.4-0.8,0.7-1.1c0.3-0.3,0.6-0.5,1-0.7c0.4-0.2,0.8-0.2,1.1-0.2
			c0.4,0,0.7,0,1,0.1c0.3,0.1,0.5,0.2,0.8,0.3v-2.8h2.1V153.3z M176.3,151.5v-3.2c-0.1-0.1-0.3-0.1-0.5-0.1c-0.2,0-0.3,0-0.5,0
			c-0.6,0-1,0.2-1.2,0.5c-0.3,0.3-0.4,0.8-0.4,1.4c0,0.6,0.1,1.1,0.3,1.4c0.2,0.3,0.6,0.4,1.1,0.4c0.2,0,0.4,0,0.6-0.1
			C176,151.7,176.2,151.6,176.3,151.5z"/>
		<path class="st5" d="M187.2,150.4h-4.8c0,0.5,0.2,0.9,0.6,1.2s0.9,0.4,1.6,0.4c0.4,0,0.9-0.1,1.3-0.2s0.7-0.3,1-0.5h0.2v1.7
			c-0.5,0.2-0.9,0.3-1.3,0.4s-0.9,0.1-1.4,0.1c-1.3,0-2.3-0.3-3-0.9s-1.1-1.4-1.1-2.5c0-1.1,0.3-1.9,1-2.6s1.6-1,2.7-1
			c1.1,0,1.9,0.3,2.4,0.8s0.8,1.3,0.8,2.3V150.4z M185.1,149.1c0-0.4-0.1-0.8-0.3-1s-0.5-0.3-1-0.3c-0.4,0-0.7,0.1-1,0.3
			s-0.4,0.5-0.4,1H185.1z"/>
		<path class="st5" d="M195.6,153.3h-2.1V150c0-0.3,0-0.5,0-0.8s-0.1-0.5-0.1-0.6c-0.1-0.1-0.2-0.2-0.3-0.3s-0.4-0.1-0.6-0.1
			c-0.2,0-0.4,0-0.6,0.1s-0.4,0.2-0.6,0.3v4.7H189v-6.6h2.1v0.7c0.4-0.3,0.7-0.5,1.1-0.7c0.3-0.2,0.7-0.2,1.2-0.2
			c0.7,0,1.3,0.2,1.7,0.6c0.4,0.4,0.6,1,0.6,1.9V153.3z"/>
		<path class="st5" d="M206.2,152.6c-0.1,0.1-0.3,0.2-0.4,0.3s-0.3,0.2-0.5,0.3c-0.2,0.1-0.4,0.2-0.6,0.2s-0.5,0.1-0.7,0.1
			c-0.6,0-1.1-0.2-1.6-0.6s-0.6-0.9-0.6-1.5c0-0.5,0.1-0.9,0.3-1.2s0.5-0.5,0.9-0.7c0.4-0.2,0.9-0.3,1.5-0.4s1.2-0.1,1.8-0.2v0
			c0-0.4-0.1-0.6-0.4-0.8s-0.7-0.2-1.3-0.2c-0.3,0-0.7,0.1-1.1,0.2s-0.7,0.2-0.8,0.3h-0.2v-1.6c0.2-0.1,0.6-0.1,1.1-0.2
			s1-0.1,1.5-0.1c1.2,0,2.1,0.2,2.6,0.6s0.8,0.9,0.8,1.7v4.5h-2.1V152.6z M206.2,151.6v-1.4c-0.3,0-0.6,0.1-0.9,0.1
			s-0.6,0.1-0.8,0.1c-0.2,0.1-0.4,0.2-0.5,0.3c-0.1,0.1-0.2,0.3-0.2,0.5c0,0.1,0,0.2,0,0.3c0,0.1,0.1,0.2,0.2,0.2
			c0.1,0.1,0.2,0.1,0.3,0.2s0.3,0.1,0.6,0.1c0.2,0,0.4,0,0.6-0.1C205.9,151.8,206.1,151.7,206.2,151.6z"/>
	</g>
	<g>
		<path class="st4" d="M69,176.8c0,0.7-0.1,1.3-0.4,1.9s-0.6,1.1-1.1,1.5c-0.5,0.4-1.2,0.8-1.9,1c-0.7,0.2-1.5,0.3-2.4,0.3
			c-1,0-1.9-0.1-2.7-0.3c-0.7-0.2-1.3-0.3-1.8-0.5v-2.9h0.4c0.5,0.3,1.1,0.6,1.7,0.8s1.2,0.3,1.8,0.3c0.4,0,0.8,0,1.2-0.1
			c0.4-0.1,0.8-0.2,1-0.5c0.2-0.2,0.4-0.4,0.5-0.6s0.2-0.5,0.2-0.9c0-0.3-0.1-0.6-0.2-0.8c-0.1-0.2-0.3-0.4-0.5-0.5
			c-0.3-0.2-0.7-0.3-1.1-0.4c-0.4-0.1-0.8-0.1-1.2-0.1c-0.5,0-1,0-1.5,0.1c-0.5,0.1-0.9,0.2-1.3,0.3h-0.4v-7.4h9.3v2.5h-6.1v2.1
			c0.2,0,0.4,0,0.7,0c0.3,0,0.5,0,0.7,0c0.7,0,1.4,0.1,1.9,0.2s1.1,0.3,1.5,0.6c0.5,0.3,0.9,0.7,1.2,1.3C68.9,175.4,69,176,69,176.8
			z"/>
		<path class="st4" d="M80.8,175.1c0.3,0.2,0.5,0.5,0.7,0.9s0.3,0.8,0.3,1.3c0,0.6-0.1,1.2-0.4,1.7s-0.6,1-1.1,1.4
			c-0.5,0.4-1.1,0.7-1.7,0.8c-0.7,0.2-1.5,0.3-2.4,0.3c-1.1,0-2-0.1-2.8-0.3s-1.4-0.4-1.9-0.6v-2.9h0.3c0.5,0.3,1.1,0.6,1.8,0.8
			s1.3,0.3,1.9,0.3c0.3,0,0.7,0,1.1-0.1c0.4-0.1,0.7-0.2,1-0.4c0.2-0.1,0.4-0.3,0.5-0.5c0.1-0.2,0.2-0.5,0.2-0.9
			c0-0.4-0.1-0.7-0.3-0.9s-0.4-0.4-0.7-0.4c-0.3-0.1-0.6-0.1-1-0.2c-0.4,0-0.8,0-1.1,0h-0.7v-2.3h0.7c0.5,0,0.9,0,1.2,0
			s0.7-0.1,0.9-0.2c0.3-0.1,0.5-0.3,0.6-0.4c0.1-0.2,0.2-0.5,0.2-0.8c0-0.3-0.1-0.5-0.2-0.6c-0.1-0.2-0.3-0.3-0.5-0.4
			c-0.2-0.1-0.5-0.2-0.8-0.2s-0.6-0.1-0.8-0.1c-0.6,0-1.1,0.1-1.8,0.3s-1.3,0.5-1.9,0.8h-0.3v-2.8c0.5-0.2,1.1-0.4,2-0.6
			c0.8-0.2,1.7-0.3,2.5-0.3c0.8,0,1.5,0.1,2.2,0.2c0.6,0.1,1.1,0.3,1.5,0.6c0.5,0.3,0.8,0.6,1.1,1s0.4,0.9,0.4,1.4
			c0,0.7-0.2,1.4-0.7,1.9c-0.5,0.6-1,0.9-1.8,1.1v0.1c0.3,0,0.6,0.1,0.9,0.2S80.5,174.9,80.8,175.1z"/>
		<path class="st4" d="M94.8,174.7c0,1.1-0.1,2.1-0.3,3s-0.5,1.6-0.9,2.1c-0.4,0.6-1,1-1.7,1.3s-1.5,0.4-2.5,0.4
			c-1,0-1.8-0.1-2.5-0.4s-1.3-0.7-1.7-1.3c-0.4-0.6-0.7-1.3-0.9-2.1s-0.3-1.8-0.3-2.9c0-1.1,0.1-2.1,0.3-3c0.2-0.8,0.5-1.5,0.9-2.1
			c0.4-0.6,1-1,1.7-1.3s1.5-0.4,2.5-0.4c1,0,1.8,0.1,2.5,0.4s1.2,0.7,1.7,1.3c0.4,0.6,0.7,1.3,0.9,2.1
			C94.7,172.7,94.8,173.6,94.8,174.7z M91.4,174.7c0-1.6-0.2-2.7-0.5-3.4c-0.3-0.7-0.8-1-1.5-1s-1.2,0.3-1.5,1
			c-0.3,0.7-0.5,1.8-0.5,3.4c0,1.6,0.2,2.7,0.5,3.4s0.8,1,1.5,1s1.2-0.3,1.5-1S91.4,176.3,91.4,174.7z"/>
		<path class="st4" d="M101.2,177.8l-3.2,6.7h-2l1.7-6.7H101.2z"/>
		<path class="st4" d="M114.2,176.8c0,0.7-0.1,1.3-0.4,1.9s-0.6,1.1-1,1.5c-0.5,0.4-1,0.8-1.6,1s-1.4,0.3-2.2,0.3
			c-0.8,0-1.5-0.1-2.1-0.3c-0.6-0.2-1.2-0.5-1.7-1c-0.5-0.5-0.9-1.2-1.2-2s-0.4-1.7-0.4-2.9c0-1.1,0.1-2.2,0.4-3.1s0.7-1.7,1.3-2.4
			c0.6-0.7,1.3-1.2,2.2-1.5s2-0.5,3.3-0.5c0.4,0,0.9,0,1.4,0.1s0.8,0.1,1,0.1v2.6h-0.3c-0.2-0.1-0.4-0.2-0.8-0.3
			c-0.4-0.1-0.8-0.1-1.3-0.1c-1.1,0-2,0.3-2.6,0.8s-1,1.3-1.1,2.3c0.5-0.3,0.9-0.5,1.4-0.7c0.5-0.2,1-0.2,1.6-0.2
			c0.5,0,1,0.1,1.4,0.2s0.8,0.3,1.2,0.6c0.5,0.3,0.9,0.8,1.2,1.4S114.2,176,114.2,176.8z M110.2,178.8c0.2-0.2,0.3-0.4,0.4-0.7
			c0.1-0.3,0.2-0.6,0.2-1.1c0-0.4-0.1-0.8-0.2-1c-0.1-0.3-0.3-0.5-0.5-0.7c-0.2-0.2-0.5-0.3-0.7-0.3c-0.3-0.1-0.6-0.1-0.9-0.1
			c-0.3,0-0.5,0-0.8,0.1s-0.5,0.1-0.8,0.2c0,0.1,0,0.2,0,0.3s0,0.3,0,0.5c0,0.7,0.1,1.3,0.2,1.8c0.1,0.5,0.3,0.8,0.6,1.1
			c0.2,0.2,0.4,0.3,0.6,0.4s0.5,0.1,0.7,0.1c0.2,0,0.4,0,0.6-0.1S110,179,110.2,178.8z"/>
		<path class="st4" d="M126.7,176.8c0,0.7-0.1,1.3-0.4,1.9s-0.6,1.1-1.1,1.5c-0.5,0.4-1.2,0.8-1.9,1c-0.7,0.2-1.5,0.3-2.4,0.3
			c-1,0-1.9-0.1-2.7-0.3c-0.7-0.2-1.3-0.3-1.8-0.5v-2.9h0.4c0.5,0.3,1.1,0.6,1.7,0.8s1.2,0.3,1.8,0.3c0.4,0,0.8,0,1.2-0.1
			s0.8-0.2,1-0.5c0.2-0.2,0.4-0.4,0.5-0.6s0.2-0.5,0.2-0.9c0-0.3-0.1-0.6-0.2-0.8c-0.1-0.2-0.3-0.4-0.5-0.5
			c-0.3-0.2-0.7-0.3-1.1-0.4c-0.4-0.1-0.8-0.1-1.2-0.1c-0.5,0-1,0-1.5,0.1c-0.5,0.1-0.9,0.2-1.3,0.3H117v-7.4h9.3v2.5h-6.1v2.1
			c0.2,0,0.4,0,0.7,0c0.3,0,0.5,0,0.7,0c0.7,0,1.4,0.1,1.9,0.2s1.1,0.3,1.5,0.6c0.5,0.3,0.9,0.7,1.2,1.3
			C126.5,175.4,126.7,176,126.7,176.8z"/>
		<path class="st4" d="M139.8,176.8c0,0.7-0.1,1.3-0.4,1.9s-0.6,1.1-1,1.5c-0.5,0.4-1,0.8-1.6,1s-1.4,0.3-2.2,0.3
			c-0.8,0-1.5-0.1-2.1-0.3c-0.6-0.2-1.2-0.5-1.7-1c-0.5-0.5-0.9-1.2-1.2-2s-0.4-1.7-0.4-2.9c0-1.1,0.1-2.2,0.4-3.1s0.7-1.7,1.3-2.4
			c0.6-0.7,1.3-1.2,2.2-1.5s2-0.5,3.3-0.5c0.4,0,0.9,0,1.4,0.1s0.8,0.1,1,0.1v2.6h-0.3c-0.2-0.1-0.4-0.2-0.8-0.3
			c-0.4-0.1-0.8-0.1-1.3-0.1c-1.1,0-2,0.3-2.6,0.8s-1,1.3-1.1,2.3c0.5-0.3,0.9-0.5,1.4-0.7c0.5-0.2,1-0.2,1.6-0.2
			c0.5,0,1,0.1,1.4,0.2s0.8,0.3,1.2,0.6c0.5,0.3,0.9,0.8,1.2,1.4S139.8,176,139.8,176.8z M135.8,178.8c0.2-0.2,0.3-0.4,0.4-0.7
			c0.1-0.3,0.2-0.6,0.2-1.1c0-0.4-0.1-0.8-0.2-1c-0.1-0.3-0.3-0.5-0.5-0.7c-0.2-0.2-0.5-0.3-0.7-0.3c-0.3-0.1-0.6-0.1-0.9-0.1
			c-0.3,0-0.5,0-0.8,0.1s-0.5,0.1-0.8,0.2c0,0.1,0,0.2,0,0.3s0,0.3,0,0.5c0,0.7,0.1,1.3,0.2,1.8c0.1,0.5,0.3,0.8,0.6,1.1
			c0.2,0.2,0.4,0.3,0.6,0.4s0.5,0.1,0.7,0.1c0.2,0,0.4,0,0.6-0.1S135.6,179,135.8,178.8z"/>
	</g>
	<g>
		<path class="st5" d="M58.8,197.3h-2.1v-0.7c-0.4,0.3-0.7,0.5-1.1,0.7c-0.3,0.2-0.7,0.2-1.2,0.2c-0.7,0-1.3-0.2-1.7-0.6
			c-0.4-0.4-0.6-1-0.6-1.9v-4.3h2.1v3.3c0,0.3,0,0.6,0,0.8s0.1,0.4,0.1,0.5c0.1,0.1,0.2,0.2,0.3,0.3s0.4,0.1,0.6,0.1
			c0.2,0,0.4,0,0.6-0.1s0.4-0.2,0.6-0.3v-4.7h2.1V197.3z"/>
		<path class="st5" d="M66.8,195.2c0,0.7-0.3,1.2-0.9,1.6s-1.4,0.6-2.5,0.6c-0.6,0-1.1-0.1-1.6-0.2s-0.9-0.2-1.1-0.4v-1.7h0.2
			c0.1,0.1,0.2,0.2,0.4,0.2s0.3,0.2,0.6,0.3c0.2,0.1,0.5,0.2,0.7,0.2s0.6,0.1,0.9,0.1c0.4,0,0.7,0,0.9-0.1s0.3-0.2,0.3-0.4
			c0-0.2-0.1-0.3-0.2-0.3s-0.3-0.1-0.7-0.2c-0.2,0-0.4-0.1-0.6-0.1s-0.5-0.1-0.7-0.1c-0.6-0.2-1-0.4-1.3-0.7s-0.4-0.7-0.4-1.2
			c0-0.6,0.3-1.2,0.9-1.6s1.4-0.6,2.5-0.6c0.5,0,1,0,1.4,0.1s0.8,0.2,1.1,0.3v1.7h-0.2c-0.3-0.2-0.7-0.4-1.1-0.5s-0.8-0.2-1.2-0.2
			c-0.3,0-0.6,0-0.9,0.1s-0.3,0.2-0.3,0.4c0,0.2,0.1,0.3,0.2,0.4s0.4,0.2,0.7,0.2c0.2,0,0.4,0.1,0.7,0.1s0.5,0.1,0.7,0.2
			c0.6,0.1,1,0.4,1.2,0.7S66.8,194.7,66.8,195.2z"/>
		<path class="st5" d="M75,197.3h-2.1v-0.7c-0.4,0.3-0.7,0.5-1.1,0.7c-0.3,0.2-0.7,0.2-1.2,0.2c-0.7,0-1.3-0.2-1.7-0.6
			c-0.4-0.4-0.6-1-0.6-1.9v-4.3h2.1v3.3c0,0.3,0,0.6,0,0.8s0.1,0.4,0.1,0.5c0.1,0.1,0.2,0.2,0.3,0.3s0.4,0.1,0.6,0.1
			c0.2,0,0.4,0,0.6-0.1s0.4-0.2,0.6-0.3v-4.7H75V197.3z"/>
		<path class="st5" d="M81.3,196.6c-0.1,0.1-0.3,0.2-0.4,0.3s-0.3,0.2-0.5,0.3c-0.2,0.1-0.4,0.2-0.6,0.2s-0.5,0.1-0.7,0.1
			c-0.6,0-1.1-0.2-1.6-0.6s-0.6-0.9-0.6-1.5c0-0.5,0.1-0.9,0.3-1.2s0.5-0.5,0.9-0.7c0.4-0.2,0.9-0.3,1.5-0.4s1.2-0.1,1.8-0.2v0
			c0-0.4-0.1-0.6-0.4-0.8s-0.7-0.2-1.3-0.2c-0.3,0-0.7,0.1-1.1,0.2s-0.7,0.2-0.8,0.3h-0.2v-1.6c0.2-0.1,0.6-0.1,1.1-0.2
			s1-0.1,1.5-0.1c1.2,0,2.1,0.2,2.6,0.6s0.8,0.9,0.8,1.7v4.5h-2.1V196.6z M81.3,195.6v-1.4c-0.3,0-0.6,0.1-0.9,0.1s-0.6,0.1-0.8,0.1
			c-0.2,0.1-0.4,0.2-0.5,0.3c-0.1,0.1-0.2,0.3-0.2,0.5c0,0.1,0,0.2,0,0.3c0,0.1,0.1,0.2,0.2,0.2c0.1,0.1,0.2,0.1,0.3,0.2
			s0.3,0.1,0.6,0.1c0.2,0,0.4,0,0.6-0.1C80.9,195.8,81.1,195.7,81.3,195.6z"/>
		<path class="st5" d="M90.4,192.7h-0.2c-0.1,0-0.2-0.1-0.4-0.1c-0.2,0-0.4,0-0.5,0c-0.3,0-0.6,0-0.8,0.1c-0.2,0-0.5,0.1-0.7,0.2
			v4.4h-2.1v-6.6h2.1v1c0.5-0.4,0.9-0.7,1.2-0.8c0.3-0.1,0.7-0.2,0.9-0.2c0.1,0,0.2,0,0.3,0s0.2,0,0.2,0V192.7z"/>
		<path class="st5" d="M94,189.8h-2.2v-1.6H94V189.8z M94,197.3h-2.1v-6.6H94V197.3z"/>
		<path class="st5" d="M103,194c0,1.1-0.3,1.9-0.9,2.6s-1.5,0.9-2.7,0.9s-2-0.3-2.7-0.9s-0.9-1.5-0.9-2.6c0-1.1,0.3-1.9,1-2.6
			s1.5-0.9,2.7-0.9c1.1,0,2,0.3,2.7,0.9S103,192.9,103,194z M100.4,195.6c0.1-0.2,0.2-0.4,0.3-0.6s0.1-0.6,0.1-1c0-0.4,0-0.7-0.1-1
			s-0.2-0.5-0.3-0.6c-0.1-0.2-0.3-0.3-0.5-0.3s-0.4-0.1-0.6-0.1s-0.4,0-0.5,0.1s-0.3,0.2-0.5,0.3c-0.1,0.2-0.2,0.4-0.3,0.6
			s-0.1,0.6-0.1,1c0,0.4,0,0.7,0.1,0.9s0.2,0.5,0.3,0.6c0.1,0.2,0.3,0.3,0.4,0.3s0.4,0.1,0.6,0.1c0.2,0,0.4,0,0.5-0.1
			S100.3,195.7,100.4,195.6z"/>
		<path class="st5" d="M110.5,195.2c0,0.7-0.3,1.2-0.9,1.6s-1.4,0.6-2.5,0.6c-0.6,0-1.1-0.1-1.6-0.2s-0.9-0.2-1.1-0.4v-1.7h0.2
			c0.1,0.1,0.2,0.2,0.4,0.2s0.3,0.2,0.6,0.3c0.2,0.1,0.5,0.2,0.7,0.2s0.6,0.1,0.9,0.1c0.4,0,0.7,0,0.9-0.1s0.3-0.2,0.3-0.4
			c0-0.2-0.1-0.3-0.2-0.3s-0.3-0.1-0.7-0.2c-0.2,0-0.4-0.1-0.6-0.1s-0.5-0.1-0.7-0.1c-0.6-0.2-1-0.4-1.3-0.7s-0.4-0.7-0.4-1.2
			c0-0.6,0.3-1.2,0.9-1.6s1.4-0.6,2.5-0.6c0.5,0,1,0,1.4,0.1s0.8,0.2,1.1,0.3v1.7h-0.2c-0.3-0.2-0.7-0.4-1.1-0.5s-0.8-0.2-1.2-0.2
			c-0.3,0-0.6,0-0.9,0.1s-0.3,0.2-0.3,0.4c0,0.2,0.1,0.3,0.2,0.4s0.4,0.2,0.7,0.2c0.2,0,0.4,0.1,0.7,0.1s0.5,0.1,0.7,0.2
			c0.6,0.1,1,0.4,1.2,0.7S110.5,194.7,110.5,195.2z"/>
	</g>
	<g>
		<path class="st4" d="M69.2,235.9c0,1-0.4,1.8-1.2,2.5s-1.9,1.1-3.3,1.2v3.2h-1.5v-3.1c-0.7,0-1.4-0.1-2.3-0.2s-1.5-0.3-2-0.6v-2.6
			h0.4c0.5,0.3,1.2,0.5,1.9,0.7s1.4,0.3,2.1,0.3V235l-0.9-0.2c-0.5-0.1-1-0.3-1.5-0.4s-0.8-0.4-1.2-0.7s-0.6-0.6-0.8-1
			c-0.2-0.4-0.3-0.9-0.3-1.5c0-0.9,0.4-1.6,1.2-2.2s1.9-1,3.3-1.1v-2h1.5v2c0.5,0,1.2,0.1,1.9,0.2s1.3,0.3,1.7,0.4v2.5h-0.4
			c-0.4-0.2-0.9-0.4-1.5-0.6s-1.1-0.3-1.8-0.3v2.2l0.7,0.1c1.3,0.3,2.3,0.6,2.9,1.2S69.2,235,69.2,235.9z M63.2,232.2v-2
			c-0.4,0-0.7,0.1-1,0.3c-0.3,0.2-0.5,0.4-0.5,0.7c0,0.3,0.1,0.5,0.3,0.6S62.6,232.1,63.2,232.2z M66,236.2c0-0.3-0.2-0.6-0.5-0.8
			c-0.3-0.2-0.6-0.3-0.9-0.3v2.2c0.4-0.1,0.7-0.2,1-0.3C65.8,236.8,66,236.6,66,236.2z"/>
		<path class="st4" d="M82.1,239.7H71.8v-2.2c0.8-0.6,1.6-1.2,2.4-1.8s1.4-1.2,1.9-1.7c0.7-0.7,1.2-1.3,1.5-1.8s0.4-1,0.4-1.5
			c0-0.6-0.2-1.1-0.6-1.4c-0.4-0.3-0.9-0.5-1.7-0.5c-0.5,0-1.1,0.1-1.7,0.3s-1.1,0.5-1.7,0.9h-0.3v-2.9c0.4-0.2,1-0.4,1.8-0.5
			s1.6-0.3,2.4-0.3c1.6,0,2.9,0.3,3.8,1s1.3,1.7,1.3,2.9c0,0.8-0.2,1.6-0.6,2.4s-1,1.5-1.9,2.3c-0.5,0.5-1.1,0.9-1.6,1.4
			c-0.5,0.4-0.9,0.7-1.2,0.9h5.9V239.7z"/>
		<path class="st4" d="M88.4,236.2l-3.2,6.7h-2l1.7-6.7H88.4z"/>
		<path class="st4" d="M101.4,239.7H91.1v-2.2c0.8-0.6,1.6-1.2,2.4-1.8s1.4-1.2,1.9-1.7c0.7-0.7,1.2-1.3,1.5-1.8s0.4-1,0.4-1.5
			c0-0.6-0.2-1.1-0.6-1.4c-0.4-0.3-0.9-0.5-1.7-0.5c-0.5,0-1.1,0.1-1.7,0.3s-1.1,0.5-1.7,0.9h-0.3v-2.9c0.4-0.2,1-0.4,1.8-0.5
			s1.6-0.3,2.4-0.3c1.6,0,2.9,0.3,3.8,1s1.3,1.7,1.3,2.9c0,0.8-0.2,1.6-0.6,2.4s-1,1.5-1.9,2.3c-0.5,0.5-1.1,0.9-1.6,1.4
			c-0.5,0.4-0.9,0.7-1.2,0.9h5.9V239.7z"/>
		<path class="st4" d="M114.4,236.7h-1.8v3h-3.2v-3H103v-2.5l6.1-7.6h3.4v7.7h1.8V236.7z M109.4,234.3v-4.7l-3.8,4.7H109.4z"/>
		<path class="st4" d="M127,236c0,1.2-0.5,2.1-1.5,2.8s-2.3,1.1-4.1,1.1c-1,0-1.8-0.1-2.5-0.3s-1.3-0.5-1.7-0.8
			c-0.4-0.3-0.8-0.8-1-1.2s-0.3-1-0.3-1.5c0-0.7,0.2-1.2,0.6-1.7s1-1,2-1.3V233c-0.8-0.4-1.3-0.8-1.7-1.3s-0.5-1.2-0.5-1.9
			c0-1,0.5-1.9,1.4-2.5s2.2-1,3.8-1c1.6,0,2.9,0.3,3.8,0.9s1.4,1.4,1.4,2.4c0,0.6-0.2,1.2-0.6,1.7s-1,0.9-1.8,1.2v0.1
			c0.9,0.3,1.6,0.8,2,1.4S127,235.2,127,236z M123.6,236.2c0-0.4-0.1-0.7-0.3-1s-0.6-0.5-1.3-0.7c-0.2-0.1-0.5-0.2-0.8-0.3
			s-0.7-0.2-0.9-0.3c-0.3,0.2-0.5,0.5-0.7,0.8c-0.2,0.3-0.3,0.7-0.3,1.1c0,0.6,0.2,1.1,0.7,1.5c0.4,0.4,1,0.5,1.7,0.5
			c0.2,0,0.4,0,0.7-0.1c0.3-0.1,0.5-0.1,0.7-0.3c0.2-0.1,0.4-0.3,0.5-0.5S123.6,236.5,123.6,236.2z M123.4,230
			c0-0.4-0.2-0.8-0.5-1.1s-0.8-0.4-1.4-0.4c-0.2,0-0.4,0-0.6,0.1s-0.4,0.1-0.6,0.2c-0.2,0.1-0.3,0.2-0.4,0.4s-0.2,0.3-0.2,0.5
			c0,0.3,0.1,0.6,0.3,0.8s0.5,0.4,1,0.6c0.2,0.1,0.4,0.2,0.7,0.3s0.6,0.2,1,0.3c0.3-0.3,0.5-0.6,0.6-0.9S123.4,230.3,123.4,230z"/>
	</g>
	<g>
		<path class="st5" d="M58.7,252.6v4.7h-2.1V254c0-0.3,0-0.6,0-0.8s-0.1-0.4-0.1-0.5s-0.2-0.2-0.3-0.3s-0.3-0.1-0.6-0.1
			c-0.2,0-0.4,0-0.6,0.1s-0.4,0.2-0.5,0.3v4.7h-2.1v-6.6h2.1v0.7c0.4-0.3,0.7-0.5,1-0.7c0.3-0.2,0.7-0.2,1.1-0.2
			c0.4,0,0.8,0.1,1.1,0.3s0.6,0.5,0.8,0.9c0.4-0.4,0.8-0.6,1.2-0.8c0.4-0.2,0.8-0.3,1.2-0.3c0.7,0,1.2,0.2,1.6,0.6s0.6,1,0.6,1.8
			v4.3h-2.1V254c0-0.3,0-0.6,0-0.8s-0.1-0.4-0.1-0.5c-0.1-0.1-0.2-0.2-0.3-0.3s-0.3-0.1-0.6-0.1c-0.2,0-0.3,0-0.5,0.1
			S58.9,252.5,58.7,252.6z"/>
		<path class="st5" d="M67.4,249.8h-2.2v-1.6h2.2V249.8z M67.3,257.3h-2.1v-6.6h2.1V257.3z"/>
		<path class="st5" d="M71.7,257.3h-2.1v-9.1h2.1V257.3z"/>
		<path class="st5" d="M76.1,257.3H74v-9.1h2.1V257.3z"/>
		<path class="st5" d="M85.1,254c0,1.1-0.3,1.9-0.9,2.6s-1.5,0.9-2.7,0.9s-2-0.3-2.7-0.9s-0.9-1.5-0.9-2.6c0-1.1,0.3-1.9,1-2.6
			s1.5-0.9,2.7-0.9c1.1,0,2,0.3,2.7,0.9S85.1,252.9,85.1,254z M82.5,255.6c0.1-0.2,0.2-0.4,0.3-0.6s0.1-0.6,0.1-1c0-0.4,0-0.7-0.1-1
			s-0.2-0.5-0.3-0.6c-0.1-0.2-0.3-0.3-0.5-0.3s-0.4-0.1-0.6-0.1s-0.4,0-0.5,0.1s-0.3,0.2-0.5,0.3c-0.1,0.2-0.2,0.4-0.3,0.6
			s-0.1,0.6-0.1,1c0,0.4,0,0.7,0.1,0.9s0.2,0.5,0.3,0.6c0.1,0.2,0.3,0.3,0.4,0.3s0.4,0.1,0.6,0.1c0.2,0,0.4,0,0.5-0.1
			S82.4,255.7,82.5,255.6z"/>
		<path class="st5" d="M93.6,257.3h-2.1V254c0-0.3,0-0.5,0-0.8s-0.1-0.5-0.1-0.6c-0.1-0.1-0.2-0.2-0.3-0.3s-0.4-0.1-0.6-0.1
			c-0.2,0-0.4,0-0.6,0.1s-0.4,0.2-0.6,0.3v4.7H87v-6.6h2.1v0.7c0.4-0.3,0.7-0.5,1.1-0.7c0.3-0.2,0.7-0.2,1.2-0.2
			c0.7,0,1.3,0.2,1.7,0.6c0.4,0.4,0.6,1,0.6,1.9V257.3z"/>
		<path class="st5" d="M102.3,254.4h-4.8c0,0.5,0.2,0.9,0.6,1.2s0.9,0.4,1.6,0.4c0.4,0,0.9-0.1,1.3-0.2s0.7-0.3,1-0.5h0.2v1.7
			c-0.5,0.2-0.9,0.3-1.3,0.4s-0.9,0.1-1.4,0.1c-1.3,0-2.3-0.3-3-0.9s-1.1-1.4-1.1-2.5c0-1.1,0.3-1.9,1-2.6s1.6-1,2.7-1
			c1.1,0,1.9,0.3,2.4,0.8s0.8,1.3,0.8,2.3V254.4z M100.2,253.1c0-0.4-0.1-0.8-0.3-1s-0.5-0.3-1-0.3c-0.4,0-0.7,0.1-1,0.3
			s-0.4,0.5-0.4,1H100.2z"/>
		<path class="st5" d="M109.8,255.2c0,0.7-0.3,1.2-0.9,1.6s-1.4,0.6-2.5,0.6c-0.6,0-1.1-0.1-1.6-0.2s-0.9-0.2-1.1-0.4v-1.7h0.2
			c0.1,0.1,0.2,0.2,0.4,0.2s0.3,0.2,0.6,0.3c0.2,0.1,0.5,0.2,0.7,0.2s0.6,0.1,0.9,0.1c0.4,0,0.7,0,0.9-0.1s0.3-0.2,0.3-0.4
			c0-0.2-0.1-0.3-0.2-0.3s-0.3-0.1-0.7-0.2c-0.2,0-0.4-0.1-0.6-0.1s-0.5-0.1-0.7-0.1c-0.6-0.2-1-0.4-1.3-0.7s-0.4-0.7-0.4-1.2
			c0-0.6,0.3-1.2,0.9-1.6s1.4-0.6,2.5-0.6c0.5,0,1,0,1.4,0.1s0.8,0.2,1.1,0.3v1.7h-0.2c-0.3-0.2-0.7-0.4-1.1-0.5s-0.8-0.2-1.2-0.2
			c-0.3,0-0.6,0-0.9,0.1s-0.3,0.2-0.3,0.4c0,0.2,0.1,0.3,0.2,0.4s0.4,0.2,0.7,0.2c0.2,0,0.4,0.1,0.7,0.1s0.5,0.1,0.7,0.2
			c0.6,0.1,1,0.4,1.2,0.7S109.8,254.7,109.8,255.2z"/>
		<path class="st5" d="M122.3,257.3h-2.1v-0.7c-0.4,0.3-0.7,0.5-1,0.7s-0.7,0.2-1.1,0.2c-0.8,0-1.4-0.3-1.9-0.9
			c-0.5-0.6-0.7-1.4-0.7-2.5c0-0.6,0.1-1.1,0.2-1.5c0.2-0.4,0.4-0.8,0.7-1.1c0.3-0.3,0.6-0.5,1-0.7c0.4-0.2,0.8-0.2,1.1-0.2
			c0.4,0,0.7,0,1,0.1c0.3,0.1,0.5,0.2,0.8,0.3v-2.8h2.1V257.3z M120.1,255.5v-3.2c-0.1-0.1-0.3-0.1-0.5-0.1s-0.3,0-0.5,0
			c-0.6,0-1,0.2-1.2,0.5c-0.3,0.3-0.4,0.8-0.4,1.4c0,0.6,0.1,1.1,0.3,1.4c0.2,0.3,0.6,0.4,1.1,0.4c0.2,0,0.4,0,0.6-0.1
			C119.8,255.7,120,255.6,120.1,255.5z"/>
		<path class="st5" d="M131,254.4h-4.8c0,0.5,0.2,0.9,0.6,1.2s0.9,0.4,1.6,0.4c0.4,0,0.9-0.1,1.3-0.2s0.7-0.3,1-0.5h0.2v1.7
			c-0.5,0.2-0.9,0.3-1.3,0.4s-0.9,0.1-1.4,0.1c-1.3,0-2.3-0.3-3-0.9s-1.1-1.4-1.1-2.5c0-1.1,0.3-1.9,1-2.6s1.6-1,2.7-1
			c1.1,0,1.9,0.3,2.4,0.8s0.8,1.3,0.8,2.3V254.4z M128.9,253.1c0-0.4-0.1-0.8-0.3-1s-0.5-0.3-1-0.3c-0.4,0-0.7,0.1-1,0.3
			s-0.4,0.5-0.4,1H128.9z"/>
		<path class="st5" d="M144.1,253.9c0,0.5-0.1,1-0.2,1.5s-0.4,0.8-0.7,1.1c-0.3,0.3-0.6,0.5-1,0.7c-0.4,0.2-0.7,0.2-1.1,0.2
			c-0.4,0-0.7,0-1-0.1c-0.3-0.1-0.5-0.2-0.8-0.3v2.7h-2.1v-9h2.1v0.7c0.3-0.3,0.7-0.5,1-0.6c0.3-0.2,0.7-0.2,1.2-0.2
			c0.8,0,1.5,0.3,1.9,0.9C143.8,252,144.1,252.8,144.1,253.9z M141.9,253.9c0-0.6-0.1-1.1-0.3-1.4c-0.2-0.3-0.6-0.4-1-0.4
			c-0.2,0-0.4,0-0.6,0.1c-0.2,0.1-0.4,0.1-0.6,0.3v3.3c0.1,0.1,0.3,0.1,0.5,0.1c0.2,0,0.3,0,0.5,0c0.6,0,1-0.2,1.2-0.5
			C141.8,255.1,141.9,254.6,141.9,253.9z"/>
		<path class="st5" d="M152.4,254.4h-4.8c0,0.5,0.2,0.9,0.6,1.2s0.9,0.4,1.6,0.4c0.4,0,0.9-0.1,1.3-0.2s0.7-0.3,1-0.5h0.2v1.7
			c-0.5,0.2-0.9,0.3-1.3,0.4s-0.9,0.1-1.4,0.1c-1.3,0-2.3-0.3-3-0.9s-1.1-1.4-1.1-2.5c0-1.1,0.3-1.9,1-2.6s1.6-1,2.7-1
			c1.1,0,1.9,0.3,2.4,0.8s0.8,1.3,0.8,2.3V254.4z M150.3,253.1c0-0.4-0.1-0.8-0.3-1s-0.5-0.3-1-0.3c-0.4,0-0.7,0.1-1,0.3
			s-0.4,0.5-0.4,1H150.3z"/>
		<path class="st5" d="M159.8,255.2c0,0.7-0.3,1.2-0.9,1.6s-1.4,0.6-2.5,0.6c-0.6,0-1.1-0.1-1.6-0.2s-0.9-0.2-1.1-0.4v-1.7h0.2
			c0.1,0.1,0.2,0.2,0.4,0.2s0.3,0.2,0.6,0.3c0.2,0.1,0.5,0.2,0.7,0.2s0.6,0.1,0.9,0.1c0.4,0,0.7,0,0.9-0.1s0.3-0.2,0.3-0.4
			c0-0.2-0.1-0.3-0.2-0.3s-0.3-0.1-0.7-0.2c-0.2,0-0.4-0.1-0.6-0.1s-0.5-0.1-0.7-0.1c-0.6-0.2-1-0.4-1.3-0.7s-0.4-0.7-0.4-1.2
			c0-0.6,0.3-1.2,0.9-1.6s1.4-0.6,2.5-0.6c0.5,0,1,0,1.4,0.1s0.8,0.2,1.1,0.3v1.7h-0.2c-0.3-0.2-0.7-0.4-1.1-0.5s-0.8-0.2-1.2-0.2
			c-0.3,0-0.6,0-0.9,0.1s-0.3,0.2-0.3,0.4c0,0.2,0.1,0.3,0.2,0.4s0.4,0.2,0.7,0.2c0.2,0,0.4,0.1,0.7,0.1s0.5,0.1,0.7,0.2
			c0.6,0.1,1,0.4,1.2,0.7S159.8,254.7,159.8,255.2z"/>
		<path class="st5" d="M168.3,254c0,1.1-0.3,1.9-0.9,2.6s-1.5,0.9-2.7,0.9s-2-0.3-2.7-0.9s-0.9-1.5-0.9-2.6c0-1.1,0.3-1.9,1-2.6
			s1.5-0.9,2.7-0.9c1.1,0,2,0.3,2.7,0.9S168.3,252.9,168.3,254z M165.7,255.6c0.1-0.2,0.2-0.4,0.3-0.6s0.1-0.6,0.1-1
			c0-0.4,0-0.7-0.1-1s-0.2-0.5-0.3-0.6c-0.1-0.2-0.3-0.3-0.5-0.3s-0.4-0.1-0.6-0.1s-0.4,0-0.5,0.1s-0.3,0.2-0.5,0.3
			c-0.1,0.2-0.2,0.4-0.3,0.6s-0.1,0.6-0.1,1c0,0.4,0,0.7,0.1,0.9s0.2,0.5,0.3,0.6c0.1,0.2,0.3,0.3,0.4,0.3s0.4,0.1,0.6,0.1
			c0.2,0,0.4,0,0.5-0.1S165.5,255.7,165.7,255.6z"/>
		<path class="st5" d="M175.8,255.2c0,0.7-0.3,1.2-0.9,1.6s-1.4,0.6-2.5,0.6c-0.6,0-1.1-0.1-1.6-0.2s-0.9-0.2-1.1-0.4v-1.7h0.2
			c0.1,0.1,0.2,0.2,0.4,0.2s0.3,0.2,0.6,0.3c0.2,0.1,0.5,0.2,0.7,0.2s0.6,0.1,0.9,0.1c0.4,0,0.7,0,0.9-0.1s0.3-0.2,0.3-0.4
			c0-0.2-0.1-0.3-0.2-0.3s-0.3-0.1-0.7-0.2c-0.2,0-0.4-0.1-0.6-0.1s-0.5-0.1-0.7-0.1c-0.6-0.2-1-0.4-1.3-0.7s-0.4-0.7-0.4-1.2
			c0-0.6,0.3-1.2,0.9-1.6s1.4-0.6,2.5-0.6c0.5,0,1,0,1.4,0.1s0.8,0.2,1.1,0.3v1.7h-0.2c-0.3-0.2-0.7-0.4-1.1-0.5s-0.8-0.2-1.2-0.2
			c-0.3,0-0.6,0-0.9,0.1s-0.3,0.2-0.3,0.4c0,0.2,0.1,0.3,0.2,0.4s0.4,0.2,0.7,0.2c0.2,0,0.4,0.1,0.7,0.1s0.5,0.1,0.7,0.2
			c0.6,0.1,1,0.4,1.2,0.7S175.8,254.7,175.8,255.2z"/>
		<path class="st5" d="M185.3,257.5c-0.6,0-1.1-0.1-1.6-0.2s-0.9-0.3-1.2-0.6c-0.3-0.3-0.6-0.6-0.8-1.1s-0.3-0.9-0.3-1.5
			c0-0.6,0.1-1.1,0.3-1.6s0.5-0.8,0.9-1.1c0.4-0.3,0.8-0.5,1.2-0.6s0.9-0.2,1.4-0.2c0.4,0,0.9,0,1.2,0.1s0.7,0.2,1.1,0.4v1.8h-0.3
			c-0.1-0.1-0.2-0.2-0.3-0.2c-0.1-0.1-0.3-0.2-0.4-0.3c-0.2-0.1-0.3-0.2-0.5-0.2s-0.4-0.1-0.7-0.1c-0.6,0-1,0.2-1.3,0.5
			s-0.5,0.8-0.5,1.5c0,0.6,0.2,1.1,0.5,1.4s0.8,0.5,1.3,0.5c0.3,0,0.5,0,0.7-0.1s0.4-0.1,0.5-0.2c0.1-0.1,0.2-0.2,0.4-0.2
			c0.1-0.1,0.2-0.2,0.3-0.3h0.3v1.8c-0.3,0.2-0.7,0.3-1,0.4S185.7,257.5,185.3,257.5z"/>
		<path class="st5" d="M193.2,256.6c-0.1,0.1-0.3,0.2-0.4,0.3s-0.3,0.2-0.5,0.3c-0.2,0.1-0.4,0.2-0.6,0.2s-0.5,0.1-0.7,0.1
			c-0.6,0-1.1-0.2-1.6-0.6s-0.6-0.9-0.6-1.5c0-0.5,0.1-0.9,0.3-1.2s0.5-0.5,0.9-0.7c0.4-0.2,0.9-0.3,1.5-0.4s1.2-0.1,1.8-0.2v0
			c0-0.4-0.1-0.6-0.4-0.8s-0.7-0.2-1.3-0.2c-0.3,0-0.7,0.1-1.1,0.2s-0.7,0.2-0.8,0.3h-0.2v-1.6c0.2-0.1,0.6-0.1,1.1-0.2
			s1-0.1,1.5-0.1c1.2,0,2.1,0.2,2.6,0.6s0.8,0.9,0.8,1.7v4.5h-2.1V256.6z M193.2,255.6v-1.4c-0.3,0-0.6,0.1-0.9,0.1
			s-0.6,0.1-0.8,0.1c-0.2,0.1-0.4,0.2-0.5,0.3c-0.1,0.1-0.2,0.3-0.2,0.5c0,0.1,0,0.2,0,0.3c0,0.1,0.1,0.2,0.2,0.2
			c0.1,0.1,0.2,0.1,0.3,0.2s0.3,0.1,0.6,0.1c0.2,0,0.4,0,0.6-0.1C192.9,255.8,193.1,255.7,193.2,255.6z"/>
		<path class="st5" d="M202.3,252.7h-0.2c-0.1,0-0.2-0.1-0.4-0.1c-0.2,0-0.4,0-0.5,0c-0.3,0-0.6,0-0.8,0.1c-0.2,0-0.5,0.1-0.7,0.2
			v4.4h-2.1v-6.6h2.1v1c0.5-0.4,0.9-0.7,1.2-0.8c0.3-0.1,0.7-0.2,0.9-0.2c0.1,0,0.2,0,0.3,0s0.2,0,0.2,0V252.7z"/>
		<path class="st5" d="M208,257.2c-0.2,0.1-0.5,0.1-0.7,0.1s-0.6,0-0.9,0c-0.8,0-1.4-0.2-1.8-0.5s-0.6-0.9-0.6-1.7v-3.1h-0.9v-1.4
			h0.9v-1.9h2.1v1.9h2v1.4h-2v2.3c0,0.2,0,0.4,0,0.6c0,0.2,0,0.3,0.1,0.5c0.1,0.1,0.2,0.2,0.3,0.3s0.3,0.1,0.6,0.1
			c0.1,0,0.3,0,0.4-0.1c0.2,0,0.3-0.1,0.4-0.1h0.2V257.2z"/>
		<path class="st5" d="M216,254.4h-4.8c0,0.5,0.2,0.9,0.6,1.2s0.9,0.4,1.6,0.4c0.4,0,0.9-0.1,1.3-0.2s0.7-0.3,1-0.5h0.2v1.7
			c-0.5,0.2-0.9,0.3-1.3,0.4s-0.9,0.1-1.4,0.1c-1.3,0-2.3-0.3-3-0.9s-1.1-1.4-1.1-2.5c0-1.1,0.3-1.9,1-2.6s1.6-1,2.7-1
			c1.1,0,1.9,0.3,2.4,0.8s0.8,1.3,0.8,2.3V254.4z M213.9,253.1c0-0.4-0.1-0.8-0.3-1s-0.5-0.3-1-0.3c-0.4,0-0.7,0.1-1,0.3
			s-0.4,0.5-0.4,1H213.9z"/>
		<path class="st5" d="M222.6,252.7h-0.2c-0.1,0-0.2-0.1-0.4-0.1c-0.2,0-0.4,0-0.5,0c-0.3,0-0.6,0-0.8,0.1c-0.2,0-0.5,0.1-0.7,0.2
			v4.4h-2.1v-6.6h2.1v1c0.5-0.4,0.9-0.7,1.2-0.8c0.3-0.1,0.7-0.2,0.9-0.2c0.1,0,0.2,0,0.3,0s0.2,0,0.2,0V252.7z"/>
		<path class="st5" d="M228.1,256.6c-0.1,0.1-0.3,0.2-0.4,0.3s-0.3,0.2-0.5,0.3c-0.2,0.1-0.4,0.2-0.6,0.2s-0.5,0.1-0.7,0.1
			c-0.6,0-1.1-0.2-1.6-0.6s-0.6-0.9-0.6-1.5c0-0.5,0.1-0.9,0.3-1.2s0.5-0.5,0.9-0.7c0.4-0.2,0.9-0.3,1.5-0.4s1.2-0.1,1.8-0.2v0
			c0-0.4-0.1-0.6-0.4-0.8s-0.7-0.2-1.3-0.2c-0.3,0-0.7,0.1-1.1,0.2s-0.7,0.2-0.8,0.3h-0.2v-1.6c0.2-0.1,0.6-0.1,1.1-0.2
			s1-0.1,1.5-0.1c1.2,0,2.1,0.2,2.6,0.6s0.8,0.9,0.8,1.7v4.5h-2.1V256.6z M228.1,255.6v-1.4c-0.3,0-0.6,0.1-0.9,0.1
			s-0.6,0.1-0.8,0.1c-0.2,0.1-0.4,0.2-0.5,0.3c-0.1,0.1-0.2,0.3-0.2,0.5c0,0.1,0,0.2,0,0.3c0,0.1,0.1,0.2,0.2,0.2
			c0.1,0.1,0.2,0.1,0.3,0.2s0.3,0.1,0.6,0.1c0.2,0,0.4,0,0.6-0.1C227.7,255.8,227.9,255.7,228.1,255.6z"/>
		<path class="st5" d="M241,257.2c-0.2,0.1-0.5,0.1-0.7,0.1s-0.6,0-0.9,0c-0.8,0-1.4-0.2-1.8-0.5s-0.6-0.9-0.6-1.7v-3.1H236v-1.4
			h0.9v-1.9h2.1v1.9h2v1.4h-2v2.3c0,0.2,0,0.4,0,0.6c0,0.2,0,0.3,0.1,0.5c0.1,0.1,0.2,0.2,0.3,0.3s0.3,0.1,0.6,0.1
			c0.1,0,0.3,0,0.4-0.1c0.2,0,0.3-0.1,0.4-0.1h0.2V257.2z"/>
		<path class="st5" d="M249.3,254c0,1.1-0.3,1.9-0.9,2.6s-1.5,0.9-2.7,0.9s-2-0.3-2.7-0.9s-0.9-1.5-0.9-2.6c0-1.1,0.3-1.9,1-2.6
			s1.5-0.9,2.7-0.9c1.1,0,2,0.3,2.7,0.9S249.3,252.9,249.3,254z M246.7,255.6c0.1-0.2,0.2-0.4,0.3-0.6s0.1-0.6,0.1-1
			c0-0.4,0-0.7-0.1-1s-0.2-0.5-0.3-0.6c-0.1-0.2-0.3-0.3-0.5-0.3s-0.4-0.1-0.6-0.1s-0.4,0-0.5,0.1s-0.3,0.2-0.5,0.3
			c-0.1,0.2-0.2,0.4-0.3,0.6s-0.1,0.6-0.1,1c0,0.4,0,0.7,0.1,0.9s0.2,0.5,0.3,0.6c0.1,0.2,0.3,0.3,0.4,0.3s0.4,0.1,0.6,0.1
			c0.2,0,0.4,0,0.5-0.1S246.6,255.7,246.7,255.6z"/>
		<path class="st5" d="M255.3,257.2c-0.2,0.1-0.5,0.1-0.7,0.1s-0.6,0-0.9,0c-0.8,0-1.4-0.2-1.8-0.5s-0.6-0.9-0.6-1.7v-3.1h-0.9v-1.4
			h0.9v-1.9h2.1v1.9h2v1.4h-2v2.3c0,0.2,0,0.4,0,0.6c0,0.2,0,0.3,0.1,0.5c0.1,0.1,0.2,0.2,0.3,0.3c0.1,0.1,0.3,0.1,0.6,0.1
			c0.1,0,0.3,0,0.4-0.1c0.2,0,0.3-0.1,0.4-0.1h0.2V257.2z"/>
		<path class="st5" d="M260.8,256.6c-0.1,0.1-0.3,0.2-0.4,0.3s-0.3,0.2-0.5,0.3c-0.2,0.1-0.4,0.2-0.6,0.2s-0.5,0.1-0.7,0.1
			c-0.6,0-1.1-0.2-1.6-0.6s-0.6-0.9-0.6-1.5c0-0.5,0.1-0.9,0.3-1.2s0.5-0.5,0.9-0.7c0.4-0.2,0.9-0.3,1.5-0.4s1.2-0.1,1.8-0.2v0
			c0-0.4-0.1-0.6-0.4-0.8s-0.7-0.2-1.3-0.2c-0.3,0-0.7,0.1-1.1,0.2s-0.7,0.2-0.8,0.3h-0.2v-1.6c0.2-0.1,0.6-0.1,1.1-0.2
			s1-0.1,1.5-0.1c1.2,0,2.1,0.2,2.6,0.6s0.8,0.9,0.8,1.7v4.5h-2.1V256.6z M260.8,255.6v-1.4c-0.3,0-0.6,0.1-0.9,0.1
			s-0.6,0.1-0.8,0.1c-0.2,0.1-0.4,0.2-0.5,0.3c-0.1,0.1-0.2,0.3-0.2,0.5c0,0.1,0,0.2,0,0.3c0,0.1,0.1,0.2,0.2,0.2
			c0.1,0.1,0.2,0.1,0.3,0.2s0.3,0.1,0.6,0.1c0.2,0,0.4,0,0.6-0.1C260.5,255.8,260.7,255.7,260.8,255.6z"/>
		<path class="st5" d="M267.3,257.3h-2.1v-9.1h2.1V257.3z"/>
	</g>
	<g>
		<path class="st4" d="M68.5,297.3h-8.7V295h2.8v-6.9h-2.8v-2.1c0.4,0,0.8,0,1.2-0.1s0.7-0.1,1-0.3c0.3-0.1,0.5-0.3,0.7-0.6
			s0.2-0.5,0.3-0.9h2.9V295h2.7V297.3z"/>
		<path class="st4" d="M75.6,293.8l-3.2,6.7h-2l1.7-6.7H75.6z"/>
		<path class="st4" d="M88.3,292.8c0,0.7-0.1,1.3-0.4,1.9s-0.6,1.1-1.1,1.5c-0.5,0.4-1.2,0.8-1.9,1c-0.7,0.2-1.5,0.3-2.4,0.3
			c-1,0-1.9-0.1-2.7-0.3c-0.7-0.2-1.3-0.3-1.8-0.5v-2.9h0.4c0.5,0.3,1.1,0.6,1.7,0.8s1.2,0.3,1.8,0.3c0.4,0,0.8,0,1.2-0.1
			s0.8-0.2,1-0.5c0.2-0.2,0.4-0.4,0.5-0.6s0.2-0.5,0.2-0.9c0-0.3-0.1-0.6-0.2-0.8c-0.1-0.2-0.3-0.4-0.5-0.5
			c-0.3-0.2-0.7-0.3-1.1-0.4c-0.4-0.1-0.8-0.1-1.2-0.1c-0.5,0-1,0-1.5,0.1c-0.5,0.1-0.9,0.2-1.3,0.3h-0.4v-7.4h9.3v2.5h-6.1v2.1
			c0.2,0,0.4,0,0.7,0c0.3,0,0.5,0,0.7,0c0.7,0,1.4,0.1,1.9,0.2s1.1,0.3,1.5,0.6c0.5,0.3,0.9,0.7,1.2,1.3
			C88.2,291.4,88.3,292,88.3,292.8z"/>
		<path class="st4" d="M101.1,286.8l-5.9,10.5h-3.8l6.2-10.6h-6.7v-2.5h10.3V286.8z"/>
		<path class="st4" d="M113.9,286.8l-5.9,10.5h-3.8l6.2-10.6h-6.7v-2.5h10.3V286.8z"/>
	</g>
	<g>
		<path class="st5" d="M55.7,317.5c-0.6,0-1.1-0.1-1.6-0.2s-0.9-0.3-1.2-0.6c-0.3-0.3-0.6-0.6-0.8-1.1s-0.3-0.9-0.3-1.5
			c0-0.6,0.1-1.1,0.3-1.6s0.5-0.8,0.9-1.1c0.4-0.3,0.8-0.5,1.2-0.6s0.9-0.2,1.4-0.2c0.4,0,0.9,0,1.2,0.1s0.7,0.2,1.1,0.4v1.8h-0.3
			c-0.1-0.1-0.2-0.2-0.3-0.2s-0.3-0.2-0.4-0.3c-0.2-0.1-0.3-0.2-0.5-0.2c-0.2-0.1-0.4-0.1-0.7-0.1c-0.6,0-1,0.2-1.3,0.5
			c-0.3,0.4-0.5,0.8-0.5,1.5c0,0.6,0.2,1.1,0.5,1.4c0.3,0.3,0.8,0.5,1.3,0.5c0.3,0,0.5,0,0.7-0.1c0.2-0.1,0.4-0.1,0.5-0.2
			c0.1-0.1,0.2-0.2,0.4-0.2s0.2-0.2,0.3-0.3h0.3v1.8c-0.3,0.2-0.7,0.3-1,0.4S56.1,317.5,55.7,317.5z"/>
		<path class="st5" d="M66.3,314c0,1.1-0.3,1.9-0.9,2.6s-1.5,0.9-2.7,0.9s-2-0.3-2.7-0.9s-0.9-1.5-0.9-2.6c0-1.1,0.3-1.9,1-2.6
			s1.5-0.9,2.7-0.9c1.1,0,2,0.3,2.7,0.9S66.3,312.9,66.3,314z M63.7,315.6c0.1-0.2,0.2-0.4,0.3-0.6c0.1-0.2,0.1-0.6,0.1-1
			c0-0.4,0-0.7-0.1-1c-0.1-0.3-0.2-0.5-0.3-0.6c-0.1-0.2-0.3-0.3-0.5-0.3s-0.4-0.1-0.6-0.1s-0.4,0-0.5,0.1s-0.3,0.2-0.5,0.3
			c-0.1,0.2-0.2,0.4-0.3,0.6s-0.1,0.6-0.1,1c0,0.4,0,0.7,0.1,0.9s0.2,0.5,0.3,0.6c0.1,0.2,0.3,0.3,0.4,0.3s0.4,0.1,0.6,0.1
			c0.2,0,0.4,0,0.5-0.1S63.6,315.7,63.7,315.6z"/>
		<path class="st5" d="M70.2,317.3h-2.1v-9.1h2.1V317.3z"/>
		<path class="st5" d="M76.5,316.6c-0.1,0.1-0.3,0.2-0.4,0.3s-0.3,0.2-0.5,0.3c-0.2,0.1-0.4,0.2-0.6,0.2s-0.5,0.1-0.7,0.1
			c-0.6,0-1.1-0.2-1.6-0.6S72,316,72,315.4c0-0.5,0.1-0.9,0.3-1.2s0.5-0.5,0.9-0.7c0.4-0.2,0.9-0.3,1.5-0.4s1.2-0.1,1.8-0.2v0
			c0-0.4-0.1-0.6-0.4-0.8s-0.7-0.2-1.3-0.2c-0.3,0-0.7,0.1-1.1,0.2s-0.7,0.2-0.8,0.3h-0.2v-1.6c0.2-0.1,0.6-0.1,1.1-0.2
			s1-0.1,1.5-0.1c1.2,0,2.1,0.2,2.6,0.6s0.8,0.9,0.8,1.7v4.5h-2.1V316.6z M76.5,315.6v-1.4c-0.3,0-0.6,0.1-0.9,0.1s-0.6,0.1-0.8,0.1
			c-0.2,0.1-0.4,0.2-0.5,0.3c-0.1,0.1-0.2,0.3-0.2,0.5c0,0.1,0,0.2,0,0.3c0,0.1,0.1,0.2,0.2,0.2c0.1,0.1,0.2,0.1,0.3,0.2
			s0.3,0.1,0.6,0.1c0.2,0,0.4,0,0.6-0.1C76.1,315.8,76.3,315.7,76.5,315.6z"/>
		<path class="st5" d="M87.7,313.9c0,1-0.3,1.9-0.9,2.5c-0.6,0.7-1.3,1-2.1,1c-0.4,0-0.7,0-1-0.1c-0.3-0.1-0.5-0.2-0.8-0.3l-0.1,0.3
			h-2v-9.1h2.1v3.2c0.3-0.3,0.7-0.5,1-0.6c0.3-0.2,0.7-0.2,1.2-0.2c0.8,0,1.5,0.3,1.9,0.9S87.7,312.8,87.7,313.9z M85.5,313.9
			c0-0.6-0.1-1-0.3-1.4c-0.2-0.3-0.6-0.5-1.1-0.5c-0.2,0-0.4,0-0.6,0.1c-0.2,0.1-0.4,0.1-0.6,0.3v3.3c0.2,0.1,0.3,0.1,0.4,0.1
			c0.1,0,0.3,0,0.5,0c0.6,0,1-0.2,1.2-0.5C85.4,315.1,85.5,314.6,85.5,313.9z"/>
		<path class="st5" d="M96.2,314c0,1.1-0.3,1.9-0.9,2.6s-1.5,0.9-2.7,0.9s-2-0.3-2.7-0.9S89,315.1,89,314c0-1.1,0.3-1.9,1-2.6
			s1.5-0.9,2.7-0.9c1.1,0,2,0.3,2.7,0.9S96.2,312.9,96.2,314z M93.6,315.6c0.1-0.2,0.2-0.4,0.3-0.6s0.1-0.6,0.1-1c0-0.4,0-0.7-0.1-1
			s-0.2-0.5-0.3-0.6c-0.1-0.2-0.3-0.3-0.5-0.3s-0.4-0.1-0.6-0.1s-0.4,0-0.5,0.1s-0.3,0.2-0.5,0.3c-0.1,0.2-0.2,0.4-0.3,0.6
			s-0.1,0.6-0.1,1c0,0.4,0,0.7,0.1,0.9s0.2,0.5,0.3,0.6c0.1,0.2,0.3,0.3,0.4,0.3s0.4,0.1,0.6,0.1c0.2,0,0.4,0,0.5-0.1
			S93.5,315.7,93.6,315.6z"/>
		<path class="st5" d="M102.8,312.7h-0.2c-0.1,0-0.2-0.1-0.4-0.1c-0.2,0-0.4,0-0.5,0c-0.3,0-0.6,0-0.8,0.1c-0.2,0-0.5,0.1-0.7,0.2
			v4.4H98v-6.6h2.1v1c0.5-0.4,0.9-0.7,1.2-0.8c0.3-0.1,0.7-0.2,0.9-0.2c0.1,0,0.2,0,0.3,0s0.2,0,0.2,0V312.7z"/>
		<path class="st5" d="M108.3,316.6c-0.1,0.1-0.3,0.2-0.4,0.3s-0.3,0.2-0.5,0.3c-0.2,0.1-0.4,0.2-0.6,0.2s-0.5,0.1-0.7,0.1
			c-0.6,0-1.1-0.2-1.6-0.6s-0.6-0.9-0.6-1.5c0-0.5,0.1-0.9,0.3-1.2s0.5-0.5,0.9-0.7c0.4-0.2,0.9-0.3,1.5-0.4s1.2-0.1,1.8-0.2v0
			c0-0.4-0.1-0.6-0.4-0.8s-0.7-0.2-1.3-0.2c-0.3,0-0.7,0.1-1.1,0.2s-0.7,0.2-0.8,0.3h-0.2v-1.6c0.2-0.1,0.6-0.1,1.1-0.2
			s1-0.1,1.5-0.1c1.2,0,2.1,0.2,2.6,0.6s0.8,0.9,0.8,1.7v4.5h-2.1V316.6z M108.3,315.6v-1.4c-0.3,0-0.6,0.1-0.9,0.1
			s-0.6,0.1-0.8,0.1c-0.2,0.1-0.4,0.2-0.5,0.3c-0.1,0.1-0.2,0.3-0.2,0.5c0,0.1,0,0.2,0,0.3c0,0.1,0.1,0.2,0.2,0.2
			c0.1,0.1,0.2,0.1,0.3,0.2s0.3,0.1,0.6,0.1c0.2,0,0.4,0,0.6-0.1C107.9,315.8,108.1,315.7,108.3,315.6z"/>
		<path class="st5" d="M119,317.3h-2.1v-0.7c-0.4,0.3-0.7,0.5-1,0.7c-0.3,0.1-0.7,0.2-1.1,0.2c-0.8,0-1.4-0.3-1.9-0.9
			c-0.5-0.6-0.7-1.4-0.7-2.5c0-0.6,0.1-1.1,0.2-1.5s0.4-0.8,0.7-1.1c0.3-0.3,0.6-0.5,1-0.7c0.4-0.2,0.8-0.2,1.1-0.2
			c0.4,0,0.7,0,1,0.1c0.3,0.1,0.5,0.2,0.8,0.3v-2.8h2.1V317.3z M116.9,315.5v-3.2c-0.1-0.1-0.3-0.1-0.5-0.1c-0.2,0-0.3,0-0.5,0
			c-0.6,0-1,0.2-1.2,0.5c-0.3,0.3-0.4,0.8-0.4,1.4c0,0.6,0.1,1.1,0.3,1.4c0.2,0.3,0.6,0.4,1.1,0.4c0.2,0,0.4,0,0.6-0.1
			C116.5,315.7,116.7,315.6,116.9,315.5z"/>
		<path class="st5" d="M128,314c0,1.1-0.3,1.9-0.9,2.6s-1.5,0.9-2.7,0.9s-2-0.3-2.7-0.9s-0.9-1.5-0.9-2.6c0-1.1,0.3-1.9,1-2.6
			s1.5-0.9,2.7-0.9c1.1,0,2,0.3,2.7,0.9S128,312.9,128,314z M125.4,315.6c0.1-0.2,0.2-0.4,0.3-0.6s0.1-0.6,0.1-1c0-0.4,0-0.7-0.1-1
			s-0.2-0.5-0.3-0.6c-0.1-0.2-0.3-0.3-0.5-0.3s-0.4-0.1-0.6-0.1s-0.4,0-0.5,0.1s-0.3,0.2-0.5,0.3c-0.1,0.2-0.2,0.4-0.3,0.6
			s-0.1,0.6-0.1,1c0,0.4,0,0.7,0.1,0.9s0.2,0.5,0.3,0.6c0.1,0.2,0.3,0.3,0.4,0.3s0.4,0.1,0.6,0.1c0.2,0,0.4,0,0.5-0.1
			S125.3,315.7,125.4,315.6z"/>
		<path class="st5" d="M134.6,312.7h-0.2c-0.1,0-0.2-0.1-0.4-0.1c-0.2,0-0.4,0-0.5,0c-0.3,0-0.6,0-0.8,0.1c-0.2,0-0.5,0.1-0.7,0.2
			v4.4h-2.1v-6.6h2.1v1c0.5-0.4,0.9-0.7,1.2-0.8s0.7-0.2,0.9-0.2c0.1,0,0.2,0,0.3,0c0.1,0,0.2,0,0.2,0V312.7z"/>
		<path class="st5" d="M142.5,314.4h-4.8c0,0.5,0.2,0.9,0.6,1.2s0.9,0.4,1.6,0.4c0.4,0,0.9-0.1,1.3-0.2s0.7-0.3,1-0.5h0.2v1.7
			c-0.5,0.2-0.9,0.3-1.3,0.4s-0.9,0.1-1.4,0.1c-1.3,0-2.3-0.3-3-0.9s-1.1-1.4-1.1-2.5c0-1.1,0.3-1.9,1-2.6s1.6-1,2.7-1
			c1.1,0,1.9,0.3,2.4,0.8s0.8,1.3,0.8,2.3V314.4z M140.4,313.1c0-0.4-0.1-0.8-0.3-1s-0.5-0.3-1-0.3c-0.4,0-0.7,0.1-1,0.3
			s-0.4,0.5-0.4,1H140.4z"/>
		<path class="st5" d="M150,315.2c0,0.7-0.3,1.2-0.9,1.6s-1.4,0.6-2.5,0.6c-0.6,0-1.1-0.1-1.6-0.2s-0.9-0.2-1.1-0.4v-1.7h0.2
			c0.1,0.1,0.2,0.2,0.4,0.2s0.3,0.2,0.6,0.3c0.2,0.1,0.5,0.2,0.7,0.2s0.6,0.1,0.9,0.1c0.4,0,0.7,0,0.9-0.1s0.3-0.2,0.3-0.4
			c0-0.2-0.1-0.3-0.2-0.3s-0.3-0.1-0.7-0.2c-0.2,0-0.4-0.1-0.6-0.1s-0.5-0.1-0.7-0.1c-0.6-0.2-1-0.4-1.3-0.7s-0.4-0.7-0.4-1.2
			c0-0.6,0.3-1.2,0.9-1.6s1.4-0.6,2.5-0.6c0.5,0,1,0,1.4,0.1s0.8,0.2,1.1,0.3v1.7h-0.2c-0.3-0.2-0.7-0.4-1.1-0.5s-0.8-0.2-1.2-0.2
			c-0.3,0-0.6,0-0.9,0.1s-0.3,0.2-0.3,0.4c0,0.2,0.1,0.3,0.2,0.4s0.4,0.2,0.7,0.2c0.2,0,0.4,0.1,0.7,0.1s0.5,0.1,0.7,0.2
			c0.6,0.1,1,0.4,1.2,0.7S150,314.7,150,315.2z"/>
	</g>
	<g>
		<path class="st4" d="M69,350c0,1.1-0.1,2.1-0.4,3.1s-0.7,1.7-1.3,2.4c-0.6,0.7-1.4,1.2-2.3,1.6s-2,0.5-3.2,0.5
			c-0.4,0-0.9,0-1.4-0.1s-0.8-0.1-1-0.1v-2.6h0.4c0.2,0.1,0.4,0.2,0.8,0.3s0.8,0.1,1.3,0.1c0.5,0,0.9-0.1,1.3-0.2
			c0.4-0.1,0.8-0.3,1.1-0.5c0.3-0.3,0.6-0.6,0.9-1s0.4-0.9,0.4-1.4c-0.5,0.3-1,0.5-1.4,0.7c-0.4,0.2-1,0.2-1.6,0.2
			c-0.5,0-1-0.1-1.4-0.2c-0.4-0.1-0.9-0.3-1.2-0.6c-0.5-0.3-0.9-0.8-1.2-1.4c-0.3-0.6-0.4-1.3-0.4-2.1c0-1.4,0.5-2.5,1.5-3.4
			s2.3-1.3,3.8-1.3c0.8,0,1.5,0.1,2.2,0.3s1.2,0.5,1.6,1c0.5,0.5,0.9,1.1,1.2,1.9C68.9,347.9,69,348.9,69,350z M65.6,349.5
			c0-0.7-0.1-1.3-0.2-1.8s-0.3-0.8-0.6-1.1c-0.2-0.2-0.4-0.3-0.6-0.4c-0.2-0.1-0.5-0.1-0.7-0.1c-0.2,0-0.4,0-0.7,0.1
			s-0.4,0.2-0.6,0.4c-0.2,0.2-0.3,0.4-0.4,0.7c-0.1,0.3-0.2,0.7-0.2,1.1c0,0.4,0.1,0.8,0.2,1c0.1,0.3,0.3,0.5,0.5,0.7
			c0.2,0.2,0.4,0.3,0.7,0.3s0.6,0.1,0.9,0.1c0.3,0,0.6,0,0.9-0.1c0.3-0.1,0.6-0.1,0.7-0.2c0-0.1,0-0.2,0-0.3
			C65.6,349.9,65.6,349.7,65.6,349.5z"/>
		<path class="st4" d="M81.8,352.8c0,0.7-0.1,1.3-0.4,1.9s-0.6,1.1-1.1,1.5c-0.5,0.4-1.2,0.8-1.9,1c-0.7,0.2-1.5,0.3-2.4,0.3
			c-1,0-1.9-0.1-2.7-0.3c-0.7-0.2-1.3-0.3-1.8-0.5v-2.9H72c0.5,0.3,1.1,0.6,1.7,0.8s1.2,0.3,1.8,0.3c0.4,0,0.8,0,1.2-0.1
			s0.8-0.2,1-0.5c0.2-0.2,0.4-0.4,0.5-0.6s0.2-0.5,0.2-0.9c0-0.3-0.1-0.6-0.2-0.8c-0.1-0.2-0.3-0.4-0.5-0.5
			c-0.3-0.2-0.7-0.3-1.1-0.4c-0.4-0.1-0.8-0.1-1.2-0.1c-0.5,0-1,0-1.5,0.1c-0.5,0.1-0.9,0.2-1.3,0.3h-0.4v-7.4h9.3v2.5h-6.1v2.1
			c0.2,0,0.4,0,0.7,0c0.3,0,0.5,0,0.7,0c0.7,0,1.4,0.1,1.9,0.2s1.1,0.3,1.5,0.6c0.5,0.3,0.9,0.7,1.2,1.3
			C81.6,351.4,81.8,352,81.8,352.8z"/>
	</g>
	<path class="st5" d="M59,374c0,1.1-0.3,1.9-0.9,2.6c-0.6,0.6-1.5,0.9-2.7,0.9c-1.1,0-2-0.3-2.7-0.9c-0.6-0.6-0.9-1.5-0.9-2.6
		c0-1.1,0.3-1.9,1-2.6c0.6-0.6,1.5-0.9,2.7-0.9c1.1,0,2,0.3,2.7,0.9C58.6,372.1,59,372.9,59,374z M56.4,375.6
		c0.1-0.2,0.2-0.4,0.3-0.6c0.1-0.2,0.1-0.6,0.1-1c0-0.4,0-0.7-0.1-1c-0.1-0.3-0.2-0.5-0.3-0.6c-0.1-0.2-0.3-0.3-0.5-0.3
		c-0.2-0.1-0.4-0.1-0.6-0.1c-0.2,0-0.4,0-0.5,0.1c-0.2,0.1-0.3,0.2-0.5,0.3c-0.1,0.2-0.2,0.4-0.3,0.6c-0.1,0.3-0.1,0.6-0.1,1
		c0,0.4,0,0.7,0.1,0.9c0.1,0.3,0.2,0.5,0.3,0.6c0.1,0.2,0.3,0.3,0.4,0.3c0.2,0.1,0.4,0.1,0.6,0.1c0.2,0,0.4,0,0.5-0.1
		C56.1,375.9,56.2,375.7,56.4,375.6z M64.7,369.7c-0.1,0-0.2-0.1-0.3-0.1c-0.2,0-0.3-0.1-0.4-0.1c-0.4,0-0.6,0.1-0.8,0.2
		c-0.1,0.2-0.2,0.4-0.2,0.9v0.1h4.5v6.6h-2.1v-5.2H63v5.2h-2.1v-5.2H60v-1.4h0.9v-0.2c0-0.8,0.2-1.4,0.6-1.8c0.4-0.4,1-0.6,1.9-0.6
		c0.3,0,0.6,0,0.8,0c0.2,0,0.5,0,0.6,0.1v1.5H64.7L64.7,369.7z M67.6,369.8h-2.1v-1.6h2.1V369.8z M73.2,377.5
		c-0.6,0-1.1-0.1-1.6-0.2s-0.9-0.3-1.2-0.6c-0.3-0.3-0.6-0.6-0.8-1.1c-0.2-0.4-0.3-0.9-0.3-1.5c0-0.6,0.1-1.1,0.3-1.6
		s0.5-0.8,0.9-1.1c0.4-0.3,0.8-0.5,1.2-0.6c0.5-0.1,0.9-0.2,1.4-0.2c0.4,0,0.9,0,1.2,0.1c0.4,0.1,0.7,0.2,1.1,0.4v1.8h-0.3
		c-0.1-0.1-0.2-0.2-0.3-0.2s-0.3-0.2-0.4-0.3c-0.2-0.1-0.3-0.2-0.5-0.2c-0.2-0.1-0.4-0.1-0.7-0.1c-0.6,0-1,0.2-1.3,0.5
		s-0.5,0.8-0.5,1.5c0,0.6,0.2,1.1,0.5,1.4s0.7,0.5,1.3,0.5c0.3,0,0.5,0,0.7-0.1c0.2-0.1,0.4-0.1,0.5-0.2c0.1-0.1,0.2-0.2,0.4-0.2
		c0.1-0.1,0.2-0.2,0.3-0.3h0.3v1.8c-0.3,0.2-0.7,0.3-1,0.4C74.1,377.4,73.7,377.5,73.2,377.5z M79.3,369.8h-2.2v-1.6h2.2V369.8z
		 M79.3,377.3h-2.1v-6.6h2.1V377.3z M88.2,377.3h-2.1V374c0-0.3,0-0.5,0-0.8c0-0.3-0.1-0.5-0.1-0.6c-0.1-0.1-0.2-0.2-0.3-0.3
		c-0.2-0.1-0.4-0.1-0.6-0.1c-0.2,0-0.4,0-0.6,0.1c-0.2,0.1-0.4,0.2-0.6,0.3v4.7h-2.1v-6.6h2.1v0.7c0.4-0.3,0.7-0.5,1.1-0.7
		c0.3-0.2,0.7-0.2,1.1-0.2c0.7,0,1.3,0.2,1.7,0.6c0.4,0.4,0.6,1,0.6,1.9V377.3z M94.4,376.6c-0.1,0.1-0.3,0.2-0.4,0.3
		c-0.2,0.1-0.3,0.2-0.5,0.3c-0.2,0.1-0.4,0.2-0.6,0.2c-0.2,0-0.5,0.1-0.7,0.1c-0.6,0-1.1-0.2-1.6-0.6s-0.6-0.9-0.6-1.5
		c0-0.5,0.1-0.9,0.3-1.2c0.2-0.3,0.5-0.5,0.9-0.7c0.4-0.2,0.9-0.3,1.5-0.4c0.6-0.1,1.2-0.1,1.8-0.2v0c0-0.4-0.1-0.6-0.4-0.8
		c-0.3-0.1-0.7-0.2-1.3-0.2c-0.3,0-0.7,0.1-1.1,0.2c-0.4,0.1-0.7,0.2-0.8,0.3h-0.2v-1.6c0.2-0.1,0.6-0.1,1.1-0.2
		c0.5-0.1,1-0.1,1.5-0.1c1.2,0,2.1,0.2,2.6,0.6s0.8,0.9,0.8,1.7v4.5h-2.1V376.6z M94.4,375.6v-1.4c-0.3,0-0.6,0.1-0.9,0.1
		c-0.3,0-0.6,0.1-0.8,0.1c-0.2,0.1-0.4,0.2-0.5,0.3s-0.2,0.3-0.2,0.5c0,0.1,0,0.2,0,0.3s0.1,0.2,0.2,0.2c0.1,0.1,0.2,0.1,0.3,0.2
		c0.1,0,0.3,0.1,0.6,0.1c0.2,0,0.4,0,0.6-0.1S94.2,375.7,94.4,375.6z M104.4,375.2c0,0.7-0.3,1.2-0.9,1.6s-1.4,0.6-2.5,0.6
		c-0.6,0-1.1-0.1-1.6-0.2c-0.5-0.1-0.9-0.2-1.1-0.4v-1.7h0.2c0.1,0.1,0.2,0.2,0.4,0.2c0.1,0.1,0.3,0.2,0.6,0.3
		c0.2,0.1,0.5,0.2,0.7,0.2c0.3,0.1,0.6,0.1,0.9,0.1c0.4,0,0.7,0,0.9-0.1c0.2-0.1,0.3-0.2,0.3-0.4c0-0.2-0.1-0.3-0.2-0.3
		c-0.1-0.1-0.3-0.1-0.7-0.2c-0.2,0-0.4-0.1-0.6-0.1c-0.3,0-0.5-0.1-0.7-0.1c-0.6-0.2-1-0.4-1.3-0.7c-0.3-0.3-0.4-0.7-0.4-1.2
		c0-0.6,0.3-1.2,0.9-1.6c0.6-0.4,1.4-0.6,2.5-0.6c0.5,0,1,0,1.4,0.1s0.8,0.2,1.1,0.3v1.7H104c-0.3-0.2-0.7-0.4-1.1-0.5
		c-0.4-0.1-0.8-0.2-1.2-0.2c-0.3,0-0.6,0-0.9,0.1c-0.2,0.1-0.3,0.2-0.3,0.4c0,0.2,0.1,0.3,0.2,0.4s0.4,0.2,0.7,0.2
		c0.2,0,0.4,0.1,0.7,0.1c0.2,0,0.5,0.1,0.7,0.2c0.6,0.1,1,0.4,1.2,0.7C104.3,374.3,104.4,374.7,104.4,375.2z M116.9,377.3h-2.1v-0.7
		c-0.4,0.3-0.7,0.5-1,0.7s-0.7,0.2-1.1,0.2c-0.8,0-1.4-0.3-1.9-0.9c-0.5-0.6-0.7-1.4-0.7-2.5c0-0.6,0.1-1.1,0.2-1.5
		c0.2-0.4,0.4-0.8,0.7-1.1c0.3-0.3,0.6-0.5,1-0.7c0.4-0.2,0.8-0.2,1.1-0.2c0.4,0,0.7,0,1,0.1c0.3,0.1,0.5,0.2,0.8,0.3v-2.8h2.1
		V377.3z M114.8,375.5v-3.2c-0.1-0.1-0.3-0.1-0.5-0.1s-0.3,0-0.5,0c-0.6,0-1,0.2-1.2,0.5s-0.4,0.8-0.4,1.4c0,0.6,0.1,1.1,0.3,1.4
		s0.6,0.4,1.1,0.4c0.2,0,0.4,0,0.6-0.1C114.5,375.7,114.7,375.6,114.8,375.5z M125.7,374.4h-4.8c0,0.5,0.2,0.9,0.6,1.2
		c0.4,0.3,0.9,0.4,1.6,0.4c0.4,0,0.9-0.1,1.3-0.2c0.4-0.2,0.7-0.3,1-0.5h0.2v1.7c-0.5,0.2-0.9,0.3-1.3,0.4s-0.9,0.1-1.4,0.1
		c-1.3,0-2.3-0.3-3-0.9c-0.7-0.6-1.1-1.4-1.1-2.5c0-1.1,0.3-1.9,1-2.6c0.7-0.6,1.6-1,2.7-1c1.1,0,1.9,0.3,2.4,0.8
		c0.5,0.5,0.8,1.3,0.8,2.3V374.4z M123.6,373.1c0-0.4-0.1-0.8-0.3-1c-0.2-0.2-0.5-0.3-1-0.3c-0.4,0-0.7,0.1-1,0.3
		c-0.3,0.2-0.4,0.5-0.4,1H123.6z M137.6,375.2c0,0.7-0.3,1.2-0.9,1.6s-1.4,0.6-2.5,0.6c-0.6,0-1.1-0.1-1.6-0.2
		c-0.5-0.1-0.9-0.2-1.1-0.4v-1.7h0.2c0.1,0.1,0.2,0.2,0.4,0.2c0.1,0.1,0.3,0.2,0.6,0.3c0.2,0.1,0.5,0.2,0.7,0.2
		c0.3,0.1,0.6,0.1,0.9,0.1c0.4,0,0.7,0,0.9-0.1c0.2-0.1,0.3-0.2,0.3-0.4c0-0.2-0.1-0.3-0.2-0.3c-0.1-0.1-0.3-0.1-0.7-0.2
		c-0.2,0-0.4-0.1-0.6-0.1c-0.3,0-0.5-0.1-0.7-0.1c-0.6-0.2-1-0.4-1.3-0.7c-0.3-0.3-0.4-0.7-0.4-1.2c0-0.6,0.3-1.2,0.9-1.6
		c0.6-0.4,1.4-0.6,2.5-0.6c0.5,0,1,0,1.4,0.1s0.8,0.2,1.1,0.3v1.7h-0.2c-0.3-0.2-0.7-0.4-1.1-0.5c-0.4-0.1-0.8-0.2-1.2-0.2
		c-0.3,0-0.6,0-0.9,0.1c-0.2,0.1-0.3,0.2-0.3,0.4c0,0.2,0.1,0.3,0.2,0.4s0.4,0.2,0.7,0.2c0.2,0,0.4,0.1,0.7,0.1
		c0.2,0,0.5,0.1,0.7,0.2c0.6,0.1,1,0.4,1.2,0.7C137.5,374.3,137.6,374.7,137.6,375.2z M145.8,374.4H141c0,0.5,0.2,0.9,0.6,1.2
		c0.4,0.3,0.9,0.4,1.6,0.4c0.4,0,0.9-0.1,1.3-0.2c0.4-0.2,0.7-0.3,1-0.5h0.2v1.7c-0.5,0.2-0.9,0.3-1.3,0.4s-0.9,0.1-1.4,0.1
		c-1.3,0-2.3-0.3-3-0.9c-0.7-0.6-1.1-1.4-1.1-2.5c0-1.1,0.3-1.9,1-2.6c0.7-0.6,1.6-1,2.7-1c1.1,0,1.9,0.3,2.4,0.8
		c0.5,0.5,0.8,1.3,0.8,2.3V374.4z M143.7,373.1c0-0.4-0.1-0.8-0.3-1c-0.2-0.2-0.5-0.3-1-0.3c-0.4,0-0.7,0.1-1,0.3
		c-0.3,0.2-0.4,0.5-0.4,1H143.7z M152.4,372.7h-0.2c-0.1,0-0.2-0.1-0.4-0.1c-0.2,0-0.4,0-0.5,0c-0.3,0-0.6,0-0.8,0.1
		c-0.2,0-0.5,0.1-0.7,0.2v4.4h-2.1v-6.6h2.1v1c0.5-0.4,0.9-0.7,1.2-0.8c0.3-0.1,0.7-0.2,0.9-0.2c0.1,0,0.2,0,0.3,0
		c0.1,0,0.2,0,0.2,0V372.7z M160.5,370.7l-2.5,6.6h-2.4l-2.5-6.6h2.2l1.5,4.5l1.5-4.5H160.5z M164.1,369.8h-2.2v-1.6h2.2V369.8z
		 M164.1,377.3h-2.1v-6.6h2.1V377.3z M169.8,377.5c-0.6,0-1.1-0.1-1.6-0.2s-0.9-0.3-1.2-0.6c-0.3-0.3-0.6-0.6-0.8-1.1
		c-0.2-0.4-0.3-0.9-0.3-1.5c0-0.6,0.1-1.1,0.3-1.6s0.5-0.8,0.9-1.1c0.4-0.3,0.8-0.5,1.2-0.6c0.5-0.1,0.9-0.2,1.4-0.2
		c0.4,0,0.9,0,1.2,0.1c0.4,0.1,0.7,0.2,1.1,0.4v1.8h-0.3c-0.1-0.1-0.2-0.2-0.3-0.2s-0.3-0.2-0.4-0.3c-0.2-0.1-0.3-0.2-0.5-0.2
		c-0.2-0.1-0.4-0.1-0.7-0.1c-0.6,0-1,0.2-1.3,0.5s-0.5,0.8-0.5,1.5c0,0.6,0.2,1.1,0.5,1.4s0.7,0.5,1.3,0.5c0.3,0,0.5,0,0.7-0.1
		c0.2-0.1,0.4-0.1,0.5-0.2c0.1-0.1,0.2-0.2,0.4-0.2c0.1-0.1,0.2-0.2,0.3-0.3h0.3v1.8c-0.3,0.2-0.7,0.3-1,0.4
		C170.6,377.4,170.2,377.5,169.8,377.5z M175.9,369.8h-2.2v-1.6h2.2V369.8z M175.8,377.3h-2.1v-6.6h2.1V377.3z M184.8,374
		c0,1.1-0.3,1.9-0.9,2.6c-0.6,0.6-1.5,0.9-2.7,0.9c-1.1,0-2-0.3-2.7-0.9c-0.6-0.6-0.9-1.5-0.9-2.6c0-1.1,0.3-1.9,1-2.6
		c0.6-0.6,1.5-0.9,2.7-0.9c1.1,0,2,0.3,2.7,0.9C184.5,372.1,184.8,372.9,184.8,374z M182.2,375.6c0.1-0.2,0.2-0.4,0.3-0.6
		c0.1-0.2,0.1-0.6,0.1-1c0-0.4,0-0.7-0.1-1c-0.1-0.3-0.2-0.5-0.3-0.6c-0.1-0.2-0.3-0.3-0.5-0.3c-0.2-0.1-0.4-0.1-0.6-0.1
		c-0.2,0-0.4,0-0.5,0.1c-0.2,0.1-0.3,0.2-0.5,0.3c-0.1,0.2-0.2,0.4-0.3,0.6c-0.1,0.3-0.1,0.6-0.1,1c0,0.4,0,0.7,0.1,0.9
		c0.1,0.3,0.2,0.5,0.3,0.6c0.1,0.2,0.3,0.3,0.4,0.3c0.2,0.1,0.4,0.1,0.6,0.1c0.2,0,0.4,0,0.5-0.1C182,375.9,182.1,375.7,182.2,375.6
		z M192.4,375.2c0,0.7-0.3,1.2-0.9,1.6s-1.4,0.6-2.5,0.6c-0.6,0-1.1-0.1-1.6-0.2c-0.5-0.1-0.9-0.2-1.1-0.4v-1.7h0.2
		c0.1,0.1,0.2,0.2,0.4,0.2c0.1,0.1,0.3,0.2,0.6,0.3c0.2,0.1,0.5,0.2,0.7,0.2c0.3,0.1,0.6,0.1,0.9,0.1c0.4,0,0.7,0,0.9-0.1
		c0.2-0.1,0.3-0.2,0.3-0.4c0-0.2-0.1-0.3-0.2-0.3c-0.1-0.1-0.3-0.1-0.7-0.2c-0.2,0-0.4-0.1-0.6-0.1c-0.3,0-0.5-0.1-0.7-0.1
		c-0.6-0.2-1-0.4-1.3-0.7c-0.3-0.3-0.4-0.7-0.4-1.2c0-0.6,0.3-1.2,0.9-1.6c0.6-0.4,1.4-0.6,2.5-0.6c0.5,0,1,0,1.4,0.1
		s0.8,0.2,1.1,0.3v1.7h-0.2c-0.3-0.2-0.7-0.4-1.1-0.5c-0.4-0.1-0.8-0.2-1.2-0.2c-0.3,0-0.6,0-0.9,0.1c-0.2,0.1-0.3,0.2-0.3,0.4
		c0,0.2,0.1,0.3,0.2,0.4s0.4,0.2,0.7,0.2c0.2,0,0.4,0.1,0.7,0.1c0.2,0,0.5,0.1,0.7,0.2c0.6,0.1,1,0.4,1.2,0.7
		C192.2,374.3,192.4,374.7,192.4,375.2z"/>
	<g>
		<defs>
			<rect id="SVGID_1_" x="51.4" y="32.3" width="135.1" height="35.8"/>
		</defs>
		<clipPath id="SVGID_2_">
			<use xlink:href="#SVGID_1_"  style="overflow:visible;"/>
		</clipPath>
		<path class="st6" d="M110.4,47.3c-0.2,0-0.6,0-1,0.1c-1.1,0.2-2.7,0.7-3.9,2.6c-0.3,0.4-0.5,1-0.7,1.6c-0.2,0.6-0.3,1.2-0.4,2
			c0,0.2,0,0.5,0,0.7c0,0.8,0.2,1.4,0.5,1.9c0.4,0.7,1,1.1,1.7,1.4c0.8,0.3,1.8,0.4,2.7,0.4c0.1,0,0.1,0,0.2,0
			c0.8,0,1.6-0.1,2.3-0.3l0.2-0.2c0.3-1,0.4-1.3,0.7-2.2l-0.2-0.1c-0.7,0.4-1.5,0.6-2.4,0.6c-0.1,0-0.3,0-0.6,0
			c-0.5-0.1-1.2-0.2-1.5-0.7c-0.2-0.3-0.3-0.7-0.3-1c0-0.3,0-0.6,0.1-0.9c0.3,0,1,0,1.7,0c1,0,2.2,0,2.7,0h1l0.2-0.1
			c0.5-1.4,0.6-2.7,0.6-2.8C113.8,48.2,112.4,47.3,110.4,47.3 M110.5,51.3l-1.1,0l-1.3,0c0.2-0.8,0.6-1.4,0.8-1.8
			c0.1-0.1,0.2-0.3,0.5-0.4c0.2-0.1,0.3-0.1,0.5-0.1c0.7,0,0.8,0.5,0.8,0.9C110.7,50.3,110.6,50.8,110.5,51.3 M111.9,43.2h-0.8
			l-0.2,0.1c-0.7,1.3-1,1.7-1.6,2.6l-0.4,0.5l0.1,0.1l0.3,0c0.7,0,0.9,0,1.7,0l0.2-0.1c1.4-1.5,1.7-1.9,3-3.2l0-0.1
			C113.1,43.2,112.6,43.2,111.9,43.2 M92.4,55.4c-2.3,0-3.3-1.4-3.3-3.2c0-2.3,1.5-5.8,4.7-5.8c0.9,0,1.7,0.3,2.3,0.8l0.1,0l0.1,0
			c0.3-1.1,0.4-1.3,0.8-2.3l-0.1-0.1c-0.3-0.1-0.5-0.2-0.8-0.3c-1.3-0.4-2.4-0.5-2.9-0.5c-1.1,0-4.4,0.2-6.5,3.6
			c-1,1.5-1.5,3.4-1.5,5c0,3.3,2,5.5,6,5.5c0.5,0,1.9-0.1,2.6-0.3c0.1,0,0.2-0.1,0.2-0.1l0.2-0.2c0.3-1.2,0.4-1.3,0.8-2.5l-0.2-0.1
			C94.1,55.4,92.9,55.4,92.4,55.4 M104.7,48.7c0.1-0.3,0.3-0.6,0.4-1l0-0.2c-0.1-0.1-0.2-0.1-0.4-0.2c-0.1,0-0.3,0-0.5,0
			c-1.6,0-2.3,1.2-3.3,2.6c0.4-1.3,0.4-1.6,0.7-2.6l-0.1-0.1c-1.5,0.3-1.9,0.3-3.6,0.5l-0.1,0.1c-0.3,1.6-0.4,2.3-1.2,5.3l-0.4,1.6
			l0,0.1c-0.1,0.4-0.7,2.3-0.8,2.7l0,0.1l0.1,0.1l0.7,0c1,0,1.5,0,2.7,0l0.2-0.1c0.1-0.5,0.1-0.7,0.4-1.7l0.5-1.9
			c0.4-1.9,0.8-3.5,2.7-3.5c0.6,0,0.9,0.2,1,0.3l0.2,0c0.2-0.5,0.4-1,0.6-1.4C104.5,49.1,104.6,48.9,104.7,48.7 M147,48.4
			c-1.1-1.1-2.7-1.1-3.3-1.1c-0.3,0-0.6,0-0.9,0.1c-2.4,0.3-3.5,1.8-3.9,2.5c-0.4,0.6-0.7,1.4-0.9,2.1c-0.2,0.8-0.3,1.5-0.3,2.2
			c0,0.7,0.1,1.2,0.3,1.7c0.7,1.6,2.3,2.1,3.9,2.1c0.2,0,0.5,0,0.9-0.1c0.8-0.1,1.8-0.3,2.7-1c1.9-1.4,2.4-4.3,2.4-5.7
			C148,50.6,147.9,49.3,147,48.4 M143.3,55.1c-0.1,0.2-0.3,0.4-0.5,0.6c-0.2,0.2-0.4,0.3-0.7,0.3c-0.9,0-0.9-0.8-0.9-1.2
			c0-1.4,0.7-3.6,1.1-4.4c0.1-0.2,0.3-0.6,0.6-0.8c0.2-0.2,0.5-0.3,0.8-0.3c0.9,0,0.9,0.9,0.9,1.2C144.5,51.5,144,53.8,143.3,55.1
			 M136.2,49.6c0.6,0,1,0,1.4,0l0.2-0.1c0.1-0.4,0.2-0.7,0.3-1c0.1-0.2,0.2-0.5,0.3-0.9l-0.1-0.1l-0.2,0c-0.5,0-0.8,0-1.4,0l0.5-1.6
			l0.5-1.5l-0.1-0.1c-1.5,0.4-2,0.5-3.5,0.8l-0.2,0.1c-0.2,1.1-0.3,1.3-0.6,2.4c-0.5,0-0.5,0-1,0l-0.1,0.1c-0.2,0.8-0.3,1-0.5,1.6
			l-0.1,0.3l0.1,0.1h0c0.5,0,0.6,0,1.1,0l-1,3.6l-0.1,0.4c-0.2,0.7-0.4,1.5-0.4,2.1c0,0.6,0.1,1,0.4,1.3c0.1,0.2,0.3,0.3,0.5,0.4
			c0.4,0.2,1,0.4,1.9,0.4c0.4,0,1,0,1.6-0.2l0.2-0.1c0.2-0.9,0.3-1.1,0.6-2l-0.1,0c-0.4,0.1-0.6,0.1-0.8,0.1c-0.2,0-0.7-0.1-0.7-0.7
			c0-0.3,0.1-0.8,0.4-1.9L136.2,49.6z M125.8,46.7l0.1-0.4c0.3-0.8,0.6-2,1-3.2l-0.1-0.1c-0.4,0.1-0.7,0.1-1,0.2
			c-0.8,0.1-1.2,0.2-2.6,0.4l-0.2,0.1c-0.1,0.3-0.4,1.9-0.5,2.2l-0.4,1.6c-0.5,0-0.8,0-1.1,0c-0.4,0-0.8,0-1.3,0.1
			c-0.9,0.1-1.9,0.5-2.9,1.3c-1.7,1.5-2.6,4-2.6,5.9c0,0.3,0,0.7,0.1,1c0.1,0.6,0.4,1.5,1.5,1.9c0.4,0.2,0.9,0.2,1.2,0.2
			c1.1,0,1.9-0.4,2.6-1c0,0,0.1-0.1,0.1-0.1l-0.1,0.5l-0.1,0.4l0.1,0.1h0c1.3-0.1,1.7-0.1,3.1-0.1l0.1-0.1c0.3-1.6,1.1-4.8,1.7-7
			L125.8,46.7z M120.2,55c0,0.1-0.2,0.3-0.4,0.4c-0.1,0.1-0.2,0.1-0.2,0.1c-0.2,0.1-0.4,0.1-0.6,0.1c-1,0-1-1-1-1.3
			c0-1,0.6-3.4,1.8-4.4c0.1-0.1,0.2-0.2,0.3-0.2c0.5-0.3,1-0.3,1.5-0.3L120.2,55z M131.7,44.6c0.1-0.4,0.2-0.7,0.4-1.3l-0.2-0.1
			l-0.2,0c-1.4,0.2-1.8,0.2-3.1,0.4l-0.2,0.1c-0.2,0.9-0.3,1.2-0.6,2.3l0.1,0.1c1.1-0.1,2-0.3,3.3-0.4l0.2-0.2
			C131.6,45.1,131.6,44.8,131.7,44.6 M127.3,47.8l-0.2,0.1c-0.2,1.5-0.5,2.5-0.7,3.6l-0.2,1c-0.2,0.6-0.3,1.1-0.4,1.5
			c-0.4,1.5-0.6,2.2-1.1,3.7l0.1,0.1c0.4,0,0.7,0,1,0c0.9,0,1.5,0,2.7,0l0.2-0.1c0.1-0.5,0.1-0.7,0.3-1.8c0.1-0.5,0.2-1.1,0.4-1.6
			l0.4-1.4c0.3-1.2,0.6-2.4,0.9-3.6c0.1-0.5,0.4-1.3,0.5-1.8l-0.1-0.1C129.5,47.5,129,47.6,127.3,47.8 M59.9,46.4
			c0.9,0,1.7,0.3,2.3,0.8l0.2-0.1c0.2-0.6,0.3-0.9,0.4-1.2c0.1-0.3,0.2-0.6,0.4-1.1l-0.1-0.1c-0.1-0.1-0.2-0.1-0.3-0.1
			c-1.4-0.6-2.8-0.7-3.4-0.7c-1.1,0-4.4,0.2-6.5,3.6c-1,1.5-1.5,3.4-1.5,5c0,3.3,2,5.5,6,5.5c0.5,0,1.9-0.1,2.6-0.3
			c0.1,0,0.2-0.1,0.2-0.1l0.2-0.2c0.3-1.2,0.4-1.3,0.8-2.5L61,54.8c-0.9,0.5-2,0.6-2.5,0.6c-2.3,0-3.3-1.4-3.3-3.2
			C55.2,50,56.6,46.4,59.9,46.4 M68.4,47.3c-0.3,0-0.6,0-0.9,0.1c-2.4,0.3-3.5,1.8-3.9,2.5c-0.3,0.5-0.6,1.2-0.8,1.8
			c-0.3,0.9-0.4,1.7-0.4,2.5c0,0.8,0.1,1.4,0.4,1.9c0.7,1.5,2.3,1.9,3.8,1.9c0.2,0,0.5,0,0.9-0.1c0.8-0.1,1.8-0.3,2.7-1
			c1.9-1.4,2.4-4.3,2.4-5.7c0-0.5,0-1.8-0.9-2.7C70.6,47.3,69,47.3,68.4,47.3 M68,55.1c-0.1,0.2-0.3,0.4-0.5,0.6
			c-0.2,0.2-0.4,0.3-0.7,0.3c-0.9,0-0.9-0.8-0.9-1.2c0-1.4,0.7-3.6,1.1-4.4c0.1-0.2,0.3-0.6,0.6-0.8c0.2-0.2,0.5-0.3,0.8-0.3
			c0.9,0,0.9,0.9,0.9,1.2C69.2,51.5,68.7,53.8,68,55.1 M81.7,47.3c-0.5,0-1.7,0.1-3.1,1.3l0.4-1.2l-0.1-0.1
			c-1.6,0.3-1.9,0.3-3.5,0.5l-0.2,0.1c-0.3,2-0.7,3.5-1.1,5.1l-0.3,1.3c-0.2,0.5-0.3,1-0.4,1.5c-0.2,0.6-0.4,1.4-0.5,1.8l0.1,0.1
			c1.4,0,1.9-0.1,3.4-0.1l0.2-0.1c0.5-2,1.1-4.7,1.8-7.3c0.4-0.5,1-0.6,1.2-0.6c0.2,0,0.8,0,0.8,0.8c0,0.3-0.1,0.7-0.4,2l-0.5,2
			c-0.3,1.2-0.4,1.6-0.9,3.2l0.1,0.1c1.4,0,1.8-0.1,3.4-0.1l0.2-0.1c0.1-0.4,0.1-0.5,0.2-1.2c0.1-0.4,0.2-0.8,0.3-1.3l0.3-1.3
			c0.2-0.9,0.5-1.9,0.7-2.9c0.1-0.5,0.3-1.1,0.3-1.7C84,47.9,82.8,47.3,81.7,47.3"/>
		<path class="st6" d="M182.2,63.8L182.2,63.8c-0.8,0-1.5,0.6-1.5,1.4c0,0.8,0.7,1.5,1.5,1.5c0.8,0,1.5-0.6,1.5-1.5
			C183.7,64.4,183,63.8,182.2,63.8 M182.2,66.4c-0.6,0-1.1-0.5-1.1-1.2c0-0.6,0.5-1.2,1.1-1.2h0c0.6,0,1.1,0.5,1.1,1.2
			C183.3,65.9,182.8,66.4,182.2,66.4"/>
		<path class="st6" d="M182.5,65.3L182.5,65.3c0.2-0.1,0.3-0.2,0.3-0.4c0-0.1-0.1-0.2-0.1-0.3c-0.1-0.1-0.2-0.1-0.5-0.1
			c-0.2,0-0.4,0-0.6,0V66h0.3v-0.6h0.2c0.2,0,0.3,0.1,0.3,0.2c0,0.2,0.1,0.3,0.1,0.4h0.4c0,0-0.1-0.1-0.1-0.4
			C182.7,65.5,182.7,65.3,182.5,65.3 M182.1,65.2H182v-0.4c0,0,0.1,0,0.2,0c0.2,0,0.3,0.1,0.3,0.2C182.5,65.1,182.3,65.2,182.1,65.2
			"/>
		<path class="st6" d="M186.5,50.2c0-9.9-8-17.9-17.9-17.9c-9.9,0-17.9,8-17.9,17.9c0,9.9,8,17.9,17.9,17.9
			C178.5,68.1,186.5,60,186.5,50.2 M184.8,50.2c0,2.2-0.4,4.3-1.2,6.2L170.7,62l-14.5-9.7l0,0c-0.2-0.1-0.4-0.4-0.4-0.6
			c-0.1-0.2,0-0.5,0.1-0.7l0,0c0.1-0.2,0.4-0.4,0.6-0.4c0.3-0.1,0.5,0,0.7,0.1l0,0l0,0l0.6,0.3l1.3,0.7l2.8,1.4l1.6,0.8
			c0,0.1,0,0.1-0.1,0.2c0,0.1-0.1,0.1-0.1,0.2c-0.1,0.2-0.2,0.5-0.3,0.7l-0.2,0.6l0.6,0.3l6.6,3.5l0.3,0.2l0.3-0.1l6.4-2.7l-0.7-1.3
			l-6,2.4l0,0l0,0l-1.4-0.7l-4.2-2.2l0,0l0,0l0,0c0,0,0.1-0.1,0.1-0.1c0.1-0.2,0.2-0.4,0.4-0.6c0.4-0.6,1-0.9,1.9-0.8
			c1,0.3,2,0.8,3.1,0.8c0.2,0,0.4,0,0.6-0.1l-0.1,0c1.1-0.2,2-0.9,2.4-1.4c0.2-0.3,0.4-0.5,0.4-0.5c0.2-0.3,0.5-0.5,0.7-0.7
			c0.8-0.7,1.7-1.2,2.4-1.4c0.5-0.2,0.9-0.3,1.3-0.3c0.6-0.1,1.1,0,1.1,0l0.1,0h0h5.4C184.8,49.7,184.8,50,184.8,50.2 M161.8,47
			c0.4,0,1.6,0,2.5-0.3v1c-0.3,0.2-1.2,0.4-2.5,0.4c-1.3,0-2.2-0.2-2.5-0.4v-1C160.2,47,161.4,47,161.8,47 M159.7,45.2
			c0-0.3,0.9-0.5,2.1-0.5c1.2,0,2.1,0.2,2.1,0.5c0,0.3-0.9,0.5-2.1,0.5C160.6,45.7,159.7,45.5,159.7,45.2 M161.8,49.5
			c0.4,0,1.6,0,2.5-0.3v1c-0.3,0.2-1.2,0.4-2.5,0.4c-0.5,0-0.9,0-1.2-0.1l-1-0.5l-0.3-0.2v-0.7C160.2,49.4,161.4,49.5,161.8,49.5
			 M164.3,51.6v0.9l-1.2-0.6C163.5,51.8,163.9,51.7,164.3,51.6 M168.1,42.1c0.4,0,1.6,0,2.5-0.3v1c-0.3,0.2-1.2,0.4-2.5,0.4
			c-1.3,0-2.2-0.2-2.5-0.4v-1C166.5,42,167.7,42.1,168.1,42.1 M166,40.2c0-0.3,0.9-0.5,2.1-0.5c1.2,0,2.1,0.2,2.1,0.5
			c0,0.3-0.9,0.5-2.1,0.5C166.9,40.7,166,40.5,166,40.2 M168.1,44.5c0.4,0,1.6,0,2.5-0.3v1c-0.3,0.2-1.2,0.4-2.5,0.4
			c-1.3,0-2.2-0.2-2.5-0.4v-1C166.5,44.5,167.7,44.5,168.1,44.5 M168.1,47c0.4,0,1.6,0,2.5-0.3v1c-0.3,0.2-1.2,0.4-2.5,0.4
			c-1.3,0-2.2-0.2-2.5-0.4v-1C166.5,46.9,167.7,47,168.1,47 M168.1,49.4c0.4,0,1.6,0,2.5-0.3v1c-0.3,0.2-1.2,0.4-2.5,0.4
			c-1.3,0-2.2-0.2-2.5-0.4v-1C166.5,49.4,167.7,49.4,168.1,49.4 M170.6,51.5v1c0,0-0.1,0-0.1,0c-0.5,0-1.2-0.5-2.1-0.8
			C168.9,51.8,169.8,51.8,170.6,51.5 M174.4,45.2c0.4,0,1.5,0,2.5-0.3v1c-0.3,0.2-1.2,0.4-2.5,0.4s-2.2-0.2-2.5-0.4v-1
			C172.9,45.2,174.1,45.2,174.4,45.2 M172.3,43.4c0-0.3,0.9-0.5,2.1-0.5c1.2,0,2.1,0.2,2.1,0.5c0,0.3-0.9,0.5-2.1,0.5
			C173.3,43.9,172.3,43.7,172.3,43.4 M174.4,47.7c0.4,0,1.5,0,2.5-0.3v0.8c-0.4,0.1-0.8,0.2-1.2,0.4c-0.1,0-0.1,0.1-0.2,0.1
			c-0.3,0-0.7,0.1-1.1,0.1c-1.3,0-2.2-0.2-2.5-0.4v-1C172.9,47.6,174.1,47.7,174.4,47.7 M173.8,50.1c-0.4,0.3-0.8,0.7-1.1,1
			c-0.4-0.1-0.6-0.2-0.8-0.2v-1C172.6,50,173.3,50.1,173.8,50.1 M168.6,66.3c-4.5,0-8.5-1.8-11.4-4.7c-2.9-2.9-4.7-7-4.7-11.4
			c0-4.5,1.8-8.5,4.7-11.4c2.9-2.9,7-4.7,11.4-4.7c4.5,0,8.5,1.8,11.4,4.7c2.4,2.4,4.1,5.6,4.6,9.2h-5.2c-0.2,0-0.6,0-1.2,0v-1.8v0
			v-2.4c0,0,0-0.1,0-0.1c0-0.1,0-0.1,0-0.2c0-1.5-3.2-1.6-3.8-1.6c-0.8,0-1.8,0.1-2.5,0.3v-1.7c0,0,0-0.1,0-0.1c0-0.1,0-0.1,0-0.2
			c0-1.5-3.2-1.6-3.8-1.6c-1.3,0-2.9,0.2-3.5,0.8c-0.3,0.3-0.3,0.5-0.3,0.7c0,0.1,0,0.1,0,0.2c0,0,0,0.1,0,0.1V43v0v1
			c-1-0.3-2.1-0.3-2.5-0.3c-1.3,0-2.9,0.2-3.5,0.9c-0.3,0.3-0.3,0.5-0.3,0.7c0,0.1,0,0.1,0,0.1c0,0,0,0.1,0,0.1v2.4v0v1.3
			c-0.6-0.3-1.2-0.4-1.8-0.3c-0.6,0.1-1.2,0.5-1.6,1.1h0c-0.4,0.6-0.5,1.3-0.3,1.9c0.1,0.6,0.5,1.2,1.1,1.6l14.9,10l0.4,0.2l0.4-0.2
			l11.5-5c-0.7,1.1-1.5,2.1-2.4,3C177.1,64.5,173.1,66.3,168.6,66.3"/>
	</g>
</g>
</svg>
