<?xml version="1.0" encoding="utf-8"?>
<!-- Generator: Adobe Illustrator 25.2.1, SVG Export Plug-In . SVG Version: 6.00 Build 0)  -->
<svg version="1.1" id="Capa_1" xmlns="http://www.w3.org/2000/svg" xmlns:xlink="http://www.w3.org/1999/xlink" x="0px" y="0px"
	 viewBox="0 0 397.4 385.6" style="enable-background:new 0 0 397.4 385.6;" xml:space="preserve">
<style type="text/css">
	.st0{fill:#EF7B10;}
	
		.st1{clip-path:url(#SVGID_2_);fill:none;stroke:#4B5B6D;stroke-linecap:round;stroke-linejoin:round;stroke-miterlimit:10;stroke-dasharray:0,2.99;}
	.st2{clip-path:url(#SVGID_2_);fill:none;stroke:#4B5B6D;stroke-linecap:round;stroke-linejoin:round;stroke-miterlimit:10;}
	
		.st3{clip-path:url(#SVGID_2_);fill:none;stroke:#4B5B6D;stroke-linecap:round;stroke-linejoin:round;stroke-miterlimit:10;stroke-dasharray:0,2.989;}
	.st4{fill:none;stroke:#EF7B10;stroke-width:18;stroke-miterlimit:10;}
	.st5{fill:#FFFFFF;}
	.st6{fill:none;stroke:#F8B375;stroke-width:18;stroke-miterlimit:10;}
	.st7{fill:#F8B375;}
	.st8{clip-path:url(#SVGID_4_);fill:none;stroke:#FBCEA4;stroke-width:18;stroke-miterlimit:10;}
	.st9{fill:#FBCEA4;}
	.st10{fill:none;stroke:#6F7C8B;stroke-miterlimit:10;}
	.st11{fill:none;stroke:#6F7C8B;stroke-width:1.5;stroke-miterlimit:10;}
	.st12{clip-path:url(#SVGID_6_);fill:#FBCEA4;}
	.st13{clip-path:url(#SVGID_6_);fill:#EF7B10;}
	.st14{clip-path:url(#SVGID_6_);fill:#F8B375;}
</style>
<g>
	<g>
		<path class="st0" d="M65.5,33.7c0,1.2-0.3,2.3-0.8,3.3s-1.3,1.7-2.1,2.2c-0.6,0.4-1.3,0.7-2.1,0.8s-1.7,0.2-2.7,0.2h-4.6V27.2h4.7
			c1.1,0,2,0.1,2.8,0.3s1.4,0.4,2,0.8c0.9,0.6,1.6,1.3,2.1,2.2S65.5,32.5,65.5,33.7z M62,33.7c0-0.9-0.2-1.6-0.5-2.2
			s-0.8-1.1-1.5-1.4c-0.3-0.2-0.7-0.3-1.1-0.3s-0.9-0.1-1.6-0.1h-0.9v8.2h0.9c0.8,0,1.4,0,1.8-0.1s0.7-0.2,1.1-0.4
			c0.6-0.4,1.1-0.8,1.4-1.4S62,34.6,62,33.7z"/>
		<path class="st0" d="M71.2,29h-3.3v-2.4h3.3V29z M71.1,40.3h-3.2v-9.9h3.2V40.3z"/>
		<path class="st0" d="M81.2,33.4h-0.3c-0.1,0-0.4-0.1-0.6-0.1s-0.5,0-0.7,0c-0.5,0-0.8,0-1.2,0.1c-0.3,0.1-0.7,0.2-1.1,0.3v6.6
			h-3.2v-9.9h3.2v1.5c0.7-0.6,1.3-1,1.8-1.2c0.5-0.2,1-0.3,1.4-0.3c0.1,0,0.2,0,0.4,0c0.1,0,0.3,0,0.4,0V33.4z"/>
		<path class="st0" d="M92.7,35.9h-7.2c0,0.8,0.3,1.4,0.9,1.8s1.3,0.6,2.4,0.6c0.7,0,1.3-0.1,1.9-0.4s1.1-0.5,1.5-0.8h0.4v2.5
			c-0.7,0.3-1.4,0.5-2,0.6s-1.3,0.2-2.1,0.2c-2,0-3.5-0.4-4.6-1.3s-1.6-2.2-1.6-3.8c0-1.6,0.5-2.9,1.5-3.9s2.4-1.4,4.1-1.4
			c1.6,0,2.8,0.4,3.6,1.2s1.2,2,1.2,3.5V35.9z M89.6,34.1c0-0.7-0.2-1.2-0.5-1.5s-0.8-0.5-1.5-0.5c-0.6,0-1.1,0.2-1.5,0.5
			s-0.6,0.8-0.7,1.5H89.6z"/>
		<path class="st0" d="M100.1,40.5c-0.9,0-1.6-0.1-2.4-0.3s-1.3-0.5-1.9-0.9c-0.5-0.4-0.9-1-1.2-1.6s-0.4-1.4-0.4-2.3
			c0-0.9,0.2-1.7,0.5-2.4s0.7-1.2,1.3-1.7c0.5-0.4,1.1-0.7,1.8-0.9s1.4-0.3,2.2-0.3c0.7,0,1.3,0.1,1.9,0.2s1.1,0.3,1.6,0.6v2.7H103
			c-0.1-0.1-0.3-0.2-0.4-0.4c-0.2-0.1-0.4-0.3-0.6-0.4c-0.2-0.1-0.5-0.2-0.8-0.3s-0.6-0.1-1-0.1c-0.8,0-1.5,0.3-1.9,0.8
			c-0.5,0.5-0.7,1.3-0.7,2.2c0,0.9,0.2,1.7,0.7,2.2c0.5,0.5,1.1,0.7,2,0.7c0.4,0,0.8,0,1.1-0.1c0.3-0.1,0.6-0.2,0.8-0.3
			c0.2-0.1,0.4-0.2,0.5-0.4c0.2-0.1,0.3-0.3,0.4-0.4h0.4v2.7c-0.5,0.2-1,0.4-1.6,0.6S100.7,40.5,100.1,40.5z"/>
		<path class="st0" d="M111.9,40.2c-0.3,0.1-0.7,0.2-1.1,0.2c-0.4,0-0.8,0.1-1.4,0.1c-1.2,0-2.1-0.2-2.7-0.7s-0.9-1.4-0.9-2.6v-4.6
			h-1.3v-2.1h1.3v-2.8h3.2v2.8h3v2.1h-3V36c0,0.3,0,0.6,0,0.9s0.1,0.5,0.1,0.7c0.1,0.2,0.2,0.4,0.4,0.5c0.2,0.1,0.5,0.2,0.9,0.2
			c0.2,0,0.4,0,0.6-0.1c0.3-0.1,0.5-0.1,0.6-0.2h0.3V40.2z"/>
		<path class="st0" d="M117,29h-3.3v-2.4h3.3V29z M116.9,40.3h-3.2v-9.9h3.2V40.3z"/>
		<path class="st0" d="M129.8,30.4l-3.8,9.9h-3.6l-3.8-9.9h3.3l2.3,6.8l2.3-6.8H129.8z"/>
		<path class="st0" d="M141.7,35.3c0,1.6-0.5,2.9-1.4,3.8s-2.3,1.4-4,1.4s-3-0.5-4-1.4s-1.4-2.2-1.4-3.8c0-1.6,0.5-2.9,1.4-3.8
			s2.3-1.4,4-1.4c1.7,0,3.1,0.5,4,1.4S141.7,33.7,141.7,35.3z M137.8,37.7c0.2-0.3,0.4-0.6,0.5-0.9s0.2-0.8,0.2-1.5
			c0-0.6-0.1-1.1-0.2-1.5s-0.3-0.7-0.4-0.9c-0.2-0.2-0.4-0.4-0.7-0.5s-0.5-0.1-0.9-0.1s-0.6,0-0.8,0.1s-0.5,0.2-0.7,0.5
			c-0.2,0.2-0.3,0.5-0.5,0.9s-0.2,0.9-0.2,1.5c0,0.5,0,1,0.1,1.4s0.2,0.7,0.4,1c0.2,0.2,0.4,0.4,0.7,0.5s0.6,0.2,0.9,0.2
			c0.3,0,0.6,0,0.8-0.1S137.6,38,137.8,37.7z"/>
		<path class="st0" d="M152.5,37.1c0,1-0.5,1.8-1.4,2.5s-2.2,0.9-3.8,0.9c-0.9,0-1.7-0.1-2.4-0.2s-1.3-0.3-1.7-0.5v-2.6h0.3
			c0.2,0.1,0.3,0.2,0.5,0.4s0.5,0.3,0.9,0.4c0.3,0.1,0.7,0.3,1.1,0.3s0.9,0.1,1.3,0.1c0.6,0,1.1-0.1,1.4-0.2s0.4-0.3,0.4-0.6
			c0-0.2-0.1-0.4-0.3-0.5s-0.5-0.2-1-0.3c-0.2-0.1-0.6-0.1-1-0.2s-0.8-0.1-1.1-0.2c-0.9-0.2-1.6-0.6-2-1.1s-0.7-1.1-0.7-1.9
			c0-0.9,0.4-1.7,1.3-2.4s2.1-0.9,3.7-0.9c0.7,0,1.4,0.1,2.1,0.2s1.2,0.3,1.6,0.5v2.5h-0.3c-0.5-0.3-1-0.6-1.6-0.8s-1.2-0.3-1.8-0.3
			c-0.5,0-0.9,0.1-1.3,0.2s-0.5,0.3-0.5,0.6c0,0.2,0.1,0.4,0.2,0.5s0.5,0.2,1.1,0.4c0.3,0.1,0.7,0.1,1,0.2s0.7,0.1,1.1,0.2
			c0.8,0.2,1.4,0.6,1.8,1S152.5,36.4,152.5,37.1z"/>
		<path class="st0" d="M165.9,40.5c-0.9,0-1.6-0.1-2.4-0.3s-1.3-0.5-1.9-0.9c-0.5-0.4-0.9-1-1.2-1.6s-0.4-1.4-0.4-2.3
			c0-0.9,0.2-1.7,0.5-2.4s0.7-1.2,1.3-1.7c0.5-0.4,1.1-0.7,1.8-0.9s1.4-0.3,2.2-0.3c0.7,0,1.3,0.1,1.9,0.2s1.1,0.3,1.6,0.6v2.7h-0.4
			c-0.1-0.1-0.3-0.2-0.4-0.4c-0.2-0.1-0.4-0.3-0.6-0.4c-0.2-0.1-0.5-0.2-0.8-0.3s-0.6-0.1-1-0.1c-0.8,0-1.5,0.3-1.9,0.8
			c-0.5,0.5-0.7,1.3-0.7,2.2c0,0.9,0.2,1.7,0.7,2.2c0.5,0.5,1.1,0.7,2,0.7c0.4,0,0.8,0,1.1-0.1c0.3-0.1,0.6-0.2,0.8-0.3
			c0.2-0.1,0.4-0.2,0.5-0.4c0.2-0.1,0.3-0.3,0.4-0.4h0.4v2.7c-0.5,0.2-1,0.4-1.6,0.6S166.6,40.5,165.9,40.5z"/>
		<path class="st0" d="M181.5,35.3c0,1.6-0.5,2.9-1.4,3.8s-2.3,1.4-4,1.4s-3-0.5-4-1.4s-1.4-2.2-1.4-3.8c0-1.6,0.5-2.9,1.4-3.8
			s2.3-1.4,4-1.4c1.7,0,3.1,0.5,4,1.4S181.5,33.7,181.5,35.3z M177.6,37.7c0.2-0.3,0.4-0.6,0.5-0.9s0.2-0.8,0.2-1.5
			c0-0.6-0.1-1.1-0.2-1.5s-0.3-0.7-0.4-0.9c-0.2-0.2-0.4-0.4-0.7-0.5s-0.5-0.1-0.9-0.1s-0.6,0-0.8,0.1s-0.5,0.2-0.7,0.5
			c-0.2,0.2-0.3,0.5-0.5,0.9s-0.2,0.9-0.2,1.5c0,0.5,0,1,0.1,1.4s0.2,0.7,0.4,1c0.2,0.2,0.4,0.4,0.7,0.5s0.6,0.2,0.9,0.2
			c0.3,0,0.6,0,0.8-0.1S177.4,38,177.6,37.7z"/>
		<path class="st0" d="M193.6,40.3h-3.2v-4.9c0-0.4,0-0.8-0.1-1.2s-0.1-0.7-0.2-0.9c-0.1-0.2-0.3-0.4-0.5-0.5s-0.5-0.1-0.9-0.1
			c-0.3,0-0.6,0-0.9,0.1s-0.6,0.2-1,0.4v7h-3.2v-9.9h3.2v1.1c0.6-0.4,1.1-0.8,1.6-1c0.5-0.2,1.1-0.4,1.7-0.4c1.1,0,1.9,0.3,2.5,0.9
			c0.6,0.6,0.9,1.5,0.9,2.8V40.3z"/>
		<path class="st0" d="M202.9,40.2c-0.3,0.1-0.7,0.2-1.1,0.2c-0.4,0-0.8,0.1-1.4,0.1c-1.2,0-2.1-0.2-2.7-0.7s-0.9-1.4-0.9-2.6v-4.6
			h-1.3v-2.1h1.3v-2.8h3.2v2.8h3v2.1h-3V36c0,0.3,0,0.6,0,0.9s0.1,0.5,0.1,0.7c0.1,0.2,0.2,0.4,0.4,0.5c0.2,0.1,0.5,0.2,0.9,0.2
			c0.2,0,0.4,0,0.6-0.1c0.3-0.1,0.5-0.1,0.6-0.2h0.3V40.2z"/>
		<path class="st0" d="M211.9,33.4h-0.3c-0.1,0-0.4-0.1-0.6-0.1c-0.3,0-0.5,0-0.7,0c-0.5,0-0.8,0-1.2,0.1s-0.7,0.2-1.1,0.3v6.6h-3.2
			v-9.9h3.2v1.5c0.7-0.6,1.3-1,1.8-1.2c0.5-0.2,1-0.3,1.4-0.3c0.1,0,0.2,0,0.4,0c0.1,0,0.3,0,0.4,0V33.4z"/>
		<path class="st0" d="M219.7,39.2c-0.2,0.1-0.4,0.3-0.6,0.5s-0.5,0.3-0.7,0.4c-0.3,0.1-0.6,0.2-1,0.3s-0.7,0.1-1.1,0.1
			c-0.9,0-1.7-0.3-2.4-0.9s-0.9-1.3-0.9-2.2c0-0.7,0.2-1.3,0.5-1.8s0.8-0.8,1.4-1.1c0.6-0.3,1.3-0.5,2.2-0.6s1.8-0.2,2.7-0.2v-0.1
			c0-0.5-0.2-0.9-0.7-1.1s-1.1-0.3-2-0.3c-0.5,0-1.1,0.1-1.7,0.3s-1,0.3-1.3,0.4h-0.3v-2.4c0.3-0.1,0.9-0.2,1.6-0.3s1.5-0.2,2.3-0.2
			c1.8,0,3.1,0.3,3.9,0.8s1.2,1.4,1.2,2.6v6.7h-3.1V39.2z M219.7,37.7v-2c-0.4,0-0.9,0.1-1.4,0.1c-0.5,0.1-0.9,0.1-1.1,0.2
			c-0.3,0.1-0.6,0.2-0.7,0.4s-0.2,0.4-0.2,0.7c0,0.2,0,0.4,0.1,0.5s0.1,0.3,0.3,0.4c0.1,0.1,0.3,0.2,0.5,0.3
			c0.2,0.1,0.5,0.1,0.9,0.1c0.3,0,0.6-0.1,1-0.2C219.1,38.1,219.4,37.9,219.7,37.7z"/>
		<path class="st0" d="M232,40.2c-0.3,0.1-0.7,0.2-1.1,0.2c-0.4,0-0.8,0.1-1.4,0.1c-1.2,0-2.1-0.2-2.7-0.7s-0.9-1.4-0.9-2.6v-4.6
			h-1.3v-2.1h1.3v-2.8h3.2v2.8h3v2.1h-3V36c0,0.3,0,0.6,0,0.9s0.1,0.5,0.1,0.7c0.1,0.2,0.2,0.4,0.4,0.5c0.2,0.1,0.5,0.2,0.9,0.2
			c0.2,0,0.4,0,0.6-0.1c0.3-0.1,0.5-0.1,0.6-0.2h0.3V40.2z"/>
		<path class="st0" d="M239.9,39.2c-0.2,0.1-0.4,0.3-0.6,0.5s-0.5,0.3-0.7,0.4c-0.3,0.1-0.6,0.2-1,0.3s-0.7,0.1-1.1,0.1
			c-0.9,0-1.7-0.3-2.4-0.9s-0.9-1.3-0.9-2.2c0-0.7,0.2-1.3,0.5-1.8s0.8-0.8,1.4-1.1c0.6-0.3,1.3-0.5,2.2-0.6s1.8-0.2,2.7-0.2v-0.1
			c0-0.5-0.2-0.9-0.7-1.1s-1.1-0.3-2-0.3c-0.5,0-1.1,0.1-1.7,0.3s-1,0.3-1.3,0.4H234v-2.4c0.3-0.1,0.9-0.2,1.6-0.3s1.5-0.2,2.3-0.2
			c1.8,0,3.1,0.3,3.9,0.8s1.2,1.4,1.2,2.6v6.7h-3.1V39.2z M239.9,37.7v-2c-0.4,0-0.9,0.1-1.4,0.1c-0.5,0.1-0.9,0.1-1.1,0.2
			c-0.3,0.1-0.6,0.2-0.7,0.4s-0.2,0.4-0.2,0.7c0,0.2,0,0.4,0.1,0.5s0.1,0.3,0.3,0.4c0.1,0.1,0.3,0.2,0.5,0.3
			c0.2,0.1,0.5,0.1,0.9,0.1c0.3,0,0.6-0.1,1-0.2C239.4,38.1,239.7,37.9,239.9,37.7z"/>
		<path class="st0" d="M255.5,40.3h-3.2v-1c-0.5,0.4-1.1,0.8-1.5,1c-0.5,0.2-1,0.3-1.6,0.3c-1.2,0-2.2-0.5-2.9-1.4
			c-0.7-0.9-1.1-2.2-1.1-3.7c0-0.8,0.1-1.6,0.4-2.2c0.2-0.6,0.6-1.2,1-1.7c0.4-0.4,0.9-0.8,1.4-1s1.1-0.4,1.7-0.4
			c0.6,0,1.1,0.1,1.5,0.2c0.4,0.1,0.8,0.3,1.2,0.5v-4.2h3.2V40.3z M252.4,37.5v-4.9c-0.2-0.1-0.5-0.2-0.7-0.2
			c-0.2,0-0.5-0.1-0.7-0.1c-0.8,0-1.5,0.3-1.9,0.8c-0.4,0.5-0.6,1.2-0.6,2.2c0,1,0.2,1.7,0.5,2.1c0.3,0.4,0.9,0.7,1.6,0.7
			c0.3,0,0.6-0.1,0.9-0.2C251.8,37.9,252.1,37.7,252.4,37.5z"/>
		<path class="st0" d="M268.6,35.3c0,1.6-0.5,2.9-1.4,3.8s-2.3,1.4-4,1.4s-3-0.5-4-1.4s-1.4-2.2-1.4-3.8c0-1.6,0.5-2.9,1.4-3.8
			s2.3-1.4,4-1.4c1.7,0,3.1,0.5,4,1.4S268.6,33.7,268.6,35.3z M264.7,37.7c0.2-0.3,0.4-0.6,0.5-0.9s0.2-0.8,0.2-1.5
			c0-0.6-0.1-1.1-0.2-1.5s-0.3-0.7-0.4-0.9c-0.2-0.2-0.4-0.4-0.7-0.5s-0.5-0.1-0.9-0.1s-0.6,0-0.8,0.1s-0.5,0.2-0.7,0.5
			c-0.2,0.2-0.3,0.5-0.5,0.9s-0.2,0.9-0.2,1.5c0,0.5,0,1,0.1,1.4s0.2,0.7,0.4,1c0.2,0.2,0.4,0.4,0.7,0.5s0.6,0.2,0.9,0.2
			c0.3,0,0.6,0,0.8-0.1S264.5,38,264.7,37.7z"/>
		<path class="st0" d="M279.5,37.1c0,1-0.5,1.8-1.4,2.5s-2.2,0.9-3.8,0.9c-0.9,0-1.7-0.1-2.4-0.2s-1.3-0.3-1.7-0.5v-2.6h0.3
			c0.2,0.1,0.3,0.2,0.5,0.4s0.5,0.3,0.9,0.4c0.3,0.1,0.7,0.3,1.1,0.3s0.9,0.1,1.3,0.1c0.6,0,1.1-0.1,1.4-0.2s0.4-0.3,0.4-0.6
			c0-0.2-0.1-0.4-0.3-0.5s-0.5-0.2-1-0.3c-0.2-0.1-0.6-0.1-1-0.2s-0.8-0.1-1.1-0.2c-0.9-0.2-1.6-0.6-2-1.1s-0.7-1.1-0.7-1.9
			c0-0.9,0.4-1.7,1.3-2.4s2.1-0.9,3.7-0.9c0.7,0,1.4,0.1,2.1,0.2s1.2,0.3,1.6,0.5v2.5h-0.3c-0.5-0.3-1-0.6-1.6-0.8s-1.2-0.3-1.8-0.3
			c-0.5,0-0.9,0.1-1.3,0.2s-0.5,0.3-0.5,0.6c0,0.2,0.1,0.4,0.2,0.5s0.5,0.2,1.1,0.4c0.3,0.1,0.7,0.1,1,0.2s0.7,0.1,1.1,0.2
			c0.8,0.2,1.4,0.6,1.8,1S279.5,36.4,279.5,37.1z"/>
	</g>
	<g>
		<path class="st0" d="M55.1,64.3h-2.5V53.6h2.5V64.3z"/>
		<path class="st0" d="M65.3,60.4c0,1.3-0.4,2.3-1.1,3s-1.8,1.1-3.1,1.1s-2.4-0.4-3.1-1.1s-1.1-1.7-1.1-3c0-1.3,0.4-2.3,1.1-3
			s1.8-1.1,3.1-1.1c1.3,0,2.4,0.4,3.1,1.1S65.3,59.2,65.3,60.4z M62.2,62.3c0.2-0.2,0.3-0.4,0.4-0.7s0.1-0.7,0.1-1.1
			c0-0.5,0-0.8-0.1-1.1s-0.2-0.5-0.3-0.7c-0.1-0.2-0.3-0.3-0.5-0.4s-0.4-0.1-0.7-0.1s-0.4,0-0.6,0.1s-0.4,0.2-0.5,0.4
			c-0.2,0.2-0.3,0.4-0.4,0.7s-0.1,0.7-0.1,1.2c0,0.4,0,0.8,0.1,1.1s0.2,0.6,0.3,0.7c0.1,0.2,0.3,0.3,0.5,0.4s0.4,0.1,0.7,0.1
			c0.2,0,0.4,0,0.6-0.1S62.1,62.5,62.2,62.3z"/>
		<path class="st0" d="M71,64.5c-0.7,0-1.3-0.1-1.8-0.2s-1-0.4-1.4-0.7c-0.4-0.3-0.7-0.8-0.9-1.3s-0.3-1.1-0.3-1.8
			c0-0.7,0.1-1.3,0.4-1.9s0.6-1,1-1.3c0.4-0.3,0.9-0.6,1.4-0.7s1.1-0.2,1.7-0.2c0.5,0,1,0.1,1.4,0.2s0.9,0.3,1.2,0.4v2.1h-0.3
			c-0.1-0.1-0.2-0.2-0.3-0.3s-0.3-0.2-0.5-0.3c-0.2-0.1-0.4-0.2-0.6-0.2c-0.2-0.1-0.5-0.1-0.8-0.1c-0.7,0-1.2,0.2-1.5,0.6
			c-0.4,0.4-0.5,1-0.5,1.7c0,0.7,0.2,1.3,0.5,1.7s0.9,0.6,1.5,0.6c0.3,0,0.6,0,0.8-0.1s0.5-0.2,0.6-0.2c0.2-0.1,0.3-0.2,0.4-0.3
			s0.2-0.2,0.3-0.3h0.3v2.1c-0.4,0.2-0.8,0.3-1.2,0.4S71.5,64.5,71,64.5z"/>
		<path class="st0" d="M79.9,63.4c-0.1,0.1-0.3,0.2-0.5,0.4s-0.4,0.3-0.6,0.3c-0.2,0.1-0.5,0.2-0.8,0.2s-0.5,0.1-0.9,0.1
			c-0.7,0-1.3-0.2-1.8-0.7s-0.7-1-0.7-1.7c0-0.6,0.1-1,0.4-1.4s0.6-0.6,1.1-0.8c0.5-0.2,1-0.4,1.7-0.4s1.4-0.2,2.1-0.2v0
			c0-0.4-0.2-0.7-0.5-0.9s-0.9-0.2-1.5-0.2c-0.4,0-0.8,0.1-1.3,0.2s-0.8,0.3-1,0.3h-0.2v-1.9c0.3-0.1,0.7-0.1,1.3-0.2
			s1.2-0.1,1.8-0.1c1.4,0,2.4,0.2,3,0.6s0.9,1.1,0.9,2v5.2h-2.4V63.4z M79.9,62.3v-1.6c-0.3,0-0.7,0.1-1.1,0.1
			c-0.4,0-0.7,0.1-0.9,0.2c-0.2,0.1-0.4,0.2-0.6,0.3s-0.2,0.3-0.2,0.6c0,0.2,0,0.3,0,0.4c0,0.1,0.1,0.2,0.2,0.3
			c0.1,0.1,0.2,0.2,0.4,0.2c0.1,0,0.4,0.1,0.7,0.1c0.2,0,0.5,0,0.7-0.1S79.7,62.4,79.9,62.3z"/>
		<path class="st0" d="M87.1,64.3h-2.5V53.6h2.5V64.3z"/>
		<path class="st0" d="M96.9,58.8v5.4h-2.5v-3.8c0-0.4,0-0.7,0-1s-0.1-0.5-0.2-0.6s-0.2-0.3-0.4-0.4s-0.4-0.1-0.7-0.1
			c-0.2,0-0.5,0-0.7,0.1s-0.4,0.2-0.6,0.3v5.4h-2.5v-7.7h2.5v0.8c0.4-0.3,0.8-0.6,1.2-0.8s0.8-0.3,1.3-0.3c0.5,0,1,0.1,1.3,0.3
			s0.7,0.6,0.9,1c0.5-0.4,1-0.7,1.4-1c0.5-0.2,0.9-0.4,1.4-0.4c0.8,0,1.5,0.2,1.9,0.7c0.4,0.5,0.6,1.2,0.6,2.1v5h-2.5v-3.8
			c0-0.4,0-0.7,0-1s-0.1-0.5-0.1-0.6c-0.1-0.2-0.2-0.3-0.4-0.4s-0.4-0.1-0.7-0.1c-0.2,0-0.4,0-0.6,0.1S97.2,58.7,96.9,58.8z"/>
		<path class="st0" d="M111.8,60.9h-5.6c0,0.6,0.3,1.1,0.7,1.4s1,0.5,1.9,0.5c0.5,0,1-0.1,1.5-0.3s0.9-0.4,1.2-0.6h0.3v2
			c-0.6,0.2-1.1,0.4-1.6,0.5s-1,0.2-1.6,0.2c-1.5,0-2.7-0.3-3.5-1s-1.2-1.7-1.2-3c0-1.3,0.4-2.3,1.2-3s1.8-1.1,3.2-1.1
			c1.2,0,2.2,0.3,2.8,0.9s0.9,1.5,0.9,2.7V60.9z M109.3,59.4c0-0.5-0.1-0.9-0.4-1.2s-0.6-0.4-1.1-0.4c-0.5,0-0.9,0.1-1.2,0.4
			s-0.5,0.6-0.5,1.2H109.3z"/>
		<path class="st0" d="M121.2,64.3h-2.5v-3.8c0-0.3,0-0.6,0-0.9s-0.1-0.5-0.2-0.7c-0.1-0.2-0.2-0.3-0.4-0.4s-0.4-0.1-0.7-0.1
			c-0.2,0-0.5,0-0.7,0.1s-0.5,0.2-0.7,0.3v5.4h-2.5v-7.7h2.5v0.8c0.4-0.3,0.9-0.6,1.3-0.8c0.4-0.2,0.8-0.3,1.3-0.3
			c0.8,0,1.5,0.2,1.9,0.7c0.5,0.5,0.7,1.2,0.7,2.2V64.3z"/>
		<path class="st0" d="M128.4,64.2c-0.3,0.1-0.5,0.1-0.8,0.2s-0.7,0.1-1.1,0.1c-1,0-1.7-0.2-2.1-0.6s-0.7-1.1-0.7-2v-3.6h-1v-1.7h1
			v-2.2h2.5v2.2h2.3v1.7h-2.3V61c0,0.3,0,0.5,0,0.7c0,0.2,0,0.4,0.1,0.5c0.1,0.2,0.2,0.3,0.3,0.4c0.2,0.1,0.4,0.1,0.7,0.1
			c0.1,0,0.3,0,0.5-0.1c0.2-0.1,0.4-0.1,0.4-0.2h0.2V64.2z"/>
		<path class="st0" d="M137.4,60.9h-5.6c0,0.6,0.3,1.1,0.7,1.4s1,0.5,1.9,0.5c0.5,0,1-0.1,1.5-0.3s0.9-0.4,1.2-0.6h0.3v2
			c-0.6,0.2-1.1,0.4-1.6,0.5s-1,0.2-1.6,0.2c-1.5,0-2.7-0.3-3.5-1s-1.2-1.7-1.2-3c0-1.3,0.4-2.3,1.2-3s1.8-1.1,3.2-1.1
			c1.2,0,2.2,0.3,2.8,0.9s0.9,1.5,0.9,2.7V60.9z M135,59.4c0-0.5-0.1-0.9-0.4-1.2s-0.6-0.4-1.1-0.4c-0.5,0-0.9,0.1-1.2,0.4
			s-0.5,0.6-0.5,1.2H135z"/>
		<path class="st0" d="M152,64.3h-8v-1.7c0.6-0.4,1.2-0.9,1.8-1.4s1.1-0.9,1.5-1.3c0.6-0.5,0.9-1,1.2-1.4s0.3-0.8,0.3-1.2
			c0-0.5-0.1-0.8-0.4-1.1s-0.7-0.4-1.3-0.4c-0.4,0-0.9,0.1-1.3,0.3s-0.9,0.4-1.3,0.7h-0.2v-2.3c0.3-0.1,0.8-0.3,1.4-0.4
			s1.3-0.2,1.9-0.2c1.3,0,2.2,0.3,2.9,0.8s1,1.3,1,2.3c0,0.6-0.2,1.3-0.5,1.8s-0.8,1.2-1.5,1.8c-0.4,0.4-0.8,0.7-1.3,1.1
			s-0.7,0.5-0.9,0.7h4.6V64.3z"/>
		<path class="st0" d="M161.9,59.2c0,0.9-0.1,1.6-0.2,2.3s-0.4,1.2-0.7,1.7c-0.3,0.4-0.8,0.8-1.3,1c-0.5,0.2-1.2,0.3-2,0.3
			c-0.8,0-1.4-0.1-1.9-0.3c-0.5-0.2-1-0.6-1.3-1c-0.3-0.4-0.6-1-0.7-1.7s-0.2-1.4-0.2-2.3c0-0.9,0.1-1.7,0.2-2.3s0.4-1.2,0.7-1.7
			c0.3-0.4,0.8-0.8,1.3-1c0.5-0.2,1.2-0.3,1.9-0.3c0.8,0,1.4,0.1,2,0.3c0.5,0.2,1,0.6,1.3,1c0.3,0.4,0.6,1,0.7,1.7
			S161.9,58.3,161.9,59.2z M159.3,59.2c0-1.2-0.1-2.1-0.4-2.6c-0.2-0.5-0.6-0.8-1.2-0.8s-1,0.3-1.2,0.8c-0.2,0.5-0.4,1.4-0.4,2.6
			c0,1.2,0.1,2.1,0.4,2.6c0.2,0.5,0.6,0.8,1.2,0.8s1-0.3,1.2-0.8C159.1,61.3,159.3,60.4,159.3,59.2z"/>
		<path class="st0" d="M171.9,64.3h-8v-1.7c0.6-0.4,1.2-0.9,1.8-1.4s1.1-0.9,1.5-1.3c0.6-0.5,0.9-1,1.2-1.4s0.3-0.8,0.3-1.2
			c0-0.5-0.1-0.8-0.4-1.1s-0.7-0.4-1.3-0.4c-0.4,0-0.9,0.1-1.3,0.3s-0.9,0.4-1.3,0.7h-0.2v-2.3c0.3-0.1,0.8-0.3,1.4-0.4
			s1.3-0.2,1.9-0.2c1.3,0,2.2,0.3,2.9,0.8s1,1.3,1,2.3c0,0.6-0.2,1.3-0.5,1.8s-0.8,1.2-1.5,1.8c-0.4,0.4-0.8,0.7-1.3,1.1
			s-0.7,0.5-0.9,0.7h4.6V64.3z"/>
		<path class="st0" d="M181.8,59.2c0,0.9-0.1,1.6-0.2,2.3s-0.4,1.2-0.7,1.7c-0.3,0.4-0.8,0.8-1.3,1c-0.5,0.2-1.2,0.3-2,0.3
			c-0.8,0-1.4-0.1-1.9-0.3c-0.5-0.2-1-0.6-1.3-1c-0.3-0.4-0.6-1-0.7-1.7s-0.2-1.4-0.2-2.3c0-0.9,0.1-1.7,0.2-2.3s0.4-1.2,0.7-1.7
			c0.3-0.4,0.8-0.8,1.3-1c0.5-0.2,1.2-0.3,1.9-0.3c0.8,0,1.4,0.1,2,0.3c0.5,0.2,1,0.6,1.3,1c0.3,0.4,0.6,1,0.7,1.7
			S181.8,58.3,181.8,59.2z M179.2,59.2c0-1.2-0.1-2.1-0.4-2.6c-0.2-0.5-0.6-0.8-1.2-0.8s-1,0.3-1.2,0.8c-0.2,0.5-0.4,1.4-0.4,2.6
			c0,1.2,0.1,2.1,0.4,2.6c0.2,0.5,0.6,0.8,1.2,0.8s1-0.3,1.2-0.8C179.1,61.3,179.2,60.4,179.2,59.2z"/>
	</g>
	<g>
		<defs>
			<rect id="SVGID_1_" x="3.9" y="12.4" width="389.6" height="360.8"/>
		</defs>
		<clipPath id="SVGID_2_">
			<use xlink:href="#SVGID_1_"  style="overflow:visible;"/>
		</clipPath>
		<line class="st1" x1="31" y1="16.9" x2="31" y2="371.2"/>
		<path class="st2" d="M31,372.7L31,372.7 M31,13.9L31,13.9"/>
		<line class="st3" x1="270.4" y1="73.9" x2="5.9" y2="73.9"/>
		<path class="st2" d="M4.4,73.9L4.4,73.9 M273.4,73.9L273.4,73.9"/>
	</g>
	<line class="st4" x1="304" y1="142.7" x2="351.6" y2="142.7"/>
	<g>
		<path class="st0" d="M263.8,137c0,1.5-0.2,2.8-0.6,4.1s-0.9,2.3-1.7,3.2c-0.8,0.9-1.9,1.6-3.1,2.1c-1.2,0.5-2.7,0.7-4.3,0.7
			c-0.6,0-1.2,0-1.9-0.1s-1.1-0.1-1.3-0.2v-3.4h0.5c0.2,0.1,0.6,0.2,1,0.4s1,0.2,1.8,0.2c0.6,0,1.2-0.1,1.8-0.2
			c0.6-0.2,1.1-0.4,1.5-0.7c0.5-0.4,0.8-0.8,1.1-1.3c0.3-0.5,0.5-1.2,0.6-1.9c-0.7,0.4-1.3,0.7-1.9,0.9s-1.3,0.3-2.2,0.3
			c-0.7,0-1.3-0.1-1.9-0.2s-1.1-0.4-1.6-0.7c-0.6-0.5-1.2-1.1-1.6-1.8s-0.6-1.7-0.6-2.9c0-1.9,0.7-3.4,2-4.6s3-1.8,5.1-1.8
			c1.1,0,2,0.1,2.9,0.4s1.6,0.7,2.2,1.3c0.7,0.7,1.2,1.5,1.6,2.6S263.8,135.5,263.8,137z M259.3,136.4c0-1-0.1-1.7-0.3-2.4
			c-0.2-0.6-0.4-1.1-0.8-1.4c-0.2-0.3-0.5-0.4-0.8-0.5c-0.3-0.1-0.6-0.2-0.9-0.2c-0.3,0-0.6,0.1-0.9,0.2c-0.3,0.1-0.5,0.3-0.8,0.5
			c-0.2,0.2-0.4,0.6-0.6,1c-0.2,0.4-0.2,0.9-0.2,1.5c0,0.5,0.1,1,0.2,1.4s0.4,0.7,0.7,0.9c0.3,0.2,0.6,0.4,1,0.4
			c0.4,0.1,0.8,0.1,1.2,0.1c0.4,0,0.7,0,1.1-0.1s0.7-0.2,1-0.3c0-0.1,0-0.2,0-0.4C259.3,136.9,259.3,136.7,259.3,136.4z"/>
		<path class="st0" d="M281.1,140.8c0,0.9-0.2,1.7-0.5,2.5s-0.8,1.4-1.5,2c-0.7,0.6-1.5,1-2.5,1.3s-2,0.4-3.2,0.4
			c-1.4,0-2.6-0.1-3.5-0.3s-1.8-0.5-2.4-0.7v-3.9h0.5c0.7,0.4,1.5,0.8,2.3,1.1s1.6,0.4,2.4,0.4c0.5,0,1-0.1,1.6-0.2s1-0.3,1.4-0.6
			c0.3-0.2,0.5-0.5,0.6-0.7s0.2-0.6,0.2-1.2c0-0.4-0.1-0.8-0.3-1s-0.4-0.5-0.7-0.7c-0.4-0.3-0.9-0.4-1.5-0.5s-1.1-0.1-1.6-0.1
			c-0.7,0-1.4,0.1-2,0.2s-1.2,0.2-1.7,0.4h-0.5v-9.8h12.4v3.3h-8.2v2.8c0.2,0,0.5,0,0.9,0s0.7,0,1,0c1,0,1.8,0.1,2.6,0.3
			s1.4,0.4,2,0.8c0.7,0.4,1.3,1,1.7,1.7S281.1,139.8,281.1,140.8z"/>
	</g>
	<g>
		<path class="st0" d="M290.1,139.7c0,1.1-0.3,2-0.8,2.5c-0.5,0.5-1.3,0.8-2.3,0.8c-1,0-1.8-0.3-2.3-0.8c-0.5-0.6-0.8-1.4-0.8-2.5
			c0-1.1,0.3-2,0.8-2.5c0.5-0.5,1.3-0.8,2.3-0.8c1,0,1.8,0.3,2.3,0.8C289.9,137.7,290.1,138.6,290.1,139.7z M288.1,139.7
			c0-0.7-0.1-1.2-0.3-1.5c-0.2-0.3-0.4-0.4-0.8-0.4s-0.7,0.1-0.8,0.4c-0.2,0.3-0.3,0.8-0.3,1.5c0,0.7,0.1,1.2,0.3,1.5
			c0.2,0.3,0.4,0.4,0.8,0.4s0.7-0.1,0.8-0.4C288,140.9,288.1,140.4,288.1,139.7z M295.5,136.6l-5.3,10.2h-1.8l5.3-10.2H295.5z
			 M299.8,143.6c0,1.1-0.3,2-0.8,2.5c-0.5,0.5-1.3,0.8-2.3,0.8c-1,0-1.8-0.3-2.3-0.8c-0.5-0.6-0.8-1.4-0.8-2.5c0-1.1,0.3-2,0.8-2.5
			c0.5-0.5,1.3-0.8,2.3-0.8c1,0,1.8,0.3,2.3,0.8C299.5,141.7,299.8,142.5,299.8,143.6z M297.8,143.6c0-0.7-0.1-1.2-0.3-1.5
			c-0.2-0.3-0.4-0.4-0.8-0.4s-0.7,0.1-0.8,0.4c-0.2,0.3-0.3,0.8-0.3,1.5c0,0.7,0.1,1.2,0.3,1.5c0.2,0.3,0.4,0.4,0.8,0.4
			s0.7-0.1,0.8-0.4C297.7,144.9,297.8,144.4,297.8,143.6z"/>
	</g>
	<g>
		<path class="st5" d="M312,146.4c-0.3-0.7-0.7-1.8-1.2-3.2c-0.5-1.4-0.9-2.5-1.2-3.2c-0.1,2.8-0.2,5.1-0.2,6.7h-1.7l0.6-9.8h1.9
			c0.9,2.7,1.7,4.9,2.4,6.5c0.1,0.2,0.1,0.3,0.2,0.3s0.1-0.1,0.2-0.3l2.6-6.5h1.7l0.3,5.2c0.1,2.3,0.3,3.9,0.3,4.6h-1.8l-0.3-6.7
			c-0.6,1.3-1.4,3.5-2.5,6.4H312z"/>
		<path class="st5" d="M321.1,143.6v0.2c0,0.6,0.2,1,0.5,1.3c0.4,0.3,0.8,0.5,1.5,0.5c0.6,0,1.1-0.1,1.6-0.3v1.4
			c-0.5,0.2-1.1,0.2-1.8,0.2c-1.1,0-1.9-0.3-2.6-0.9c-0.6-0.6-1-1.5-1-2.7c0-1.1,0.3-1.9,0.9-2.6c0.6-0.6,1.4-1,2.3-1
			c0.9,0,1.5,0.3,2,0.8c0.4,0.5,0.6,1.2,0.6,2.1c0,0.3,0,0.6-0.1,0.9H321.1z M321.3,142.3h2c0.2,0,0.3-0.1,0.3-0.3
			c0-0.3-0.1-0.5-0.3-0.6c-0.2-0.2-0.4-0.2-0.8-0.2c-0.4,0-0.7,0.1-0.9,0.3C321.5,141.6,321.3,141.9,321.3,142.3z M322.9,139.1h-1.4
			c0.6-0.6,1.2-1.3,1.8-2.3h1.7L322.9,139.1z"/>
		<path class="st5" d="M329.2,144.8c0-0.1-0.1-0.1-0.1-0.1c0,0-0.1,0-0.1,0.1c-0.4,0.6-0.8,1.3-1.2,2h-1.8l2.3-3.4
			c-0.9-1.3-1.7-2.4-2.6-3.4h2l1.3,1.9c0.1,0.1,0.1,0.1,0.2,0l1.3-1.9h1.9c-0.8,0.9-1.6,2-2.6,3.4l2.4,3.4h-1.9
			C329.9,146,329.6,145.4,329.2,144.8z"/>
		<path class="st5" d="M334.2,137c0.3,0,0.5,0.1,0.7,0.3c0.2,0.2,0.3,0.4,0.3,0.7c0,0.3-0.1,0.5-0.3,0.7c-0.2,0.2-0.4,0.3-0.7,0.3
			c-0.3,0-0.6-0.1-0.7-0.3s-0.3-0.4-0.3-0.7c0-0.3,0.1-0.5,0.3-0.7C333.7,137.1,333.9,137,334.2,137z M333.4,140h1.7
			c0,1.7-0.1,4-0.1,6.8h-1.6V140z"/>
		<path class="st5" d="M338.3,143.3c0,1.5,0.6,2.2,1.8,2.2c0.3,0,0.7,0,1.1-0.1v1.4c-0.4,0.1-0.8,0.1-1.2,0.1
			c-1.1,0-1.9-0.3-2.5-0.9c-0.6-0.6-0.9-1.5-0.9-2.7c0-1.1,0.3-2,0.9-2.6c0.6-0.6,1.5-1,2.6-1c0.5,0,0.9,0,1.2,0.1v1.5
			c-0.3-0.1-0.7-0.2-1.2-0.2C338.9,141.2,338.3,141.9,338.3,143.3z"/>
		<path class="st5" d="M345.2,139.8c0.9,0,1.7,0.3,2.3,1c0.6,0.7,0.9,1.5,0.9,2.6c0,1.1-0.3,1.9-0.9,2.6s-1.3,1-2.3,1
			c-0.9,0-1.7-0.3-2.3-1s-0.9-1.5-0.9-2.6c0-1.1,0.3-2,0.9-2.6C343.5,140.1,344.3,139.8,345.2,139.8z M345.2,141.2
			c-0.4,0-0.7,0.2-1,0.5c-0.2,0.4-0.4,0.9-0.4,1.6c0,0.7,0.1,1.2,0.4,1.6c0.3,0.4,0.6,0.6,1,0.6c0.4,0,0.7-0.2,1-0.6
			c0.3-0.4,0.4-0.9,0.4-1.6c0-0.7-0.1-1.2-0.4-1.6C346,141.3,345.6,141.2,345.2,141.2z"/>
	</g>
	<line class="st6" x1="304" y1="243.8" x2="336.7" y2="243.8"/>
	<g>
		<path class="st7" d="M263.8,238.1c0,1.5-0.2,2.8-0.6,4.1s-0.9,2.3-1.7,3.2c-0.8,0.9-1.9,1.6-3.1,2.1c-1.2,0.5-2.7,0.7-4.3,0.7
			c-0.6,0-1.2,0-1.9-0.1s-1.1-0.1-1.3-0.2v-3.4h0.5c0.2,0.1,0.6,0.2,1,0.4s1,0.2,1.8,0.2c0.6,0,1.2-0.1,1.8-0.2
			c0.6-0.2,1.1-0.4,1.5-0.7c0.5-0.4,0.8-0.8,1.1-1.3c0.3-0.5,0.5-1.2,0.6-1.9c-0.7,0.4-1.3,0.7-1.9,0.9s-1.3,0.3-2.2,0.3
			c-0.7,0-1.3-0.1-1.9-0.2s-1.1-0.4-1.6-0.7c-0.6-0.5-1.2-1.1-1.6-1.8s-0.6-1.7-0.6-2.9c0-1.9,0.7-3.4,2-4.6s3-1.8,5.1-1.8
			c1.1,0,2,0.1,2.9,0.4s1.6,0.7,2.2,1.3c0.7,0.7,1.2,1.5,1.6,2.6S263.8,236.6,263.8,238.1z M259.3,237.5c0-1-0.1-1.7-0.3-2.4
			c-0.2-0.6-0.4-1.1-0.8-1.4c-0.2-0.3-0.5-0.4-0.8-0.5c-0.3-0.1-0.6-0.2-0.9-0.2c-0.3,0-0.6,0.1-0.9,0.2c-0.3,0.1-0.5,0.3-0.8,0.5
			c-0.2,0.2-0.4,0.6-0.6,1c-0.2,0.4-0.2,0.9-0.2,1.5c0,0.5,0.1,1,0.2,1.4s0.4,0.7,0.7,0.9c0.3,0.2,0.6,0.4,1,0.4
			c0.4,0.1,0.8,0.1,1.2,0.1c0.4,0,0.7,0,1.1-0.1s0.7-0.2,1-0.3c0-0.1,0-0.2,0-0.4C259.3,238,259.3,237.8,259.3,237.5z"/>
		<path class="st7" d="M281.5,241.9c0,0.9-0.2,1.7-0.5,2.5s-0.8,1.5-1.4,2c-0.6,0.6-1.4,1-2.2,1.3s-1.8,0.5-2.9,0.5
			c-1,0-2-0.1-2.9-0.4s-1.6-0.7-2.2-1.3c-0.7-0.7-1.3-1.5-1.6-2.6s-0.6-2.3-0.6-3.8c0-1.5,0.2-2.9,0.5-4.1s0.9-2.2,1.7-3.2
			c0.8-0.9,1.8-1.6,3-2s2.7-0.7,4.4-0.7c0.6,0,1.2,0,1.9,0.1s1.1,0.1,1.3,0.2v3.4h-0.4c-0.2-0.1-0.6-0.2-1.1-0.3s-1.1-0.2-1.7-0.2
			c-1.5,0-2.7,0.4-3.5,1.1s-1.3,1.8-1.5,3.1c0.6-0.4,1.2-0.7,1.9-0.9s1.4-0.3,2.2-0.3c0.7,0,1.3,0.1,1.9,0.2s1.1,0.4,1.6,0.8
			c0.6,0.5,1.2,1.1,1.6,1.8S281.5,240.8,281.5,241.9z M276.1,244.5c0.2-0.3,0.4-0.6,0.6-0.9s0.2-0.9,0.2-1.5c0-0.6-0.1-1-0.2-1.4
			s-0.4-0.7-0.7-0.9c-0.3-0.2-0.6-0.4-1-0.5s-0.8-0.1-1.2-0.1c-0.3,0-0.7,0-1.1,0.1s-0.7,0.2-1,0.3c0,0.1,0,0.2,0,0.4s0,0.4,0,0.7
			c0,1,0.1,1.8,0.3,2.4s0.4,1.1,0.8,1.4c0.2,0.2,0.5,0.4,0.8,0.5s0.6,0.2,1,0.2c0.3,0,0.5-0.1,0.9-0.2S275.9,244.8,276.1,244.5z"/>
	</g>
	<g>
		<path class="st7" d="M290.1,240.8c0,1.1-0.3,2-0.8,2.5c-0.5,0.5-1.3,0.8-2.3,0.8c-1,0-1.8-0.3-2.3-0.8c-0.5-0.6-0.8-1.4-0.8-2.5
			c0-1.1,0.3-2,0.8-2.5c0.5-0.5,1.3-0.8,2.3-0.8c1,0,1.8,0.3,2.3,0.8C289.9,238.8,290.1,239.7,290.1,240.8z M288.1,240.8
			c0-0.7-0.1-1.2-0.3-1.5c-0.2-0.3-0.4-0.4-0.8-0.4s-0.7,0.1-0.8,0.4c-0.2,0.3-0.3,0.8-0.3,1.5c0,0.7,0.1,1.2,0.3,1.5
			c0.2,0.3,0.4,0.4,0.8,0.4s0.7-0.1,0.8-0.4C288,242,288.1,241.5,288.1,240.8z M295.5,237.7l-5.3,10.2h-1.8l5.3-10.2H295.5z
			 M299.8,244.7c0,1.1-0.3,2-0.8,2.5c-0.5,0.5-1.3,0.8-2.3,0.8c-1,0-1.8-0.3-2.3-0.8c-0.5-0.6-0.8-1.4-0.8-2.5c0-1.1,0.3-2,0.8-2.5
			c0.5-0.5,1.3-0.8,2.3-0.8c1,0,1.8,0.3,2.3,0.8C299.5,242.8,299.8,243.6,299.8,244.7z M297.8,244.7c0-0.7-0.1-1.2-0.3-1.5
			c-0.2-0.3-0.4-0.4-0.8-0.4s-0.7,0.1-0.8,0.4c-0.2,0.3-0.3,0.8-0.3,1.5c0,0.7,0.1,1.2,0.3,1.5c0.2,0.3,0.4,0.4,0.8,0.4
			s0.7-0.1,0.8-0.4C297.7,246,297.8,245.5,297.8,244.7z"/>
	</g>
	<g>
		<path class="st5" d="M314.2,240.9c0,1-0.3,1.7-0.9,2.3c-0.6,0.5-1.4,0.8-2.4,0.8c-0.5,0-0.9-0.1-1.3-0.2v4.1h-1.7v-9.8
			c0.3,0,0.8,0,1.4-0.1c0.6,0,1.1-0.1,1.4-0.1c1.1,0,2,0.3,2.6,0.8C313.9,239.2,314.2,240,314.2,240.9z M309.6,239.8
			c0,0.9-0.1,1.8-0.1,2.6c0.3,0.1,0.6,0.1,1,0.1c0.6,0,1-0.1,1.4-0.4c0.3-0.3,0.5-0.7,0.5-1.2c0-0.5-0.1-0.9-0.4-1.2
			s-0.7-0.4-1.2-0.4c-0.3,0-0.5,0-0.7,0.1c-0.2,0-0.3,0.1-0.3,0.2C309.7,239.6,309.7,239.7,309.6,239.8z"/>
		<path class="st5" d="M316.7,244.7v0.2c0,0.6,0.2,1,0.5,1.3c0.4,0.3,0.8,0.5,1.5,0.5c0.6,0,1.1-0.1,1.6-0.3v1.4
			c-0.5,0.2-1.1,0.2-1.8,0.2c-1.1,0-1.9-0.3-2.6-0.9c-0.6-0.6-1-1.5-1-2.7c0-1.1,0.3-1.9,0.9-2.6c0.6-0.6,1.4-1,2.3-1
			c0.9,0,1.5,0.3,2,0.8c0.4,0.5,0.6,1.2,0.6,2.1c0,0.3,0,0.6-0.1,0.9H316.7z M316.9,243.4h2c0.2,0,0.3-0.1,0.3-0.3
			c0-0.3-0.1-0.5-0.3-0.6c-0.2-0.2-0.4-0.2-0.8-0.2c-0.4,0-0.7,0.1-0.9,0.3C317.1,242.7,316.9,243,316.9,243.4z"/>
		<path class="st5" d="M323.9,247.8h-1.6v-6.8h1.5v0.6c0.4-0.6,1-0.9,1.8-0.9c0.2,0,0.5,0,0.7,0.1v1.7c-0.3-0.1-0.6-0.2-1.1-0.2
			c-0.3,0-0.6,0.1-0.9,0.2c-0.2,0.1-0.4,0.3-0.4,0.6C323.9,244,323.9,245.5,323.9,247.8z"/>
		<path class="st5" d="M330.3,246.6c0.7,0,1.1-0.2,1.1-0.6v-5h1.6v6.7c-0.4,0-0.9,0-1.5,0.1c-0.5,0.1-1,0.1-1.5,0.1
			c-0.8,0-1.4-0.2-1.9-0.6s-0.7-1-0.7-1.8v-4.5h1.6v4.3C329,246.2,329.4,246.6,330.3,246.6z M330.3,240.2h-1.4
			c0.6-0.6,1.2-1.3,1.8-2.3h1.7L330.3,240.2z"/>
	</g>
	<g>
		<defs>
			<rect id="SVGID_3_" x="3.9" y="12.4" width="389.6" height="360.8"/>
		</defs>
		<clipPath id="SVGID_4_">
			<use xlink:href="#SVGID_3_"  style="overflow:visible;"/>
		</clipPath>
		<line class="st8" x1="304" y1="341.9" x2="372.5" y2="341.9"/>
	</g>
	<g>
		<path class="st9" d="M264.4,341.9h-2.4v4.1h-4.3v-4.1h-8.4v-3.3l8.2-10.1h4.6v10.2h2.4V341.9z M257.8,338.7v-6.3l-5.1,6.3H257.8z"
			/>
		<path class="st9" d="M281.4,337.2c0,1.5-0.1,2.8-0.4,3.9c-0.3,1.2-0.7,2.1-1.2,2.9c-0.6,0.8-1.3,1.3-2.2,1.7
			c-0.9,0.4-2,0.6-3.4,0.6c-1.3,0-2.4-0.2-3.3-0.6s-1.7-1-2.2-1.7c-0.6-0.8-1-1.7-1.3-2.9c-0.3-1.1-0.4-2.4-0.4-3.9
			c0-1.5,0.1-2.8,0.4-4c0.3-1.1,0.7-2.1,1.3-2.8c0.6-0.8,1.3-1.3,2.2-1.7c0.9-0.4,2-0.6,3.3-0.6c1.3,0,2.5,0.2,3.4,0.6
			c0.9,0.4,1.6,1,2.2,1.8c0.6,0.8,1,1.7,1.2,2.8C281.3,334.4,281.4,335.7,281.4,337.2z M276.8,337.2c0-2.1-0.2-3.6-0.6-4.5
			c-0.4-0.9-1.1-1.3-2.1-1.3s-1.6,0.4-2.1,1.3c-0.4,0.9-0.6,2.4-0.6,4.5c0,2.1,0.2,3.6,0.6,4.5s1.1,1.4,2.1,1.4s1.6-0.5,2.1-1.4
			S276.8,339.3,276.8,337.2z"/>
	</g>
	<g>
		<path class="st9" d="M290.1,338.9c0,1.1-0.3,2-0.8,2.5c-0.5,0.5-1.3,0.8-2.3,0.8c-1,0-1.8-0.3-2.3-0.8c-0.5-0.6-0.8-1.4-0.8-2.5
			c0-1.1,0.3-2,0.8-2.5c0.5-0.5,1.3-0.8,2.3-0.8c1,0,1.8,0.3,2.3,0.8C289.9,336.9,290.1,337.8,290.1,338.9z M288.1,338.9
			c0-0.7-0.1-1.2-0.3-1.5c-0.2-0.3-0.4-0.4-0.8-0.4s-0.7,0.1-0.8,0.4c-0.2,0.3-0.3,0.8-0.3,1.5c0,0.7,0.1,1.2,0.3,1.5
			c0.2,0.3,0.4,0.4,0.8,0.4s0.7-0.1,0.8-0.4C288,340.1,288.1,339.6,288.1,338.9z M295.5,335.8l-5.3,10.2h-1.8l5.3-10.2H295.5z
			 M299.8,342.8c0,1.1-0.3,2-0.8,2.5c-0.5,0.5-1.3,0.8-2.3,0.8c-1,0-1.8-0.3-2.3-0.8c-0.5-0.6-0.8-1.4-0.8-2.5c0-1.1,0.3-2,0.8-2.5
			c0.5-0.5,1.3-0.8,2.3-0.8c1,0,1.8,0.3,2.3,0.8C299.5,340.9,299.8,341.7,299.8,342.8z M297.8,342.8c0-0.7-0.1-1.2-0.3-1.5
			c-0.2-0.3-0.4-0.4-0.8-0.4s-0.7,0.1-0.8,0.4c-0.2,0.3-0.3,0.8-0.3,1.5c0,0.7,0.1,1.2,0.3,1.5c0.2,0.3,0.4,0.4,0.8,0.4
			s0.7-0.1,0.8-0.4C297.7,344.1,297.8,343.6,297.8,342.8z"/>
	</g>
	<g>
		<path class="st5" d="M314.7,345.7c-0.7,0.3-1.6,0.4-2.5,0.4c-0.7,0-1.3-0.1-1.8-0.3c-0.6-0.2-1.1-0.5-1.5-0.8s-0.8-0.9-1.1-1.6
			c-0.3-0.7-0.4-1.4-0.4-2.3c0-1.7,0.5-2.9,1.4-3.8c0.9-0.9,2.2-1.4,3.7-1.4c0.7,0,1.4,0.1,2.1,0.3v1.7c-0.6-0.3-1.3-0.4-2.1-0.4
			c-2.2,0-3.3,1.2-3.3,3.6c0,1.2,0.3,2.1,0.9,2.7s1.3,0.8,2.2,0.8c0.5,0,0.8-0.1,0.8-0.4v-3h1.7
			C314.7,341.9,314.7,343.4,314.7,345.7z"/>
		<path class="st5" d="M319.5,344.7c0.7,0,1.1-0.2,1.1-0.6v-5h1.6v6.7c-0.4,0-0.9,0-1.5,0.1c-0.5,0.1-1,0.1-1.5,0.1
			c-0.8,0-1.4-0.2-1.9-0.6s-0.7-1-0.7-1.8v-4.5h1.6v4.3C318.2,344.3,318.6,344.7,319.5,344.7z"/>
		<path class="st5" d="M323.7,344c0-0.7,0.3-1.3,0.9-1.8s1.5-0.7,2.7-0.8v-0.3c0-0.3-0.1-0.5-0.3-0.7c-0.2-0.2-0.4-0.2-0.8-0.2
			c-0.7,0-1.4,0.2-2.1,0.5v-1.5c0.8-0.2,1.5-0.3,2.2-0.3c1.7,0,2.5,0.7,2.5,2.2c0,0.4,0,0.9,0,1.6s0,1.2,0,1.6c0,0.6,0,1.1,0.1,1.6
			c-0.4,0-0.9,0-1.5,0.1s-1,0.1-1.3,0.1c-0.8,0-1.5-0.2-1.9-0.6C323.9,345.2,323.7,344.7,323.7,344z M327.3,344.4
			c0-0.2,0.1-0.8,0.1-1.7c-1.3,0-2,0.5-2,1.2c0,0.3,0.1,0.5,0.3,0.6s0.4,0.2,0.7,0.2C326.9,344.8,327.2,344.6,327.3,344.4z"/>
		<path class="st5" d="M330.1,340.6v-1.4h1v-1.2l1.6-1v2.2h2v1.4h-2c0,0.5,0,1.1,0,1.9c0,0.7,0,1.3,0,1.6c0,0.5,0.3,0.7,0.9,0.7
			c0.4,0,0.8-0.1,1.1-0.3v1.4c-0.5,0.2-1,0.3-1.5,0.3c-0.6,0-1.1-0.2-1.5-0.4c-0.4-0.3-0.6-0.7-0.6-1.3v-3.8H330.1z"/>
		<path class="st5" d="M337.2,342.8v0.2c0,0.6,0.2,1,0.5,1.3c0.4,0.3,0.8,0.5,1.5,0.5c0.6,0,1.1-0.1,1.6-0.3v1.4
			c-0.5,0.2-1.1,0.2-1.8,0.2c-1.1,0-1.9-0.3-2.6-0.9c-0.6-0.6-1-1.5-1-2.7c0-1.1,0.3-1.9,0.9-2.6c0.6-0.6,1.4-1,2.3-1
			c0.9,0,1.5,0.3,2,0.8c0.4,0.5,0.6,1.2,0.6,2.1c0,0.3,0,0.6-0.1,0.9H337.2z M337.4,341.5h2c0.2,0,0.3-0.1,0.3-0.3
			c0-0.3-0.1-0.5-0.3-0.6c-0.2-0.2-0.4-0.2-0.8-0.2c-0.4,0-0.7,0.1-0.9,0.3C337.6,340.8,337.5,341.1,337.4,341.5z"/>
		<path class="st5" d="M351.8,341.4v4.6h-1.6v-4.3c0-0.4-0.1-0.8-0.3-0.9c-0.2-0.2-0.4-0.3-0.8-0.3c-0.2,0-0.5,0-0.7,0.1
			c-0.2,0.1-0.3,0.2-0.3,0.4c0,0.3,0,0.5,0,0.6v4.5h-1.6v-4.3c0-0.8-0.3-1.2-1-1.2c-0.7,0-1.1,0.2-1.1,0.6v4.9h-1.6v-6.6
			c0.5,0,1-0.1,1.6-0.2s1-0.2,1.3-0.2c0.7,0,1.3,0.2,1.7,0.5c0.5-0.3,1.2-0.5,2-0.5C351,339,351.8,339.8,351.8,341.4z"/>
		<path class="st5" d="M353.3,344c0-0.7,0.3-1.3,0.9-1.8s1.5-0.7,2.7-0.8v-0.3c0-0.3-0.1-0.5-0.3-0.7c-0.2-0.2-0.4-0.2-0.8-0.2
			c-0.7,0-1.4,0.2-2.1,0.5v-1.5c0.8-0.2,1.5-0.3,2.2-0.3c1.7,0,2.5,0.7,2.5,2.2c0,0.4,0,0.9,0,1.6s0,1.2,0,1.6c0,0.6,0,1.1,0.1,1.6
			c-0.4,0-0.9,0-1.5,0.1s-1,0.1-1.3,0.1c-0.8,0-1.5-0.2-1.9-0.6C353.5,345.2,353.3,344.7,353.3,344z M356.9,344.4
			c0-0.2,0.1-0.8,0.1-1.7c-1.3,0-2,0.5-2,1.2c0,0.3,0.1,0.5,0.3,0.6s0.4,0.2,0.7,0.2C356.5,344.8,356.8,344.6,356.9,344.4z"/>
		<path class="st5" d="M360.4,335.1h1.6c0,0.4,0,1.2,0,2.4c0,1.2,0,2.2,0,3v5.4h-1.6V335.1z"/>
		<path class="st5" d="M363.6,344c0-0.7,0.3-1.3,0.9-1.8s1.5-0.7,2.7-0.8v-0.3c0-0.3-0.1-0.5-0.3-0.7c-0.2-0.2-0.4-0.2-0.8-0.2
			c-0.7,0-1.4,0.2-2.1,0.5v-1.5c0.8-0.2,1.5-0.3,2.2-0.3c1.7,0,2.5,0.7,2.5,2.2c0,0.4,0,0.9,0,1.6s0,1.2,0,1.6c0,0.6,0,1.1,0.1,1.6
			c-0.4,0-0.9,0-1.5,0.1s-1,0.1-1.3,0.1c-0.8,0-1.5-0.2-1.9-0.6C363.8,345.2,363.6,344.7,363.6,344z M367.2,344.4
			c0-0.2,0.1-0.8,0.1-1.7c-1.3,0-2,0.5-2,1.2c0,0.3,0.1,0.5,0.3,0.6s0.4,0.2,0.7,0.2C366.8,344.8,367.1,344.6,367.2,344.4z"/>
	</g>
	<line class="st10" x1="239.5" y1="143.2" x2="145.6" y2="143.2"/>
	<line class="st11" x1="239.5" y1="139.8" x2="239.5" y2="146.6"/>
	<line class="st10" x1="239.5" y1="239.7" x2="151.3" y2="239.7"/>
	<line class="st11" x1="239.5" y1="236.3" x2="239.5" y2="243"/>
	<line class="st10" x1="239.5" y1="336.8" x2="150" y2="336.8"/>
	<line class="st11" x1="239.5" y1="333.4" x2="239.5" y2="340.1"/>
	<g>
		<defs>
			<rect id="SVGID_5_" x="3.9" y="12.4" width="389.6" height="360.8"/>
		</defs>
		<clipPath id="SVGID_6_">
			<use xlink:href="#SVGID_5_"  style="overflow:visible;"/>
		</clipPath>
		<path class="st12" d="M148.2,346.6c0-0.1,0-0.2-0.1-0.3c0-0.1-0.1-0.2-0.1-0.3c0-0.1-0.1-0.2-0.1-0.2s-0.1-0.2-0.1-0.2
			c0,0-0.1-0.2-0.2-0.2c-0.1-0.1-0.1-0.2-0.2-0.2c0,0-0.1-0.1-0.1-0.2c0-0.1-0.1-0.2-0.2-0.3c-0.1-0.1-0.2-0.3-0.3-0.4
			c-0.1-0.1-0.2-0.3-0.2-0.4c-0.1-0.1-0.2-0.4-0.4-0.7c-0.1-0.3-0.3-0.6-0.4-0.7s-0.2-0.4-0.3-0.6c-0.1-0.2-0.2-0.4-0.2-0.5
			c0-0.1-0.1-0.2-0.2-0.3c-0.1-0.1-0.1-0.2-0.2-0.2c0,0-0.1-0.1-0.1-0.1c0,0-0.1-0.1-0.1-0.1c0,0-0.1-0.1-0.2-0.1
			c-0.1,0-0.2-0.1-0.3-0.1c-0.1,0-0.3-0.1-0.4-0.1c-0.1,0-0.2,0-0.4-0.1c-0.1,0-0.3,0-0.3,0c-0.1,0-0.2,0-0.2,0c-0.1,0-0.1,0-0.2,0
			c0,0-0.1,0-0.2,0.1c-0.1,0-0.2,0.1-0.2,0.1c0,0-0.1,0-0.2,0.1c-0.1,0-0.2,0.1-0.2,0.1c0,0-0.1,0-0.1,0c0,0-0.1,0-0.1,0
			c0,0-0.2,0-0.3,0c-0.1,0-0.2,0-0.3,0c0,0-0.1,0-0.1,0c0,0-0.1,0-0.1-0.1c0,0-0.2-0.1-0.3-0.2c-0.1-0.1-0.2-0.2-0.2-0.3
			c0,0-0.1-0.1-0.1-0.2c0-0.1-0.1-0.2-0.1-0.3c0-0.1,0-0.3,0-0.4c0-0.1,0-0.7,0-1.2c0-0.6,0-1.1,0-1.1c0-0.1,0.1-0.4,0.2-0.8
			c0.1-0.4,0.2-0.7,0.2-0.7c0,0,0-0.1,0-0.2c0-0.1,0-0.2,0-0.2c0-0.1-0.1-0.2-0.1-0.2c0-0.1-0.1-0.1-0.1-0.2s-0.1-0.1-0.1-0.1
			c0,0-0.1-0.1-0.1-0.1c0,0-0.1-0.1-0.1-0.1c0,0-0.1,0-0.1,0c0,0-0.1,0-0.1,0c0,0-0.5,0.3-1.1,0.7c-0.6,0.4-1,0.7-1.1,0.7
			c0,0-0.1,0.1-0.1,0.1c0,0-0.1,0-0.1,0.1s-0.1,0-0.1,0.1c0,0-0.1,0.1-0.1,0.1c0,0-0.1,0.1-0.2,0.1c0,0-0.1,0-0.1,0c0,0-0.1,0-0.2,0
			s-0.1,0-0.2,0c-0.1,0-0.6,0-1.2,0c-0.6,0-1.1,0-1.1,0c0,0-0.1,0-0.1,0c0,0-0.1,0-0.1,0c0,0-0.1,0-0.1,0s-0.1-0.1-0.1-0.1
			c0,0-0.1-0.1-0.1-0.1c0,0-0.1-0.1-0.1-0.1c0,0-0.1-0.1-0.1-0.2c0,0,0-0.1-0.1-0.2c0-0.1,0-0.2-0.1-0.2s-0.1-0.2-0.1-0.2
			c0-0.1-0.1-0.2-0.1-0.2c0-0.1-0.1-0.1-0.1-0.2c0,0-0.1-0.1-0.1-0.2c0-0.1-0.1-0.1-0.2-0.2c0-0.1-0.1-0.1-0.2-0.1
			c0,0-0.1-0.1-0.2-0.1c-0.1,0-0.2,0-0.2-0.1c-0.1,0-0.5,0-1,0c-0.5,0-0.9,0-0.9,0c0,0-0.1,0-0.1,0c0,0-0.1,0-0.2-0.1
			c0,0-0.1-0.1-0.1-0.1c0,0-0.1-0.1-0.1-0.1c0,0,0-0.1,0-0.2c0-0.1,0-0.2,0-0.2c0-0.1,0.1-0.2,0.1-0.2c0-0.1,0.1-0.1,0.1-0.2
			c0-0.1,0.1-0.2,0.1-0.2c0,0,0.1-0.1,0.1-0.1c0,0,0-0.1,0.1-0.2s0-0.2,0-0.3c0-0.1,0-0.2,0-0.3c0,0,0-0.1-0.1-0.2
			c0,0-0.1-0.1-0.1-0.2c0,0-0.1-0.1-0.1-0.2c0,0-0.2-0.2-0.4-0.3c-0.2-0.1-0.5-0.4-0.7-0.7c-0.2-0.2-0.6-0.7-0.9-1
			c-0.3-0.3-0.5-0.7-0.5-0.7c0,0-0.1-0.2-0.1-0.2c0-0.1,0-0.2,0-0.3c0-0.1,0-0.2,0-0.3c0-0.1,0-0.2,0-0.3c0-0.1,0-0.2,0-0.3
			c0,0,0-0.1-0.1-0.2c0,0-0.1-0.1-0.1-0.1c0,0-0.2-0.2-0.3-0.3c-0.1-0.1-0.2-0.2-0.3-0.3c0,0-0.1-0.1-0.1-0.2c0-0.1-0.1-0.1-0.1-0.2
			c0-0.1-0.1-0.2-0.1-0.2c0-0.1-0.1-0.2-0.1-0.2c0,0,0-0.1,0-0.2c0,0,0-0.1,0-0.2c0,0,0-0.1,0.1-0.1c0,0,0.1-0.1,0.1-0.1
			c0,0,0.1-0.1,0.1-0.1c0,0,0.1-0.1,0.1-0.1s0.1,0,0.1-0.1c0,0,0.1,0,0.1,0c0,0,0.1,0,0.1-0.1c0,0,0-0.1,0.1-0.1c0,0,0-0.1,0-0.1
			c0,0,0-0.1,0-0.2c0,0-0.1-0.1-0.1-0.1c0,0-0.1-0.1-0.1-0.2c0-0.1-0.1-0.1-0.1-0.2c0-0.1,0-0.2,0-0.2s0-0.2,0-0.2
			c0-0.1,0-0.1,0-0.2c0,0,0.1-0.1,0.1-0.2c0-0.1,0.1-0.1,0.2-0.2c0,0,0.2-0.2,0.4-0.4c0.2-0.2,0.6-0.5,0.8-0.7
			c0.3-0.2,0.6-0.4,0.7-0.5c0.1-0.1,0.3-0.2,0.3-0.2c0,0,0.1-0.1,0.1-0.1c0,0,0.1-0.1,0.1-0.2c0-0.1,0.1-0.2,0.1-0.2s0-0.2,0-0.3
			c0-0.1,0-0.3,0-0.4c0-0.1,0-0.3,0-0.4c0-0.1,0-0.2,0-0.3c0-0.1,0-0.2,0-0.2c0-0.1,0-0.1,0.1-0.2c0-0.1,0.1-0.2,0.1-0.2
			c0-0.1,0.1-0.2,0.1-0.2c0,0,0.1-0.1,0.1-0.1s0.1-0.1,0.1-0.1c0,0,0.1-0.2,0.1-0.3c0-0.1,0.2-0.7,0.3-1.2c0.1-0.5,0.2-1,0.2-1
			c0,0,0.1-0.2,0.2-0.3c0.1-0.1,0.2-0.3,0.2-0.3c0,0,0,0,0.1-0.1c0,0,0.1-0.1,0.2-0.1c0.1,0,0.1-0.1,0.2-0.1c0,0,0.1,0,0.1-0.1
			c0,0,0.2-0.1,0.2-0.1c0.1,0,0.2-0.1,0.3-0.1c0,0,0.1,0,0.1-0.1c0,0,0.1-0.1,0.3-0.2c0.1-0.1,0.3-0.2,0.4-0.3
			c0.1-0.1,0.4-0.3,0.7-0.6c0.3-0.2,0.7-0.5,0.9-0.6c0.2-0.1,0.4-0.2,0.6-0.3c0.1-0.1,0.3-0.1,0.3-0.2c0.1,0,0.2-0.1,0.3-0.1
			c0.1,0,0.2,0,0.3,0c0.1,0,0.1,0,0.2,0c0,0,0.2,0,0.3,0c0.1,0,0.3,0,0.3-0.1c0,0,0.1,0,0.1-0.1c0,0,0.1,0,0.1-0.1
			c0,0,0.1,0,0.1-0.1c0,0,0.1,0,0.1,0c0,0,0.2,0,0.4,0c0.1,0,0.3,0,0.3,0c0,0,0.1,0,0.1,0c0,0,0.1,0,0.1,0c0,0,0.1,0,0.2-0.1
			c0.1,0,0.2,0,0.3-0.1c0.1,0,0.2,0,0.2-0.1c0.1,0,0.2-0.1,0.2-0.1c0.1,0,0.1-0.1,0.2-0.1c0,0,0.1-0.1,0.2-0.1
			c0.1,0,0.2-0.1,0.3-0.1c0.1,0,0.2,0,0.3,0c0.1,0,0.6,0,1.1,0c0.5,0,1,0,1.1,0c0.1,0,0.2,0,0.3,0c0.1,0,0.1,0,0.2,0
			c0,0,0.2,0,0.4,0c0.2,0,0.3,0,0.3,0c0,0,0-0.1-0.1-0.2c0-0.1-0.1-0.2-0.2-0.3c0-0.1-0.1-0.1-0.1-0.2s-0.1-0.1-0.2-0.2
			c-0.1,0-0.2-0.1-0.3-0.2c-0.1-0.1-0.2-0.1-0.3-0.1c-0.1,0-0.3-0.1-0.4-0.1c-0.1,0-0.3-0.1-0.4-0.1c-0.1,0-0.1,0-0.2-0.1
			c0,0-0.1-0.1-0.1-0.1c0-0.1-0.1-0.1-0.1-0.2c0-0.1,0-0.2,0-0.2c0-0.1,0-0.1,0-0.2c0-0.1,0.2-0.4,0.5-0.9c0.2-0.4,0.6-0.9,0.7-1.2
			c0.1-0.2,0.3-0.5,0.4-0.5s0.2-0.2,0.2-0.3c0-0.1,0.1-0.2,0.1-0.2c0-0.1,0.1-0.2,0.1-0.3c0-0.1,0-0.2,0.1-0.3c0-0.1,0-0.2,0-0.3
			c0-0.1-0.1-0.2-0.1-0.3c0-0.1-0.1-0.2-0.2-0.3c0-0.1-0.1-0.2-0.2-0.2c0,0-0.1-0.1-0.2-0.2c-0.1-0.1-0.1-0.1-0.2-0.2
			c-0.1,0-0.1-0.1-0.2-0.1c0,0-0.1,0-0.2-0.1c-0.1,0-0.1,0-0.2,0c0,0-0.1,0-0.2,0c-0.1,0-0.2,0-0.2,0c0,0-0.1,0-0.2,0
			c-0.1,0-0.2,0-0.3,0c-0.1,0-0.2-0.1-0.2-0.1c0,0-0.1-0.1-0.2-0.1c0,0-0.1-0.1-0.2-0.1c-0.1,0-0.2-0.1-0.2-0.2c0,0-0.1-0.1-0.2-0.1
			c-0.1,0-0.2-0.1-0.2-0.1c-0.1,0-0.2,0-0.3,0c-0.1,0-0.2,0-0.2,0c0,0-0.1,0-0.2,0c0,0-0.1,0-0.2,0s-0.1,0-0.2,0c0,0-0.1,0-0.2,0.1
			c0,0-0.1,0-0.1,0c0,0-0.1,0-0.1,0c0,0-0.2,0-0.4,0c-0.2,0-0.3,0-0.4,0c0,0-0.1,0-0.2,0c0,0-0.1-0.1-0.2-0.1
			c-0.1,0-0.2-0.1-0.3-0.1c-0.1,0-0.2-0.1-0.3-0.1c-0.1,0-0.2,0-0.2,0c-0.1,0-0.2,0-0.3,0s-0.3,0-0.4,0c-0.1,0-0.2,0-0.3,0
			c0,0-0.1,0-0.2,0.1c0,0-0.1,0.1-0.2,0.2c-0.1,0.1-0.2,0.1-0.3,0.2c-0.1,0-0.2,0.1-0.4,0.2c-0.1,0-0.3,0.1-0.4,0.1
			c-0.1,0-0.3,0.1-0.3,0.1s-0.2,0-0.3,0c-0.1,0-0.3,0-0.5,0c-0.2,0-0.7,0-1-0.1c-0.4,0-0.8-0.1-0.8-0.1c-0.1,0-0.2,0-0.2-0.1
			s-0.1-0.1-0.2-0.1c-0.1,0-0.1-0.1-0.2-0.1c0,0-0.1-0.1-0.1-0.2c0-0.1-0.1-0.1-0.1-0.2c0,0,0-0.1-0.1-0.2c0-0.1,0-0.2,0-0.3
			c0-0.1,0-0.3,0-0.3c0-0.1,0-0.2,0-0.3c0-0.1,0-0.2,0-0.3c0-0.1,0-0.2-0.1-0.2c0-0.1-0.1-0.1-0.1-0.2c0,0-0.1-0.1-0.1-0.2
			c0,0-0.1-0.1-0.1-0.1c0,0-0.1-0.1-0.2-0.1c-0.1,0-0.2-0.1-0.2-0.1c-0.1,0-0.2,0-0.2,0c0,0-0.1,0-0.2-0.1c0,0-0.1,0-0.2-0.1
			c0,0-0.1-0.1-0.1-0.1c0,0-0.1-0.1-0.1-0.1c0,0-0.1-0.2-0.1-0.3c0-0.1-0.1-0.3-0.1-0.4c0-0.1-0.1-0.2-0.1-0.2
			c0-0.1-0.1-0.1-0.1-0.2c0,0-0.5-0.4-0.9-0.7c-0.5-0.4-0.9-0.7-0.9-0.7c-0.1,0-0.1-0.1-0.2-0.1c0,0-0.1-0.1-0.2-0.1
			c-0.1,0-0.2-0.1-0.2-0.1c0,0-0.1-0.1-0.2-0.1c-0.1,0-0.1-0.1-0.2-0.1c0,0-0.1-0.1-0.1-0.2c0-0.1-0.1-0.2-0.2-0.3
			c-0.1-0.1-0.1-0.2-0.1-0.3c0-0.1-0.1-0.2-0.1-0.2c0-0.1-0.1-0.2-0.1-0.2c0-0.1-0.1-0.1-0.1-0.2c0,0-0.1-0.1-0.1-0.2
			c0-0.1-0.1-0.1-0.2-0.2c-0.1,0-0.6-0.4-1.3-0.9c-0.7-0.5-1.2-0.9-1.3-0.9c0,0-0.1-0.1-0.2-0.1c0,0-0.1,0-0.2-0.1c0,0-0.1,0-0.2,0
			c-0.1,0-0.1,0-0.2,0c-0.1,0-0.2,0-0.2,0c-0.1,0-0.2,0-0.2,0c-0.1,0-0.2,0-0.2,0c-0.1,0-0.2,0-0.2,0c-0.1,0-0.1,0-0.2,0
			c0,0-0.1,0-0.2,0c0,0-0.1,0-0.1,0c0,0,0,0.1-0.1,0.2c0,0.1,0,0.2,0,0.2c0,0.1,0,0.1,0,0.2c0,0,0,0.1,0,0.1c0,0,0.1,0.1,0.1,0.2
			c0,0.1,0.1,0.2,0.1,0.2c0,0,0.1,0.1,0.1,0.2c0,0,0.1,0.1,0.1,0.2c0,0.1,0.1,0.1,0.2,0.2c0,0.1,0.1,0.1,0.1,0.2
			c0,0,0.1,0.2,0.1,0.3c0,0.1,0,0.3,0.1,0.4c0,0.1,0,0.3,0.1,0.4c0,0.1,0,0.2,0,0.3c0,0.1,0,0.1,0,0.2c0,0.1,0,0.2,0,0.2
			c0,0.1,0,0.2-0.1,0.3s-0.1,0.2-0.1,0.2c0,0.1-0.1,0.2-0.1,0.2c0,0.1-0.1,0.2-0.1,0.3c0,0.1-0.1,0.2-0.1,0.3c0,0.1,0,0.2-0.1,0.3
			c0,0.1-0.1,0.3-0.1,0.4c0,0.1-0.1,0.3-0.1,0.4c0,0.1-0.1,0.2-0.1,0.2c0,0-0.2,0.2-0.4,0.4c-0.2,0.2-0.9,0.9-1.5,1.6
			c-0.6,0.6-1.4,1.4-1.7,1.7s-0.6,0.5-0.7,0.6s-0.2,0.1-0.3,0.2c-0.1,0.1-0.4,0.2-0.7,0.4s-0.6,0.3-0.7,0.4c-0.1,0-0.3,0.1-0.4,0.1
			c-0.1,0-0.4,0.1-0.6,0.2c-0.3,0.1-0.7,0.2-1,0.2c-0.3,0.1-0.6,0.1-0.7,0.2c-0.1,0-0.3,0.1-0.4,0.2c-0.1,0.1-0.6,0.3-0.9,0.6
			c-0.4,0.2-0.7,0.5-0.8,0.6c-0.1,0.1-0.4,0.4-0.7,0.8c-0.3,0.3-0.7,0.9-0.9,1.2c-0.2,0.3-0.4,0.7-0.5,0.9c-0.1,0.2-0.2,0.5-0.2,0.7
			c-0.1,0.2-0.2,0.6-0.3,1c-0.1,0.3-0.2,0.7-0.3,1c-0.1,0.2-0.1,0.4-0.2,0.5c0,0.1-0.1,0.2-0.2,0.3c-0.1,0.1-0.3,0.4-0.4,0.6
			c-0.2,0.2-0.4,0.5-0.5,0.5c-0.1,0.1-0.2,0.2-0.2,0.2c0,0.1-0.1,0.1-0.2,0.1c-0.1,0-0.2,0.1-0.2,0.1c-0.1,0-0.2,0-0.2,0.1
			c-0.1,0-0.1,0-0.2,0c0,0-0.1,0-0.2,0c0,0-0.1,0-0.2-0.1c-0.1,0-0.3-0.4-0.6-0.8c-0.3-0.4-0.5-0.8-0.6-0.9c0-0.1-0.1-0.2-0.1-0.2
			c0-0.1-0.1-0.1-0.1-0.2c0,0-0.1-0.1-0.1-0.1c0,0-0.1-0.1-0.2-0.1c-0.1,0-0.2,0-0.2-0.1c-0.1,0-0.2,0-0.2,0c-0.1,0-0.2,0-0.2-0.1
			c-0.1,0-0.2,0-0.3-0.1c-0.1,0-0.2,0-0.3-0.1c0,0-0.1,0-0.2-0.1c0,0-0.1,0-0.1,0c0,0-0.1,0-0.1,0c0,0-0.2,0-0.3,0
			c-0.1,0-0.3,0-0.3,0c0,0-0.1,0-0.2,0c-0.1,0-0.1,0-0.2,0c0,0-0.1,0-0.1,0c0,0-0.1,0-0.1,0c0,0-0.1,0-0.1,0c0,0-0.1,0-0.1-0.1
			c0,0-0.1-0.1-0.1-0.1c0,0,0-0.1-0.1-0.2c0-0.1,0-0.2,0-0.2c0-0.1,0-0.2,0-0.2c0-0.1,0-0.2,0-0.2c0-0.1,0-0.2,0.1-0.2
			c0-0.1,0.1-0.2,0.2-0.3c0.1-0.1,0.2-0.2,0.2-0.3c0,0,0.1-0.2,0.1-0.3c0-0.1,0.1-0.3,0.1-0.4c0-0.1,0-0.3,0.1-0.4
			c0-0.1,0-0.3,0-0.4c0-0.1,0-0.3,0-0.4c0-0.1-0.1-0.3-0.1-0.5c-0.1-0.1-0.1-0.2-0.2-0.3c0,0-0.2,0.1-0.3,0.2s-0.7,0.7-1.1,1.2
			c-0.5,0.5-1,1.1-1.3,1.4c-0.2,0.3-0.5,0.5-0.5,0.6c-0.1,0.1-0.2,0.2-0.3,0.3c-0.1,0.1-0.2,0.2-0.2,0.3c0,0.1-0.1,0.2-0.1,0.2
			c0,0.1-0.1,0.2-0.1,0.3c0,0.1-0.1,0.3-0.1,0.5c0,0.2-0.1,0.4-0.1,0.5c0,0.1,0,0.3,0,0.3s0,0.2,0,0.3c0,0.1,0.1,0.2,0.1,0.4
			c0.1,0.1,0.1,0.3,0.2,0.4c0,0.1,0.1,0.2,0.1,0.3c0,0.1,0.1,0.2,0.1,0.3c0,0.1,0,0.2,0.1,0.3c0,0.1,0,0.2,0.1,0.3
			c0,0.1,0,0.2,0,0.3c0,0.1,0,0.2,0,0.3c0,0.1,0,0.2,0,0.3c0,0.1,0.1,0.2,0.1,0.3c0,0.1,0.1,0.2,0.1,0.4c0,0.1,0.1,0.3,0.1,0.4
			c0,0.1,0.1,0.3,0.1,0.4c0,0.1,0.1,0.2,0.1,0.3c0,0.1,0,0.2,0,0.2c0,0,0,0.1,0,0.2c0,0.1,0,0.1-0.1,0.2s-0.1,0.1-0.1,0.1
			c0,0-0.1,0.1-0.1,0.2c0,0.1-0.1,0.1-0.1,0.2c0,0.1,0,0.2,0,0.2c0,0.1,0,0.2,0,0.2c0,0.1,0,0.2,0,0.2c0,0.1,0.1,0.2,0.1,0.3
			c0,0.1,0.2,0.2,0.3,0.3c0.1,0.1,0.3,0.3,0.4,0.4c0.1,0.1,0.3,0.2,0.5,0.3c0.1,0.1,0.3,0.2,0.5,0.2c0.1,0.1,0.4,0.2,0.6,0.3
			c0.2,0.1,0.4,0.2,0.6,0.2c0.1,0.1,0.4,0.2,0.5,0.2c0.1,0.1,0.4,0.2,0.5,0.3c0.1,0.1,0.3,0.2,0.5,0.3c0.1,0.1,0.4,0.4,0.7,0.7
			c0.3,0.3,0.7,0.7,0.9,1c0.2,0.3,0.4,0.6,0.5,0.6c0,0.1,0.1,0.1,0.1,0.2c0,0,0,0.1,0.1,0.1c0,0,0,0.1,0,0.2c0,0.1,0,0.2,0.1,0.3
			c0,0.1,0.1,0.3,0.1,0.4c0,0.1,0.1,0.3,0.2,0.4c0.1,0.2,0.3,0.7,0.6,1.2c0.3,0.5,0.5,1,0.6,1.1c0.1,0.1,0.4,0.6,0.8,1.2
			c0.4,0.5,0.8,1.2,0.9,1.4c0.1,0.2,0.5,0.9,0.8,1.4c0.3,0.6,0.6,1.2,0.7,1.5c0.1,0.2,0.3,0.8,0.5,1.2c0.2,0.4,0.4,0.9,0.5,1.1
			c0.1,0.2,0.1,0.4,0.2,0.5c0,0.1,0.1,0.3,0.1,0.4c0,0.1,0.1,0.3,0.1,0.4c0,0.1,0.1,0.3,0.2,0.4c0.1,0.1,0.2,0.4,0.3,0.6
			c0.1,0.2,0.4,0.7,0.7,1.2c0.3,0.4,0.5,0.9,0.6,1.1c0.1,0.2,0.2,0.5,0.3,0.6c0.1,0.2,0.2,0.4,0.3,0.6c0.1,0.2,0.2,0.4,0.3,0.5
			c0.1,0.1,0.2,0.3,0.3,0.5c0.1,0.2,0.3,0.4,0.4,0.5c0.1,0.1,0.2,0.3,0.3,0.4c0.1,0.1,0.2,0.3,0.2,0.3c0.1,0.1,0.3,0.5,0.5,0.9
			c0.2,0.4,0.6,1,0.7,1.3c0.2,0.3,0.4,0.8,0.6,1c0.1,0.3,0.3,0.6,0.5,0.8c0.1,0.2,0.4,0.6,0.6,0.9c0.2,0.3,0.5,0.8,0.6,1
			c0.2,0.3,0.4,0.6,0.4,0.7c0.1,0.1,0.2,0.3,0.2,0.3c0.1,0.1,0.1,0.2,0.1,0.2c0,0,0,0.1,0.1,0.1c0,0,0,0.1,0,0.2c0,0.1,0,0.2,0,0.2
			c0,0.1,0,0.2,0,0.3c0,0.1-0.1,0.2-0.1,0.3c0,0.1-0.1,0.2-0.2,0.3c-0.1,0.1-0.1,0.2-0.2,0.2c0,0-0.1,0.1-0.1,0.2
			c0,0.1-0.1,0.1-0.1,0.2c0,0-0.1,0.1-0.1,0.2c0,0.1-0.1,0.1-0.1,0.2c0,0,0,0.1,0,0.1c0,0,0,0.1,0,0.1c0,0,0,0.1,0,0.2
			c0,0,0,0.1,0,0.1c0,0,0.1,0.1,0.2,0.3s0.2,0.3,0.3,0.4c0.1,0.1,0.2,0.3,0.3,0.3c0.1,0.1,0.2,0.2,0.2,0.3c0,0.1,0.3,0.4,0.6,0.7
			c0.3,0.3,0.5,0.6,0.6,0.7c0.1,0.1,0.2,0.1,0.2,0.2c0.1,0,0.2,0.1,0.2,0.2s0.1,0.1,0.2,0.2c0.1,0.1,0.2,0.2,0.3,0.3
			c0.1,0.1,0.2,0.3,0.3,0.3c0.1,0.1,0.1,0.1,0.2,0.2c0,0,0.1,0.1,0.2,0.1c0.1,0,0.2,0.1,0.2,0.1c0.1,0,0.2,0.1,0.3,0.1
			c0.1,0,0.2,0.1,0.3,0.1c0.1,0,0.1,0.1,0.2,0.1c0.1,0,0.2,0.2,0.4,0.4c0.2,0.2,0.3,0.4,0.4,0.4c0.1,0.1,0.2,0.2,0.3,0.2
			c0.1,0,0.2,0.1,0.3,0.2c0.1,0.1,0.3,0.2,0.5,0.3c0.2,0.1,0.5,0.3,0.7,0.5c0.2,0.2,0.8,0.6,1.3,0.9c0.5,0.3,1.1,0.7,1.3,0.9
			c0.2,0.1,0.5,0.3,0.6,0.4c0.1,0.1,0.3,0.2,0.5,0.2c0.2,0.1,0.4,0.1,0.5,0.2c0.1,0,0.4,0.1,0.5,0.2c0.1,0.1,0.6,0.2,1,0.4
			c0.4,0.2,0.9,0.4,1.2,0.5c0.3,0.1,0.7,0.3,0.9,0.4c0.2,0.1,0.6,0.3,1,0.5s0.6,0.3,0.7,0.4c0.1,0,0.2,0.1,0.3,0.2
			c0.1,0,0.3,0.2,0.5,0.3c0.2,0.1,0.5,0.3,0.7,0.5c0.2,0.1,0.5,0.3,0.7,0.4c0.2,0.1,0.5,0.3,0.6,0.4c0.1,0.1,0.4,0.3,0.5,0.4
			c0.1,0.1,0.4,0.3,0.5,0.4c0.2,0.1,0.4,0.3,0.5,0.4c0.1,0.1,0.2,0.2,0.3,0.3c0,0.1,0.1,0.2,0.1,0.2c0,0.1,0.1,0.2,0.1,0.2
			c0,0.1,0.1,0.2,0.1,0.2c0,0.1,0.1,0.2,0.1,0.3c0,0.1,0.1,0.2,0.1,0.3c0,0.1,0.1,0.1,0.1,0.2c0,0.1,0.1,0.2,0.2,0.3
			c0.1,0.1,0.2,0.2,0.2,0.2c0,0,0.1,0.1,0.2,0.1c0,0,0.1,0.1,0.2,0.1c0.1,0,0.3,0.1,0.4,0.2c0.1,0.1,0.4,0.2,0.6,0.2
			c0.2,0.1,0.3,0.1,0.4,0.2c0,0,0.1,0.1,0.2,0.1c0.1,0,0.2,0.1,0.2,0.1c0.1,0,0.2,0.1,0.3,0.1c0.1,0,0.2,0.1,0.2,0.1
			c0.1,0,0.2,0,0.3,0c0.1,0,0.3,0,0.3,0c0.1,0,0.2,0,0.3,0c0.1,0,0.2,0,0.2,0s0.2,0,0.2-0.1s0.2-0.1,0.3-0.1c0.1,0,0.2-0.1,0.3-0.1
			s0.2-0.1,0.3-0.2c0.1-0.1,0.2-0.2,0.3-0.2c0.1,0,0.1-0.1,0.2-0.2c0-0.1,0.1-0.2,0.1-0.2c0-0.1,0.1-0.2,0.1-0.3
			c0-0.1,0.1-0.2,0.1-0.3c0-0.1,0-0.2,0-0.2c0-0.1,0-0.1,0-0.2c0,0,0-0.1-0.1-0.2c0-0.1-0.1-0.1-0.1-0.2c0,0-0.1-0.1-0.1-0.1
			c0,0,0-0.1,0-0.2c0,0,0-0.1,0-0.2c0,0,0-0.1,0-0.2c0,0,0.1-0.1,0.1-0.2c0,0,0.1-0.1,0.1-0.1c0,0,0.1-0.1,0.2-0.1
			c0.1,0,0.2-0.1,0.2-0.1c0,0,0.1-0.1,0.2-0.1c0,0,0.1-0.1,0.1-0.2c0-0.1,0.1-0.2,0.1-0.3c0-0.1,0-0.2,0-0.3s0-0.2,0-0.3
			s0.1-0.2,0.1-0.3s0.1-0.2,0.2-0.3c0.1-0.1,0.3-0.3,0.4-0.4c0.1-0.1,0.3-0.3,0.4-0.4c0.1-0.1,0.3-0.3,0.4-0.5
			c0.1-0.2,0.4-0.5,0.6-0.7c0.2-0.2,0.4-0.5,0.4-0.6c0.1-0.1,0.2-0.3,0.2-0.3c0,0,0.1-0.1,0.1-0.2c0-0.1,0-0.2,0-0.2
			c0-0.1,0-0.2,0-0.3c0-0.1,0-0.2,0-0.2c0,0-0.1-0.1-0.1-0.2c0-0.1-0.1-0.1-0.2-0.2c0,0-0.1-0.1-0.2-0.1c0,0-0.1,0-0.2,0
			c0,0-0.2,0-0.2-0.1c-0.1,0-0.2-0.1-0.2-0.1c-0.1,0-0.1-0.1-0.2-0.1c-0.1,0-0.1-0.1-0.2-0.2c0,0-0.1-0.1-0.1-0.2
			c0-0.1-0.1-0.1-0.1-0.2c0-0.1-0.1-0.2-0.1-0.2c0-0.1-0.1-0.2-0.1-0.3c0-0.1,0-0.2,0-0.3c0-0.1,0-0.2,0-0.3c0-0.1,0-0.2,0.1-0.3
			c0-0.1,0.1-0.2,0.1-0.2c0,0,0.1-0.1,0.1-0.2c0-0.1,0.1-0.1,0.2-0.2c0,0,0.1-0.1,0.2-0.1c0,0,0.1-0.1,0.1-0.1c0,0,0.1-0.1,0.1-0.2
			c0-0.1,0-0.2,0-0.2c0-0.1,0-0.2-0.1-0.3c0-0.1-0.1-0.2-0.2-0.3c-0.1-0.1-0.1-0.2-0.1-0.2c0,0,0-0.1-0.1-0.2s0-0.2-0.1-0.2
			c0-0.1,0-0.2,0-0.3c0-0.1,0-0.2,0-0.2c0-0.1,0-0.2,0-0.3c0-0.1,0-0.2,0.1-0.3c0-0.1,0.1-0.2,0.1-0.3c0-0.1,0.1-0.2,0.2-0.4
			c0.1-0.1,0.2-0.3,0.3-0.4c0.1-0.1,0.3-0.3,0.4-0.4c0.1-0.1,0.3-0.3,0.4-0.4c0.1-0.1,0.2-0.2,0.2-0.3c0,0,0.1-0.1,0.1-0.2
			c0-0.1,0.1-0.1,0.1-0.2c0,0,0-0.1,0-0.2c0-0.1,0-0.2,0-0.2c0-0.1,0-0.1-0.1-0.2c0,0-0.1-0.1-0.2-0.2c-0.1-0.1-0.1-0.2-0.2-0.3
			c0-0.1-0.1-0.2-0.1-0.3c0-0.1-0.1-0.2-0.1-0.2c0-0.1,0-0.2,0-0.2c0-0.1,0-0.1,0-0.2c0,0,0-0.1,0-0.1c0,0,0-0.1,0.1-0.2
			c0-0.1,0.1-0.2,0.2-0.3c0.1-0.1,0.1-0.2,0.1-0.2c0,0,0.1-0.1,0.1-0.2c0-0.1,0-0.2,0-0.2c0-0.1,0-0.2,0-0.2c0-0.1-0.1-0.2-0.1-0.2
			c0-0.1-0.1-0.1-0.1-0.2c0-0.1,0-0.4,0-0.7c0-0.3,0-0.6,0-0.7c0-0.1,0-0.2,0.1-0.2c0-0.1,0.1-0.2,0.1-0.2c0-0.1,0.1-0.1,0.2-0.2
			c0.1,0,0.1-0.1,0.2-0.2c0.1,0,0.1-0.1,0.2-0.1c0,0,0.1-0.1,0.1-0.2c0-0.1,0.1-0.2,0.1-0.2c0-0.1,0.1-0.2,0.1-0.3
			c0-0.1,0.1-0.3,0.1-0.3c0-0.1,0-0.2,0-0.3c0-0.1,0-0.2,0-0.3C148.3,346.8,148.2,346.7,148.2,346.6"/>
		<path class="st13" d="M59.5,95.2c-0.1-1.2,2-2.1,4.7-2c2.7,0.1,4.9,0.2,4.9,0.4c0,0.1,0,0.2,0,0.3c0,0.1,0.1,0.2,0.1,0.4
			c0.1,0.1,0.2,0.3,0.3,0.4c0.1,0.1,1.9,1.1,3.9,2.3c2.1,1.2,4.6,2.6,5.6,3.2c1,0.6,2.1,1.2,2.4,1.4c0.3,0.2,0.7,0.4,0.8,0.5
			c0.1,0.1,0.2,0.1,0.3,0.2c0.1,0,0.2,0.1,0.3,0.1c0.1,0,0.7,0,1.4,0.1c0.7,0,1.4,0,1.5,0.1c0.1,0,0.2,0,0.3,0.1
			c0.1,0,0.9,0.1,1.8,0.2c0.9,0.1,1.8,0.2,1.9,0.2c0.1,0,0.3,0,0.4,0.1c0.1,0,0.8,0.1,1.5,0.1c0.7,0,1.5,0.1,1.8,0.1
			c0.3,0,0.7,0,0.8,0c0.1,0,0.3-0.1,0.4-0.2c0.1-0.1,0.3-0.2,0.3-0.3c0.1-0.1,0.1-0.3,0.2-0.5c0-0.2,0.1-0.5,0.1-0.6
			c0-0.2,0-0.3,0.1-0.4c0-0.1,0.1-0.1,0.2-0.2c0.1,0,0.2-0.1,0.3-0.1c0.1,0,0.2,0,0.3,0c0.1,0,0.2,0.1,0.3,0.1
			c0.1,0,0.2,0.1,0.3,0.1c0.1,0,0.3,0.1,0.5,0.1c0.2,0,1.2,0.1,2.2,0.1c1,0,2,0.1,2.1,0.1c0.1,0,0.3,0,0.4,0.1
			c0.1,0,0.3,0.1,0.4,0.2c0.1,0.1,0.3,0.2,0.4,0.3c0.1,0.1,0.4,0.5,0.6,0.8c0.2,0.4,0.8,1.2,1.3,1.8c0.5,0.6,1.1,1.3,1.2,1.5
			c0.1,0.2,0.4,0.5,0.7,0.7c0.2,0.2,0.5,0.5,0.6,0.5c0.1,0,0.2,0.1,0.2,0.1c0.1,0,0.2,0.1,0.2,0.1c0,0,0.1,0.1,0.2,0.2
			c0,0.1,0.1,0.2,0.2,0.3c0,0.1,0.1,0.2,0.2,0.4c0,0.1,0.1,0.3,0.1,0.5c0,0.2,0.1,0.4,0.1,0.5c0,0.1,0,0.3,0.1,0.4
			c0,0.1,0.1,0.2,0.1,0.2c0,0.1,0.1,0.2,0.1,0.2c0,0.1,0.1,0.2,0.1,0.3c0,0.1,0,0.5,0,0.8v0.8c0,0.1,0,0.3,0,0.4
			c0,0.1,0,0.3,0.1,0.4c0,0.1,0.6,0.7,1.2,1.3c0.6,0.6,1.6,1.5,2.1,1.9c0.5,0.4,1,0.8,1.1,0.9c0.1,0.1,0.2,0.1,0.3,0.2
			c0.1,0,0.3,0.1,0.4,0.1s0.3,0,0.4,0c0.1,0,0.3-0.1,0.4-0.2c0.1-0.1,0.7-0.7,1.3-1.5c0.6-0.7,1.2-1.4,1.2-1.5
			c0.1-0.1,0.2-0.3,0.3-0.4s0.3-0.2,0.5-0.2c0.2,0,0.9-0.1,1.7-0.1s1.5,0,1.6,0c0.1,0,0.3,0,0.4,0.1s0.6,0.4,1.1,0.7
			c0.4,0.4,0.9,0.8,1,0.9c0.1,0.1,0.3,0.4,0.4,0.6c0.1,0.2,0.3,0.5,0.5,0.8c0.2,0.3,0.4,0.7,0.5,1c0.1,0.2,0.2,0.7,0.3,1.1
			c0.1,0.3,0.4,1.2,0.6,1.9c0.2,0.7,0.5,1.4,0.6,1.6c0.1,0.2,0.3,0.5,0.4,0.8c0.2,0.2,0.4,0.7,0.6,0.9c0.2,0.2,0.4,0.6,0.5,0.7
			s0.3,0.3,0.4,0.4c0.1,0.1,0.2,0.2,0.3,0.3c0.1,0.1,0.2,0.2,0.2,0.3c0.1,0.1,0.2,0.2,0.2,0.3c0,0.1,0.1,0.2,0.1,0.3s0,0.6,0,1.2
			c0,0.5,0,1.1,0,1.2c0,0.1,0,0.3,0.1,0.5c0,0.2,0.1,0.4,0.1,0.5c0,0.1,0.1,0.4,0.2,0.6c0.1,0.2,0.3,0.5,0.5,0.8
			c0.2,0.2,0.4,0.5,0.4,0.6c0.1,0.1,0.2,0.2,0.3,0.3c0.1,0.1,0.3,0.2,0.4,0.3c0.1,0.1,0.4,0.2,0.5,0.2c0.2,0.1,0.5,0.2,0.7,0.2
			c0.2,0,0.4,0.1,0.6,0.1c0.1,0,0.3,0.1,0.4,0.2c0.1,0.1,0.2,0.2,0.3,0.3c0.1,0.1,0.2,0.2,0.2,0.3c0,0.1,0.1,0.2,0.1,0.2
			c0,0.1,0.1,0.1,0.2,0.2c0.1,0,0.2,0.1,0.3,0.1h0.4h0.5c0.2,0,0.4,0,0.6,0c0.2,0,0.4,0.1,0.5,0.1c0.1,0.1,0.3,0.2,0.4,0.2
			c0.1,0.1,0.3,0.2,0.5,0.2c0.1,0,0.4,0.1,0.6,0c0.2,0,0.5-0.1,0.6-0.1c0.2-0.1,0.3,0.1,0.3,0.2c0,0.2-0.1,0.5-0.1,0.7
			c-0.1,0.2-0.2,0.6-0.3,0.8c-0.1,0.2-0.2,0.5-0.3,0.7c-0.1,0.1-0.3,0.5-0.5,0.7c-0.2,0.3-0.4,0.6-0.5,0.7c-0.1,0.1-0.2,0.4-0.3,0.6
			c-0.1,0.2-0.3,0.4-0.3,0.5s-0.1,0.3-0.2,0.4c0,0.1-0.1,0.4-0.2,0.7c0,0.3-0.1,0.6-0.1,0.8c0,0.2,0,0.5,0,0.8
			c0,0.3-0.1,0.7-0.1,0.9c0,0.2-0.1,0.8-0.2,1.3c-0.1,0.5-0.3,1.4-0.5,2.1c-0.2,0.7-0.3,1.4-0.3,1.6s-0.1,0.7-0.1,1.2
			c-0.1,0.5-0.1,1-0.2,1.1c0,0.2-0.1,0.5-0.2,0.8c-0.1,0.3-0.1,0.7-0.2,0.9c0,0.2-0.1,0.6-0.1,0.8c0,0.2-0.1,0.6-0.1,0.8
			c0,0.2,0,0.6,0,0.8c0,0.2,0.1,0.6,0.1,0.8c0,0.2,0.2,0.6,0.3,0.8c0.1,0.2,0.3,0.6,0.4,0.8c0.1,0.2,0.2,0.4,0.3,0.5
			c0,0.1,0.1,0.2,0.1,0.3c0,0.1,0,0.2,0,0.3s-0.1,0.3-0.1,0.4c0,0.1-0.1,0.3-0.1,0.4c0,0.1,0,0.3,0,0.4c0,0.1,0,0.3,0.1,0.5
			c0,0.1,0.2,0.8,0.4,1.4c0.2,0.6,0.5,1.4,0.6,1.6c0.1,0.2,0.3,0.6,0.5,0.9c0.2,0.2,0.4,0.6,0.6,0.9c0.2,0.2,0.4,0.5,0.5,0.6
			c0.1,0.1,0.2,0.3,0.3,0.4c0.1,0.1,0.2,0.3,0.3,0.3c0.1,0.1,0.2,0.3,0.3,0.4c0.1,0.1,0.2,0.3,0.2,0.5c0,0.1,0,0.3,0.1,0.5
			c0,0.1,0,0.4,0,0.6c0,0.2,0,0.4,0.1,0.5s0.1,0.3,0.1,0.4c0,0.1,0.1,0.4,0.3,0.6c0.1,0.2,0.4,0.7,0.7,1.1c0.3,0.4,0.5,0.8,0.6,0.8
			c0.1,0.1,0.2,0.2,0.3,0.2c0.1,0.1,0.3,0.2,0.4,0.2c0.1,0.1,0.4,0.1,0.5,0.2c0.2,0,0.7,0.1,1.1,0.1c0.5,0,0.9,0,1,0.1
			c0.1,0,0.2,0.1,0.3,0.1c0.1,0,0.2,0.1,0.3,0.1c0.1,0,0.2,0.2,0.3,0.2c0.1,0.1,0.2,0.3,0.4,0.5s0.4,0.4,0.5,0.6
			c0.2,0.2,0.4,0.4,0.6,0.5c0.1,0.1,0.4,0.2,0.5,0.3c0.1,0.1,0.3,0.2,0.4,0.2c0.1,0,0.4,0.1,0.7,0.1c0.3,0,0.8,0,1.1,0
			s0.9-0.1,1.2-0.1c0.3,0,0.7-0.1,0.8-0.2c0.2-0.1,0.4-0.2,0.5-0.3c0.1-0.1,0.4-0.2,0.5-0.3c0.1-0.1,0.3-0.1,0.5-0.1
			c0.1,0,0.4,0,0.6,0c0.2,0,0.5,0,0.7,0c0.2,0,0.5,0,0.7,0c0.2,0,0.4,0,0.4,0c0.1,0,0.3-0.1,0.4-0.2c0.1-0.1,0.4-0.2,0.5-0.3
			c0.1-0.1,0.3-0.2,0.5-0.2c0.1,0,0.3-0.1,0.4-0.1c0.1,0,0.7-0.1,1.2-0.1c0.5,0,1,0,1.1,0c0.1,0,0.3,0,0.4,0.1
			c0.1,0,0.3,0.1,0.3,0.2c0.1,0.1,0.2,0.2,0.2,0.3c0.1,0.1,0.2,0.2,0.2,0.2c0.1,0,0.2,0.1,0.3,0.1c0.1,0,0.3,0,0.4,0
			c0.1,0,0.3,0,0.4-0.1c0.1,0,0.3-0.1,0.4-0.2c0.1-0.1,0.3-0.2,0.4-0.4c0.1-0.2,0.3-0.5,0.4-0.7c0.1-0.2,0.2-0.4,0.3-0.6
			c0.1-0.1,0.2-0.3,0.3-0.5c0.1-0.1,0.4-0.3,0.6-0.5c0.2-0.1,0.6-0.4,1-0.7c0.3-0.2,0.7-0.4,0.8-0.5c0.1,0,0.2-0.2,0.3-0.3
			c0.1-0.1,0.2-0.3,0.3-0.5c0.1-0.2,0.2-0.4,0.2-0.6c0-0.2,0.1-0.5,0.1-0.7c0-0.2,0.1-0.5,0.2-0.7c0.1-0.2,0.2-0.4,0.2-0.5
			c0-0.1,0.1-0.2,0.2-0.3c0.1-0.1,0.2-0.3,0.3-0.4c0.1-0.1,0.2-0.3,0.2-0.4c0-0.1,0.1-0.4,0.1-0.6c0-0.2,0-0.5,0-0.7s0-0.5,0.1-0.7
			c0-0.2,0.1-0.5,0.1-0.6c0-0.2,0.1-0.5,0.2-0.6c0.1-0.1,0.2-0.4,0.3-0.6c0.1-0.2,0.3-0.4,0.4-0.6c0.1-0.2,0.4-0.4,0.5-0.5
			c0.1-0.1,0.3-0.2,0.4-0.3c0.1,0,0.3-0.1,0.6-0.3c0.3-0.1,0.5-0.2,0.6-0.2c0.1,0,0.2-0.1,0.3-0.1c0.1,0,0.6-0.1,1.3-0.1
			c0.6,0,1.3-0.1,1.4-0.1s0.4-0.1,0.5-0.1s0.5-0.1,0.7-0.1c0.3,0,0.6-0.1,0.8-0.1c0.2,0,0.4-0.1,0.5-0.2c0.1,0,0.2-0.1,0.3-0.2
			c0.1-0.1,0.2-0.1,0.3-0.2c0.1,0,0.2-0.1,0.3-0.1c0.1,0,0.3-0.1,0.5-0.1c0.2,0,0.7,0,1.2-0.1c0.5,0,0.9-0.1,1-0.1
			c0.1,0,0.2,0,0.2-0.1c0.1,0,0.2-0.1,0.3-0.1c0.1,0,0.2-0.1,0.3-0.1c0.1,0,0.2,0,0.3,0c0.1,0,0.4,0,0.7,0c0.3,0,0.6,0,0.7,0
			c0.1,0,0.3,0,0.5,0c0.2,0,0.4,0,0.6,0.1c0.2,0,0.4,0.1,0.5,0.1c0.1,0,0.3,0.1,0.4,0.1c0.1,0,0.2,0.1,0.3,0.1c0,0,0.1,0.1,0.1,0.1
			c0,0,0.1,0.1,0.1,0.1c0,0,0.1,0.1,0.2,0.2c0,0.1,0.1,0.2,0.1,0.4c0,0.1,0.1,0.6,0.1,1c0,0.4,0.1,0.9,0.1,1c0,0.1,0,0.2,0,0.3
			c0,0.1,0,0.2,0,0.3s-0.1,0.2-0.2,0.3c-0.1,0.1-0.2,0.3-0.3,0.4c-0.1,0.1-0.3,0.3-0.4,0.5c-0.1,0.1-0.3,0.4-0.5,0.5
			c-0.1,0.2-0.3,0.4-0.4,0.5c-0.1,0.1-0.2,0.2-0.2,0.3s-0.1,0.1-0.1,0.2c0,0-0.1,0.2-0.2,0.3c-0.1,0.1-0.2,0.3-0.2,0.4
			c-0.1,0.1-0.2,0.4-0.2,0.5c-0.1,0.2-0.1,0.4-0.1,0.5c0,0.1,0,0.3,0,0.4v0.3c0,0.1,0,0.2,0,0.3c0,0.1,0,0.2-0.1,0.3
			c0,0.1-0.1,0.3-0.1,0.4c0,0.1-0.1,0.3-0.2,0.3c0,0.1-0.1,0.2-0.1,0.2c0,0.1-0.1,0.2-0.1,0.4c0,0.1-0.1,0.4-0.1,0.6
			c0,0.2-0.1,0.5-0.1,0.8c0,0.3,0,0.6-0.1,0.8c0,0.2,0,0.4-0.1,0.5c0,0.1-0.1,0.3-0.2,0.5c-0.1,0.2-0.1,0.5-0.2,0.6
			c-0.1,0.2-0.2,0.5-0.2,0.7c-0.1,0.2-0.2,0.5-0.3,0.8c-0.1,0.2-0.2,0.6-0.3,0.8c-0.1,0.2-0.1,0.4-0.2,0.5c0,0.1-0.1,0.2-0.2,0.3
			c-0.1,0.1-0.1,0.1-0.2,0.2c-0.1,0-0.2,0-0.3,0c-0.1,0-0.2,0-0.3-0.1c-0.1,0-0.2-0.1-0.3-0.2c-0.1-0.1-0.2-0.2-0.2-0.4
			c-0.1-0.1-0.1-0.3-0.2-0.4c-0.1-0.1-0.1-0.2-0.2-0.3c-0.1-0.1-0.1-0.1-0.2-0.2c-0.1,0-0.2-0.1-0.3-0.1c-0.1,0-0.2,0-0.4,0
			c-0.1,0-0.2,0-0.3,0c-0.1,0-0.2,0-0.3,0.1c-0.1,0-0.2,0.2-0.4,0.3c-0.1,0.1-0.3,0.3-0.4,0.4c-0.1,0.1-0.2,0.3-0.2,0.3
			c0,0.1-0.1,0.2-0.1,0.3c0,0.1-0.1,0.2-0.1,0.2c0,0.1-0.1,0.2-0.2,0.2c-0.1,0.1-0.2,0.2-0.2,0.3c-0.1,0.1-0.2,0.2-0.4,0.2
			c-0.1,0.1-0.4,0.2-0.5,0.2c-0.1,0.1-0.4,0.1-0.5,0.1c-0.1,0-0.3,0.1-0.4,0.1c-0.1,0-0.2,0.1-0.3,0.2c0,0-0.1,0.1-0.1,0.3
			c0,0.1-0.4,0.2-0.8,0.1c-0.4,0-0.9-0.1-1.1-0.1c-0.2,0-0.6-0.1-0.8-0.1c-0.2,0-1.6,0-3.1,0c-1.5,0-2.8,0-2.9,0.1
			c-0.1,0-0.2,0.1-0.2,0.2c0,0.1-0.1,0.2-0.1,0.3s0,0.2-0.1,0.3c0,0.1,0,0.2,0,0.3c0,0.1,0,0.3,0,0.4v0.3c0,0,0,0.1,0,0.2
			c0,0.1-0.1,0.2-0.1,0.2c0,0-0.1,0.1-0.2,0.2c-0.1,0-0.3,0.1-0.5,0.1c-0.2,0-0.4,0.1-0.5,0.1h-0.6c-0.2,0-0.3,0.1-0.2,0.3
			c0.1,0.2,0.4,0.5,0.7,0.8c0.2,0.2,1.1,1.1,1.8,1.8c0.8,0.7,1.4,1.4,1.4,1.4c0,0.1,0.1,0.1,0.1,0.2c0,0.1,0.1,0.2,0.1,0.3
			c0,0.1,0,0.3,0,0.4c0,0.1,0,0.3,0,0.4c0,0.1,0,0.2-0.1,0.3c0,0.1-0.1,0.2-0.2,0.3c-0.1,0.1-1.1,0.1-2.4,0.1c-1.3,0-2.5,0-2.7,0
			c-0.2,0-0.5,0-0.6,0.1c-0.1,0-0.2,0.1-0.3,0.1c-0.1,0-0.6,0.7-1.1,1.4c-0.5,0.7-1,1.4-1,1.6c0,0.1-0.1,0.3-0.2,0.4
			c0,0.1-0.1,0.3-0.1,0.3c0,0.1,0,0.2,0,0.3c0,0.1,0.1,0.2,0.1,0.2c0,0,0.1,0.2,0.1,0.2c0,0.1,0.1,0.3,0.1,0.4c0,0.1,0,0.4-0.1,0.5
			c0,0.1-0.2,0.5-0.4,0.9c-0.2,0.4-0.4,0.8-0.4,0.8c0,0.1-1.3-1.2-2.7-2.8c-1.4-1.6-2.7-3-2.8-3.1c-0.1-0.1-0.3-0.3-0.3-0.4
			c-0.1-0.1-0.2-0.2-0.3-0.3c-0.1-0.1-0.2-0.2-0.3-0.2c-0.1-0.1-0.3-0.2-0.5-0.3s-0.5-0.3-0.6-0.4s-0.5-0.2-0.7-0.3
			c-0.2-0.1-0.7-0.2-1-0.3c-0.3-0.1-0.8-0.1-1-0.2c-0.3,0-0.5-0.1-0.6-0.1c-0.1,0-0.2-0.1-0.3-0.1c-0.1,0-0.2,0-0.3-0.1
			c-0.1,0-0.2,0-0.3,0c-0.1,0-0.2,0-0.3,0c-0.1,0-0.3,0-0.4,0c-0.1,0-0.3,0.1-0.5,0.1c-0.2,0.1-0.4,0.1-0.5,0.2
			c-0.1,0-0.2,0.1-0.3,0.2c-0.1,0.1-0.2,0.2-0.3,0.2s-0.2,0.1-0.2,0.2c0,0-0.2,0.1-0.3,0.1c-0.1,0.1-0.2,0.1-0.3,0.2
			c-0.1,0.1-0.2,0.2-0.3,0.2c-0.1,0.1-0.2,0.1-0.2,0.1c0,0-0.1,0.1-0.2,0.1c-0.1,0-0.3,0.1-0.6,0.1c-0.3,0-0.6,0.1-0.7,0.1
			c-0.1,0-0.3,0.1-0.4,0.1c-0.1,0-0.3,0.1-0.4,0.1c-0.1,0-0.3,0.1-0.4,0.1c-0.1,0-0.2,0.1-0.2,0.1c-0.1,0-0.3,0.1-0.5,0.2
			c-0.2,0.1-0.5,0.1-0.7,0.1c-0.2,0-0.5,0-0.7,0c-0.2,0-0.5,0-0.6,0c-0.1,0-0.4-0.1-0.6-0.1c-0.2,0-1-0.3-1.7-0.5
			c-0.8-0.2-1.7-0.5-2.1-0.6c-0.4-0.1-0.8-0.3-0.9-0.3c-0.1,0-0.4-0.1-0.6-0.2c-0.2-0.1-0.5-0.2-0.8-0.3c-0.2-0.1-0.6-0.3-0.8-0.4
			c-0.2-0.1-0.6-0.3-0.8-0.4c-0.2-0.1-0.4-0.2-0.5-0.2c0,0-0.1-0.1-0.2-0.1c-0.1,0-0.2-0.1-0.3-0.2c-0.1-0.1-0.5-0.4-0.9-0.6
			c-0.4-0.3-0.7-0.5-0.8-0.5c-0.1,0-0.2-0.1-0.3-0.1s-0.5-0.2-1-0.4c-0.5-0.2-0.9-0.3-1-0.4c-0.1,0-0.2-0.1-0.4-0.1
			c-0.1,0-0.3,0-0.4-0.1c-0.1,0-0.3-0.1-0.4-0.1c-0.1,0-0.3-0.1-0.4-0.1c-0.1,0-0.3-0.1-0.4-0.2c-0.1-0.1-0.6-0.3-1-0.5
			c-0.4-0.2-0.8-0.4-0.9-0.4c-0.1,0-0.2-0.1-0.2-0.1c-0.1,0-0.2-0.1-0.2-0.1c-0.1,0-0.2-0.1-0.3-0.1c-0.1,0-0.7-0.4-1.3-0.7
			c-0.6-0.4-1.4-0.8-1.6-0.9c-0.3-0.2-0.5-0.3-0.6-0.4c-0.1,0-0.2-0.1-0.3-0.2c-0.1-0.1-0.4-0.4-0.7-0.6c-0.3-0.3-0.7-0.6-0.9-0.8
			c-0.2-0.2-0.6-0.6-1-0.9c-0.3-0.3-0.7-0.6-0.7-0.7c0,0-0.1-0.1-0.1-0.1c0,0-0.1-0.1-0.2-0.1c-0.1,0-0.4-0.1-0.8-0.1
			c-0.3,0-0.7-0.1-0.8-0.1c-0.1,0-0.2,0-0.3-0.1c-0.1,0-0.3-0.1-0.4-0.1c-0.2-0.1-0.8-0.3-1.4-0.5c-0.6-0.2-1.2-0.5-1.3-0.5
			c-0.1,0-0.2-0.1-0.2-0.1c-0.1,0-0.7-0.6-1.4-1.3c-0.7-0.7-1.4-1.3-1.4-1.3c0,0-0.1-0.2-0.2-0.3c-0.1-0.1-0.1-0.2-0.2-0.3
			c0-0.1-0.1-0.2-0.2-0.2c0-0.1-0.1-0.1-0.2-0.2c0,0-0.2-0.1-0.2-0.2c-0.1,0-0.4-0.2-0.6-0.3c-0.2-0.1-0.6-0.3-0.9-0.4
			c-0.2-0.1-0.5-0.2-0.5-0.2c-0.1,0-0.2-0.1-0.2-0.1c-0.1,0-0.2-0.2-0.3-0.3c-0.1-0.1-0.4-0.4-0.6-0.6c-0.2-0.2-0.5-0.5-0.7-0.7
			c-0.2-0.2-0.5-0.6-0.7-0.8c-0.2-0.3-0.5-0.6-0.7-0.8c-0.1-0.2-0.3-0.4-0.3-0.4c0-0.1-0.1-0.1-0.1-0.2c0-0.1-0.1-0.2-0.1-0.2
			c0-0.1-0.1-0.2-0.1-0.4c0-0.1-0.1-0.3-0.1-0.5c0-0.1-0.1-0.4-0.1-0.7c0-0.2-0.1-0.5-0.1-0.5c0-0.1,0-0.2,0-0.3c0-0.1,0-0.2,0-0.3
			c0-0.1,0-0.2,0-0.3c0-0.1,0-0.2,0-0.2c0,0,0-0.1,0-0.2c0-0.1,0.1-0.2,0.1-0.2c0-0.1,0.1-0.1,0.2-0.2c0.1-0.1,0.2-0.1,0.3-0.2
			c0.1,0,0.2-0.1,0.3-0.1c0.1,0,0.2-0.1,0.2-0.1c0,0,0.1-0.1,0.1-0.2c0-0.1,0-0.2,0-0.3s0-0.3,0-0.5c0-0.2,0-0.4,0-0.5
			c0-0.1,0-0.2,0.1-0.3c0-0.1,0.1-0.2,0.2-0.2c0.1-0.1,0.2-0.2,0.2-0.2c0.1-0.1,0.2-0.1,0.2-0.2c0,0,0.1-0.1,0.1-0.2
			c0-0.1,0.1-0.3,0.1-0.6c0-0.2,0-0.6,0-0.7c0-0.2,0-0.4,0-0.5c0-0.1-0.1-0.2-0.1-0.4c-0.1-0.1-0.2-0.3-0.2-0.3
			c-0.1-0.1-0.1-0.2-0.2-0.2c0-0.1-0.1-0.2-0.1-0.2c0-0.1-0.1-0.2-0.2-0.2c0-0.1-0.1-0.2-0.1-0.3c0-0.1-0.1-0.2-0.1-0.3
			c0-0.1,0-0.2,0-0.4c0-0.1,0-0.8,0-1.5s0-1.3,0-1.4c0-0.1,0-0.2,0-0.2c0-0.1-0.1-0.2-0.1-0.3c0-0.1-0.2-0.3-0.3-0.5
			c-0.1-0.2-0.3-0.4-0.3-0.6c-0.1-0.1-0.3-0.4-0.4-0.5c-0.1-0.1-0.3-0.3-0.3-0.4c-0.1-0.1-0.1-0.2-0.2-0.3c0-0.1-0.1-0.3-0.2-0.5
			c-0.1-0.2-0.4-0.7-0.6-1.1c-0.2-0.4-0.7-1.1-0.9-1.5c-0.3-0.4-1-1.6-1.6-2.5c-0.6-0.9-1.2-1.8-1.2-1.8c0,0-0.2-0.1-0.2-0.2
			c-0.1-0.1-0.2-0.1-0.3-0.2c-0.1,0-0.2-0.1-0.2-0.2c-0.1-0.1-0.4-0.4-0.7-0.8c-0.3-0.3-0.6-0.7-0.6-0.7c0-0.1-0.1-0.2-0.1-0.3
			c0-0.1,0-0.3,0-0.4c0-0.1,0-0.3,0-0.4c0-0.1,0-0.3,0-0.4c0-0.1-0.1-0.2-0.1-0.3c0-0.1-0.4-0.6-0.9-1.1c-0.4-0.5-0.8-1-0.9-1
			c0,0-0.1-0.1-0.1-0.1c0,0-0.1-0.1-0.2-0.1c0,0-0.1,0-0.2,0c-0.1,0-0.1,0-0.2,0c-0.1,0-0.1,0-0.2-0.1c0,0-0.2-0.1-0.2-0.1
			c-0.1,0-0.2-0.1-0.2-0.1c-0.1,0-0.1-0.1-0.2-0.2s-0.1-0.2-0.1-0.3c0-0.1-0.1-0.2-0.1-0.3s0-0.2,0-0.3c0-0.1,0-0.2-0.1-0.2
			c0-0.1-0.1-0.1-0.1-0.2c0,0-0.1-0.1-0.1-0.1c0,0-0.1-0.1-0.2-0.1c0,0-0.1-0.1-0.2-0.1c0,0-0.1-0.1-0.1-0.1c0,0-0.1-0.1-0.1-0.2
			c0-0.1,0-0.3,0-0.5c0-0.2,0-0.5,0-0.6c0-0.1,0.1-0.2,0.1-0.3c0-0.1,0.1-0.2,0.1-0.3c0-0.1,0.1-0.1,0.2-0.2c0.1,0,0.2-0.1,0.2-0.2
			c0.1,0,0.1-0.1,0.2-0.1c0,0,0.1-0.1,0.1-0.2c0-0.1,0.1-0.2,0.1-0.2c0-0.1,0-0.2,0-0.3c0-0.1,0-0.2,0-0.3c0-0.1-0.1-0.2-0.1-0.3
			c0-0.1-0.1-0.2-0.1-0.3c0-0.1-0.1-0.2-0.1-0.2c0-0.1-0.1-0.2-0.2-0.2c0-0.1-0.1-0.1-0.2-0.2c-0.1-0.1-0.2-0.1-0.2-0.2
			c-0.1,0-0.2-0.1-0.2-0.1c-0.1,0-0.2-0.1-0.2-0.1c-0.1,0-0.2-0.1-0.2-0.1c-0.1,0-0.2-0.1-0.2-0.1c-0.1,0-0.1-0.1-0.2-0.1
			c0,0-0.1-0.1-0.1-0.2c0-0.1-0.2-0.3-0.3-0.6c-0.1-0.3-0.2-0.6-0.3-0.6c0-0.1-0.1-0.1-0.1-0.1c0,0-0.1-0.1-0.2-0.1
			c0,0-0.1,0-0.2-0.1c-0.1,0-0.1,0-0.2,0c-0.1,0-0.2,0-0.2-0.1c-0.1,0-0.2-0.1-0.2-0.1c-0.1-0.1-0.1-0.2-0.2-0.3
			c-0.1-0.1-0.1-0.3-0.2-0.4c0-0.1-0.2-0.6-0.2-1c-0.1-0.4-0.2-0.8-0.2-0.8c0-0.1,0-0.2-0.1-0.2c0-0.1,0-0.2-0.1-0.2
			c0-0.1,0-0.2,0-0.2c0-0.1,0-0.2,0.1-0.2c0-0.1,0-0.2,0.1-0.2c0,0,0-0.1,0-0.2c0-0.1-0.1-0.1-0.1-0.2c0,0-0.1-0.1-0.2-0.1
			c0,0-0.1-0.1-0.2-0.1c-0.1,0-0.2,0-0.2-0.1c-0.1,0-0.2,0-0.2,0c0,0-0.1,0-0.2-0.1c-0.1,0-0.5-0.4-0.9-0.9c-0.4-0.5-1-1.2-1.3-1.6
			c-0.3-0.4-0.5-0.8-0.5-0.8c0-0.1-0.1-0.2-0.1-0.3c0-0.1-0.1-0.3-0.2-0.4c-0.1-0.1-0.3-0.8-0.5-1.5c-0.2-0.7-0.6-1.7-0.7-2.2
			c-0.1-0.5-0.3-1.2-0.3-1.4c0-0.2-0.1-1.2-0.2-2.1c-0.1-0.9-0.3-2.5-0.3-3.6c-0.1-1-0.2-2-0.2-2.1c0-0.1,0-0.3,0-0.4
			c0-0.1,0-0.3-0.1-0.4c0-0.1-0.1-0.3-0.2-0.4c-0.1-0.1-0.2-0.2-0.3-0.3c-0.1-0.1-0.3-0.3-0.5-0.4c-0.1-0.1-0.3-0.3-0.4-0.4
			c-0.1-0.1-0.2-0.2-0.2-0.3c0-0.1-0.1-0.2-0.2-0.3c0-0.1-0.1-0.2-0.2-0.2c0,0-0.1-0.1-0.2-0.2c-0.1,0-0.2-0.1-0.3-0.1
			c-0.1,0-0.3,0-0.5-0.1s-0.4,0-0.5,0c-0.1,0-0.3,0-0.3,0s-0.2-0.1-0.3-0.1c-0.1,0-0.5-0.3-0.9-0.5c-0.4-0.2-0.8-0.5-0.9-0.5
			c-0.1,0-0.2,0-0.3,0.2c-0.1,0.2-0.2,0.4-0.2,0.5c0,0.1-0.1,0.4-0.1,0.6c0,0.2-0.1,0.8-0.2,1.3s-0.1,1.3-0.1,1.7c0,0.4,0,0.9,0,1.1
			v0.6c0,0.1,0,0.4,0,0.5s-0.1,0.3-0.1,0.4c0,0.1-0.1,0.3-0.1,0.5c0,0.2-0.1,0.4-0.1,0.5c0,0.1-0.1,0.3-0.1,0.4c0,0.1,0,0.2,0,0.3
			c0,0.1,0,0.3,0,0.4c0,0.1,0.1,0.4,0.2,0.6c0.1,0.2,0.5,1,1,1.8c0.5,0.8,0.9,1.4,1,1.5c0,0.1,0.1,0.2,0.2,0.3
			c0,0.1,0.1,0.3,0.2,0.4c0,0.1,0.1,0.4,0.1,0.5c0,0.1,0.1,0.3,0.1,0.4s0.1,0.3,0.1,0.4c0,0.1,0.1,0.3,0.2,0.4
			c0,0.1,0.1,0.2,0.2,0.3c0.1,0.1,0.2,0.2,0.2,0.3c0.1,0.1,0.1,0.1,0.2,0.2c0,0,0.1,0.1,0.1,0.2c0,0,0.1,0.1,0.1,0.2
			c0,0.1,0,0.2,0,0.3c0,0.1,0,0.2,0,0.3c0,0.1,0,0.2,0.1,0.3c0,0.1,0.1,0.2,0.1,0.3c0.1,0.1,0.2,0.2,0.2,0.3
			c0.1,0.1,0.2,0.2,0.2,0.2c0.1,0,0.1,0.1,0.2,0.2c0,0.1,0.1,0.1,0.1,0.2c0,0.1,0.1,0.2,0.1,0.3c0,0.1,0,0.5,0,0.9s0,0.8,0,0.9
			c0,0.1-0.1,0.2-0.1,0.3c0,0.1-0.1,0.2-0.1,0.3c0,0.1-0.1,0.2-0.1,0.2c0,0.1,0,0.1,0,0.2c0,0,0,0.1,0,0.1c0,0,0.1,0.1,0.1,0.1
			c0,0,0.1,0,0.1,0s0.1,0,0.2,0c0,0,0.1,0,0.2,0c0,0,0.1,0,0.2,0.1c0,0,0.1,0.1,0.2,0.1c0,0,0.1,0.2,0.2,0.2
			c0.1,0.1,0.1,0.2,0.2,0.3c0,0.1,0.1,0.2,0.1,0.3c0,0.1,0.1,0.5,0.1,0.8c0,0.4,0.1,0.7,0.1,0.8c0,0.1,0.1,0.2,0.1,0.3
			c0,0.1,0.1,0.2,0.2,0.2c0,0,0.1,0.1,0.2,0.1c0.1,0,0.1,0.1,0.2,0.2c0,0.1,0.1,0.2,0.1,0.2s0.1,0.2,0.1,0.3c0,0.1,0.1,0.3,0.1,0.3
			c0,0.1,0.1,0.2,0.1,0.3c0,0.1,0.1,0.1,0.2,0.1c0,0,0.1,0,0.2,0.1c0.1,0,0.1,0.1,0.2,0.1c0,0,0.1,0.1,0.1,0.1c0,0,0.1,0.1,0.1,0.2
			c0,0.1,0.1,0.5,0.2,0.9c0.1,0.4,0.2,0.8,0.2,0.9c0,0,0.1,0.1,0.1,0.2c0,0,0.1,0.1,0.1,0.2c0,0.1,0.1,0.1,0.1,0.2
			c0,0.1,0.1,0.4,0.1,0.7c0,0.3,0.1,0.7,0.1,0.8c0,0.1,0,0.3,0.1,0.4c0,0.1,0,0.3,0,0.4c0,0.1,0,0.2-0.1,0.3c0,0.1-0.1,0.2-0.1,0.3
			c0,0.1-0.1,0.2-0.1,0.3c0,0.1,0,0.2,0,0.3c0,0.1,0,0.2,0,0.3c0,0.1,0.1,0.2,0.1,0.3c0,0.1,0.1,0.2,0.2,0.3
			c0.1,0.1,0.2,0.1,0.2,0.2c0,0,0.1,0.2,0.1,0.3c0,0.1,0.1,0.5,0.2,0.9c0.1,0.4,0.1,0.8,0.2,0.9c0,0.1,0.1,0.3,0.1,0.3
			c0,0.1,0.1,0.2,0.2,0.2c0.1,0.1,0.2,0.1,0.2,0.2c0.1,0,0.1,0.1,0.2,0.2c0,0,0.1,0.2,0.1,0.3c0,0.1,0,0.2,0,0.3c0,0.1,0,0.2,0,0.3
			c0,0.1,0,0.2-0.1,0.3c0,0.1-0.1,0.2-0.1,0.3c0,0.1-0.1,0.2-0.2,0.3c-0.1,0.1-0.1,0.2-0.2,0.3c0,0.1,0,0.2-0.1,0.3
			c0,0.1,0,0.2,0,0.3s0,0.2,0,0.2c0,0,0.1,0.1,0.1,0.2c0,0,0.1,0.1,0.2,0.2c0.1,0,0.2,0.1,0.4,0.2c0.1,0.1,0.4,0.1,0.6,0.2
			c0.2,0,0.4,0.1,0.5,0.1c0.1,0,0.3,0.1,0.3,0.1c0.1,0,0.2,0.1,0.2,0.2s0.2,0.2,0.2,0.3c0.1,0.1,0.2,0.2,0.2,0.4
			c0.1,0.1,0.2,0.5,0.4,0.9c0.1,0.4,0.3,0.9,0.5,1.2c0.1,0.3,0.3,0.7,0.3,0.8c0.1,0.1,0.2,0.3,0.2,0.4c0.1,0.1,0.1,0.3,0.2,0.4
			c0,0.1,0.1,0.2,0.1,0.3c0,0.1,0,0.2,0,0.3c0,0.1,0,0.3,0,0.4v0.3c0,0.1,0,0.2,0,0.3c0,0.1,0,0.2-0.1,0.3c0,0.1-0.1,0.2-0.1,0.3
			c0,0.1-0.1,0.2-0.1,0.3c0,0.1-0.2,0.2-0.2,0.3c-0.1,0.1-0.2,0.2-0.3,0.2c-0.1,0-0.2,0.1-0.4,0.1c-0.1,0-0.3,0.1-0.4,0.1
			c-0.1,0-0.3,0-0.4,0s-0.3,0-0.4-0.1c-0.1,0-0.2-0.1-0.3-0.2c-0.1-0.1-0.2-0.2-0.2-0.3c0-0.1-0.1-0.3-0.2-0.4
			c0-0.1-0.1-0.4-0.1-0.5c0-0.2-0.1-0.4-0.1-0.5c0-0.1-0.1-0.4-0.1-0.5c0-0.2-0.1-0.3-0.1-0.4c0-0.1-0.1-0.2-0.2-0.4
			c-0.1-0.1-0.8-1-1.6-1.9c-0.8-0.9-1.6-1.8-1.7-2c-0.1-0.2-0.3-0.4-0.4-0.5c-0.1-0.1-0.2-0.2-0.3-0.3c-0.1-0.1-0.3-0.2-0.4-0.2
			c-0.1,0-0.3-0.1-0.4-0.1c-0.1,0-0.3-0.1-0.4-0.1c-0.1,0-0.3-0.1-0.4-0.2c-0.1-0.1-0.3-0.2-0.4-0.3c-0.1-0.1-0.3-0.3-0.4-0.5
			c-0.1-0.2-0.2-0.4-0.3-0.5c0-0.1-0.1-0.3-0.2-0.5c0-0.1-0.1-0.4-0.1-0.5c0-0.1,0-0.4,0-0.6c0-0.2,0-0.4,0-0.5
			c0-0.1,0.1-0.3,0.1-0.5s0.1-0.3,0.2-0.4c0.1-0.1,0.2-0.3,0.3-0.4c0.1-0.1,0.2-0.3,0.2-0.5c0-0.1,0.1-0.4,0.1-0.6
			c0-0.2,0.1-0.5,0.1-0.8c0-0.2,0-0.6,0-0.8c0-0.2,0-0.5,0-0.6c0-0.1-0.1-0.4-0.1-0.5c-0.1-0.2-0.2-0.5-0.3-0.8
			c-0.1-0.3-0.3-0.6-0.4-0.7c-0.1-0.1-0.2-0.3-0.3-0.4c-0.1-0.1-0.3-0.3-0.4-0.4c-0.1-0.1-0.6-0.7-1.1-1.2c-0.5-0.5-0.9-1-0.9-1.1
			c0-0.1-0.1-0.1-0.2-0.2c0,0-0.2-0.1-0.2-0.2c-0.1,0-0.2-0.1-0.3-0.1c-0.1,0-0.3-0.1-0.4-0.1c-0.1,0-0.4-0.1-0.5-0.2
			c-0.2-0.1-0.4-0.2-0.5-0.2c-0.1-0.1-0.3-0.2-0.5-0.4c-0.1-0.1-0.7-0.8-1.2-1.4c-0.6-0.6-1.1-1.3-1.2-1.5c-0.1-0.2-0.3-0.4-0.4-0.5
			c-0.1-0.1-0.2-0.3-0.3-0.4c0-0.1-0.1-0.2-0.1-0.3c0-0.1,0-0.3,0-0.4s0.1-0.2,0.1-0.3c0.1-0.1,0.2-0.1,0.2-0.1c0.1,0,0.2,0,0.4,0
			c0.1,0,0.4,0,0.5,0.1c0.1,0,0.3,0.1,0.4,0.1c0.1,0,0.3,0,0.4,0c0.1,0,0.3-0.1,0.4-0.1c0.1,0,0.3-0.2,0.4-0.3
			c0.1-0.1,0.3-0.3,0.4-0.4c0.1-0.1,0.2-0.3,0.3-0.5c0.1-0.2,0.2-0.4,0.3-0.6c0.1-0.2,0.2-0.4,0.2-0.5c0-0.1,0.1-0.4,0.1-0.5
			c0-0.1,0-0.4,0-0.6c0-0.2-0.1-0.5-0.2-0.8c-0.1-0.3-0.2-0.6-0.2-0.8c-0.1-0.2-0.5-1-1-1.9c-0.5-0.9-0.9-1.7-1-1.8
			c0-0.1-0.1-0.3-0.2-0.4c-0.1-0.1-0.2-0.2-0.3-0.3c-0.1-0.1-0.2-0.1-0.3-0.2c-0.1,0-0.2-0.1-0.3-0.1c-0.1,0-0.2-0.1-0.3-0.1
			c-0.1,0-0.2-0.1-0.3-0.2c-0.1-0.1-0.2-0.2-0.3-0.2c-0.1-0.1-0.2-0.2-0.2-0.4c-0.1-0.1-0.1-0.3-0.2-0.4c0-0.1-0.1-0.2-0.1-0.3
			c0-0.1,0-0.3-0.1-0.5c0-0.2,0-0.9,0-1.7c0-0.7,0-1.5,0-1.7c0-0.2,0-0.4,0-0.6c0-0.1,0-0.4-0.1-0.5c0-0.2-0.1-0.4-0.1-0.6
			c0-0.1-0.1-0.4-0.2-0.5c0-0.1-0.1-0.3-0.1-0.5c0-0.2-0.1-0.5-0.1-0.7s0-0.6,0-0.7c0-0.2-0.1-0.5-0.1-0.8c0-0.2-0.1-0.6-0.1-0.7
			c0-0.2-0.1-0.5-0.1-0.7C59.7,97.5,59.6,96.4,59.5,95.2"/>
		<path class="st14" d="M137.6,214.2c0,0.2-0.1,0.6-0.1,0.9c0,0.3,0,0.7-0.1,1c0,0.2,0,0.9-0.1,1.4c0,0.5,0,1.2,0,1.5v0.9
			c0,0.2,0,0.6,0,0.9c0,0.3-0.1,0.7-0.1,1.1c0,0.3-0.1,0.9-0.1,1.2c0,0.3-0.1,0.9-0.2,1.2c-0.1,0.3-0.1,0.8-0.2,1
			c0,0.2-0.1,0.7-0.1,1.1c0,0.4-0.1,1-0.1,1.4c0,0.4-0.1,1.2-0.2,1.8c-0.1,0.6-0.2,1.5-0.3,2c-0.1,0.4-0.2,1.1-0.3,1.4
			c-0.1,0.3-0.1,0.8-0.2,1.2c0,0.3-0.1,0.8-0.1,1c0,0.2,0,0.6,0,0.8v0.8c0,0.2,0.4,0.4,0.9,0.4c0.5,0,1.3,0,1.8,0
			c0.5,0,1.4,0.1,2,0.1c0.6,0.1,1.6,0.2,2.2,0.3c0.6,0.1,1.8,0.3,2.6,0.4c0.8,0.1,1.6,0.3,1.9,0.3c0.3,0,0.3,0.4,0.1,0.8
			c-0.2,0.4-0.6,0.9-0.8,1.2c-0.2,0.2-0.5,0.6-0.7,0.8c-0.2,0.2-0.9,0.7-1.4,1.1c-0.6,0.4-1.7,1.2-2.5,1.7c-0.8,0.5-1.7,1-2,1.2
			c-0.3,0.2-0.8,0.4-1,0.5c-0.2,0.1-0.5,0.3-0.7,0.4c-0.1,0.1-0.4,0.3-0.6,0.5c-0.2,0.2-0.6,0.5-0.8,0.8c-0.3,0.3-0.6,0.6-0.7,0.8
			s-0.2,0.3-0.3,0.4c-0.1,0.1-0.1,0.2-0.2,0.3c0,0.1-0.1,0.3-0.1,0.4c0,0.1,0,0.4-0.1,0.6c0,0.2,0,0.5,0.1,0.6
			c0,0.2,0.1,0.4,0.2,0.6c0,0.1,0.1,0.4,0.1,0.5c0,0.1,0.1,0.3,0.1,0.4c0,0.1,0.1,0.3,0.1,0.4c0,0.1,0,0.2,0,0.3
			c0,0.1-0.1,0.3-0.1,0.4c-0.1,0.1-0.2,0.3-0.2,0.4c-0.1,0.1-0.2,0.3-0.4,0.4c-0.1,0.1-0.6,0.4-1.1,0.7c-0.5,0.3-1.2,0.8-1.7,1.2
			c-0.5,0.3-1.1,0.8-1.4,1c-0.3,0.2-0.6,0.5-0.8,0.7c-0.2,0.1-0.5,0.5-0.8,0.9c-0.3,0.3-0.8,0.9-1.2,1.2c-0.3,0.3-0.7,0.7-0.8,0.8
			c-0.1,0.1-0.4,0.4-0.7,0.7c-0.3,0.3-0.7,0.7-1,1c-0.3,0.3-0.6,0.6-0.7,0.7c-0.1,0.1-0.3,0.2-0.4,0.3c-0.1,0.1-0.3,0.1-0.5,0.2
			c-0.1,0-0.4,0.1-0.5,0.1c-0.1,0-0.4,0-0.6,0c-0.2,0-0.5-0.1-0.7-0.1c-0.2-0.1-0.6-0.2-0.9-0.3c-0.3-0.1-0.8-0.3-1.1-0.4
			c-0.3-0.1-0.6-0.2-0.8-0.3c-0.2,0-0.4-0.1-0.6-0.1c-0.2,0-0.5-0.1-0.9-0.1c-0.3,0-0.8-0.1-1.1-0.2c-0.3,0-1.1-0.2-1.8-0.3
			c-0.7-0.1-1.4-0.2-1.6-0.2c-0.2,0-0.7-0.1-1.1-0.1c-0.4,0-1.1-0.1-1.5-0.1c-0.4,0-0.9,0-1.2,0c-0.2,0-0.5,0-0.7-0.1
			c-0.1,0-0.4-0.1-0.5-0.1c-0.1,0-0.4-0.1-0.7-0.1c-0.2-0.1-0.5-0.1-0.7-0.2c-0.1,0-0.3-0.1-0.4-0.1c-0.1,0-0.3-0.1-0.4-0.2
			c-0.1-0.1-0.3-0.2-0.5-0.4s-0.4-0.4-0.6-0.5c-0.2-0.1-1.8-1.6-3.6-3.3c-1.8-1.7-3.3-3.1-3.4-3.2c-0.1-0.1-0.2-0.3-0.3-0.4
			c-0.1-0.1-0.1-0.4,0.1-0.6c0.2-0.2,0.5-0.7,0.8-1.2c0.3-0.4,0.7-1.1,0.9-1.5c0.2-0.4,0.4-0.9,0.5-1.1c0.1-0.2,0.1-0.6,0.2-0.8
			c0-0.2,0-0.6,0-0.8c0-0.2,0-0.5-0.1-0.6c0-0.1-0.1-0.3-0.1-0.4c0-0.1-0.2-0.3-0.3-0.5c-0.1-0.2-0.2-0.4-0.2-0.5c0-0.1,0-0.4,0-0.5
			c0-0.1,0-0.4,0.1-0.6c0.1-0.2,0.2-0.5,0.2-0.7c0.1-0.2,0.2-0.5,0.4-0.7c0.1-0.2,0.7-1,1.2-1.8c0.5-0.8,1.6-2.2,2.3-3.2
			c0.7-1,1.4-1.9,1.4-2c0.1-0.1,0.2-0.2,0.4-0.3c0.1-0.1,0.4-0.2,0.5-0.2c0.2,0,0.5-0.1,0.8-0.1c0.2,0,3-0.1,6.2-0.1
			c3.2,0,5.8-0.1,5.9-0.1c0.1,0,0.2,0,0.2-0.1c0.1,0,0.2-0.1,0.2-0.1c0.1,0,0.2-0.1,0.3-0.1c0.1-0.1,0.2-0.1,0.3-0.2
			c0.1-0.1,0.2-0.2,0.3-0.3c0.1-0.1,0.2-0.2,0.2-0.3c0.1-0.1,0.1-0.3,0.2-0.5c0-0.2,0.1-0.6,0.1-1c0-0.4,0-0.8-0.1-0.9
			c0-0.1-0.1-0.3-0.2-0.5c-0.1-0.1-0.3-0.5-0.6-0.8c-0.3-0.3-2.4-2.4-4.7-4.7c-2.3-2.3-4.3-4.3-4.4-4.5c-0.1-0.1-0.3-0.4-0.4-0.6
			c-0.1-0.2,0.1-0.3,0.5-0.3c0.4,0,0.9,0,1.3,0s0.7,0,0.8,0c0.1,0,0.5-0.1,0.8-0.1c0.3-0.1,0.6-0.1,0.8-0.2c0.1,0,0.3-0.1,0.4-0.2
			c0.1-0.1,0.3-0.2,0.4-0.3c0.1-0.1,0.2-0.5,0.3-0.8c0-0.3,0.1-0.8,0.1-1c0-0.2,0-0.7,0.1-1.1c0-0.4,0.1-0.8,0.2-1
			c0-0.2,0.1-0.5,0.2-0.6c0.1-0.1,0.2-0.3,0.2-0.3c0.1-0.1,0.2-0.1,0.3-0.2c0.1,0,0.2-0.1,0.3-0.1c0.1,0,0.3,0,0.4,0
			c0.1,0,3.5,0,7.6-0.1c4.1,0,8.6,0.1,10.2,0.3C136.4,213.7,137.7,214,137.6,214.2"/>
	</g>
</g>
</svg>
