<?xml version="1.0" encoding="utf-8"?>
<!-- Generator: Adobe Illustrator 25.2.1, SVG Export Plug-In . SVG Version: 6.00 Build 0)  -->
<svg version="1.1" id="Capa_1" xmlns="http://www.w3.org/2000/svg" xmlns:xlink="http://www.w3.org/1999/xlink" x="0px" y="0px"
	 viewBox="0 0 600 600" style="enable-background:new 0 0 600 600;" xml:space="preserve">
<style type="text/css">
	.st0{fill:none;stroke:#BE006B;stroke-width:4;stroke-linecap:round;stroke-linejoin:round;stroke-miterlimit:10;}
	.st1{fill:#582A7B;}
	.st2{fill:#7E838E;}
	.st3{fill:none;stroke:#7E838E;stroke-width:2.66;stroke-miterlimit:10;}
	
		.st4{fill:none;stroke:#7E838E;stroke-width:1.773;stroke-linecap:round;stroke-linejoin:round;stroke-miterlimit:10;stroke-dasharray:0,5.348;}
	.st5{fill:none;stroke:#7E838E;stroke-width:1.773;stroke-linecap:round;stroke-linejoin:round;stroke-miterlimit:10;}
	.st6{fill:none;stroke:#BE006B;stroke-width:2.266;stroke-miterlimit:10;}
	
		.st7{fill:none;stroke:#7E838E;stroke-width:1.465;stroke-linecap:round;stroke-linejoin:round;stroke-miterlimit:10;stroke-dasharray:0,4.33;}
	.st8{fill:none;stroke:#7E838E;stroke-width:1.465;stroke-linecap:round;stroke-linejoin:round;stroke-miterlimit:10;}
	.st9{fill:#626A76;}
	.st10{fill:none;stroke:#B3A1C7;stroke-width:13.3;stroke-linecap:round;stroke-linejoin:round;stroke-miterlimit:10;}
	
		.st11{fill:none;stroke:#7E838E;stroke-width:1.773;stroke-linecap:round;stroke-linejoin:round;stroke-miterlimit:10;stroke-dasharray:0,5.338;}
	
		.st12{fill:none;stroke:#7E838E;stroke-width:1.773;stroke-linecap:round;stroke-linejoin:round;stroke-miterlimit:10;stroke-dasharray:0,5.34;}
	
		.st13{fill:none;stroke:#7E838E;stroke-width:1.773;stroke-linecap:round;stroke-linejoin:round;stroke-miterlimit:10;stroke-dasharray:0,5.331;}
	.st14{fill:#505B6C;}
	.st15{fill:#BE006B;}
	.st16{fill:none;stroke:#582A7B;stroke-width:0.5;stroke-miterlimit:10;}
</style>
<g>
	<g>
		
			<ellipse transform="matrix(0.7071 -0.7071 0.7071 0.7071 -131.053 284.349)" class="st0" cx="277.7" cy="300.4" rx="263" ry="263"/>
		<path class="st1" d="M165.8,300.9c0-35.8-29.3-64.9-65.3-64.9s-65.3,29.1-65.3,64.9s29.3,64.9,65.3,64.9v-2.4
			c-34.7,0-62.9-28-62.9-62.5c0-34.5,28.2-62.5,62.9-62.5s62.9,28,62.9,62.5H165.8z"/>
		<path class="st2" d="M100.6,249.7c-28.4,0-51.6,23.1-51.6,51.6c0,28.4,23.1,51.6,51.6,51.6s51.6-23.1,51.6-51.6
			C152.1,272.9,129,249.7,100.6,249.7 M100.6,355.4c-29.8,0-54.1-24.3-54.1-54.1c0-29.8,24.3-54.1,54.1-54.1s54.1,24.3,54.1,54.1
			C154.7,331.1,130.4,355.4,100.6,355.4"/>
		<path class="st3" d="M114.2,352.5c15.6,49.8,53.6,89.8,102.2,108.2"/>
		<path class="st4" d="M104.5,373.6c19.9,47.3,58.7,84.7,106.8,102.8"/>
		<path class="st5" d="M213.9,477.4L213.9,477.4 M102.5,368.7L102.5,368.7"/>
		<circle class="st6" cx="278.9" cy="302.2" r="65.8"/>
		<path class="st7" d="M283.6,378.4c39.9-2.2,71.7-34.7,72.8-74.9"/>
		<path class="st7" d="M356.3,297c-2.2-39.9-34.7-71.7-74.9-72.8"/>
		<path class="st7" d="M274.9,224.3c-39.9,2.2-71.7,34.7-72.8,74.9"/>
		<path class="st7" d="M202.2,305.7c2.2,39.9,34.7,71.7,74.9,72.8"/>
		<path class="st8" d="M279.3,378.5L279.3,378.5 M202.1,301.4L202.1,301.4 M279.3,224.2L279.3,224.2 M356.4,301.4L356.4,301.4"/>
	</g>
	<g>
		<path class="st9" d="M244.6,318.5c-0.7,0-1.4-0.1-2-0.3c-0.6-0.2-1.1-0.5-1.6-0.9c-0.4-0.4-0.8-0.9-1-1.6
			c-0.2-0.6-0.4-1.3-0.4-2.2c0-0.8,0.1-1.4,0.3-2.1c0.2-0.6,0.6-1.1,1-1.6c0.4-0.4,0.9-0.8,1.5-1c0.6-0.2,1.3-0.3,2-0.3
			c0.4,0,0.8,0,1.1,0.1s0.6,0.1,0.9,0.2c0.3,0.1,0.5,0.2,0.8,0.3c0.2,0.1,0.4,0.2,0.6,0.3v2.3h-0.3c-0.1-0.1-0.3-0.2-0.5-0.4
			c-0.2-0.1-0.4-0.3-0.6-0.4c-0.2-0.1-0.5-0.3-0.8-0.3s-0.6-0.1-0.9-0.1c-0.3,0-0.7,0.1-1,0.2s-0.6,0.3-0.9,0.5
			c-0.3,0.2-0.5,0.6-0.6,1c-0.2,0.4-0.2,0.9-0.2,1.5c0,0.6,0.1,1.1,0.3,1.5c0.2,0.4,0.4,0.7,0.6,1c0.3,0.2,0.6,0.4,0.9,0.5
			c0.3,0.1,0.6,0.2,1,0.2c0.3,0,0.6,0,0.9-0.1c0.3-0.1,0.6-0.2,0.8-0.4c0.2-0.1,0.4-0.3,0.6-0.4c0.2-0.1,0.3-0.3,0.4-0.4h0.3v2.3
			c-0.2,0.1-0.5,0.2-0.7,0.3c-0.2,0.1-0.4,0.2-0.7,0.2c-0.3,0.1-0.6,0.2-0.9,0.2C245.5,318.5,245.1,318.5,244.6,318.5z"/>
		<path class="st9" d="M257.7,318.3h-6.9v-9.6h2.5v7.7h4.4V318.3z"/>
		<path class="st9" d="M265.4,318.3h-5.6v-1.7h1.6v-6.2h-1.6v-1.7h5.6v1.7h-1.6v6.2h1.6V318.3z"/>
		<path class="st9" d="M275.3,318.3h-6.9v-9.6h6.9v1.9h-4.5v1.7h4.2v1.9h-4.2v2.4h4.5V318.3z"/>
		<path class="st9" d="M287.1,318.3h-2.4l-4.1-6.6v6.6h-2.3v-9.6h3l3.5,5.5v-5.5h2.3V318.3z"/>
		<path class="st9" d="M298,310.6h-3v7.7h-2.5v-7.7h-3v-1.9h8.5V310.6z"/>
		<path class="st9" d="M307.5,318.3h-6.9v-9.6h6.9v1.9H303v1.7h4.2v1.9H303v2.4h4.5V318.3z"/>
		<path class="st9" d="M318.2,315.3c0,0.9-0.4,1.7-1.2,2.3s-1.9,0.9-3.3,0.9c-0.8,0-1.5-0.1-2.1-0.2c-0.6-0.1-1.1-0.3-1.7-0.5v-2.3
			h0.3c0.5,0.4,1.1,0.7,1.7,0.9c0.6,0.2,1.2,0.3,1.8,0.3c0.2,0,0.3,0,0.6,0c0.2,0,0.4-0.1,0.6-0.1c0.2-0.1,0.3-0.2,0.5-0.3
			c0.1-0.1,0.2-0.3,0.2-0.5c0-0.2-0.1-0.4-0.3-0.5c-0.2-0.2-0.4-0.3-0.8-0.4c-0.4-0.1-0.7-0.2-1.1-0.2c-0.4-0.1-0.8-0.2-1.1-0.3
			c-0.8-0.3-1.4-0.6-1.7-1.1c-0.4-0.4-0.5-1-0.5-1.7c0-0.9,0.4-1.6,1.2-2.2c0.8-0.6,1.8-0.8,3.1-0.8c0.6,0,1.3,0.1,1.9,0.2
			s1.1,0.3,1.6,0.5v2.2h-0.3c-0.4-0.3-0.9-0.6-1.4-0.8c-0.6-0.2-1.1-0.3-1.7-0.3c-0.2,0-0.4,0-0.6,0c-0.2,0-0.4,0.1-0.6,0.2
			c-0.2,0.1-0.3,0.2-0.4,0.3c-0.1,0.1-0.2,0.3-0.2,0.4c0,0.3,0.1,0.4,0.3,0.6c0.2,0.1,0.6,0.3,1.1,0.4c0.4,0.1,0.7,0.1,1,0.2
			c0.3,0.1,0.7,0.2,1,0.3c0.7,0.2,1.3,0.6,1.6,1C318,314.1,318.2,314.6,318.2,315.3z"/>
	</g>
	<g>
		<path class="st9" d="M244.9,328.1h-0.7v-4.4l-1.4,3h-0.4l-1.4-3v4.4h-0.6v-5.2h0.9l1.4,2.9l1.3-2.9h1V328.1z"/>
		<path class="st9" d="M250.2,326c0,0.4,0,0.7-0.1,1c-0.1,0.3-0.2,0.5-0.4,0.7c-0.2,0.2-0.4,0.3-0.6,0.4s-0.5,0.1-0.8,0.1
			c-0.3,0-0.6,0-0.8-0.1c-0.2-0.1-0.4-0.2-0.6-0.4c-0.2-0.2-0.3-0.4-0.4-0.7c-0.1-0.3-0.1-0.6-0.1-1v-3.1h0.7v3.1
			c0,0.3,0,0.5,0.1,0.7c0,0.2,0.1,0.3,0.2,0.4c0.1,0.2,0.2,0.3,0.4,0.3c0.2,0.1,0.4,0.1,0.6,0.1c0.2,0,0.5,0,0.6-0.1
			s0.3-0.2,0.4-0.3c0.1-0.1,0.2-0.3,0.2-0.5c0-0.2,0.1-0.4,0.1-0.6v-3.1h0.7V326z"/>
		<path class="st9" d="M253.4,326.7c0,0.5-0.1,0.8-0.4,1c-0.3,0.2-0.6,0.4-1.1,0.4c-0.1,0-0.3,0-0.4,0c-0.2,0-0.3,0-0.5-0.1v-0.6h0
			c0.1,0,0.2,0.1,0.4,0.1c0.1,0,0.3,0.1,0.4,0.1c0.2,0,0.4,0,0.5-0.1s0.2-0.1,0.3-0.2c0.1-0.1,0.1-0.2,0.1-0.3s0-0.3,0-0.5v-3h-1.1
			v-0.5h1.8V326.7z"/>
		<path class="st9" d="M258.1,328.1h-3.4v-5.2h3.4v0.6h-2.7v1.4h2.7v0.6h-2.7v1.9h2.7V328.1z"/>
		<path class="st9" d="M263.5,328.1h-0.9l-1.7-2.1h-1v2.1h-0.7v-5.2h1.4c0.3,0,0.6,0,0.8,0.1c0.2,0,0.4,0.1,0.6,0.2
			c0.2,0.1,0.3,0.3,0.4,0.4c0.1,0.2,0.2,0.4,0.2,0.7c0,0.4-0.1,0.7-0.3,0.9c-0.2,0.3-0.4,0.4-0.8,0.6L263.5,328.1z M261.9,324.4
			c0-0.1,0-0.3-0.1-0.4c-0.1-0.1-0.1-0.2-0.3-0.3c-0.1-0.1-0.2-0.1-0.4-0.1s-0.3,0-0.5,0h-0.8v1.9h0.7c0.2,0,0.4,0,0.6-0.1
			s0.3-0.1,0.4-0.2c0.1-0.1,0.2-0.2,0.2-0.3S261.9,324.5,261.9,324.4z"/>
		<path class="st9" d="M267.5,328.1h-3.4v-5.2h3.4v0.6h-2.7v1.4h2.7v0.6h-2.7v1.9h2.7V328.1z"/>
		<path class="st9" d="M272.4,326.6c0,0.2,0,0.4-0.1,0.6c-0.1,0.2-0.2,0.4-0.4,0.5c-0.2,0.1-0.4,0.3-0.6,0.3
			c-0.2,0.1-0.5,0.1-0.9,0.1c-0.4,0-0.7,0-1-0.1c-0.3-0.1-0.6-0.2-0.9-0.3v-0.9h0c0.3,0.2,0.6,0.4,0.9,0.5c0.3,0.1,0.7,0.2,1,0.2
			c0.4,0,0.8-0.1,1-0.2c0.2-0.2,0.4-0.4,0.4-0.6c0-0.2-0.1-0.4-0.2-0.5c-0.1-0.1-0.3-0.2-0.5-0.3c-0.2,0-0.4-0.1-0.6-0.1
			c-0.2,0-0.4-0.1-0.6-0.1c-0.5-0.1-0.8-0.3-1-0.5c-0.2-0.2-0.3-0.5-0.3-0.9c0-0.4,0.2-0.8,0.5-1.1c0.4-0.3,0.8-0.4,1.4-0.4
			c0.4,0,0.7,0,1,0.1c0.3,0.1,0.6,0.2,0.8,0.3v0.8h0c-0.2-0.2-0.5-0.3-0.8-0.4s-0.6-0.2-1-0.2c-0.4,0-0.7,0.1-0.9,0.2
			s-0.3,0.3-0.3,0.6c0,0.2,0.1,0.4,0.2,0.5c0.1,0.1,0.3,0.2,0.6,0.3c0.1,0,0.4,0.1,0.6,0.1c0.3,0,0.5,0.1,0.7,0.1
			c0.4,0.1,0.7,0.3,0.9,0.5C272.3,325.9,272.4,326.2,272.4,326.6z"/>
		<path class="st9" d="M279.6,322.9l-1.8,2.9v2.3h-0.7v-2.2l-1.8-3h0.8l1.4,2.3l1.4-2.3H279.6z"/>
		<path class="st9" d="M286.8,328.1h-0.7v-2.5h-2.6v2.5h-0.7v-5.2h0.7v2h2.6v-2h0.7V328.1z"/>
		<path class="st9" d="M292,323.5c0.2,0.2,0.4,0.5,0.5,0.8c0.1,0.3,0.2,0.7,0.2,1.1s-0.1,0.8-0.2,1.1s-0.3,0.6-0.5,0.8
			c-0.2,0.2-0.5,0.4-0.8,0.5c-0.3,0.1-0.6,0.2-1,0.2c-0.4,0-0.7-0.1-1-0.2c-0.3-0.1-0.5-0.3-0.8-0.5c-0.2-0.2-0.4-0.5-0.5-0.8
			c-0.1-0.3-0.2-0.7-0.2-1.1c0-0.4,0.1-0.8,0.2-1.1c0.1-0.3,0.3-0.6,0.5-0.9c0.2-0.2,0.5-0.4,0.8-0.5c0.3-0.1,0.6-0.2,1-0.2
			c0.4,0,0.7,0.1,1,0.2S291.8,323.3,292,323.5z M291.9,325.5c0-0.7-0.2-1.2-0.5-1.5c-0.3-0.4-0.7-0.5-1.2-0.5
			c-0.5,0-0.9,0.2-1.2,0.5c-0.3,0.4-0.4,0.9-0.4,1.5c0,0.7,0.2,1.2,0.5,1.6c0.3,0.4,0.7,0.5,1.2,0.5c0.5,0,0.9-0.2,1.2-0.5
			S291.9,326.2,291.9,325.5z"/>
		<path class="st9" d="M298.3,328.1h-0.7v-4.4l-1.4,3h-0.4l-1.4-3v4.4h-0.6v-5.2h0.9l1.4,2.9l1.3-2.9h1V328.1z"/>
		<path class="st9" d="M303.6,326.5c0,0.3,0,0.5-0.1,0.7c-0.1,0.2-0.2,0.4-0.4,0.5c-0.2,0.2-0.4,0.3-0.6,0.3
			c-0.2,0.1-0.5,0.1-0.9,0.1h-1.8v-5.2h1.5c0.4,0,0.7,0,0.8,0c0.2,0,0.4,0.1,0.5,0.2c0.2,0.1,0.3,0.2,0.4,0.4
			c0.1,0.2,0.1,0.3,0.1,0.6c0,0.2-0.1,0.5-0.2,0.6c-0.1,0.2-0.3,0.3-0.5,0.4v0c0.3,0.1,0.6,0.2,0.8,0.5
			C303.5,325.8,303.6,326.1,303.6,326.5z M302.4,324.2c0-0.1,0-0.2-0.1-0.3c0-0.1-0.1-0.2-0.2-0.2c-0.1-0.1-0.2-0.1-0.4-0.1
			c-0.2,0-0.3,0-0.6,0h-0.8v1.5h0.9c0.2,0,0.4,0,0.5,0c0.1,0,0.2-0.1,0.4-0.1s0.2-0.2,0.2-0.3S302.4,324.3,302.4,324.2z
			 M302.9,326.5c0-0.2,0-0.4-0.1-0.5s-0.2-0.2-0.3-0.3c-0.1-0.1-0.2-0.1-0.4-0.1c-0.2,0-0.4,0-0.6,0h-1.1v1.9h0.9c0.3,0,0.5,0,0.7,0
			c0.2,0,0.3-0.1,0.5-0.2c0.1-0.1,0.2-0.2,0.3-0.3C302.8,326.8,302.9,326.7,302.9,326.5z"/>
		<path class="st9" d="M308.8,328.1h-0.9l-1.7-2.1h-1v2.1h-0.7v-5.2h1.4c0.3,0,0.6,0,0.8,0.1c0.2,0,0.4,0.1,0.6,0.2
			c0.2,0.1,0.3,0.3,0.4,0.4c0.1,0.2,0.2,0.4,0.2,0.7c0,0.4-0.1,0.7-0.3,0.9c-0.2,0.3-0.4,0.4-0.8,0.6L308.8,328.1z M307.2,324.4
			c0-0.1,0-0.3-0.1-0.4c-0.1-0.1-0.1-0.2-0.3-0.3c-0.1-0.1-0.2-0.1-0.4-0.1c-0.1,0-0.3,0-0.5,0h-0.8v1.9h0.7c0.2,0,0.4,0,0.6-0.1
			c0.2,0,0.3-0.1,0.4-0.2c0.1-0.1,0.2-0.2,0.2-0.3C307.2,324.7,307.2,324.5,307.2,324.4z"/>
		<path class="st9" d="M312.9,328.1h-3.4v-5.2h3.4v0.6h-2.7v1.4h2.7v0.6h-2.7v1.9h2.7V328.1z"/>
		<path class="st9" d="M317.7,326.6c0,0.2,0,0.4-0.1,0.6s-0.2,0.4-0.4,0.5c-0.2,0.1-0.4,0.3-0.6,0.3s-0.5,0.1-0.9,0.1
			c-0.4,0-0.7,0-1-0.1s-0.6-0.2-0.9-0.3v-0.9h0c0.3,0.2,0.6,0.4,0.9,0.5c0.3,0.1,0.7,0.2,1,0.2c0.4,0,0.8-0.1,1-0.2
			c0.2-0.2,0.4-0.4,0.4-0.6c0-0.2-0.1-0.4-0.2-0.5c-0.1-0.1-0.3-0.2-0.5-0.3c-0.2,0-0.4-0.1-0.6-0.1s-0.4-0.1-0.6-0.1
			c-0.5-0.1-0.8-0.3-1-0.5s-0.3-0.5-0.3-0.9c0-0.4,0.2-0.8,0.5-1.1c0.4-0.3,0.8-0.4,1.4-0.4c0.4,0,0.7,0,1,0.1s0.6,0.2,0.8,0.3v0.8
			h0c-0.2-0.2-0.5-0.3-0.8-0.4c-0.3-0.1-0.6-0.2-1-0.2c-0.4,0-0.7,0.1-0.9,0.2s-0.3,0.3-0.3,0.6c0,0.2,0.1,0.4,0.2,0.5
			c0.1,0.1,0.3,0.2,0.6,0.3c0.1,0,0.4,0.1,0.6,0.1c0.3,0,0.5,0.1,0.7,0.1c0.4,0.1,0.7,0.3,0.9,0.5
			C317.6,325.9,317.7,326.2,317.7,326.6z"/>
	</g>
	<g>
		<path class="st9" d="M253.6,335.2c0,0.5-0.1,0.9-0.3,1.3c-0.2,0.4-0.5,0.7-0.8,0.9c-0.2,0.1-0.5,0.3-0.8,0.3
			c-0.3,0.1-0.7,0.1-1.1,0.1h-1.3v-5.2h1.3c0.5,0,0.9,0,1.2,0.1c0.3,0.1,0.5,0.2,0.8,0.3c0.4,0.2,0.6,0.5,0.8,0.9
			C253.5,334.3,253.6,334.7,253.6,335.2z M252.9,335.2c0-0.4-0.1-0.7-0.2-1c-0.1-0.3-0.4-0.5-0.6-0.7c-0.2-0.1-0.4-0.2-0.6-0.2
			s-0.5-0.1-0.8-0.1h-0.6v4h0.6c0.3,0,0.6,0,0.9-0.1c0.2,0,0.5-0.1,0.7-0.3c0.3-0.2,0.4-0.4,0.6-0.6
			C252.8,336,252.9,335.6,252.9,335.2z"/>
		<path class="st9" d="M258.4,337.8H255v-5.2h3.4v0.6h-2.7v1.4h2.7v0.6h-2.7v1.9h2.7V337.8z"/>
		<path class="st9" d="M263.1,337.8h-3.3v-5.2h0.7v4.5h2.6V337.8z"/>
		<path class="st9" d="M270.8,336.3c0,0.2,0,0.4-0.1,0.6c-0.1,0.2-0.2,0.4-0.4,0.5c-0.2,0.1-0.4,0.3-0.6,0.3
			c-0.2,0.1-0.5,0.1-0.9,0.1c-0.4,0-0.7,0-1-0.1c-0.3-0.1-0.6-0.2-0.9-0.3v-0.9h0c0.3,0.2,0.6,0.4,0.9,0.5c0.3,0.1,0.7,0.2,1,0.2
			c0.4,0,0.8-0.1,1-0.2c0.2-0.2,0.4-0.4,0.4-0.6c0-0.2-0.1-0.4-0.2-0.5c-0.1-0.1-0.3-0.2-0.5-0.3c-0.2,0-0.4-0.1-0.6-0.1
			c-0.2,0-0.4-0.1-0.6-0.1c-0.5-0.1-0.8-0.3-1-0.5c-0.2-0.2-0.3-0.5-0.3-0.9c0-0.4,0.2-0.8,0.5-1.1c0.4-0.3,0.8-0.4,1.4-0.4
			c0.4,0,0.7,0,1,0.1c0.3,0.1,0.6,0.2,0.8,0.3v0.8h0c-0.2-0.2-0.5-0.3-0.8-0.4s-0.6-0.2-1-0.2c-0.4,0-0.7,0.1-0.9,0.2
			s-0.3,0.3-0.3,0.6c0,0.2,0.1,0.4,0.2,0.5c0.1,0.1,0.3,0.2,0.6,0.3c0.1,0,0.4,0.1,0.6,0.1c0.3,0,0.5,0.1,0.7,0.1
			c0.4,0.1,0.7,0.3,0.9,0.5C270.7,335.7,270.8,336,270.8,336.3z"/>
		<path class="st9" d="M275.6,337.8h-3.4v-5.2h3.4v0.6h-2.7v1.4h2.7v0.6h-2.7v1.9h2.7V337.8z"/>
		<path class="st9" d="M281.4,337.4c-0.3,0.1-0.6,0.2-0.9,0.3c-0.3,0.1-0.7,0.1-1,0.1c-0.4,0-0.8-0.1-1.1-0.2
			c-0.3-0.1-0.6-0.3-0.9-0.5c-0.2-0.2-0.4-0.5-0.6-0.8s-0.2-0.7-0.2-1.2c0-0.8,0.2-1.5,0.7-2c0.5-0.5,1.1-0.7,2-0.7
			c0.3,0,0.6,0,0.9,0.1c0.3,0.1,0.6,0.2,1,0.4v0.8h-0.1c-0.1-0.1-0.2-0.1-0.3-0.2c-0.1-0.1-0.3-0.2-0.4-0.2
			c-0.2-0.1-0.3-0.1-0.5-0.2c-0.2,0-0.4-0.1-0.7-0.1c-0.6,0-1,0.2-1.4,0.6c-0.3,0.4-0.5,0.9-0.5,1.5c0,0.7,0.2,1.2,0.5,1.6
			c0.4,0.4,0.8,0.6,1.4,0.6c0.2,0,0.4,0,0.7-0.1c0.2,0,0.4-0.1,0.6-0.2v-1.3h-1.4v-0.6h2.1V337.4z"/>
		<path class="st9" d="M287.5,337.8h-0.7v-4.4l-1.4,3H285l-1.4-3v4.4h-0.6v-5.2h0.9l1.4,2.9l1.3-2.9h1V337.8z"/>
		<path class="st9" d="M292.6,337.8h-3.4v-5.2h3.4v0.6h-2.7v1.4h2.7v0.6h-2.7v1.9h2.7V337.8z"/>
		<path class="st9" d="M298,337.8h-0.8l-2.4-4.6v4.6h-0.6v-5.2h1.1l2.2,4.2v-4.2h0.6V337.8z"/>
		<path class="st9" d="M303.4,333.3h-1.8v4.5h-0.7v-4.5H299v-0.6h4.4V333.3z"/>
		<path class="st9" d="M308.1,333.3c0.2,0.2,0.4,0.5,0.5,0.8c0.1,0.3,0.2,0.7,0.2,1.1s-0.1,0.8-0.2,1.1s-0.3,0.6-0.5,0.8
			c-0.2,0.2-0.5,0.4-0.8,0.5c-0.3,0.1-0.6,0.2-1,0.2c-0.4,0-0.7-0.1-1-0.2c-0.3-0.1-0.5-0.3-0.8-0.5s-0.4-0.5-0.5-0.8
			c-0.1-0.3-0.2-0.7-0.2-1.1c0-0.4,0.1-0.8,0.2-1.1c0.1-0.3,0.3-0.6,0.5-0.9c0.2-0.2,0.5-0.4,0.8-0.5c0.3-0.1,0.6-0.2,1-0.2
			c0.4,0,0.7,0.1,1,0.2C307.7,332.9,307.9,333,308.1,333.3z M308.1,335.2c0-0.7-0.1-1.2-0.5-1.5c-0.3-0.4-0.7-0.5-1.2-0.5
			c-0.5,0-0.9,0.2-1.2,0.5c-0.3,0.4-0.4,0.9-0.4,1.5c0,0.7,0.2,1.2,0.5,1.6s0.7,0.5,1.2,0.5s0.9-0.2,1.2-0.5
			S308.1,335.9,308.1,335.2z"/>
	</g>
	<g>
		<path class="st9" d="M255.3,346.1c0,0.2,0,0.4-0.1,0.6c-0.1,0.2-0.2,0.4-0.4,0.5c-0.2,0.1-0.4,0.3-0.6,0.3
			c-0.2,0.1-0.5,0.1-0.9,0.1c-0.4,0-0.7,0-1-0.1c-0.3-0.1-0.6-0.2-0.9-0.3v-0.9h0c0.3,0.2,0.6,0.4,0.9,0.5c0.3,0.1,0.7,0.2,1,0.2
			c0.4,0,0.8-0.1,1-0.2c0.2-0.2,0.4-0.4,0.4-0.6c0-0.2-0.1-0.4-0.2-0.5c-0.1-0.1-0.3-0.2-0.5-0.3c-0.2,0-0.4-0.1-0.6-0.1
			c-0.2,0-0.4-0.1-0.6-0.1c-0.5-0.1-0.8-0.3-1-0.5c-0.2-0.2-0.3-0.5-0.3-0.9c0-0.4,0.2-0.8,0.5-1.1c0.4-0.3,0.8-0.4,1.4-0.4
			c0.4,0,0.7,0,1,0.1c0.3,0.1,0.6,0.2,0.8,0.3v0.8h0c-0.2-0.2-0.5-0.3-0.8-0.4s-0.6-0.2-1-0.2c-0.4,0-0.7,0.1-0.9,0.2
			s-0.3,0.3-0.3,0.6c0,0.2,0.1,0.4,0.2,0.5c0.1,0.1,0.3,0.2,0.6,0.3c0.1,0,0.4,0.1,0.6,0.1c0.3,0,0.5,0.1,0.7,0.1
			c0.4,0.1,0.7,0.3,0.9,0.5C255.2,345.4,255.3,345.7,255.3,346.1z"/>
		<path class="st9" d="M260.3,345.5c0,0.4,0,0.7-0.1,1c-0.1,0.3-0.2,0.5-0.4,0.7c-0.2,0.2-0.4,0.3-0.6,0.4s-0.5,0.1-0.8,0.1
			c-0.3,0-0.6,0-0.8-0.1c-0.2-0.1-0.4-0.2-0.6-0.4c-0.2-0.2-0.3-0.4-0.4-0.7c-0.1-0.3-0.1-0.6-0.1-1v-3.1h0.7v3.1
			c0,0.3,0,0.5,0.1,0.7c0,0.2,0.1,0.3,0.2,0.4c0.1,0.2,0.2,0.3,0.4,0.3c0.2,0.1,0.4,0.1,0.6,0.1c0.2,0,0.5,0,0.6-0.1
			s0.3-0.2,0.4-0.3c0.1-0.1,0.2-0.3,0.2-0.5c0-0.2,0.1-0.4,0.1-0.6v-3.1h0.7V345.5z"/>
		<path class="st9" d="M265.5,346c0,0.3,0,0.5-0.1,0.7c-0.1,0.2-0.2,0.4-0.4,0.5c-0.2,0.2-0.4,0.3-0.6,0.3c-0.2,0.1-0.5,0.1-0.9,0.1
			h-1.8v-5.2h1.5c0.4,0,0.7,0,0.8,0c0.2,0,0.4,0.1,0.5,0.2c0.2,0.1,0.3,0.2,0.4,0.4c0.1,0.2,0.1,0.3,0.1,0.6c0,0.2-0.1,0.5-0.2,0.6
			c-0.1,0.2-0.3,0.3-0.5,0.4v0c0.3,0.1,0.6,0.2,0.8,0.5C265.4,345.3,265.5,345.6,265.5,346z M264.3,343.7c0-0.1,0-0.2-0.1-0.3
			c0-0.1-0.1-0.2-0.2-0.2c-0.1-0.1-0.2-0.1-0.4-0.1c-0.2,0-0.3,0-0.6,0h-0.8v1.5h0.9c0.2,0,0.4,0,0.5,0c0.1,0,0.2-0.1,0.4-0.1
			c0.1-0.1,0.2-0.2,0.2-0.3S264.3,343.8,264.3,343.7z M264.7,346c0-0.2,0-0.4-0.1-0.5c-0.1-0.1-0.2-0.2-0.3-0.3
			c-0.1-0.1-0.2-0.1-0.4-0.1c-0.2,0-0.4,0-0.6,0h-1.1v1.9h0.9c0.3,0,0.5,0,0.7,0c0.2,0,0.3-0.1,0.5-0.2c0.1-0.1,0.2-0.2,0.3-0.3
			C264.7,346.3,264.7,346.2,264.7,346z"/>
		<path class="st9" d="M268.5,345.6h-2.2V345h2.2V345.6z"/>
		<path class="st9" d="M273.6,347.6h-0.7l-0.5-1.4h-2.2l-0.5,1.4h-0.7l1.9-5.2h0.9L273.6,347.6z M272.1,345.5l-0.9-2.5l-0.9,2.5
			H272.1z"/>
		<path class="st9" d="M277.6,343h-1.8v4.5h-0.7V343h-1.8v-0.6h4.4V343z"/>
		<path class="st9" d="M281.7,347.6h-3.4v-5.2h3.4v0.6H279v1.4h2.7v0.6H279v1.9h2.7V347.6z"/>
		<path class="st9" d="M286.7,347.6h-0.8l-2.4-4.6v4.6h-0.6v-5.2h1.1l2.2,4.2v-4.2h0.6V347.6z"/>
		<path class="st9" d="M292.5,345c0,0.5-0.1,0.9-0.3,1.3c-0.2,0.4-0.5,0.7-0.8,0.9c-0.2,0.1-0.5,0.3-0.8,0.3
			c-0.3,0.1-0.7,0.1-1.1,0.1h-1.3v-5.2h1.3c0.5,0,0.9,0,1.2,0.1c0.3,0.1,0.5,0.2,0.8,0.3c0.4,0.2,0.6,0.5,0.8,0.9
			C292.4,344.1,292.5,344.5,292.5,345z M291.7,345c0-0.4-0.1-0.7-0.2-1c-0.1-0.3-0.4-0.5-0.6-0.7c-0.2-0.1-0.4-0.2-0.6-0.2
			s-0.5-0.1-0.8-0.1h-0.6v4h0.6c0.3,0,0.6,0,0.9-0.1c0.2,0,0.5-0.1,0.7-0.3c0.3-0.2,0.4-0.4,0.6-0.6
			C291.7,345.7,291.7,345.4,291.7,345z"/>
		<path class="st9" d="M295.4,347.6h-2V347h0.7v-4.1h-0.7v-0.5h2v0.5h-0.7v4.1h0.7V347.6z"/>
		<path class="st9" d="M300.9,345c0,0.5-0.1,0.9-0.3,1.3s-0.5,0.7-0.8,0.9c-0.2,0.1-0.5,0.3-0.8,0.3s-0.7,0.1-1.1,0.1h-1.3v-5.2h1.3
			c0.5,0,0.9,0,1.2,0.1c0.3,0.1,0.5,0.2,0.8,0.3c0.4,0.2,0.6,0.5,0.8,0.9C300.8,344.1,300.9,344.5,300.9,345z M300.2,345
			c0-0.4-0.1-0.7-0.2-1c-0.1-0.3-0.4-0.5-0.6-0.7c-0.2-0.1-0.4-0.2-0.6-0.2s-0.5-0.1-0.8-0.1h-0.6v4h0.6c0.3,0,0.6,0,0.9-0.1
			c0.2,0,0.5-0.1,0.7-0.3c0.3-0.2,0.4-0.4,0.6-0.6C300.1,345.7,300.2,345.4,300.2,345z"/>
		<path class="st9" d="M305.9,343c0.2,0.2,0.4,0.5,0.5,0.8c0.1,0.3,0.2,0.7,0.2,1.1s-0.1,0.8-0.2,1.1s-0.3,0.6-0.5,0.8
			c-0.2,0.2-0.5,0.4-0.8,0.5c-0.3,0.1-0.6,0.2-1,0.2c-0.4,0-0.7-0.1-1-0.2c-0.3-0.1-0.5-0.3-0.8-0.5s-0.4-0.5-0.5-0.8
			c-0.1-0.3-0.2-0.7-0.2-1.1c0-0.4,0.1-0.8,0.2-1.1c0.1-0.3,0.3-0.6,0.5-0.9c0.2-0.2,0.5-0.4,0.8-0.5c0.3-0.1,0.6-0.2,1-0.2
			c0.4,0,0.7,0.1,1,0.2C305.4,342.6,305.7,342.8,305.9,343z M305.8,345c0-0.7-0.1-1.2-0.5-1.5c-0.3-0.4-0.7-0.5-1.2-0.5
			c-0.5,0-0.9,0.2-1.2,0.5c-0.3,0.4-0.4,0.9-0.4,1.5c0,0.7,0.2,1.2,0.5,1.6s0.7,0.5,1.2,0.5s0.9-0.2,1.2-0.5S305.8,345.7,305.8,345z
			"/>
	</g>
	<path class="st10" d="M116.1,239.1"/>
	<g>
		<path class="st3" d="M216.2,142.6c-44.7,16.9-80.3,52.2-97.9,96.5"/>
		<path class="st11" d="M209,126.2c-47.8,18.7-86,56.5-105.3,104"/>
		<path class="st5" d="M102.7,232.6L102.7,232.6 M214,124.3L214,124.3"/>
		<path class="st1" d="M344,124.4c0-35.8-29.3-64.9-65.3-64.9s-65.3,29.1-65.3,64.9s29.3,64.9,65.3,64.9v-2.4
			c-34.7,0-62.9-28-62.9-62.5c0-34.5,28.2-62.5,62.9-62.5s62.9,28,62.9,62.5H344z"/>
		<path class="st2" d="M278.8,73.2c-28.4,0-51.6,23.1-51.6,51.6c0,28.4,23.1,51.6,51.6,51.6c28.4,0,51.6-23.1,51.6-51.6
			C330.4,96.3,307.2,73.2,278.8,73.2 M278.8,178.9c-29.8,0-54.1-24.3-54.1-54.1c0-29.8,24.3-54.1,54.1-54.1s54.1,24.3,54.1,54.1
			C332.9,154.6,308.7,178.9,278.8,178.9"/>
		<path class="st12" d="M452.3,232.8c-18.7-47.8-56.4-86.1-103.8-105.6"/>
		<path class="st5" d="M346,126.2L346,126.2 M454.2,237.8L454.2,237.8"/>
		<path class="st13" d="M350.7,473.6c47.1-20,84.3-58.6,102.4-106.7"/>
		<path class="st5" d="M454,364.4L454,364.4 M345.8,475.6L345.8,475.6"/>
		<path class="st3" d="M435.1,240.3c-18.2-46.9-56.6-83.8-104.5-99.9"/>
		<path class="st3" d="M339.6,459.5c44-17.6,79-53.1,95.8-97.5"/>
		<path class="st1" d="M520.5,300.9c0-35.8-29.3-64.9-65.3-64.9s-65.3,29.1-65.3,64.9s29.3,64.9,65.3,64.9v-2.4
			c-34.7,0-62.9-28-62.9-62.5c0-34.5,28.2-62.5,62.9-62.5s62.9,28,62.9,62.5H520.5z"/>
		<path class="st2" d="M455.3,249.7c-28.4,0-51.6,23.1-51.6,51.6c0,28.4,23.1,51.6,51.6,51.6c28.4,0,51.6-23.1,51.6-51.6
			C506.9,272.9,483.8,249.7,455.3,249.7 M455.3,355.4c-29.8,0-54.1-24.3-54.1-54.1c0-29.8,24.3-54.1,54.1-54.1
			c29.8,0,54.1,24.3,54.1,54.1C509.5,331.1,485.2,355.4,455.3,355.4"/>
		<path class="st1" d="M344,478.3c0-35.8-29.3-64.9-65.3-64.9s-65.3,29.1-65.3,64.9s29.3,64.9,65.3,64.9v-2.4
			c-34.7,0-62.9-28-62.9-62.5c0-34.5,28.2-62.5,62.9-62.5s62.9,28,62.9,62.5H344z"/>
		<path class="st2" d="M278.8,427.1c-28.4,0-51.6,23.1-51.6,51.6c0,28.4,23.1,51.6,51.6,51.6c28.4,0,51.6-23.1,51.6-51.6
			C330.4,450.2,307.2,427.1,278.8,427.1 M278.8,532.7c-29.8,0-54.1-24.3-54.1-54.1s24.3-54.1,54.1-54.1s54.1,24.3,54.1,54.1
			S308.7,532.7,278.8,532.7"/>
		<g>
			<path class="st14" d="M228.5,24.4l-6.4,1.2l-2.2-11.9l6.2-1.2l0.2,1.1c-0.8,0.1-2.5,0.4-4.8,0.8c-0.2,0-0.2,0.1-0.2,0.3
				c0.2,1.4,0.4,2.7,0.6,3.8l4.5-0.8l0.2,1l-4.5,0.8L223,24c0,0.2,0.2,0.4,0.4,0.3c2.3-0.4,4-0.8,4.9-1L228.5,24.4z"/>
		</g>
		<g>
			<path class="st14" d="M234.3,15.5l-0.9-5.5l1.1-0.2c0.2,1.8,0.5,3.9,0.9,6.3l1.1,6.9c-0.4,0.1-0.9,0.2-1.4,0.4
				c-0.5,0.2-1,0.3-1.5,0.4c-1,0.2-1.9-0.1-2.8-0.7s-1.4-1.6-1.6-2.9c-0.2-1.3,0-2.4,0.6-3.3c0.6-0.9,1.4-1.4,2.4-1.6
				c0.4-0.1,0.8-0.1,1.2,0S234.2,15.3,234.3,15.5z M235.3,21.8l-0.8-5.2c0-0.2-0.2-0.3-0.5-0.4c-0.3-0.1-0.7-0.1-1.2,0
				c-0.8,0.1-1.4,0.5-1.8,1.2c-0.4,0.6-0.5,1.5-0.3,2.6c0.2,1.1,0.5,1.9,1.1,2.3s1.2,0.6,2.1,0.5c0.5-0.1,0.8-0.2,1.1-0.4
				C235.2,22.2,235.4,22,235.3,21.8z"/>
		</g>
		<g>
			<path class="st14" d="M242.3,21.5c1.2-0.2,1.8-0.5,1.7-1.1l-0.9-6.5l1.1-0.1l1.1,8.1c-0.5,0.1-1,0.2-1.6,0.4
				c-0.6,0.2-1.1,0.3-1.5,0.3c-0.9,0.1-1.7,0-2.3-0.4c-0.6-0.4-1-1-1.1-2l-0.7-5.5l1.1-0.1l0.7,5.3c0.1,0.7,0.3,1.2,0.7,1.5
				S241.6,21.6,242.3,21.5z"/>
		</g>
		<g>
			<path class="st14" d="M248.4,17.5c0.2,2.2,1.3,3.3,3.1,3.1c0.4,0,0.8-0.1,1.3-0.3l0.1,0.9c-0.4,0.2-0.9,0.2-1.3,0.3
				c-1.3,0.1-2.3-0.2-3.1-0.8c-0.8-0.7-1.3-1.7-1.4-3.1c-0.1-1.3,0.1-2.4,0.8-3.3c0.6-0.9,1.6-1.3,2.9-1.5c0.4,0,0.8,0,1.3,0
				l0.1,1.1c-0.4-0.1-0.9-0.1-1.4-0.1C249,14,248.2,15.2,248.4,17.5z"/>
		</g>
		<g>
			<path class="st14" d="M258.6,15.4l0-0.6c-0.1-1.1-0.7-1.6-2-1.5c-0.8,0.1-1.5,0.3-2.3,0.7l-0.1-1c0.8-0.4,1.5-0.6,2.4-0.7
				c1.9-0.1,2.9,0.6,3,2.3c0,0.5,0.1,1.2,0.1,2.2c0,0.9,0.1,1.6,0.1,2.1c0,0.6,0.1,1.1,0.2,1.6c-0.4,0-0.9,0.1-1.6,0.2
				c-0.6,0.1-1.1,0.2-1.4,0.2c-0.9,0.1-1.6-0.1-2.1-0.5c-0.5-0.4-0.8-1-0.9-1.7c-0.1-0.9,0.3-1.6,1-2.2
				C255.9,15.9,257,15.5,258.6,15.4z M258.7,16.3c-1.2,0.1-2.1,0.3-2.6,0.7c-0.5,0.4-0.7,0.9-0.7,1.6c0,0.5,0.2,0.8,0.5,1.1
				s0.8,0.4,1.3,0.4c1-0.1,1.6-0.4,1.6-0.9C258.9,18.9,258.8,17.9,258.7,16.3z"/>
		</g>
		<g>
			<path class="st14" d="M263.2,16.3c0.1,2.3,1.1,3.3,3,3.3c0.4,0,0.9-0.1,1.3-0.2l0,1c-0.5,0.1-0.9,0.2-1.3,0.2
				c-1.3,0.1-2.3-0.3-3.1-1c-0.8-0.7-1.2-1.8-1.2-3.2c-0.1-1.3,0.2-2.4,0.9-3.2c0.7-0.8,1.7-1.3,3-1.3c0.4,0,0.8,0,1.3,0.1l0,1.1
				c-0.4-0.1-0.9-0.2-1.4-0.1C264,12.9,263.1,14,263.2,16.3z"/>
		</g>
		<g>
			<path class="st14" d="M269.8,8.6c0.2,0,0.4,0.1,0.5,0.2c0.2,0.1,0.2,0.3,0.2,0.5c0,0.2-0.1,0.4-0.2,0.6c-0.1,0.2-0.3,0.2-0.5,0.2
				c-0.2,0-0.4-0.1-0.6-0.2c-0.2-0.1-0.2-0.3-0.2-0.6c0-0.2,0.1-0.4,0.2-0.6C269.3,8.7,269.5,8.6,269.8,8.6z M269.3,11.9l1.2,0
				c0,2.3,0.1,5,0.2,8.2l-1.1,0L269.3,11.9z"/>
		</g>
		<g>
			<path class="st14" d="M276.4,11.5c1.1,0,2,0.4,2.6,1.2c0.7,0.8,1,1.9,1,3.2c0,1.3-0.3,2.3-1,3.2c-0.6,0.8-1.5,1.2-2.6,1.2
				c-1.1,0-1.9-0.4-2.6-1.2c-0.7-0.8-1-1.8-1-3.1c0-1.3,0.3-2.4,1-3.2C274.5,12,275.3,11.5,276.4,11.5z M278.1,13.4
				c-0.4-0.6-1-0.9-1.7-0.9c-0.7,0-1.3,0.3-1.7,0.9c-0.4,0.6-0.6,1.4-0.6,2.6c0,1.1,0.2,1.9,0.7,2.5c0.4,0.6,1,0.9,1.7,0.9
				s1.3-0.3,1.7-0.9c0.4-0.6,0.6-1.4,0.6-2.5C278.8,14.8,278.6,14,278.1,13.4z M276.2,10.7l-1.1,0c0.7-0.7,1.5-1.7,2.2-2.8l1.4,0
				L276.2,10.7z"/>
		</g>
		<g>
			<path class="st14" d="M285.4,12.6c-0.6,0-1.1,0.1-1.4,0.3s-0.6,0.4-0.6,0.7l-0.1,6.5l-1.1,0l0.2-8c0.6,0,1.2-0.1,1.8-0.2
				c0.6-0.1,1.2-0.2,1.6-0.2c0.8,0,1.5,0.2,2,0.7c0.5,0.5,0.8,1.2,0.7,2.1l-0.1,5.7l-1.1,0l0.1-5.4c0-0.7-0.1-1.3-0.5-1.6
				C286.6,12.8,286.1,12.6,285.4,12.6z"/>
		</g>
		<g>
			<path class="st14" d="M296.1,20.5l-1.2-0.1l0.8-12.1l6,0.4l-0.1,1.1c-1-0.1-2.5-0.2-4.5-0.4c-0.2,0-0.2,0.1-0.3,0.3
				c-0.1,1.4-0.2,2.7-0.3,3.8l4.3,0.3l-0.1,1l-4.3-0.3L296.1,20.5z"/>
		</g>
		<g>
			<path class="st14" d="M303.3,12.8l1.1,0.1c-0.2,2.3-0.5,5-0.7,8.2l-1.1-0.1L303.3,12.8z M304.1,9.5c0.2,0,0.4,0.1,0.5,0.3
				c0.1,0.2,0.2,0.3,0.2,0.6c0,0.2-0.1,0.4-0.3,0.5c-0.2,0.1-0.3,0.2-0.5,0.2c-0.2,0-0.4-0.1-0.5-0.3s-0.2-0.4-0.2-0.6
				c0-0.2,0.1-0.4,0.3-0.5C303.6,9.6,303.8,9.5,304.1,9.5z"/>
		</g>
		<g>
			<path class="st14" d="M310.3,14.2c-0.6-0.1-1.1,0-1.5,0.2c-0.4,0.2-0.6,0.4-0.6,0.6l-0.7,6.4l-1.1-0.1l0.9-8
				c0.6,0.1,1.2,0.1,1.8,0c0.6-0.1,1.2-0.1,1.7,0c0.8,0.1,1.4,0.4,1.9,0.9c0.5,0.5,0.7,1.2,0.6,2.2l-0.6,5.7l-1.1-0.1l0.6-5.4
				c0.1-0.7,0-1.3-0.3-1.6C311.5,14.5,311,14.3,310.3,14.2z"/>
		</g>
		<g>
			<path class="st14" d="M320,17.6L320,17c0.1-1.1-0.4-1.7-1.6-1.9c-0.8-0.1-1.6,0-2.4,0.2l0.1-1c0.8-0.2,1.6-0.3,2.5-0.2
				c1.9,0.3,2.7,1.2,2.5,2.9c-0.1,0.5-0.2,1.2-0.3,2.1c-0.1,0.9-0.2,1.6-0.3,2.1c-0.1,0.6-0.1,1.1-0.2,1.6c-0.4-0.1-1-0.1-1.6-0.1
				c-0.7,0-1.1,0-1.4-0.1c-0.9-0.1-1.5-0.4-2-1c-0.4-0.5-0.6-1.1-0.5-1.9c0.1-0.9,0.6-1.5,1.4-2C317.2,17.5,318.4,17.4,320,17.6z
				 M319.9,18.4c-1.2-0.2-2.1-0.1-2.7,0.2c-0.6,0.3-0.9,0.7-1,1.4c-0.1,0.5,0,0.8,0.3,1.2s0.7,0.5,1.2,0.6c1,0.1,1.6,0,1.8-0.5
				C319.5,21,319.6,20.1,319.9,18.4z"/>
		</g>
		<g>
			<path class="st14" d="M327.1,16.5c-0.6-0.1-1.1-0.1-1.5,0.1c-0.4,0.1-0.6,0.3-0.7,0.6l-1,6.4l-1.1-0.2l1.3-7.9
				c0.6,0.1,1.2,0.1,1.8,0.1c0.6-0.1,1.2,0,1.7,0c0.8,0.1,1.4,0.4,1.9,1c0.4,0.5,0.6,1.3,0.4,2.2l-0.9,5.6l-1.1-0.2l0.9-5.4
				c0.1-0.7,0-1.3-0.2-1.6C328.3,16.8,327.8,16.6,327.1,16.5z"/>
		</g>
		<g>
			<path class="st14" d="M333,20.9c-0.4,2.2,0.3,3.5,2.1,3.9c0.4,0.1,0.9,0.1,1.3,0.1l-0.2,0.9c-0.5,0-0.9,0-1.3-0.1
				c-1.2-0.2-2.2-0.8-2.7-1.7c-0.6-0.9-0.7-2-0.4-3.4c0.3-1.3,0.8-2.3,1.7-2.9c0.9-0.6,1.9-0.8,3.2-0.6c0.4,0.1,0.8,0.2,1.2,0.4
				l-0.2,1c-0.4-0.2-0.8-0.4-1.3-0.5C334.6,17.8,333.5,18.7,333,20.9z"/>
		</g>
		<g>
			<path class="st14" d="M340,18.1l1.1,0.2c-0.5,2.2-1.1,4.9-1.8,8l-1.1-0.2L340,18.1z M341.2,15c0.2,0,0.4,0.2,0.5,0.3
				c0.1,0.2,0.2,0.4,0.1,0.6c0,0.2-0.2,0.4-0.3,0.5c-0.2,0.1-0.4,0.2-0.6,0.1c-0.2,0-0.4-0.2-0.5-0.3s-0.2-0.4-0.1-0.6
				c0-0.2,0.2-0.4,0.3-0.5C340.8,15,341,15,341.2,15z"/>
		</g>
		<g>
			<path class="st14" d="M343.8,22.8l-0.1,0.4c-0.3,1.1-0.2,2,0.2,2.7s1,1.1,2,1.3c0.6,0.1,1.2,0.2,1.6,0.1l-0.2,0.9
				c-0.5,0.1-1.1,0-1.7-0.1c-1.2-0.3-2.1-0.9-2.7-1.8c-0.6-0.9-0.7-2.1-0.3-3.5c0.3-1.2,0.9-2.1,1.8-2.7s1.9-0.8,2.9-0.5
				c0.9,0.2,1.6,0.7,1.9,1.3c0.3,0.7,0.4,1.5,0.1,2.4c-0.1,0.2-0.1,0.5-0.2,0.8L343.8,22.8z M344.2,21.8l3.6,0.8c0.2,0,0.3,0,0.4,0
				c0.1-0.1,0.1-0.2,0.2-0.3c0.1-0.5,0-0.9-0.2-1.2c-0.2-0.3-0.6-0.6-1.2-0.7c-0.7-0.2-1.3-0.1-1.7,0.2
				C344.7,21,344.4,21.4,344.2,21.8z"/>
		</g>
		<g>
			<path class="st14" d="M351,29.2l-1-0.3l2.1-8l1,0.3l-0.2,0.8c0.3-0.3,0.7-0.5,1.1-0.6c0.5-0.1,0.9-0.1,1.3,0.1
				c0.3,0.1,0.6,0.2,0.8,0.3l-0.3,1.2c-0.4-0.2-0.7-0.4-1-0.4c-0.6-0.2-1.1-0.2-1.5,0c-0.4,0.1-0.7,0.4-0.8,0.8
				C352.3,24.3,351.8,26.3,351,29.2z"/>
		</g>
		<g>
			<path class="st14" d="M360.7,26.3l0.2-0.5c0.3-1.1-0.1-1.8-1.3-2.1c-0.8-0.2-1.5-0.3-2.4-0.1l0.3-1c0.8-0.1,1.7,0,2.5,0.2
				c1.8,0.5,2.5,1.6,2,3.2c-0.1,0.5-0.4,1.2-0.6,2.1c-0.3,0.9-0.5,1.6-0.6,2c-0.2,0.6-0.3,1.1-0.4,1.6c-0.4-0.1-0.9-0.2-1.6-0.3
				c-0.6-0.1-1.1-0.2-1.4-0.3c-0.9-0.3-1.5-0.7-1.8-1.2c-0.3-0.6-0.4-1.2-0.2-1.9c0.2-0.8,0.8-1.4,1.7-1.7
				C357.9,25.9,359.2,25.9,360.7,26.3z M360.5,27.2c-1.2-0.3-2.1-0.4-2.7-0.2c-0.6,0.2-1,0.6-1.2,1.3c-0.1,0.4-0.1,0.8,0.1,1.2
				s0.6,0.6,1.1,0.8c1,0.3,1.6,0.2,1.8-0.3C359.7,29.7,360,28.8,360.5,27.2z"/>
		</g>
	</g>
	<g>
		<path class="st1" d="M266.9,137.5v1.6c-0.7-0.3-1.3-0.4-1.9-0.4c-2.1,0-3.1,1.1-3.1,3.4c0,1.2,0.3,2.1,0.9,2.6
			c0.6,0.5,1.3,0.8,2.3,0.8c0.7,0,1.3-0.1,1.9-0.4v1.5c-0.6,0.3-1.2,0.4-2,0.4c-0.7,0-1.3-0.1-1.9-0.3c-0.6-0.2-1.1-0.5-1.5-0.8
			c-0.4-0.4-0.8-0.9-1.1-1.5c-0.3-0.6-0.4-1.4-0.4-2.2s0.1-1.6,0.4-2.3c0.3-0.7,0.6-1.2,1.1-1.6c0.5-0.4,1-0.7,1.5-0.9
			c0.6-0.2,1.2-0.3,1.9-0.3C265.7,137.2,266.4,137.3,266.9,137.5z"/>
		<path class="st1" d="M269.9,146.9h-1.5v-6.6h1.5v0.6c0.4-0.6,0.9-0.8,1.7-0.8c0.2,0,0.4,0,0.7,0.1v1.6c-0.3-0.1-0.6-0.2-1.1-0.2
			c-0.3,0-0.6,0.1-0.9,0.2c-0.2,0.1-0.4,0.3-0.4,0.6C269.9,143.2,269.9,144.7,269.9,146.9z"/>
		<path class="st1" d="M274.3,143.8v0.2c0,0.6,0.2,1,0.5,1.3c0.3,0.3,0.8,0.5,1.4,0.5c0.6,0,1.1-0.1,1.5-0.3v1.4
			c-0.5,0.2-1.1,0.2-1.7,0.2c-1,0-1.9-0.3-2.5-0.9c-0.6-0.6-0.9-1.5-0.9-2.6c0-1,0.3-1.9,0.9-2.5c0.6-0.6,1.3-0.9,2.3-0.9
			c0.8,0,1.5,0.3,1.9,0.8c0.4,0.5,0.6,1.2,0.6,2.1c0,0.3,0,0.5-0.1,0.8H274.3z M274.4,142.6h2c0.2,0,0.3-0.1,0.3-0.3
			c0-0.3-0.1-0.5-0.2-0.6c-0.2-0.2-0.4-0.2-0.7-0.2c-0.4,0-0.7,0.1-0.9,0.3C274.6,142,274.5,142.2,274.4,142.6z M275.9,139.5h-1.4
			c0.5-0.5,1.1-1.3,1.8-2.2h1.6L275.9,139.5z"/>
		<path class="st1" d="M283.3,140.5v-4h1.6c0,1.7,0,3.4,0,5.1v5.2c-0.3,0-0.7,0-1.3,0.1c-0.5,0.1-0.9,0.1-1.2,0.1
			c-0.9,0-1.6-0.3-2.2-0.9c-0.6-0.6-0.9-1.5-0.9-2.6c0-1,0.3-1.9,0.9-2.5c0.6-0.6,1.3-0.9,2-0.9
			C282.7,140.1,283.1,140.2,283.3,140.5z M283.3,145.3v-3.4c0-0.1-0.1-0.2-0.2-0.3c-0.2-0.1-0.4-0.1-0.6-0.1c-1,0-1.5,0.7-1.5,2.1
			c0,1.4,0.5,2.1,1.5,2.1c0.3,0,0.5,0,0.6-0.1S283.3,145.4,283.3,145.3z"/>
		<path class="st1" d="M287.6,137.5c0.3,0,0.5,0.1,0.7,0.3s0.3,0.4,0.3,0.6c0,0.3-0.1,0.5-0.3,0.7s-0.4,0.3-0.7,0.3
			c-0.3,0-0.5-0.1-0.7-0.3s-0.3-0.4-0.3-0.7c0-0.3,0.1-0.5,0.3-0.6S287.3,137.5,287.6,137.5z M286.8,140.3h1.6
			c0,1.7-0.1,3.9-0.1,6.6h-1.6V140.3z"/>
		<path class="st1" d="M289.6,141.7v-1.4h0.9v-1.2l1.5-0.9v2.1h1.9v1.4H292c0,0.5,0,1.1,0,1.8c0,0.7,0,1.2,0,1.5
			c0,0.5,0.3,0.7,0.8,0.7c0.4,0,0.8-0.1,1.1-0.3v1.3c-0.5,0.2-1,0.3-1.5,0.3c-0.6,0-1.1-0.1-1.4-0.4c-0.4-0.3-0.5-0.7-0.5-1.3v-3.7
			H289.6z"/>
		<path class="st1" d="M297.8,140.1c0.9,0,1.6,0.3,2.2,0.9c0.6,0.6,0.8,1.5,0.8,2.5c0,1-0.3,1.9-0.8,2.5c-0.6,0.6-1.3,1-2.2,1
			c-0.9,0-1.6-0.3-2.2-1c-0.6-0.6-0.8-1.5-0.8-2.5c0-1,0.3-1.9,0.8-2.5C296.2,140.5,296.9,140.1,297.8,140.1z M297.8,141.5
			c-0.4,0-0.7,0.2-1,0.5c-0.2,0.3-0.4,0.9-0.4,1.6c0,0.7,0.1,1.2,0.4,1.6c0.3,0.4,0.6,0.5,1,0.5s0.7-0.2,1-0.5
			c0.2-0.4,0.4-0.9,0.4-1.6c0-0.7-0.1-1.2-0.4-1.6C298.5,141.7,298.2,141.5,297.8,141.5z"/>
	</g>
	<g>
		<path class="st1" d="M79.5,318.3c0-0.8,0.3-1.5,0.9-2c0.6-0.5,1.4-0.8,2.3-0.8c0.5,0,1.1,0.1,1.7,0.2v1.6
			c-0.5-0.2-1.1-0.3-1.7-0.3c-0.4,0-0.8,0.1-1,0.3c-0.3,0.2-0.4,0.5-0.4,0.8c0,0.3,0.1,0.5,0.4,0.8c0.3,0.2,0.6,0.5,0.9,0.7
			c0.4,0.2,0.7,0.4,1.1,0.7c0.4,0.2,0.7,0.6,0.9,1c0.3,0.4,0.4,0.8,0.4,1.3c0,0.9-0.3,1.6-1,2.1c-0.7,0.5-1.5,0.7-2.6,0.7
			c-0.7,0-1.3-0.1-1.9-0.2v-1.5c0.6,0.1,1.2,0.2,1.8,0.2c0.6,0,1-0.1,1.4-0.3c0.3-0.2,0.5-0.5,0.5-0.9c0-0.3-0.1-0.6-0.4-0.9
			s-0.6-0.5-0.9-0.7c-0.4-0.2-0.7-0.4-1.1-0.6c-0.4-0.2-0.7-0.5-0.9-0.9C79.6,319.1,79.5,318.7,79.5,318.3z"/>
		<path class="st1" d="M87.5,322.1v0.2c0,0.6,0.2,1,0.5,1.3s0.8,0.5,1.4,0.5c0.6,0,1.1-0.1,1.5-0.3v1.4c-0.5,0.2-1.1,0.2-1.7,0.2
			c-1,0-1.9-0.3-2.5-0.9s-0.9-1.5-0.9-2.6c0-1,0.3-1.9,0.9-2.5c0.6-0.6,1.3-0.9,2.3-0.9c0.8,0,1.5,0.3,1.9,0.8
			c0.4,0.5,0.6,1.2,0.6,2.1c0,0.3,0,0.5-0.1,0.8H87.5z M87.6,320.9h2c0.2,0,0.3-0.1,0.3-0.3c0-0.3-0.1-0.5-0.2-0.6
			c-0.2-0.2-0.4-0.2-0.7-0.2c-0.4,0-0.7,0.1-0.9,0.3C87.8,320.2,87.7,320.5,87.6,320.9z"/>
		<path class="st1" d="M98.1,322.3v3.8c0,0.6-0.2,1.1-0.5,1.5c-0.3,0.4-0.7,0.7-1.2,0.9c-0.5,0.2-1,0.3-1.5,0.3
			c-0.6,0-1.2-0.1-1.7-0.2v-1.4c0.6,0.2,1.2,0.3,1.7,0.3c0.4,0,0.8-0.1,1.1-0.3c0.3-0.2,0.5-0.5,0.5-0.9V325
			c-0.3,0.2-0.6,0.3-1.1,0.3c-0.8,0-1.4-0.3-2-0.9c-0.6-0.6-0.9-1.4-0.9-2.5c0-1.1,0.3-2,0.9-2.6c0.6-0.6,1.3-0.9,2.2-0.9
			c0.3,0,0.7,0,1.3,0.1c0.5,0.1,0.9,0.1,1.3,0.1C98.1,319.5,98.1,320.7,98.1,322.3z M96.6,320.2c0-0.1-0.1-0.2-0.2-0.3
			s-0.3-0.1-0.6-0.1c-1,0-1.5,0.7-1.5,2.2c0,1.4,0.5,2.1,1.5,2.1c0.2,0,0.4,0,0.6-0.1c0.2-0.1,0.2-0.2,0.2-0.3V320.2z"/>
		<path class="st1" d="M102.8,324c0.7,0,1-0.2,1-0.5v-4.8h1.5v6.4c-0.4,0-0.9,0-1.4,0.1c-0.5,0.1-1,0.1-1.5,0.1
			c-0.7,0-1.3-0.2-1.8-0.6s-0.7-1-0.7-1.8v-4.4h1.6v4.2C101.5,323.6,101.9,324,102.8,324z"/>
		<path class="st1" d="M108.8,325.2h-1.5v-6.6h1.5v0.6c0.4-0.6,0.9-0.8,1.7-0.8c0.2,0,0.4,0,0.7,0.1v1.6c-0.3-0.1-0.6-0.2-1.1-0.2
			c-0.3,0-0.6,0.1-0.9,0.2c-0.2,0.1-0.4,0.3-0.4,0.6C108.8,321.4,108.8,322.9,108.8,325.2z"/>
		<path class="st1" d="M114.6,318.4c0.9,0,1.6,0.3,2.2,0.9s0.8,1.5,0.8,2.5c0,1-0.3,1.9-0.8,2.5c-0.6,0.6-1.3,1-2.2,1
			c-0.9,0-1.6-0.3-2.2-1c-0.6-0.6-0.8-1.5-0.8-2.5c0-1,0.3-1.9,0.8-2.5C112.9,318.7,113.7,318.4,114.6,318.4z M114.6,319.8
			c-0.4,0-0.7,0.2-1,0.5c-0.2,0.4-0.4,0.9-0.4,1.6c0,0.7,0.1,1.2,0.4,1.6c0.3,0.4,0.6,0.5,1,0.5c0.4,0,0.7-0.2,1-0.5
			s0.4-0.9,0.4-1.6c0-0.7-0.1-1.2-0.4-1.6C115.3,320,115,319.8,114.6,319.8z"/>
		<path class="st1" d="M118.7,320.5c0-0.6,0.2-1.1,0.7-1.5c0.4-0.4,1.1-0.5,1.8-0.5c0.5,0,1,0.1,1.5,0.2v1.5
			c-0.6-0.2-1.1-0.3-1.6-0.3c-0.3,0-0.5,0.1-0.6,0.2c-0.2,0.1-0.2,0.2-0.2,0.4c0,0.2,0.1,0.3,0.3,0.5c0.2,0.1,0.4,0.3,0.7,0.4
			c0.3,0.1,0.5,0.3,0.8,0.4c0.3,0.2,0.5,0.4,0.7,0.6c0.2,0.3,0.3,0.6,0.3,1c0,0.6-0.2,1.1-0.7,1.5s-1.1,0.6-1.9,0.6
			c-0.7,0-1.2-0.1-1.7-0.2v-1.4c0.5,0.2,1.1,0.3,1.6,0.3c0.7,0,1.1-0.2,1.1-0.7c0-0.2-0.1-0.4-0.3-0.5s-0.4-0.3-0.7-0.4
			s-0.5-0.3-0.8-0.4c-0.3-0.1-0.5-0.3-0.7-0.6S118.7,320.8,118.7,320.5z"/>
	</g>
	<g>
		<path class="st1" d="M265.9,495.6v1.6c-0.7-0.3-1.3-0.4-1.9-0.4c-2.1,0-3.1,1.1-3.1,3.4c0,1.2,0.3,2.1,0.9,2.6
			c0.6,0.5,1.3,0.8,2.3,0.8c0.7,0,1.3-0.1,1.9-0.4v1.5c-0.6,0.3-1.2,0.4-2,0.4c-0.7,0-1.3-0.1-1.9-0.3c-0.6-0.2-1.1-0.5-1.5-0.8
			c-0.4-0.4-0.8-0.9-1.1-1.5c-0.3-0.6-0.4-1.4-0.4-2.2c0-0.8,0.1-1.6,0.4-2.3c0.3-0.7,0.6-1.2,1.1-1.6c0.5-0.4,1-0.7,1.5-0.9
			c0.6-0.2,1.2-0.3,1.9-0.3C264.7,495.4,265.4,495.5,265.9,495.6z"/>
		<path class="st1" d="M266.9,503.1c0-0.7,0.3-1.3,0.9-1.7c0.6-0.4,1.5-0.7,2.6-0.7v-0.3c0-0.3-0.1-0.5-0.3-0.6s-0.4-0.2-0.8-0.2
			c-0.7,0-1.4,0.1-2,0.4v-1.4c0.7-0.2,1.5-0.3,2.2-0.3c1.6,0,2.4,0.7,2.4,2.2c0,0.4,0,0.9,0,1.5c0,0.7,0,1.2,0,1.5
			c0,0.6,0,1.1,0.1,1.5c-0.4,0-0.9,0-1.4,0.1c-0.5,0.1-1,0.1-1.3,0.1c-0.8,0-1.4-0.2-1.8-0.5C267.1,504.3,266.9,503.8,266.9,503.1z
			 M270.4,503.5c0-0.2,0.1-0.7,0.1-1.7c-1.3,0-1.9,0.4-1.9,1.2c0,0.3,0.1,0.5,0.3,0.6c0.2,0.2,0.4,0.2,0.7,0.2
			C270,503.9,270.3,503.8,270.4,503.5z"/>
		<path class="st1" d="M276.4,499.7c-0.3,0-0.6,0.1-0.8,0.2c-0.2,0.1-0.3,0.2-0.3,0.4v4.8h-1.5v-6.4c0.5,0,0.9-0.1,1.5-0.2
			c0.5-0.1,1-0.2,1.5-0.2c0.7,0,1.3,0.2,1.7,0.6c0.4,0.4,0.7,1,0.7,1.8v4.4h-1.5v-4.2C277.6,500.1,277.2,499.7,276.4,499.7z"/>
		<path class="st1" d="M280.6,503.1c0-0.7,0.3-1.3,0.9-1.7c0.6-0.4,1.5-0.7,2.6-0.7v-0.3c0-0.3-0.1-0.5-0.3-0.6s-0.4-0.2-0.8-0.2
			c-0.7,0-1.4,0.1-2,0.4v-1.4c0.7-0.2,1.5-0.3,2.2-0.3c1.6,0,2.4,0.7,2.4,2.2c0,0.4,0,0.9,0,1.5c0,0.7,0,1.2,0,1.5
			c0,0.6,0,1.1,0.1,1.5c-0.4,0-0.9,0-1.4,0.1c-0.5,0.1-1,0.1-1.3,0.1c-0.8,0-1.4-0.2-1.8-0.5C280.8,504.3,280.6,503.8,280.6,503.1z
			 M284.1,503.5c0-0.2,0.1-0.7,0.1-1.7c-1.3,0-1.9,0.4-1.9,1.2c0,0.3,0.1,0.5,0.3,0.6c0.2,0.2,0.4,0.2,0.7,0.2
			C283.7,503.9,284,503.8,284.1,503.5z"/>
		<path class="st1" d="M287.5,494.6h1.6c0,0.4,0,1.2,0,2.3c0,1.2,0,2.1,0,2.9v5.2h-1.5V494.6z"/>
		<path class="st1" d="M292.2,502v0.2c0,0.6,0.2,1,0.5,1.3c0.3,0.3,0.8,0.5,1.4,0.5c0.6,0,1.1-0.1,1.5-0.3v1.4
			c-0.5,0.2-1.1,0.2-1.7,0.2c-1,0-1.9-0.3-2.5-0.9s-0.9-1.5-0.9-2.6c0-1,0.3-1.9,0.9-2.5c0.6-0.6,1.3-0.9,2.3-0.9
			c0.8,0,1.5,0.3,1.9,0.8c0.4,0.5,0.6,1.2,0.6,2.1c0,0.3,0,0.5-0.1,0.8H292.2z M292.3,500.7h2c0.2,0,0.3-0.1,0.3-0.3
			c0-0.3-0.1-0.5-0.2-0.6c-0.2-0.2-0.4-0.2-0.7-0.2c-0.4,0-0.7,0.1-0.9,0.3C292.5,500.1,292.4,500.4,292.3,500.7z"/>
		<path class="st1" d="M297.2,500.3c0-0.6,0.2-1.1,0.7-1.5s1.1-0.5,1.8-0.5c0.5,0,1,0.1,1.5,0.2v1.5c-0.6-0.2-1.1-0.3-1.6-0.3
			c-0.3,0-0.5,0.1-0.6,0.2c-0.2,0.1-0.2,0.2-0.2,0.4c0,0.2,0.1,0.3,0.3,0.5c0.2,0.1,0.4,0.3,0.7,0.4c0.3,0.1,0.5,0.3,0.8,0.4
			c0.3,0.2,0.5,0.4,0.7,0.6s0.3,0.6,0.3,1c0,0.6-0.2,1.1-0.7,1.5s-1.1,0.6-1.9,0.6c-0.7,0-1.2-0.1-1.7-0.2v-1.4
			c0.5,0.2,1.1,0.3,1.6,0.3c0.7,0,1.1-0.2,1.1-0.7c0-0.2-0.1-0.4-0.3-0.5s-0.4-0.3-0.7-0.4c-0.3-0.1-0.5-0.3-0.8-0.4
			c-0.3-0.1-0.5-0.3-0.7-0.6C297.3,501,297.2,500.7,297.2,500.3z"/>
	</g>
	<g>
		<path class="st1" d="M442,315.8h1.5l3.4,9.5h-1.8c-0.2-0.8-0.5-1.6-0.8-2.5h-3.3l-0.9,2.5h-1.7c0.6-1.4,1.3-3.1,2-5.1
			C441.2,318.2,441.7,316.7,442,315.8z M441.6,321.3h2.3c-0.3-0.9-0.6-1.9-1-2.8c0-0.1-0.1-0.2-0.1-0.2c0,0-0.1,0.1-0.1,0.2
			C442.3,319.4,441.9,320.4,441.6,321.3z"/>
		<path class="st1" d="M449.4,325.2h-1.5v-10.4h1.6c0,0.3,0,0.7,0,1.3c0,0.6,0,1.1,0,1.5c0,0.4,0,0.9,0,1.2c0.4-0.2,0.9-0.3,1.4-0.3
			c0.7,0,1.3,0.2,1.7,0.6c0.5,0.4,0.7,1,0.7,1.8v4.4h-1.6v-3.7c0-0.6-0.1-1.1-0.2-1.3c-0.2-0.3-0.5-0.4-1-0.4
			c-0.7,0-1.1,0.2-1.1,0.6V325.2z"/>
		<path class="st1" d="M457.6,318.5c0.9,0,1.6,0.3,2.2,0.9s0.8,1.5,0.8,2.5c0,1-0.3,1.9-0.8,2.5c-0.6,0.6-1.3,1-2.2,1
			c-0.9,0-1.6-0.3-2.2-1c-0.6-0.6-0.8-1.5-0.8-2.5c0-1,0.3-1.9,0.8-2.5S456.7,318.5,457.6,318.5z M457.6,319.8c-0.4,0-0.7,0.2-1,0.5
			c-0.2,0.4-0.4,0.9-0.4,1.6c0,0.7,0.1,1.2,0.4,1.6c0.3,0.4,0.6,0.5,1,0.5s0.7-0.2,1-0.5c0.2-0.4,0.4-0.9,0.4-1.6
			c0-0.7-0.1-1.2-0.4-1.6C458.4,320,458,319.8,457.6,319.8z"/>
		<path class="st1" d="M463.7,325.2h-1.5v-6.6h1.5v0.6c0.4-0.6,0.9-0.8,1.7-0.8c0.2,0,0.4,0,0.7,0.1v1.6c-0.3-0.1-0.6-0.2-1.1-0.2
			c-0.3,0-0.6,0.1-0.9,0.2c-0.2,0.1-0.4,0.3-0.4,0.6C463.7,321.5,463.7,323,463.7,325.2z"/>
		<path class="st1" d="M468.6,325.2H467v-6.6h1.5v0.6c0.4-0.6,0.9-0.8,1.7-0.8c0.2,0,0.4,0,0.7,0.1v1.6c-0.3-0.1-0.6-0.2-1.1-0.2
			c-0.3,0-0.6,0.1-0.9,0.2c-0.2,0.1-0.4,0.3-0.4,0.6C468.6,321.5,468.6,323,468.6,325.2z"/>
		<path class="st1" d="M474.4,318.5c0.9,0,1.6,0.3,2.2,0.9s0.8,1.5,0.8,2.5c0,1-0.3,1.9-0.8,2.5c-0.6,0.6-1.3,1-2.2,1
			c-0.9,0-1.6-0.3-2.2-1c-0.6-0.6-0.8-1.5-0.8-2.5c0-1,0.3-1.9,0.8-2.5S473.4,318.5,474.4,318.5z M474.3,319.8c-0.4,0-0.7,0.2-1,0.5
			c-0.2,0.4-0.4,0.9-0.4,1.6c0,0.7,0.1,1.2,0.4,1.6c0.3,0.4,0.6,0.5,1,0.5s0.7-0.2,1-0.5c0.2-0.4,0.4-0.9,0.4-1.6
			c0-0.7-0.1-1.2-0.4-1.6C475.1,320,474.7,319.8,474.3,319.8z"/>
	</g>
	<g>
		<path class="st15" d="M266.4,296.4h7.8v-11.4c0-0.3,0.1-0.5,0.3-0.7l1.7-1.7v-12.4c0-1.6-1.4-3.1-2.9-3.1h-6
			c-1.5,0-2.9,1.5-2.9,3.1v12.4l1.7,1.7c0.2,0.2,0.3,0.4,0.3,0.7V296.4z M275.2,298.3h-9.8c-0.5,0-1-0.4-1-1v-12l-1.7-1.7
			c-0.2-0.2-0.3-0.4-0.3-0.7v-12.8c0-2.8,2.2-5.1,4.8-5.1h6c2.6,0,4.8,2.3,4.8,5.1V283c0,0.3-0.1,0.5-0.3,0.7l-1.7,1.7v12
			C276.1,297.9,275.7,298.3,275.2,298.3"/>
		<path class="st15" d="M270.3,254.7c-2.2,0-3.9,1.8-3.9,3.9c0,2.2,1.8,3.9,3.9,3.9c2.2,0,3.9-1.8,3.9-3.9
			C274.2,256.4,272.4,254.7,270.3,254.7 M270.3,264.4c-3.2,0-5.9-2.6-5.9-5.9c0-3.2,2.6-5.9,5.9-5.9c3.2,0,5.9,2.6,5.9,5.9
			C276.1,261.8,273.5,264.4,270.3,264.4"/>
		<path class="st15" d="M285.9,296.4h7.8v-6.8c0-0.5,0.4-1,1-1h2.7l-1.7-9.3l0-9c0-1.6-1.4-3.1-2.9-3.1h-6c-1.5,0-2.9,1.5-2.9,3.1
			v8.8l-1.8,9.5h2.8c0.5,0,1,0.4,1,1L285.9,296.4L285.9,296.4z M294.7,298.3h-9.8c-0.5,0-1-0.4-1-1v-6.8h-3c-0.3,0-0.6-0.1-0.8-0.4
			c-0.2-0.2-0.3-0.5-0.2-0.8l2-10.5l0-8.7c0-2.8,2.2-5.1,4.8-5.1h6c2.6,0,4.8,2.3,4.8,5.1v8.8l1.9,10c0.1,0.1,0.1,0.3,0.1,0.4
			c0,0.5-0.4,1-1,1c0,0,0,0,0,0h-2.9v6.8C295.7,297.9,295.2,298.3,294.7,298.3"/>
		<path class="st15" d="M289.8,254.7c-2.2,0-3.9,1.8-3.9,3.9c0,2.2,1.8,3.9,3.9,3.9c2.2,0,3.9-1.8,3.9-3.9
			C293.7,256.4,292,254.7,289.8,254.7 M289.8,264.4c-3.2,0-5.9-2.6-5.9-5.9c0-3.2,2.6-5.9,5.9-5.9c3.2,0,5.9,2.6,5.9,5.9
			C295.7,261.8,293.1,264.4,289.8,264.4"/>
	</g>
	<g>
		<path class="st14" d="M218.8,579.9c-0.5-0.1-1.1-0.3-1.6-0.5L216,585l-1.1-0.3l2.7-11.8c0.4,0.1,0.9,0.2,1.4,0.2
			c0.5,0.1,1,0.1,1.4,0.2c1.2,0.3,2.1,0.8,2.6,1.5c0.6,0.7,0.7,1.6,0.5,2.7c-0.2,1-0.8,1.7-1.6,2.1C221,580.1,220,580.2,218.8,579.9
			z M218.4,574.5c-0.3,1.1-0.6,2.4-1,3.9c0.5,0.2,0.9,0.4,1.5,0.5c0.8,0.2,1.5,0.1,2.1-0.1c0.6-0.3,1-0.8,1.1-1.5
			c0.2-0.8,0-1.4-0.4-1.9c-0.4-0.5-1-0.9-1.8-1c-0.5-0.1-0.8-0.2-1-0.2c-0.2,0-0.4,0-0.4,0.1C218.5,574.3,218.5,574.4,218.4,574.5z"
			/>
	</g>
	<g>
		<g>
			<path class="st14" d="M224.3,586.7l-1.1-0.2l1.6-8.1l1.1,0.2l-0.2,0.8c0.3-0.3,0.6-0.5,1.1-0.6c0.5-0.1,0.9-0.1,1.3,0
				c0.3,0.1,0.6,0.1,0.9,0.2l-0.2,1.2c-0.4-0.2-0.7-0.3-1-0.4c-0.6-0.1-1.1-0.1-1.5,0.1s-0.7,0.4-0.8,0.9
				C225.3,581.8,224.9,583.8,224.3,586.7z"/>
		</g>
		<g>
			<path class="st14" d="M233,579.7c1.1,0.2,1.9,0.7,2.4,1.6s0.6,2,0.4,3.3c-0.2,1.3-0.7,2.3-1.5,2.9s-1.7,0.9-2.8,0.7
				c-1.1-0.2-1.9-0.7-2.4-1.6c-0.5-0.9-0.7-2-0.4-3.3c0.2-1.3,0.7-2.3,1.5-3C231,579.8,231.9,579.5,233,579.7z M234.4,581.8
				c-0.3-0.7-0.9-1.1-1.6-1.2c-0.7-0.1-1.3,0.1-1.8,0.6c-0.5,0.5-0.9,1.3-1,2.4c-0.2,1.1-0.1,1.9,0.2,2.6c0.3,0.6,0.9,1,1.6,1.2
				s1.3-0.1,1.8-0.5c0.5-0.5,0.9-1.3,1-2.4C234.8,583.3,234.7,582.5,234.4,581.8z"/>
		</g>
		<g>
			<path class="st14" d="M237.4,581.6l0.1-1l1.2,0.2l0.3-1.7l1.2-0.5l-0.3,2.4l2.7,0.4l-0.1,1l-2.7-0.4c-0.1,0.3-0.2,1.1-0.3,2.3
				c-0.2,1.2-0.3,2.2-0.4,3c-0.1,0.8,0.2,1.3,1,1.4c0.6,0.1,1.1,0,1.6-0.2l-0.1,0.9c-0.7,0.2-1.3,0.3-2,0.2c-0.6-0.1-1-0.3-1.3-0.7
				c-0.3-0.4-0.4-0.9-0.3-1.5l0.8-5.5L237.4,581.6z"/>
		</g>
		<g>
			<path class="st14" d="M244.4,585.3l-0.1,0.4c-0.1,1.1,0,2,0.5,2.6c0.5,0.6,1.2,1,2.1,1.1c0.6,0.1,1.2,0,1.6-0.1l-0.1,0.9
				c-0.5,0.1-1.1,0.2-1.8,0.1c-1.3-0.2-2.2-0.6-2.9-1.5c-0.6-0.8-0.9-2-0.7-3.5c0.2-1.3,0.6-2.2,1.4-2.9c0.8-0.7,1.8-1,2.9-0.8
				c1,0.1,1.6,0.5,2,1.1c0.4,0.6,0.5,1.4,0.4,2.4c0,0.2-0.1,0.5-0.2,0.8L244.4,585.3z M244.7,584.4l3.6,0.4c0.2,0,0.3,0,0.4-0.1
				c0.1-0.1,0.1-0.2,0.1-0.3c0.1-0.5,0-0.9-0.3-1.2c-0.3-0.3-0.7-0.5-1.2-0.6c-0.7-0.1-1.3,0-1.7,0.4
				C245.1,583.5,244.9,583.9,244.7,584.4z"/>
		</g>
		<g>
			<path class="st14" d="M252.4,586.6c-0.2,2.2,0.7,3.4,2.5,3.6c0.4,0,0.9,0,1.3,0l-0.1,1c-0.5,0.1-0.9,0.1-1.3,0.1
				c-1.3-0.1-2.2-0.6-2.9-1.4c-0.7-0.8-0.9-1.9-0.8-3.3c0.1-1.3,0.6-2.4,1.3-3.1c0.8-0.7,1.8-1,3.1-0.9c0.4,0,0.8,0.1,1.3,0.2
				l-0.1,1.1c-0.4-0.2-0.9-0.3-1.3-0.3C253.6,583.3,252.6,584.4,252.4,586.6z"/>
		</g>
		<g>
			<path class="st14" d="M259.1,587.2c-0.2,2.3,0.7,3.4,2.6,3.6c0.4,0,0.9,0,1.3-0.1l-0.1,1c-0.5,0.1-0.9,0.1-1.3,0.1
				c-1.3-0.1-2.2-0.5-2.9-1.3c-0.7-0.8-1-1.9-0.9-3.3c0.1-1.3,0.5-2.4,1.3-3.1c0.8-0.7,1.8-1.1,3.1-1c0.4,0,0.8,0.1,1.3,0.2
				l-0.1,1.1c-0.4-0.2-0.9-0.3-1.4-0.3C260.3,583.8,259.3,584.9,259.1,587.2z"/>
		</g>
		<g>
			<path class="st14" d="M265.4,583.4l1.2,0.1c-0.2,2.3-0.3,5-0.4,8.2l-1.1,0L265.4,583.4z M266,580.1c0.2,0,0.4,0.1,0.5,0.2
				c0.1,0.2,0.2,0.3,0.2,0.6c0,0.2-0.1,0.4-0.3,0.6s-0.3,0.2-0.5,0.2c-0.2,0-0.4-0.1-0.6-0.2c-0.1-0.2-0.2-0.3-0.2-0.6
				c0-0.2,0.1-0.4,0.2-0.5C265.6,580.2,265.8,580.1,266,580.1z"/>
		</g>
		<g>
			<path class="st14" d="M272,583.4c1.1,0,2,0.4,2.6,1.3c0.6,0.8,0.9,1.9,0.9,3.2c0,1.3-0.4,2.3-1,3.1s-1.5,1.2-2.6,1.2
				c-1.1,0-1.9-0.4-2.6-1.3c-0.6-0.8-0.9-1.9-0.9-3.2c0-1.3,0.4-2.4,1-3.1C270.1,583.8,271,583.4,272,583.4z M273.7,585.3
				c-0.4-0.6-1-0.9-1.7-0.9c-0.7,0-1.3,0.3-1.7,0.8c-0.4,0.6-0.6,1.4-0.7,2.5c0,1.1,0.2,1.9,0.6,2.5c0.4,0.6,1,0.9,1.7,0.9
				c0.7,0,1.3-0.3,1.7-0.8c0.4-0.6,0.6-1.4,0.7-2.5C274.3,586.7,274.1,585.9,273.7,585.3z M271.9,582.5l-1.1,0
				c0.7-0.7,1.5-1.6,2.3-2.7l1.4,0L271.9,582.5z"/>
		</g>
		<g>
			<path class="st14" d="M280.6,584.5c-0.6,0-1.1,0.1-1.4,0.3c-0.4,0.2-0.6,0.4-0.6,0.7l0,6.5l-1.1,0l-0.1-8c0.6,0,1.2-0.1,1.8-0.2
				c0.6-0.2,1.2-0.2,1.6-0.2c0.8,0,1.5,0.2,2,0.7c0.5,0.4,0.8,1.1,0.8,2.1l0,5.7l-1.1,0l0-5.4c0-0.7-0.2-1.3-0.5-1.6
				C281.8,584.6,281.3,584.5,280.6,584.5z"/>
		</g>
		<g>
			<path class="st14" d="M294,586.3l0-0.6c0-1.1-0.7-1.6-1.9-1.6c-0.8,0-1.5,0.2-2.3,0.6l0-1c0.8-0.4,1.6-0.6,2.4-0.6
				c1.9-0.1,2.9,0.7,3,2.4c0,0.5,0,1.2,0.1,2.2c0,0.9,0,1.6,0.1,2.1c0,0.6,0.1,1.1,0.1,1.6c-0.4,0-1,0.1-1.6,0.2
				c-0.6,0.1-1.1,0.2-1.4,0.2c-0.9,0-1.6-0.2-2.1-0.6c-0.5-0.4-0.8-1-0.8-1.8c0-0.9,0.3-1.6,1.1-2.2
				C291.2,586.7,292.4,586.4,294,586.3z M294,587.2c-1.2,0.1-2.1,0.3-2.6,0.6c-0.5,0.4-0.8,0.9-0.7,1.6c0,0.5,0.2,0.8,0.5,1.1
				c0.3,0.3,0.7,0.4,1.3,0.4c1,0,1.6-0.3,1.6-0.8C294.1,589.8,294.1,588.8,294,587.2z"/>
		</g>
		<g>
			<path class="st14" d="M296.9,578l1.1-0.1c0,0.4,0.1,1.3,0.2,2.9c0.1,1.5,0.2,2.8,0.2,3.8l0.5,6.7l-1.1,0.1L296.9,578z"/>
		</g>
		<g>
			<path class="st14" d="M305.6,586.6c0.2,2.2,1.3,3.3,3.1,3.1c0.4,0,0.8-0.1,1.3-0.3l0.1,1c-0.4,0.2-0.9,0.2-1.3,0.3
				c-1.3,0.1-2.3-0.2-3.1-0.8c-0.8-0.7-1.3-1.7-1.4-3.1c-0.1-1.3,0.1-2.4,0.8-3.3c0.6-0.8,1.6-1.3,2.9-1.5c0.4,0,0.8,0,1.3,0
				l0.1,1.1c-0.4-0.1-0.9-0.1-1.4-0.1C306.2,583.1,305.4,584.4,305.6,586.6z"/>
		</g>
		<g>
			<path class="st14" d="M310.4,576.8l1.1-0.1c0,0.4,0.2,1.3,0.3,2.9c0.2,1.5,0.3,2.8,0.4,3.8l0.8,6.6l-1.1,0.1L310.4,576.8z"/>
		</g>
		<g>
			<path class="st14" d="M314.9,578.1c0.2,0,0.4,0,0.6,0.2c0.2,0.1,0.3,0.3,0.3,0.5c0,0.2,0,0.4-0.1,0.6c-0.1,0.2-0.3,0.3-0.5,0.3
				c-0.2,0-0.4,0-0.6-0.1c-0.2-0.1-0.3-0.3-0.3-0.5c0-0.2,0-0.4,0.2-0.6C314.5,578.3,314.6,578.2,314.9,578.1z M314.8,581.5l1.1-0.2
				c0.3,2.3,0.6,5,1,8.2l-1.1,0.1L314.8,581.5z"/>
		</g>
		<g>
			<path class="st14" d="M319.7,584.5l0.1,0.4c0.2,1.1,0.6,1.9,1.2,2.4c0.6,0.5,1.4,0.7,2.3,0.5c0.6-0.1,1.1-0.3,1.6-0.5l0.1,0.9
				c-0.5,0.3-1,0.4-1.7,0.5c-1.3,0.2-2.3,0-3.2-0.7c-0.8-0.6-1.4-1.7-1.6-3.2c-0.2-1.2,0-2.3,0.6-3.2c0.6-0.9,1.4-1.4,2.5-1.6
				c1-0.1,1.7,0,2.2,0.5c0.5,0.5,0.9,1.2,1,2.2c0,0.2,0.1,0.5,0.1,0.8L319.7,584.5z M319.7,583.5l3.6-0.5c0.2,0,0.3-0.1,0.3-0.1
				c0-0.1,0.1-0.2,0-0.4c-0.1-0.5-0.3-0.8-0.6-1c-0.3-0.2-0.8-0.3-1.3-0.2c-0.7,0.1-1.2,0.4-1.5,0.8
				C319.9,582.5,319.7,583,319.7,583.5z"/>
		</g>
		<g>
			<path class="st14" d="M329.4,580c-0.6,0.1-1,0.3-1.4,0.6c-0.3,0.3-0.5,0.5-0.4,0.8l1.2,6.4l-1.1,0.2l-1.5-7.9
				c0.6-0.1,1.2-0.3,1.7-0.5c0.6-0.3,1.1-0.4,1.6-0.5c0.8-0.1,1.5,0,2.1,0.3c0.6,0.3,1,1,1.2,1.9l1,5.6l-1.1,0.2l-1-5.3
				c-0.1-0.7-0.4-1.2-0.8-1.5C330.6,579.9,330.1,579.8,329.4,580z"/>
		</g>
		<g>
			<path class="st14" d="M334,579.3l-0.2-1l1.2-0.3l-0.4-1.7l0.9-0.9l0.5,2.4l2.7-0.6l0.2,1l-2.7,0.6c0.1,0.3,0.2,1.1,0.5,2.3
				c0.2,1.2,0.4,2.1,0.6,2.9s0.6,1.1,1.4,0.9c0.6-0.1,1.1-0.4,1.5-0.7l0.2,0.9c-0.6,0.4-1.2,0.7-1.8,0.9c-0.6,0.1-1.1,0.1-1.5-0.2
				c-0.4-0.2-0.7-0.7-0.8-1.3l-1.1-5.4L334,579.3z"/>
		</g>
	</g>
	<g>
		<path class="st14" d="M341.9,580.4l0.1,0.4c0.3,1.1,0.7,1.9,1.4,2.3c0.7,0.4,1.4,0.5,2.3,0.3c0.6-0.1,1.1-0.4,1.5-0.7l0.2,0.9
			c-0.4,0.3-1,0.5-1.6,0.7c-1.2,0.3-2.3,0.2-3.2-0.4c-0.9-0.6-1.5-1.6-1.9-3c-0.3-1.2-0.2-2.3,0.3-3.2s1.3-1.5,2.4-1.8
			c0.9-0.2,1.7-0.1,2.3,0.3c0.6,0.5,1,1.1,1.2,2.1c0.1,0.2,0.1,0.5,0.1,0.8L341.9,580.4z M341.8,579.4l3.6-0.8
			c0.2,0,0.3-0.1,0.3-0.2c0-0.1,0-0.2,0-0.4c-0.1-0.5-0.3-0.8-0.7-1c-0.4-0.2-0.8-0.2-1.4-0.1c-0.7,0.2-1.2,0.5-1.5,1
			C341.9,578.4,341.8,578.9,341.8,579.4z"/>
	</g>
	<g>
		<path class="st1" d="M112.1,290c-4.6,0-8.3,3.7-8.3,8.3s3.7,8.3,8.3,8.3s8.3-3.7,8.3-8.3S116.7,290,112.1,290 M113,287.7
			c0.3-2,0.3-4.1,0.4-6.2c-6.8-0.4-12.5-4.2-14.5-5.7c-2,1.5-7.7,5.3-14.5,5.7c0.1,12.8,3.4,17.7,14.5,24.2c1.3-0.8,2.6-1.6,3.9-2.5
			c-0.8-1.5-1.3-3.2-1.3-5c0-5.8,4.7-10.6,10.6-10.6C112.4,287.7,112.7,287.7,113,287.7z M112.1,293.1c-2.8,0-5.1,2.3-5.1,5.1h0.1
			c0.2-1,1.4-0.8,1.6,0.1h0c0.2-1,1.5-1.1,1.9-0.1h0c0.2-0.3,0.4-0.6,0.8-0.7v4.6c0,1-0.7,0.9-0.8,0.2c-0.1-0.4-0.5-0.7-0.9-0.6
			c-0.4,0.1-0.7,0.5-0.6,0.9c0.6,2.3,3.9,2.2,3.9-0.6v-4.6c0.3,0.1,0.6,0.4,0.8,0.7h0c0.2-1,1.5-1.1,1.8,0h0c0.2-0.9,1.4-1,1.6,0
			h0.1C117.2,295.4,115,293.1,112.1,293.1 M104.1,305.2c-1.7,1.2-3.4,2.2-5.2,3.2c-13.9-8-16.8-13.4-16.8-29.1
			c6.6,0,11.8-2.2,16.8-6.4c5.1,4.3,10.2,6.4,16.8,6.4c0,3,0,5.9-0.4,8.9c4.4,1.4,7.5,5.5,7.5,10.1c0,5.8-4.7,10.6-10.6,10.6
			C109,308.9,106.1,307.5,104.1,305.2z"/>
		<path class="st1" d="M268.4,476.3l3.9-3.7c0.7-0.4,1.3-0.7,1.7-1c0.7-0.4,1.1-0.7,1.7-0.8l-3.6,3.6l0.5,0.5
			c0.4,0.4,0.6,0.9,0.6,1.4c0,0.5-0.2,1-0.6,1.4l-0.5,0.5l4.8,4.8l0.5-0.5c0.7-0.7,2.1-0.7,2.8,0l0.5,0.5l16.3-16.3l-0.5-0.5
			c-0.4-0.4-0.6-0.9-0.6-1.4c0-0.5,0.2-1,0.6-1.4l0.5-0.5l-4.8-4.8l-0.5,0.5c-0.7,0.8-2.1,0.8-2.8,0l-0.5-0.5l-7.9,7.6
			c-0.1,0-0.1,0-0.2,0h-1.4l11.4-11.3l10.4,10.4l-21.9,21.9L268.4,476.3z M295,466.7L280.7,481c-1.1-0.7-2.6-0.7-3.7,0l-2.9-2.9
			c0.4-0.6,0.6-1.2,0.5-1.9c0-0.7-0.2-1.3-0.5-1.8l3.7-3.7h6.1V470c0-1.8-0.8-3.1-1.9-3.7l6.4-6.2c1.1,0.7,2.6,0.7,3.7,0l2.9,2.9
			c-0.4,0.5-0.5,1.2-0.6,1.8C294.4,465.5,294.6,466.1,295,466.7 M263.8,471v-8.8c2.5-0.2,4.6-1.6,6.8-3c1.1-0.7,2.3-1.5,3.6-2.1
			c1.2-0.6,3.1-0.6,4.4,0c0.5,0.2,2,1.2,4.3,2.7l-1.9,1.9c-2.6-0.8-3.2-0.8-3.4-0.8c-1.8,0-2.7,1.8-2.8,1.8l1.3,0.6c0,0,0.5-1,1.5-1
			c0.2,0,0.7,0.1,2.3,0.5l-2.9,2.8h-3c-1,0-1.4-1.1-1.4-1.4h-1.4c0,1,1,2.9,2.9,2.9h6.4c0.9,0,1.8,0.8,2.1,2.1h-6.4
			c-1.1,0-1.9,0.5-2.7,1.1c-0.9,0.6-2,1.3-3.9,1.8C267.5,472.6,265.8,472.3,263.8,471 M290.2,452.4l-6.5,6.4c-1.8-1.2-4-2.6-4.6-3
			c-1.6-0.8-4-0.8-5.7,0c-1.3,0.7-2.5,1.5-3.7,2.2c-2.1,1.4-3.9,2.6-6,2.8v-2.1h-5v1.4h3.6v12.1h-3.6v1.4h5v-1.1
			c1.4,0.7,2.7,1.1,4,1.1c0.4,0,0.8,0,1.2-0.1l-2.7,2.6l12.5,12.5l23.9-23.9L290.2,452.4z"/>
		<path class="st1" d="M266.2,122.1c-1.3,0-1.3-2,0-2h12.1c1.3,0,1.3,2,0,2H266.2z M266.2,117.8c-1.3,0-1.3-2,0-2h5.6
			c1.3,0,1.3,2,0,2H266.2z M273.1,109h-9.7v15.9h30.9v-11.7h-20.2c-0.5,0-1-0.4-1-1V109z M273.1,104.2h-9.7v2.9h9.7V104.2z
			 M286,111.2c-0.6-0.4-0.4-1-0.4-1.7c-1.3-0.2-2.1-0.6-3.1-1.4c-1-0.8,0.1-2.3,1.2-1.6c0.9,0.7,1.6,1.1,2.9,1.1
			c1,0,2.3-0.5,2.3-1.3c0-2.2-6.5-0.2-6.5-4.6c0-1.8,1.6-2.9,3.3-3.2c0-0.6-0.1-1.2,0.4-1.5h-10.9v14.3H286z M287.6,110.4
			c0,0.3-0.2,0.6-0.4,0.8h10.8V96.9h-10.8c0.5,0.4,0.4,0.9,0.4,1.5c1.5,0.2,2.3,0.9,3,1.4c1,0.7,0,2.5-1.3,1.5c-2.1-1.7-5-0.8-5,0.4
			c0,2.2,6.5,0.2,6.5,4.6c0,1.7-1.5,2.9-3.2,3.2V110.4z M296.3,113.2v12.7c0,0.5-0.4,1-1,1h-32.8c-0.5,0-1-0.4-1-1v-22.7
			c0-0.5,0.4-1,1-1h10.7V96c0-0.5,0.4-1,1-1h24.8c0.5,0,1,0.4,1,1v16.2c0,0.5-0.4,1-1,1H296.3z"/>
		<path class="st1" d="M472.3,295.6c-0.2,0.6-0.8,1-1.5,0.8c-0.5-0.1-0.9-0.6-0.9-1.1v-0.6h-1.2v0.6c0,1.3,1.1,2.4,2.4,2.4
			c0.3,0,0.6-0.1,0.8-0.2c-0.8,2.8-2.7,5.2-5.3,6.6c-0.2,0.1-0.3,0.3-0.3,0.5v3.1h-4.2v-1.8c0-0.3-0.3-0.6-0.6-0.6h-9.6
			c-0.3,0-0.6,0.3-0.6,0.6v1.8h-4.2v-3.1c0-0.2-0.1-0.4-0.3-0.5c-2.6-1.4-4.5-3.8-5.3-6.6c-0.1-0.3-0.3-0.4-0.6-0.4h-2.2v-3.6h1.9
			c0.3,0,0.5-0.2,0.6-0.5c0.4-2.6,1.8-5,3.8-6.6c0.1-0.1,0.2-0.3,0.2-0.5v-4.3c1.4,0.2,2.6,1.1,3.2,2.4c0.1,0.3,0.4,0.4,0.7,0.3
			c0.8-0.2,1.6-0.3,2.4-0.3c0.4,0.5,0.8,0.8,1.3,1.2h-2.2v1.2h11.9v-1.2h-2.2c0.5-0.3,0.9-0.7,1.3-1.2c5.8,0.2,10.5,4.9,10.5,10.7
			C472.4,295,472.4,295.3,472.3,295.6 M456.9,274.4c3,0,5.4,2.4,5.4,5.4c0,3-2.4,5.4-5.4,5.4c-3,0-5.4-2.4-5.4-5.4
			C451.5,276.8,453.9,274.4,456.9,274.4 M462.7,282.8c1.7-3.2,0.4-7.2-2.8-8.9c-3.2-1.7-7.2-0.4-8.9,2.8c-1,1.9-1,4.2,0,6.1
			c-0.5,0-1,0.1-1.5,0.2c-1-1.6-2.7-2.7-4.6-2.7c-0.3,0-0.6,0.3-0.6,0.6v4.7c-2,1.7-3.4,4.1-3.9,6.7h-2c-0.3,0-0.6,0.3-0.6,0.6v4.8
			c0,0.3,0.3,0.6,0.6,0.6h2.4c0.9,2.8,2.8,5.3,5.4,6.8v3.4c0,0.3,0.3,0.6,0.6,0.6h5.4c0.3,0,0.6-0.3,0.6-0.6v-1.8h8.4v1.8
			c0,0.3,0.3,0.6,0.6,0.6h5.4c0.3,0,0.6-0.3,0.6-0.6v-3.4c3.4-1.9,5.6-5.4,5.9-9.2c0-0.2,0.1-0.3,0.1-0.5v-0.6
			C473.6,288.5,468.8,283.4,462.7,282.8"/>
		<path class="st16" d="M472.3,295.6c-0.2,0.6-0.8,1-1.5,0.8c-0.5-0.1-0.9-0.6-0.9-1.1v-0.6h-1.2v0.6c0,1.3,1.1,2.4,2.4,2.4
			c0.3,0,0.6-0.1,0.8-0.2c-0.8,2.8-2.7,5.2-5.3,6.6c-0.2,0.1-0.3,0.3-0.3,0.5v3.1h-4.2v-1.8c0-0.3-0.3-0.6-0.6-0.6h-9.6
			c-0.3,0-0.6,0.3-0.6,0.6v1.8h-4.2v-3.1c0-0.2-0.1-0.4-0.3-0.5c-2.6-1.4-4.5-3.8-5.3-6.6c-0.1-0.3-0.3-0.4-0.6-0.4h-2.2v-3.6h1.9
			c0.3,0,0.5-0.2,0.6-0.5c0.4-2.6,1.8-5,3.8-6.6c0.1-0.1,0.2-0.3,0.2-0.5v-4.3c1.4,0.2,2.6,1.1,3.2,2.4c0.1,0.3,0.4,0.4,0.7,0.3
			c0.8-0.2,1.6-0.3,2.4-0.3c0.4,0.5,0.8,0.8,1.3,1.2h-2.2v1.2h11.9v-1.2h-2.2c0.5-0.3,0.9-0.7,1.3-1.2c5.8,0.2,10.5,4.9,10.5,10.7
			C472.4,295,472.4,295.3,472.3,295.6z M456.9,274.4c3,0,5.4,2.4,5.4,5.4c0,3-2.4,5.4-5.4,5.4c-3,0-5.4-2.4-5.4-5.4
			C451.5,276.8,453.9,274.4,456.9,274.4z M462.7,282.8c1.7-3.2,0.4-7.2-2.8-8.9c-3.2-1.7-7.2-0.4-8.9,2.8c-1,1.9-1,4.2,0,6.1
			c-0.5,0-1,0.1-1.5,0.2c-1-1.6-2.7-2.7-4.6-2.7c-0.3,0-0.6,0.3-0.6,0.6v4.7c-2,1.7-3.4,4.1-3.9,6.7h-2c-0.3,0-0.6,0.3-0.6,0.6v4.8
			c0,0.3,0.3,0.6,0.6,0.6h2.4c0.9,2.8,2.8,5.3,5.4,6.8v3.4c0,0.3,0.3,0.6,0.6,0.6h5.4c0.3,0,0.6-0.3,0.6-0.6v-1.8h8.4v1.8
			c0,0.3,0.3,0.6,0.6,0.6h5.4c0.3,0,0.6-0.3,0.6-0.6v-3.4c3.4-1.9,5.6-5.4,5.9-9.2c0-0.2,0.1-0.3,0.1-0.5v-0.6
			C473.6,288.5,468.8,283.4,462.7,282.8z"/>
		<path class="st1" d="M456.9,277.4v-1.2c-2,0-3.7,1.7-3.7,3.7h1.2C454.5,278.5,455.6,277.4,456.9,277.4"/>
		<path class="st16" d="M456.9,277.4v-1.2c-2,0-3.7,1.7-3.7,3.7h1.2C454.5,278.5,455.6,277.4,456.9,277.4z"/>
		<path class="st1" d="M456.8,283.5c2,0,3.7-1.6,3.7-3.7h-1.2c0,1.4-1.1,2.5-2.5,2.5V283.5z"/>
		<path class="st16" d="M456.8,283.5c2,0,3.7-1.6,3.7-3.7h-1.2c0,1.4-1.1,2.5-2.5,2.5V283.5z"/>
	</g>
</g>
</svg>
