<?xml version="1.0" encoding="utf-8"?>
<!-- Generator: Adobe Illustrator 25.2.1, SVG Export Plug-In . SVG Version: 6.00 Build 0)  -->
<svg version="1.1" id="Capa_1" xmlns="http://www.w3.org/2000/svg" xmlns:xlink="http://www.w3.org/1999/xlink" x="0px" y="0px"
	 viewBox="0 0 67.8 80" style="enable-background:new 0 0 67.8 80;" xml:space="preserve">
<style type="text/css">
	.st0{fill:#FFFFFF;}
	.st1{fill:#354765;}
	.st2{fill:#AAACBE;}
	.st3{fill:#515C79;}
	.st4{fill:#81869E;}
	.st5{fill:#71A950;}
	.st6{fill:#344768;}
	.st7{fill:none;stroke:#344768;stroke-width:0.273;stroke-miterlimit:10;}
</style>
<g>
	<g>
		<path class="st0" d="M33.9,61.3c16.2,0,29.4-13.1,29.4-29.4c0-16.2-13.1-29.4-29.4-29.4S4.6,15.7,4.6,31.9
			C4.6,48.1,17.7,61.3,33.9,61.3"/>
		<path class="st1" d="M27,10c-0.1,0.1-0.3,0.2-0.6,0.3c-0.7,0.2-1.2,0-1.5-0.7c-0.2-0.6,0-1.3,0.8-1.5L26.3,8l0,0.4L26,8.5
			c-0.4,0.1-0.5,0.5-0.4,0.9c0.2,0.4,0.5,0.6,0.9,0.4l0.4-0.2L27,10z"/>
		<path class="st1" d="M29.1,8.4c0.2,0.8-0.3,1.3-0.8,1.4c-0.6,0.2-1.2-0.1-1.4-0.8c-0.2-0.7,0.2-1.3,0.8-1.4
			C28.4,7.4,29,7.7,29.1,8.4 M27.5,8.8c0.1,0.4,0.4,0.7,0.7,0.6c0.3-0.1,0.4-0.4,0.3-0.9c-0.1-0.3-0.3-0.7-0.7-0.6
			C27.5,8,27.4,8.4,27.5,8.8"/>
		<path class="st1" d="M30,6.5l0.1,0.6L30.6,7l0.1,0.4l-0.5,0.1l0.2,1c0,0.3,0.1,0.4,0.3,0.4l0.2-0.1l0.1,0.4l-0.4,0.1
			c-0.2,0-0.4,0-0.5-0.1c-0.1-0.1-0.2-0.3-0.3-0.6l-0.2-1l-0.3,0.1l-0.1-0.4l0.3,0l-0.1-0.4L30,6.5z"/>
	</g>
	<path class="st1" d="M31.6,6.3l-0.3,0.3L31,6.4L31.3,6L31.6,6.3z M31.3,9.2L31.1,7l0.6-0.1l0.2,2.2L31.3,9.2z"/>
	<polygon class="st1" points="32.2,8.8 33,7.7 33.3,7.3 33.3,7.3 32.2,7.3 32.2,6.9 34,6.8 34,7.1 33.2,8.2 32.9,8.6 32.9,8.6 
		34.1,8.6 34.1,9 32.2,9.1 	"/>
	<g>
		<path class="st1" d="M36.2,8.6c0,0.2,0,0.4,0,0.5l-0.5,0l0-0.2l0,0C35.5,9,35.3,9.1,35,9.1c-0.4,0-0.7-0.4-0.7-0.7
			c0-0.6,0.5-0.8,1.4-0.8l0,0c0-0.1,0-0.4-0.4-0.4c-0.2,0-0.5,0-0.6,0.1L34.6,7c0.2-0.1,0.5-0.2,0.8-0.2c0.7,0,0.9,0.5,0.9,1
			L36.2,8.6z M35.7,8c-0.4,0-0.8,0-0.8,0.4c0,0.2,0.1,0.3,0.3,0.3c0.2,0,0.4-0.1,0.5-0.3l0-0.1L35.7,8z"/>
		<path class="st1" d="M38.1,8.5c-0.1,0.4,0.2,0.6,0.6,0.7c0.3,0,0.4,0,0.6,0l0,0.4c-0.2,0-0.5,0.1-0.8,0c-0.7-0.1-1-0.7-0.9-1.3
			c0.1-0.6,0.6-1.1,1.3-1c0.7,0.1,0.8,0.8,0.7,1.2l-0.1,0.2L38.1,8.5z M39.2,8.3c0-0.2,0-0.6-0.3-0.6c-0.3-0.1-0.5,0.2-0.6,0.4
			L39.2,8.3z"/>
		<path class="st1" d="M40.2,8.3c0.1-0.2,0.1-0.5,0.2-0.6l0.5,0.1l-0.1,0.3l0,0C41,8,41.3,7.9,41.6,8c0.4,0.1,0.7,0.5,0.5,1.1
			l-0.4,1.3l-0.5-0.2L41.5,9c0.1-0.3,0.1-0.6-0.2-0.7c-0.2-0.1-0.4,0-0.5,0.2l-0.1,0.2l-0.4,1.3l-0.5-0.2L40.2,8.3z"/>
		<path class="st2" d="M27.9,38.3V26.1H15.7c0,3.4,2.8,6,6.2,6c-3.4,0-6.2,2.8-6.2,6.1H27.9z"/>
		<path class="st3" d="M40,38.3V26.1h12.2c0,3.4-2.8,6-6.2,6c3.4,0,6.2,2.8,6.2,6.1H40z"/>
		<path class="st4" d="M40,38.3H27.9v12.2c3.4,0,6-2.8,6-6.2c0,3.4,2.8,6.2,6.1,6.2V38.3z"/>
		<path class="st1" d="M40.1,26.1l-6.1,6l-6-6V14.2c3.4,0,6,4.3,6,7.6c0-3.4,2.8-7.6,6.1-7.6V26.1z"/>
		<path class="st5" d="M33.9,18.1c0.5-1.9,2-3.5,4-4.1h-8.1C31.8,14.7,33.4,16.2,33.9,18.1"/>
		<path class="st6" d="M33.9,60.6c-15.7,0-28.4-12.8-28.4-28.4c0-15.7,12.8-28.4,28.4-28.4c15.7,0,28.4,12.8,28.4,28.4
			C62.4,47.8,49.6,60.6,33.9,60.6 M33.9,3.9C18.3,3.9,5.7,16.5,5.7,32.1c0,15.6,12.7,28.3,28.3,28.3c15.6,0,28.3-12.7,28.3-28.3
			C62.2,16.5,49.5,3.9,33.9,3.9"/>
		<path class="st0" d="M33.9,60.6c-15.7,0-28.4-12.8-28.4-28.4c0-15.7,12.8-28.4,28.4-28.4c15.7,0,28.4,12.8,28.4,28.4
			C62.4,47.8,49.6,60.6,33.9,60.6 M33.9,3.9C18.3,3.9,5.7,16.5,5.7,32.1c0,15.6,12.7,28.3,28.3,28.3c15.6,0,28.3-12.7,28.3-28.3
			C62.2,16.5,49.5,3.9,33.9,3.9"/>
		<path class="st7" d="M33.9,60.6c-15.7,0-28.4-12.8-28.4-28.4c0-15.7,12.8-28.4,28.4-28.4c15.7,0,28.4,12.8,28.4,28.4
			C62.4,47.8,49.6,60.6,33.9,60.6 M33.9,3.9C18.3,3.9,5.7,16.5,5.7,32.1c0,15.6,12.7,28.3,28.3,28.3c15.6,0,28.3-12.7,28.3-28.3
			C62.2,16.5,49.5,3.9,33.9,3.9z"/>
		<path class="st1" d="M20.2,49.8c0.2,0.1,0.5,0.3,0.8,0.5c0.4,0.3,0.6,0.5,0.7,0.7c0.1,0.2,0.1,0.5-0.1,0.7
			c-0.2,0.3-0.5,0.4-0.9,0.3l0,0c0.2,0.3,0.3,0.7,0.1,1.1c-0.2,0.3-0.4,0.4-0.7,0.4c-0.3,0-0.7-0.1-1.2-0.5
			c-0.3-0.2-0.5-0.4-0.6-0.5L20.2,49.8z M19,52.5l0.3,0.2c0.3,0.2,0.7,0.3,1,0c0.2-0.3,0-0.7-0.3-0.9l-0.3-0.2L19,52.5z M19.9,51.2
			l0.3,0.2c0.4,0.3,0.7,0.2,0.8,0c0.2-0.3,0.1-0.5-0.3-0.8l-0.3-0.2L19.9,51.2z"/>
		<path class="st1" d="M23.6,54.3c-0.4,0.8-1.2,0.9-1.7,0.6c-0.6-0.3-0.9-1-0.5-1.7c0.4-0.7,1.1-0.9,1.7-0.6
			C23.7,53,23.9,53.6,23.6,54.3 M21.9,53.5c-0.2,0.4-0.2,0.9,0.2,1c0.3,0.2,0.7,0,0.9-0.5c0.2-0.3,0.2-0.8-0.1-1
			C22.5,52.8,22.1,53.1,21.9,53.5"/>
	</g>
	
		<rect x="22.8" y="53.8" transform="matrix(0.3887 -0.9214 0.9214 0.3887 -34.8341 55.8174)" class="st1" width="3.6" height="0.6"/>
	<g>
		<path class="st1" d="M25.2,55.7c0.1,0.1,0.3,0.3,0.5,0.4c0.3,0.1,0.4,0,0.5-0.1c0.1-0.2,0-0.3-0.3-0.5c-0.4-0.3-0.5-0.6-0.4-0.9
			c0.1-0.4,0.6-0.6,1.1-0.4c0.3,0.1,0.5,0.2,0.6,0.3L27,54.9c-0.1-0.1-0.2-0.2-0.5-0.3c-0.2-0.1-0.4,0-0.4,0.1
			c-0.1,0.1,0,0.3,0.3,0.5c0.4,0.3,0.5,0.6,0.4,0.9c-0.1,0.4-0.6,0.6-1.2,0.4c-0.3-0.1-0.5-0.2-0.7-0.4L25.2,55.7z"/>
		<path class="st1" d="M29.3,56.8c0,0.2-0.1,0.4-0.1,0.6l-0.5-0.1l0-0.3l0,0c-0.2,0.2-0.5,0.2-0.8,0.2c-0.5-0.1-0.7-0.5-0.6-0.9
			c0.1-0.6,0.7-0.8,1.6-0.6l0,0c0-0.2,0-0.4-0.4-0.5c-0.2,0-0.5,0-0.7,0l0-0.4c0.2-0.1,0.5-0.1,0.9,0c0.8,0.2,0.9,0.7,0.8,1.2
			L29.3,56.8z M28.8,56.1C28.4,56,28,56,27.9,56.4c-0.1,0.2,0.1,0.4,0.3,0.4c0.2,0.1,0.5-0.1,0.6-0.2l0-0.1L28.8,56.1z"/>
		<path class="st1" d="M34.2,56.5c0-0.4,0-1,0-1.4l0,0c-0.1,0.4-0.3,0.9-0.5,1.3l-0.6,1.5l-0.5,0l-0.4-1.5c-0.1-0.4-0.2-0.9-0.3-1.3
			h0c0,0.4-0.1,1-0.1,1.5l-0.1,1.4l-0.6,0l0.4-3.4l0.8,0l0.4,1.4c0.1,0.4,0.2,0.8,0.3,1.2h0c0.1-0.4,0.2-0.8,0.4-1.2l0.5-1.4l0.8,0
			l0.1,3.4l-0.6,0L34.2,56.5z"/>
		<path class="st1" d="M36.2,56.7c0.1,0.4,0.4,0.6,0.8,0.6c0.3,0,0.5-0.1,0.7-0.2l0.1,0.4c-0.2,0.1-0.5,0.2-0.8,0.3
			c-0.8,0.1-1.3-0.3-1.4-1.1c-0.1-0.7,0.3-1.4,1.1-1.5c0.8-0.1,1.1,0.5,1.2,1.1l0,0.3L36.2,56.7z M37.2,56.1c0-0.2-0.2-0.6-0.6-0.5
			c-0.4,0-0.5,0.4-0.5,0.7L37.2,56.1z"/>
	</g>
	<polygon class="st1" points="38.5,54.9 38.9,55.3 39.2,55.6 39.2,55.6 39.3,55.2 39.5,54.7 40.2,54.5 39.6,55.9 40.7,56.9 40,57.1 
		39.6,56.7 39.3,56.3 39.3,56.4 39.2,56.8 39,57.3 38.4,57.5 38.9,56.1 37.8,55.1 	"/>
	<g>
		<path class="st1" d="M41,53.6c0.1,0.2,0,0.4-0.2,0.4l-0.4-0.2l0.2-0.4C40.7,53.3,40.9,53.4,41,53.6 M41.3,56.8l-0.7-2.4l0.6-0.2
			l0.7,2.4L41.3,56.8z"/>
		<path class="st1" d="M44.3,55.6c-0.1,0.1-0.3,0.3-0.6,0.4c-0.7,0.3-1.4,0-1.7-0.7c-0.3-0.7,0-1.4,0.8-1.7c0.2-0.1,0.4-0.1,0.6-0.1
			l0.1,0.5c-0.1,0-0.3,0-0.5,0.1c-0.4,0.2-0.6,0.6-0.4,1c0.2,0.5,0.6,0.6,1,0.5l0.4-0.3L44.3,55.6z"/>
		<path class="st1" d="M46.4,53.9l0.3,0.5l-0.5,0.3l-0.2-0.2l0,0c0,0.2-0.2,0.5-0.5,0.6c-0.4,0.2-0.9,0-1-0.3
			c-0.3-0.6,0.1-1.1,0.9-1.5l0,0c-0.1-0.1-0.3-0.4-0.6-0.2c-0.2,0.1-0.4,0.3-0.5,0.5l-0.3-0.3c0.1-0.2,0.3-0.4,0.7-0.6
			c0.7-0.4,1.1,0,1.4,0.5L46.4,53.9z M45.6,53.7c-0.4,0.2-0.7,0.5-0.6,0.8c0.1,0.2,0.3,0.2,0.5,0.2c0.2-0.1,0.3-0.3,0.3-0.5L45.8,54
			L45.6,53.7z"/>
		<path class="st1" d="M46.5,52.5c-0.2-0.2-0.3-0.4-0.4-0.6l0.4-0.3l0.2,0.3l0,0c0-0.2,0.1-0.6,0.4-0.8c0.4-0.2,0.9-0.3,1.3,0.4
			l0.8,1.2l-0.5,0.4l-0.8-1.2c-0.2-0.3-0.5-0.4-0.7-0.3c-0.2,0.1-0.2,0.4-0.2,0.6l0.1,0.2l0.8,1.2L47.5,54L46.5,52.5z"/>
		<path class="st1" d="M51.2,50.4l0.4,0.4l-0.4,0.4l-0.2-0.2l0,0c0,0.2-0.1,0.5-0.3,0.7c-0.4,0.3-0.8,0.2-1.1,0
			c-0.4-0.5-0.2-1.1,0.5-1.7l0,0c-0.1-0.1-0.3-0.3-0.7,0l-0.4,0.6l-0.4-0.2c0.1-0.2,0.2-0.5,0.5-0.8c0.6-0.5,1.1-0.3,1.5,0.1
			L51.2,50.4z M50.3,50.4c-0.3,0.3-0.6,0.6-0.3,0.9l0.5,0l0.1-0.6l-0.1-0.1L50.3,50.4z"/>
	</g>
	<polygon class="st0" points="5.6,77.1 5.4,77.3 5.6,77.5 62.2,77.5 62.4,77.3 62.2,77.1 	"/>
	<g>
		<path class="st0" d="M14.4,74.2C14,74.4,13,74.7,12,74.7c-1.2,0-2.2-0.3-3-1.1c-0.7-0.7-1.1-1.8-1.1-3.2c0-2.5,1.7-4.4,4.3-4.4
			c0.9,0,1.7,0.2,2,0.4l-0.3,0.9c-0.4-0.2-1-0.4-1.8-0.4c-2,0-3.2,1.3-3.2,3.4c0,2.2,1.2,3.4,3.1,3.4c0.7,0,1.1-0.1,1.4-0.2V71h-1.6
			v-0.9h2.6V74.2z"/>
	</g>
	<polygon class="st0" points="21.1,70.6 18,70.6 18,73.7 21.5,73.7 21.5,74.6 17,74.6 17,66.1 21.3,66.1 21.3,67 18,67 18,69.7 
		21.1,69.7 	"/>
	<g>
		<path class="st0" d="M23.8,74.6v-8.5h1.1l2.6,4.3c0.6,1,1.1,1.9,1.4,2.8l0,0c-0.1-1.1-0.1-2.2-0.1-3.5v-3.6h1v8.5h-1l-2.5-4.3
			c-0.6-0.9-1.1-1.9-1.5-2.8l0,0c0.1,1.1,0.1,2.1,0.1,3.5v3.6H23.8z"/>
	</g>
	<polygon class="st0" points="34.1,67 31.7,67 31.7,66.1 37.6,66.1 37.6,67 35.1,67 35.1,74.6 34.1,74.6 	"/>
	<polygon class="st0" points="43.6,70.6 40.5,70.6 40.5,73.7 44,73.7 44,74.6 39.5,74.6 39.5,66.1 43.8,66.1 43.8,67 40.5,67 
		40.5,69.7 43.6,69.7 	"/>
	<g>
		<path class="st0" d="M46.3,66.2c0.5-0.1,1.3-0.2,2-0.2c1.1,0,1.8,0.2,2.3,0.7c0.4,0.4,0.6,1,0.6,1.6c0,1.1-0.7,1.9-1.5,2.2v0
			c0.6,0.2,1,0.8,1.2,1.7c0.3,1.2,0.5,2,0.6,2.3h-1.1c-0.1-0.2-0.3-1-0.5-2c-0.2-1.2-0.7-1.6-1.6-1.7h-1v3.7h-1V66.2z M47.3,70.1
			h1.1c1.1,0,1.8-0.6,1.8-1.6c0-1.1-0.7-1.6-1.8-1.6c-0.5,0-0.9,0.1-1,0.1V70.1z"/>
		<path class="st0" d="M55,71.9l-0.8,2.7h-1.1l2.7-8.5h1.2l2.7,8.5h-1.1l-0.9-2.7H55z M57.6,71.1l-0.8-2.4c-0.2-0.6-0.3-1.1-0.4-1.6
			h0c-0.1,0.5-0.2,1-0.4,1.5l-0.8,2.5H57.6z"/>
	</g>
</g>
</svg>
