<?xml version="1.0" encoding="utf-8"?>
<!-- Generator: Adobe Illustrator 25.2.1, SVG Export Plug-In . SVG Version: 6.00 Build 0)  -->
<svg version="1.1" id="Capa_1" xmlns="http://www.w3.org/2000/svg" xmlns:xlink="http://www.w3.org/1999/xlink" x="0px" y="0px"
	 viewBox="0 0 300 300" style="enable-background:new 0 0 300 300;" xml:space="preserve">
<style type="text/css">
	.st0{fill:#1D546C;}
	.st1{fill:#62686F;}
</style>
<g>
	<path class="st0" d="M253.6,255.7c-58.3,50.7-146.9,44.5-197.6-13.8S11.5,95,69.8,44.3C128.1-6.4,216.7-0.2,267.4,58.1l-3.9,3.4
		C214.7,5.3,129.3-0.7,73.1,48.2C17,97,11,182.4,59.8,238.5c48.8,56.2,134.2,62.1,190.4,13.3L253.6,255.7z"/>
	<path class="st1" d="M45,150.6C45,86.3,97.3,34,161.7,34c64.3,0,116.7,52.3,116.7,116.7S226,267.3,161.7,267.3
		C97.3,267.3,45,215,45,150.6 M272.8,150.6c0-61.3-49.9-111.1-111.1-111.1c-61.3,0-111.1,49.9-111.1,111.1s49.9,111.1,111.1,111.1
		C222.9,261.8,272.8,211.9,272.8,150.6"/>
	<path class="st0" d="M224.2,212.1h-125v-28.2h42.6v11.3c0,1.6,1.3,2.8,2.8,2.8h34.1c1.6,0,2.8-1.3,2.8-2.8v-11.3h42.6V212.1z
		 M161.7,121.8v33.9c0,1.6,1.3,2.8,2.8,2.8s2.8-1.3,2.8-2.8v-33.9h43.2l12.9,56.4h-44.7c-1.6,0-2.8,1.3-2.8,2.8v11.3h-28.4V181
		c0-1.6-1.3-2.8-2.8-2.8H99.9l5.8-25.4h24.7c1.6,0,2.8-1.3,2.8-2.8c0-1.6-1.3-2.8-2.8-2.8H107l2.6-11.3h32.2c1.6,0,2.8-1.3,2.8-2.8
		s-1.3-2.8-2.8-2.8h-30.9l1.9-8.5H161.7z M215.6,118.3c-0.3-1.3-1.4-2.2-2.8-2.2h-45.5v-23l6.3,7.8c0.6,0.7,1.4,1.1,2.2,1.1
		c2.3,0,3.7-2.7,2.2-4.6l-11.4-14.1c-1.1-1.4-3.3-1.4-4.4,0l-11.4,14.1c-1,1.2-0.8,3,0.4,4c1.2,1,3,0.8,4-0.4l6.3-7.8v23h-51.1
		c-1.3,0-2.5,0.9-2.8,2.2c-15.2,66.3-14.3,62.2-14.3,62.7v33.9c0,1.6,1.3,2.8,2.8,2.8H227c1.6,0,2.8-1.3,2.8-2.8c0-37,0-33.6,0-33.9
		C229.9,180.5,230.8,184.7,215.6,118.3"/>
</g>
</svg>
