<?xml version="1.0" encoding="utf-8"?>
<!-- Generator: Adobe Illustrator 25.2.1, SVG Export Plug-In . SVG Version: 6.00 Build 0)  -->
<svg version="1.1" id="Capa_1" xmlns="http://www.w3.org/2000/svg" xmlns:xlink="http://www.w3.org/1999/xlink" x="0px" y="0px"
	 viewBox="0 0 300 300" style="enable-background:new 0 0 300 300;" xml:space="preserve">
<style type="text/css">
	.st0{fill:#1D546C;}
	.st1{fill:#62686F;}
	.st2{fill:none;stroke:#FFFFFF;stroke-width:0.5;stroke-miterlimit:10;}
</style>
<g>
	<path class="st0" d="M27.5,226.7c-37.4-67.6-12.9-153,54.6-190.4S235,23.4,272.5,90.9c37.4,67.5,12.9,152.9-54.6,190.4l-2.5-4.5
		C280.5,240.7,304,158.4,268,93.4C231.9,28.3,149.7,4.7,84.6,40.8C19.5,76.8-4,159.1,32,224.2L27.5,226.7z"/>
	<path class="st1" d="M33.3,159.4C33.3,95.1,85.7,42.8,150,42.8s116.6,52.3,116.6,116.6S214.3,276,150,276
		C85.7,276.1,33.3,223.7,33.3,159.4 M261.1,159.4c0-61.3-49.8-111.1-111.1-111.1S38.9,98.1,38.9,159.4S88.7,270.5,150,270.5
		S261.1,220.7,261.1,159.4"/>
	<path class="st0" d="M150,134.6c-4.3,0-7.9-3.8-7.9-8.4c0-4.6,3.5-8.4,7.9-8.4c4.3,0,7.9,3.8,7.9,8.4
		C157.9,130.8,154.3,134.6,150,134.6 M150,158.9h0.9c2,0,3.7-1.7,3.7-3.9s-1.6-3.9-3.7-3.9H150c-12.9,0-23.4-11.1-23.4-24.9
		s10.5-24.9,23.4-24.9s23.4,11.1,23.4,24.9v6.7c-0.1,2.4-2.1,4.2-4.3,4.1c-2.1-0.1-3.7-1.9-3.8-4.1v-6.7c0.1-9-6.7-16.3-15.2-16.3
		c-8.4-0.1-15.3,7.2-15.4,16.1c-0.1,9,6.7,16.3,15.2,16.3c3.4,0,6.8-1.2,9.5-3.4c3.1,5.9,10,7.9,15.5,4.7c3.6-2.2,5.9-6.3,5.8-10.7
		v-6.7c0-18.1-13.8-32.7-30.7-32.7s-30.7,14.6-30.7,32.7S133,158.9,150,158.9 M102.6,143l-10.4-7.8l10.4-9.4V143z M112.9,84.8h75
		c1.6,0,2.9,1.4,2.9,3.1v60.5l-40.4,30.5L110,148.4V87.9C110,86.2,111.3,84.9,112.9,84.8 M208.1,135.5l-10,7.5v-16.5L208.1,135.5z
		 M204.5,215.2h-109c-3.1,0-5.6-2.7-5.6-6v-66.3l41.8,31.5L102,198.6c-1.6,1.3-1.9,3.7-0.7,5.5c1.2,1.7,3.5,2.1,5.1,0.8l31.6-25.7
		l10.3,7.8c1.3,1,3,1,4.2,0l10.3-7.8l31.6,25.7c1.6,1.3,3.9,0.9,5.1-0.8c1.2-1.7,0.9-4.2-0.7-5.5l-29.6-24.1l41.1-30.9v65.7
		C210.1,212.5,207.6,215.2,204.5,215.2L204.5,215.2z M95.5,223h109.1c7.1,0,12.9-6.2,12.9-13.8v-73.7c0-1.1-0.5-2.2-1.3-3
		l-18.1-16.2V87.9c0-6-4.6-10.9-10.3-10.9h-75c-5.7,0-10.3,4.9-10.3,10.9v27.7l-18.8,16.8c-0.8,0.7-1.3,1.8-1.3,3v73.7
		C82.5,216.8,88.3,223,95.5,223"/>
	<path class="st2" d="M150,134.6c-4.3,0-7.9-3.8-7.9-8.4c0-4.6,3.5-8.4,7.9-8.4c4.3,0,7.9,3.8,7.9,8.4
		C157.9,130.8,154.3,134.6,150,134.6z M150,158.9h0.9c2,0,3.7-1.7,3.7-3.9s-1.6-3.9-3.7-3.9H150c-12.9,0-23.4-11.1-23.4-24.9
		s10.5-24.9,23.4-24.9s23.4,11.1,23.4,24.9v6.7c-0.1,2.4-2.1,4.2-4.3,4.1c-2.1-0.1-3.7-1.9-3.8-4.1v-6.7c0.1-9-6.7-16.3-15.2-16.3
		c-8.4-0.1-15.3,7.2-15.4,16.1c-0.1,9,6.7,16.3,15.2,16.3c3.4,0,6.8-1.2,9.5-3.4c3.1,5.9,10,7.9,15.5,4.7c3.6-2.2,5.9-6.3,5.8-10.7
		v-6.7c0-18.1-13.8-32.7-30.7-32.7s-30.7,14.6-30.7,32.7S133,158.9,150,158.9z M102.6,143l-10.4-7.8l10.4-9.4V143z M112.9,84.8h75
		c1.6,0,2.9,1.4,2.9,3.1v60.5l-40.4,30.5L110,148.4V87.9C110,86.2,111.3,84.9,112.9,84.8z M208.1,135.5l-10,7.5v-16.5L208.1,135.5z
		 M204.5,215.2h-109c-3.1,0-5.6-2.7-5.6-6v-66.3l41.8,31.5L102,198.6c-1.6,1.3-1.9,3.7-0.7,5.5c1.2,1.7,3.5,2.1,5.1,0.8l31.6-25.7
		l10.3,7.8c1.3,1,3,1,4.2,0l10.3-7.8l31.6,25.7c1.6,1.3,3.9,0.9,5.1-0.8c1.2-1.7,0.9-4.2-0.7-5.5l-29.6-24.1l41.1-30.9v65.7
		C210.1,212.5,207.6,215.2,204.5,215.2L204.5,215.2z M95.5,223h109.1c7.1,0,12.9-6.2,12.9-13.8v-73.7c0-1.1-0.5-2.2-1.3-3
		l-18.1-16.2V87.9c0-6-4.6-10.9-10.3-10.9h-75c-5.7,0-10.3,4.9-10.3,10.9v27.7l-18.8,16.8c-0.8,0.7-1.3,1.8-1.3,3v73.7
		C82.5,216.8,88.3,223,95.5,223z"/>
</g>
</svg>
