<?xml version="1.0" encoding="utf-8"?>
<!-- Generator: Adobe Illustrator 25.2.1, SVG Export Plug-In . SVG Version: 6.00 Build 0)  -->
<svg version="1.1" id="Capa_1" xmlns="http://www.w3.org/2000/svg" xmlns:xlink="http://www.w3.org/1999/xlink" x="0px" y="0px"
	 viewBox="0 0 300 300" style="enable-background:new 0 0 300 300;" xml:space="preserve">
<style type="text/css">
	.st0{fill:#1D546C;}
	.st1{fill:#62686F;}
	.st2{fill:none;stroke:#FFFFFF;stroke-width:0.25;stroke-miterlimit:10;}
</style>
<g>
	<path class="st0" d="M129.9,11.4c76.4-10.8,147.5,42.8,158.1,119.2c10.8,76.4-42.8,147.5-119.2,158.1
		C92.4,299.4,21.3,245.8,10.7,169.4l5-0.8C26,242.2,94.3,293.9,168.2,283.3c73.6-10.3,125.3-78.6,114.7-152.5
		C272.4,56.9,204.3,5.6,130.4,16.1L129.9,11.4z"/>
	<path class="st1" d="M32.6,150.8c0-64.4,52.2-116.7,116.7-116.7S266,86.4,266,150.8s-52.2,116.7-116.7,116.7
		C84.9,267.5,32.6,215,32.6,150.8 M260.4,150.8c0-61.4-49.7-111.1-111.1-111.1S38.2,89.4,38.2,150.8s49.7,111.1,111.1,111.1
		C210.4,261.9,260.4,211.9,260.4,150.8"/>
	<path class="st0" d="M197.1,154.7H196c-1.9-0.6-3.1-2.8-2.5-4.7c3.6-11.1,0.6-23.1-7.8-31.1c-8.3-8.3-20.6-11.1-31.7-7.5
		c-1.9,0.6-3.9-0.3-4.7-2.2c-0.8-1.9,0.3-4.2,2.5-5l0,0c20-6.7,41.9,3.9,48.6,23.9c2.5,7.8,2.8,16.1,0.3,23.9
		C200.1,153.6,198.7,154.7,197.1,154.7"/>
	<path class="st2" d="M197.1,154.7H196c-1.9-0.6-3.1-2.8-2.5-4.7c3.6-11.1,0.6-23.1-7.8-31.1c-8.3-8.3-20.6-11.1-31.7-7.5
		c-1.9,0.6-3.9-0.3-4.7-2.2c-0.8-1.9,0.3-4.2,2.5-5l0,0c20-6.7,41.9,3.9,48.6,23.9c2.5,7.8,2.8,16.1,0.3,23.9
		C200.1,153.6,198.7,154.7,197.1,154.7z"/>
	<path class="st0" d="M215.7,155.8h-0.8c-1.9-0.3-3.3-2.2-2.8-4.2c0,0,0,0,0-0.3c3.1-16.4-2.2-33.1-13.9-45
		c-11.9-11.1-28.6-15.8-44.4-12.2c-1.9,0.6-3.9-0.6-4.4-2.5c0,0,0,0,0-0.3c-0.6-1.9,0.6-3.9,2.5-4.4c0,0,0,0,0.3,0
		c18.3-4.2,37.8,1.1,51.4,14.2c13.6,13.6,19.4,33.1,15.8,51.9C218.7,154.7,217.4,155.8,215.7,155.8"/>
	<path class="st2" d="M215.7,155.8h-0.8c-1.9-0.3-3.3-2.2-2.8-4.2c0,0,0,0,0-0.3c3.1-16.4-2.2-33.1-13.9-45
		c-11.9-11.1-28.6-15.8-44.4-12.2c-1.9,0.6-3.9-0.6-4.4-2.5c0,0,0,0,0-0.3c-0.6-1.9,0.6-3.9,2.5-4.4c0,0,0,0,0.3,0
		c18.3-4.2,37.8,1.1,51.4,14.2c13.6,13.6,19.4,33.1,15.8,51.9C218.7,154.7,217.4,155.8,215.7,155.8z"/>
	<path class="st0" d="M111,90.6c-8.1,1.4-15.3,5.8-20,12.2c-4.7,6.9-5.3,15.6-1.7,26.4c7.5,22.2,39.2,80.8,92.5,80.8
		c4.7,0,9.7-0.3,14.4-1.4c9.7-1.9,13.3-12.5,13.6-19.2l-28.3-16.7l-14.7,15.6c-1.1,1.1-2.5,1.4-3.9,1.1
		c-24.2-8.9-43.3-28.3-51.7-52.8c-0.3-1.4,0-2.8,1.1-3.9l13.9-14.4L111,90.6z M182.4,217.5c-51.9,0-88.6-50.8-100-86.1
		c-4.4-12.8-3.6-23.9,2.5-32.8c6.1-8.9,21.1-15.3,28.1-15.8c1.4,0,2.8,0.6,3.3,1.9l18.1,32.5c0.8,1.4,0.6,3.3-0.6,4.4l-14.4,14.7
		c7.8,20.3,23.3,36.7,43.6,45l15-15.8c1.4-1.1,3.1-1.4,4.7-0.6l32.8,19.2c1.1,0.6,1.7,1.7,1.7,2.8c1.1,10-4.4,25.8-19.2,28.9
		C192.9,216.9,187.6,217.5,182.4,217.5"/>
	<path class="st2" d="M111,90.6c-8.1,1.4-15.3,5.8-20,12.2c-4.7,6.9-5.3,15.6-1.7,26.4c7.5,22.2,39.2,80.8,92.5,80.8
		c4.7,0,9.7-0.3,14.4-1.4c9.7-1.9,13.3-12.5,13.6-19.2l-28.3-16.7l-14.7,15.6c-1.1,1.1-2.5,1.4-3.9,1.1
		c-24.2-8.9-43.3-28.3-51.7-52.8c-0.3-1.4,0-2.8,1.1-3.9l13.9-14.4L111,90.6z M182.4,217.5c-51.9,0-88.6-50.8-100-86.1
		c-4.4-12.8-3.6-23.9,2.5-32.8c6.1-8.9,21.1-15.3,28.1-15.8c1.4,0,2.8,0.6,3.3,1.9l18.1,32.5c0.8,1.4,0.6,3.3-0.6,4.4l-14.4,14.7
		c7.8,20.3,23.3,36.7,43.6,45l15-15.8c1.4-1.1,3.1-1.4,4.7-0.6l32.8,19.2c1.1,0.6,1.7,1.7,1.7,2.8c1.1,10-4.4,25.8-19.2,28.9
		C192.9,216.9,187.6,217.5,182.4,217.5z"/>
</g>
</svg>
