<?xml version="1.0" encoding="utf-8"?>
<!-- Generator: Adobe Illustrator 25.2.1, SVG Export Plug-In . SVG Version: 6.00 Build 0)  -->
<svg version="1.1" id="Capa_1" xmlns="http://www.w3.org/2000/svg" xmlns:xlink="http://www.w3.org/1999/xlink" x="0px" y="0px"
	 viewBox="0 0 20.3 20.3" style="enable-background:new 0 0 20.3 20.3;" xml:space="preserve">
<style type="text/css">
	.st0{fill:#FFFFFF;}
</style>
<g>
	<path class="st0" d="M14.9,4.5c-0.6,0-1.1,0.5-1.1,1.1s0.5,1.1,1.1,1.1c0.6,0,1.1-0.5,1.1-1.1S15.5,4.5,14.9,4.5 M10.2,5.8
		c-2.5,0-4.4,2-4.4,4.4c0,2.4,2,4.4,4.4,4.4s4.4-2,4.4-4.4C14.7,7.8,12.7,5.8,10.2,5.8 M10.2,13.1c-1.6,0-2.8-1.3-2.8-2.8
		c0-1.6,1.3-2.8,2.8-2.8s2.8,1.3,2.8,2.8C13.1,11.9,11.8,13.1,10.2,13.1 M10.2,5.8c-2.5,0-4.4,2-4.4,4.4c0,2.4,2,4.4,4.4,4.4
		s4.4-2,4.4-4.4C14.7,7.8,12.7,5.8,10.2,5.8 M10.2,13.1c-1.6,0-2.8-1.3-2.8-2.8c0-1.6,1.3-2.8,2.8-2.8s2.8,1.3,2.8,2.8
		C13.1,11.9,11.8,13.1,10.2,13.1 M14.9,4.5c-0.6,0-1.1,0.5-1.1,1.1s0.5,1.1,1.1,1.1c0.6,0,1.1-0.5,1.1-1.1S15.5,4.5,14.9,4.5
		 M14.9,4.5c-0.6,0-1.1,0.5-1.1,1.1s0.5,1.1,1.1,1.1c0.6,0,1.1-0.5,1.1-1.1S15.5,4.5,14.9,4.5 M10.2,5.8c-2.5,0-4.4,2-4.4,4.4
		c0,2.4,2,4.4,4.4,4.4s4.4-2,4.4-4.4C14.7,7.8,12.7,5.8,10.2,5.8 M10.2,13.1c-1.6,0-2.8-1.3-2.8-2.8c0-1.6,1.3-2.8,2.8-2.8
		s2.8,1.3,2.8,2.8C13.1,11.9,11.8,13.1,10.2,13.1 M13.8,1.2H6.6c-3,0-5.4,2.4-5.4,5.4v7.2c0,3,2.4,5.4,5.4,5.4h7.2
		c3,0,5.4-2.4,5.4-5.4V6.6C19.2,3.6,16.7,1.2,13.8,1.2 M17.5,13.8c0,2.1-1.7,3.7-3.7,3.7H6.6c-2.1,0-3.7-1.7-3.7-3.7V6.6
		c0-2.1,1.7-3.7,3.7-3.7h7.2c2.1,0,3.7,1.7,3.7,3.7V13.8z M14.9,4.5c-0.6,0-1.1,0.5-1.1,1.1s0.5,1.1,1.1,1.1c0.6,0,1.1-0.5,1.1-1.1
		S15.5,4.5,14.9,4.5 M10.2,5.8c-2.5,0-4.4,2-4.4,4.4c0,2.4,2,4.4,4.4,4.4s4.4-2,4.4-4.4C14.7,7.8,12.7,5.8,10.2,5.8 M10.2,13.1
		c-1.6,0-2.8-1.3-2.8-2.8c0-1.6,1.3-2.8,2.8-2.8s2.8,1.3,2.8,2.8C13.1,11.9,11.8,13.1,10.2,13.1 M10.2,5.8c-2.5,0-4.4,2-4.4,4.4
		c0,2.4,2,4.4,4.4,4.4s4.4-2,4.4-4.4C14.7,7.8,12.7,5.8,10.2,5.8 M10.2,13.1c-1.6,0-2.8-1.3-2.8-2.8c0-1.6,1.3-2.8,2.8-2.8
		s2.8,1.3,2.8,2.8C13.1,11.9,11.8,13.1,10.2,13.1 M14.9,4.5c-0.6,0-1.1,0.5-1.1,1.1s0.5,1.1,1.1,1.1c0.6,0,1.1-0.5,1.1-1.1
		S15.5,4.5,14.9,4.5"/>
</g>
</svg>
