<?xml version="1.0" encoding="utf-8"?>
<!-- Generator: Adobe Illustrator 25.2.1, SVG Export Plug-In . SVG Version: 6.00 Build 0)  -->
<svg version="1.1" id="Capa_1" xmlns="http://www.w3.org/2000/svg" xmlns:xlink="http://www.w3.org/1999/xlink" x="0px" y="0px"
	 viewBox="0 0 20.3 20.3" style="enable-background:new 0 0 20.3 20.3;" xml:space="preserve">
<style type="text/css">
	.st0{fill:#FFFFFF;}
</style>
<g>
	<g>
		<path class="st0" d="M19.2,12.1v6.4c0,0.2-0.1,0.3-0.3,0.3h-3.3c-0.2,0-0.3-0.1-0.3-0.3v-5.9c0-1.6-0.6-2.6-2-2.6
			c-1.1,0-1.7,0.7-2,1.4c-0.1,0.2-0.1,0.6-0.1,0.9v6.2c0,0.2-0.1,0.3-0.3,0.3H7.7c-0.2,0-0.3-0.1-0.3-0.3c0-1.6,0-9.2,0-11
			c0-0.2,0.1-0.3,0.3-0.3H11c0.2,0,0.3,0.1,0.3,0.3v1.4c0,0,0,0,0,0h0v0c0.5-0.8,1.4-1.9,3.5-1.9C17.3,6.9,19.2,8.6,19.2,12.1
			 M1.7,18.8H5c0.2,0,0.3-0.1,0.3-0.3v-11c0-0.2-0.1-0.3-0.3-0.3H1.7c-0.2,0-0.3,0.1-0.3,0.3v11C1.4,18.6,1.6,18.8,1.7,18.8"/>
		<path class="st0" d="M5.3,3.6c0,1.1-0.9,2.1-2.1,2.1S1.2,4.8,1.2,3.6c0-1.1,0.9-2.1,2.1-2.1S5.3,2.5,5.3,3.6"/>
	</g>
</g>
</svg>
