<?xml version="1.0" encoding="utf-8"?>
<!-- Generator: Adobe Illustrator 25.2.1, SVG Export Plug-In . SVG Version: 6.00 Build 0)  -->
<svg version="1.1" id="Capa_1" xmlns="http://www.w3.org/2000/svg" xmlns:xlink="http://www.w3.org/1999/xlink" x="0px" y="0px"
	 viewBox="0 0 20.3 20.3" style="enable-background:new 0 0 20.3 20.3;" xml:space="preserve">
<style type="text/css">
	.st0{fill:#FFFFFF;}
</style>
<g>
	<path class="st0" d="M19.1,4.5c-0.6,0.3-1.2,0.4-1.8,0.5c0.3,0,0.7-0.6,0.9-0.8c0.3-0.3,0.5-0.7,0.6-1.1c0,0,0-0.1,0-0.1
		c0,0-0.1,0-0.1,0c-0.7,0.4-1.4,0.6-2.2,0.8c-0.1,0-0.1,0-0.1,0c-0.1-0.1-0.1-0.1-0.2-0.2c-0.3-0.3-0.7-0.5-1-0.6
		c-0.5-0.2-1.1-0.3-1.6-0.3C13,2.8,12.5,3,12,3.2c-0.5,0.2-0.9,0.6-1.2,1c-0.3,0.4-0.6,0.9-0.7,1.5c-0.1,0.5-0.1,1,0,1.6
		c0,0.1,0,0.1-0.1,0.1C7,6.9,4.5,5.8,2.5,3.5c-0.1-0.1-0.1-0.1-0.2,0C1.4,4.8,1.9,7,3,8c0.1,0.1,0.3,0.3,0.5,0.4
		C3.4,8.4,2.6,8.3,2,8C1.9,7.9,1.9,8,1.8,8.1c0,0.1,0,0.3,0,0.4C2,9.8,3,11,4.2,11.5c0.1,0.1,0.3,0.1,0.5,0.1
		c-0.3,0.1-0.6,0.1-1.4,0c-0.1,0-0.1,0-0.1,0.1c0.6,1.7,2,2.2,3,2.5c0.1,0,0.3,0,0.4,0.1c0,0,0,0,0,0c-0.3,0.5-1.5,0.9-2,1.1
		c-1,0.3-2,0.5-3.1,0.4c-0.2,0-0.2,0-0.2,0c0,0,0,0.1,0,0.1c0.2,0.1,0.4,0.3,0.6,0.4c0.7,0.3,1.3,0.6,2,0.8c3.7,1,7.8,0.3,10.6-2.5
		c2.2-2.2,2.9-5.1,2.9-8.1c0-0.1,0.1-0.2,0.2-0.2c0.6-0.4,1-0.9,1.4-1.5C19.2,4.7,19.2,4.6,19.1,4.5L19.1,4.5
		C19.2,4.5,19.2,4.5,19.1,4.5"/>
</g>
</svg>
