<svg xmlns="http://www.w3.org/2000/svg" width="22.511" height="18.318" viewBox="0 0 22.511 18.318">
  <path id="ico-twitter" d="M23.924,6.67a9.337,9.337,0,0,1-2.652.73A4.634,4.634,0,0,0,23.3,4.843,9.177,9.177,0,0,1,20.37,5.964a4.617,4.617,0,0,0-7.99,3.158,4.521,4.521,0,0,0,.119,1.054A13.088,13.088,0,0,1,2.978,5.344a4.627,4.627,0,0,0,1.436,6.173,4.511,4.511,0,0,1-2.1-.577V11a4.622,4.622,0,0,0,3.706,4.532,4.649,4.649,0,0,1-1.216.162,4.357,4.357,0,0,1-.868-.086,4.626,4.626,0,0,0,4.317,3.21,9.26,9.26,0,0,1-5.739,1.98,9.361,9.361,0,0,1-1.1-.067,12.909,12.909,0,0,0,7.069,2.089A13.062,13.062,0,0,0,21.634,9.661c0-.2,0-.4-.014-.6A9.4,9.4,0,0,0,23.924,6.67Z" transform="translate(-1.413 -4.5)" fill="#fff"/>
</svg>
