<svg xmlns="http://www.w3.org/2000/svg" width="19.815" height="19.815" viewBox="0 0 19.815 19.815">
  <path id="ico-linkedin" d="M18.4,2.25H1.411A1.421,1.421,0,0,0,0,3.679V20.636a1.421,1.421,0,0,0,1.411,1.429H18.4a1.425,1.425,0,0,0,1.415-1.429V3.679A1.425,1.425,0,0,0,18.4,2.25ZM5.989,19.234H3.052V9.778H5.993v9.456ZM4.52,8.486a1.7,1.7,0,1,1,1.7-1.7A1.7,1.7,0,0,1,4.52,8.486ZM17,19.234H14.061v-4.6c0-1.1-.022-2.508-1.526-2.508-1.53,0-1.765,1.194-1.765,2.428v4.68H7.833V9.778h2.817v1.292h.04a3.093,3.093,0,0,1,2.782-1.526C16.445,9.543,17,11.5,17,14.051Z" transform="translate(0 -2.25)" fill="#fff"/>
</svg>
