<svg xmlns="http://www.w3.org/2000/svg" width="20.349" height="20.349" viewBox="0 0 20.349 20.349">
  <g id="ico-instagram" transform="translate(-2 -2)">
    <path id="Trazado_879" data-name="Trazado 879" d="M7.587,3h9.175a4.587,4.587,0,0,1,4.587,4.587v9.175a4.587,4.587,0,0,1-4.587,4.587H7.587A4.587,4.587,0,0,1,3,16.762V7.587A4.587,4.587,0,0,1,7.587,3Z" fill="none" stroke="#fff" stroke-linecap="round" stroke-linejoin="round" stroke-width="2"/>
    <path id="Trazado_880" data-name="Trazado 880" d="M19.365,15.067a3.67,3.67,0,1,1-3.092-3.092,3.67,3.67,0,0,1,3.092,3.092Z" transform="translate(-3.52 -3.47)" fill="none" stroke="#fff" stroke-linecap="round" stroke-linejoin="round" stroke-width="2"/>
    <path id="Trazado_881" data-name="Trazado 881" d="M26.25,9.75h0" transform="translate(-9.029 -2.621)" fill="none" stroke="#fff" stroke-linecap="round" stroke-linejoin="round" stroke-width="2"/>
  </g>
</svg>
