<?xml version="1.0" encoding="utf-8"?>
<!-- Generator: Adobe Illustrator 25.2.1, SVG Export Plug-In . SVG Version: 6.00 Build 0)  -->
<svg version="1.1" id="Capa_1" xmlns="http://www.w3.org/2000/svg" xmlns:xlink="http://www.w3.org/1999/xlink" x="0px" y="0px"
	 viewBox="0 0 20.3 20.3" style="enable-background:new 0 0 20.3 20.3;" xml:space="preserve">
<style type="text/css">
	.st0{fill:#FFFFFF;}
</style>
<g>
	<path class="st0" d="M7.8,10.2v8.7c0,0.1,0.1,0.2,0.2,0.2h3.2c0.1,0,0.2-0.1,0.2-0.2v-8.8h2.3c0.1,0,0.2-0.1,0.2-0.2l0.2-2.7
		c0-0.1-0.1-0.2-0.2-0.2h-2.6V5.1c0-0.4,0.4-0.8,0.8-0.8h1.8c0.1,0,0.2-0.1,0.2-0.2V1.4c0-0.1-0.1-0.2-0.2-0.2h-3.1
		c-1.8,0-3.2,1.5-3.2,3.2V7H6.2C6.1,7,6,7.1,6,7.2v2.7c0,0.1,0.1,0.2,0.2,0.2h1.6V10.2z"/>
</g>
</svg>
