<svg xmlns="http://www.w3.org/2000/svg" viewBox="0 0 208.82 94.53"><defs><style>.cls-1{fill:#d19d42;}.cls-2{fill:#b0225a;}.cls-3{fill:#908b81;}</style></defs><g id="Capa_2" data-name="Capa 2"><g id="Capa_1-2" data-name="Capa 1"><path class="cls-1" d="M133.15,20.49c-.86.17-6.39-.86-6.39-.86s4.12,2.14,4.22,2.71-1.63,4.15-1.63,4.15,2.93-3,3.83-3.77a3.88,3.88,0,0,1,2.83-.37,20.07,20.07,0,0,0,12.28-2.15c4-2.05,4-2.47,4-2.47s-3-2-8.28-1.21c-5.84.86-10,3.8-10.85,4"/><path class="cls-1" d="M52.59,87.52c-1,.28-6.55-1-6.55-1a47.17,47.17,0,0,1,4.46,3c.35.49-.76,5-.76,5S52.31,91,53.3,89.91c.61-.65,2.13-.49,2.88-.38A20.13,20.13,0,0,0,71,86.15c4.43-3.19,4.36-3.79,4.36-3.79a14.4,14.4,0,0,0-10.46-1.6C58.6,82,53.6,87.24,52.59,87.52"/><path class="cls-2" d="M176,19.19c-1.47.23-9-2.49-9-2.49s5.34,4.23,5.76,5-1.88,6.88-1.88,6.88,4.19-4.53,5.75-5.88c1-.81,3.08-.34,4.09-.06a28.34,28.34,0,0,0,21.36-2.26c6.72-3.72,6.73-4.6,6.73-4.6s-5.36-4.7-14.4-4S177.5,19,176,19.19"/><path class="cls-2" d="M7.4,76.42c-1.46.41-7.4-2-7.4-2s5.78,3.42,6,4-3.61,6.19-3.61,6.19,3.82-3.32,5.38-4.6c1.39-1.14,4.75-1.55,6.7-1.39s9.76,1.26,19.7-5.38c6.49-4.35,6.43-5.13,6.43-5.13s-5.73-3.45-14.76-1.47S8.86,76,7.4,76.42"/><path class="cls-2" d="M82.15,71.44c-.94.09-4.3-2-4.3-2s3.15,2.74,3.21,3.13-2.89,3.37-2.89,3.37,2.7-1.59,3.8-2.2a7.09,7.09,0,0,1,4.24-.09c1.13.31,5.82,1.87,12.63-1.07,4.44-1.92,4.49-2.41,4.49-2.41s-3.11-2.75-8.84-2.56-11.4,3.78-12.34,3.87"/><path class="cls-2" d="M32.58,53.19a11.3,11.3,0,0,1-4.79,1c-6.32,0-11.74-3.36-11.74-12S21.65,30,28,30a17.23,17.23,0,0,1,4.62.62v4a12.1,12.1,0,0,0-4.66-.93c-4.43,0-7.61,2.27-7.61,8.41s3.45,8.34,7.65,8.34a11.08,11.08,0,0,0,4.62-.89Z"/><path class="cls-2" d="M38.28,45.64c0,3.47,1.5,5.19,3.38,5.19s3.25-1.58,3.25-5.19c0-3.43-1.51-5.15-3.42-5.15S38.28,42,38.28,45.64m10.66,0c0,5-2.91,8.55-7.38,8.55s-7.34-3.5-7.34-8.55,2.93-8.47,7.34-8.47,7.38,3.36,7.38,8.47"/><path class="cls-2" d="M72.39,53.71H68.63V43.45c0-2.13-.81-2.92-2.53-2.92-1,0-2.45.41-2.45,1.2,0,.38.1.86.1,1.38v10.6H60V43.45c0-2.17-.85-2.92-2.32-2.92-1.26,0-2.53.34-2.53,1.51V53.71H51.39V38c3.31,0,4.37-.76,6.83-.76,2.22,0,3.1.52,3.92,1.24A8.64,8.64,0,0,1,67,37.23c3.25,0,5.43,1.48,5.43,5.7Z"/><path class="cls-2" d="M81.06,40.39c-1.27,0-2,.55-2,1.1v8.24c0,.58.89,1.1,2,1.1,2.39,0,3.76-1.58,3.76-5.15s-1.37-5.29-3.76-5.29M75.15,61.22c.07-3.6.14-6.14.14-10.63V37.71c2.32,0,3.79-.54,6.07-.54,4.14,0,7.59,3,7.59,8.58,0,5.38-3.69,8.34-7.1,8.34A4.54,4.54,0,0,1,79,53.36v7.86Z"/><path class="cls-2" d="M99.15,45.92C96,46,94.43,47,94.43,48.8a2.17,2.17,0,0,0,2.43,2.1c1.36,0,2-.38,2.15-.87a34.13,34.13,0,0,0,.14-4.11m0-2.81v-.63c0-1.3-.9-2.09-2.5-2.09a11.56,11.56,0,0,0-5,1.1V38a17.61,17.61,0,0,1,5.29-.8c3.69,0,6,1.51,6,5.29,0,2.65-.1,4.94-.1,7.48,0,1.34.07,2.81.17,3.68-2.73,0-4.2.44-6.52.44-4,0-5.94-1.85-5.94-5s2.59-5.8,8.61-6"/><path class="cls-2" d="M105.85,53.71V37.64h3.55v1.51a4.66,4.66,0,0,1,4.13-2,13.62,13.62,0,0,1,1.74.14v4a6.63,6.63,0,0,0-2.63-.45c-1.53,0-2.89.62-3,2-.06,2.72-.06,6.87-.06,11Z"/><path class="cls-2" d="M120.59,37.64h4.61v3.3h-4.61c0,3.4,0,5.73,0,8.24,0,1.2.71,1.68,2,1.68a5.24,5.24,0,0,0,2.67-.62v3.33a10.17,10.17,0,0,1-3.65.62c-2.74,0-4.75-1.27-4.75-4.25V34.72l3.79-2.26Z"/><path class="cls-2" d="M135.75,45.92C132.64,46,131,47,131,48.8a2.17,2.17,0,0,0,2.43,2.1c1.36,0,2-.38,2.15-.87a35,35,0,0,0,.13-4.11m0-2.81v-.63c0-1.3-.88-2.09-2.49-2.09a11.6,11.6,0,0,0-5,1.1V38a17.62,17.62,0,0,1,5.3-.79c3.68,0,6,1.5,6,5.28,0,2.65-.1,4.94-.1,7.49,0,1.33.07,2.8.17,3.67-2.73,0-4.2.44-6.52.44-4,0-6-1.85-6-5s2.6-5.8,8.61-6"/><path class="cls-2" d="M163.51,53.71h-3.76V43.44c0-2.12-.82-2.91-2.53-2.91-1,0-2.46.41-2.46,1.2a12.47,12.47,0,0,1,.11,1.38v10.6h-3.76V43.44c0-2.16-.85-2.91-2.32-2.91-1.27,0-2.53.34-2.53,1.51V53.71H142.5V38c3.31,0,4.37-.76,6.83-.76,2.22,0,3.11.52,3.93,1.24a8.64,8.64,0,0,1,4.82-1.24c3.24,0,5.43,1.48,5.43,5.7Z"/><path class="cls-2" d="M169.91,45.64c0,3.47,1.51,5.19,3.39,5.19s3.24-1.58,3.24-5.19c0-3.43-1.5-5.15-3.41-5.15s-3.22,1.55-3.22,5.15m10.66,0c0,5-2.9,8.55-7.38,8.55s-7.33-3.5-7.33-8.55,2.94-8.47,7.33-8.47,7.38,3.36,7.38,8.47"/><path class="cls-2" d="M188.39,37.17a12.76,12.76,0,0,1,3.69.47v3.57a9.66,9.66,0,0,0-3.83-.82c-1.29,0-2.11.55-2.11,1.38,0,2.47,6.69,2.22,6.69,7.17,0,2.67-1.91,5.25-6.36,5.25a14.24,14.24,0,0,1-4.16-.55V50.28a13.22,13.22,0,0,0,3.93.65c1.81,0,2.73-.69,2.73-1.75,0-2.72-6.73-2.3-6.73-7,0-3.08,2.33-5,6.15-5"/><path class="cls-3" d="M17.16,20.75V2h9.68V4.23c-1.66-.09-3.86-.14-6.76-.14-.23,0-.37.18-.37.46,0,1.1-.07,3.11-.07,5.36H26v2.2h-6.4v8.64Z"/><path class="cls-3" d="M35.88,17.68V7.87h2.35V20.58c-2.37,0-3,.49-5.26.49-2.69,0-4.85-1.23-4.85-4.53V7.87H30.5v8.27c0,2,1,2.78,2.91,2.78,1.45,0,2.47-.32,2.47-1.24"/><path class="cls-3" d="M43.72,11v9.78H41.36V8.16c2.68,0,3-.67,5.58-.67,2.37,0,4.51,1.15,4.51,4.47v8.79H49.09v-8.4c0-2-1-2.72-2.77-2.72-1.59,0-2.6.63-2.6,1.34"/><path class="cls-3" d="M64.43,0c-.06,3.33-.11,6.22-.11,10V20.59c-1.92,0-2.71.45-4.7.45-3.19,0-6-2.4-6-6.8s2.87-6.76,5.75-6.76A3.66,3.66,0,0,1,62,8.24V0ZM62,10.53c0-.58-.87-1-2.07-1-2.25,0-3.59,1.52-3.59,4.72S57.65,19,59.9,19c1.24,0,2.07-.44,2.07-1Z"/><path class="cls-3" d="M73.83,11.65c0-1.39-.83-2.13-2.44-2.13a8.77,8.77,0,0,0-3.79.87V8.19a11.44,11.44,0,0,1,4-.71c2.86,0,4.61,1.17,4.61,4.1,0,2.22-.08,4.25-.08,6.32,0,1.13,0,2,.11,2.76-2,0-3.31.36-5,.36-3,0-4.57-1.57-4.57-3.94,0-2.56,2.08-4.63,7.12-4.74Zm-4.58,5.29A2.07,2.07,0,0,0,71.56,19c1.41,0,2-.36,2.16-.93a32.51,32.51,0,0,0,.11-3.93c-3.18.07-4.58,1-4.58,2.78"/><path class="cls-3" d="M84.91,19a10.29,10.29,0,0,0,2.1-.21v2.07a9.84,9.84,0,0,1-2.15.26c-3.89,0-6.48-2.3-6.48-6.84,0-4.15,2.31-6.82,6.48-6.82A10.89,10.89,0,0,1,87,7.67V9.91a7.05,7.05,0,0,0-2.16-.3C82.49,9.61,81,10.94,81,14.3S82.49,19,84.91,19"/><path class="cls-3" d="M91.77,4a1.52,1.52,0,1,1-3,0,1.52,1.52,0,0,1,3,0m-.19,3.92c-.09,3.88-.11,8.87-.11,12.88H89.1V7.87Z"/><path class="cls-3" d="M96.44,14.3c0,3.13,1.4,4.7,3.21,4.7s3.09-1.44,3.09-4.7-1.4-4.72-3.22-4.72S96.44,11,96.44,14.3m8.88,0c0,4-2.24,6.83-5.75,6.83s-5.73-2.79-5.73-6.83,2.27-6.82,5.73-6.82,5.75,2.74,5.75,6.82M97.51,6.2A33,33,0,0,0,101,1.82h2.69l-4,4.38Z"/><path class="cls-3" d="M110,11v9.78h-2.35V8.16c2.67,0,3-.67,5.58-.67,2.37,0,4.5,1.15,4.5,4.47v8.79h-2.35v-8.4c0-2-1-2.72-2.78-2.72-1.59,0-2.6.63-2.6,1.34"/><path class="cls-2" d="M201.58,46.36a3.35,3.35,0,1,0,3.19,3.34,3.16,3.16,0,0,0-3.19-3.34m0,7.37a4,4,0,1,1,4-4,3.91,3.91,0,0,1-4,4"/><path class="cls-2" d="M201.23,49.52c.74,0,1.09-.29,1.09-.86s-.39-.7-.95-.7c-.35,0-.53.09-.55.18,0,.51,0,1,0,1.38ZM200.8,52h-.63V47.45c.49,0,.81-.06,1.29-.06.87,0,1.56.43,1.56,1.26a1.24,1.24,0,0,1-.81,1.16.12.12,0,0,0-.05.11.24.24,0,0,0,0,.13L203.4,52h-.68l-1-1.52c-.2-.29-.3-.36-.51-.36h-.41Z"/></g></g></svg>