<?xml version="1.0" encoding="utf-8"?>
<!-- Generator: Adobe Illustrator 25.2.1, SVG Export Plug-In . SVG Version: 6.00 Build 0)  -->
<svg version="1.1" id="Capa_1" xmlns="http://www.w3.org/2000/svg" xmlns:xlink="http://www.w3.org/1999/xlink" x="0px" y="0px"
	 viewBox="0 0 600 600" style="enable-background:new 0 0 600 600;" xml:space="preserve">
<style type="text/css">
	.st0{clip-path:url(#SVGID_2_);fill:#4D5B6E;}
	.st1{clip-path:url(#SVGID_2_);fill:#006A91;}
	
		.st2{clip-path:url(#SVGID_2_);fill:none;stroke:#7C8591;stroke-width:1.9;stroke-linecap:round;stroke-linejoin:round;stroke-miterlimit:10;stroke-dasharray:0,5.7;}
	
		.st3{clip-path:url(#SVGID_2_);fill:none;stroke:#7C8591;stroke-width:1.9;stroke-linecap:round;stroke-linejoin:round;stroke-miterlimit:10;stroke-dasharray:0,5.736;}
	
		.st4{clip-path:url(#SVGID_2_);fill:none;stroke:#7C8591;stroke-width:1.9;stroke-linecap:round;stroke-linejoin:round;stroke-miterlimit:10;}
	
		.st5{clip-path:url(#SVGID_2_);fill:none;stroke:#7C8591;stroke-width:1.9;stroke-linecap:round;stroke-linejoin:round;stroke-miterlimit:10;stroke-dasharray:0,5.756;}
	
		.st6{clip-path:url(#SVGID_2_);fill:none;stroke:#7C8591;stroke-width:1.9;stroke-linecap:round;stroke-linejoin:round;stroke-miterlimit:10;stroke-dasharray:0,5.727;}
	.st7{fill:none;stroke:#C7C8CD;stroke-width:1.425;stroke-miterlimit:10;}
	.st8{fill:none;stroke:#C7C8CD;stroke-width:2.137;stroke-miterlimit:10;}
	.st9{fill:none;stroke:#C7C8CD;stroke-width:1.71;stroke-miterlimit:10;}
	
		.st10{fill:none;stroke:#7C8591;stroke-width:1.9;stroke-linecap:round;stroke-linejoin:round;stroke-miterlimit:10;stroke-dasharray:0,5.294;}
	.st11{fill:none;stroke:#7C8591;stroke-width:1.9;stroke-linecap:round;stroke-linejoin:round;stroke-miterlimit:10;}
	.st12{clip-path:url(#SVGID_4_);fill:#64257E;}
	.st13{clip-path:url(#SVGID_4_);fill:#7C8591;}
	.st14{clip-path:url(#SVGID_4_);fill:#00A297;}
	.st15{clip-path:url(#SVGID_4_);fill:#DF006E;}
	.st16{clip-path:url(#SVGID_6_);fill:#EF7B10;}
	.st17{clip-path:url(#SVGID_6_);fill:none;stroke:#7C8591;stroke-width:2;stroke-miterlimit:10;}
	.st18{clip-path:url(#SVGID_6_);fill:#00A297;}
	.st19{clip-path:url(#SVGID_6_);fill:#64257E;}
	.st20{clip-path:url(#SVGID_6_);fill:#DF006E;}
</style>
<g>
	<g>
		<defs>
			<rect id="SVGID_1_" x="12.8" y="49.4" width="574.5" height="501.3"/>
		</defs>
		<clipPath id="SVGID_2_">
			<use xlink:href="#SVGID_1_"  style="overflow:visible;"/>
		</clipPath>
		<path class="st0" d="M396.3,76h3.7V68c0-1.4-0.5-2.4-1.4-3.1c-0.9-0.7-2.5-1-4.6-1c-0.9,0-1.8,0.1-2.7,0.2
			c-0.9,0.1-1.5,0.3-1.9,0.4v2.8h0.3c0.3-0.1,0.8-0.3,1.5-0.5c0.7-0.2,1.4-0.3,2-0.3c1,0,1.8,0.1,2.3,0.4c0.5,0.2,0.8,0.7,0.8,1.3
			v0.1c-1.1,0.1-2.2,0.2-3.2,0.3c-1,0.1-1.9,0.4-2.6,0.7c-0.7,0.3-1.2,0.7-1.6,1.3c-0.4,0.5-0.6,1.2-0.6,2.1c0,1.1,0.4,1.9,1.1,2.6
			c0.7,0.7,1.7,1,2.8,1c0.5,0,0.9,0,1.3-0.1c0.4-0.1,0.8-0.2,1.1-0.4c0.3-0.1,0.5-0.3,0.8-0.5c0.3-0.2,0.5-0.4,0.7-0.6V76z
			 M395.3,73.5c-0.4,0.2-0.8,0.2-1.1,0.2c-0.5,0-0.8,0-1-0.1c-0.2-0.1-0.4-0.2-0.6-0.3c-0.2-0.1-0.3-0.3-0.3-0.4
			c0-0.2-0.1-0.3-0.1-0.6c0-0.4,0.1-0.7,0.3-0.9c0.2-0.2,0.5-0.4,0.9-0.5c0.3-0.1,0.8-0.2,1.3-0.3c0.6-0.1,1.1-0.1,1.6-0.2v2.4
			C396,73.2,395.7,73.4,395.3,73.5 M383.1,58.6l-2.6,4.1h2.6l3.7-3.9v-0.2H383.1z M385,64.3h-3.7V76h3.7V64.3z M379.1,59.9
			c-0.3-0.1-0.7-0.1-1.2-0.2s-1-0.1-1.5-0.1c-1.5,0-2.7,0.4-3.4,1.1c-0.8,0.7-1.1,1.8-1.1,3.2v0.3h-1.6v2.5h1.6V76h3.7v-9.1h2.8
			v-2.5h-2.9v-0.1c0-0.8,0.1-1.3,0.4-1.5c0.3-0.3,0.8-0.4,1.5-0.4c0.3,0,0.6,0,0.9,0.1c0.3,0.1,0.5,0.1,0.6,0.2h0.3V59.9z
			 M362.7,73.6c-0.3,0.1-0.6,0.2-1,0.2c-0.4,0-0.7-0.1-1.1-0.2c-0.3-0.1-0.6-0.3-0.8-0.6c-0.2-0.3-0.4-0.7-0.5-1.1
			c-0.1-0.5-0.2-1-0.2-1.7c0-0.7,0.1-1.3,0.2-1.8c0.1-0.5,0.3-0.8,0.5-1.1c0.3-0.3,0.5-0.5,0.8-0.6c0.3-0.1,0.6-0.1,1-0.1
			c0.4,0,0.7,0.1,1,0.2c0.3,0.1,0.6,0.3,0.8,0.6c0.2,0.3,0.4,0.6,0.5,1.1c0.1,0.5,0.2,1,0.2,1.7c0,0.7-0.1,1.3-0.2,1.7
			c-0.1,0.4-0.3,0.8-0.5,1.1C363.3,73.3,363,73.5,362.7,73.6 M366.4,65.6c-1.1-1.1-2.7-1.7-4.7-1.7c-2,0-3.6,0.5-4.7,1.6
			c-1.1,1.1-1.7,2.6-1.7,4.5c0,1.9,0.6,3.4,1.7,4.5c1.1,1.1,2.7,1.7,4.7,1.7c2,0,3.6-0.6,4.7-1.7c1.1-1.1,1.7-2.6,1.7-4.5
			C368.1,68.2,367.5,66.7,366.4,65.6 M352.2,70.2c-0.5-0.6-1.2-1-2.2-1.2c-0.4-0.1-0.9-0.2-1.3-0.3c-0.4-0.1-0.8-0.1-1.2-0.2
			c-0.7-0.1-1.1-0.3-1.3-0.4c-0.2-0.1-0.3-0.4-0.3-0.6c0-0.3,0.2-0.5,0.6-0.7c0.4-0.2,0.9-0.2,1.5-0.2c0.7,0,1.4,0.1,2.2,0.4
			c0.7,0.2,1.3,0.5,1.9,0.9h0.3v-2.9c-0.5-0.2-1.1-0.4-1.9-0.6S348.9,64,348,64c-1.8,0-3.3,0.4-4.4,1.1c-1.1,0.7-1.6,1.7-1.6,2.8
			c0,0.9,0.3,1.6,0.8,2.2c0.5,0.6,1.3,1,2.4,1.3c0.4,0.1,0.8,0.2,1.3,0.3c0.5,0.1,0.8,0.1,1.1,0.2c0.6,0.1,1,0.2,1.2,0.4
			c0.2,0.1,0.3,0.3,0.3,0.6c0,0.3-0.2,0.6-0.5,0.7c-0.4,0.2-0.9,0.2-1.6,0.2c-0.6,0-1.1-0.1-1.6-0.2c-0.5-0.1-0.9-0.3-1.3-0.4
			c-0.5-0.2-0.8-0.3-1-0.5c-0.2-0.2-0.5-0.3-0.6-0.4H342v3.1c0.5,0.2,1.2,0.5,2,0.6c0.8,0.2,1.8,0.3,2.8,0.3c1.9,0,3.4-0.4,4.4-1.1
			c1.1-0.7,1.6-1.7,1.6-2.9C353,71.5,352.7,70.8,352.2,70.2 M334,73.6c-0.3,0.1-0.6,0.2-1,0.2c-0.4,0-0.7-0.1-1.1-0.2
			c-0.3-0.1-0.6-0.3-0.8-0.6c-0.2-0.3-0.4-0.7-0.5-1.1s-0.2-1-0.2-1.7c0-0.7,0.1-1.3,0.2-1.8c0.1-0.5,0.3-0.8,0.5-1.1
			c0.3-0.3,0.5-0.5,0.8-0.6c0.3-0.1,0.6-0.1,1-0.1c0.4,0,0.7,0.1,1,0.2c0.3,0.1,0.6,0.3,0.8,0.6c0.2,0.3,0.4,0.6,0.5,1.1
			c0.1,0.5,0.2,1,0.2,1.7c0,0.7-0.1,1.3-0.2,1.7c-0.1,0.4-0.3,0.8-0.5,1.1C334.6,73.3,334.3,73.5,334,73.6 M337.7,65.6
			c-1.1-1.1-2.7-1.7-4.7-1.7c-2,0-3.6,0.5-4.7,1.6c-1.1,1.1-1.7,2.6-1.7,4.5c0,1.9,0.6,3.4,1.7,4.5c1.1,1.1,2.7,1.7,4.7,1.7
			c2,0,3.6-0.6,4.7-1.7c1.1-1.1,1.7-2.6,1.7-4.5C339.4,68.2,338.8,66.7,337.7,65.6 M323.2,59.8h-3.7V76h3.7V59.8z M315.3,59.8h-4
			v2.8h4V59.8z M315.2,64.3h-3.7V76h3.7V64.3z M309.3,59.9c-0.3-0.1-0.7-0.1-1.2-0.2s-1-0.1-1.5-0.1c-1.5,0-2.7,0.4-3.4,1.1
			c-0.8,0.7-1.1,1.8-1.1,3.2v0.3h-1.6v2.5h1.6V76h3.7v-9.1h2.7v-2.5h-2.9v-0.1c0-0.8,0.1-1.3,0.4-1.5c0.3-0.3,0.8-0.4,1.5-0.4
			c0.3,0,0.6,0,0.9,0.1c0.3,0.1,0.5,0.1,0.6,0.2h0.3V59.9z M285.8,76h3.7V68c0-1.4-0.5-2.4-1.4-3.1c-0.9-0.7-2.5-1-4.6-1
			c-0.9,0-1.8,0.1-2.7,0.2c-0.9,0.1-1.5,0.3-1.9,0.4v2.8h0.3c0.3-0.1,0.8-0.3,1.5-0.5c0.7-0.2,1.4-0.3,2-0.3c1,0,1.8,0.1,2.3,0.4
			c0.5,0.2,0.8,0.7,0.8,1.3v0.1c-1.1,0.1-2.2,0.2-3.2,0.3c-1,0.1-1.9,0.4-2.6,0.7c-0.7,0.3-1.2,0.7-1.6,1.3s-0.6,1.2-0.6,2.1
			c0,1.1,0.4,1.9,1.1,2.6c0.7,0.7,1.7,1,2.8,1c0.5,0,0.9,0,1.3-0.1s0.8-0.2,1.1-0.4c0.3-0.1,0.5-0.3,0.8-0.5
			c0.3-0.2,0.5-0.4,0.7-0.6V76z M284.8,73.5c-0.4,0.2-0.8,0.2-1.1,0.2c-0.5,0-0.8,0-1-0.1c-0.2-0.1-0.4-0.2-0.6-0.3
			c-0.2-0.1-0.3-0.3-0.3-0.4c0-0.2-0.1-0.3-0.1-0.6c0-0.4,0.1-0.7,0.3-0.9c0.2-0.2,0.5-0.4,0.9-0.5c0.3-0.1,0.8-0.2,1.3-0.3
			c0.6-0.1,1.1-0.1,1.6-0.2v2.4C285.5,73.2,285.2,73.4,284.8,73.5 M275.9,64.3c-0.1,0-0.3,0-0.4,0c-0.2,0-0.3,0-0.4,0
			c-0.5,0-1.1,0.1-1.7,0.3c-0.6,0.2-1.3,0.7-2.1,1.4v-1.7h-3.7V76h3.7v-7.8c0.5-0.2,0.9-0.3,1.3-0.4c0.4-0.1,0.9-0.1,1.4-0.1
			c0.2,0,0.5,0,0.9,0c0.4,0,0.6,0.1,0.8,0.1h0.3V64.3z M264.5,73.3h-0.3c-0.1,0.1-0.3,0.1-0.7,0.2c-0.3,0.1-0.6,0.1-0.8,0.1
			c-0.5,0-0.8-0.1-1.1-0.2c-0.2-0.1-0.4-0.3-0.5-0.6c-0.1-0.2-0.2-0.5-0.2-0.8c0-0.3,0-0.7,0-1.1v-4.1h3.5v-2.5H261V61h-3.7v3.3
			h-1.5v2.5h1.5v5.4c0,1.4,0.4,2.4,1.1,3c0.7,0.6,1.8,0.9,3.2,0.9c0.7,0,1.2,0,1.7-0.1c0.4-0.1,0.9-0.1,1.3-0.2V73.3z M253.1,70.2
			c-0.5-0.6-1.2-1-2.2-1.2c-0.4-0.1-0.9-0.2-1.3-0.3c-0.4-0.1-0.8-0.1-1.2-0.2c-0.7-0.1-1.1-0.3-1.3-0.4c-0.2-0.1-0.3-0.4-0.3-0.6
			c0-0.3,0.2-0.5,0.6-0.7c0.4-0.2,0.9-0.2,1.5-0.2c0.7,0,1.4,0.1,2.2,0.4c0.7,0.2,1.3,0.5,1.9,0.9h0.3v-2.9
			c-0.5-0.2-1.1-0.4-1.9-0.6s-1.6-0.3-2.5-0.3c-1.8,0-3.3,0.4-4.4,1.1c-1.1,0.7-1.6,1.7-1.6,2.8c0,0.9,0.3,1.6,0.8,2.2
			c0.5,0.6,1.3,1,2.4,1.3c0.4,0.1,0.8,0.2,1.3,0.3c0.5,0.1,0.8,0.1,1.1,0.2c0.6,0.1,1,0.2,1.2,0.4c0.2,0.1,0.3,0.3,0.3,0.6
			c0,0.3-0.2,0.6-0.5,0.7c-0.4,0.2-0.9,0.2-1.6,0.2c-0.6,0-1.1-0.1-1.6-0.2c-0.5-0.1-0.9-0.3-1.3-0.4c-0.5-0.2-0.8-0.3-1-0.5
			c-0.2-0.2-0.5-0.3-0.6-0.4h-0.3v3.1c0.5,0.2,1.2,0.5,2,0.6c0.8,0.2,1.8,0.3,2.8,0.3c1.9,0,3.4-0.4,4.4-1.1
			c1.1-0.7,1.6-1.7,1.6-2.9C253.8,71.5,253.5,70.8,253.1,70.2 M231.7,68.7c0.1-0.8,0.3-1.4,0.8-1.8c0.5-0.4,1.1-0.6,1.8-0.6
			c0.8,0,1.3,0.2,1.7,0.6c0.4,0.4,0.6,1,0.6,1.8H231.7z M240.3,69.5c0-1.8-0.5-3.2-1.4-4.1c-1-1-2.4-1.4-4.3-1.4
			c-2.1,0-3.7,0.6-4.9,1.7c-1.2,1.1-1.8,2.6-1.8,4.6c0,1.9,0.6,3.4,1.9,4.5c1.2,1.1,3,1.6,5.4,1.6c0.9,0,1.7-0.1,2.5-0.2
			c0.7-0.2,1.5-0.4,2.4-0.7v-3h-0.4c-0.4,0.3-1,0.6-1.8,0.9c-0.7,0.3-1.5,0.4-2.3,0.4c-1.2,0-2.2-0.2-2.8-0.7c-0.6-0.5-1-1.2-1-2.1
			h8.6V69.5z M224.5,64.3h-3.7v8.3c-0.4,0.2-0.7,0.4-1.1,0.5c-0.4,0.1-0.7,0.2-1.1,0.2c-0.5,0-0.8-0.1-1.1-0.2
			c-0.3-0.1-0.5-0.3-0.6-0.6c-0.1-0.3-0.2-0.6-0.3-1c0-0.4-0.1-0.9-0.1-1.5v-5.8h-3.7v7.6c0,1.4,0.3,2.5,1,3.3
			c0.7,0.7,1.7,1.1,3,1.1c0.8,0,1.5-0.1,2.1-0.4c0.6-0.3,1.2-0.7,1.9-1.2V76h3.7V64.3z M208.4,60.5h-3.7v8.9l-5.6-8.9h-4.8V76h3.7
			V65.4l6.6,10.6h3.8V60.5z"/>
		<path class="st1" d="M386,534.3h3.7v-7.9c0-1.4-0.5-2.4-1.4-3.1c-0.9-0.7-2.5-1-4.6-1c-0.9,0-1.8,0.1-2.7,0.2
			c-0.9,0.1-1.5,0.3-1.9,0.4v2.8h0.3c0.3-0.1,0.8-0.3,1.5-0.5c0.7-0.2,1.4-0.3,2-0.3c1,0,1.8,0.1,2.3,0.4c0.5,0.2,0.8,0.7,0.8,1.3
			v0.1c-1.1,0.1-2.2,0.2-3.2,0.3c-1,0.1-1.9,0.4-2.6,0.7c-0.7,0.3-1.2,0.7-1.6,1.3c-0.4,0.5-0.6,1.2-0.6,2.1c0,1.1,0.4,1.9,1.1,2.6
			c0.7,0.7,1.7,1,2.8,1c0.5,0,0.9,0,1.3-0.1c0.4-0.1,0.8-0.2,1.1-0.4c0.3-0.1,0.5-0.3,0.8-0.5c0.3-0.2,0.5-0.4,0.7-0.6V534.3z
			 M385,531.9c-0.4,0.2-0.8,0.2-1.1,0.2c-0.5,0-0.8,0-1-0.1c-0.2-0.1-0.4-0.2-0.6-0.3c-0.2-0.1-0.3-0.3-0.3-0.4
			c0-0.2-0.1-0.3-0.1-0.6c0-0.4,0.1-0.7,0.3-0.9c0.2-0.2,0.5-0.4,0.9-0.5c0.3-0.1,0.8-0.2,1.3-0.3c0.6-0.1,1.1-0.1,1.6-0.2v2.4
			C385.7,531.5,385.4,531.7,385,531.9 M374.4,534.4c0.6-0.2,1.3-0.4,1.8-0.7v-3.2h-0.5c-0.2,0.1-0.3,0.3-0.5,0.4
			c-0.2,0.2-0.4,0.3-0.6,0.4c-0.2,0.1-0.6,0.3-0.9,0.4c-0.4,0.1-0.8,0.2-1.3,0.2c-1,0-1.8-0.3-2.3-0.9c-0.5-0.6-0.8-1.4-0.8-2.6
			c0-1.1,0.3-1.9,0.8-2.6c0.5-0.6,1.3-0.9,2.3-0.9c0.4,0,0.8,0.1,1.2,0.2c0.3,0.1,0.7,0.2,0.9,0.4c0.3,0.2,0.5,0.3,0.8,0.5
			c0.2,0.2,0.4,0.3,0.5,0.4h0.5v-3.2c-0.6-0.3-1.2-0.5-1.9-0.7c-0.7-0.2-1.4-0.3-2.2-0.3c-0.9,0-1.7,0.1-2.6,0.3
			c-0.8,0.2-1.6,0.6-2.2,1.1c-0.7,0.5-1.2,1.2-1.5,2c-0.4,0.8-0.5,1.7-0.5,2.8c0,1,0.2,1.9,0.5,2.7s0.8,1.4,1.4,1.9
			c0.6,0.5,1.4,0.9,2.2,1.1c0.8,0.2,1.8,0.4,2.8,0.4C373.1,534.6,373.8,534.5,374.4,534.4 M362.6,518.2h-4v2.8h4V518.2z
			 M362.5,522.7h-3.7v11.7h3.7V522.7z M356.3,531.7H356c-0.1,0.1-0.3,0.1-0.7,0.2c-0.3,0.1-0.6,0.1-0.8,0.1c-0.5,0-0.8-0.1-1.1-0.2
			c-0.2-0.1-0.4-0.3-0.5-0.6c-0.1-0.2-0.2-0.5-0.2-0.8c0-0.3,0-0.7,0-1.1v-4.1h3.5v-2.5h-3.5v-3.3H349v3.3h-1.5v2.5h1.5v5.4
			c0,1.4,0.4,2.4,1.1,3c0.7,0.6,1.8,0.9,3.2,0.9c0.7,0,1.2,0,1.7-0.1c0.5-0.1,0.9-0.1,1.3-0.2V531.7z M340.1,513l-2.6,4.1h2.6
			l3.7-3.9V513H340.1z M345.5,531.3h-7.2v-3.8h6.7v-3h-6.7v-2.7h7.2v-3h-11.2v15.5h11.2V531.3z M315.2,527c0.1-0.8,0.3-1.4,0.8-1.8
			c0.5-0.4,1.1-0.6,1.8-0.6c0.8,0,1.3,0.2,1.7,0.6c0.4,0.4,0.6,1,0.6,1.8H315.2z M323.7,527.9c0-1.8-0.5-3.2-1.4-4.1
			c-1-1-2.4-1.4-4.3-1.4c-2.1,0-3.7,0.6-4.9,1.7c-1.2,1.1-1.8,2.6-1.8,4.6c0,1.9,0.6,3.4,1.9,4.5c1.2,1.1,3,1.6,5.4,1.6
			c0.9,0,1.7-0.1,2.5-0.2c0.7-0.2,1.5-0.4,2.4-0.7v-3h-0.4c-0.4,0.3-1,0.6-1.8,0.9c-0.7,0.3-1.5,0.4-2.3,0.4c-1.2,0-2.2-0.2-2.8-0.7
			c-0.6-0.5-1-1.2-1-2.1h8.6V527.9z M303.8,531.6c-0.4,0.1-0.7,0.2-1.1,0.2c-0.9,0-1.5-0.3-1.9-0.8c-0.4-0.5-0.6-1.3-0.6-2.5
			c0-1.1,0.2-1.9,0.7-2.6c0.5-0.6,1.2-0.9,2.2-0.9c0.2,0,0.5,0,0.8,0.1c0.3,0,0.6,0.1,0.8,0.2v5.7
			C304.5,531.3,304.1,531.5,303.8,531.6 M308.5,518.2h-3.7v5c-0.5-0.2-0.9-0.4-1.4-0.6c-0.4-0.1-1-0.2-1.7-0.2c-0.7,0-1.3,0.1-2,0.4
			c-0.7,0.3-1.2,0.7-1.7,1.2c-0.5,0.5-0.9,1.2-1.2,2c-0.3,0.8-0.4,1.6-0.4,2.6c0,1.9,0.4,3.3,1.3,4.4c0.9,1.1,2,1.6,3.4,1.6
			c0.7,0,1.4-0.1,1.9-0.4c0.6-0.2,1.2-0.6,1.8-1.2v1.2h3.7V518.2z M281.4,531.9c-0.3,0.1-0.6,0.2-1,0.2c-0.4,0-0.7-0.1-1.1-0.2
			c-0.3-0.1-0.6-0.3-0.8-0.6c-0.2-0.3-0.4-0.7-0.5-1.1c-0.1-0.5-0.2-1-0.2-1.7c0-0.7,0.1-1.3,0.2-1.8c0.1-0.5,0.3-0.8,0.5-1.1
			c0.3-0.3,0.5-0.5,0.8-0.6c0.3-0.1,0.6-0.1,1-0.1c0.4,0,0.7,0.1,1,0.2c0.3,0.1,0.6,0.3,0.8,0.6c0.2,0.3,0.4,0.6,0.5,1.1
			c0.1,0.5,0.2,1,0.2,1.7c0,0.7-0.1,1.3-0.2,1.7c-0.1,0.4-0.3,0.8-0.5,1.1C282,531.6,281.7,531.8,281.4,531.9 M285.1,524
			c-1.1-1.1-2.7-1.7-4.7-1.7c-2,0-3.6,0.5-4.7,1.6c-1.1,1.1-1.7,2.6-1.7,4.5c0,1.9,0.6,3.4,1.7,4.5c1.1,1.1,2.7,1.7,4.7,1.7
			c2,0,3.6-0.6,4.7-1.7c1.1-1.1,1.7-2.6,1.7-4.5C286.8,526.6,286.3,525.1,285.1,524 M266.4,531.1c-0.4,0.1-0.7,0.2-1.1,0.2
			c-0.8,0-1.4-0.2-1.9-0.7c-0.4-0.4-0.6-1.2-0.6-2.3c0-1,0.2-1.8,0.7-2.4c0.5-0.6,1.2-0.8,2.2-0.8c0.2,0,0.5,0,0.8,0.1
			c0.3,0.1,0.6,0.1,0.8,0.2v5.3C267.1,530.8,266.8,531,266.4,531.1 M271.1,522.7h-3.6l-0.1,0.5c-0.4-0.3-0.9-0.5-1.4-0.6
			c-0.5-0.1-1.1-0.2-1.7-0.2c-0.7,0-1.4,0.1-2,0.4c-0.7,0.3-1.2,0.6-1.7,1.1c-0.5,0.5-0.9,1.1-1.1,1.8c-0.3,0.7-0.4,1.5-0.4,2.5
			c0,2,0.4,3.5,1.3,4.5c0.9,1,2.1,1.5,3.8,1.5c0.7,0,1.3-0.1,1.8-0.3c0.5-0.2,1-0.5,1.5-0.9v0.2c0,0.5,0,0.9-0.1,1.2
			c-0.1,0.3-0.3,0.6-0.5,0.9c-0.2,0.2-0.6,0.4-1,0.5s-1,0.2-1.7,0.2c-0.5,0-1.1-0.1-1.8-0.2c-0.7-0.1-1.2-0.3-1.7-0.5h-0.5v2.9
			c0.6,0.1,1.3,0.3,2,0.4c0.8,0.1,1.6,0.1,2.4,0.1c1,0,1.9-0.1,2.7-0.3c0.8-0.2,1.5-0.5,2-0.9c0.6-0.4,1-1,1.3-1.8
			c0.3-0.7,0.5-1.7,0.5-2.8V522.7z M256.2,518.2h-4v2.8h4V518.2z M256.1,522.7h-3.7v11.7h3.7V522.7z M243.8,531.6
			c-0.4,0.1-0.7,0.2-1.1,0.2c-0.9,0-1.5-0.3-1.9-0.8c-0.4-0.5-0.6-1.3-0.6-2.5c0-1.1,0.2-1.9,0.7-2.6c0.5-0.6,1.2-0.9,2.2-0.9
			c0.2,0,0.5,0,0.8,0.1c0.3,0,0.6,0.1,0.8,0.2v5.7C244.5,531.3,244.2,531.5,243.8,531.6 M248.6,518.2h-3.7v5
			c-0.5-0.2-0.9-0.4-1.4-0.6c-0.4-0.1-1-0.2-1.7-0.2c-0.7,0-1.3,0.1-2,0.4c-0.7,0.3-1.2,0.7-1.7,1.2c-0.5,0.5-0.9,1.2-1.2,2
			c-0.3,0.8-0.4,1.6-0.4,2.6c0,1.9,0.4,3.3,1.3,4.4c0.9,1.1,2,1.6,3.4,1.6c0.7,0,1.4-0.1,1.9-0.4c0.6-0.2,1.2-0.6,1.8-1.2v1.2h3.7
			V518.2z M228,516.9l-2.6,4.1h2.6l3.7-3.9v-0.2H228z M229,531.9c-0.3,0.1-0.6,0.2-1,0.2c-0.4,0-0.7-0.1-1.1-0.2
			c-0.3-0.1-0.6-0.3-0.8-0.6c-0.2-0.3-0.4-0.7-0.5-1.1c-0.1-0.5-0.2-1-0.2-1.7c0-0.7,0.1-1.3,0.2-1.8c0.1-0.5,0.3-0.8,0.5-1.1
			c0.3-0.3,0.5-0.5,0.8-0.6c0.3-0.1,0.6-0.1,1-0.1c0.4,0,0.7,0.1,1,0.2c0.3,0.1,0.6,0.3,0.8,0.6c0.2,0.3,0.4,0.6,0.5,1.1
			c0.1,0.5,0.2,1,0.2,1.7c0,0.7-0.1,1.3-0.2,1.7c-0.1,0.4-0.3,0.8-0.5,1.1C229.5,531.6,229.3,531.8,229,531.9 M232.7,524
			c-1.1-1.1-2.7-1.7-4.7-1.7c-2,0-3.6,0.5-4.7,1.6c-1.1,1.1-1.7,2.6-1.7,4.5c0,1.9,0.6,3.4,1.7,4.5c1.1,1.1,2.7,1.7,4.7,1.7
			c2,0,3.6-0.6,4.7-1.7c1.1-1.1,1.7-2.6,1.7-4.5C234.3,526.6,233.8,525.1,232.7,524 M215.9,534.5c0.4-0.1,0.9-0.2,1.4-0.3
			c0.4-0.1,0.8-0.2,1.1-0.4c0.4-0.2,0.7-0.3,1.1-0.5v-3.7h-0.4c-0.2,0.2-0.4,0.4-0.7,0.6c-0.3,0.2-0.6,0.4-0.9,0.6
			c-0.4,0.2-0.8,0.4-1.3,0.6c-0.5,0.1-1,0.2-1.4,0.2c-0.5,0-1-0.1-1.5-0.2c-0.5-0.2-1-0.4-1.4-0.8c-0.4-0.4-0.8-0.9-1-1.5
			s-0.4-1.5-0.4-2.4c0-0.9,0.1-1.7,0.4-2.4c0.3-0.7,0.6-1.2,1-1.6c0.4-0.4,0.9-0.7,1.4-0.9c0.5-0.2,1-0.3,1.6-0.3
			c0.5,0,1,0.1,1.4,0.2c0.4,0.2,0.9,0.3,1.2,0.6c0.4,0.2,0.7,0.4,1,0.7c0.3,0.2,0.5,0.4,0.7,0.6h0.5v-3.7c-0.3-0.1-0.6-0.3-1-0.5
			c-0.4-0.2-0.8-0.3-1.3-0.4c-0.4-0.1-0.9-0.2-1.4-0.3c-0.5-0.1-1.1-0.1-1.8-0.1c-1.2,0-2.3,0.2-3.3,0.6c-1,0.4-1.8,0.9-2.5,1.6
			c-0.7,0.7-1.2,1.6-1.6,2.6c-0.4,1-0.5,2.1-0.5,3.3c0,1.3,0.2,2.5,0.6,3.5c0.4,1,0.9,1.8,1.6,2.5c0.7,0.7,1.5,1.2,2.5,1.5
			c1,0.3,2,0.5,3.2,0.5C214.8,534.6,215.4,534.6,215.9,534.5"/>
		<path class="st2" d="M170.9,76.8c-72.3,45-120.8,124.7-122,215.8"/>
		<path class="st3" d="M48.9,303.3c2.6,96.5,58.3,179.9,138.8,221.9"/>
		<path class="st4" d="M191,526.8L191,526.8 M48.9,296.2L48.9,296.2 M177,73.1L177,73.1"/>
		<path class="st5" d="M415.5,524c80.3-42.9,135.3-127.1,136.6-224.2"/>
		<path class="st6" d="M552,289.1c-2.5-91.3-52.4-170.8-126-214.8"/>
		<path class="st4" d="M422.9,72.5L422.9,72.5 M552.1,296.2L552.1,296.2 M409.1,527.3L409.1,527.3"/>
	</g>
	<path class="st7" d="M462.7,423.8"/>
	<line class="st7" x1="301.9" y1="472.6" x2="301.9" y2="408.6"/>
	<line class="st8" x1="307.9" y1="472.6" x2="295.9" y2="472.6"/>
	<line class="st7" x1="142.1" y1="408.1" x2="461.7" y2="409.1"/>
	<line class="st9" x1="142.1" y1="412.9" x2="142.1" y2="403.3"/>
	<line class="st9" x1="461.7" y1="413.8" x2="461.7" y2="404.3"/>
	<line class="st10" x1="212.3" y1="325.8" x2="235.4" y2="325.8"/>
	<path class="st11" d="M238.7,325.8L238.7,325.8 M205.7,325.8L205.7,325.8"/>
	<line class="st10" x1="375.4" y1="325.8" x2="398.4" y2="325.8"/>
	<path class="st11" d="M401.7,325.8L401.7,325.8 M368.8,325.8L368.8,325.8"/>
	<g>
		<defs>
			<rect id="SVGID_3_" x="12.8" y="49.4" width="574.5" height="501.3"/>
		</defs>
		<clipPath id="SVGID_4_">
			<use xlink:href="#SVGID_3_"  style="overflow:visible;"/>
		</clipPath>
		<path class="st12" d="M512,371.3c-25.6,23.9-66,22.3-90.1-3.5c-24.1-25.8-22.8-66.2,2.8-90.1c25.6-23.9,66-22.3,90.1,3.5l-1.7,1.6
			c-23.2-24.9-62.1-26.4-86.8-3.3c-24.7,23-25.9,62-2.7,86.8c23.2,24.9,62.1,26.4,86.8,3.3L512,371.3z"/>
		<path class="st13" d="M468.3,273.7c-8.8,0-17.5,2.3-25.2,6.8c-11.7,6.7-20,17.6-23.5,30.7c-3.5,13-1.7,26.6,5,38.3
			c9,15.6,25.8,25.3,43.8,25.3c8.8,0,17.5-2.3,25.2-6.8c24.1-13.9,32.4-44.9,18.5-69C503,283.4,486.3,273.7,468.3,273.7
			 M468.4,377.2c-18.9,0-36.5-10.2-46-26.5c-7.1-12.3-9-26.5-5.3-40.2c3.7-13.7,12.4-25.1,24.7-32.2c8.1-4.7,17.2-7.1,26.5-7.1
			c18.9,0,36.5,10.2,46,26.5c14.6,25.3,5.9,57.8-19.4,72.4C486.8,374.7,477.6,377.2,468.4,377.2"/>
		<path class="st14" d="M77.8,324.9c0,35,28.7,63.5,64,63.5s64-28.5,64-63.5c0-35-28.7-63.5-64-63.5v2.3c34,0,61.6,27.4,61.6,61.2
			s-27.6,61.2-61.6,61.2s-61.6-27.4-61.6-61.2H77.8z"/>
		<path class="st13" d="M141.8,274.7c-8.8,0-17.5,2.3-25.2,6.8c-11.7,6.7-20,17.6-23.5,30.7c-3.5,13-1.7,26.6,5,38.3
			c9,15.6,25.8,25.3,43.8,25.3c8.8,0,17.5-2.3,25.2-6.8c24.1-13.9,32.4-44.9,18.5-69C176.5,284.4,159.8,274.7,141.8,274.7
			 M141.9,378.3c-18.9,0-36.5-10.2-46-26.5c-7.1-12.3-9-26.5-5.3-40.2c3.7-13.7,12.4-25.1,24.7-32.2c8.1-4.7,17.2-7.1,26.5-7.1
			c18.9,0,36.5,10.2,46,26.5c14.6,25.3,5.9,57.8-19.4,72.4C160.3,375.8,151.1,378.3,141.9,378.3"/>
		<path class="st15" d="M258.3,279.3c-24.8,24.8-24.6,65.2,0.3,90.1c24.9,24.9,65.4,25.1,90.1,0.3c24.8-24.8,24.6-65.2-0.3-90.1
			l-1.6,1.6c24,24,24.2,63,0.3,86.8c-23.9,23.9-62.8,23.7-86.8-0.3c-24-24-24.2-63-0.3-86.8L258.3,279.3z"/>
		<path class="st13" d="M354,324.2c0-8.8-2.3-17.5-6.8-25.2c-6.7-11.7-17.6-20-30.7-23.5c-13-3.5-26.6-1.7-38.3,5
			c-15.6,9-25.3,25.8-25.3,43.8c0,8.8,2.3,17.5,6.8,25.2c13.9,24.1,44.9,32.4,69,18.5C344.3,359,354,342.2,354,324.2 M250.5,324.3
			c0-18.9,10.2-36.5,26.5-46c12.3-7.1,26.5-9,40.2-5.3s25.1,12.4,32.2,24.7c4.7,8.1,7.1,17.2,7.1,26.5c0,18.9-10.2,36.5-26.5,46
			c-25.3,14.6-57.8,5.9-72.4-19.4C253,342.7,250.5,333.5,250.5,324.3"/>
		<path class="st12" d="M492.9,352.1h2.3v-4.8c0-0.9-0.3-1.5-0.9-1.9c-0.6-0.4-1.5-0.6-2.8-0.6c-0.5,0-1.1,0-1.6,0.1
			c-0.5,0.1-0.9,0.2-1.2,0.2v1.7h0.2c0.2-0.1,0.5-0.2,0.9-0.3c0.4-0.1,0.8-0.2,1.2-0.2c0.6,0,1.1,0.1,1.4,0.2
			c0.3,0.1,0.5,0.4,0.5,0.8v0c-0.7,0-1.3,0.1-1.9,0.2s-1.1,0.2-1.6,0.4c-0.4,0.2-0.8,0.5-1,0.8c-0.2,0.3-0.3,0.8-0.3,1.3
			c0,0.7,0.2,1.2,0.7,1.6c0.5,0.4,1,0.6,1.7,0.6c0.3,0,0.6,0,0.8-0.1c0.2,0,0.5-0.1,0.7-0.2c0.2-0.1,0.3-0.2,0.5-0.3
			s0.3-0.2,0.5-0.3V352.1z M492.3,350.6c-0.2,0.1-0.5,0.1-0.7,0.1c-0.3,0-0.5,0-0.6-0.1c-0.1,0-0.3-0.1-0.3-0.2
			c-0.1-0.1-0.2-0.2-0.2-0.3c0-0.1,0-0.2,0-0.4c0-0.2,0.1-0.4,0.2-0.5c0.1-0.1,0.3-0.2,0.5-0.3c0.2-0.1,0.5-0.1,0.8-0.2
			c0.4,0,0.7-0.1,1-0.1v1.5C492.7,350.4,492.5,350.5,492.3,350.6 M485.5,352.1c0.4-0.1,0.8-0.2,1.1-0.4v-1.9h-0.3
			c-0.1,0.1-0.2,0.2-0.3,0.3c-0.1,0.1-0.2,0.2-0.4,0.3c-0.2,0.1-0.3,0.2-0.6,0.2c-0.2,0.1-0.5,0.1-0.8,0.1c-0.6,0-1.1-0.2-1.4-0.5
			c-0.3-0.4-0.5-0.9-0.5-1.6c0-0.7,0.2-1.2,0.5-1.6c0.3-0.4,0.8-0.6,1.4-0.6c0.3,0,0.5,0,0.7,0.1c0.2,0.1,0.4,0.1,0.6,0.2
			c0.2,0.1,0.3,0.2,0.5,0.3c0.1,0.1,0.2,0.2,0.3,0.3h0.3v-1.9c-0.4-0.2-0.7-0.3-1.1-0.4c-0.4-0.1-0.9-0.2-1.3-0.2
			c-0.5,0-1.1,0.1-1.6,0.2c-0.5,0.1-0.9,0.4-1.3,0.7c-0.4,0.3-0.7,0.7-0.9,1.2c-0.2,0.5-0.3,1.1-0.3,1.7c0,0.6,0.1,1.2,0.3,1.6
			c0.2,0.5,0.5,0.9,0.9,1.2c0.4,0.3,0.8,0.5,1.3,0.7c0.5,0.1,1.1,0.2,1.7,0.2C484.7,352.3,485.1,352.2,485.5,352.1 M477.9,342.2
			h-2.4v1.7h2.4V342.2z M477.9,345h-2.3v7.1h2.3V345z M473.7,350.5h-0.2c-0.1,0-0.2,0.1-0.4,0.1c-0.2,0.1-0.3,0.1-0.5,0.1
			c-0.3,0-0.5,0-0.7-0.1c-0.1-0.1-0.3-0.2-0.3-0.4c-0.1-0.1-0.1-0.3-0.1-0.5c0-0.2,0-0.4,0-0.7v-2.5h2.1V345h-2.1v-2h-2.3v2h-0.9
			v1.5h0.9v3.3c0,0.9,0.2,1.5,0.7,1.8c0.4,0.4,1.1,0.5,2,0.5c0.4,0,0.7,0,1-0.1c0.3,0,0.5-0.1,0.8-0.1V350.5z M466.8,348.6
			c-0.3-0.3-0.7-0.6-1.3-0.7c-0.3-0.1-0.5-0.1-0.8-0.2c-0.3,0-0.5-0.1-0.8-0.1c-0.4-0.1-0.7-0.2-0.8-0.3c-0.1-0.1-0.2-0.2-0.2-0.4
			c0-0.2,0.1-0.3,0.4-0.4c0.3-0.1,0.6-0.2,0.9-0.2c0.4,0,0.9,0.1,1.3,0.2c0.4,0.1,0.8,0.3,1.2,0.6h0.2v-1.8
			c-0.3-0.1-0.7-0.2-1.1-0.3c-0.5-0.1-1-0.2-1.5-0.2c-1.1,0-2,0.2-2.7,0.7c-0.7,0.5-1,1-1,1.7c0,0.5,0.2,1,0.5,1.3
			c0.3,0.4,0.8,0.6,1.4,0.8c0.2,0.1,0.5,0.1,0.8,0.2c0.3,0,0.5,0.1,0.7,0.1c0.4,0.1,0.6,0.1,0.7,0.2c0.1,0.1,0.2,0.2,0.2,0.4
			c0,0.2-0.1,0.3-0.3,0.4c-0.2,0.1-0.5,0.1-1,0.1c-0.3,0-0.7,0-1-0.1c-0.3-0.1-0.6-0.2-0.8-0.3c-0.3-0.1-0.5-0.2-0.6-0.3
			c-0.2-0.1-0.3-0.2-0.4-0.3h-0.2v1.9c0.3,0.1,0.7,0.3,1.2,0.4c0.5,0.1,1.1,0.2,1.7,0.2c1.1,0,2-0.2,2.7-0.7c0.7-0.5,1-1,1-1.8
			C467.2,349.3,467.1,348.9,466.8,348.6 M457.3,341.5l-1.6,2.5h1.6l2.2-2.4v-0.1H457.3z M458.4,345h-2.3v7.1h2.3V345z M453.4,342.7
			h-2.8l-2.1,4.7l-2.1-4.7h-2.8v9.4h2.3v-6.3l1.8,4.1h1.7l1.8-4.1v6.3h2.4V342.7z"/>
		<path class="st14" d="M156.9,350.6c-0.2,0.1-0.4,0.1-0.6,0.1c-0.2,0-0.5,0-0.6-0.1c-0.2-0.1-0.3-0.2-0.5-0.4
			c-0.1-0.2-0.2-0.4-0.3-0.7c-0.1-0.3-0.1-0.6-0.1-1c0-0.4,0-0.8,0.1-1.1c0.1-0.3,0.2-0.5,0.3-0.7c0.2-0.2,0.3-0.3,0.5-0.4
			c0.2-0.1,0.4-0.1,0.6-0.1s0.4,0,0.6,0.1c0.2,0.1,0.4,0.2,0.5,0.4c0.1,0.2,0.2,0.4,0.3,0.7c0.1,0.3,0.1,0.6,0.1,1.1
			c0,0.5,0,0.8-0.1,1.1c-0.1,0.3-0.2,0.5-0.3,0.7C157.3,350.4,157.1,350.6,156.9,350.6 M159.2,345.8c-0.7-0.7-1.6-1-2.9-1
			c-1.2,0-2.2,0.3-2.9,1c-0.7,0.7-1,1.6-1,2.8c0,1.2,0.3,2.1,1,2.8c0.7,0.7,1.6,1,2.9,1c1.2,0,2.2-0.3,2.9-1c0.7-0.7,1-1.6,1-2.8
			C160.2,347.4,159.9,346.5,159.2,345.8 M147.4,350.5c-0.2,0.1-0.5,0.1-0.7,0.1c-0.5,0-0.9-0.2-1.2-0.5c-0.2-0.3-0.4-0.8-0.4-1.5
			c0-0.7,0.1-1.2,0.4-1.6c0.3-0.4,0.7-0.6,1.3-0.6c0.1,0,0.3,0,0.5,0c0.2,0,0.3,0.1,0.5,0.1v3.5
			C147.9,350.3,147.7,350.4,147.4,350.5 M150.3,342.2H148v3c-0.3-0.1-0.6-0.3-0.8-0.3c-0.3-0.1-0.6-0.1-1-0.1
			c-0.4,0-0.8,0.1-1.2,0.3c-0.4,0.2-0.8,0.4-1,0.7c-0.3,0.3-0.5,0.7-0.7,1.2c-0.2,0.5-0.3,1-0.3,1.6c0,1.1,0.3,2,0.8,2.7
			c0.5,0.7,1.2,1,2.1,1c0.4,0,0.8-0.1,1.2-0.2c0.3-0.2,0.7-0.4,1.1-0.7v0.7h2.3V342.2z M136.1,347.6c0-0.5,0.2-0.9,0.5-1.1
			c0.3-0.2,0.6-0.3,1.1-0.3c0.5,0,0.8,0.1,1,0.4c0.2,0.2,0.3,0.6,0.4,1.1H136.1z M141.3,348.2c0-1.1-0.3-1.9-0.9-2.5
			c-0.6-0.6-1.5-0.9-2.6-0.9c-1.3,0-2.2,0.3-3,1c-0.7,0.7-1.1,1.6-1.1,2.8c0,1.2,0.4,2.1,1.1,2.7c0.8,0.6,1.9,1,3.3,1
			c0.6,0,1.1,0,1.5-0.1c0.5-0.1,0.9-0.2,1.5-0.5v-1.8h-0.3c-0.3,0.2-0.6,0.4-1.1,0.6c-0.5,0.2-0.9,0.3-1.4,0.3
			c-0.8,0-1.3-0.1-1.7-0.4c-0.4-0.3-0.6-0.7-0.6-1.3h5.2V348.2z M132.6,345c-0.1,0-0.2,0-0.3,0c-0.1,0-0.2,0-0.3,0
			c-0.3,0-0.7,0.1-1,0.2c-0.4,0.1-0.8,0.4-1.3,0.9v-1h-2.3v7.1h2.3v-4.8c0.3-0.1,0.6-0.2,0.8-0.2c0.2,0,0.5-0.1,0.9-0.1
			c0.1,0,0.3,0,0.5,0s0.4,0,0.5,0.1h0.2V345z M123.1,352.2c0.3,0,0.6-0.1,0.9-0.2c0.2-0.1,0.5-0.1,0.7-0.2c0.2-0.1,0.4-0.2,0.7-0.3
			v-2.3H125c-0.1,0.1-0.3,0.2-0.4,0.4c-0.2,0.1-0.4,0.3-0.6,0.4c-0.2,0.2-0.5,0.3-0.8,0.4c-0.3,0.1-0.6,0.1-0.9,0.1
			c-0.3,0-0.6,0-0.9-0.1c-0.3-0.1-0.6-0.3-0.9-0.5c-0.3-0.2-0.5-0.5-0.6-0.9c-0.2-0.4-0.2-0.9-0.2-1.5c0-0.6,0.1-1,0.2-1.4
			c0.2-0.4,0.4-0.7,0.6-1c0.3-0.2,0.5-0.4,0.9-0.5c0.3-0.1,0.6-0.2,1-0.2c0.3,0,0.6,0,0.9,0.1c0.3,0.1,0.5,0.2,0.8,0.3
			c0.2,0.1,0.4,0.3,0.6,0.4c0.2,0.1,0.3,0.3,0.4,0.4h0.3v-2.3c-0.2-0.1-0.4-0.2-0.6-0.3c-0.2-0.1-0.5-0.2-0.8-0.3
			c-0.3-0.1-0.6-0.1-0.9-0.2c-0.3,0-0.7-0.1-1.1-0.1c-0.7,0-1.4,0.1-2,0.3c-0.6,0.2-1.1,0.6-1.5,1c-0.4,0.4-0.8,1-1,1.6
			c-0.2,0.6-0.3,1.3-0.3,2c0,0.8,0.1,1.5,0.4,2.1c0.2,0.6,0.6,1.1,1,1.5c0.4,0.4,0.9,0.7,1.5,0.9c0.6,0.2,1.2,0.3,1.9,0.3
			C122.4,352.3,122.8,352.3,123.1,352.2"/>
		<path class="st15" d="M336.1,350.6c-0.2,0.1-0.4,0.1-0.6,0.1c-0.2,0-0.5,0-0.6-0.1s-0.4-0.2-0.5-0.4c-0.1-0.2-0.2-0.4-0.3-0.7
			c-0.1-0.3-0.1-0.6-0.1-1c0-0.4,0-0.8,0.1-1.1c0.1-0.3,0.2-0.5,0.3-0.7c0.2-0.2,0.3-0.3,0.5-0.4c0.2-0.1,0.4-0.1,0.6-0.1
			c0.2,0,0.4,0,0.6,0.1c0.2,0.1,0.4,0.2,0.5,0.4c0.1,0.2,0.2,0.4,0.3,0.7c0.1,0.3,0.1,0.6,0.1,1.1c0,0.5,0,0.8-0.1,1.1
			c-0.1,0.3-0.2,0.5-0.3,0.7C336.5,350.4,336.3,350.6,336.1,350.6 M338.4,345.8c-0.7-0.7-1.6-1-2.9-1c-1.2,0-2.2,0.3-2.9,1
			c-0.7,0.7-1,1.6-1,2.8c0,1.2,0.3,2.1,1,2.8c0.7,0.7,1.6,1,2.9,1c1.2,0,2.2-0.3,2.9-1c0.7-0.7,1-1.6,1-2.8
			C339.4,347.4,339.1,346.5,338.4,345.8 M330.3,350.5h-0.2c-0.1,0-0.2,0.1-0.4,0.1c-0.2,0.1-0.3,0.1-0.5,0.1c-0.3,0-0.5,0-0.7-0.1
			c-0.1-0.1-0.3-0.2-0.3-0.4c-0.1-0.1-0.1-0.3-0.1-0.5c0-0.2,0-0.4,0-0.7v-2.5h2.1V345h-2.1v-2h-2.3v2h-0.9v1.5h0.9v3.3
			c0,0.9,0.2,1.5,0.7,1.8c0.4,0.4,1.1,0.5,2,0.5c0.4,0,0.7,0,1-0.1c0.3,0,0.5-0.1,0.8-0.1V350.5z M323.2,342.2h-2.4v1.7h2.4V342.2z
			 M323.1,345h-2.3v7.1h2.3V345z M318.4,348.6c-0.3-0.3-0.7-0.6-1.3-0.7c-0.3-0.1-0.5-0.1-0.8-0.2c-0.3,0-0.5-0.1-0.8-0.1
			c-0.4-0.1-0.7-0.2-0.8-0.3c-0.1-0.1-0.2-0.2-0.2-0.4c0-0.2,0.1-0.3,0.4-0.4c0.3-0.1,0.6-0.2,0.9-0.2c0.4,0,0.9,0.1,1.3,0.2
			c0.4,0.1,0.8,0.3,1.2,0.6h0.2v-1.8c-0.3-0.1-0.7-0.2-1.1-0.3c-0.5-0.1-1-0.2-1.5-0.2c-1.1,0-2,0.2-2.7,0.7c-0.6,0.5-1,1-1,1.7
			c0,0.5,0.2,1,0.5,1.3c0.3,0.4,0.8,0.6,1.4,0.8c0.2,0.1,0.5,0.1,0.8,0.2s0.5,0.1,0.7,0.1c0.4,0.1,0.6,0.1,0.7,0.2
			c0.1,0.1,0.2,0.2,0.2,0.4c0,0.2-0.1,0.3-0.3,0.4c-0.2,0.1-0.5,0.1-1,0.1c-0.3,0-0.7,0-1-0.1c-0.3-0.1-0.6-0.2-0.8-0.3
			c-0.3-0.1-0.5-0.2-0.6-0.3c-0.1-0.1-0.3-0.2-0.4-0.3h-0.2v1.9c0.3,0.1,0.7,0.3,1.2,0.4c0.5,0.1,1.1,0.2,1.7,0.2
			c1.1,0,2-0.2,2.7-0.7c0.7-0.5,1-1,1-1.8C318.9,349.3,318.7,348.9,318.4,348.6 M306.7,341.5l-1.6,2.5h1.6l2.2-2.4v-0.1H306.7z
			 M307.3,350.6c-0.2,0.1-0.4,0.1-0.6,0.1c-0.2,0-0.5,0-0.6-0.1c-0.2-0.1-0.3-0.2-0.5-0.4c-0.1-0.2-0.2-0.4-0.3-0.7
			c-0.1-0.3-0.1-0.6-0.1-1c0-0.4,0-0.8,0.1-1.1c0.1-0.3,0.2-0.5,0.3-0.7c0.2-0.2,0.3-0.3,0.5-0.4c0.2-0.1,0.4-0.1,0.6-0.1
			c0.2,0,0.4,0,0.6,0.1c0.2,0.1,0.4,0.2,0.5,0.4c0.1,0.2,0.2,0.4,0.3,0.7c0.1,0.3,0.1,0.6,0.1,1.1c0,0.5,0,0.8-0.1,1.1
			c-0.1,0.3-0.2,0.5-0.3,0.7C307.6,350.4,307.5,350.6,307.3,350.6 M309.6,345.8c-0.7-0.7-1.6-1-2.9-1c-1.2,0-2.2,0.3-2.9,1
			c-0.7,0.7-1,1.6-1,2.8c0,1.2,0.3,2.1,1,2.8c0.7,0.7,1.6,1,2.9,1c1.2,0,2.2-0.3,2.9-1c0.7-0.7,1-1.6,1-2.8
			C310.6,347.4,310.3,346.5,309.6,345.8 M298.4,350.1c-0.3,0.4-0.7,0.5-1.3,0.5c-0.2,0-0.3,0-0.5,0c-0.2,0-0.3-0.1-0.5-0.1v-3.6
			c0.2-0.1,0.4-0.2,0.7-0.3c0.2-0.1,0.5-0.1,0.7-0.1c0.5,0,0.9,0.2,1.1,0.5c0.2,0.3,0.4,0.8,0.4,1.5
			C298.8,349.2,298.7,349.7,298.4,350.1 M300.5,345.8c-0.5-0.7-1.2-1-2.1-1c-0.5,0-0.9,0.1-1.3,0.3c-0.4,0.2-0.7,0.4-1.1,0.7V345
			h-2.3v9.7h2.3v-3c0.3,0.2,0.6,0.3,0.9,0.4c0.3,0.1,0.6,0.1,1,0.1c0.4,0,0.9-0.1,1.2-0.3c0.4-0.2,0.7-0.4,1-0.7
			c0.3-0.3,0.5-0.7,0.7-1.2c0.2-0.5,0.3-1,0.3-1.6C301.2,347.3,301,346.4,300.5,345.8 M288.4,350.6c-0.2,0.1-0.4,0.1-0.6,0.1
			c-0.2,0-0.5,0-0.6-0.1c-0.2-0.1-0.3-0.2-0.5-0.4c-0.1-0.2-0.2-0.4-0.3-0.7c-0.1-0.3-0.1-0.6-0.1-1c0-0.4,0-0.8,0.1-1.1
			c0.1-0.3,0.2-0.5,0.3-0.7c0.2-0.2,0.3-0.3,0.5-0.4c0.2-0.1,0.4-0.1,0.6-0.1s0.4,0,0.6,0.1c0.2,0.1,0.4,0.2,0.5,0.4
			c0.1,0.2,0.2,0.4,0.3,0.7c0.1,0.3,0.1,0.6,0.1,1.1c0,0.5,0,0.8-0.1,1.1c-0.1,0.3-0.2,0.5-0.3,0.7
			C288.7,350.4,288.6,350.6,288.4,350.6 M290.7,345.8c-0.7-0.7-1.6-1-2.9-1c-1.2,0-2.2,0.3-2.9,1c-0.7,0.7-1,1.6-1,2.8
			c0,1.2,0.3,2.1,1,2.8c0.7,0.7,1.6,1,2.9,1s2.2-0.3,2.9-1s1-1.6,1-2.8C291.7,347.4,291.3,346.5,290.7,345.8 M282.6,345
			c-0.1,0-0.2,0-0.3,0c-0.1,0-0.2,0-0.3,0c-0.3,0-0.7,0.1-1,0.2c-0.4,0.1-0.8,0.4-1.3,0.9v-1h-2.3v7.1h2.3v-4.8
			c0.3-0.1,0.6-0.2,0.8-0.2s0.5-0.1,0.9-0.1c0.1,0,0.3,0,0.5,0c0.2,0,0.4,0,0.5,0.1h0.2V345z M272.8,346.4c-0.1,0.2-0.2,0.3-0.3,0.5
			c-0.2,0.2-0.4,0.3-0.7,0.3c-0.3,0-0.6,0.1-1,0.1h-0.7v-2.8h0.4c0.4,0,0.7,0,1,0c0.2,0,0.5,0.1,0.7,0.2c0.2,0.1,0.4,0.2,0.5,0.4
			c0.1,0.2,0.2,0.4,0.2,0.7C272.9,346,272.9,346.2,272.8,346.4 M275.1,344.2c-0.2-0.4-0.5-0.7-0.9-1c-0.3-0.2-0.7-0.4-1.1-0.5
			c-0.4-0.1-0.9-0.2-1.5-0.2h-4v9.4h2.4V349h1.5c0.7,0,1.3-0.1,1.7-0.3c0.5-0.2,0.9-0.5,1.3-0.8c0.3-0.3,0.5-0.6,0.6-1
			c0.1-0.4,0.2-0.8,0.2-1.2C275.4,345.1,275.3,344.6,275.1,344.2"/>
	</g>
	<line class="st7" x1="301.9" y1="181.7" x2="301.9" y2="246.5"/>
	<line class="st8" x1="296" y1="246.5" x2="307.9" y2="246.5"/>
	<polyline class="st7" points="463.4,245.5 463.4,221 141.7,220 141.7,245.5 	"/>
	<line class="st9" x1="468.2" y1="245.5" x2="458.7" y2="245.5"/>
	<line class="st9" x1="146.5" y1="245.5" x2="137" y2="245.5"/>
	<g>
		<defs>
			<rect id="SVGID_5_" x="12.8" y="49.4" width="574.5" height="501.3"/>
		</defs>
		<clipPath id="SVGID_6_">
			<use xlink:href="#SVGID_5_"  style="overflow:visible;"/>
		</clipPath>
		<path class="st16" d="M392.5,158.9h2.9v-6.2c0-1.1-0.4-1.9-1.1-2.4c-0.7-0.5-1.9-0.8-3.6-0.8c-0.7,0-1.4,0.1-2.1,0.2
			c-0.7,0.1-1.2,0.2-1.5,0.3v2.2h0.3c0.2-0.1,0.6-0.2,1.2-0.4c0.5-0.2,1.1-0.3,1.5-0.3c0.8,0,1.4,0.1,1.8,0.3c0.4,0.2,0.6,0.5,0.6,1
			v0c-0.9,0-1.7,0.1-2.5,0.2c-0.8,0.1-1.5,0.3-2,0.5c-0.5,0.2-1,0.6-1.3,1c-0.3,0.4-0.4,1-0.4,1.6c0,0.8,0.3,1.5,0.9,2
			c0.6,0.5,1.3,0.8,2.2,0.8c0.4,0,0.7,0,1-0.1c0.3-0.1,0.6-0.2,0.9-0.3c0.2-0.1,0.4-0.2,0.7-0.4c0.2-0.2,0.4-0.3,0.6-0.4V158.9z
			 M391.7,157c-0.3,0.1-0.6,0.2-0.9,0.2c-0.4,0-0.6,0-0.8-0.1c-0.2-0.1-0.3-0.1-0.4-0.2c-0.1-0.1-0.2-0.2-0.2-0.3c0-0.1,0-0.3,0-0.5
			c0-0.3,0.1-0.5,0.2-0.7c0.2-0.2,0.4-0.3,0.7-0.4c0.2-0.1,0.6-0.1,1-0.2c0.5-0.1,0.9-0.1,1.3-0.1v1.9
			C392.3,156.7,392,156.9,391.7,157 M382.2,145.4l-2,3.2h2l2.8-3v-0.2H382.2z M383.7,149.9h-2.9v9.1h2.9V149.9z M379.1,146.4
			c-0.3,0-0.6-0.1-0.9-0.1c-0.4,0-0.7,0-1.2,0c-1.2,0-2.1,0.3-2.7,0.8c-0.6,0.6-0.9,1.4-0.9,2.5v0.2h-1.2v2h1.2v7.1h2.9v-7.1h2.1v-2
			h-2.2v-0.1c0-0.6,0.1-1,0.3-1.2c0.2-0.2,0.6-0.3,1.2-0.3c0.2,0,0.5,0,0.7,0.1c0.2,0,0.4,0.1,0.5,0.1h0.2V146.4z M366.4,157
			c-0.2,0.1-0.5,0.1-0.8,0.1c-0.3,0-0.6,0-0.8-0.1s-0.4-0.2-0.6-0.5c-0.2-0.2-0.3-0.5-0.4-0.9c-0.1-0.4-0.1-0.8-0.1-1.3
			c0-0.6,0.1-1,0.2-1.4c0.1-0.4,0.2-0.7,0.4-0.9c0.2-0.2,0.4-0.4,0.6-0.5c0.2-0.1,0.5-0.1,0.7-0.1c0.3,0,0.5,0,0.8,0.1
			c0.2,0.1,0.4,0.2,0.6,0.5c0.2,0.2,0.3,0.5,0.4,0.9c0.1,0.4,0.1,0.8,0.1,1.3c0,0.6,0,1-0.1,1.4c-0.1,0.3-0.2,0.6-0.4,0.8
			C366.8,156.8,366.6,157,366.4,157 M369.2,150.9c-0.9-0.9-2.1-1.3-3.7-1.3c-1.6,0-2.8,0.4-3.7,1.3c-0.9,0.9-1.3,2-1.3,3.5
			c0,1.5,0.4,2.7,1.3,3.5c0.9,0.9,2.1,1.3,3.7,1.3s2.8-0.4,3.7-1.3c0.9-0.9,1.3-2,1.3-3.5C370.5,152.9,370.1,151.7,369.2,150.9
			 M358.2,154.4c-0.4-0.4-0.9-0.7-1.7-0.9c-0.3-0.1-0.7-0.2-1-0.2c-0.3-0.1-0.7-0.1-1-0.2c-0.5-0.1-0.9-0.2-1-0.3s-0.2-0.3-0.2-0.5
			c0-0.2,0.2-0.4,0.5-0.5c0.3-0.1,0.7-0.2,1.2-0.2c0.6,0,1.1,0.1,1.7,0.3c0.6,0.2,1,0.4,1.5,0.7h0.2v-2.3c-0.3-0.2-0.8-0.3-1.5-0.4
			c-0.6-0.1-1.3-0.2-1.9-0.2c-1.4,0-2.6,0.3-3.4,0.9c-0.8,0.6-1.2,1.3-1.2,2.2c0,0.7,0.2,1.2,0.6,1.7c0.4,0.5,1,0.8,1.8,1
			c0.3,0.1,0.6,0.2,1,0.2c0.4,0.1,0.7,0.1,0.9,0.2c0.5,0.1,0.8,0.2,0.9,0.3c0.2,0.1,0.2,0.3,0.2,0.5c0,0.2-0.1,0.4-0.4,0.6
			c-0.3,0.1-0.7,0.2-1.3,0.2c-0.4,0-0.8,0-1.2-0.1c-0.4-0.1-0.7-0.2-1-0.3c-0.4-0.1-0.6-0.3-0.8-0.4c-0.2-0.1-0.4-0.2-0.5-0.3h-0.3
			v2.4c0.4,0.2,0.9,0.3,1.6,0.5c0.7,0.2,1.4,0.2,2.2,0.2c1.5,0,2.6-0.3,3.4-0.9c0.8-0.6,1.3-1.3,1.3-2.3
			C358.8,155.4,358.6,154.9,358.2,154.4 M344,157c-0.2,0.1-0.5,0.1-0.8,0.1c-0.3,0-0.6,0-0.8-0.1c-0.2-0.1-0.4-0.2-0.6-0.5
			c-0.2-0.2-0.3-0.5-0.4-0.9c-0.1-0.4-0.1-0.8-0.1-1.3c0-0.6,0.1-1,0.2-1.4c0.1-0.4,0.2-0.7,0.4-0.9c0.2-0.2,0.4-0.4,0.6-0.5
			c0.2-0.1,0.5-0.1,0.7-0.1c0.3,0,0.5,0,0.8,0.1c0.2,0.1,0.4,0.2,0.6,0.5c0.2,0.2,0.3,0.5,0.4,0.9c0.1,0.4,0.1,0.8,0.1,1.3
			c0,0.6,0,1-0.1,1.4c-0.1,0.3-0.2,0.6-0.4,0.8C344.5,156.8,344.3,157,344,157 M346.9,150.9c-0.9-0.9-2.1-1.3-3.7-1.3
			c-1.6,0-2.8,0.4-3.7,1.3c-0.9,0.9-1.3,2-1.3,3.5c0,1.5,0.4,2.7,1.3,3.5c0.9,0.9,2.1,1.3,3.7,1.3c1.6,0,2.8-0.4,3.7-1.3
			c0.9-0.9,1.3-2,1.3-3.5C348.2,152.9,347.8,151.7,346.9,150.9 M335.6,146.4h-2.9v12.6h2.9V146.4z M329.5,146.4h-3.1v2.2h3.1V146.4z
			 M329.4,149.9h-2.9v9.1h2.9V149.9z M324.8,146.4c-0.3,0-0.6-0.1-0.9-0.1c-0.4,0-0.7,0-1.2,0c-1.2,0-2.1,0.3-2.7,0.8
			c-0.6,0.6-0.9,1.4-0.9,2.5v0.2h-1.2v2h1.2v7.1h2.9v-7.1h2.1v-2h-2.2v-0.1c0-0.6,0.1-1,0.3-1.2c0.2-0.2,0.6-0.3,1.2-0.3
			c0.2,0,0.5,0,0.7,0.1s0.4,0.1,0.5,0.1h0.2V146.4z M306.5,158.9h2.9v-6.2c0-1.1-0.4-1.9-1.1-2.4c-0.7-0.5-1.9-0.8-3.6-0.8
			c-0.7,0-1.4,0.1-2.1,0.2c-0.7,0.1-1.2,0.2-1.5,0.3v2.2h0.3c0.2-0.1,0.6-0.2,1.2-0.4c0.5-0.2,1.1-0.3,1.5-0.3
			c0.8,0,1.4,0.1,1.8,0.3c0.4,0.2,0.6,0.5,0.6,1v0c-0.9,0-1.7,0.1-2.5,0.2c-0.8,0.1-1.5,0.3-2,0.5c-0.5,0.2-1,0.6-1.3,1
			c-0.3,0.4-0.4,1-0.4,1.6c0,0.8,0.3,1.5,0.9,2c0.6,0.5,1.3,0.8,2.2,0.8c0.4,0,0.7,0,1-0.1c0.3-0.1,0.6-0.2,0.9-0.3
			c0.2-0.1,0.4-0.2,0.7-0.4c0.2-0.2,0.4-0.3,0.6-0.4V158.9z M305.8,157c-0.3,0.1-0.6,0.2-0.9,0.2c-0.4,0-0.6,0-0.8-0.1
			c-0.2-0.1-0.3-0.1-0.4-0.2c-0.1-0.1-0.2-0.2-0.2-0.3c0-0.1,0-0.3,0-0.5c0-0.3,0.1-0.5,0.2-0.7c0.2-0.2,0.4-0.3,0.7-0.4
			c0.2-0.1,0.6-0.1,1-0.2c0.5-0.1,0.9-0.1,1.3-0.1v1.9C306.3,156.7,306.1,156.9,305.8,157 M298.8,149.9c-0.1,0-0.2,0-0.3,0
			c-0.1,0-0.2,0-0.3,0c-0.4,0-0.8,0.1-1.3,0.3c-0.5,0.2-1,0.5-1.7,1.1v-1.3h-2.9v9.1h2.9v-6.1c0.4-0.1,0.7-0.2,1-0.3
			c0.3-0.1,0.7-0.1,1.1-0.1c0.2,0,0.4,0,0.7,0c0.3,0,0.5,0.1,0.6,0.1h0.3V149.9z M289.9,156.9h-0.2c-0.1,0.1-0.3,0.1-0.5,0.2
			c-0.2,0.1-0.4,0.1-0.6,0.1c-0.4,0-0.6-0.1-0.8-0.2c-0.2-0.1-0.3-0.3-0.4-0.4c-0.1-0.2-0.1-0.4-0.1-0.6c0-0.2,0-0.5,0-0.8v-3.2h2.7
			v-2h-2.7v-2.6h-2.9v2.6h-1.2v2h1.2v4.2c0,1.1,0.3,1.9,0.8,2.3c0.6,0.5,1.4,0.7,2.5,0.7c0.5,0,0.9,0,1.3-0.1c0.4,0,0.7-0.1,1-0.2
			V156.9z M281.1,154.4c-0.4-0.4-0.9-0.7-1.7-0.9c-0.3-0.1-0.7-0.2-1-0.2c-0.3-0.1-0.7-0.1-1-0.2c-0.5-0.1-0.9-0.2-1-0.3
			c-0.1-0.1-0.2-0.3-0.2-0.5c0-0.2,0.2-0.4,0.5-0.5c0.3-0.1,0.7-0.2,1.2-0.2c0.6,0,1.1,0.1,1.7,0.3c0.6,0.2,1,0.4,1.5,0.7h0.2v-2.3
			c-0.3-0.2-0.8-0.3-1.5-0.4c-0.6-0.1-1.3-0.2-1.9-0.2c-1.4,0-2.6,0.3-3.4,0.9c-0.8,0.6-1.2,1.3-1.2,2.2c0,0.7,0.2,1.2,0.6,1.7
			c0.4,0.5,1,0.8,1.8,1c0.3,0.1,0.6,0.2,1,0.2c0.4,0.1,0.7,0.1,0.9,0.2c0.5,0.1,0.8,0.2,0.9,0.3c0.2,0.1,0.2,0.3,0.2,0.5
			c0,0.2-0.1,0.4-0.4,0.6c-0.3,0.1-0.7,0.2-1.3,0.2c-0.4,0-0.8,0-1.2-0.1c-0.4-0.1-0.7-0.2-1-0.3c-0.4-0.1-0.6-0.3-0.8-0.4
			c-0.2-0.1-0.4-0.2-0.5-0.3h-0.3v2.4c0.4,0.2,0.9,0.3,1.6,0.5c0.7,0.2,1.4,0.2,2.2,0.2c1.5,0,2.6-0.3,3.4-0.9
			c0.8-0.6,1.3-1.3,1.3-2.3C281.6,155.4,281.4,154.9,281.1,154.4 M264.4,153.2c0-0.6,0.2-1.1,0.6-1.4c0.4-0.3,0.8-0.4,1.4-0.4
			c0.6,0,1,0.2,1.3,0.5s0.4,0.8,0.5,1.4H264.4z M271.1,153.9c0-1.4-0.4-2.5-1.1-3.2c-0.7-0.7-1.9-1.1-3.3-1.1
			c-1.6,0-2.9,0.4-3.8,1.3c-0.9,0.9-1.4,2.1-1.4,3.6c0,1.5,0.5,2.7,1.5,3.5c1,0.8,2.4,1.2,4.2,1.2c0.7,0,1.3-0.1,1.9-0.2
			c0.6-0.1,1.2-0.3,1.9-0.6v-2.3h-0.3c-0.3,0.3-0.8,0.5-1.4,0.7c-0.6,0.2-1.2,0.3-1.8,0.3c-1,0-1.7-0.2-2.2-0.6
			c-0.5-0.4-0.8-0.9-0.8-1.6h6.7V153.9z M258.9,149.9h-2.9v6.4c-0.3,0.2-0.6,0.3-0.9,0.4c-0.3,0.1-0.6,0.1-0.8,0.1
			c-0.4,0-0.7,0-0.9-0.1c-0.2-0.1-0.4-0.2-0.5-0.4c-0.1-0.2-0.2-0.5-0.2-0.8c0-0.3,0-0.7,0-1.1v-4.5h-2.9v5.9c0,1.1,0.3,2,0.8,2.6
			c0.5,0.6,1.3,0.9,2.3,0.9c0.6,0,1.1-0.1,1.6-0.3c0.4-0.2,0.9-0.5,1.5-0.9v1h2.9V149.9z M246.3,146.9h-2.8v6.9l-4.4-6.9h-3.7v12
			h2.8v-8.3l5.1,8.3h3V146.9z M219.7,153.2c0-0.6,0.2-1.1,0.6-1.4c0.4-0.3,0.8-0.4,1.4-0.4c0.6,0,1,0.2,1.3,0.5
			c0.3,0.3,0.4,0.8,0.5,1.4H219.7z M226.4,153.9c0-1.4-0.4-2.5-1.1-3.2c-0.7-0.7-1.9-1.1-3.3-1.1c-1.6,0-2.9,0.4-3.8,1.3
			c-0.9,0.9-1.4,2.1-1.4,3.6c0,1.5,0.5,2.7,1.5,3.5c1,0.8,2.4,1.2,4.2,1.2c0.7,0,1.3-0.1,1.9-0.2c0.6-0.1,1.2-0.3,1.9-0.6v-2.3h-0.3
			c-0.3,0.3-0.8,0.5-1.4,0.7c-0.6,0.2-1.2,0.3-1.8,0.3c-1,0-1.7-0.2-2.2-0.6c-0.5-0.4-0.8-0.9-0.8-1.6h6.7V153.9z M210.4,156.8
			c-0.3,0.1-0.6,0.1-0.8,0.1c-0.7,0-1.2-0.2-1.5-0.6c-0.3-0.4-0.5-1-0.5-1.9c0-0.8,0.2-1.5,0.6-2c0.4-0.5,1-0.7,1.7-0.7
			c0.2,0,0.4,0,0.6,0.1c0.2,0,0.4,0.1,0.6,0.2v4.5C211,156.6,210.7,156.7,210.4,156.8 M214.1,146.4h-2.9v3.9
			c-0.4-0.2-0.7-0.3-1.1-0.4c-0.3-0.1-0.8-0.2-1.3-0.2c-0.5,0-1,0.1-1.6,0.3c-0.5,0.2-1,0.5-1.3,0.9c-0.4,0.4-0.7,0.9-0.9,1.5
			c-0.2,0.6-0.3,1.3-0.3,2c0,1.4,0.3,2.6,1,3.4c0.7,0.9,1.5,1.3,2.6,1.3c0.6,0,1.1-0.1,1.5-0.3c0.4-0.2,0.9-0.5,1.4-0.9v0.9h2.9
			V146.4z"/>
		<path class="st16" d="M365,130.8c-0.4-0.4-0.9-0.7-1.7-0.9c-0.3-0.1-0.7-0.2-1-0.2c-0.3-0.1-0.7-0.1-1-0.2c-0.5-0.1-0.9-0.2-1-0.3
			c-0.1-0.1-0.2-0.3-0.2-0.5c0-0.2,0.2-0.4,0.5-0.5c0.3-0.1,0.7-0.2,1.2-0.2c0.6,0,1.1,0.1,1.7,0.3c0.6,0.2,1,0.4,1.5,0.7h0.2v-2.3
			c-0.4-0.2-0.8-0.3-1.5-0.4c-0.6-0.1-1.3-0.2-2-0.2c-1.4,0-2.6,0.3-3.4,0.9c-0.8,0.6-1.2,1.3-1.2,2.2c0,0.7,0.2,1.2,0.6,1.7
			c0.4,0.5,1,0.8,1.8,1c0.3,0.1,0.6,0.1,1,0.2c0.4,0.1,0.7,0.1,0.9,0.2c0.5,0.1,0.8,0.2,0.9,0.3c0.2,0.1,0.2,0.3,0.2,0.5
			c0,0.2-0.1,0.4-0.4,0.6c-0.3,0.1-0.7,0.2-1.3,0.2c-0.4,0-0.8,0-1.2-0.1c-0.4-0.1-0.7-0.2-1-0.3c-0.4-0.1-0.6-0.3-0.8-0.4
			c-0.2-0.1-0.4-0.2-0.5-0.3h-0.3v2.4c0.4,0.2,0.9,0.3,1.6,0.5c0.7,0.2,1.4,0.2,2.2,0.2c1.5,0,2.6-0.3,3.4-0.9
			c0.8-0.6,1.3-1.3,1.3-2.3C365.6,131.8,365.4,131.3,365,130.8 M350.9,133.4c-0.2,0.1-0.5,0.1-0.8,0.1c-0.3,0-0.6,0-0.8-0.1
			c-0.2-0.1-0.4-0.2-0.6-0.5c-0.2-0.2-0.3-0.5-0.4-0.9c-0.1-0.4-0.1-0.8-0.1-1.3c0-0.6,0.1-1,0.2-1.4c0.1-0.4,0.2-0.7,0.4-0.9
			c0.2-0.2,0.4-0.4,0.6-0.5c0.2-0.1,0.5-0.1,0.7-0.1c0.3,0,0.5,0,0.8,0.1c0.2,0.1,0.4,0.2,0.6,0.5c0.2,0.2,0.3,0.5,0.4,0.9
			c0.1,0.4,0.1,0.8,0.1,1.3c0,0.6,0,1-0.1,1.4c-0.1,0.3-0.2,0.6-0.4,0.8C351.3,133.2,351.1,133.3,350.9,133.4 M353.7,127.2
			c-0.9-0.9-2.1-1.3-3.7-1.3c-1.6,0-2.8,0.4-3.7,1.3c-0.9,0.9-1.3,2-1.3,3.5c0,1.5,0.4,2.7,1.3,3.5c0.9,0.9,2.1,1.3,3.7,1.3
			c1.6,0,2.8-0.4,3.7-1.3c0.9-0.9,1.3-2,1.3-3.5C355,129.3,354.6,128.1,353.7,127.2 M343.5,133.2h-0.2c-0.1,0.1-0.3,0.1-0.5,0.2
			c-0.2,0.1-0.4,0.1-0.6,0.1c-0.4,0-0.6-0.1-0.8-0.2c-0.2-0.1-0.3-0.3-0.4-0.4c-0.1-0.2-0.1-0.4-0.1-0.6c0-0.2,0-0.5,0-0.8v-3.2h2.7
			v-2h-2.7v-2.6h-2.9v2.6h-1.2v2h1.2v4.2c0,1.1,0.3,1.9,0.8,2.3c0.6,0.5,1.4,0.7,2.5,0.7c0.5,0,0.9,0,1.3-0.1c0.4,0,0.7-0.1,1-0.2
			V133.2z M334.4,129.4c0-1.1-0.3-2-0.8-2.6c-0.6-0.6-1.3-0.9-2.3-0.9c-0.6,0-1.1,0.1-1.6,0.3c-0.5,0.2-1,0.5-1.5,0.9v-1h-2.9v9.1
			h2.9v-6.4c0.3-0.2,0.6-0.3,0.9-0.4c0.3-0.1,0.5-0.1,0.8-0.1c0.4,0,0.7,0,0.9,0.1c0.2,0.1,0.4,0.2,0.5,0.4c0.1,0.2,0.2,0.4,0.2,0.8
			c0,0.4,0.1,0.7,0.1,1.1v4.5h2.9V129.4z M316,129.6c0-0.6,0.2-1.1,0.6-1.4c0.4-0.3,0.8-0.4,1.4-0.4c0.6,0,1,0.2,1.3,0.5
			c0.3,0.3,0.4,0.8,0.5,1.4H316z M322.7,130.3c0-1.4-0.4-2.5-1.1-3.2c-0.7-0.7-1.9-1.1-3.3-1.1c-1.6,0-2.9,0.4-3.8,1.3
			c-0.9,0.9-1.4,2.1-1.4,3.6c0,1.5,0.5,2.7,1.5,3.5c1,0.8,2.4,1.2,4.2,1.2c0.7,0,1.3-0.1,1.9-0.2c0.6-0.1,1.2-0.3,1.9-0.6v-2.3h-0.3
			c-0.3,0.3-0.8,0.5-1.4,0.7c-0.6,0.2-1.2,0.3-1.8,0.3c-1,0-1.7-0.2-2.2-0.6c-0.5-0.4-0.8-0.9-0.8-1.6h6.7V130.3z M305.4,128.5
			c0.2-0.1,0.5-0.1,0.7-0.1c0.4,0,0.6,0,0.8,0.1c0.2,0.1,0.3,0.2,0.4,0.4c0.1,0.2,0.2,0.4,0.2,0.8c0,0.3,0,0.7,0,1.1v4.5h2.9v-5.9
			c0-1.1-0.3-1.9-0.8-2.5c-0.5-0.6-1.3-0.9-2.2-0.9c-0.5,0-1.1,0.1-1.6,0.4c-0.5,0.3-1.1,0.7-1.7,1.2c-0.3-0.5-0.6-0.9-1.1-1.2
			c-0.5-0.3-1-0.4-1.6-0.4c-0.6,0-1.1,0.1-1.5,0.3c-0.5,0.2-0.9,0.5-1.4,0.9v-1h-2.9v9.1h2.9v-6.4c0.2-0.1,0.5-0.3,0.7-0.4
			c0.3-0.1,0.5-0.2,0.8-0.2c0.4,0,0.6,0,0.8,0.1c0.2,0.1,0.3,0.2,0.4,0.4c0.1,0.2,0.2,0.4,0.2,0.8c0,0.3,0,0.7,0,1.1v4.5h2.9v-6.4
			C304.8,128.7,305.1,128.5,305.4,128.5 M289.5,135.3h2.9v-6.2c0-1.1-0.4-1.9-1.1-2.4c-0.7-0.5-1.9-0.8-3.6-0.8
			c-0.7,0-1.4,0.1-2.1,0.2c-0.7,0.1-1.2,0.2-1.5,0.3v2.2h0.3c0.2-0.1,0.6-0.2,1.2-0.4c0.5-0.2,1.1-0.3,1.5-0.3
			c0.8,0,1.4,0.1,1.8,0.3c0.4,0.2,0.6,0.5,0.6,1v0c-0.9,0-1.7,0.1-2.5,0.2c-0.8,0.1-1.5,0.3-2,0.5c-0.5,0.2-1,0.6-1.3,1
			c-0.3,0.4-0.4,1-0.4,1.6c0,0.8,0.3,1.5,0.9,2c0.6,0.5,1.3,0.8,2.2,0.8c0.4,0,0.7,0,1-0.1c0.3-0.1,0.6-0.2,0.9-0.3
			c0.2-0.1,0.4-0.2,0.7-0.4c0.2-0.2,0.4-0.3,0.6-0.4V135.3z M288.7,133.4c-0.3,0.1-0.6,0.2-0.9,0.2c-0.4,0-0.6,0-0.8-0.1
			c-0.2-0.1-0.3-0.1-0.4-0.2c-0.1-0.1-0.2-0.2-0.2-0.3c0-0.1,0-0.3,0-0.5c0-0.3,0.1-0.5,0.2-0.7c0.2-0.2,0.4-0.3,0.7-0.4
			c0.2-0.1,0.6-0.1,1-0.2c0.5-0.1,0.9-0.1,1.3-0.1v1.9C289.3,133.1,289,133.3,288.7,133.4 M277,133.2c-0.3,0.1-0.6,0.1-0.8,0.1
			c-0.7,0-1.2-0.2-1.5-0.6c-0.3-0.4-0.5-1-0.5-1.9c0-0.8,0.2-1.5,0.6-2c0.4-0.5,1-0.7,1.7-0.7c0.2,0,0.4,0,0.6,0.1
			c0.2,0,0.4,0.1,0.6,0.2v4.5C277.6,133,277.3,133.1,277,133.2 M280.7,122.7h-2.9v3.9c-0.4-0.2-0.7-0.3-1.1-0.4
			c-0.3-0.1-0.8-0.2-1.3-0.2c-0.5,0-1,0.1-1.6,0.3c-0.5,0.2-1,0.5-1.3,0.9c-0.4,0.4-0.7,0.9-0.9,1.5c-0.2,0.6-0.3,1.3-0.3,2
			c0,1.4,0.3,2.6,1,3.4c0.7,0.9,1.5,1.3,2.6,1.3c0.6,0,1.1-0.1,1.5-0.3s0.9-0.5,1.4-0.9v0.9h2.9V122.7z M268.6,129.4
			c0-1.1-0.3-2-0.8-2.6c-0.6-0.6-1.3-0.9-2.3-0.9c-0.6,0-1.1,0.1-1.6,0.3c-0.5,0.2-1,0.5-1.5,0.9v-1h-2.9v9.1h2.9v-6.4
			c0.3-0.2,0.6-0.3,0.9-0.4c0.3-0.1,0.5-0.1,0.8-0.1c0.4,0,0.7,0,0.9,0.1c0.2,0.1,0.4,0.2,0.5,0.4c0.1,0.2,0.2,0.4,0.2,0.8
			c0,0.4,0.1,0.7,0.1,1.1v4.5h2.9V129.4z M256.2,126.2h-2.9v6.4c-0.3,0.2-0.6,0.3-0.9,0.4c-0.3,0.1-0.6,0.1-0.8,0.1
			c-0.4,0-0.7,0-0.9-0.1c-0.2-0.1-0.4-0.2-0.5-0.4c-0.1-0.2-0.2-0.5-0.2-0.8c0-0.3,0-0.7,0-1.1v-4.5h-2.9v5.9c0,1.1,0.3,2,0.8,2.6
			c0.5,0.6,1.3,0.9,2.3,0.9c0.6,0,1.2-0.1,1.6-0.3c0.4-0.2,0.9-0.5,1.5-0.9v1h2.9V126.2z M244.6,123.3H236v12h3.1v-5.1h5.1v-2.3
			h-5.1v-2.2h5.5V123.3z"/>
		<path class="st17" d="M154.9,50.4C70.6,99.7,14,191.1,14,295.8c0,110.9,63.6,207,156.3,253.7"/>
		<path class="st17" d="M445.1,50.4C529.4,99.7,586,191.1,586,295.8c0,110.9-63.6,207-156.3,253.7"/>
		<path class="st18" d="M122.4,323.4h21.9c-0.3,0.6-0.5,1.2-0.5,2c0,0.7,0.2,1.4,0.5,2h-21.9c-0.5,0-1.8-0.6-1.8-2
			C120.6,324.2,121.5,323.4,122.4,323.4 M129.8,314.3c-0.7,0-1.3,0.6-1.3,1.3c0,0.6,0.7,1.2,1.4,1.1h16.9c0.7,0,1.4-0.6,1.4-1.2
			c0-0.6-0.6-1.2-1.4-1.2H129.8z M129.8,308.7c-0.7,0-1.3,0.6-1.3,1.3c0,0.6,0.7,1.2,1.4,1.1h16.9c0.7,0,1.4-0.6,1.4-1.2
			c0-0.6-0.6-1.2-1.4-1.2H129.8z M129.8,303.1c-0.7,0-1.3,0.6-1.3,1.3c0,0.6,0.7,1.2,1.4,1.1h16.9c0.7,0,1.4-0.6,1.4-1.2
			c0-0.6-0.6-1.2-1.4-1.2H129.8z M129.8,297.6c-0.7,0-1.3,0.6-1.3,1.3c0,0.6,0.7,1.2,1.4,1.1h16.9c0.7,0,1.4-0.6,1.4-1.2
			c0-0.6-0.6-1.2-1.4-1.2H129.8z M156.3,294.4c1.3,0,1.8,0.7,2,1.6h-4.1C154.4,294.9,155.2,294.4,156.3,294.4 M127.8,294.4h24.1
			c-0.6,1.3-0.5,2.6-0.5,4v26.3c0,0.9-0.3,1.6-0.8,2c-0.5,0.5-1.2,0.7-2.3,0.7c-0.5,0-1.8-0.6-1.8-2c0-1.4,1.3-2,1.8-2
			c0.7,0,1.3-0.6,1.3-1.2c0-0.6-0.6-1.2-1.3-1.2h-22.7v-24.7c0-0.4,0.3-0.9,0.7-1.4C126.7,294.6,127.3,294.4,127.8,294.4z
			 M127.8,292c-1.3,0-2.5,0.6-3.4,1.3c-0.9,0.8-1.5,1.8-1.5,3V321c-2.7,0.1-4.9,2.3-4.9,4.4c0,2.5,2.1,4.3,4.2,4.4
			c8.7,0,17.4,0,26.1,0c1.6,0,3.1-0.5,4.2-1.4c1-0.9,1.6-2.3,1.6-3.7v-26.3h7.1c0-2.8-0.2-4-1.5-5.2c-1-0.9-2.3-1.1-3.4-1.1
			C146.3,292,136.3,292,127.8,292z"/>
		<path class="st19" d="M471.5,305.8c0.4,0.6,0.7,1.2,0.9,1.9c0.1,0.4,0.4,0.7,0.8,0.8c0.7,0.2,1.4,0.5,1.9,0.9
			c-0.6,0.4-1.2,0.7-1.9,0.8c-0.4,0.1-0.7,0.4-0.8,0.8c-0.2,0.7-0.5,1.4-0.9,1.9c-0.4-0.6-0.7-1.2-0.9-1.9c-0.1-0.4-0.4-0.7-0.8-0.8
			c-0.7-0.2-1.4-0.5-1.9-0.8c0.6-0.4,1.2-0.7,1.9-0.9c0.4-0.1,0.7-0.4,0.8-0.8C470.8,306.9,471.2,306.3,471.5,305.8 M488.2,303.1
			c-1.3,0.1-2.5,1-2.5,2.4c0,0.1,0,0.2,0,0.3l0.3,6.2c-1-0.6-2.5-0.6-3.6,0.3c-1.8,1.5-3.7,2.9-5.5,4.2c-1.1,0.8-1.9,1.4-2.6,2.3
			c-1.4,2-1.2,4.8-1.2,5.9v7.9c0,0.6,0.5,1.1,1.1,1.1c0.6,0,1.1-0.5,1.1-1.1v-7.9v0c0-1.1,0.2-3.7,0.9-4.6c0.5-0.7,1-1.1,2.1-1.9
			c2.3-1.6,4-2.9,5.6-4.3c0.6-0.4,0.9-0.4,1.2-0.2c0.7,0.6,1.1,1.6,0.8,1.9c-1.2,1.1-2.5,2.3-3.7,3.4c-0.4,0.4-0.4,1.1-0.1,1.5
			c0.4,0.4,1.1,0.4,1.5,0.1l4.5-4.1c0.2-0.2,0.4-0.5,0.3-0.8c-0.2-3.3-0.4-6.7-0.5-10c0-0.1,1.3-1.3,1.6,0.3
			c0.4,3.8,0.7,7.6,1.1,11.4c0,0,0,0,0,0c0,1-0.7,1.8-1.2,2.4c-2.5,2.6-5.6,4.5-7.5,7c-0.2,0.2-0.2,0.5-0.2,0.7l0.5,5.3
			c0.1,0.5,0.6,1,1.2,0.9c0.5-0.1,1-0.6,0.9-1.2l-0.5-4.8c2.2-2.5,4.9-4.5,7-6.5c0.5-0.5,1.8-1.9,1.9-3.9c0,0,0-0.1,0-0.1
			c-0.4-3.9-0.6-7.8-1.1-11.6C491.2,303.7,489.6,302.9,488.2,303.1z M454.3,303.1c-1.2,0.1-2.3,0.7-2.7,2.1c-0.1,0.5-0.1,1-0.2,1.5
			c-0.3,3.5-0.7,7-0.9,10.5c0,2,1.4,3.4,1.9,3.9c2.3,2.3,5.2,4,7,6.5l-0.5,4.8c-0.1,0.6,0.4,1.1,0.9,1.2c0.6,0.1,1.1-0.4,1.2-0.9
			l0.5-5.3c0-0.3-0.1-0.5-0.2-0.7c-1.9-2.5-4.8-4.5-7-6.5c-0.3-0.2-0.5-0.5-0.7-0.7c-0.5-0.6-1-1.3-1-2.2c0,0,0,0,0,0
			c0.4-3.8,0.7-7.6,1.1-11.4c0.3-1.6,1.6-0.3,1.6-0.3c-0.2,3.3-0.4,6.7-0.5,10c0,0.3,0.1,0.6,0.3,0.8l4.5,4.1
			c0.4,0.4,1.1,0.3,1.5-0.1c0.4-0.4,0.3-1.1-0.1-1.5l-3.7-3.4c0.1-0.1,0.1-0.3,0.1-0.4c0-0.7,0.4-1.3,0.7-1.5
			c0.3-0.2,0.6-0.3,1.2,0.2c1.8,1.5,3.7,2.9,5.6,4.3c1.1,0.8,1.6,1.1,2.1,1.9c0.7,0.9,0.9,3.6,0.9,4.6v0v7.9c0,0.6,0.5,1.1,1.1,1.1
			c0.6,0,1.1-0.5,1.1-1.1v-7.9c0-1,0.2-3.9-1.2-5.9c-0.7-1-1.5-1.5-2.6-2.3c-2.2-1.6-3.9-2.8-5.5-4.2c-1.1-0.9-2.6-0.9-3.6-0.3
			l0.3-6.2h0c0.2-1.5-1.1-2.5-2.5-2.6C454.6,303,454.5,303.1,454.3,303.1z M471.4,303c-0.2,0-0.4,0.1-0.6,0.3c-0.9,0.9-1.6,2-2,3.3
			c-1.3,0.4-2.5,1-3.4,2c-0.4,0.4-0.4,1,0,1.4c0.9,0.9,2.1,1.6,3.4,2c0.4,1.3,1,2.5,2,3.3c0.4,0.4,1.1,0.4,1.4,0
			c0.9-0.9,1.6-2,2-3.3c1.3-0.4,2.5-1,3.4-2c0.4-0.4,0.4-1,0-1.4c-0.9-0.9-2.1-1.6-3.4-2c-0.4-1.3-1-2.5-2-3.3
			C472,303.1,471.7,303,471.4,303 M480.5,297.3c0.2,0.4,0.4,0.8,0.5,1.2c0.1,0.4,0.4,0.7,0.8,0.8c0.5,0.1,0.9,0.3,1.2,0.5
			c-0.4,0.2-0.8,0.4-1.2,0.5c-0.4,0.1-0.7,0.4-0.8,0.8c-0.1,0.5-0.3,0.9-0.5,1.2c-0.2-0.4-0.4-0.8-0.5-1.2c-0.1-0.4-0.4-0.7-0.8-0.8
			c-0.5-0.1-0.9-0.3-1.2-0.5c0.4-0.2,0.8-0.4,1.2-0.5c0.4-0.1,0.7-0.4,0.8-0.8C480.1,298.1,480.3,297.7,480.5,297.3 M462.6,297.3
			c0.2,0.4,0.4,0.8,0.5,1.2c0.1,0.4,0.4,0.7,0.8,0.8c0.5,0.1,0.9,0.3,1.2,0.5c-0.4,0.2-0.8,0.4-1.2,0.5c-0.4,0.1-0.7,0.4-0.8,0.8
			c-0.1,0.5-0.3,0.9-0.5,1.2c-0.2-0.4-0.4-0.8-0.5-1.2c-0.1-0.4-0.4-0.7-0.8-0.8c-0.5-0.1-0.9-0.3-1.2-0.5c0.4-0.2,0.8-0.4,1.2-0.5
			c0.4-0.1,0.7-0.4,0.8-0.8C462.2,298.1,462.4,297.7,462.6,297.3 M480.3,294.6c-0.2,0-0.4,0.1-0.6,0.3c-0.7,0.7-1.2,1.6-1.6,2.7
			c-1,0.3-2,0.8-2.7,1.6c-0.4,0.4-0.4,1,0,1.4c0.7,0.7,1.6,1.3,2.7,1.6c0.3,1,0.8,2,1.6,2.7c0.4,0.4,1.1,0.4,1.4,0
			c0.7-0.7,1.2-1.6,1.6-2.7c1-0.3,2-0.8,2.7-1.6c0.4-0.4,0.4-1,0-1.4c-0.7-0.7-1.6-1.3-2.7-1.6c-0.3-1-0.8-2-1.6-2.7
			C481,294.7,480.6,294.5,480.3,294.6 M462.4,294.6c-0.2,0-0.4,0.1-0.6,0.3c-0.7,0.7-1.2,1.6-1.6,2.7c-1,0.3-2,0.8-2.7,1.6
			c-0.4,0.4-0.4,1,0,1.4c0.7,0.7,1.6,1.3,2.7,1.6c0.3,1,0.8,2,1.6,2.7c0.4,0.4,1.1,0.4,1.4,0c0.7-0.7,1.2-1.6,1.6-2.7
			c1-0.3,2-0.8,2.7-1.6c0.4-0.4,0.4-1,0-1.4c-0.7-0.7-1.6-1.3-2.7-1.6c-0.3-1-0.8-2-1.6-2.7C463.1,294.7,462.7,294.5,462.4,294.6
			 M471.5,291c0.2,0.4,0.4,0.8,0.5,1.2c0.1,0.4,0.4,0.7,0.8,0.8c0.5,0.1,0.9,0.3,1.2,0.5c-0.4,0.2-0.8,0.4-1.2,0.5
			c-0.4,0.1-0.7,0.4-0.8,0.8c-0.1,0.5-0.3,0.9-0.5,1.2c-0.2-0.4-0.4-0.8-0.5-1.2c-0.1-0.4-0.4-0.7-0.8-0.8c-0.5-0.1-0.9-0.3-1.2-0.5
			c0.4-0.2,0.8-0.4,1.2-0.5c0.4-0.1,0.7-0.4,0.8-0.8C471.2,291.8,471.3,291.4,471.5,291 M471.4,288.3c-0.2,0-0.4,0.1-0.6,0.3
			c-0.7,0.7-1.2,1.6-1.6,2.7c-1,0.3-2,0.8-2.7,1.6c-0.4,0.4-0.4,1,0,1.4c0.7,0.7,1.6,1.3,2.7,1.6c0.3,1,0.8,2,1.6,2.7
			c0.4,0.4,1.1,0.4,1.4,0c0.7-0.7,1.2-1.6,1.6-2.7c1-0.3,2-0.8,2.7-1.6c0.4-0.4,0.4-1,0-1.4c-0.7-0.7-1.6-1.3-2.7-1.6
			c-0.3-1-0.8-2-1.6-2.7C472,288.3,471.7,288.2,471.4,288.3"/>
		<path class="st20" d="M294.1,316.3c0.4,0,0.7-0.3,0.7-0.7c0-0.2-0.1-0.5-0.3-0.6c-6.7-4.4-8.6-13.4-4.1-20.1
			c3.9-5.9,11.6-8.1,18.1-5.2c0.4,0.2,0.8,0,0.9-0.4s0-0.8-0.4-0.9c-8-3.6-17.5,0-21.1,8c-3.2,7.1-0.8,15.5,5.8,19.8
			C293.8,316.2,293.9,316.3,294.1,316.3"/>
		<path class="st20" d="M316.2,296.1c-0.4,0.2-0.5,0.6-0.4,0.9c0.8,1.9,1.3,3.9,1.3,5.9c0,4.7-2.3,9.1-6.1,11.8
			c-0.3,0.2-0.3,0.7-0.1,1c0.2,0.3,0.6,0.3,0.9,0.2c4.2-3,6.7-7.8,6.7-13c0-2.2-0.5-4.5-1.4-6.5C317,296.1,316.6,295.9,316.2,296.1
			C316.2,296.1,316.2,296.1,316.2,296.1"/>
		<path class="st20" d="M302.6,294.1c1.5,0,3,0.4,4.3,1.1c0.3,0.2,0.8,0.2,1-0.2s0.2-0.8-0.2-1c-0.1,0-0.1-0.1-0.2-0.1
			c-5-2.7-11.3-0.9-14,4c-0.8,1.5-1.3,3.2-1.3,5c0,2.3,0.8,4.5,2.2,6.4c0.2,0.3,0.7,0.4,1,0.1c0.3-0.2,0.4-0.7,0.1-1
			c-1.2-1.6-1.9-3.5-1.9-5.5C293.7,298.1,297.7,294.1,302.6,294.1"/>
		<path class="st20" d="M309.7,309.4c0.3,0.2,0.8,0.2,1-0.1c0,0,0,0,0,0c1.4-1.8,2.2-4,2.2-6.4c0-1.8-0.5-3.5-1.4-5.1
			c-0.2-0.3-0.6-0.5-1-0.3c-0.3,0.2-0.5,0.6-0.3,1c0.8,1.3,1.2,2.9,1.2,4.4c0,2-0.7,3.9-1.9,5.5
			C309.3,308.8,309.4,309.2,309.7,309.4C309.7,309.4,309.7,309.4,309.7,309.4"/>
		<path class="st20" d="M302.6,307.8c2.7,0,4.9-2.2,4.9-4.9c0-0.5-0.1-0.9-0.2-1.4c-0.1-0.4-0.5-0.6-0.9-0.4
			c-0.3,0.1-0.5,0.5-0.4,0.8c0.6,1.8-0.5,3.7-2.3,4.3c-1.8,0.6-3.8-0.5-4.3-2.3c-0.6-1.8,0.5-3.7,2.3-4.3c0.3-0.1,0.7-0.2,1-0.2
			c0.3,0,0.6,0,0.9,0.1c0.4,0.1,0.8-0.2,0.8-0.5c0.1-0.4-0.1-0.7-0.5-0.8c-2.6-0.7-5.3,0.8-6,3.4c-0.7,2.6,0.8,5.3,3.4,6
			C301.7,307.8,302.1,307.8,302.6,307.8L302.6,307.8z"/>
		<path class="st20" d="M312.8,289.4l0.2,2.3l-2.1,2.1l-0.2-2.3L312.8,289.4z M313.9,292.7l2.3,0.2l-2.1,2.1l-2.3-0.2L313.9,292.7z
			 M309.5,295.1l-7.4,7.4c-0.3,0.3-0.3,0.7,0,1c0.3,0.3,0.7,0.3,1,0l7.4-7.4l3.9,0.3h0c0.2,0,0.4-0.1,0.5-0.2l3.4-3.4
			c0.3-0.3,0.3-0.7,0-1c-0.1-0.1-0.3-0.2-0.5-0.2l-3.5-0.2l0,0l0,0l-0.2-3.5c0-0.4-0.4-0.7-0.8-0.6c-0.2,0-0.3,0.1-0.4,0.2l-3.4,3.4
			c-0.1,0.1-0.2,0.3-0.2,0.5L309.5,295.1z"/>
		<path class="st20" d="M295.2,327.7l0.7-4.8h13.4l0.7,4.8H295.2z M296.8,316.7h11.6l0.7,4.8h-13L296.8,316.7z M297.7,310.4h9.8
			l0.7,4.8H297L297.7,310.4z M308.5,307.2c-0.1-0.4-0.4-0.7-0.8-0.6c-0.4,0.1-0.7,0.4-0.6,0.8l0.2,1.6h-9.4l0.2-1.6
			c0.1-0.4-0.2-0.8-0.6-0.8c-0.4-0.1-0.8,0.2-0.8,0.6l-3.5,24.2c-0.1,0.4,0.2,0.7,0.6,0.8h0.1c0.4,0,0.7-0.3,0.7-0.6l0.4-2.6h15.2
			l0.4,2.6c0,0.4,0.4,0.6,0.7,0.6h0.1c0.4-0.1,0.7-0.4,0.6-0.8L308.5,307.2z"/>
	</g>
</g>
</svg>
