<svg id="Capa_1" data-name="Capa 1" xmlns="http://www.w3.org/2000/svg" xmlns:xlink="http://www.w3.org/1999/xlink" viewBox="0 0 1919.57 532.94"><defs><style>.cls-1,.cls-10,.cls-11,.cls-12,.cls-15,.cls-16,.cls-2,.cls-3,.cls-4,.cls-7{fill:none;}.cls-10,.cls-11,.cls-12,.cls-2,.cls-3,.cls-4,.cls-7{stroke:#747f8b;stroke-width:1.74px;}.cls-15,.cls-16,.cls-2{stroke-miterlimit:10;}.cls-10,.cls-11,.cls-12,.cls-3,.cls-4,.cls-7{stroke-linecap:round;stroke-linejoin:round;}.cls-3{stroke-dasharray:0 5.24;}.cls-5{clip-path:url(#clip-path);}.cls-6{fill:#747f8b;}.cls-7{stroke-dasharray:0 5.16;}.cls-8{fill:#e3297c;}.cls-9{fill:#f58538;}.cls-10{stroke-dasharray:0 5.39;}.cls-11{stroke-dasharray:0 5.18;}.cls-12{stroke-dasharray:0 5.16;}.cls-13{fill:#00b1a1;}.cls-14{fill:#086f94;}.cls-15{stroke:#f58538;stroke-width:0.5px;}.cls-16{stroke:#fff;stroke-width:0.75px;}</style><clipPath id="clip-path" transform="translate(-0.43 -11.1)"><rect class="cls-1" y="11.1" width="1920" height="532.94"/></clipPath></defs><line class="cls-2" x1="973.27" y1="241.63" x2="1062.97" y2="241.63"/><line class="cls-3" x1="1249.27" y1="172.47" x2="1353.92" y2="110.16"/><path class="cls-4" d="M1357.73,119.25h0M1243,187.59h0" transform="translate(-0.43 -11.1)"/><line class="cls-2" x1="1229.99" y1="165.85" x2="1359.94" y2="85.83"/><g class="cls-5"><line class="cls-2" x1="1571.47" y1="87.13" x2="1919.57" y2="87.13"/><path class="cls-6" d="M1547.29,117.57A84.61,84.61,0,1,0,1505,190.92a84.52,84.52,0,0,0,42.31-73.35m-173.45.17a89.14,89.14,0,0,1,44.43-77,88.84,88.84,0,0,1,133.24,76.84,88.84,88.84,0,0,1-177.67.17" transform="translate(-0.43 -11.1)"/><line class="cls-7" x1="1577.59" y1="104.88" x2="1914.39" y2="104.88"/><path class="cls-4" d="M1918.7,116h0m-348.42,0h0" transform="translate(-0.43 -11.1)"/><path class="cls-8" d="M1571.91,117.52c0-58.68-48.09-106.42-107.2-106.42s-107.19,47.74-107.19,106.42,48.09,106.41,107.19,106.41V220c-56.94,0-103.27-46-103.27-102.52S1407.77,15,1464.71,15,1568,61,1568,117.52Z" transform="translate(-0.43 -11.1)"/><path class="cls-9" d="M1243.24,339.92c-42.91,40-110.62,37.4-150.93-5.82s-38.19-111,4.72-151S1207.65,145.72,1248,189l-2.85,2.65c-38.83-41.64-104.06-44.16-145.4-5.6s-43.39,103.8-4.55,145.44,104.06,44.16,145.41,5.61Z" transform="translate(-0.43 -11.1)"/><path class="cls-6" d="M1148.14,179.23a84.61,84.61,0,1,0,81.8,21.88,84.58,84.58,0,0,0-81.8-21.88m45,167.49a89.12,89.12,0,0,1-85.87-23,88.84,88.84,0,0,1,39.73-148.59,88.83,88.83,0,0,1,46.14,171.57" transform="translate(-0.43 -11.1)"/></g><line class="cls-10" x1="988.81" y1="259.19" x2="1057.6" y2="259.19"/><path class="cls-4" d="M1062.08,270.29h0m-80.93,0h0" transform="translate(-0.43 -11.1)"/><line class="cls-11" x1="8.63" y1="429.75" x2="470.6" y2="429.75"/><g class="cls-5"><path class="cls-4" d="M474.92,440.85h0m-473.62,0h0" transform="translate(-0.43 -11.1)"/><line class="cls-2" x1="0.87" y1="446.4" x2="479.09" y2="446.4"/></g><line class="cls-12" x1="691.48" y1="397.28" x2="793.99" y2="334.97"/><path class="cls-4" d="M797.73,344.06h0M685.3,412.4h0" transform="translate(-0.43 -11.1)"/><line class="cls-2" x1="687.26" y1="412.37" x2="805.26" y2="341.19"/><g class="cls-5"><path class="cls-13" d="M476.23,437.63C476.23,496.3,524.31,544,583.42,544S690.61,496.3,690.61,437.63,642.53,331.21,583.42,331.21v3.9c56.94,0,103.27,46,103.27,102.52S640.36,540.15,583.42,540.15s-103.27-46-103.27-102.52Z" transform="translate(-0.43 -11.1)"/><path class="cls-6" d="M605.41,519.92A84.61,84.61,0,1,0,523.61,498a84.49,84.49,0,0,0,81.8,21.89m-45-167.49a89.13,89.13,0,0,1,85.88,23A88.84,88.84,0,0,1,606.5,524a88.83,88.83,0,0,1-46.14-171.57" transform="translate(-0.43 -11.1)"/><path class="cls-14" d="M795.55,344.7c41.49,41.49,109.25,41.25,151-.55s42-109.55.55-151-109.25-41.25-151,.55l2.75,2.75c40.27-40.26,105.54-40.5,145.52-.53s39.73,105.25-.53,145.52-105.54,40.5-145.52.53Z" transform="translate(-0.43 -11.1)"/><path class="cls-6" d="M870.71,184.33a84.61,84.61,0,1,0,73.35,42.31,84.48,84.48,0,0,0-73.35-42.31m.17,173.45a89.14,89.14,0,0,1-77-44.42,88.84,88.84,0,0,1,76.83-133.25,88.84,88.84,0,0,1,.17,177.67" transform="translate(-0.43 -11.1)"/><path class="cls-13" d="M608,475.08a1.87,1.87,0,0,1-.71.13,2,2,0,0,1-.77-.14,1.55,1.55,0,0,1-.59-.43,2.37,2.37,0,0,1-.38-.83,5.36,5.36,0,0,1-.13-1.22,4.74,4.74,0,0,1,.15-1.3,2.16,2.16,0,0,1,.4-.82,1.47,1.47,0,0,1,.59-.42,2.2,2.2,0,0,1,.71-.11,2,2,0,0,1,.74.13,1.31,1.31,0,0,1,.58.44,2.32,2.32,0,0,1,.39.82,5,5,0,0,1,.13,1.26,4.78,4.78,0,0,1-.13,1.28,2.18,2.18,0,0,1-.4.79,1.26,1.26,0,0,1-.58.42m2.73-5.83a5.52,5.52,0,0,0-6.91,0,5.12,5.12,0,0,0,0,6.67,5.55,5.55,0,0,0,6.92,0,5.12,5.12,0,0,0,0-6.66m-10.26,3.38a3,3,0,0,0-1.6-.89c-.32-.08-.65-.15-1-.2l-.9-.17a2.62,2.62,0,0,1-1-.32.54.54,0,0,1-.21-.46c0-.23.15-.4.46-.52a3,3,0,0,1,1.11-.18,4.86,4.86,0,0,1,1.59.26,5.8,5.8,0,0,1,1.39.68h.23v-2.16a7.31,7.31,0,0,0-1.37-.42,8.51,8.51,0,0,0-1.84-.19,5.45,5.45,0,0,0-3.2.82,2.42,2.42,0,0,0-1.17,2.05,2.39,2.39,0,0,0,.56,1.61,3.33,3.33,0,0,0,1.73.94,7.53,7.53,0,0,0,1,.2c.35.05.63.1.83.15a2.69,2.69,0,0,1,.87.27.49.49,0,0,1,.23.45.57.57,0,0,1-.39.53,3,3,0,0,1-1.2.18,5.36,5.36,0,0,1-1.16-.12,6.93,6.93,0,0,1-1-.31,4.15,4.15,0,0,1-.76-.37l-.48-.31h-.25v2.25a7.93,7.93,0,0,0,1.49.48,9.51,9.51,0,0,0,2.08.21,5.7,5.7,0,0,0,3.25-.81,2.47,2.47,0,0,0,1.19-2.14,2.22,2.22,0,0,0-.52-1.51m-15.54-1.16a1.82,1.82,0,0,1,.58-1.32,2,2,0,0,1,1.3-.41,1.65,1.65,0,0,1,1.26.44,1.93,1.93,0,0,1,.43,1.29Zm6.29.65a4.14,4.14,0,0,0-1-3A4.27,4.27,0,0,0,587,468a5,5,0,0,0-3.56,1.23,4.42,4.42,0,0,0-1.3,3.36,4.06,4.06,0,0,0,1.37,3.3,5.91,5.91,0,0,0,4,1.16,9.27,9.27,0,0,0,1.82-.16,10.89,10.89,0,0,0,1.75-.55v-2.2h-.3a5.28,5.28,0,0,1-1.29.67,4.59,4.59,0,0,1-1.68.31,3.38,3.38,0,0,1-2.08-.53,2,2,0,0,1-.77-1.54h6.28Zm-12,4.78a7.83,7.83,0,0,0,1.36-.48v-2.34h-.39a4.1,4.1,0,0,1-.37.33,3.25,3.25,0,0,1-.45.32,3.15,3.15,0,0,1-1.62.39,2.23,2.23,0,0,1-1.72-.64,2.63,2.63,0,0,1-.61-1.87,2.88,2.88,0,0,1,.59-1.9,2.12,2.12,0,0,1,1.69-.69,2.87,2.87,0,0,1,.87.11,3.44,3.44,0,0,1,.68.27,3.89,3.89,0,0,1,.56.36l.38.32h.39v-2.34a7.5,7.5,0,0,0-1.38-.49,6.37,6.37,0,0,0-1.62-.19,6.88,6.88,0,0,0-1.88.25,4.53,4.53,0,0,0-1.6.79,3.9,3.9,0,0,0-1.12,1.44,5.52,5.52,0,0,0,0,4A3.7,3.7,0,0,0,574,476a4.48,4.48,0,0,0,1.61.83,7.72,7.72,0,0,0,2,.26,6.28,6.28,0,0,0,1.55-.18m-9.57,0a7.72,7.72,0,0,0,1.35-.48v-2.34h-.39l-.36.33a3.37,3.37,0,0,1-.46.32,3.28,3.28,0,0,1-.69.28,3.77,3.77,0,0,1-.93.11,2.26,2.26,0,0,1-1.72-.64,2.63,2.63,0,0,1-.6-1.87,2.83,2.83,0,0,1,.59-1.9,2.08,2.08,0,0,1,1.68-.69,2.87,2.87,0,0,1,.87.11,3.54,3.54,0,0,1,.69.27,4.38,4.38,0,0,1,.55.36l.38.32H571v-2.34a7.5,7.5,0,0,0-1.38-.49,6.32,6.32,0,0,0-1.62-.19,6.93,6.93,0,0,0-1.88.25,4.61,4.61,0,0,0-1.6.79,3.9,3.9,0,0,0-1.12,1.44,5,5,0,0,0-.4,2.07,4.82,4.82,0,0,0,.38,2,3.78,3.78,0,0,0,1,1.4,4.56,4.56,0,0,0,1.61.83,7.72,7.72,0,0,0,2,.26,6.3,6.3,0,0,0,1.56-.18m-15.2-4.42,1.39-4.07,1.4,4.07Zm3.12-7h-3.37L550,476.85h2.95l.79-2.29h4.21l.79,2.29h3Z" transform="translate(-0.43 -11.1)"/><path class="cls-14" d="M884.62,317.91a2.18,2.18,0,0,1-.72.13,2.07,2.07,0,0,1-.77-.14,1.38,1.38,0,0,1-.58-.44,2.09,2.09,0,0,1-.39-.82,5.47,5.47,0,0,1-.12-1.22,4.78,4.78,0,0,1,.14-1.3,2.32,2.32,0,0,1,.4-.82,1.56,1.56,0,0,1,.6-.43,2.11,2.11,0,0,1,.7-.1,2,2,0,0,1,.74.13,1.31,1.31,0,0,1,.59.44,2.16,2.16,0,0,1,.38.82,5,5,0,0,1,.14,1.26,4.77,4.77,0,0,1-.14,1.28,2.18,2.18,0,0,1-.4.79,1.37,1.37,0,0,1-.57.42m2.73-5.84a5.52,5.52,0,0,0-6.92,0,5.11,5.11,0,0,0,0,6.66,5.52,5.52,0,0,0,6.92,0,4.46,4.46,0,0,0,1.23-3.32,4.54,4.54,0,0,0-1.22-3.34m-10.26,3.39a3,3,0,0,0-1.61-.89c-.32-.08-.64-.15-1-.2l-.9-.17a2.83,2.83,0,0,1-1-.32.54.54,0,0,1-.2-.46c0-.23.15-.4.45-.52a3,3,0,0,1,1.12-.19,4.81,4.81,0,0,1,1.58.27,5.45,5.45,0,0,1,1.39.68h.24v-2.17a8.86,8.86,0,0,0-3.22-.6,5.55,5.55,0,0,0-3.2.81,2.45,2.45,0,0,0-1.17,2.06,2.36,2.36,0,0,0,.56,1.6,3.38,3.38,0,0,0,1.73.95c.29.08.61.14,1,.2s.63.1.83.15a2.6,2.6,0,0,1,.87.27.49.49,0,0,1,.23.45.57.57,0,0,1-.39.53,3,3,0,0,1-1.2.18,4.79,4.79,0,0,1-1.16-.13,5.43,5.43,0,0,1-1-.3,4.29,4.29,0,0,1-.77-.37l-.48-.31h-.25v2.25a8.06,8.06,0,0,0,1.5.48,9.42,9.42,0,0,0,2.07.21,5.68,5.68,0,0,0,3.25-.81A2.47,2.47,0,0,0,877.6,317a2.24,2.24,0,0,0-.51-1.51m-9.9-7.13h-2.94v7.08a2.6,2.6,0,0,1-.51,1.79,2.08,2.08,0,0,1-1.61.55,2,2,0,0,1-1.6-.58,2.64,2.64,0,0,1-.5-1.76v-7.08h-2.94v7.25a4.06,4.06,0,0,0,1.27,3.22,6.92,6.92,0,0,0,7.55,0,4.07,4.07,0,0,0,1.28-3.23Z" transform="translate(-0.43 -11.1)"/><path class="cls-9" d="M1204.05,310.9a1.74,1.74,0,0,1,.57-1.32,2,2,0,0,1,1.3-.41,1.64,1.64,0,0,1,1.26.43,1.94,1.94,0,0,1,.43,1.3Zm6.29.65a4.07,4.07,0,0,0-1.06-3,4.21,4.21,0,0,0-3.14-1.06,5,5,0,0,0-3.56,1.24,4.42,4.42,0,0,0-1.3,3.36,4.09,4.09,0,0,0,1.37,3.3,6,6,0,0,0,3.95,1.16,9.23,9.23,0,0,0,1.82-.17,10,10,0,0,0,1.76-.54v-2.2h-.31a5.1,5.1,0,0,1-1.29.67,4.59,4.59,0,0,1-1.68.31,3.45,3.45,0,0,1-2.08-.53,2,2,0,0,1-.77-1.54h6.29Zm-10.47,2.78h-.22a2.37,2.37,0,0,1-.49.17,2.29,2.29,0,0,1-.55.09,1.53,1.53,0,0,1-.79-.16.82.82,0,0,1-.38-.42,1.89,1.89,0,0,1-.12-.61c0-.22,0-.48,0-.78v-3h2.56v-1.86h-2.56v-2.45h-2.75v2.45h-1.13v1.86h1.13v4a2.74,2.74,0,0,0,.78,2.22,3.69,3.69,0,0,0,2.38.65,8.45,8.45,0,0,0,1.22-.07,8.12,8.12,0,0,0,.93-.17Zm-8.38-3.62a3.37,3.37,0,0,0-.78-2.42,2.88,2.88,0,0,0-2.17-.81,3.5,3.5,0,0,0-1.5.31,6.87,6.87,0,0,0-1.4.87v-.94h-2.75v8.56h2.75v-6.07a4,4,0,0,1,.83-.39,2.56,2.56,0,0,1,.76-.12,2,2,0,0,1,.82.13.9.9,0,0,1,.45.41,2,2,0,0,1,.18.76,8.89,8.89,0,0,1,.06,1v4.25h2.75Zm-17.22.19a1.74,1.74,0,0,1,.57-1.32,2.05,2.05,0,0,1,1.31-.41,1.61,1.61,0,0,1,1.25.43,1.89,1.89,0,0,1,.43,1.3Zm6.29.65a4.11,4.11,0,0,0-1-3,4.23,4.23,0,0,0-3.14-1.06,5,5,0,0,0-3.57,1.24,4.46,4.46,0,0,0-1.3,3.36,4.06,4.06,0,0,0,1.38,3.3,6,6,0,0,0,3.95,1.16,9.31,9.31,0,0,0,1.82-.17,9.88,9.88,0,0,0,1.75-.54v-2.2h-.3a5.48,5.48,0,0,1-1.29.67,4.68,4.68,0,0,1-1.69.31,3.49,3.49,0,0,1-2.08-.53,2,2,0,0,1-.76-1.54h6.28Zm-11.33-7.13h-2.9v2.08h2.9Zm-.08,3.3h-2.75v8.56h2.75Zm-5.72-3.3h-2.76v11.86h2.76Zm-6.31,11.91a7.72,7.72,0,0,0,1.35-.48v-2.34h-.39l-.36.32a4.13,4.13,0,0,1-.46.32,2.82,2.82,0,0,1-.69.28,3.38,3.38,0,0,1-.93.12,2.26,2.26,0,0,1-1.72-.64,2.65,2.65,0,0,1-.6-1.88,2.8,2.8,0,0,1,.59-1.89,2.06,2.06,0,0,1,1.68-.7,3.23,3.23,0,0,1,.87.11,4.32,4.32,0,0,1,.69.28,4.38,4.38,0,0,1,.55.36l.38.32h.39v-2.34a8.34,8.34,0,0,0-1.38-.5,6.79,6.79,0,0,0-1.62-.19,7.35,7.35,0,0,0-1.88.25,4.63,4.63,0,0,0-1.6.8,3.9,3.9,0,0,0-1.12,1.44,5,5,0,0,0-.4,2.06,4.91,4.91,0,0,0,.38,2,3.78,3.78,0,0,0,1.05,1.4,4.54,4.54,0,0,0,1.61.82,7.32,7.32,0,0,0,2,.27,6.3,6.3,0,0,0,1.56-.18m-14.72-11.91h-2.76v11.86h2.76ZM1134,316.28h2.72v-5.82a2.56,2.56,0,0,0-1-2.26,6.08,6.08,0,0,0-3.38-.72,13.07,13.07,0,0,0-2,.15c-.65.1-1.12.2-1.41.27V310h.25c.23-.09.59-.21,1.11-.37a4.83,4.83,0,0,1,1.45-.24,4.14,4.14,0,0,1,1.7.27,1,1,0,0,1,.58,1v0c-.8.05-1.58.12-2.34.22a6.49,6.49,0,0,0-1.89.49,2.81,2.81,0,0,0-1.19.93,2.62,2.62,0,0,0-.42,1.54,2.48,2.48,0,0,0,.83,1.92,2.88,2.88,0,0,0,2,.76,4.65,4.65,0,0,0,1-.09,4.12,4.12,0,0,0,.84-.27,3.48,3.48,0,0,0,.62-.37l.55-.41Zm-.74-1.8a2.37,2.37,0,0,1-.84.17,3.29,3.29,0,0,1-.76-.07,1.22,1.22,0,0,1-.42-.23.67.67,0,0,1-.23-.32,1.63,1.63,0,0,1,0-.43,1,1,0,0,1,.22-.65,1.5,1.5,0,0,1,.63-.38,5.62,5.62,0,0,1,1-.18l1.21-.13V314a2.74,2.74,0,0,1-.74.44" transform="translate(-0.43 -11.1)"/><path class="cls-9" d="M1216.26,289.89a3.37,3.37,0,0,0-.78-2.42,2.87,2.87,0,0,0-2.17-.81,3.61,3.61,0,0,0-1.49.31,7,7,0,0,0-1.41.88v-1h-2.75v8.56h2.75v-6.07a5.13,5.13,0,0,1,.84-.39,2.51,2.51,0,0,1,.76-.12,2.13,2.13,0,0,1,.81.13,1,1,0,0,1,.45.41,2.06,2.06,0,0,1,.18.76,9.07,9.07,0,0,1,.06,1v4.24h2.75Zm-15.62-7.21-1.89,3h1.88l2.68-2.84v-.16Zm.71,11a2.28,2.28,0,0,1-1.49,0,1.45,1.45,0,0,1-.58-.44,2.15,2.15,0,0,1-.38-.82,4.91,4.91,0,0,1-.13-1.22,4.74,4.74,0,0,1,.15-1.3,2.16,2.16,0,0,1,.4-.82,1.54,1.54,0,0,1,.59-.43,2.15,2.15,0,0,1,.7-.1,2,2,0,0,1,.74.13,1.26,1.26,0,0,1,.59.44,2.26,2.26,0,0,1,.38.81,5.12,5.12,0,0,1,.14,1.27,5.3,5.3,0,0,1-.13,1.28,2.35,2.35,0,0,1-.4.79,1.26,1.26,0,0,1-.58.42m2.73-5.84a5.52,5.52,0,0,0-6.92,0,5.12,5.12,0,0,0,0,6.66,5.5,5.5,0,0,0,6.91,0,5.14,5.14,0,0,0,0-6.66m-10.43-4.25h-2.9v2.08h2.9Zm-.07,3.3h-2.76v8.56h2.76Zm-6.31,8.61a7.72,7.72,0,0,0,1.35-.48v-2.34h-.39l-.37.33a3.22,3.22,0,0,1-.45.31,2.82,2.82,0,0,1-.69.28,3.38,3.38,0,0,1-.93.12,2.24,2.24,0,0,1-1.72-.64,2.65,2.65,0,0,1-.61-1.87,2.88,2.88,0,0,1,.59-1.9,2.12,2.12,0,0,1,1.69-.7,3.23,3.23,0,0,1,.87.11,3.88,3.88,0,0,1,1.24.64l.38.32h.39v-2.34a8.34,8.34,0,0,0-1.38-.5,6.79,6.79,0,0,0-1.62-.19,6.88,6.88,0,0,0-1.88.26,4.36,4.36,0,0,0-1.6.79,3.9,3.9,0,0,0-1.12,1.44,4.87,4.87,0,0,0-.4,2.07,5.07,5.07,0,0,0,.37,2,3.7,3.7,0,0,0,1.06,1.4,4.38,4.38,0,0,0,1.61.82,7.32,7.32,0,0,0,2,.27,6.36,6.36,0,0,0,1.56-.18m-9.58,0A7.72,7.72,0,0,0,1179,295v-2.34h-.39l-.36.33a3.35,3.35,0,0,1-.46.31,2.82,2.82,0,0,1-.69.28,3.33,3.33,0,0,1-.93.12,2.26,2.26,0,0,1-1.72-.64,2.64,2.64,0,0,1-.6-1.87,2.88,2.88,0,0,1,.59-1.9,2.09,2.09,0,0,1,1.68-.7,3.23,3.23,0,0,1,.87.11,4.32,4.32,0,0,1,.69.28,3.75,3.75,0,0,1,.55.36l.38.32h.39v-2.34a8,8,0,0,0-1.38-.5,6.77,6.77,0,0,0-1.61-.19,7,7,0,0,0-1.89.26,4.44,4.44,0,0,0-1.6.79,3.77,3.77,0,0,0-1.11,1.44,5.39,5.39,0,0,0,0,4.05,3.78,3.78,0,0,0,1,1.4,4.38,4.38,0,0,0,1.61.82,7.32,7.32,0,0,0,2.05.27,6.3,6.3,0,0,0,1.56-.18m-14.64-5.43a1.78,1.78,0,0,1,.57-1.32,2.05,2.05,0,0,1,1.31-.41,1.64,1.64,0,0,1,1.26.43,1.91,1.91,0,0,1,.42,1.3Zm6.29.65a4.13,4.13,0,0,0-1-3,4.27,4.27,0,0,0-3.14-1.06,5,5,0,0,0-3.56,1.24,4.42,4.42,0,0,0-1.3,3.36,4.06,4.06,0,0,0,1.37,3.3,6,6,0,0,0,3.95,1.16,9.31,9.31,0,0,0,1.82-.17,9.88,9.88,0,0,0,1.75-.54v-2.2h-.3a5.48,5.48,0,0,1-1.29.67,4.64,4.64,0,0,1-1.69.31,3.43,3.43,0,0,1-2.07-.53,2,2,0,0,1-.77-1.54h6.28Zm-10.46,2.78h-.23a2.23,2.23,0,0,1-.48.17,2.35,2.35,0,0,1-.56.09,1.58,1.58,0,0,1-.79-.16.8.8,0,0,1-.37-.42,1.46,1.46,0,0,1-.12-.6c0-.23,0-.49,0-.79v-3h2.56V286.9h-2.56v-2.45h-2.75v2.45h-1.13v1.86h1.13v4a2.74,2.74,0,0,0,.78,2.22,3.67,3.67,0,0,0,2.38.65,10.25,10.25,0,0,0,1.21-.06c.33-.05.65-.11.94-.18Zm-11.78.18a2.18,2.18,0,0,1-.72.12,2.11,2.11,0,0,1-.77-.13,1.38,1.38,0,0,1-.58-.44,2,2,0,0,1-.38-.82,4.91,4.91,0,0,1-.13-1.22,4.74,4.74,0,0,1,.15-1.3,2,2,0,0,1,.4-.82,1.47,1.47,0,0,1,.59-.43,2.15,2.15,0,0,1,.7-.1,2,2,0,0,1,.74.13,1.31,1.31,0,0,1,.59.44,2.26,2.26,0,0,1,.38.81,5.12,5.12,0,0,1,.14,1.27,4.77,4.77,0,0,1-.14,1.28,2.18,2.18,0,0,1-.4.79,1.24,1.24,0,0,1-.57.42m2.73-5.84a5.52,5.52,0,0,0-6.92,0,5.11,5.11,0,0,0,0,6.66,5.52,5.52,0,0,0,6.92,0,4.46,4.46,0,0,0,1.23-3.32,4.54,4.54,0,0,0-1.22-3.34m-9.48-1-.32,0h-.32a3.54,3.54,0,0,0-1.24.26,5.68,5.68,0,0,0-1.57,1V286.9h-2.75v8.56h2.75v-5.73a6,6,0,0,1,1-.26,6.47,6.47,0,0,1,1-.08l.65,0a3.21,3.21,0,0,1,.56.1h.24Zm-11.67,1.68a1.48,1.48,0,0,1-.4.59,1.76,1.76,0,0,1-.82.36,6.88,6.88,0,0,1-1.23.09h-.84v-3.39h.51l1.16,0a2.71,2.71,0,0,1,.89.2,1.4,1.4,0,0,1,.86,1.31,2.2,2.2,0,0,1-.13.82m2.79-2.57a3,3,0,0,0-1-1.15,4.09,4.09,0,0,0-1.31-.56,7.34,7.34,0,0,0-1.83-.19h-4.81v11.35h2.92v-3.7h1.82a5.45,5.45,0,0,0,2.08-.34,4.7,4.7,0,0,0,1.52-1,3.33,3.33,0,0,0,.76-1.23,4.21,4.21,0,0,0,.26-1.49,3.65,3.65,0,0,0-.36-1.68" transform="translate(-0.43 -11.1)"/><path class="cls-8" d="M1506,164.59h2.73v-5.83a2.54,2.54,0,0,0-1-2.26,6.08,6.08,0,0,0-3.38-.72,11.78,11.78,0,0,0-2,.16,13.81,13.81,0,0,0-1.41.27v2.06h.25c.22-.08.59-.21,1.1-.37a4.93,4.93,0,0,1,1.45-.24,4.23,4.23,0,0,1,1.71.27,1,1,0,0,1,.58,1V159c-.81,0-1.59.12-2.34.21a6.64,6.64,0,0,0-1.89.49,2.77,2.77,0,0,0-1.19.94,2.57,2.57,0,0,0-.42,1.53,2.5,2.5,0,0,0,.82,1.93,2.92,2.92,0,0,0,2,.75,5.64,5.64,0,0,0,1-.08,4.12,4.12,0,0,0,.84-.27,4.26,4.26,0,0,0,.61-.38l.55-.4Zm-.74-1.8a2.28,2.28,0,0,1-.84.16,2.9,2.9,0,0,1-.76-.07,1.2,1.2,0,0,1-.42-.22.58.58,0,0,1-.22-.32,1.34,1.34,0,0,1,0-.43.92.92,0,0,1,.22-.65,1.23,1.23,0,0,1,.63-.38,6.52,6.52,0,0,1,1-.19l1.2-.12v1.78a2.84,2.84,0,0,1-.74.44m-6.39-6.77-.32,0h-.32a3.54,3.54,0,0,0-1.24.26,5.68,5.68,0,0,0-1.57,1V156h-2.75v8.57h2.75v-5.74a6.14,6.14,0,0,1,1-.26,6.33,6.33,0,0,1,1-.07l.65,0a2.48,2.48,0,0,1,.56.09h.24ZM1484,159.2a1.78,1.78,0,0,1,.57-1.32,2.05,2.05,0,0,1,1.31-.41,1.65,1.65,0,0,1,1.26.44,1.93,1.93,0,0,1,.42,1.29Zm6.29.65a4.14,4.14,0,0,0-1-3,4.27,4.27,0,0,0-3.14-1.05,5,5,0,0,0-3.57,1.24,4.42,4.42,0,0,0-1.3,3.35,4.06,4.06,0,0,0,1.38,3.3,5.91,5.91,0,0,0,3.95,1.16,9.34,9.34,0,0,0,1.82-.16,10.89,10.89,0,0,0,1.75-.55v-2.2h-.3a5.48,5.48,0,0,1-1.29.67,4.68,4.68,0,0,1-1.69.31,3.42,3.42,0,0,1-2.08-.53,2,2,0,0,1-.76-1.54h6.28ZM1479,152.72h-2.9v2.08h2.9Zm-.08,3.3h-2.75v8.57h2.75Zm-6.31,8.62a7.86,7.86,0,0,0,1.36-.49v-2.34h-.39a4.1,4.1,0,0,1-.37.33,3.25,3.25,0,0,1-.45.32,3,3,0,0,1-.69.28,3.39,3.39,0,0,1-.93.11,2.23,2.23,0,0,1-1.72-.64,2.63,2.63,0,0,1-.61-1.87,2.88,2.88,0,0,1,.59-1.9,2.12,2.12,0,0,1,1.69-.69,2.87,2.87,0,0,1,.87.11,3.94,3.94,0,0,1,1.23.63l.39.32h.39v-2.34a7.5,7.5,0,0,0-1.38-.49,6.37,6.37,0,0,0-1.62-.19,6.88,6.88,0,0,0-1.88.25,4.53,4.53,0,0,0-1.6.79,3.9,3.9,0,0,0-1.12,1.44,5.52,5.52,0,0,0,0,4,3.78,3.78,0,0,0,1.05,1.4,4.45,4.45,0,0,0,1.62.83,7.3,7.3,0,0,0,2,.26,6.84,6.84,0,0,0,1.56-.17m-8.93-5.63a3.33,3.33,0,0,0-.78-2.41,2.87,2.87,0,0,0-2.17-.81,3.64,3.64,0,0,0-1.49.3,7.48,7.48,0,0,0-1.41.88V156h-2.75v8.57h2.75v-6.07a3.87,3.87,0,0,1,.84-.39,2.56,2.56,0,0,1,.76-.12,2,2,0,0,1,.82.13.88.88,0,0,1,.44.41,2.12,2.12,0,0,1,.19.76c0,.34.05.68.05,1v4.25h2.75Zm-14.23,5.58h2.72v-5.83a2.56,2.56,0,0,0-1-2.26,6.11,6.11,0,0,0-3.38-.72,11.9,11.9,0,0,0-2,.16,13.81,13.81,0,0,0-1.41.27v2.06h.25c.22-.08.59-.21,1.11-.37a4.83,4.83,0,0,1,1.45-.24,4.14,4.14,0,0,1,1.7.27,1,1,0,0,1,.58,1V159c-.81,0-1.59.12-2.34.21a6.82,6.82,0,0,0-1.89.49,2.83,2.83,0,0,0-1.19.94,2.57,2.57,0,0,0-.42,1.53,2.53,2.53,0,0,0,.82,1.93,3,3,0,0,0,2,.75,5.61,5.61,0,0,0,1-.08,4.12,4.12,0,0,0,.84-.27,5,5,0,0,0,.62-.38l.55-.4Zm-.75-1.8a2.26,2.26,0,0,1-.83.16,2.81,2.81,0,0,1-.76-.07,1.05,1.05,0,0,1-.42-.22.61.61,0,0,1-.23-.32,1.69,1.69,0,0,1,0-.43.92.92,0,0,1,.22-.65,1.23,1.23,0,0,1,.63-.38,6.52,6.52,0,0,1,1-.19l1.21-.12v1.78a2.91,2.91,0,0,1-.75.44m-7.35-3.78a3.33,3.33,0,0,0-.78-2.41,2.87,2.87,0,0,0-2.17-.81,3.57,3.57,0,0,0-1.49.3,7.48,7.48,0,0,0-1.41.88V156h-2.75v8.57h2.75v-6.07a3.87,3.87,0,0,1,.84-.39,2.46,2.46,0,0,1,.76-.12,2,2,0,0,1,.81.13.86.86,0,0,1,.45.41,2,2,0,0,1,.18.76,8.77,8.77,0,0,1,.06,1v4.25h2.75Zm-11.5-6.29h-2.9v2.08h2.9Zm-.08,3.3H1427v8.57h2.75Zm-4.18-3.22c-.26-.05-.55-.08-.88-.11s-.7,0-1.1,0a3.58,3.58,0,0,0-2.53.78,3.09,3.09,0,0,0-.84,2.36V156h-1.17v1.86h1.17v6.71H1423v-6.71h2V156h-2.12V156a1.64,1.64,0,0,1,.29-1.12,1.55,1.55,0,0,1,1.09-.29,3.2,3.2,0,0,1,.63.07l.47.13h.21Z" transform="translate(-0.43 -11.1)"/><path class="cls-8" d="M1509,138.19a3.34,3.34,0,0,0-.78-2.41,2.87,2.87,0,0,0-2.17-.81,3.57,3.57,0,0,0-1.49.3,7.48,7.48,0,0,0-1.41.88v-.94h-2.75v8.56h2.75V137.7a3.87,3.87,0,0,1,.84-.39,2.51,2.51,0,0,1,.76-.12,2,2,0,0,1,.81.13.86.86,0,0,1,.45.41,2,2,0,0,1,.18.76,8.77,8.77,0,0,1,.06,1v4.25H1509Zm-15.62-7.2-1.89,3h1.88l2.68-2.85V131Zm.71,11a1.9,1.9,0,0,1-.71.13,2.13,2.13,0,0,1-.78-.14,1.42,1.42,0,0,1-.58-.43,2.06,2.06,0,0,1-.38-.83,5.75,5.75,0,0,1,0-2.52,2.11,2.11,0,0,1,.4-.81,1.35,1.35,0,0,1,.59-.43,2.19,2.19,0,0,1,.7-.11,2.21,2.21,0,0,1,.74.13,1.41,1.41,0,0,1,.59.44,2.31,2.31,0,0,1,.38.82,5,5,0,0,1,.14,1.27,4.69,4.69,0,0,1-.14,1.27,2.17,2.17,0,0,1-.39.79,1.26,1.26,0,0,1-.58.42m2.73-5.83a4.68,4.68,0,0,0-3.47-1.22,4.73,4.73,0,0,0-3.45,1.21,4.48,4.48,0,0,0-1.23,3.34,4.43,4.43,0,0,0,1.23,3.33,5.54,5.54,0,0,0,6.91,0,5.14,5.14,0,0,0,0-6.66m-10.43-4.26h-2.9V134h2.9Zm-.07,3.31h-2.76v8.56h2.76Zm-6.31,8.61a7,7,0,0,0,1.35-.49V141H1481a4.1,4.1,0,0,1-.37.33,3.25,3.25,0,0,1-.45.32,2.82,2.82,0,0,1-.69.28,3.38,3.38,0,0,1-.93.12,2.28,2.28,0,0,1-1.72-.64,2.67,2.67,0,0,1-.6-1.88,2.83,2.83,0,0,1,.58-1.89,2.09,2.09,0,0,1,1.69-.7,2.87,2.87,0,0,1,.87.11,2.77,2.77,0,0,1,.68.28,2.7,2.7,0,0,1,.56.36l.38.32h.39v-2.34a7.52,7.52,0,0,0-1.38-.5,6.32,6.32,0,0,0-1.62-.19,6.88,6.88,0,0,0-1.88.25,4.61,4.61,0,0,0-1.6.79,3.9,3.9,0,0,0-1.12,1.44,4.87,4.87,0,0,0-.4,2.07,5,5,0,0,0,.37,2,3.62,3.62,0,0,0,1.06,1.4,4.32,4.32,0,0,0,1.61.83,7.32,7.32,0,0,0,2,.27,6.3,6.3,0,0,0,1.56-.18m-11.66,0h2.72v-5.83a2.55,2.55,0,0,0-1-2.26,6.08,6.08,0,0,0-3.38-.72,11.69,11.69,0,0,0-2,.16,13.58,13.58,0,0,0-1.42.27v2.06h.26l1.1-.37a4.88,4.88,0,0,1,1.45-.24,4.23,4.23,0,0,1,1.71.27,1,1,0,0,1,.58,1v0q-1.22.08-2.34.21a6.81,6.81,0,0,0-1.9.49,2.79,2.79,0,0,0-1.18.94,2.61,2.61,0,0,0-.42,1.53,2.5,2.5,0,0,0,.82,1.93,2.93,2.93,0,0,0,2,.76,4.75,4.75,0,0,0,1-.09,3.84,3.84,0,0,0,.83-.27,3.58,3.58,0,0,0,.62-.38c.22-.15.4-.29.55-.4Zm-.74-1.8a2.33,2.33,0,0,1-.84.17,2.77,2.77,0,0,1-.76-.08,1.06,1.06,0,0,1-.42-.22.67.67,0,0,1-.23-.32,1.74,1.74,0,0,1,0-.43,1,1,0,0,1,.21-.65,1.4,1.4,0,0,1,.63-.38,6.71,6.71,0,0,1,1-.19l1.2-.12v1.78a2.59,2.59,0,0,1-.74.44m-8,1.85a7,7,0,0,0,1.35-.49V141h-.39l-.36.33a3.37,3.37,0,0,1-.46.32,2.82,2.82,0,0,1-.69.28,3.28,3.28,0,0,1-.93.12,2.29,2.29,0,0,1-1.72-.64,2.67,2.67,0,0,1-.6-1.88,2.78,2.78,0,0,1,.59-1.89,2.06,2.06,0,0,1,1.69-.7,2.85,2.85,0,0,1,.86.11,3,3,0,0,1,.69.28,2.62,2.62,0,0,1,.55.36,4.84,4.84,0,0,1,.38.32h.39v-2.34a7.27,7.27,0,0,0-1.38-.5A6.29,6.29,0,0,0,1458,135a7,7,0,0,0-1.89.25,4.61,4.61,0,0,0-1.6.79,3.9,3.9,0,0,0-1.12,1.44,5,5,0,0,0-.4,2.07,4.82,4.82,0,0,0,.38,2,3.7,3.7,0,0,0,1.05,1.4,4.48,4.48,0,0,0,1.61.83,7.32,7.32,0,0,0,2,.27,6.3,6.3,0,0,0,1.56-.18m-9-8.61h-2.75v6.06a3.48,3.48,0,0,1-.83.39,2.85,2.85,0,0,1-.78.12,2.25,2.25,0,0,1-.82-.12.88.88,0,0,1-.43-.42,1.71,1.71,0,0,1-.2-.71c0-.29,0-.65,0-1.08v-4.24H1442v5.57a3.42,3.42,0,0,0,.76,2.41,2.86,2.86,0,0,0,2.18.81,3.48,3.48,0,0,0,1.51-.3,8,8,0,0,0,1.4-.88v1h2.75Zm-15,6.57a2.53,2.53,0,0,1-.79.14,1.63,1.63,0,0,1-1.39-.57,3,3,0,0,1-.43-1.83,2.93,2.93,0,0,1,.54-1.87,2,2,0,0,1,1.62-.68,3.09,3.09,0,0,1,.58.06,2.39,2.39,0,0,1,.61.17v4.21a2.7,2.7,0,0,1-.74.37m3.49-9.88h-2.75v3.65a7.74,7.74,0,0,0-1-.42,4,4,0,0,0-1.26-.16,3.7,3.7,0,0,0-1.47.31,3.6,3.6,0,0,0-1.26.89,4.55,4.55,0,0,0-.87,1.45,5.47,5.47,0,0,0-.31,1.93,5.13,5.13,0,0,0,.94,3.25,3,3,0,0,0,2.49,1.2,3.54,3.54,0,0,0,1.43-.27,5.77,5.77,0,0,0,1.32-.86v.9h2.75Zm-11,9.67h-5.3v-2.8h4.92v-2.2h-4.92v-2h5.3v-2.19h-8.22v11.35h8.22Z" transform="translate(-0.43 -11.1)"/><path class="cls-13" d="M770.83,537.45l2-5.57,2,5.57Zm3-6.89h-2l-4.14,11.35h1.54l1.11-3.16h4.91l1.11,3.16H778Zm-7.34,8.76h-.11a5.84,5.84,0,0,1-1.78,1.12,5.57,5.57,0,0,1-2,.37,4.16,4.16,0,0,1-1.5-.27,3.38,3.38,0,0,1-1.25-.83,4.19,4.19,0,0,1-.84-1.41,6,6,0,0,1-.32-2,6.47,6.47,0,0,1,.29-2,4.16,4.16,0,0,1,.82-1.45,3.52,3.52,0,0,1,1.23-.86,4.09,4.09,0,0,1,1.56-.28,5.35,5.35,0,0,1,2,.36,6.67,6.67,0,0,1,1.86,1.14h.12v-1.79a10.14,10.14,0,0,0-2-.78,8.09,8.09,0,0,0-1.82-.22,6.34,6.34,0,0,0-2.28.39,4.85,4.85,0,0,0-1.75,1.13,5,5,0,0,0-1.14,1.87,7.26,7.26,0,0,0-.4,2.51,7.57,7.57,0,0,0,.41,2.59,4.94,4.94,0,0,0,1.15,1.84,4.43,4.43,0,0,0,1.75,1.09,7,7,0,0,0,2.25.35,6.29,6.29,0,0,0,1.2-.11,8.82,8.82,0,0,0,1-.24,8.09,8.09,0,0,0,.89-.34c.22-.11.48-.22.76-.34Zm-11.73,1.43h-1.49v-9h1.49v-1.16h-4.48v1.16h1.48v9h-1.48v1.16h4.48Zm-6.12-10.19h-7.25v11.35h1.51v-5.47h4.93V535.1h-4.93v-3.2h5.74Zm-14.41-4.27-1.36,2.85H734l2.08-2.85Zm-2.12,11.16,2-5.57,2,5.57Zm3-6.89h-2L729,541.91h1.53l1.12-3.16h4.91l1.11,3.16h1.61Zm-10.37,4.25a2,2,0,0,1-1.41,1.2,5.16,5.16,0,0,1-1.25.13h-1.53v-4.29h1.78a5.44,5.44,0,0,1,1.06.09,2.09,2.09,0,0,1,.78.31,1.49,1.49,0,0,1,.56.64,2,2,0,0,1,.18.86,2.9,2.9,0,0,1-.17,1.06m-.57,2.14a3.83,3.83,0,0,0,1.7-1.25,3.35,3.35,0,0,0,.61-2.05,2.65,2.65,0,0,0-1.31-2.48,3.59,3.59,0,0,0-1.23-.48,9.2,9.2,0,0,0-1.72-.13h-3.18v11.35h1.51V537.4h2.13l3.8,4.51h2Zm-8.15-.75h-4.54v1.33h3v2.78a6.5,6.5,0,0,1-1.28.37,7.16,7.16,0,0,1-1.46.15,4.11,4.11,0,0,1-3.15-1.23,5.57,5.57,0,0,1-.05-6.74,3.87,3.87,0,0,1,3-1.22,6.39,6.39,0,0,1,1.52.16,5.67,5.67,0,0,1,2.07.89,7.54,7.54,0,0,1,.69.48h.14v-1.8a10.5,10.5,0,0,0-2.18-.78,8.5,8.5,0,0,0-2-.24,5.92,5.92,0,0,0-4.36,1.58,5.77,5.77,0,0,0-1.59,4.29,7.12,7.12,0,0,0,.43,2.6,4.77,4.77,0,0,0,1.21,1.85,5,5,0,0,0,1.88,1.1,7.84,7.84,0,0,0,2.43.36,7.34,7.34,0,0,0,2.13-.32,13.94,13.94,0,0,0,2-.74Zm-14.83,3.46a3.67,3.67,0,0,1-5.39,0,5.1,5.1,0,0,1-1-3.42,5.21,5.21,0,0,1,1-3.41,3.66,3.66,0,0,1,5.42,0,5.21,5.21,0,0,1,1,3.41,5.15,5.15,0,0,1-1,3.42m-.51-8.94a6.14,6.14,0,0,0-4.36,0,4.29,4.29,0,0,0-1.67,1.14,5.38,5.38,0,0,0-1.07,1.89,8,8,0,0,0-.36,2.49,7.75,7.75,0,0,0,.37,2.51,5.14,5.14,0,0,0,1.05,1.85,4.54,4.54,0,0,0,1.67,1.15,5.84,5.84,0,0,0,2.18.4,5.76,5.76,0,0,0,2.18-.39,4.58,4.58,0,0,0,1.66-1.16,5.12,5.12,0,0,0,1.05-1.85,7.56,7.56,0,0,0,.38-2.51,7.79,7.79,0,0,0-.37-2.51,5.1,5.1,0,0,0-1.06-1.87,4.6,4.6,0,0,0-1.65-1.14m-9.6,9.85h-6v-4.22h6V535h-6V531.9h6v-1.34h-7.48v11.35h7.48Zm-10.51-4.37h-4.53v1.33h3v2.78a6.5,6.5,0,0,1-1.28.37,7.16,7.16,0,0,1-1.46.15,4.11,4.11,0,0,1-3.15-1.23,5.57,5.57,0,0,1,0-6.74,3.87,3.87,0,0,1,3-1.22,6.39,6.39,0,0,1,1.52.16,5.67,5.67,0,0,1,2.07.89,7.54,7.54,0,0,1,.69.48h.14v-1.8a10.5,10.5,0,0,0-2.18-.78,8.5,8.5,0,0,0-2-.24,5.92,5.92,0,0,0-4.36,1.58,5.77,5.77,0,0,0-1.59,4.29,7.35,7.35,0,0,0,.42,2.6,4.9,4.9,0,0,0,1.22,1.85,5,5,0,0,0,1.88,1.1,7.84,7.84,0,0,0,2.43.36,7.34,7.34,0,0,0,2.13-.32,13,13,0,0,0,2-.74Z" transform="translate(-0.43 -11.1)"/><path class="cls-13" d="M785.5,509.74h-1.41V519l-4.91-9.27h-2.34v11.35h1.41V510.94l5.39,10.15h1.86ZM769,505.47l-1.36,2.85h1.14l2.08-2.85Zm2.45,13.37a3.66,3.66,0,0,1-5.4,0,5.15,5.15,0,0,1-1-3.42,5.29,5.29,0,0,1,1-3.41,3.67,3.67,0,0,1,5.43,0,6.36,6.36,0,0,1,0,6.83M771,509.9a5.87,5.87,0,0,0-2.2-.4,5.94,5.94,0,0,0-2.17.4A4.56,4.56,0,0,0,765,511a5.47,5.47,0,0,0-1.07,1.89,8,8,0,0,0-.36,2.49,7.75,7.75,0,0,0,.37,2.51,5,5,0,0,0,1.05,1.85,4.46,4.46,0,0,0,1.67,1.15,5.63,5.63,0,0,0,2.17.4,5.78,5.78,0,0,0,2.19-.39,4.46,4.46,0,0,0,1.66-1.16,5.12,5.12,0,0,0,1-1.85,8.59,8.59,0,0,0,0-5,5.34,5.34,0,0,0-1.06-1.87A4.78,4.78,0,0,0,771,509.9m-9.78,10h-1.48v-9h1.48v-1.16h-4.48v1.16h1.49v9h-1.49v1.16h4.48Zm-6.52-1.43h-.11a5.84,5.84,0,0,1-1.78,1.12,5.57,5.57,0,0,1-2,.38,4.16,4.16,0,0,1-1.5-.28,3.38,3.38,0,0,1-1.25-.83,4.06,4.06,0,0,1-.83-1.4,5.78,5.78,0,0,1-.33-2.06,6.22,6.22,0,0,1,.3-2A3.75,3.75,0,0,1,748,512a3.46,3.46,0,0,1,1.23-.87,4.2,4.2,0,0,1,1.55-.28,5.35,5.35,0,0,1,2,.36,6.49,6.49,0,0,1,1.86,1.15h.12v-1.8a9.29,9.29,0,0,0-2-.77,7.5,7.5,0,0,0-1.82-.23,6.34,6.34,0,0,0-2.28.39,4.85,4.85,0,0,0-1.75,1.13,5,5,0,0,0-1.14,1.87,7.26,7.26,0,0,0-.4,2.51,7.57,7.57,0,0,0,.41,2.59,4.94,4.94,0,0,0,1.15,1.84,4.43,4.43,0,0,0,1.75,1.09,7,7,0,0,0,2.25.35,7.27,7.27,0,0,0,1.2-.1c.36-.07.7-.16,1-.25a7.37,7.37,0,0,0,.89-.34l.76-.34Zm-18.06-1.87,2-5.57,2,5.57Zm3-6.89h-2l-4.13,11.35h1.53l1.11-3.16h4.91l1.12,3.16h1.61ZM729.3,514a2,2,0,0,1-1.42,1.21,5.7,5.7,0,0,1-1.25.12h-1.52V511h1.78a6.41,6.41,0,0,1,1.05.08,2.28,2.28,0,0,1,.78.31,1.5,1.5,0,0,1,.57.64,2,2,0,0,1,.17.86,2.92,2.92,0,0,1-.16,1.06m-.58,2.14a3.77,3.77,0,0,0,1.7-1.25,3.33,3.33,0,0,0,.62-2,2.82,2.82,0,0,0-.35-1.5,2.9,2.9,0,0,0-1-1,3.64,3.64,0,0,0-1.24-.48,9.08,9.08,0,0,0-1.71-.13H723.6v11.35h1.51v-4.51h2.13l3.79,4.51h2Zm-7-6.39h-9.62v1.34h4.06v10h1.51v-10h4Zm-10.88,10h-6v-4.22h6v-1.34h-6v-3.11h6v-1.34h-7.47v11.35h7.47Zm-10.88-10h-1.41V519l-4.92-9.27h-2.34v11.35h1.41V510.94l5.39,10.15h1.87Zm-11.45,10h-6v-4.22h6v-1.34h-6v-3.11h6v-1.34H681v11.35h7.48Zm-11.58-5.63a2.36,2.36,0,0,1-.5.77,2.11,2.11,0,0,1-.93.52,5.6,5.6,0,0,1-1.49.16H672.7V511h1.49a5.68,5.68,0,0,1,1.19.1,2.46,2.46,0,0,1,.83.34,1.72,1.72,0,0,1,.63.71,2.47,2.47,0,0,1,.2,1,2.59,2.59,0,0,1-.15.91m1.37-2.59a3.12,3.12,0,0,0-1-1.08,4.21,4.21,0,0,0-1.26-.54,7.78,7.78,0,0,0-1.73-.17h-3.08v11.35h1.51v-4.23h1.51a6.13,6.13,0,0,0,2-.29,3.84,3.84,0,0,0,1.38-.88,3.42,3.42,0,0,0,.74-1.12,3.79,3.79,0,0,0,.26-1.4,3.46,3.46,0,0,0-.35-1.64" transform="translate(-0.43 -11.1)"/><path class="cls-14" d="M976.23,419.44a4,4,0,0,0-1.91-1c-.42-.11-.93-.21-1.53-.31l-1.38-.26a2.5,2.5,0,0,1-1.29-.62,1.62,1.62,0,0,1-.37-1.11,1.53,1.53,0,0,1,.74-1.3,3.36,3.36,0,0,1,2-.5,6.7,6.7,0,0,1,2.16.36,5.14,5.14,0,0,1,1.7.91h.11v-1.78a9.83,9.83,0,0,0-4-.8,5,5,0,0,0-3.05.91,2.8,2.8,0,0,0-1.21,2.34,2.86,2.86,0,0,0,.73,2,4.21,4.21,0,0,0,2.24,1.09c.5.1,1,.19,1.41.25a10,10,0,0,1,1.24.26,2.49,2.49,0,0,1,1.13.55,1.51,1.51,0,0,1,.37,1.11,1.61,1.61,0,0,1-.79,1.41,3.86,3.86,0,0,1-2.18.52,6.5,6.5,0,0,1-2.12-.39,6.13,6.13,0,0,1-2-1.1h-.11v1.89a11,11,0,0,0,2,.68,9.84,9.84,0,0,0,2.2.23,5.93,5.93,0,0,0,2-.28,4.71,4.71,0,0,0,1.42-.76,3.22,3.22,0,0,0,.87-1.1,3.1,3.1,0,0,0,.31-1.31,2.69,2.69,0,0,0-.64-1.9m-13,2.89a3.67,3.67,0,0,1-5.39,0,5.1,5.1,0,0,1-1-3.42,5.21,5.21,0,0,1,1-3.41,3.66,3.66,0,0,1,5.42,0,5.21,5.21,0,0,1,1,3.41,5.15,5.15,0,0,1-1,3.42m-.51-8.94a5.85,5.85,0,0,0-2.19-.4,5.66,5.66,0,0,0-2.17.4,4.48,4.48,0,0,0-1.67,1.14,5.45,5.45,0,0,0-1.06,1.89,7.67,7.67,0,0,0-.37,2.49,7.79,7.79,0,0,0,.37,2.51,5.29,5.29,0,0,0,1.05,1.85,4.54,4.54,0,0,0,1.67,1.15,5.64,5.64,0,0,0,2.18.4,5.73,5.73,0,0,0,2.18-.39,4.58,4.58,0,0,0,1.66-1.16,5.29,5.29,0,0,0,1.06-1.85,8.7,8.7,0,0,0,0-5,5.1,5.1,0,0,0-1.06-1.87,4.6,4.6,0,0,0-1.65-1.14m-8.35-.16h-9.62v1.34h4.06v10h1.51v-10h4ZM943.78,422h-.1a5.89,5.89,0,0,1-1.79,1.12,5.52,5.52,0,0,1-2,.37,4.25,4.25,0,0,1-1.51-.27,3.35,3.35,0,0,1-1.24-.83,4.19,4.19,0,0,1-.84-1.41,5.73,5.73,0,0,1-.32-2.05,6.47,6.47,0,0,1,.29-2,4,4,0,0,1,.82-1.44,3.34,3.34,0,0,1,1.23-.87,4,4,0,0,1,1.55-.28,5.44,5.44,0,0,1,2,.36,7,7,0,0,1,1.86,1.14h.11V414a9.85,9.85,0,0,0-2-.78,8.17,8.17,0,0,0-1.83-.22,6.32,6.32,0,0,0-2.27.39,4.77,4.77,0,0,0-1.75,1.13,5.13,5.13,0,0,0-1.15,1.87,7.47,7.47,0,0,0-.39,2.51,7.33,7.33,0,0,0,.41,2.59,4.8,4.8,0,0,0,1.14,1.84,4.54,4.54,0,0,0,1.76,1.09,6.88,6.88,0,0,0,2.24.35,6.47,6.47,0,0,0,1.21-.11c.36-.07.7-.15,1-.24a6.77,6.77,0,0,0,.89-.34l.76-.34Zm-12-8.76h-1.51v6.91a6.84,6.84,0,0,1-.12,1.39,3,3,0,0,1-.43,1,2,2,0,0,1-.91.75,4,4,0,0,1-2.77,0,2,2,0,0,1-.91-.75,2.93,2.93,0,0,1-.43-1,6.88,6.88,0,0,1-.12-1.45v-6.87H923V420a7.58,7.58,0,0,0,.27,2.18,3.62,3.62,0,0,0,.89,1.5,3.44,3.44,0,0,0,1.33.84,5.78,5.78,0,0,0,1.86.28,5.6,5.6,0,0,0,1.83-.27,3.55,3.55,0,0,0,1.37-.85,3.36,3.36,0,0,0,.89-1.52,7.72,7.72,0,0,0,.27-2.16Zm-13.37,7.87a3.5,3.5,0,0,1-1.27,1.43,4.41,4.41,0,0,1-1.49.6,10.73,10.73,0,0,1-1.91.15h-1.42v-8.75h1.42a10.4,10.4,0,0,1,1.81.14,4.94,4.94,0,0,1,1.43.53,3.39,3.39,0,0,1,1.38,1.45,4.85,4.85,0,0,1,.47,2.24,5.09,5.09,0,0,1-.42,2.21m1.35-5a5,5,0,0,0-1.81-1.93,5.64,5.64,0,0,0-1.66-.66,11.51,11.51,0,0,0-2.64-.24h-2.83v11.35h2.86a12.21,12.21,0,0,0,2.52-.21,5.83,5.83,0,0,0,1.74-.7,5,5,0,0,0,1.79-1.95,5.83,5.83,0,0,0,.68-2.8,6,6,0,0,0-.65-2.86m-14.3,6.27a3.67,3.67,0,0,1-5.39,0,5.1,5.1,0,0,1-1-3.42,5.21,5.21,0,0,1,1-3.41,3.66,3.66,0,0,1,5.42,0,5.21,5.21,0,0,1,1,3.41,5.15,5.15,0,0,1-1,3.42m-.51-8.94a5.85,5.85,0,0,0-2.19-.4,5.66,5.66,0,0,0-2.17.4,4.4,4.4,0,0,0-1.67,1.14,5.47,5.47,0,0,0-1.07,1.89,8,8,0,0,0-.36,2.49,7.79,7.79,0,0,0,.37,2.51,5.14,5.14,0,0,0,1,1.85,4.54,4.54,0,0,0,1.67,1.15,5.64,5.64,0,0,0,2.18.4,5.76,5.76,0,0,0,2.18-.39,4.58,4.58,0,0,0,1.66-1.16,5.12,5.12,0,0,0,1.05-1.85,7.56,7.56,0,0,0,.38-2.51,7.79,7.79,0,0,0-.37-2.51,5.1,5.1,0,0,0-1.06-1.87,4.6,4.6,0,0,0-1.65-1.14m-12.36,4.09a2.05,2.05,0,0,1-.51.74,2,2,0,0,1-.91.46,5.11,5.11,0,0,1-1.25.13h-1.52v-4.28h1.78a5.47,5.47,0,0,1,1.05.08,2.09,2.09,0,0,1,.78.31,1.45,1.45,0,0,1,.57.64,2.13,2.13,0,0,1,.17.86,2.92,2.92,0,0,1-.16,1.06m-.58,2.14a3.77,3.77,0,0,0,1.7-1.25,3.33,3.33,0,0,0,.62-2.05,2.7,2.7,0,0,0-1.31-2.48,3.64,3.64,0,0,0-1.24-.48,9.08,9.08,0,0,0-1.71-.13h-3.18v11.35h1.51v-4.51h2.13l3.79,4.51h2Zm-9.22-2a2.17,2.17,0,0,1-1.44,1.29,5.47,5.47,0,0,1-1.48.16h-1.28v-4.53h1.5a5.51,5.51,0,0,1,1.18.1,2.51,2.51,0,0,1,.84.34,1.63,1.63,0,0,1,.62.71,2.32,2.32,0,0,1,.21,1,2.63,2.63,0,0,1-.15.91m1.36-2.59a3,3,0,0,0-1-1.08,3.59,3.59,0,0,0-1.26-.54,7.72,7.72,0,0,0-1.73-.17H877v11.35h1.51v-4.23h1.51a6,6,0,0,0,2-.29,3.79,3.79,0,0,0,1.39-.88,3.42,3.42,0,0,0,.74-1.12,3.79,3.79,0,0,0,.26-1.4,3.35,3.35,0,0,0-.36-1.64" transform="translate(-0.43 -11.1)"/><path class="cls-14" d="M950.14,398.62a4,4,0,0,0-1.9-1c-.42-.11-.93-.21-1.53-.31s-1.06-.19-1.39-.26a2.43,2.43,0,0,1-1.28-.62,1.57,1.57,0,0,1-.37-1.11,1.52,1.52,0,0,1,.73-1.3,3.46,3.46,0,0,1,2-.5,6.62,6.62,0,0,1,2.16.36,5.28,5.28,0,0,1,1.71.91h.11V393a10.52,10.52,0,0,0-1.77-.57,10.06,10.06,0,0,0-2.2-.22,4.92,4.92,0,0,0-3.06.91,3,3,0,0,0-.47,4.35,4.11,4.11,0,0,0,2.23,1.09c.5.1,1,.19,1.42.25a10.4,10.4,0,0,1,1.24.26,2.44,2.44,0,0,1,1.12.55,1.48,1.48,0,0,1,.37,1.12,1.62,1.62,0,0,1-.78,1.4,3.88,3.88,0,0,1-2.18.53,6.5,6.5,0,0,1-2.12-.39,6.13,6.13,0,0,1-2-1.11H942v1.89a11.16,11.16,0,0,0,2,.68,9.94,9.94,0,0,0,2.21.23,6,6,0,0,0,2-.28,4.5,4.5,0,0,0,1.42-.76,3,3,0,0,0,.86-1.1,2.93,2.93,0,0,0,.31-1.31,2.67,2.67,0,0,0-.64-1.9m-10.39,3.8h-6v-4.21h6v-1.35h-6v-3.11h6v-1.34h-7.48v11.35h7.48Zm-13-5.76a2.15,2.15,0,0,1-.5.74,2.08,2.08,0,0,1-.91.47,5.76,5.76,0,0,1-1.25.12h-1.53v-4.28h1.78a6.45,6.45,0,0,1,1.06.08,2.28,2.28,0,0,1,.78.31,1.65,1.65,0,0,1,.57.64,2.14,2.14,0,0,1,.17.87,2.88,2.88,0,0,1-.17,1.05m-.57,2.14a3.7,3.7,0,0,0,1.7-1.25,3.33,3.33,0,0,0,.61-2.05,2.65,2.65,0,0,0-1.31-2.48,3.59,3.59,0,0,0-1.23-.48,10.14,10.14,0,0,0-1.72-.13H921v11.35h1.51v-4.51h2.13l3.8,4.51h2Zm-10.48,2.71a3.66,3.66,0,0,1-5.4,0,5.15,5.15,0,0,1-1-3.42,5.29,5.29,0,0,1,1-3.41,3.67,3.67,0,0,1,5.43,0,5.23,5.23,0,0,1,1,3.41,5.15,5.15,0,0,1-1,3.42m-.51-8.94a5.87,5.87,0,0,0-2.2-.4,5.94,5.94,0,0,0-2.17.4,4.56,4.56,0,0,0-1.66,1.14,5.47,5.47,0,0,0-1.07,1.89,8,8,0,0,0-.36,2.49,7.75,7.75,0,0,0,.37,2.51,5,5,0,0,0,1,1.85,4.46,4.46,0,0,0,1.67,1.15,5.63,5.63,0,0,0,2.17.4,5.78,5.78,0,0,0,2.19-.39,4.46,4.46,0,0,0,1.66-1.16,5.12,5.12,0,0,0,1.05-1.85,8.59,8.59,0,0,0,0-5,5.34,5.34,0,0,0-1.06-1.87,4.78,4.78,0,0,0-1.65-1.14M905,392.41h-3.91v1.21h2.4v6.62a7.57,7.57,0,0,1-.06,1,1.67,1.67,0,0,1-.26.75,1.25,1.25,0,0,1-.62.46,3.26,3.26,0,0,1-1.11.16,3.73,3.73,0,0,1-.94-.12,7.72,7.72,0,0,1-.77-.22h-.08v1.41a8.5,8.5,0,0,0,1,.16c.4,0,.73.06,1,.06a3.6,3.6,0,0,0,2.45-.8,3,3,0,0,0,.91-2.31Zm-6.95,10h-6v-4.21h6v-1.35h-6v-3.11h6v-1.34h-7.48v11.35h7.48Zm-10.92-10h-2.09l-2.93,6.32-3-6.32H877v11.35h1.41V394l3.14,6.66h.9l3.15-6.66v9.78h1.51Z" transform="translate(-0.43 -11.1)"/><path class="cls-9" d="M1260,420.12l2-5.57,2,5.57Zm3-6.89h-2l-4.13,11.35h1.53l1.12-3.16h4.91l1.11,3.16h1.61Zm-7.78,10.19h-1.49v-9h1.49v-1.16h-4.48v1.16h1.48v9h-1.48v1.16h4.48Zm-6.53-1.43h-.1a5.89,5.89,0,0,1-1.79,1.12,5.52,5.52,0,0,1-2,.37,4.25,4.25,0,0,1-1.51-.27,3.35,3.35,0,0,1-1.24-.83,4.19,4.19,0,0,1-.84-1.41,5.73,5.73,0,0,1-.32-2.05,6.19,6.19,0,0,1,.29-2,4,4,0,0,1,.82-1.44,3.34,3.34,0,0,1,1.23-.87,4,4,0,0,1,1.55-.28,5.44,5.44,0,0,1,2,.36,7,7,0,0,1,1.86,1.14h.11V414a10.07,10.07,0,0,0-2-.78,8.17,8.17,0,0,0-1.83-.22,6.32,6.32,0,0,0-2.27.39,4.77,4.77,0,0,0-1.75,1.13,5.13,5.13,0,0,0-1.15,1.87,7.47,7.47,0,0,0-.39,2.51,7.33,7.33,0,0,0,.41,2.59,4.8,4.8,0,0,0,1.14,1.84,4.47,4.47,0,0,0,1.76,1.09,6.88,6.88,0,0,0,2.24.35,6.47,6.47,0,0,0,1.21-.11c.36-.07.69-.15,1-.24a6.77,6.77,0,0,0,.89-.34l.76-.34Zm-12.18-8.76h-1.41v9.27l-4.9-9.27h-2.35v11.35h1.42V414.43l5.38,10.15h1.86Zm-11.44,10h-6V419h6v-1.34h-6v-3.11h6v-1.34h-7.48v11.35h7.48Zm-10.44.18h-1.49v-9h1.49v-1.16h-4.48v1.16h1.49v9h-1.49v1.16h4.48Zm-6.53-1.43h-.1a5.89,5.89,0,0,1-1.79,1.12,5.48,5.48,0,0,1-2,.37,4.25,4.25,0,0,1-1.51-.27,3.35,3.35,0,0,1-1.24-.83,4.19,4.19,0,0,1-.84-1.41,6,6,0,0,1-.32-2.05,6.47,6.47,0,0,1,.29-2,4,4,0,0,1,.82-1.44,3.34,3.34,0,0,1,1.23-.87,4.05,4.05,0,0,1,1.56-.28,5.38,5.38,0,0,1,2,.36,6.82,6.82,0,0,1,1.86,1.14h.11V414a9.85,9.85,0,0,0-2-.78,8.17,8.17,0,0,0-1.83-.22,6.32,6.32,0,0,0-2.27.39,4.77,4.77,0,0,0-1.75,1.13,5,5,0,0,0-1.14,1.87,7.22,7.22,0,0,0-.4,2.51,7.57,7.57,0,0,0,.41,2.59,4.92,4.92,0,0,0,1.14,1.84,4.54,4.54,0,0,0,1.76,1.09,6.9,6.9,0,0,0,2.25.35,6.44,6.44,0,0,0,1.2-.11c.36-.07.7-.15,1-.24a8.09,8.09,0,0,0,.89-.34c.22-.11.47-.22.75-.34Zm-11.72,1.43H1195v-9h1.49v-1.16H1192v1.16h1.49v9H1192v1.16h4.49Zm-6.12-10.19h-7.25v11.35h1.51v-5.47h4.93v-1.34h-4.93v-3.2h5.74Zm-10,10h-6V419h6v-1.34h-6v-3.11h6v-1.34h-7.48v11.35h7.48Z" transform="translate(-0.43 -11.1)"/><path class="cls-9" d="M1225,396.66a1.94,1.94,0,0,1-1.41,1.21,5.76,5.76,0,0,1-1.25.12h-1.53v-4.28h1.78a6.45,6.45,0,0,1,1.06.08,2.28,2.28,0,0,1,.78.31,1.65,1.65,0,0,1,.57.64,2.14,2.14,0,0,1,.17.87,2.88,2.88,0,0,1-.17,1.05m-.57,2.14a3.7,3.7,0,0,0,1.7-1.25,3.33,3.33,0,0,0,.62-2.05,2.92,2.92,0,0,0-.35-1.5,2.84,2.84,0,0,0-1-1,3.51,3.51,0,0,0-1.23-.48,10.14,10.14,0,0,0-1.72-.13h-3.18v11.35h1.51v-4.51H1223l3.8,4.51h2ZM1214,401.51a3.66,3.66,0,0,1-5.4,0,5.15,5.15,0,0,1-1-3.42,5.29,5.29,0,0,1,1-3.41,3.67,3.67,0,0,1,5.43,0,5.23,5.23,0,0,1,1,3.41,5.15,5.15,0,0,1-1,3.42m-.51-8.94a6.14,6.14,0,0,0-4.36,0,4.51,4.51,0,0,0-1.67,1.14,5.47,5.47,0,0,0-1.07,1.89,8,8,0,0,0-.36,2.49,7.75,7.75,0,0,0,.37,2.51,5,5,0,0,0,1,1.85,4.46,4.46,0,0,0,1.67,1.15,5.63,5.63,0,0,0,2.17.4,5.78,5.78,0,0,0,2.19-.39,4.46,4.46,0,0,0,1.66-1.16,5.12,5.12,0,0,0,1-1.85,8.59,8.59,0,0,0,0-5,5.34,5.34,0,0,0-1.06-1.87,4.78,4.78,0,0,0-1.65-1.14m-10.23-.16-3.14,5.08-3.1-5.08h-1.67l4,6.54v4.81h1.51v-5l4-6.37Zm-15.11,6.89,2-5.57,2,5.57Zm3-6.89h-2L1185,403.76h1.53l1.12-3.16h4.91l1.11,3.16h1.61Zm-8.25,0h-2.1l-2.93,6.32-3-6.32h-2.06v11.35h1.41V394l3.13,6.66h.9l3.16-6.66v9.78h1.51Z" transform="translate(-0.43 -11.1)"/><path class="cls-8" d="M1533.68,265.43a3.48,3.48,0,0,1-1.27,1.42,4.41,4.41,0,0,1-1.49.6,10.57,10.57,0,0,1-1.91.16h-1.41v-8.76H1529a9.36,9.36,0,0,1,1.81.15,4.66,4.66,0,0,1,1.43.53,3.42,3.42,0,0,1,1.38,1.44,4.93,4.93,0,0,1,.47,2.25,5.16,5.16,0,0,1-.42,2.21m1.35-5.05a5.16,5.16,0,0,0-1.81-1.93,5.64,5.64,0,0,0-1.66-.66,11.51,11.51,0,0,0-2.64-.24h-2.83V268.9H1529a12.21,12.21,0,0,0,2.52-.21,5.56,5.56,0,0,0,1.74-.69,5.12,5.12,0,0,0,1.79-1.95,5.87,5.87,0,0,0,.68-2.81,6,6,0,0,0-.65-2.86m-18.23,4.07,2-5.58,2,5.58Zm3-6.9h-2l-4.13,11.35h1.53l1.11-3.16h4.91l1.12,3.16h1.6Zm-9.65,7.88a3.34,3.34,0,0,1-1.27,1.42,4.32,4.32,0,0,1-1.49.6,10.45,10.45,0,0,1-1.9.16h-1.42v-8.76h1.42a9.5,9.5,0,0,1,1.81.15,4.61,4.61,0,0,1,1.42.53,3.38,3.38,0,0,1,1.39,1.44,4.93,4.93,0,0,1,.46,2.25,5.16,5.16,0,0,1-.42,2.21m1.35-5.05a5.13,5.13,0,0,0-1.8-1.93,5.75,5.75,0,0,0-1.66-.66,11.51,11.51,0,0,0-2.64-.24h-2.84V268.9h2.87a12.21,12.21,0,0,0,2.52-.21,5.5,5.5,0,0,0,1.73-.69,5.07,5.07,0,0,0,1.8-1.95,6.42,6.42,0,0,0,0-5.67m-11.9,7.37h-1.48v-9h1.48v-1.16h-4.48v1.16h1.49v9h-1.49v1.15h4.48Zm-5.9-.19h-5.67v-10h-1.51V268.9h7.18Zm-16.47-3.11,2-5.58,2,5.58Zm3-6.9h-2l-4.13,11.35h1.53l1.11-3.16h4.91l1.12,3.16h1.61Zm-7.34,8.76h-.11a5.84,5.84,0,0,1-1.78,1.12,5.56,5.56,0,0,1-2,.38,4.25,4.25,0,0,1-1.51-.27,3.37,3.37,0,0,1-1.25-.84,4.23,4.23,0,0,1-.83-1.4,5.79,5.79,0,0,1-.32-2.06,6.27,6.27,0,0,1,.29-2,3.88,3.88,0,0,1,.82-1.44,3.46,3.46,0,0,1,1.23-.87,4.24,4.24,0,0,1,1.55-.27,5.65,5.65,0,0,1,2,.35,6.77,6.77,0,0,1,1.86,1.15h.11v-1.79a9.5,9.5,0,0,0-2-.78,7.63,7.63,0,0,0-1.83-.22,6.42,6.42,0,0,0-2.28.39,4.79,4.79,0,0,0-1.74,1.12,5.13,5.13,0,0,0-1.15,1.87,7.51,7.51,0,0,0-.4,2.51,7.38,7.38,0,0,0,.42,2.6,5,5,0,0,0,1.14,1.84,4.56,4.56,0,0,0,1.76,1.08,6.88,6.88,0,0,0,2.24.35,6.33,6.33,0,0,0,1.2-.1,8.29,8.29,0,0,0,1-.25,6.77,6.77,0,0,0,.89-.34l.76-.34Z" transform="translate(-0.43 -11.1)"/><path class="cls-8" d="M1516.43,241a2,2,0,0,1-.51.74,1.94,1.94,0,0,1-.91.47,5.7,5.7,0,0,1-1.25.12h-1.52V238H1514a5.41,5.41,0,0,1,1,.09,2.09,2.09,0,0,1,.78.31,1.43,1.43,0,0,1,.57.63,2.14,2.14,0,0,1,.17.87,2.83,2.83,0,0,1-.16,1m-.58,2.14a3.75,3.75,0,0,0,1.7-1.24,3.36,3.36,0,0,0,.62-2.06,2.87,2.87,0,0,0-.35-1.5,2.78,2.78,0,0,0-1-1,3.64,3.64,0,0,0-1.24-.48,9,9,0,0,0-1.71-.14h-3.18v11.36h1.51v-4.52h2.13l3.79,4.52h2Zm-10.48,2.71a3.65,3.65,0,0,1-5.39,0,5.15,5.15,0,0,1-1-3.42,5.23,5.23,0,0,1,1-3.41,3.66,3.66,0,0,1,5.42,0,5.23,5.23,0,0,1,1,3.41,5.15,5.15,0,0,1-1,3.42m-.51-8.93a6.14,6.14,0,0,0-4.36,0,4.36,4.36,0,0,0-1.67,1.14,5.28,5.28,0,0,0-1.06,1.89,7.65,7.65,0,0,0-.37,2.48,7.75,7.75,0,0,0,.37,2.51,5.21,5.21,0,0,0,1.06,1.86,4.54,4.54,0,0,0,1.66,1.15,5.87,5.87,0,0,0,2.18.39,5.69,5.69,0,0,0,2.18-.39,4.55,4.55,0,0,0,1.66-1.15,5.22,5.22,0,0,0,1.06-1.85,7.85,7.85,0,0,0,.38-2.52,7.72,7.72,0,0,0-.38-2.5,5.1,5.1,0,0,0-1.06-1.87,4.48,4.48,0,0,0-1.65-1.14m-10.23-.17-3.13,5.08-3.1-5.08h-1.67l4,6.54v4.82h1.51v-5l4-6.38Zm-15.1,6.9,2-5.58,2,5.58Zm3-6.9h-2l-4.13,11.36H1478l1.11-3.17H1484l1.11,3.17h1.61Zm-8.26,0h-2.09l-2.93,6.32-3-6.32h-2.06v11.36h1.41v-9.78l3.14,6.65h.9l3.15-6.65v9.78h1.51Z" transform="translate(-0.43 -11.1)"/><path class="cls-8" d="M1494.57,107.18h-2.19a11.58,11.58,0,0,0,.76-2.38h1.43ZM1481.46,112a9.54,9.54,0,1,1,9.54-9.54,9.54,9.54,0,0,1-9.54,9.54m-13.1,0v-2.39H1472a11.82,11.82,0,0,0,2.4,2.39Zm0-11.92h1.43a11.94,11.94,0,0,0-.24,2.38h-1.19Zm0,4.77h1.43a11,11,0,0,0,.76,2.38h-2.19Zm26.21-4.77v2.38h-1.19a11.94,11.94,0,0,0-.24-2.38Zm.6-2.38h-2.79a11.91,11.91,0,0,0-21.83,0h-2.79a1.79,1.79,0,0,0-1.79,1.79V103a1.77,1.77,0,0,0,.11.6,1.71,1.71,0,0,0-.11.59v3.58a1.71,1.71,0,0,0,.11.59,1.73,1.73,0,0,0-.11.6v3.57a1.79,1.79,0,0,0,1.79,1.79h9.53a1.8,1.8,0,0,0,1.13-.41,11.78,11.78,0,0,0,12.55-4.36h4.2a1.78,1.78,0,0,0,1.78-1.78V104.2a1.71,1.71,0,0,0-.11-.59,1.77,1.77,0,0,0,.11-.6V99.44a1.79,1.79,0,0,0-1.78-1.79" transform="translate(-0.43 -11.1)"/></g><rect class="cls-8" x="1440.52" y="47.23" width="14.3" height="2.38"/><g class="cls-5"><path class="cls-8" d="M1442,109.56v-3.71l.14-.26,2.39-.42a1.19,1.19,0,0,0,1-1.34l0-.22h13.37v-2.39h-13.49l1.5-1.55a1.12,1.12,0,0,0,.33-.83h11.66V96.62l2.39,1.65v11.29Zm-3.93.35a1.2,1.2,0,0,0-1.68,0l-1.54,1.54V108.3l.2,0,2.18-1.07,2.19,1.07.2,0v3.15Zm-6.59-6.89.26-1.85a1.2,1.2,0,0,0-.32-1l-1.3-1.34,1.3-1.34a1.2,1.2,0,0,0,.32-1l-.26-1.85,1.84-.32a1.19,1.19,0,0,0,.84-.62l.88-1.65,1.66.82a1.21,1.21,0,0,0,1,0l1.67-.82.88,1.65a1.19,1.19,0,0,0,.85.62l1.83.32-.26,1.85a1.2,1.2,0,0,0,.32,1l1.3,1.34-1.29,1.34a1.14,1.14,0,0,0-.32,1L1443,103l-1.84.32a1.16,1.16,0,0,0-.84.62l-.88,1.64-1.67-.81a1.14,1.14,0,0,0-1,0l-1.67.81-.88-1.64a1.18,1.18,0,0,0-.84-.61Zm8.8-48.27h21v2.91l-8.77,5.43h-15.06v2.39h11.21l-3.85,2.38h-7.36v2.38h3.51l-4.14,2.56a1.2,1.2,0,0,0-.39,1.64,1.34,1.34,0,0,0,.37.38l4,2.57h-3.35v2.38h7.06l1.28.82v1.57h-8.34v2.38h8.34v2.38h-8.34v2.39h10.88l3.44,2.38h-9.81l-.92-1.75a1.2,1.2,0,0,0-1.58-.51l-2.19,1.07L1435,89.43h0V60Zm22.15,33.74-22.79-14.66,22.79-14.1,22.79,14.11Zm-17.07,8-.19-.2.31-2.19h9.69l3.45,2.39ZM1476.7,86.3l-14.3,9.9-14.3-9.9V82.13l13.66,8.78a1.19,1.19,0,0,0,1.28,0l13.66-8.78Zm1.87,1.6a1.18,1.18,0,0,0,.51-1V80.59l9-5.77a1.2,1.2,0,0,0,.36-1.65,1.34,1.34,0,0,0-.38-.37l-24.46-15.14v-4.1a1.19,1.19,0,0,0-1.19-1.19h-22.64a1.15,1.15,0,0,0-.84.35l-6,6a1.19,1.19,0,0,0-.35.84v32l-.31.59-2.4.42a1.19,1.19,0,0,0-1,1.34l.34,2.41L1427.58,98a1.21,1.21,0,0,0,0,1.66l1.69,1.75-.34,2.41a1.19,1.19,0,0,0,1,1.34l2.4.42.13.26v8.48a1.2,1.2,0,0,0,2,.84l2.73-2.73,2.73,2.73a1.16,1.16,0,0,0,.84.35,1.18,1.18,0,0,0,.46-.09,1.2,1.2,0,0,0,.73-1.1V112h20.43a1.19,1.19,0,0,0,1.19-1.2V98.27Z" transform="translate(-0.43 -11.1)"/><path class="cls-8" d="M1482.66,95.26h-2.39v2.45a3,3,0,0,0,.6,5.9h1.19a.59.59,0,0,1,.6.59.6.6,0,0,1-.6.6h-4.17v2.38h2.38v3h2.39v-3a3,3,0,0,0-.6-5.9h-1.19a.59.59,0,0,1-.6-.59.6.6,0,0,1,.6-.6H1485V97.65h-2.38Z" transform="translate(-0.43 -11.1)"/></g><polygon class="cls-8" points="1473.88 49.61 1473.88 47.23 1476.26 47.23 1476.26 44.84 1473.88 44.84 1473.88 42.46 1471.5 42.46 1471.5 44.84 1469.12 44.84 1469.12 47.23 1471.5 47.23 1471.5 49.61 1473.88 49.61"/><polygon class="cls-8" points="1491.75 77.02 1491.75 74.63 1494.14 74.63 1494.14 72.25 1491.75 72.25 1491.75 69.87 1489.37 69.87 1489.37 72.25 1486.99 72.25 1486.99 74.63 1489.37 74.63 1489.37 77.02 1491.75 77.02"/><g class="cls-5"><path class="cls-8" d="M1437.38,96.63a2.21,2.21,0,1,1-2.21,2.21,2.21,2.21,0,0,1,2.21-2.21m0,6.8a4.59,4.59,0,1,0-4.6-4.59,4.6,4.6,0,0,0,4.6,4.59" transform="translate(-0.43 -11.1)"/><path class="cls-9" d="M1152,248.38H1148l3.66-12.53a3.8,3.8,0,0,0-2-4.51l-.17-.08a1.9,1.9,0,0,1-1.08-1.71V219.44a4.93,4.93,0,0,1,4.93-4.93H1163a4.93,4.93,0,0,1,4.93,4.93v10.11a1.9,1.9,0,0,1-1.08,1.71l-.17.08a3.8,3.8,0,0,0-2,4.5l3.67,12.54h-3.94a.94.94,0,0,0-.94.87l-.75,9.81a1.89,1.89,0,0,1-1.88,1.75h-5.3a1.9,1.9,0,0,1-1.89-1.75l-.74-9.81a1,1,0,0,0-.94-.87m3.57,14.32h5.3a3.81,3.81,0,0,0,3.77-3.5l.68-8.93h4.32a1,1,0,0,0,1-1,1.09,1.09,0,0,0,0-.26l-4-13.76a1.89,1.89,0,0,1,1-2.25l.17-.08a3.79,3.79,0,0,0,2.16-3.42V219.44a6.82,6.82,0,0,0-6.82-6.82h-9.64a6.83,6.83,0,0,0-6.83,6.82v10.11a3.82,3.82,0,0,0,2.17,3.42l.17.08a1.9,1.9,0,0,1,1,2.26l-4,13.75a.94.94,0,0,0,.64,1.17.84.84,0,0,0,.27,0h4.32l.68,8.93a3.81,3.81,0,0,0,3.77,3.5" transform="translate(-0.43 -11.1)"/><path class="cls-15" d="M1152,248.38H1148l3.66-12.53a3.8,3.8,0,0,0-2-4.51l-.17-.08a1.9,1.9,0,0,1-1.08-1.71V219.44a4.93,4.93,0,0,1,4.93-4.93H1163a4.93,4.93,0,0,1,4.93,4.93v10.11a1.9,1.9,0,0,1-1.08,1.71l-.17.08a3.8,3.8,0,0,0-2,4.5l3.67,12.54h-3.94a.94.94,0,0,0-.94.87l-.75,9.81a1.89,1.89,0,0,1-1.88,1.75h-5.3a1.9,1.9,0,0,1-1.89-1.75l-.74-9.81A1,1,0,0,0,1152,248.38Zm3.57,14.32h5.3a3.81,3.81,0,0,0,3.77-3.5l.68-8.93h4.32a1,1,0,0,0,1-1,1.09,1.09,0,0,0,0-.26l-4-13.76a1.89,1.89,0,0,1,1-2.25l.17-.08a3.79,3.79,0,0,0,2.16-3.42V219.44a6.82,6.82,0,0,0-6.82-6.82h-9.64a6.83,6.83,0,0,0-6.83,6.82v10.11a3.82,3.82,0,0,0,2.17,3.42l.17.08a1.9,1.9,0,0,1,1,2.26l-4,13.75a.94.94,0,0,0,.64,1.17.84.84,0,0,0,.27,0h4.32l.68,8.93A3.81,3.81,0,0,0,1155.52,262.7Z" transform="translate(-0.43 -11.1)"/><path class="cls-9" d="M1158.17,201.44a4.35,4.35,0,1,1-4.35,4.35,4.35,4.35,0,0,1,4.35-4.35m0,10.59a6.24,6.24,0,1,0-6.24-6.24,6.24,6.24,0,0,0,6.24,6.24" transform="translate(-0.43 -11.1)"/><path class="cls-15" d="M1158.17,201.44a4.35,4.35,0,1,1-4.35,4.35A4.35,4.35,0,0,1,1158.17,201.44Zm0,10.59a6.24,6.24,0,1,0-6.24-6.24A6.24,6.24,0,0,0,1158.17,212Z" transform="translate(-0.43 -11.1)"/><path class="cls-9" d="M1196.93,248.63a9.4,9.4,0,0,1-3.62,6.84l-7.53,5.14-7.53-5.14a9.43,9.43,0,0,1-3.62-6.84V237.94l11.15-4.38,11.15,4.39Zm1.3-12.2-12.1-4.76a.92.92,0,0,0-.69,0l-12.1,4.75a.94.94,0,0,0-.6.88v11.33a11.2,11.2,0,0,0,4.45,8.4l8.06,5.5a1,1,0,0,0,1.07,0l8.06-5.5a11.22,11.22,0,0,0,4.44-8.4V237.31a.94.94,0,0,0-.59-.88" transform="translate(-0.43 -11.1)"/><path class="cls-15" d="M1196.93,248.63a9.4,9.4,0,0,1-3.62,6.84l-7.53,5.14-7.53-5.14a9.43,9.43,0,0,1-3.62-6.84V237.94l11.15-4.38,11.15,4.39Zm1.3-12.2-12.1-4.76a.92.92,0,0,0-.69,0l-12.1,4.75a.94.94,0,0,0-.6.88v11.33a11.2,11.2,0,0,0,4.45,8.4l8.06,5.5a1,1,0,0,0,1.07,0l8.06-5.5a11.22,11.22,0,0,0,4.44-8.4V237.31A.94.94,0,0,0,1198.23,236.43Z" transform="translate(-0.43 -11.1)"/><path class="cls-9" d="M1181.46,245.38a.94.94,0,1,0-1.39,1.27l3.28,3.61a1,1,0,0,0,1.34.07l6.75-6.13a1,1,0,0,0,0-1.34.93.93,0,0,0-1.32-.06l-6.06,5.49Z" transform="translate(-0.43 -11.1)"/><path class="cls-15" d="M1181.46,245.38a.94.94,0,1,0-1.39,1.27l3.28,3.61a1,1,0,0,0,1.34.07l6.75-6.13a1,1,0,0,0,0-1.34.93.93,0,0,0-1.32-.06l-6.06,5.49Z" transform="translate(-0.43 -11.1)"/><path class="cls-13" d="M640.78,443.46a2.2,2.2,0,0,1-2.19,2.2H610a2.2,2.2,0,0,1-2.19-2.2v-2.19h32.94Zm-37.35-6.58a11,11,0,0,0,4.4-8.78v-11h19.78a2.19,2.19,0,0,1,2.19,2.19v17.56Zm-4.38,8.78a2.2,2.2,0,0,1-2.19-2.2v-2.19h6.58v2.19a6.61,6.61,0,0,0,.38,2.2Zm-11-11H557.32a6.59,6.59,0,0,1-6.59-6.58v-2.2h52.71v2.2a6.59,6.59,0,0,1-6.59,6.58Zm2.19,11a4.39,4.39,0,0,1-4.39-4.39v-2.19h6.59v4.39a6.51,6.51,0,0,0,.38,2.19Zm-18.75,0a8.68,8.68,0,0,0,1.18-4.39v-2.19h8.79v2.19a8.68,8.68,0,0,0,1.18,4.39Zm-20.78-26.33V401.77a6.58,6.58,0,0,1,6.59-6.58h39.53a6.58,6.58,0,0,1,6.59,6.58v19.74H550.73Zm-4.39,8.78v15.36a2.21,2.21,0,0,1-2.2,2.2H531a2.21,2.21,0,0,1-2.2-2.2v-2.19h13.18v-4.39H528.76V419.32a2.2,2.2,0,0,1,2.2-2.19h13.18a2.2,2.2,0,0,1,2.2,2.19ZM643,436.88h-8.79V419.32a6.59,6.59,0,0,0-6.58-6.58H607.83v-11a11,11,0,0,0-11-11H557.32a11,11,0,0,0-11,11v11.35a6.61,6.61,0,0,0-2.2-.38H531a6.59,6.59,0,0,0-6.59,6.58v24.14a6.6,6.6,0,0,0,6.59,6.59h13.18a6.6,6.6,0,0,0,6.59-6.59v-6.59a11,11,0,0,0,6.59,2.2h11v2.19a4.39,4.39,0,0,1-4.39,4.39h-4.4a2.2,2.2,0,0,0,0,4.39h35.15a2.2,2.2,0,0,0,1.55-.64,6.49,6.49,0,0,0,2.84.65h39.54a6.61,6.61,0,0,0,6.59-6.59v-4.39a2.2,2.2,0,0,0-2.2-2.19" transform="translate(-0.43 -11.1)"/><path class="cls-16" d="M640.78,443.46a2.2,2.2,0,0,1-2.19,2.2H610a2.2,2.2,0,0,1-2.19-2.2v-2.19h32.94Zm-37.35-6.58a11,11,0,0,0,4.4-8.78v-11h19.78a2.19,2.19,0,0,1,2.19,2.19v17.56Zm-4.38,8.78a2.2,2.2,0,0,1-2.19-2.2v-2.19h6.58v2.19a6.61,6.61,0,0,0,.38,2.2Zm-11-11H557.32a6.59,6.59,0,0,1-6.59-6.58v-2.2h52.71v2.2a6.59,6.59,0,0,1-6.59,6.58Zm2.19,11a4.39,4.39,0,0,1-4.39-4.39v-2.19h6.59v4.39a6.51,6.51,0,0,0,.38,2.19Zm-18.75,0a8.68,8.68,0,0,0,1.18-4.39v-2.19h8.79v2.19a8.68,8.68,0,0,0,1.18,4.39Zm-20.78-26.33V401.77a6.58,6.58,0,0,1,6.59-6.58h39.53a6.58,6.58,0,0,1,6.59,6.58v19.74H550.73Zm-4.39,8.78v15.36a2.21,2.21,0,0,1-2.2,2.2H531a2.21,2.21,0,0,1-2.2-2.2v-2.19h13.18v-4.39H528.76V419.32a2.2,2.2,0,0,1,2.2-2.19h13.18a2.2,2.2,0,0,1,2.2,2.19ZM643,436.88h-8.79V419.32a6.59,6.59,0,0,0-6.58-6.58H607.83v-11a11,11,0,0,0-11-11H557.32a11,11,0,0,0-11,11v11.35a6.61,6.61,0,0,0-2.2-.38H531a6.59,6.59,0,0,0-6.59,6.58v24.14a6.6,6.6,0,0,0,6.59,6.59h13.18a6.6,6.6,0,0,0,6.59-6.59v-6.59a11,11,0,0,0,6.59,2.2h11v2.19a4.39,4.39,0,0,1-4.39,4.39h-4.4a2.2,2.2,0,0,0,0,4.39h35.15a2.2,2.2,0,0,0,1.55-.64,6.49,6.49,0,0,0,2.84.65h39.54a6.61,6.61,0,0,0,6.59-6.59v-4.39A2.2,2.2,0,0,0,643,436.88Z" transform="translate(-0.43 -11.1)"/><path class="cls-13" d="M577.08,428.17a2.15,2.15,0,1,1-2.15,2.14,2.14,2.14,0,0,1,2.15-2.14" transform="translate(-0.43 -11.1)"/><path class="cls-16" d="M577.08,428.17a2.15,2.15,0,1,1-2.15,2.14A2.14,2.14,0,0,1,577.08,428.17Z" transform="translate(-0.43 -11.1)"/></g><rect class="cls-13" x="556.91" y="388.49" width="4.29" height="4.29"/><rect class="cls-16" x="556.91" y="388.49" width="4.29" height="4.29"/><rect class="cls-13" x="565.71" y="388.49" width="4.29" height="4.29"/><rect class="cls-16" x="565.71" y="388.49" width="4.29" height="4.29"/><rect class="cls-13" x="574.5" y="388.49" width="4.29" height="4.29"/><rect class="cls-16" x="574.5" y="388.49" width="4.29" height="4.29"/><g class="cls-5"><path class="cls-14" d="M861,288.18V262.35h31.57v5.74h-4.3a7.18,7.18,0,1,0,0,14.35h4.31v5.74Zm31.58-8.61h-4.31a4.31,4.31,0,1,1,0-8.61h4.3Zm0-20.09H861a2.87,2.87,0,0,0-2.87,2.87v25.83a2.88,2.88,0,0,0,2.87,2.87h31.57a2.87,2.87,0,0,0,2.87-2.87V262.35a2.86,2.86,0,0,0-2.87-2.87" transform="translate(-0.43 -11.1)"/></g><rect class="cls-14" x="886.38" y="262.73" width="2.87" height="2.87"/><g class="cls-5"><path class="cls-14" d="M830.85,276.7a8.63,8.63,0,0,1,6.64-8.38l-2.28,8a1.44,1.44,0,0,0,.09,1l2.87,5.74a1.45,1.45,0,0,0,1.29.79,1.44,1.44,0,0,0,1.28-.79l2.87-5.74a1.44,1.44,0,0,0,.1-1l-2.28-8a8.6,8.6,0,0,1,6.64,8.38v11.48H830.85Zm9.95-.15-1.34,2.68-1.34-2.68,1.34-4.67Zm-7-16.47a1.93,1.93,0,0,1,0-.24,9.8,9.8,0,0,1,11.43.08,1.41,1.41,0,0,1,0,.2,5.74,5.74,0,0,1-11.41,0m5.71-6.34A5.75,5.75,0,0,1,844,256a13,13,0,0,0-4.63-.87,12.86,12.86,0,0,0-4.46.8,5.75,5.75,0,0,1,4.52-2.23M828,289.61a1.44,1.44,0,0,0,1.43,1.44H849.5a1.44,1.44,0,0,0,1.44-1.44V276.7a11.44,11.44,0,0,0-3.36-8.12,11.76,11.76,0,0,0-3.05-2.18,8.48,8.48,0,0,0,3.48-5.93,8.1,8.1,0,0,0,.06-1c0-.29,0-.55,0-.79a8.61,8.61,0,0,0-17.14,0,7.27,7.27,0,0,0,0,.82,7.08,7.08,0,0,0,0,.95,8.57,8.57,0,0,0,3.5,6A11.46,11.46,0,0,0,828,276.7Z" transform="translate(-0.43 -11.1)"/><path class="cls-14" d="M876.77,230.78a11.48,11.48,0,1,1-11.48,11.48,11.49,11.49,0,0,1,11.48-11.48m-14.35,11.48a14.35,14.35,0,1,0,14.35-14.35,14.37,14.37,0,0,0-14.35,14.35" transform="translate(-0.43 -11.1)"/><path class="cls-14" d="M876.77,246.56a1.44,1.44,0,0,1-1.44-1.43h-2.87a4.32,4.32,0,0,0,2.87,4v1.7h2.87v-1.7a4.3,4.3,0,0,0-1.43-8.35,1.44,1.44,0,1,1,1.43-1.43h2.87a4.29,4.29,0,0,0-2.87-4v-1.7h-2.87v1.7a4.29,4.29,0,0,0,1.44,8.34,1.44,1.44,0,0,1,0,2.87" transform="translate(-0.43 -11.1)"/><path class="cls-14" d="M875,212.12l1.77-3,1.77,3ZM878.2,225V215h2.87a1.43,1.43,0,0,0,1.25-.73,1.4,1.4,0,0,0,0-1.44l-4.3-7.18a1.5,1.5,0,0,0-2.46,0l-4.31,7.18a1.43,1.43,0,0,0,0,1.44,1.45,1.45,0,0,0,1.25.73h2.87v10Z" transform="translate(-0.43 -11.1)"/><path class="cls-14" d="M900.63,218.12l-.84,3.34-2.5-2.5Zm-1.07,7.16a1.42,1.42,0,0,0,1,.42,1.58,1.58,0,0,0,.38,0,1.42,1.42,0,0,0,1-1l2-8.12a1.45,1.45,0,0,0-.38-1.37,1.42,1.42,0,0,0-1.36-.37l-8.12,2a1.43,1.43,0,0,0-.66,2.4l2,2-7.11,7.1,2,2,7.1-7.1Z" transform="translate(-0.43 -11.1)"/><path class="cls-14" d="M906.9,244v-3.55l3,1.78Zm6.48-3-7.17-4.31A1.44,1.44,0,0,0,904,238v2.87H894v2.87h10v2.87a1.43,1.43,0,0,0,.73,1.25,1.48,1.48,0,0,0,.71.19,1.43,1.43,0,0,0,.74-.21l7.17-4.3a1.45,1.45,0,0,0,.7-1.23,1.42,1.42,0,0,0-.7-1.23" transform="translate(-0.43 -11.1)"/></g></svg>