<?xml version="1.0" encoding="utf-8"?>
<!-- Generator: Adobe Illustrator 25.2.1, SVG Export Plug-In . SVG Version: 6.00 Build 0)  -->
<svg version="1.1" id="Capa_1" xmlns="http://www.w3.org/2000/svg" xmlns:xlink="http://www.w3.org/1999/xlink" x="0px" y="0px"
	 viewBox="0 0 460.8 158.8" style="enable-background:new 0 0 460.8 158.8;" xml:space="preserve">
<style type="text/css">
	.st0{clip-path:url(#SVGID_2_);fill:#EF7B10;}
	.st1{fill:#FFF3E9;}
	.st2{fill:#EF7B10;}
	.st3{fill:#FFFFFF;}
	.st4{fill:#4B5B6D;}
	.st5{fill:#657483;}
	.st6{fill:none;stroke:#4B5B6D;stroke-linecap:round;stroke-linejoin:round;stroke-miterlimit:10;stroke-dasharray:0,2.984;}
	.st7{fill:none;stroke:#4B5B6D;stroke-linecap:round;stroke-linejoin:round;stroke-miterlimit:10;}
	.st8{fill:none;stroke:#4B5B6D;stroke-linecap:round;stroke-linejoin:round;stroke-miterlimit:10;stroke-dasharray:0,3.002;}
	.st9{clip-path:url(#SVGID_4_);fill:none;stroke:#4B5B6D;stroke-linecap:round;stroke-linejoin:round;stroke-miterlimit:10;}
</style>
<g>
	<g>
		<defs>
			<rect id="SVGID_1_" x="9.2" y="10.2" width="442.4" height="138.3"/>
		</defs>
		<clipPath id="SVGID_2_">
			<use xlink:href="#SVGID_1_"  style="overflow:visible;"/>
		</clipPath>
		<path class="st0" d="M204,10.2h-3.2v13.7h3.2V10.2z M193.8,23.9h3.1v-6.7c0-1.2-0.4-2.1-1.2-2.6c-0.8-0.6-2.1-0.8-3.9-0.8
			c-0.8,0-1.5,0.1-2.3,0.2c-0.8,0.1-1.3,0.2-1.6,0.3v2.4h0.3c0.3-0.1,0.7-0.2,1.3-0.4c0.6-0.2,1.1-0.3,1.7-0.3c0.9,0,1.5,0.1,2,0.3
			c0.4,0.2,0.7,0.6,0.7,1.1v0.1c-0.9,0.1-1.8,0.1-2.7,0.2c-0.9,0.1-1.6,0.3-2.2,0.6c-0.6,0.3-1,0.6-1.4,1.1c-0.3,0.5-0.5,1-0.5,1.8
			c0,0.9,0.3,1.6,0.9,2.2c0.6,0.6,1.4,0.9,2.4,0.9c0.4,0,0.8,0,1.1-0.1s0.7-0.2,1-0.3c0.2-0.1,0.5-0.2,0.7-0.4
			c0.3-0.2,0.5-0.3,0.6-0.5V23.9z M193,21.8c-0.3,0.1-0.6,0.2-1,0.2c-0.4,0-0.7,0-0.9-0.1c-0.2-0.1-0.3-0.1-0.5-0.3
			c-0.1-0.1-0.2-0.2-0.3-0.4c0-0.1-0.1-0.3-0.1-0.5c0-0.3,0.1-0.6,0.2-0.7c0.2-0.2,0.4-0.3,0.7-0.4c0.3-0.1,0.6-0.2,1.1-0.2
			c0.5-0.1,1-0.1,1.4-0.1v2C193.6,21.5,193.3,21.7,193,21.8 M185.1,21.7h-0.3c-0.1,0.1-0.3,0.1-0.6,0.2c-0.3,0.1-0.5,0.1-0.6,0.1
			c-0.4,0-0.7-0.1-0.9-0.2c-0.2-0.1-0.4-0.3-0.4-0.5c-0.1-0.2-0.1-0.4-0.1-0.7c0-0.3,0-0.6,0-0.9v-3.5h3V14h-3v-2.8h-3.2V14h-1.3
			v2.1h1.3v4.6c0,1.2,0.3,2.1,0.9,2.6c0.6,0.5,1.5,0.7,2.7,0.7c0.6,0,1,0,1.4-0.1c0.4,0,0.7-0.1,1.1-0.2V21.7z M171,21.9
			c-0.3,0.1-0.5,0.1-0.8,0.1c-0.3,0-0.6-0.1-0.9-0.2c-0.3-0.1-0.5-0.3-0.7-0.5c-0.2-0.2-0.3-0.6-0.4-1c-0.1-0.4-0.2-0.9-0.2-1.4
			c0-0.6,0.1-1.1,0.2-1.5c0.1-0.4,0.3-0.7,0.5-0.9c0.2-0.2,0.4-0.4,0.7-0.5c0.2-0.1,0.5-0.1,0.8-0.1c0.3,0,0.6,0.1,0.9,0.1
			c0.3,0.1,0.5,0.3,0.7,0.5c0.2,0.2,0.3,0.5,0.4,0.9c0.1,0.4,0.2,0.9,0.2,1.5c0,0.6-0.1,1.1-0.2,1.5c-0.1,0.4-0.3,0.7-0.5,0.9
			C171.5,21.6,171.3,21.8,171,21.9 M174.2,15.1c-0.9-0.9-2.3-1.4-4-1.4c-1.7,0-3,0.5-4,1.4c-1,0.9-1.4,2.2-1.4,3.8
			c0,1.6,0.5,2.9,1.4,3.8c0.9,0.9,2.3,1.4,4,1.4s3-0.5,4-1.4c0.9-0.9,1.4-2.2,1.4-3.8S175.1,16.1,174.2,15.1 M162.7,21.7h-0.3
			c-0.1,0.1-0.3,0.1-0.6,0.2c-0.3,0.1-0.5,0.1-0.6,0.1c-0.4,0-0.7-0.1-0.9-0.2c-0.2-0.1-0.4-0.3-0.4-0.5c-0.1-0.2-0.1-0.4-0.1-0.7
			c0-0.3,0-0.6,0-0.9v-3.5h3V14h-3v-2.8h-3.2V14h-1.3v2.1h1.3v4.6c0,1.2,0.3,2.1,0.9,2.6c0.6,0.5,1.5,0.7,2.7,0.7c0.6,0,1,0,1.4-0.1
			c0.4,0,0.7-0.1,1.1-0.2V21.7z M142.4,23.9h3.1v-6.7c0-1.2-0.4-2.1-1.2-2.6c-0.8-0.6-2.1-0.8-3.9-0.8c-0.8,0-1.5,0.1-2.3,0.2
			c-0.8,0.1-1.3,0.2-1.6,0.3v2.4h0.3c0.3-0.1,0.7-0.2,1.3-0.4c0.6-0.2,1.1-0.3,1.7-0.3c0.9,0,1.5,0.1,2,0.3c0.4,0.2,0.7,0.6,0.7,1.1
			v0.1c-0.9,0.1-1.8,0.1-2.7,0.2c-0.9,0.1-1.6,0.3-2.2,0.6c-0.6,0.3-1,0.6-1.4,1.1c-0.3,0.5-0.5,1-0.5,1.8c0,0.9,0.3,1.6,0.9,2.2
			c0.6,0.6,1.4,0.9,2.4,0.9c0.4,0,0.8,0,1.1-0.1s0.7-0.2,1-0.3c0.2-0.1,0.5-0.2,0.7-0.4c0.3-0.2,0.5-0.3,0.6-0.5V23.9z M141.5,21.8
			c-0.3,0.1-0.6,0.2-1,0.2c-0.4,0-0.7,0-0.9-0.1c-0.2-0.1-0.3-0.1-0.5-0.3c-0.1-0.1-0.2-0.2-0.3-0.4c0-0.1-0.1-0.3-0.1-0.5
			c0-0.3,0.1-0.6,0.3-0.7c0.2-0.2,0.4-0.3,0.7-0.4c0.3-0.1,0.6-0.2,1.1-0.2c0.5-0.1,1-0.1,1.4-0.1v2
			C142.2,21.5,141.9,21.7,141.5,21.8 M132.5,10.2h-3.2v13.7h3.2V10.2z M125.5,10.2h-3.2v13.7h3.2V10.2z M118.5,10.2h-3.3v2.4h3.3
			V10.2z M118.4,14h-3.2v9.9h3.2V14z M112.5,21.7h-0.3c-0.1,0.1-0.3,0.1-0.6,0.2c-0.3,0.1-0.5,0.1-0.6,0.1c-0.4,0-0.7-0.1-0.9-0.2
			c-0.2-0.1-0.4-0.3-0.4-0.5c-0.1-0.2-0.1-0.4-0.1-0.7c0-0.3,0-0.6,0-0.9v-3.5h3V14h-3v-2.8h-3.2V14h-1.3v2.1h1.3v4.6
			c0,1.2,0.3,2.1,0.9,2.6c0.6,0.5,1.5,0.7,2.7,0.7c0.6,0,1,0,1.4-0.1c0.4,0,0.7-0.1,1.1-0.2V21.7z M102.4,17.5
			c0-1.2-0.3-2.2-0.9-2.8c-0.6-0.6-1.4-0.9-2.5-0.9c-0.6,0-1.2,0.1-1.7,0.4c-0.5,0.2-1.1,0.6-1.6,1V14h-3.2v9.9h3.2v-7
			c0.3-0.2,0.7-0.4,1-0.4c0.3-0.1,0.6-0.1,0.9-0.1c0.4,0,0.7,0.1,0.9,0.2c0.2,0.1,0.4,0.3,0.5,0.5c0.1,0.2,0.2,0.5,0.2,0.9
			c0,0.4,0.1,0.8,0.1,1.2v4.9h3.2V17.5z M85.5,23.9h3.1v-6.7c0-1.2-0.4-2.1-1.2-2.6c-0.8-0.6-2.1-0.8-3.9-0.8
			c-0.8,0-1.5,0.1-2.3,0.2c-0.8,0.1-1.3,0.2-1.6,0.3v2.4h0.3c0.3-0.1,0.7-0.2,1.3-0.4c0.6-0.2,1.1-0.3,1.7-0.3c0.9,0,1.5,0.1,2,0.3
			c0.4,0.2,0.7,0.6,0.7,1.1v0.1c-0.9,0.1-1.8,0.1-2.7,0.2c-0.9,0.1-1.6,0.3-2.2,0.6c-0.6,0.3-1,0.6-1.4,1.1c-0.3,0.5-0.5,1-0.5,1.8
			c0,0.9,0.3,1.6,1,2.2c0.6,0.6,1.4,0.9,2.4,0.9c0.4,0,0.8,0,1.1-0.1s0.7-0.2,1-0.3c0.2-0.1,0.5-0.2,0.7-0.4
			c0.3-0.2,0.5-0.3,0.6-0.5V23.9z M84.6,21.8C84.3,22,84,22,83.7,22c-0.4,0-0.7,0-0.9-0.1c-0.2-0.1-0.3-0.1-0.5-0.3
			c-0.1-0.1-0.2-0.2-0.3-0.4c0-0.1-0.1-0.3-0.1-0.5c0-0.3,0.1-0.6,0.3-0.7c0.2-0.2,0.4-0.3,0.7-0.4c0.3-0.1,0.6-0.2,1.1-0.2
			c0.5-0.1,1-0.1,1.4-0.1v2C85.3,21.5,85,21.7,84.6,21.8 M75.6,10.2h-3.2v13.7h3.2V10.2z M65.7,16c-0.1,0.3-0.3,0.5-0.5,0.7
			c-0.3,0.2-0.6,0.4-0.9,0.4c-0.4,0.1-0.8,0.1-1.4,0.1h-1v-3.9h0.6c0.6,0,1,0,1.3,0c0.3,0,0.7,0.1,1,0.2c0.3,0.1,0.5,0.3,0.7,0.6
			c0.2,0.3,0.3,0.6,0.3,1C65.9,15.4,65.8,15.7,65.7,16 M68.9,13c-0.3-0.5-0.7-1-1.2-1.3c-0.4-0.3-0.9-0.5-1.5-0.6
			c-0.6-0.1-1.3-0.2-2.1-0.2h-5.6v13.1h3.4v-4.3H64c1,0,1.8-0.1,2.4-0.4c0.6-0.3,1.2-0.7,1.7-1.2c0.4-0.4,0.7-0.9,0.9-1.4
			c0.2-0.6,0.3-1.1,0.3-1.7C69.4,14.2,69.2,13.6,68.9,13"/>
	</g>
	<path class="st1" d="M369.4,103.8h62.1v20h-62.1V103.8z M306.3,103.8h63.1v20h-63.1V103.8z M243.6,103.8h62.6v20h-62.6V103.8z
		 M56.3,103.8h187.4v20H56.3V103.8z M56.3,63.8h187.4v20.4H56.3V63.8z"/>
	<path class="st2" d="M369.4,63.8h62.1v20.4h-62.1V63.8z M306.3,63.8h63.1v20.4h-63.1V63.8z M243.6,63.8h62.6v20.4h-62.6V63.8z"/>
	<g>
		<path class="st3" d="M265.5,77.3c1.6,0,2.5,0,2.9,0l-0.1,1.2H263l-0.1-0.3c1.1-0.8,2-1.7,2.7-2.6c0.7-1,1.1-1.9,1.1-2.8
			c0-0.9-0.4-1.3-1.1-1.3c-0.3,0-0.6,0.1-0.8,0.3s-0.3,0.5-0.3,0.8c0,0.2,0,0.3,0.1,0.6h-1.2c-0.1-0.2-0.2-0.5-0.2-0.8
			c0-0.6,0.2-1.1,0.7-1.5c0.4-0.4,1-0.7,1.7-0.7c0.8,0,1.4,0.2,1.9,0.7c0.4,0.5,0.6,1.1,0.6,1.8c0,0.7-0.3,1.5-0.8,2.3
			C266.8,75.9,266.2,76.6,265.5,77.3z"/>
		<path class="st3" d="M269.1,74.4c0-1.2,0.3-2.2,0.8-3s1.2-1.2,2-1.2c0.8,0,1.5,0.4,2,1.2s0.8,1.8,0.8,3c0,1.2-0.3,2.2-0.8,3
			c-0.5,0.8-1.2,1.2-2,1.2c-0.8,0-1.5-0.4-2-1.2C269.4,76.6,269.1,75.6,269.1,74.4z M270.6,74.4c0,0.9,0.1,1.6,0.4,2.2
			c0.2,0.6,0.5,0.9,0.9,0.9s0.7-0.3,0.9-0.9c0.2-0.6,0.3-1.3,0.3-2.2c0-0.9-0.1-1.6-0.3-2.1c-0.2-0.5-0.5-0.8-0.9-0.8
			c-0.4,0-0.7,0.3-0.9,0.8C270.7,72.8,270.6,73.5,270.6,74.4z"/>
		<path class="st3" d="M276.1,71.9l3.4-2c0,0.1,0,0.7,0,1.7c0,1,0,1.8,0,2.4v4.5h-1.4v-6.2l-2,1.1V71.9z"/>
		<path class="st3" d="M286.3,78c-0.5,0.4-1.1,0.7-2,0.7c-0.8,0-1.5-0.2-2-0.7c-0.5-0.4-0.7-1-0.7-1.7c0-0.5,0.1-0.9,0.4-1.3
			c0.3-0.4,0.6-0.6,1-0.8c-0.7-0.4-1.1-1-1.1-1.8c0-0.6,0.2-1.1,0.6-1.5c0.4-0.5,1-0.7,1.8-0.7c0.8,0,1.4,0.2,1.8,0.7
			c0.4,0.5,0.6,1,0.6,1.5c0,0.4-0.1,0.8-0.3,1.1c-0.2,0.3-0.5,0.6-0.8,0.7c0.4,0.2,0.7,0.4,0.9,0.8s0.4,0.8,0.4,1.3
			C287,76.9,286.7,77.5,286.3,78z M284.3,74.8c-0.4,0-0.6,0.1-0.9,0.4c-0.2,0.3-0.3,0.6-0.3,0.9c0,0.4,0.1,0.7,0.3,1
			c0.2,0.3,0.5,0.4,0.9,0.4s0.7-0.1,0.9-0.4c0.2-0.3,0.3-0.6,0.3-1c0-0.4-0.1-0.7-0.4-0.9C284.9,74.9,284.6,74.8,284.3,74.8z
			 M283.6,73.3c0.2,0.3,0.5,0.4,0.8,0.4c0.3,0,0.6-0.1,0.7-0.4c0.2-0.3,0.3-0.5,0.3-0.8c0-0.3-0.1-0.6-0.3-0.8s-0.4-0.3-0.8-0.3
			c-0.4,0-0.6,0.1-0.8,0.3c-0.2,0.2-0.3,0.5-0.3,0.8C283.3,72.8,283.4,73.1,283.6,73.3z"/>
	</g>
	<g>
		<path class="st3" d="M328.3,77.3c1.6,0,2.5,0,2.9,0l-0.1,1.2h-5.2l-0.1-0.3c1.1-0.8,2-1.7,2.7-2.6c0.7-1,1.1-1.9,1.1-2.8
			c0-0.9-0.4-1.3-1.1-1.3c-0.3,0-0.6,0.1-0.8,0.3c-0.2,0.2-0.3,0.5-0.3,0.8c0,0.2,0,0.3,0.1,0.6h-1.2c-0.1-0.2-0.2-0.5-0.2-0.8
			c0-0.6,0.2-1.1,0.7-1.5c0.4-0.4,1-0.7,1.7-0.7c0.8,0,1.4,0.2,1.9,0.7s0.6,1.1,0.6,1.8c0,0.7-0.3,1.5-0.8,2.3
			C329.7,75.9,329.1,76.6,328.3,77.3z"/>
		<path class="st3" d="M332,74.4c0-1.2,0.3-2.2,0.8-3c0.5-0.8,1.2-1.2,2-1.2s1.5,0.4,2,1.2c0.5,0.8,0.8,1.8,0.8,3
			c0,1.2-0.3,2.2-0.8,3c-0.5,0.8-1.2,1.2-2,1.2s-1.5-0.4-2-1.2C332.2,76.6,332,75.6,332,74.4z M333.4,74.4c0,0.9,0.1,1.6,0.4,2.2
			c0.2,0.6,0.5,0.9,0.9,0.9s0.7-0.3,0.9-0.9s0.3-1.3,0.3-2.2c0-0.9-0.1-1.6-0.3-2.1s-0.5-0.8-0.9-0.8c-0.4,0-0.7,0.3-0.9,0.8
			C333.5,72.8,333.4,73.5,333.4,74.4z"/>
		<path class="st3" d="M339,71.9l3.4-2c0,0.1,0,0.7,0,1.7c0,1,0,1.8,0,2.4v4.5h-1.4v-6.2l-2,1.1V71.9z"/>
		<path class="st3" d="M345.1,77.9c0.6-0.3,1.1-0.6,1.6-1c0.5-0.4,0.8-0.8,1.1-1.3c-0.2,0.2-0.5,0.2-0.9,0.2c-0.6,0-1.1-0.2-1.6-0.7
			c-0.4-0.5-0.6-1.2-0.6-2c0-0.8,0.2-1.5,0.7-2.1c0.4-0.6,1.1-0.9,1.9-0.9c0.8,0,1.4,0.3,1.8,0.8c0.5,0.5,0.7,1.3,0.7,2.3
			c0,1.2-0.3,2.2-1,3.2c-0.7,1-1.6,1.8-2.9,2.3L345.1,77.9z M346,73.1c0,0.2,0,0.4,0.1,0.6c0.1,0.2,0.2,0.4,0.4,0.7
			c0.2,0.2,0.4,0.3,0.7,0.3c0.4,0,0.7-0.1,0.9-0.4s0.3-0.7,0.3-1.1c0-0.6-0.1-1-0.3-1.3s-0.5-0.5-0.9-0.5
			C346.4,71.3,346,71.9,346,73.1z"/>
	</g>
	<g>
		<path class="st3" d="M391,77.3c1.6,0,2.5,0,2.9,0l-0.1,1.2h-5.2l-0.1-0.3c1.1-0.8,2-1.7,2.7-2.6c0.7-1,1.1-1.9,1.1-2.8
			c0-0.9-0.4-1.3-1.1-1.3c-0.3,0-0.6,0.1-0.8,0.3c-0.2,0.2-0.3,0.5-0.3,0.8c0,0.2,0,0.3,0.1,0.6h-1.2c-0.1-0.2-0.2-0.5-0.2-0.8
			c0-0.6,0.2-1.1,0.7-1.5c0.4-0.4,1-0.7,1.7-0.7c0.8,0,1.4,0.2,1.9,0.7s0.6,1.1,0.6,1.8c0,0.7-0.3,1.5-0.8,2.3
			C392.3,75.9,391.7,76.6,391,77.3z"/>
		<path class="st3" d="M394.6,74.4c0-1.2,0.3-2.2,0.8-3c0.5-0.8,1.2-1.2,2-1.2s1.5,0.4,2,1.2c0.5,0.8,0.8,1.8,0.8,3
			c0,1.2-0.3,2.2-0.8,3c-0.5,0.8-1.2,1.2-2,1.2s-1.5-0.4-2-1.2C394.8,76.6,394.6,75.6,394.6,74.4z M396,74.4c0,0.9,0.1,1.6,0.4,2.2
			c0.2,0.6,0.5,0.9,0.9,0.9s0.7-0.3,0.9-0.9s0.3-1.3,0.3-2.2c0-0.9-0.1-1.6-0.3-2.1s-0.5-0.8-0.9-0.8c-0.4,0-0.7,0.3-0.9,0.8
			C396.2,72.8,396,73.5,396,74.4z"/>
		<path class="st3" d="M403.4,77.3c1.6,0,2.5,0,2.9,0l-0.1,1.2h-5.2l-0.1-0.3c1.1-0.8,2-1.7,2.7-2.6c0.7-1,1.1-1.9,1.1-2.8
			c0-0.9-0.4-1.3-1.1-1.3c-0.3,0-0.6,0.1-0.8,0.3c-0.2,0.2-0.3,0.5-0.3,0.8c0,0.2,0,0.3,0.1,0.6h-1.2c-0.1-0.2-0.2-0.5-0.2-0.8
			c0-0.6,0.2-1.1,0.7-1.5c0.4-0.4,1-0.7,1.7-0.7c0.8,0,1.4,0.2,1.9,0.7s0.6,1.1,0.6,1.8c0,0.7-0.3,1.5-0.8,2.3
			C404.8,75.9,404.1,76.6,403.4,77.3z"/>
		<path class="st3" d="M407.1,74.4c0-1.2,0.3-2.2,0.8-3c0.5-0.8,1.2-1.2,2-1.2s1.5,0.4,2,1.2c0.5,0.8,0.8,1.8,0.8,3
			c0,1.2-0.3,2.2-0.8,3c-0.5,0.8-1.2,1.2-2,1.2s-1.5-0.4-2-1.2C407.3,76.6,407.1,75.6,407.1,74.4z M408.5,74.4
			c0,0.9,0.1,1.6,0.4,2.2c0.2,0.6,0.5,0.9,0.9,0.9s0.7-0.3,0.9-0.9s0.3-1.3,0.3-2.2c0-0.9-0.1-1.6-0.3-2.1s-0.5-0.8-0.9-0.8
			c-0.4,0-0.7,0.3-0.9,0.8C408.6,72.8,408.5,73.5,408.5,74.4z"/>
	</g>
	<g>
		<path class="st4" d="M66.7,89.1v0.8c-0.5-0.2-1-0.3-1.6-0.3c-1,0-1.8,0.3-2.4,0.8c-0.6,0.6-0.9,1.5-0.9,2.7c0,1.2,0.3,2.1,0.9,2.7
			s1.4,0.8,2.4,0.8c0.6,0,1.2-0.1,1.6-0.3V97c-0.6,0.2-1.2,0.3-1.6,0.3c-0.4,0-0.9,0-1.3-0.1c-0.4-0.1-0.8-0.2-1.1-0.5
			c-0.3-0.2-0.6-0.5-0.9-0.8c-0.3-0.3-0.4-0.7-0.6-1.2c-0.1-0.5-0.2-1-0.2-1.6c0-1.4,0.4-2.5,1.2-3.2c0.8-0.7,1.8-1.1,2.9-1.1
			C65.7,88.9,66.2,88.9,66.7,89.1z"/>
		<path class="st4" d="M69.8,91.5c0.7,0,1.3,0.3,1.7,0.8s0.6,1.2,0.6,2.1c0,0.9-0.2,1.6-0.6,2.1s-1,0.8-1.7,0.8
			c-0.7,0-1.3-0.3-1.7-0.8s-0.7-1.2-0.7-2.1c0-0.9,0.2-1.6,0.7-2.1S69.1,91.5,69.8,91.5z M70.9,92.7c-0.3-0.4-0.7-0.6-1.2-0.6
			c-0.5,0-0.8,0.2-1.1,0.6c-0.3,0.4-0.4,0.9-0.4,1.7c0,0.7,0.1,1.3,0.4,1.7c0.3,0.4,0.7,0.6,1.2,0.6s0.8-0.2,1.1-0.6
			s0.4-0.9,0.4-1.7C71.4,93.7,71.2,93.1,70.9,92.7z"/>
		<path class="st4" d="M73.4,88.2h0.8c0,0.3,0,0.9,0,1.9s0,1.9,0,2.5v4.5h-0.7V88.2z"/>
		<path class="st4" d="M78.4,93.6v-0.4c0-0.7-0.4-1.1-1.2-1.1c-0.5,0-1,0.1-1.5,0.4v-0.7c0.5-0.2,1.1-0.3,1.6-0.3
			c1.3,0,1.9,0.6,1.9,1.7c0,0.3,0,0.8,0,1.4c0,0.6,0,1.1,0,1.4c0,0.4,0,0.8,0,1.1c-0.3,0-0.6,0-1.1,0.1s-0.7,0.1-0.9,0.1
			c-0.6,0-1.1-0.2-1.4-0.5c-0.3-0.3-0.5-0.7-0.5-1.2c0-0.6,0.3-1.1,0.8-1.4C76.6,93.8,77.4,93.6,78.4,93.6z M78.4,94.2
			c-0.8,0-1.4,0.1-1.8,0.3c-0.4,0.2-0.5,0.6-0.5,1c0,0.3,0.1,0.6,0.3,0.8s0.5,0.3,0.9,0.3c0.7,0,1.1-0.2,1.1-0.5
			C78.4,95.9,78.4,95.3,78.4,94.2z"/>
		<path class="st4" d="M80.6,88.2h0.8c0,1.6,0,2.9,0,3.7c0.1-0.1,0.2-0.2,0.5-0.3s0.5-0.1,0.8-0.1c0.7,0,1.3,0.3,1.8,0.8
			c0.5,0.5,0.7,1.2,0.7,2.1s-0.2,1.6-0.7,2.1c-0.5,0.5-1.1,0.8-1.8,0.8c-0.3,0-0.7,0-1-0.1c-0.4-0.1-0.7-0.1-0.9-0.1V88.2z
			 M81.4,96.1c0,0.1,0.1,0.2,0.3,0.3c0.2,0.1,0.5,0.1,0.8,0.1c0.6,0,1-0.2,1.3-0.6c0.3-0.4,0.5-0.9,0.5-1.7c0-1.4-0.6-2.2-1.8-2.2
			c-0.3,0-0.6,0-0.8,0.2c-0.2,0.1-0.3,0.2-0.3,0.4V96.1z"/>
		<path class="st4" d="M88.4,91.5c0.7,0,1.3,0.3,1.7,0.8s0.6,1.2,0.6,2.1c0,0.9-0.2,1.6-0.6,2.1s-1,0.8-1.7,0.8
			c-0.7,0-1.3-0.3-1.7-0.8S86,95.3,86,94.4c0-0.9,0.2-1.6,0.7-2.1S87.7,91.5,88.4,91.5z M89.6,92.7c-0.3-0.4-0.7-0.6-1.2-0.6
			c-0.5,0-0.8,0.2-1.1,0.6c-0.3,0.4-0.4,0.9-0.4,1.7c0,0.7,0.1,1.3,0.4,1.7c0.3,0.4,0.7,0.6,1.2,0.6s0.8-0.2,1.1-0.6
			s0.4-0.9,0.4-1.7C90,93.7,89.9,93.1,89.6,92.7z"/>
		<path class="st4" d="M92.7,97.1H92v-5.5h0.7v0.6c0.1-0.2,0.3-0.4,0.6-0.6c0.3-0.1,0.6-0.2,0.9-0.2c0.2,0,0.4,0,0.6,0v0.8
			c-0.3-0.1-0.5-0.1-0.7-0.1c-0.4,0-0.7,0.1-1,0.2c-0.2,0.2-0.4,0.4-0.4,0.7C92.7,93.8,92.7,95.1,92.7,97.1z"/>
		<path class="st4" d="M98.2,93.6v-0.4c0-0.7-0.4-1.1-1.2-1.1c-0.5,0-1,0.1-1.5,0.4v-0.7c0.5-0.2,1.1-0.3,1.6-0.3
			c1.3,0,1.9,0.6,1.9,1.7c0,0.3,0,0.8,0,1.4c0,0.6,0,1.1,0,1.4c0,0.4,0,0.8,0,1.1c-0.3,0-0.6,0-1.1,0.1s-0.7,0.1-0.9,0.1
			c-0.6,0-1.1-0.2-1.4-0.5c-0.3-0.3-0.5-0.7-0.5-1.2c0-0.6,0.3-1.1,0.8-1.4C96.3,93.8,97.1,93.6,98.2,93.6z M98.2,94.2
			c-0.8,0-1.4,0.1-1.8,0.3c-0.4,0.2-0.5,0.6-0.5,1c0,0.3,0.1,0.6,0.3,0.8s0.5,0.3,0.9,0.3c0.7,0,1.1-0.2,1.1-0.5
			C98.2,95.9,98.2,95.3,98.2,94.2z"/>
		<path class="st4" d="M103.8,91.9v-3.7h0.8c0,1.2,0,2.6,0,4.2v4.6c-0.3,0-0.6,0-0.9,0.1c-0.4,0.1-0.7,0.1-1,0.1
			c-0.7,0-1.3-0.3-1.8-0.8c-0.5-0.5-0.7-1.2-0.7-2.1c0-0.9,0.2-1.6,0.7-2.1c0.5-0.5,1.1-0.8,1.8-0.8c0.3,0,0.5,0,0.8,0.1
			S103.7,91.8,103.8,91.9z M103.8,96.1v-3.5c0-0.1-0.1-0.2-0.3-0.3c-0.2-0.1-0.5-0.1-0.8-0.1c-0.6,0-1,0.2-1.3,0.6s-0.5,0.9-0.5,1.7
			c0,0.7,0.2,1.3,0.5,1.7s0.8,0.5,1.3,0.5c0.3,0,0.6,0,0.8-0.1C103.7,96.4,103.8,96.3,103.8,96.1z"/>
		<path class="st4" d="M108.1,91.5c0.7,0,1.3,0.3,1.7,0.8s0.6,1.2,0.6,2.1c0,0.9-0.2,1.6-0.6,2.1s-1,0.8-1.7,0.8
			c-0.7,0-1.3-0.3-1.7-0.8s-0.7-1.2-0.7-2.1c0-0.9,0.2-1.6,0.7-2.1S107.4,91.5,108.1,91.5z M109.2,92.7c-0.3-0.4-0.7-0.6-1.2-0.6
			c-0.5,0-0.8,0.2-1.1,0.6c-0.3,0.4-0.4,0.9-0.4,1.7c0,0.7,0.1,1.3,0.4,1.7c0.3,0.4,0.7,0.6,1.2,0.6s0.8-0.2,1.1-0.6
			s0.4-0.9,0.4-1.7C109.7,93.7,109.5,93.1,109.2,92.7z"/>
		<path class="st4" d="M112.4,97.1h-0.7v-5.5h0.7v0.6c0.1-0.2,0.3-0.4,0.6-0.6c0.3-0.1,0.6-0.2,0.9-0.2c0.2,0,0.4,0,0.6,0v0.8
			c-0.3-0.1-0.5-0.1-0.7-0.1c-0.4,0-0.7,0.1-1,0.2c-0.2,0.2-0.4,0.4-0.4,0.7C112.4,93.8,112.4,95.1,112.4,97.1z"/>
		<path class="st4" d="M115.5,94.1v0.3c0,0.8,0.2,1.3,0.5,1.7s0.9,0.6,1.5,0.6c0.4,0,0.8-0.1,1.1-0.2v0.6c-0.3,0.1-0.7,0.2-1.2,0.2
			c-0.8,0-1.5-0.2-2-0.7c-0.5-0.5-0.7-1.2-0.7-2.2c0-0.8,0.2-1.5,0.7-2.1c0.5-0.5,1.1-0.8,1.8-0.8c0.6,0,1.1,0.2,1.4,0.6
			c0.3,0.4,0.5,0.9,0.5,1.5c0,0.2,0,0.3,0,0.5H115.5z M115.6,93.5h2.4c0.1,0,0.2,0,0.2-0.1c0,0,0.1-0.1,0.1-0.2
			c0-0.3-0.1-0.6-0.3-0.8c-0.2-0.2-0.5-0.3-0.9-0.3c-0.5,0-0.9,0.1-1.1,0.4C115.9,92.8,115.7,93.1,115.6,93.5z"/>
		<path class="st4" d="M120,93.1c0-0.5,0.2-0.9,0.5-1.2c0.4-0.3,0.8-0.4,1.4-0.4c0.4,0,0.7,0.1,1,0.2v0.7c-0.4-0.1-0.7-0.2-1.1-0.2
			c-0.4,0-0.6,0.1-0.8,0.2c-0.2,0.1-0.3,0.3-0.3,0.6c0,0.3,0.1,0.5,0.4,0.7c0.3,0.2,0.6,0.4,0.9,0.5c0.3,0.1,0.6,0.3,0.9,0.6
			c0.3,0.3,0.4,0.6,0.4,0.9c0,0.5-0.2,0.9-0.5,1.2c-0.3,0.3-0.9,0.5-1.5,0.5c-0.4,0-0.8-0.1-1.2-0.2v-0.6c0.4,0.1,0.8,0.2,1.2,0.2
			c0.4,0,0.8-0.1,1-0.3s0.3-0.4,0.3-0.7c0-0.2-0.1-0.4-0.3-0.6c-0.2-0.2-0.4-0.3-0.6-0.4c-0.2-0.1-0.5-0.2-0.8-0.3s-0.5-0.3-0.6-0.5
			C120.1,93.6,120,93.4,120,93.1z"/>
	</g>
	<g>
		<path class="st5" d="M260.9,97.8c2,0,3.2,0,3.6-0.1l0,0.7h-5l0-0.2c2.7-2,4.1-3.9,4.1-5.7c0-0.6-0.1-1-0.4-1.3
			c-0.3-0.3-0.7-0.4-1.1-0.4c-0.4,0-0.8,0.1-1,0.4s-0.4,0.7-0.4,1.1c0,0.1,0,0.3,0,0.4h-0.6c-0.1-0.2-0.1-0.4-0.1-0.6
			c0-0.5,0.2-1,0.6-1.4c0.4-0.4,0.9-0.6,1.5-0.6c0.8,0,1.3,0.2,1.7,0.7c0.4,0.4,0.6,1,0.6,1.7c0,0.9-0.3,1.8-1,2.7
			C262.5,96.3,261.7,97.1,260.9,97.8z"/>
		<path class="st5" d="M266.7,97.8c2,0,3.2,0,3.6-0.1l0,0.7h-5l0-0.2c2.7-2,4.1-3.9,4.1-5.7c0-0.6-0.1-1-0.4-1.3
			c-0.3-0.3-0.7-0.4-1.1-0.4c-0.4,0-0.8,0.1-1,0.4s-0.4,0.7-0.4,1.1c0,0.1,0,0.3,0,0.4h-0.6c-0.1-0.2-0.1-0.4-0.1-0.6
			c0-0.5,0.2-1,0.6-1.4c0.4-0.4,0.9-0.6,1.5-0.6c0.8,0,1.3,0.2,1.7,0.7c0.4,0.4,0.6,1,0.6,1.7c0,0.9-0.3,1.8-1,2.7
			C268.4,96.3,267.6,97.1,266.7,97.8z"/>
		<path class="st5" d="M271.7,97.3h1.1l-1.2,2.7l-0.5-0.2C271.2,99.5,271.5,98.6,271.7,97.3z"/>
		<path class="st5" d="M273.8,94.4c0-1.2,0.2-2.2,0.7-3c0.5-0.8,1.1-1.2,1.9-1.2c0.8,0,1.4,0.4,1.9,1.2c0.5,0.8,0.7,1.8,0.7,3
			c0,1.2-0.2,2.2-0.7,3c-0.5,0.8-1.1,1.2-1.9,1.2c-0.8,0-1.4-0.4-1.9-1.2C274.1,96.6,273.8,95.6,273.8,94.4z M275.1,91.8
			c-0.3,0.6-0.5,1.5-0.5,2.5s0.2,1.9,0.5,2.6s0.7,1,1.3,1c0.5,0,0.9-0.3,1.3-1s0.5-1.5,0.5-2.6s-0.2-1.9-0.5-2.5s-0.7-1-1.3-1
			C275.9,90.9,275.5,91.2,275.1,91.8z"/>
		<path class="st5" d="M281.1,93.6c0.3-0.3,0.7-0.5,1.3-0.5c0.6,0,1.2,0.2,1.6,0.7c0.4,0.5,0.7,1.1,0.7,2c0,0.8-0.2,1.4-0.6,2
			c-0.4,0.6-1,0.9-1.7,0.9c-0.7,0-1.3-0.3-1.7-0.8c-0.4-0.5-0.6-1.3-0.6-2.2c0-1.2,0.3-2.3,1-3.3c0.6-1,1.6-1.7,2.8-2.3l0.3,0.5
			c-0.8,0.4-1.5,0.8-2,1.4C281.5,92.7,281.2,93.2,281.1,93.6z M283.9,95.8c0-0.2,0-0.4-0.1-0.6c0-0.2-0.1-0.4-0.2-0.6
			c-0.1-0.2-0.3-0.4-0.5-0.6c-0.2-0.1-0.5-0.2-0.8-0.2c-0.5,0-0.9,0.2-1.2,0.5c-0.3,0.4-0.4,0.8-0.4,1.3c0,0.7,0.1,1.3,0.4,1.7
			c0.3,0.4,0.7,0.6,1.1,0.6C283.3,98,283.9,97.3,283.9,95.8z"/>
		<path class="st5" d="M285.5,94.4c0-1.2,0.2-2.2,0.7-3c0.5-0.8,1.1-1.2,1.9-1.2c0.8,0,1.4,0.4,1.9,1.2c0.5,0.8,0.7,1.8,0.7,3
			c0,1.2-0.2,2.2-0.7,3c-0.5,0.8-1.1,1.2-1.9,1.2c-0.8,0-1.4-0.4-1.9-1.2C285.7,96.6,285.5,95.6,285.5,94.4z M286.8,91.8
			c-0.3,0.6-0.5,1.5-0.5,2.5s0.2,1.9,0.5,2.6s0.7,1,1.3,1c0.5,0,0.9-0.3,1.3-1s0.5-1.5,0.5-2.6s-0.2-1.9-0.5-2.5s-0.7-1-1.3-1
			C287.6,90.9,287.1,91.2,286.8,91.8z"/>
	</g>
	<g>
		<path class="st5" d="M323.7,97.8c2,0,3.2,0,3.6-0.1l0,0.7h-5l0-0.2c2.7-2,4.1-3.9,4.1-5.7c0-0.6-0.1-1-0.4-1.3
			c-0.3-0.3-0.7-0.4-1.1-0.4c-0.4,0-0.8,0.1-1,0.4s-0.4,0.7-0.4,1.1c0,0.1,0,0.3,0,0.4h-0.6c-0.1-0.2-0.1-0.4-0.1-0.6
			c0-0.5,0.2-1,0.6-1.4c0.4-0.4,0.9-0.6,1.5-0.6c0.8,0,1.3,0.2,1.7,0.7c0.4,0.4,0.6,1,0.6,1.7c0,0.9-0.3,1.8-1,2.7
			C325.4,96.3,324.6,97.1,323.7,97.8z"/>
		<path class="st5" d="M329.6,97.8c2,0,3.2,0,3.6-0.1l0,0.7h-5l0-0.2c2.7-2,4.1-3.9,4.1-5.7c0-0.6-0.1-1-0.4-1.3
			c-0.3-0.3-0.7-0.4-1.1-0.4c-0.4,0-0.8,0.1-1,0.4s-0.4,0.7-0.4,1.1c0,0.1,0,0.3,0,0.4h-0.6c-0.1-0.2-0.1-0.4-0.1-0.6
			c0-0.5,0.2-1,0.6-1.4c0.4-0.4,0.9-0.6,1.5-0.6c0.8,0,1.3,0.2,1.7,0.7c0.4,0.4,0.6,1,0.6,1.7c0,0.9-0.3,1.8-1,2.7
			C331.2,96.3,330.5,97.1,329.6,97.8z"/>
		<path class="st5" d="M334.6,97.3h1.1l-1.2,2.7l-0.5-0.2C334.1,99.5,334.3,98.6,334.6,97.3z"/>
		<path class="st5" d="M338.4,98.5h-0.8l3-7c0.1-0.1,0.1-0.2,0.1-0.3c0,0-0.1-0.1-0.2-0.1c-1.3,0-2.5,0-3.6,0.1v-0.7h4.8l0.1,0.2
			L338.4,98.5z"/>
		<path class="st5" d="M344.2,97.8c2,0,3.2,0,3.6-0.1l0,0.7h-5l0-0.2c2.7-2,4.1-3.9,4.1-5.7c0-0.6-0.1-1-0.4-1.3
			c-0.3-0.3-0.7-0.4-1.1-0.4c-0.4,0-0.8,0.1-1,0.4s-0.4,0.7-0.4,1.1c0,0.1,0,0.3,0,0.4h-0.6c-0.1-0.2-0.1-0.4-0.1-0.6
			c0-0.5,0.2-1,0.6-1.4c0.4-0.4,0.9-0.6,1.5-0.6c0.8,0,1.3,0.2,1.7,0.7c0.4,0.4,0.6,1,0.6,1.7c0,0.9-0.3,1.8-1,2.7
			C345.8,96.3,345,97.1,344.2,97.8z"/>
		<path class="st5" d="M349.8,93.6c0.3-0.3,0.7-0.5,1.3-0.5c0.6,0,1.2,0.2,1.6,0.7c0.4,0.5,0.7,1.1,0.7,2c0,0.8-0.2,1.4-0.6,2
			c-0.4,0.6-1,0.9-1.7,0.9c-0.7,0-1.3-0.3-1.7-0.8c-0.4-0.5-0.6-1.3-0.6-2.2c0-1.2,0.3-2.3,1-3.3c0.6-1,1.6-1.7,2.8-2.3l0.3,0.5
			c-0.8,0.4-1.5,0.8-2,1.4C350.2,92.7,349.9,93.2,349.8,93.6z M352.6,95.8c0-0.2,0-0.4-0.1-0.6s-0.1-0.4-0.2-0.6
			c-0.1-0.2-0.3-0.4-0.5-0.6c-0.2-0.1-0.5-0.2-0.8-0.2c-0.5,0-0.9,0.2-1.2,0.5c-0.3,0.4-0.4,0.8-0.4,1.3c0,0.7,0.1,1.3,0.4,1.7
			c0.3,0.4,0.7,0.6,1.1,0.6C352,98,352.6,97.3,352.6,95.8z"/>
	</g>
	<g>
		<path class="st5" d="M386.4,97.8c2,0,3.2,0,3.6-0.1l0,0.7h-5l0-0.2c2.7-2,4.1-3.9,4.1-5.7c0-0.6-0.1-1-0.4-1.3
			c-0.3-0.3-0.7-0.4-1.1-0.4c-0.4,0-0.8,0.1-1,0.4s-0.4,0.7-0.4,1.1c0,0.1,0,0.3,0,0.4h-0.6c-0.1-0.2-0.1-0.4-0.1-0.6
			c0-0.5,0.2-1,0.6-1.4c0.4-0.4,0.9-0.6,1.5-0.6c0.8,0,1.3,0.2,1.7,0.7c0.4,0.4,0.6,1,0.6,1.7c0,0.9-0.3,1.8-1,2.7
			C388,96.3,387.2,97.1,386.4,97.8z"/>
		<path class="st5" d="M392.2,97.8c2,0,3.2,0,3.6-0.1l0,0.7h-5l0-0.2c2.7-2,4.1-3.9,4.1-5.7c0-0.6-0.1-1-0.4-1.3
			c-0.3-0.3-0.7-0.4-1.1-0.4c-0.4,0-0.8,0.1-1,0.4s-0.4,0.7-0.4,1.1c0,0.1,0,0.3,0,0.4h-0.6c-0.1-0.2-0.1-0.4-0.1-0.6
			c0-0.5,0.2-1,0.6-1.4c0.4-0.4,0.9-0.6,1.5-0.6c0.8,0,1.3,0.2,1.7,0.7c0.4,0.4,0.6,1,0.6,1.7c0,0.9-0.3,1.8-1,2.7
			C393.9,96.3,393.1,97.1,392.2,97.8z"/>
		<path class="st5" d="M397.2,97.3h1.1l-1.2,2.7l-0.5-0.2C396.7,99.5,396.9,98.6,397.2,97.3z"/>
		<path class="st5" d="M401.2,94.6v-0.7c0.1,0,0.1,0,0.3,0c0.5,0,0.9-0.2,1.2-0.5c0.3-0.3,0.5-0.7,0.5-1.1c0-0.4-0.1-0.8-0.4-1.1
			c-0.2-0.3-0.6-0.4-1.1-0.4c-0.6,0-1.1,0.1-1.5,0.4v-0.7c0.4-0.2,0.9-0.3,1.5-0.3c0.8,0,1.4,0.2,1.7,0.6c0.4,0.4,0.6,0.9,0.6,1.5
			c0,0.9-0.4,1.5-1.3,1.9c0.4,0.2,0.8,0.4,1.1,0.8c0.3,0.4,0.4,0.8,0.4,1.3c0,0.7-0.2,1.2-0.8,1.7s-1.2,0.7-2,0.7
			c-0.6,0-1-0.1-1.4-0.4v-0.6c0.4,0.2,0.9,0.4,1.4,0.4c0.6,0,1.1-0.2,1.4-0.5c0.3-0.3,0.5-0.7,0.5-1.2s-0.2-0.9-0.5-1.2
			c-0.3-0.3-0.8-0.5-1.3-0.5C401.5,94.6,401.3,94.6,401.2,94.6z"/>
		<path class="st5" d="M406.5,93.6c0.3-0.3,0.7-0.5,1.3-0.5c0.6,0,1.2,0.2,1.6,0.7c0.4,0.5,0.7,1.1,0.7,2c0,0.8-0.2,1.4-0.6,2
			c-0.4,0.6-1,0.9-1.7,0.9c-0.7,0-1.3-0.3-1.7-0.8c-0.4-0.5-0.6-1.3-0.6-2.2c0-1.2,0.3-2.3,1-3.3c0.6-1,1.6-1.7,2.8-2.3l0.3,0.5
			c-0.8,0.4-1.5,0.8-2,1.4C407,92.7,406.6,93.2,406.5,93.6z M409.3,95.8c0-0.2,0-0.4-0.1-0.6s-0.1-0.4-0.2-0.6
			c-0.1-0.2-0.3-0.4-0.5-0.6c-0.2-0.1-0.5-0.2-0.8-0.2c-0.5,0-0.9,0.2-1.2,0.5c-0.3,0.4-0.4,0.8-0.4,1.3c0,0.7,0.1,1.3,0.4,1.7
			c0.3,0.4,0.7,0.6,1.1,0.6C408.8,98,409.3,97.3,409.3,95.8z"/>
		<path class="st5" d="M412.4,93.6c0.3-0.3,0.7-0.5,1.3-0.5c0.6,0,1.2,0.2,1.6,0.7c0.4,0.5,0.7,1.1,0.7,2c0,0.8-0.2,1.4-0.6,2
			c-0.4,0.6-1,0.9-1.7,0.9c-0.7,0-1.3-0.3-1.7-0.8c-0.4-0.5-0.6-1.3-0.6-2.2c0-1.2,0.3-2.3,1-3.3c0.6-1,1.6-1.7,2.8-2.3l0.3,0.5
			c-0.8,0.4-1.5,0.8-2,1.4C412.8,92.7,412.5,93.2,412.4,93.6z M415.2,95.8c0-0.2,0-0.4-0.1-0.6s-0.1-0.4-0.2-0.6
			c-0.1-0.2-0.3-0.4-0.5-0.6c-0.2-0.1-0.5-0.2-0.8-0.2c-0.5,0-0.9,0.2-1.2,0.5c-0.3,0.4-0.4,0.8-0.4,1.3c0,0.7,0.1,1.3,0.4,1.7
			c0.3,0.4,0.7,0.6,1.1,0.6C414.6,98,415.2,97.3,415.2,95.8z"/>
	</g>
	<g>
		<path class="st4" d="M66.7,108.7v0.8c-0.5-0.2-1-0.3-1.6-0.3c-1,0-1.8,0.3-2.4,0.8c-0.6,0.6-0.9,1.5-0.9,2.7
			c0,1.2,0.3,2.1,0.9,2.7s1.4,0.8,2.4,0.8c0.6,0,1.2-0.1,1.6-0.3v0.7c-0.6,0.2-1.2,0.3-1.6,0.3c-0.4,0-0.9,0-1.3-0.1
			c-0.4-0.1-0.8-0.2-1.1-0.5c-0.3-0.2-0.6-0.5-0.9-0.8c-0.3-0.3-0.4-0.7-0.6-1.2c-0.1-0.5-0.2-1-0.2-1.6c0-1.4,0.4-2.5,1.2-3.2
			c0.8-0.7,1.8-1.1,2.9-1.1C65.7,108.5,66.2,108.5,66.7,108.7z"/>
		<path class="st4" d="M69.8,111.1c0.7,0,1.3,0.3,1.7,0.8s0.6,1.2,0.6,2.1c0,0.9-0.2,1.6-0.6,2.1s-1,0.8-1.7,0.8
			c-0.7,0-1.3-0.3-1.7-0.8s-0.7-1.2-0.7-2.1c0-0.9,0.2-1.6,0.7-2.1S69.1,111.1,69.8,111.1z M70.9,112.3c-0.3-0.4-0.7-0.6-1.2-0.6
			c-0.5,0-0.8,0.2-1.1,0.6c-0.3,0.4-0.4,0.9-0.4,1.7c0,0.7,0.1,1.3,0.4,1.7c0.3,0.4,0.7,0.6,1.2,0.6s0.8-0.2,1.1-0.6
			s0.4-0.9,0.4-1.7C71.4,113.3,71.2,112.7,70.9,112.3z"/>
		<path class="st4" d="M73.4,107.8h0.8c0,0.3,0,0.9,0,1.9s0,1.9,0,2.5v4.5h-0.7V107.8z"/>
		<path class="st4" d="M78.4,113.2v-0.4c0-0.7-0.4-1.1-1.2-1.1c-0.5,0-1,0.1-1.5,0.4v-0.7c0.5-0.2,1.1-0.3,1.6-0.3
			c1.3,0,1.9,0.6,1.9,1.7c0,0.3,0,0.8,0,1.4c0,0.6,0,1.1,0,1.4c0,0.4,0,0.8,0,1.1c-0.3,0-0.6,0-1.1,0.1s-0.7,0.1-0.9,0.1
			c-0.6,0-1.1-0.2-1.4-0.5c-0.3-0.3-0.5-0.7-0.5-1.2c0-0.6,0.3-1.1,0.8-1.4C76.6,113.4,77.4,113.2,78.4,113.2z M78.4,113.8
			c-0.8,0-1.4,0.1-1.8,0.3c-0.4,0.2-0.5,0.6-0.5,1c0,0.3,0.1,0.6,0.3,0.8s0.5,0.3,0.9,0.3c0.7,0,1.1-0.2,1.1-0.5
			C78.4,115.5,78.4,114.9,78.4,113.8z"/>
		<path class="st4" d="M80.7,107.8h0.8c0,1.6,0,2.9,0,3.7c0.1-0.1,0.2-0.2,0.5-0.3s0.5-0.1,0.8-0.1c0.7,0,1.3,0.3,1.8,0.8
			c0.5,0.5,0.7,1.2,0.7,2.1s-0.2,1.6-0.7,2.1c-0.5,0.5-1.1,0.8-1.8,0.8c-0.3,0-0.7,0-1-0.1c-0.4-0.1-0.7-0.1-0.9-0.1V107.8z
			 M81.4,115.7c0,0.1,0.1,0.2,0.3,0.3c0.2,0.1,0.5,0.1,0.8,0.1c0.6,0,1-0.2,1.3-0.6c0.3-0.4,0.5-0.9,0.5-1.7c0-1.4-0.6-2.2-1.8-2.2
			c-0.3,0-0.6,0-0.8,0.2c-0.2,0.1-0.3,0.2-0.3,0.4V115.7z"/>
		<path class="st4" d="M88.4,111.1c0.7,0,1.3,0.3,1.7,0.8s0.6,1.2,0.6,2.1c0,0.9-0.2,1.6-0.6,2.1s-1,0.8-1.7,0.8
			c-0.7,0-1.3-0.3-1.7-0.8s-0.7-1.2-0.7-2.1c0-0.9,0.2-1.6,0.7-2.1S87.7,111.1,88.4,111.1z M89.6,112.3c-0.3-0.4-0.7-0.6-1.2-0.6
			c-0.5,0-0.8,0.2-1.1,0.6c-0.3,0.4-0.4,0.9-0.4,1.7c0,0.7,0.1,1.3,0.4,1.7c0.3,0.4,0.7,0.6,1.2,0.6s0.8-0.2,1.1-0.6
			s0.4-0.9,0.4-1.7C90,113.3,89.9,112.7,89.6,112.3z"/>
		<path class="st4" d="M92.7,116.7H92v-5.5h0.7v0.6c0.1-0.2,0.3-0.4,0.6-0.6c0.3-0.1,0.6-0.2,0.9-0.2c0.2,0,0.4,0,0.6,0v0.8
			c-0.3-0.1-0.5-0.1-0.7-0.1c-0.4,0-0.7,0.1-1,0.2c-0.2,0.2-0.4,0.4-0.4,0.7C92.7,113.4,92.7,114.7,92.7,116.7z"/>
		<path class="st4" d="M98.2,113.2v-0.4c0-0.7-0.4-1.1-1.2-1.1c-0.5,0-1,0.1-1.5,0.4v-0.7c0.5-0.2,1.1-0.3,1.6-0.3
			c1.3,0,1.9,0.6,1.9,1.7c0,0.3,0,0.8,0,1.4c0,0.6,0,1.1,0,1.4c0,0.4,0,0.8,0,1.1c-0.3,0-0.6,0-1.1,0.1s-0.7,0.1-0.9,0.1
			c-0.6,0-1.1-0.2-1.4-0.5c-0.3-0.3-0.5-0.7-0.5-1.2c0-0.6,0.3-1.1,0.8-1.4C96.3,113.4,97.1,113.2,98.2,113.2z M98.2,113.8
			c-0.8,0-1.4,0.1-1.8,0.3c-0.4,0.2-0.5,0.6-0.5,1c0,0.3,0.1,0.6,0.3,0.8s0.5,0.3,0.9,0.3c0.7,0,1.1-0.2,1.1-0.5
			C98.2,115.5,98.2,114.9,98.2,113.8z"/>
		<path class="st4" d="M103.8,111.5v-3.7h0.8c0,1.2,0,2.6,0,4.2v4.6c-0.3,0-0.6,0-0.9,0.1c-0.4,0.1-0.7,0.1-1,0.1
			c-0.7,0-1.3-0.3-1.8-0.8c-0.5-0.5-0.7-1.2-0.7-2.1c0-0.9,0.2-1.6,0.7-2.1c0.5-0.5,1.1-0.8,1.8-0.8c0.3,0,0.5,0,0.8,0.1
			S103.7,111.4,103.8,111.5z M103.8,115.7v-3.5c0-0.1-0.1-0.2-0.3-0.3c-0.2-0.1-0.5-0.1-0.8-0.1c-0.6,0-1,0.2-1.3,0.6
			s-0.5,0.9-0.5,1.7c0,0.7,0.2,1.3,0.5,1.7s0.8,0.5,1.3,0.5c0.3,0,0.6,0,0.8-0.1C103.7,116,103.8,115.9,103.8,115.7z"/>
		<path class="st4" d="M108.1,111.1c0.7,0,1.3,0.3,1.7,0.8s0.6,1.2,0.6,2.1c0,0.9-0.2,1.6-0.6,2.1s-1,0.8-1.7,0.8
			c-0.7,0-1.3-0.3-1.7-0.8s-0.7-1.2-0.7-2.1c0-0.9,0.2-1.6,0.7-2.1S107.4,111.1,108.1,111.1z M109.3,112.3c-0.3-0.4-0.7-0.6-1.2-0.6
			c-0.5,0-0.8,0.2-1.1,0.6c-0.3,0.4-0.4,0.9-0.4,1.7c0,0.7,0.1,1.3,0.4,1.7c0.3,0.4,0.7,0.6,1.2,0.6s0.8-0.2,1.1-0.6
			s0.4-0.9,0.4-1.7C109.7,113.3,109.5,112.7,109.3,112.3z"/>
		<path class="st4" d="M112.4,116.7h-0.7v-5.5h0.7v0.6c0.1-0.2,0.3-0.4,0.6-0.6c0.3-0.1,0.6-0.2,0.9-0.2c0.2,0,0.4,0,0.6,0v0.8
			c-0.3-0.1-0.5-0.1-0.7-0.1c-0.4,0-0.7,0.1-1,0.2c-0.2,0.2-0.4,0.4-0.4,0.7C112.4,113.4,112.4,114.7,112.4,116.7z"/>
		<path class="st4" d="M115.5,113.7v0.3c0,0.8,0.2,1.3,0.5,1.7s0.9,0.6,1.5,0.6c0.4,0,0.8-0.1,1.1-0.2v0.6c-0.3,0.1-0.7,0.2-1.2,0.2
			c-0.8,0-1.5-0.2-2-0.7c-0.5-0.5-0.7-1.2-0.7-2.2c0-0.8,0.2-1.5,0.7-2.1c0.5-0.5,1.1-0.8,1.8-0.8c0.6,0,1.1,0.2,1.4,0.6
			c0.3,0.4,0.5,0.9,0.5,1.5c0,0.2,0,0.3,0,0.5H115.5z M115.6,113.1h2.4c0.1,0,0.2,0,0.2-0.1c0,0,0.1-0.1,0.1-0.2
			c0-0.3-0.1-0.6-0.3-0.8c-0.2-0.2-0.5-0.3-0.9-0.3c-0.5,0-0.9,0.1-1.1,0.4C115.9,112.4,115.7,112.7,115.6,113.1z"/>
		<path class="st4" d="M120,112.7c0-0.5,0.2-0.9,0.5-1.2c0.4-0.3,0.8-0.4,1.4-0.4c0.4,0,0.7,0.1,1,0.2v0.7c-0.4-0.1-0.7-0.2-1.1-0.2
			c-0.4,0-0.6,0.1-0.8,0.2c-0.2,0.1-0.3,0.3-0.3,0.6c0,0.3,0.1,0.5,0.4,0.7c0.3,0.2,0.6,0.4,0.9,0.5c0.3,0.1,0.6,0.3,0.9,0.6
			c0.3,0.3,0.4,0.6,0.4,0.9c0,0.5-0.2,0.9-0.5,1.2c-0.3,0.3-0.9,0.5-1.5,0.5c-0.4,0-0.8-0.1-1.2-0.2v-0.6c0.4,0.1,0.8,0.2,1.2,0.2
			c0.4,0,0.8-0.1,1-0.3s0.3-0.4,0.3-0.7c0-0.2-0.1-0.4-0.3-0.6c-0.2-0.2-0.4-0.3-0.6-0.4c-0.2-0.1-0.5-0.2-0.8-0.3s-0.5-0.3-0.6-0.5
			C120.1,113.2,120,113,120,112.7z"/>
		<path class="st4" d="M128.3,114c0,1.5,0.6,2.3,1.9,2.3c0.3,0,0.6,0,0.9-0.1v0.6c-0.3,0.1-0.6,0.1-0.9,0.1c-0.8,0-1.5-0.2-2-0.7
			s-0.7-1.2-0.7-2.2c0-0.9,0.2-1.6,0.7-2.1c0.5-0.5,1.1-0.8,2-0.8c0.3,0,0.6,0,0.9,0.1v0.7c-0.3-0.1-0.6-0.1-0.9-0.1
			C128.9,111.7,128.3,112.5,128.3,114z"/>
		<path class="st4" d="M134.1,111.1c0.7,0,1.3,0.3,1.7,0.8s0.6,1.2,0.6,2.1c0,0.9-0.2,1.6-0.6,2.1s-1,0.8-1.7,0.8
			c-0.7,0-1.3-0.3-1.7-0.8s-0.7-1.2-0.7-2.1c0-0.9,0.2-1.6,0.7-2.1S133.4,111.1,134.1,111.1z M135.3,112.3c-0.3-0.4-0.7-0.6-1.2-0.6
			c-0.5,0-0.8,0.2-1.1,0.6c-0.3,0.4-0.4,0.9-0.4,1.7c0,0.7,0.1,1.3,0.4,1.7c0.3,0.4,0.7,0.6,1.2,0.6s0.8-0.2,1.1-0.6
			s0.4-0.9,0.4-1.7C135.7,113.3,135.6,112.7,135.3,112.3z"/>
		<path class="st4" d="M139.8,111.8c-0.4,0-0.7,0.1-1,0.2c-0.3,0.1-0.4,0.3-0.4,0.5v4.3h-0.7v-5.4c0.4,0,0.8-0.1,1.2-0.2
			c0.4-0.1,0.8-0.2,1.1-0.2c0.5,0,1,0.1,1.3,0.4c0.3,0.3,0.5,0.8,0.5,1.4v3.8h-0.7v-3.6c0-0.5-0.1-0.8-0.3-1
			S140.2,111.8,139.8,111.8z"/>
		<path class="st4" d="M147.2,114c0,1.5,0.6,2.3,1.9,2.3c0.3,0,0.6,0,0.9-0.1v0.6c-0.3,0.1-0.6,0.1-0.9,0.1c-0.8,0-1.5-0.2-2-0.7
			c-0.5-0.5-0.7-1.2-0.7-2.2c0-0.9,0.2-1.6,0.7-2.1c0.5-0.5,1.1-0.8,2-0.8c0.3,0,0.6,0,0.9,0.1v0.7c-0.3-0.1-0.6-0.1-0.9-0.1
			C147.8,111.7,147.2,112.5,147.2,114z"/>
		<path class="st4" d="M153,111.1c0.7,0,1.3,0.3,1.7,0.8c0.4,0.5,0.6,1.2,0.6,2.1c0,0.9-0.2,1.6-0.6,2.1c-0.4,0.5-1,0.8-1.7,0.8
			c-0.7,0-1.3-0.3-1.7-0.8c-0.4-0.5-0.7-1.2-0.7-2.1c0-0.9,0.2-1.6,0.7-2.1C151.7,111.4,152.3,111.1,153,111.1z M154.2,112.3
			c-0.3-0.4-0.7-0.6-1.2-0.6s-0.8,0.2-1.1,0.6s-0.4,0.9-0.4,1.7c0,0.7,0.1,1.3,0.4,1.7c0.3,0.4,0.7,0.6,1.2,0.6
			c0.5,0,0.8-0.2,1.1-0.6c0.3-0.4,0.4-0.9,0.4-1.7C154.6,113.3,154.5,112.7,154.2,112.3z"/>
		<path class="st4" d="M158.7,111.8c-0.4,0-0.7,0.1-1,0.2c-0.3,0.1-0.4,0.3-0.4,0.5v4.3h-0.7v-5.4c0.4,0,0.8-0.1,1.2-0.2
			c0.4-0.1,0.8-0.2,1.1-0.2c0.5,0,1,0.1,1.3,0.4c0.3,0.3,0.5,0.8,0.5,1.4v3.8H160v-3.6c0-0.5-0.1-0.8-0.3-1S159.2,111.8,158.7,111.8
			z"/>
		<path class="st4" d="M161.7,111.9v-0.7h0.8v-1.2l0.7-0.4v1.6h1.8v0.7h-1.8c0,0.2,0,0.7,0,1.5c0,0.8,0,1.5,0,2s0.3,0.8,0.8,0.8
			c0.4,0,0.7-0.1,1.1-0.3v0.6c-0.4,0.2-0.9,0.3-1.3,0.3c-0.4,0-0.7-0.1-0.9-0.3c-0.2-0.2-0.4-0.5-0.4-1v-3.7H161.7z"/>
		<path class="st4" d="M166.8,116.7H166v-5.5h0.7v0.6c0.1-0.2,0.3-0.4,0.6-0.6s0.6-0.2,0.9-0.2c0.2,0,0.4,0,0.6,0v0.8
			c-0.3-0.1-0.5-0.1-0.7-0.1c-0.4,0-0.7,0.1-1,0.2c-0.2,0.2-0.4,0.4-0.4,0.7C166.8,113.4,166.8,114.7,166.8,116.7z"/>
		<path class="st4" d="M172.2,113.2v-0.4c0-0.7-0.4-1.1-1.2-1.1c-0.5,0-1,0.1-1.5,0.4v-0.7c0.5-0.2,1.1-0.3,1.6-0.3
			c1.3,0,1.9,0.6,1.9,1.7c0,0.3,0,0.8,0,1.4c0,0.6,0,1.1,0,1.4c0,0.4,0,0.8,0,1.1c-0.3,0-0.6,0-1.1,0.1c-0.4,0.1-0.7,0.1-0.9,0.1
			c-0.6,0-1.1-0.2-1.4-0.5c-0.3-0.3-0.5-0.7-0.5-1.2c0-0.6,0.3-1.1,0.8-1.4S171.2,113.2,172.2,113.2z M172.2,113.8
			c-0.8,0-1.4,0.1-1.8,0.3c-0.4,0.2-0.5,0.6-0.5,1c0,0.3,0.1,0.6,0.3,0.8s0.5,0.3,0.9,0.3c0.7,0,1.1-0.2,1.1-0.5
			C172.2,115.5,172.2,114.9,172.2,113.8z"/>
		<path class="st4" d="M173.9,111.9v-0.7h0.8v-1.2l0.7-0.4v1.6h1.8v0.7h-1.8c0,0.2,0,0.7,0,1.5s0,1.5,0,2s0.3,0.8,0.8,0.8
			c0.4,0,0.7-0.1,1.1-0.3v0.6c-0.4,0.2-0.9,0.3-1.3,0.3c-0.4,0-0.7-0.1-0.9-0.3s-0.4-0.5-0.4-1v-3.7H173.9z"/>
		<path class="st4" d="M180.3,111.1c0.7,0,1.3,0.3,1.7,0.8c0.4,0.5,0.6,1.2,0.6,2.1c0,0.9-0.2,1.6-0.6,2.1c-0.4,0.5-1,0.8-1.7,0.8
			c-0.7,0-1.3-0.3-1.7-0.8c-0.4-0.5-0.7-1.2-0.7-2.1c0-0.9,0.2-1.6,0.7-2.1C179,111.4,179.6,111.1,180.3,111.1z M181.4,112.3
			c-0.3-0.4-0.7-0.6-1.2-0.6s-0.8,0.2-1.1,0.6s-0.4,0.9-0.4,1.7c0,0.7,0.1,1.3,0.4,1.7c0.3,0.4,0.7,0.6,1.2,0.6
			c0.5,0,0.8-0.2,1.1-0.6c0.3-0.4,0.4-0.9,0.4-1.7C181.9,113.3,181.7,112.7,181.4,112.3z"/>
		<path class="st4" d="M187.9,116.5v3.3h-0.8c0-1.1,0-2.3,0-3.8v-4.7c0.3,0,0.6,0,0.9-0.1c0.4-0.1,0.7-0.1,1-0.1
			c0.7,0,1.3,0.3,1.8,0.8s0.7,1.2,0.7,2.1s-0.2,1.6-0.7,2.1s-1.1,0.8-1.8,0.8c-0.3,0-0.5,0-0.8-0.1
			C188.2,116.7,188,116.6,187.9,116.5z M187.9,112.2v3.4c0,0.1,0.1,0.3,0.3,0.4c0.2,0.1,0.5,0.2,0.8,0.2c0.6,0,1-0.2,1.3-0.6
			c0.3-0.4,0.5-0.9,0.5-1.7s-0.2-1.3-0.5-1.7c-0.3-0.4-0.8-0.5-1.3-0.5c-0.3,0-0.6,0-0.8,0.1C188,112,187.9,112.1,187.9,112.2z"/>
		<path class="st4" d="M193.4,113.7v0.3c0,0.8,0.2,1.3,0.5,1.7c0.4,0.4,0.9,0.6,1.5,0.6c0.4,0,0.8-0.1,1.1-0.2v0.6
			c-0.3,0.1-0.7,0.2-1.2,0.2c-0.8,0-1.5-0.2-2-0.7c-0.5-0.5-0.7-1.2-0.7-2.2c0-0.8,0.2-1.5,0.7-2.1c0.5-0.5,1.1-0.8,1.8-0.8
			c0.6,0,1.1,0.2,1.4,0.6s0.5,0.9,0.5,1.5c0,0.2,0,0.3,0,0.5H193.4z M193.5,113.1h2.4c0.1,0,0.2,0,0.2-0.1c0,0,0.1-0.1,0.1-0.2
			c0-0.3-0.1-0.6-0.3-0.8c-0.2-0.2-0.5-0.3-0.9-0.3c-0.5,0-0.9,0.1-1.1,0.4C193.8,112.4,193.6,112.7,193.5,113.1z"/>
		<path class="st4" d="M198.9,116.7h-0.7v-5.5h0.7v0.6c0.1-0.2,0.3-0.4,0.6-0.6s0.6-0.2,0.9-0.2c0.2,0,0.4,0,0.6,0v0.8
			c-0.3-0.1-0.5-0.1-0.7-0.1c-0.4,0-0.7,0.1-1,0.2c-0.2,0.2-0.4,0.4-0.4,0.7C198.9,113.4,198.9,114.7,198.9,116.7z"/>
		<path class="st4" d="M208.7,112.9v3.8H208v-3.6c0-0.5-0.1-0.9-0.3-1.1c-0.2-0.2-0.5-0.3-0.9-0.3c-0.3,0-0.6,0.1-0.9,0.2
			c-0.3,0.1-0.4,0.3-0.4,0.5c0,0.1,0,0.3,0,0.6v3.7h-0.7v-3.6c0-0.9-0.4-1.4-1.1-1.4c-0.3,0-0.6,0.1-0.9,0.2
			c-0.3,0.1-0.4,0.3-0.4,0.6v4.2h-0.7v-5.4c0.4,0,0.8-0.1,1.2-0.2c0.4-0.1,0.8-0.2,1-0.2c0.6,0,1,0.2,1.3,0.5
			c0.5-0.4,1.1-0.5,1.8-0.5C208.1,111.1,208.7,111.7,208.7,112.9z"/>
		<path class="st4" d="M213,113.2v-0.4c0-0.7-0.4-1.1-1.2-1.1c-0.5,0-1,0.1-1.5,0.4v-0.7c0.5-0.2,1.1-0.3,1.6-0.3
			c1.3,0,1.9,0.6,1.9,1.7c0,0.3,0,0.8,0,1.4s0,1.1,0,1.4c0,0.4,0,0.8,0,1.1c-0.3,0-0.6,0-1.1,0.1c-0.4,0.1-0.7,0.1-0.9,0.1
			c-0.6,0-1.1-0.2-1.4-0.5s-0.5-0.7-0.5-1.2c0-0.6,0.3-1.1,0.8-1.4C211.1,113.4,211.9,113.2,213,113.2z M213,113.8
			c-0.8,0-1.4,0.1-1.8,0.3c-0.4,0.2-0.5,0.6-0.5,1c0,0.3,0.1,0.6,0.3,0.8s0.5,0.3,0.9,0.3c0.7,0,1.1-0.2,1.1-0.5
			C212.9,115.5,213,114.9,213,113.8z"/>
		<path class="st4" d="M217.2,111.8c-0.4,0-0.7,0.1-1,0.2c-0.3,0.1-0.4,0.3-0.4,0.5v4.3h-0.7v-5.4c0.4,0,0.8-0.1,1.2-0.2
			s0.8-0.2,1.1-0.2c0.5,0,1,0.1,1.3,0.4c0.3,0.3,0.5,0.8,0.5,1.4v3.8h-0.7v-3.6c0-0.5-0.1-0.8-0.3-1
			C218,111.9,217.7,111.8,217.2,111.8z"/>
		<path class="st4" d="M221.3,113.7v0.3c0,0.8,0.2,1.3,0.5,1.7c0.4,0.4,0.9,0.6,1.5,0.6c0.4,0,0.8-0.1,1.1-0.2v0.6
			c-0.3,0.1-0.7,0.2-1.2,0.2c-0.8,0-1.5-0.2-2-0.7s-0.7-1.2-0.7-2.2c0-0.8,0.2-1.5,0.7-2.1c0.5-0.5,1.1-0.8,1.8-0.8
			c0.6,0,1.1,0.2,1.4,0.6c0.3,0.4,0.5,0.9,0.5,1.5c0,0.2,0,0.3,0,0.5H221.3z M221.4,113.1h2.4c0.1,0,0.2,0,0.2-0.1s0.1-0.1,0.1-0.2
			c0-0.3-0.1-0.6-0.3-0.8c-0.2-0.2-0.5-0.3-0.9-0.3c-0.5,0-0.9,0.1-1.1,0.4C221.6,112.4,221.4,112.7,221.4,113.1z"/>
		<path class="st4" d="M228.1,111.8c-0.4,0-0.7,0.1-1,0.2c-0.3,0.1-0.4,0.3-0.4,0.5v4.3H226v-5.4c0.4,0,0.8-0.1,1.2-0.2
			c0.4-0.1,0.8-0.2,1.1-0.2c0.5,0,1,0.1,1.3,0.4c0.3,0.3,0.5,0.8,0.5,1.4v3.8h-0.7v-3.6c0-0.5-0.1-0.8-0.3-1
			S228.5,111.8,228.1,111.8z"/>
		<path class="st4" d="M231.1,111.9v-0.7h0.8v-1.2l0.7-0.4v1.6h1.8v0.7h-1.8c0,0.2,0,0.7,0,1.5c0,0.8,0,1.5,0,2s0.3,0.8,0.8,0.8
			c0.4,0,0.7-0.1,1.1-0.3v0.6c-0.4,0.2-0.9,0.3-1.3,0.3c-0.4,0-0.7-0.1-0.9-0.3c-0.2-0.2-0.4-0.5-0.4-1v-3.7H231.1z"/>
		<path class="st4" d="M235.9,113.7v0.3c0,0.8,0.2,1.3,0.5,1.7c0.4,0.4,0.9,0.6,1.5,0.6c0.4,0,0.8-0.1,1.1-0.2v0.6
			c-0.3,0.1-0.7,0.2-1.2,0.2c-0.8,0-1.5-0.2-2-0.7c-0.5-0.5-0.7-1.2-0.7-2.2c0-0.8,0.2-1.5,0.7-2.1c0.5-0.5,1.1-0.8,1.8-0.8
			c0.6,0,1.1,0.2,1.4,0.6s0.5,0.9,0.5,1.5c0,0.2,0,0.3,0,0.5H235.9z M236,113.1h2.4c0.1,0,0.2,0,0.2-0.1c0,0,0.1-0.1,0.1-0.2
			c0-0.3-0.1-0.6-0.3-0.8c-0.2-0.2-0.5-0.3-0.9-0.3c-0.5,0-0.9,0.1-1.1,0.4C236.2,112.4,236.1,112.7,236,113.1z"/>
	</g>
	<g>
		<path class="st5" d="M264.7,115.1c-0.3,0.3-0.7,0.5-1.3,0.5c-0.6,0-1.2-0.2-1.6-0.7c-0.4-0.5-0.7-1.1-0.7-2c0-0.8,0.2-1.4,0.6-2
			c0.4-0.6,1-0.9,1.7-0.9c0.7,0,1.3,0.3,1.7,0.8c0.4,0.5,0.6,1.3,0.6,2.2c0,1.2-0.3,2.3-1,3.3c-0.6,1-1.6,1.7-2.8,2.3l-0.3-0.5
			c0.8-0.4,1.5-0.8,2-1.5S264.6,115.5,264.7,115.1z M261.9,112.9c0,0.2,0,0.4,0.1,0.6s0.1,0.4,0.2,0.6c0.1,0.2,0.3,0.4,0.5,0.6
			c0.2,0.1,0.5,0.2,0.8,0.2c0.5,0,0.9-0.2,1.2-0.5c0.3-0.4,0.4-0.8,0.4-1.4c0-0.7-0.1-1.3-0.4-1.7c-0.3-0.4-0.7-0.6-1.1-0.6
			C262.4,110.6,261.9,111.4,261.9,112.9z"/>
		<path class="st5" d="M268.6,114.4v-0.7c0.1,0,0.1,0,0.3,0c0.5,0,0.9-0.2,1.2-0.5c0.3-0.3,0.5-0.7,0.5-1.1c0-0.4-0.1-0.8-0.4-1.1
			s-0.6-0.4-1.1-0.4c-0.6,0-1.1,0.1-1.5,0.4v-0.7c0.4-0.2,0.9-0.3,1.5-0.3c0.8,0,1.4,0.2,1.7,0.6c0.4,0.4,0.6,0.9,0.6,1.5
			c0,0.9-0.4,1.5-1.3,1.9c0.4,0.2,0.8,0.4,1.1,0.8c0.3,0.4,0.4,0.8,0.4,1.3c0,0.7-0.2,1.2-0.8,1.7s-1.2,0.7-2,0.7
			c-0.6,0-1-0.1-1.4-0.4v-0.6c0.4,0.2,0.9,0.4,1.4,0.4c0.6,0,1.1-0.2,1.4-0.5c0.3-0.3,0.5-0.7,0.5-1.2s-0.2-0.9-0.5-1.2
			c-0.3-0.3-0.8-0.5-1.3-0.5C268.9,114.4,268.8,114.4,268.6,114.4z"/>
		<path class="st5" d="M273.1,117.8c0-0.2,0.1-0.3,0.2-0.4c0.1-0.1,0.3-0.2,0.4-0.2c0.2,0,0.3,0.1,0.4,0.2c0.1,0.1,0.2,0.2,0.2,0.4
			c0,0.2-0.1,0.3-0.2,0.4c-0.1,0.1-0.2,0.2-0.4,0.2c-0.2,0-0.3-0.1-0.4-0.2C273.2,118.1,273.1,118,273.1,117.8z"/>
		<path class="st5" d="M275.5,114.2c0-1.2,0.2-2.2,0.7-3c0.5-0.8,1.1-1.2,1.9-1.2c0.8,0,1.4,0.4,1.9,1.2c0.5,0.8,0.7,1.8,0.7,3
			c0,1.2-0.2,2.2-0.7,3c-0.5,0.8-1.1,1.2-1.9,1.2c-0.8,0-1.4-0.4-1.9-1.2C275.8,116.4,275.5,115.4,275.5,114.2z M276.8,111.6
			c-0.3,0.6-0.5,1.5-0.5,2.5s0.2,1.9,0.5,2.6c0.3,0.7,0.7,1,1.3,1c0.5,0,0.9-0.3,1.3-1c0.3-0.7,0.5-1.5,0.5-2.6s-0.2-1.9-0.5-2.5
			c-0.3-0.6-0.7-1-1.3-1C277.6,110.7,277.2,111,276.8,111.6z"/>
		<path class="st5" d="M285,111.9c0,0.5-0.2,1-0.5,1.4s-0.8,0.6-1.3,0.6c-0.5,0-0.9-0.2-1.2-0.6c-0.3-0.4-0.5-0.8-0.5-1.4
			c0-0.5,0.2-1,0.5-1.4s0.8-0.6,1.3-0.6c0.5,0,0.9,0.2,1.2,0.5C284.8,110.9,285,111.4,285,111.9z M284.2,111.9c0-0.4-0.1-0.8-0.3-1
			c-0.2-0.2-0.4-0.3-0.7-0.3c-0.7,0-1,0.4-1,1.3c0,0.4,0.1,0.8,0.3,1c0.2,0.2,0.4,0.4,0.7,0.4c0.3,0,0.5-0.1,0.7-0.3
			C284.2,112.7,284.2,112.4,284.2,111.9z M283.3,118.3h-0.9c0.4-0.6,1.2-2,2.5-4.2s2-3.5,2.1-3.9h0.9c-0.4,0.6-1.2,1.9-2.5,4.1
			S283.5,117.9,283.3,118.3z M288.4,115.1c0.3,0.4,0.5,0.8,0.5,1.4s-0.2,1-0.5,1.4s-0.8,0.6-1.3,0.6c-0.5,0-0.9-0.2-1.2-0.6
			c-0.3-0.4-0.5-0.8-0.5-1.4c0-0.5,0.2-1,0.5-1.4c0.3-0.4,0.8-0.6,1.3-0.6C287.7,114.5,288.1,114.7,288.4,115.1z M288.1,116.5
			c0-0.4-0.1-0.8-0.3-1c-0.2-0.2-0.4-0.3-0.7-0.3c-0.7,0-1,0.4-1,1.3c0,0.4,0.1,0.8,0.3,1c0.2,0.2,0.4,0.3,0.7,0.3
			c0.3,0,0.5-0.1,0.7-0.3C288,117.3,288.1,116.9,288.1,116.5z"/>
	</g>
	<g>
		<path class="st5" d="M331.9,115.1c-0.3,0.3-0.7,0.5-1.3,0.5c-0.6,0-1.2-0.2-1.6-0.7c-0.4-0.5-0.7-1.1-0.7-2c0-0.8,0.2-1.4,0.6-2
			c0.4-0.6,1-0.9,1.7-0.9c0.7,0,1.3,0.3,1.7,0.8c0.4,0.5,0.6,1.3,0.6,2.2c0,1.2-0.3,2.3-1,3.3c-0.6,1-1.6,1.7-2.8,2.3l-0.3-0.5
			c0.8-0.4,1.5-0.8,2-1.5C331.5,116,331.8,115.5,331.9,115.1z M329.1,112.9c0,0.2,0,0.4,0.1,0.6s0.1,0.4,0.2,0.6
			c0.1,0.2,0.3,0.4,0.5,0.6c0.2,0.1,0.5,0.2,0.8,0.2c0.5,0,0.9-0.2,1.2-0.5c0.3-0.4,0.4-0.8,0.4-1.4c0-0.7-0.1-1.3-0.4-1.7
			c-0.3-0.4-0.7-0.6-1.1-0.6C329.7,110.6,329.1,111.4,329.1,112.9z"/>
		<path class="st5" d="M335.6,117.6c2,0,3.2,0,3.6-0.1l0,0.7h-5l0-0.2c2.7-2,4.1-3.9,4.1-5.7c0-0.6-0.1-1-0.4-1.3
			c-0.3-0.3-0.7-0.4-1.1-0.4c-0.4,0-0.8,0.1-1,0.4s-0.4,0.7-0.4,1.1c0,0.1,0,0.3,0,0.4h-0.6c-0.1-0.2-0.1-0.4-0.1-0.6
			c0-0.5,0.2-1,0.6-1.4c0.4-0.4,0.9-0.6,1.5-0.6c0.8,0,1.3,0.2,1.7,0.7c0.4,0.4,0.6,1,0.6,1.7c0,0.9-0.3,1.8-1,2.7
			C337.3,116.1,336.5,116.9,335.6,117.6z"/>
		<path class="st5" d="M343.5,111.9c0,0.5-0.2,1-0.5,1.4s-0.8,0.6-1.3,0.6c-0.5,0-0.9-0.2-1.2-0.6c-0.3-0.4-0.5-0.8-0.5-1.4
			c0-0.5,0.2-1,0.5-1.4c0.3-0.4,0.8-0.6,1.3-0.6s0.9,0.2,1.2,0.5C343.3,110.9,343.5,111.4,343.5,111.9z M342.7,111.9
			c0-0.4-0.1-0.8-0.3-1c-0.2-0.2-0.4-0.3-0.7-0.3c-0.7,0-1,0.4-1,1.3c0,0.4,0.1,0.8,0.3,1c0.2,0.2,0.4,0.4,0.7,0.4
			c0.3,0,0.5-0.1,0.7-0.3C342.7,112.7,342.7,112.4,342.7,111.9z M341.8,118.3h-0.9c0.4-0.6,1.2-2,2.5-4.2s2-3.5,2.1-3.9h0.9
			c-0.4,0.6-1.2,1.9-2.5,4.1S342,117.9,341.8,118.3z M346.9,115.1c0.3,0.4,0.5,0.8,0.5,1.4s-0.2,1-0.5,1.4s-0.8,0.6-1.3,0.6
			c-0.5,0-0.9-0.2-1.2-0.6c-0.3-0.4-0.5-0.8-0.5-1.4c0-0.5,0.2-1,0.5-1.4s0.8-0.6,1.3-0.6C346.2,114.5,346.6,114.7,346.9,115.1z
			 M346.6,116.5c0-0.4-0.1-0.8-0.3-1c-0.2-0.2-0.4-0.3-0.7-0.3c-0.7,0-1,0.4-1,1.3c0,0.4,0.1,0.8,0.3,1c0.2,0.2,0.4,0.3,0.7,0.3
			c0.3,0,0.5-0.1,0.7-0.3C346.5,117.3,346.6,116.9,346.6,116.5z"/>
	</g>
	<g>
		<path class="st5" d="M387.3,115.1c-0.3,0.3-0.7,0.5-1.3,0.5c-0.6,0-1.2-0.2-1.6-0.7c-0.4-0.5-0.7-1.1-0.7-2c0-0.8,0.2-1.4,0.6-2
			c0.4-0.6,1-0.9,1.7-0.9c0.7,0,1.3,0.3,1.7,0.8c0.4,0.5,0.6,1.3,0.6,2.2c0,1.2-0.3,2.3-1,3.3c-0.6,1-1.6,1.7-2.8,2.3l-0.3-0.5
			c0.8-0.4,1.5-0.8,2-1.5C386.8,116,387.2,115.5,387.3,115.1z M384.5,112.9c0,0.2,0,0.4,0.1,0.6s0.1,0.4,0.2,0.6
			c0.1,0.2,0.3,0.4,0.5,0.6c0.2,0.1,0.5,0.2,0.8,0.2c0.5,0,0.9-0.2,1.2-0.5c0.3-0.4,0.4-0.8,0.4-1.4c0-0.7-0.1-1.3-0.4-1.7
			c-0.3-0.4-0.7-0.6-1.1-0.6C385,110.6,384.5,111.4,384.5,112.9z"/>
		<path class="st5" d="M391,110.9l-0.1,2.6c0.2,0,0.4-0.1,0.7-0.1c0.9,0,1.5,0.2,2,0.7s0.7,1.1,0.7,1.8c0,0.7-0.2,1.3-0.7,1.8
			s-1.2,0.7-2.2,0.7c-0.6,0-1-0.1-1.4-0.4v-0.6c0.4,0.2,0.9,0.4,1.4,0.4c0.7,0,1.2-0.2,1.6-0.5c0.4-0.3,0.5-0.8,0.5-1.4
			c0-0.6-0.2-1-0.5-1.4c-0.3-0.3-0.8-0.5-1.5-0.5c-0.4,0-0.8,0.1-1.3,0.2l0.2-4.1h3.5v0.7C393.6,110.9,392.6,110.9,391,110.9z"/>
		<path class="st5" d="M395.7,117.8c0-0.2,0.1-0.3,0.2-0.4c0.1-0.1,0.3-0.2,0.4-0.2c0.2,0,0.3,0.1,0.4,0.2c0.1,0.1,0.2,0.2,0.2,0.4
			c0,0.2-0.1,0.3-0.2,0.4c-0.1,0.1-0.2,0.2-0.4,0.2c-0.2,0-0.3-0.1-0.4-0.2C395.7,118.1,395.7,118,395.7,117.8z"/>
		<path class="st5" d="M399.2,111.6l2.7-1.7c0,1.5,0,2.8,0,3.9v4.5h-0.8v-6.9l-1.9,1.2V111.6z"/>
		<path class="st5" d="M405.6,110.9l-0.1,2.6c0.2,0,0.4-0.1,0.7-0.1c0.9,0,1.5,0.2,2,0.7s0.7,1.1,0.7,1.8c0,0.7-0.2,1.3-0.7,1.8
			s-1.2,0.7-2.2,0.7c-0.6,0-1-0.1-1.4-0.4v-0.6c0.4,0.2,0.9,0.4,1.4,0.4c0.7,0,1.2-0.2,1.6-0.5c0.4-0.3,0.5-0.8,0.5-1.4
			c0-0.6-0.2-1-0.5-1.4c-0.3-0.3-0.8-0.5-1.5-0.5c-0.4,0-0.8,0.1-1.3,0.2l0.2-4.1h3.5v0.7C408.1,110.9,407.2,110.9,405.6,110.9z"/>
		<path class="st5" d="M413.4,111.9c0,0.5-0.2,1-0.5,1.4s-0.8,0.6-1.3,0.6c-0.5,0-0.9-0.2-1.2-0.6c-0.3-0.4-0.5-0.8-0.5-1.4
			c0-0.5,0.2-1,0.5-1.4c0.3-0.4,0.8-0.6,1.3-0.6s0.9,0.2,1.2,0.5C413.2,110.9,413.4,111.4,413.4,111.9z M412.6,111.9
			c0-0.4-0.1-0.8-0.3-1c-0.2-0.2-0.4-0.3-0.7-0.3c-0.7,0-1,0.4-1,1.3c0,0.4,0.1,0.8,0.3,1c0.2,0.2,0.4,0.4,0.7,0.4
			c0.3,0,0.5-0.1,0.7-0.3C412.6,112.7,412.6,112.4,412.6,111.9z M411.7,118.3h-0.9c0.4-0.6,1.2-2,2.5-4.2s2-3.5,2.1-3.9h0.9
			c-0.4,0.6-1.2,1.9-2.5,4.1S411.9,117.9,411.7,118.3z M416.8,115.1c0.3,0.4,0.5,0.8,0.5,1.4s-0.2,1-0.5,1.4s-0.8,0.6-1.3,0.6
			c-0.5,0-0.9-0.2-1.2-0.6c-0.3-0.4-0.5-0.8-0.5-1.4c0-0.5,0.2-1,0.5-1.4s0.8-0.6,1.3-0.6C416.1,114.5,416.5,114.7,416.8,115.1z
			 M416.5,116.5c0-0.4-0.1-0.8-0.3-1c-0.2-0.2-0.4-0.3-0.7-0.3c-0.7,0-1,0.4-1,1.3c0,0.4,0.1,0.8,0.3,1c0.2,0.2,0.4,0.3,0.7,0.3
			c0.3,0,0.5-0.1,0.7-0.3C416.4,117.3,416.5,116.9,416.5,116.5z"/>
	</g>
	<g>
		<path class="st4" d="M66.7,128.7v0.8c-0.5-0.2-1-0.3-1.6-0.3c-1,0-1.8,0.3-2.4,0.8c-0.6,0.6-0.9,1.5-0.9,2.7
			c0,1.2,0.3,2.1,0.9,2.7s1.4,0.8,2.4,0.8c0.6,0,1.2-0.1,1.6-0.3v0.7c-0.6,0.2-1.2,0.3-1.6,0.3c-0.4,0-0.9,0-1.3-0.1
			c-0.4-0.1-0.8-0.2-1.1-0.5c-0.3-0.2-0.6-0.5-0.9-0.8c-0.3-0.3-0.4-0.7-0.6-1.2c-0.1-0.5-0.2-1-0.2-1.6c0-1.4,0.4-2.5,1.2-3.2
			c0.8-0.7,1.8-1.1,2.9-1.1C65.7,128.5,66.2,128.5,66.7,128.7z"/>
		<path class="st4" d="M69.8,131.1c0.7,0,1.3,0.3,1.7,0.8s0.6,1.2,0.6,2.1c0,0.9-0.2,1.6-0.6,2.1s-1,0.8-1.7,0.8
			c-0.7,0-1.3-0.3-1.7-0.8s-0.7-1.2-0.7-2.1c0-0.9,0.2-1.6,0.7-2.1S69.1,131.1,69.8,131.1z M70.9,132.3c-0.3-0.4-0.7-0.6-1.2-0.6
			c-0.5,0-0.8,0.2-1.1,0.6c-0.3,0.4-0.4,0.9-0.4,1.7c0,0.7,0.1,1.3,0.4,1.7c0.3,0.4,0.7,0.6,1.2,0.6s0.8-0.2,1.1-0.6
			s0.4-0.9,0.4-1.7C71.4,133.3,71.2,132.7,70.9,132.3z"/>
		<path class="st4" d="M73.4,127.8h0.8c0,0.3,0,0.9,0,1.9s0,1.9,0,2.5v4.5h-0.7V127.8z"/>
		<path class="st4" d="M78.4,133.2v-0.4c0-0.7-0.4-1.1-1.2-1.1c-0.5,0-1,0.1-1.5,0.4v-0.7c0.5-0.2,1.1-0.3,1.6-0.3
			c1.3,0,1.9,0.6,1.9,1.7c0,0.3,0,0.8,0,1.4c0,0.6,0,1.1,0,1.4c0,0.4,0,0.8,0,1.1c-0.3,0-0.6,0-1.1,0.1s-0.7,0.1-0.9,0.1
			c-0.6,0-1.1-0.2-1.4-0.5c-0.3-0.3-0.5-0.7-0.5-1.2c0-0.6,0.3-1.1,0.8-1.4C76.6,133.4,77.4,133.2,78.4,133.2z M78.4,133.8
			c-0.8,0-1.4,0.1-1.8,0.3c-0.4,0.2-0.5,0.6-0.5,1c0,0.3,0.1,0.6,0.3,0.8s0.5,0.3,0.9,0.3c0.7,0,1.1-0.2,1.1-0.5
			C78.4,135.5,78.4,134.9,78.4,133.8z"/>
		<path class="st4" d="M80.7,127.8h0.8c0,1.6,0,2.9,0,3.7c0.1-0.1,0.2-0.2,0.5-0.3s0.5-0.1,0.8-0.1c0.7,0,1.3,0.3,1.8,0.8
			c0.5,0.5,0.7,1.2,0.7,2.1s-0.2,1.6-0.7,2.1c-0.5,0.5-1.1,0.8-1.8,0.8c-0.3,0-0.7,0-1-0.1c-0.4-0.1-0.7-0.1-0.9-0.1V127.8z
			 M81.4,135.7c0,0.1,0.1,0.2,0.3,0.3c0.2,0.1,0.5,0.1,0.8,0.1c0.6,0,1-0.2,1.3-0.6c0.3-0.4,0.5-0.9,0.5-1.7c0-1.4-0.6-2.2-1.8-2.2
			c-0.3,0-0.6,0-0.8,0.2c-0.2,0.1-0.3,0.2-0.3,0.4V135.7z"/>
		<path class="st4" d="M88.4,131.1c0.7,0,1.3,0.3,1.7,0.8s0.6,1.2,0.6,2.1c0,0.9-0.2,1.6-0.6,2.1s-1,0.8-1.7,0.8
			c-0.7,0-1.3-0.3-1.7-0.8s-0.7-1.2-0.7-2.1c0-0.9,0.2-1.6,0.7-2.1S87.7,131.1,88.4,131.1z M89.6,132.3c-0.3-0.4-0.7-0.6-1.2-0.6
			c-0.5,0-0.8,0.2-1.1,0.6c-0.3,0.4-0.4,0.9-0.4,1.7c0,0.7,0.1,1.3,0.4,1.7c0.3,0.4,0.7,0.6,1.2,0.6s0.8-0.2,1.1-0.6
			s0.4-0.9,0.4-1.7C90,133.3,89.9,132.7,89.6,132.3z"/>
		<path class="st4" d="M92.7,136.7H92v-5.5h0.7v0.6c0.1-0.2,0.3-0.4,0.6-0.6c0.3-0.1,0.6-0.2,0.9-0.2c0.2,0,0.4,0,0.6,0v0.8
			c-0.3-0.1-0.5-0.1-0.7-0.1c-0.4,0-0.7,0.1-1,0.2c-0.2,0.2-0.4,0.4-0.4,0.7C92.7,133.4,92.7,134.7,92.7,136.7z"/>
		<path class="st4" d="M98.2,133.2v-0.4c0-0.7-0.4-1.1-1.2-1.1c-0.5,0-1,0.1-1.5,0.4v-0.7c0.5-0.2,1.1-0.3,1.6-0.3
			c1.3,0,1.9,0.6,1.9,1.7c0,0.3,0,0.8,0,1.4c0,0.6,0,1.1,0,1.4c0,0.4,0,0.8,0,1.1c-0.3,0-0.6,0-1.1,0.1s-0.7,0.1-0.9,0.1
			c-0.6,0-1.1-0.2-1.4-0.5c-0.3-0.3-0.5-0.7-0.5-1.2c0-0.6,0.3-1.1,0.8-1.4C96.3,133.4,97.1,133.2,98.2,133.2z M98.2,133.8
			c-0.8,0-1.4,0.1-1.8,0.3c-0.4,0.2-0.5,0.6-0.5,1c0,0.3,0.1,0.6,0.3,0.8s0.5,0.3,0.9,0.3c0.7,0,1.1-0.2,1.1-0.5
			C98.2,135.5,98.2,134.9,98.2,133.8z"/>
		<path class="st4" d="M103.8,131.5v-3.7h0.8c0,1.2,0,2.6,0,4.2v4.6c-0.3,0-0.6,0-0.9,0.1c-0.4,0.1-0.7,0.1-1,0.1
			c-0.7,0-1.3-0.3-1.8-0.8c-0.5-0.5-0.7-1.2-0.7-2.1c0-0.9,0.2-1.6,0.7-2.1c0.5-0.5,1.1-0.8,1.8-0.8c0.3,0,0.5,0,0.8,0.1
			S103.7,131.4,103.8,131.5z M103.8,135.7v-3.5c0-0.1-0.1-0.2-0.3-0.3c-0.2-0.1-0.5-0.1-0.8-0.1c-0.6,0-1,0.2-1.3,0.6
			s-0.5,0.9-0.5,1.7c0,0.7,0.2,1.3,0.5,1.7s0.8,0.5,1.3,0.5c0.3,0,0.6,0,0.8-0.1C103.7,136,103.8,135.9,103.8,135.7z"/>
		<path class="st4" d="M108.1,131.1c0.7,0,1.3,0.3,1.7,0.8s0.6,1.2,0.6,2.1c0,0.9-0.2,1.6-0.6,2.1s-1,0.8-1.7,0.8
			c-0.7,0-1.3-0.3-1.7-0.8s-0.7-1.2-0.7-2.1c0-0.9,0.2-1.6,0.7-2.1S107.4,131.1,108.1,131.1z M109.3,132.3c-0.3-0.4-0.7-0.6-1.2-0.6
			c-0.5,0-0.8,0.2-1.1,0.6c-0.3,0.4-0.4,0.9-0.4,1.7c0,0.7,0.1,1.3,0.4,1.7c0.3,0.4,0.7,0.6,1.2,0.6s0.8-0.2,1.1-0.6
			s0.4-0.9,0.4-1.7C109.7,133.3,109.5,132.7,109.3,132.3z"/>
		<path class="st4" d="M112.4,136.7h-0.7v-5.5h0.7v0.6c0.1-0.2,0.3-0.4,0.6-0.6c0.3-0.1,0.6-0.2,0.9-0.2c0.2,0,0.4,0,0.6,0v0.8
			c-0.3-0.1-0.5-0.1-0.7-0.1c-0.4,0-0.7,0.1-1,0.2c-0.2,0.2-0.4,0.4-0.4,0.7C112.4,133.4,112.4,134.7,112.4,136.7z"/>
		<path class="st4" d="M117.9,133.2v-0.4c0-0.7-0.4-1.1-1.2-1.1c-0.5,0-1,0.1-1.5,0.4v-0.7c0.5-0.2,1.1-0.3,1.6-0.3
			c1.3,0,1.9,0.6,1.9,1.7c0,0.3,0,0.8,0,1.4c0,0.6,0,1.1,0,1.4c0,0.4,0,0.8,0,1.1c-0.3,0-0.6,0-1.1,0.1s-0.7,0.1-0.9,0.1
			c-0.6,0-1.1-0.2-1.4-0.5c-0.3-0.3-0.5-0.7-0.5-1.2c0-0.6,0.3-1.1,0.8-1.4C116,133.4,116.8,133.2,117.9,133.2z M117.9,133.8
			c-0.8,0-1.4,0.1-1.8,0.3c-0.4,0.2-0.5,0.6-0.5,1c0,0.3,0.1,0.6,0.3,0.8s0.5,0.3,0.9,0.3c0.7,0,1.1-0.2,1.1-0.5
			C117.9,135.5,117.9,134.9,117.9,133.8z"/>
		<path class="st4" d="M119.8,132.7c0-0.5,0.2-0.9,0.5-1.2c0.4-0.3,0.8-0.4,1.4-0.4c0.4,0,0.7,0.1,1,0.2v0.7
			c-0.4-0.1-0.7-0.2-1.1-0.2c-0.4,0-0.6,0.1-0.8,0.2c-0.2,0.1-0.3,0.3-0.3,0.6c0,0.3,0.1,0.5,0.4,0.7c0.3,0.2,0.6,0.4,0.9,0.5
			c0.3,0.1,0.6,0.3,0.9,0.6c0.3,0.3,0.4,0.6,0.4,0.9c0,0.5-0.2,0.9-0.5,1.2c-0.3,0.3-0.9,0.5-1.5,0.5c-0.4,0-0.8-0.1-1.2-0.2v-0.6
			c0.4,0.1,0.8,0.2,1.2,0.2c0.4,0,0.8-0.1,1-0.3s0.3-0.4,0.3-0.7c0-0.2-0.1-0.4-0.3-0.6c-0.2-0.2-0.4-0.3-0.6-0.4
			c-0.2-0.1-0.5-0.2-0.8-0.3s-0.5-0.3-0.6-0.5C119.9,133.2,119.8,133,119.8,132.7z"/>
		<path class="st4" d="M134.7,132.9v3.8H134v-3.6c0-0.5-0.1-0.9-0.3-1.1c-0.2-0.2-0.5-0.3-0.9-0.3c-0.3,0-0.6,0.1-0.9,0.2
			c-0.3,0.1-0.4,0.3-0.4,0.5c0,0.1,0,0.3,0,0.6v3.7h-0.7v-3.6c0-0.9-0.4-1.4-1.1-1.4c-0.3,0-0.6,0.1-0.9,0.2
			c-0.3,0.1-0.4,0.3-0.4,0.6v4.2h-0.7v-5.4c0.4,0,0.8-0.1,1.2-0.2c0.4-0.1,0.8-0.2,1-0.2c0.6,0,1,0.2,1.3,0.5
			c0.5-0.4,1.1-0.5,1.8-0.5C134.1,131.1,134.7,131.7,134.7,132.9z"/>
		<path class="st4" d="M138.3,136.2c0.8,0,1.2-0.2,1.2-0.6v-4.3h0.7v5.4c-0.3,0-0.7,0-1.1,0.1s-0.7,0.1-1,0.1
			c-0.6,0-1.1-0.2-1.5-0.5c-0.4-0.3-0.6-0.8-0.6-1.4v-3.7h0.7v3.6c0,0.5,0.1,0.9,0.3,1.1S137.8,136.2,138.3,136.2z"/>
		<path class="st4" d="M141,139.2h0.1c0.5,0,0.8-0.3,0.8-0.8v-7.2h0.8c0,1.4,0,3.8,0,7.1c0,0.4-0.1,0.8-0.4,1s-0.6,0.4-1,0.4
			c-0.1,0-0.2,0-0.2,0V139.2z M142.3,129.1c0.1,0,0.3,0,0.4,0.1c0.1,0.1,0.2,0.2,0.2,0.4c0,0.2,0,0.3-0.2,0.4
			c-0.1,0.1-0.2,0.2-0.4,0.2c-0.2,0-0.3,0-0.4-0.2c-0.1-0.1-0.2-0.2-0.2-0.4c0-0.1,0-0.3,0.2-0.4C142,129.1,142.2,129.1,142.3,129.1
			z"/>
		<path class="st4" d="M144.8,133.7v0.3c0,0.8,0.2,1.3,0.5,1.7c0.4,0.4,0.9,0.6,1.5,0.6c0.4,0,0.8-0.1,1.1-0.2v0.6
			c-0.3,0.1-0.7,0.2-1.2,0.2c-0.8,0-1.5-0.2-2-0.7c-0.5-0.5-0.7-1.2-0.7-2.2c0-0.8,0.2-1.5,0.7-2.1c0.5-0.5,1.1-0.8,1.8-0.8
			c0.6,0,1.1,0.2,1.4,0.6s0.5,0.9,0.5,1.5c0,0.2,0,0.3,0,0.5H144.8z M144.9,133.1h2.4c0.1,0,0.2,0,0.2-0.1c0,0,0.1-0.1,0.1-0.2
			c0-0.3-0.1-0.6-0.3-0.8c-0.2-0.2-0.5-0.3-0.9-0.3c-0.5,0-0.9,0.1-1.1,0.4C145.1,132.4,144.9,132.7,144.9,133.1z"/>
		<path class="st4" d="M150.2,136.7h-0.7v-5.5h0.7v0.6c0.1-0.2,0.3-0.4,0.6-0.6s0.6-0.2,0.9-0.2c0.2,0,0.4,0,0.6,0v0.8
			c-0.3-0.1-0.5-0.1-0.7-0.1c-0.4,0-0.7,0.1-1,0.2c-0.2,0.2-0.4,0.4-0.4,0.7C150.2,133.4,150.2,134.7,150.2,136.7z"/>
		<path class="st4" d="M153.3,133.7v0.3c0,0.8,0.2,1.3,0.5,1.7c0.4,0.4,0.9,0.6,1.5,0.6c0.4,0,0.8-0.1,1.1-0.2v0.6
			c-0.3,0.1-0.7,0.2-1.2,0.2c-0.8,0-1.5-0.2-2-0.7s-0.7-1.2-0.7-2.2c0-0.8,0.2-1.5,0.7-2.1c0.5-0.5,1.1-0.8,1.8-0.8
			c0.6,0,1.1,0.2,1.4,0.6c0.3,0.4,0.5,0.9,0.5,1.5c0,0.2,0,0.3,0,0.5H153.3z M153.4,133.1h2.4c0.1,0,0.2,0,0.2-0.1s0.1-0.1,0.1-0.2
			c0-0.3-0.1-0.6-0.3-0.8c-0.2-0.2-0.5-0.3-0.9-0.3c-0.5,0-0.9,0.1-1.1,0.4C153.7,132.4,153.5,132.7,153.4,133.1z"/>
		<path class="st4" d="M157.8,132.7c0-0.5,0.2-0.9,0.5-1.2c0.4-0.3,0.8-0.4,1.4-0.4c0.4,0,0.7,0.1,1,0.2v0.7
			c-0.4-0.1-0.7-0.2-1.1-0.2c-0.4,0-0.6,0.1-0.8,0.2c-0.2,0.1-0.3,0.3-0.3,0.6c0,0.3,0.1,0.5,0.4,0.7c0.3,0.2,0.6,0.4,0.9,0.5
			c0.3,0.1,0.6,0.3,0.9,0.6s0.4,0.6,0.4,0.9c0,0.5-0.2,0.9-0.5,1.2s-0.9,0.5-1.5,0.5c-0.4,0-0.8-0.1-1.2-0.2v-0.6
			c0.4,0.1,0.8,0.2,1.2,0.2c0.4,0,0.8-0.1,1-0.3c0.2-0.2,0.3-0.4,0.3-0.7c0-0.2-0.1-0.4-0.3-0.6s-0.4-0.3-0.6-0.4
			c-0.2-0.1-0.5-0.2-0.8-0.3s-0.5-0.3-0.6-0.5C157.9,133.2,157.8,133,157.8,132.7z"/>
	</g>
	<g>
		<path class="st5" d="M259.8,135.9l-0.1-0.1c1-1.7,2.1-3.6,3.3-5.6h0.8c0,0.8,0,2,0,3.6v1.4h1.4v0.7h-1.4v2.4H263v-2.4H259.8z
			 M263,135.2v-3.9c-0.8,1.3-1.5,2.5-2.1,3.7c0,0,0,0.1,0,0.1c0,0,0,0,0.1,0H263z"/>
		<path class="st5" d="M270.6,137.8c-0.4,0.4-1.1,0.6-1.8,0.6c-0.8,0-1.4-0.2-1.8-0.6c-0.4-0.4-0.7-1-0.7-1.7c0-0.5,0.1-1,0.4-1.3
			c0.3-0.4,0.6-0.7,1.1-0.8c-0.9-0.4-1.3-1-1.3-1.9c0-0.5,0.2-1,0.6-1.4s1-0.6,1.7-0.6c0.7,0,1.3,0.2,1.7,0.6s0.6,0.9,0.6,1.4
			c0,0.9-0.4,1.6-1.3,1.9c0.5,0.2,0.8,0.4,1.1,0.8c0.3,0.4,0.4,0.8,0.4,1.3C271.3,136.8,271,137.4,270.6,137.8z M269.9,134.9
			c-0.3-0.4-0.7-0.5-1.2-0.5c-0.5,0-0.9,0.2-1.2,0.5c-0.3,0.4-0.5,0.8-0.5,1.2c0,0.5,0.1,0.9,0.4,1.2c0.3,0.3,0.7,0.5,1.2,0.5
			c0.5,0,0.9-0.2,1.2-0.5c0.3-0.3,0.4-0.7,0.4-1.2C270.4,135.7,270.3,135.3,269.9,134.9z M268.8,133.7c0.4,0,0.8-0.2,1-0.5
			s0.4-0.7,0.4-1.1c0-0.4-0.1-0.8-0.4-1.1s-0.6-0.4-1.1-0.4c-0.5,0-0.9,0.1-1.1,0.4s-0.4,0.6-0.4,1.1c0,0.4,0.1,0.8,0.4,1.1
			C268,133.6,268.3,133.7,268.8,133.7z"/>
		<path class="st5" d="M273.1,137.8c0-0.2,0.1-0.3,0.2-0.4c0.1-0.1,0.3-0.2,0.4-0.2c0.2,0,0.3,0.1,0.4,0.2c0.1,0.1,0.2,0.2,0.2,0.4
			c0,0.2-0.1,0.3-0.2,0.4c-0.1,0.1-0.2,0.2-0.4,0.2s-0.3-0.1-0.4-0.2C273.2,138.1,273.1,138,273.1,137.8z"/>
		<path class="st5" d="M280.5,137.8c-0.4,0.4-1.1,0.6-1.8,0.6c-0.8,0-1.4-0.2-1.8-0.6c-0.4-0.4-0.7-1-0.7-1.7c0-0.5,0.1-1,0.4-1.3
			c0.3-0.4,0.6-0.7,1.1-0.8c-0.9-0.4-1.3-1-1.3-1.9c0-0.5,0.2-1,0.6-1.4s1-0.6,1.7-0.6c0.7,0,1.3,0.2,1.7,0.6s0.6,0.9,0.6,1.4
			c0,0.9-0.4,1.6-1.3,1.9c0.5,0.2,0.8,0.4,1.1,0.8c0.3,0.4,0.4,0.8,0.4,1.3C281.2,136.8,281,137.4,280.5,137.8z M279.9,134.9
			c-0.3-0.4-0.7-0.5-1.2-0.5c-0.5,0-0.9,0.2-1.2,0.5c-0.3,0.4-0.5,0.8-0.5,1.2c0,0.5,0.1,0.9,0.4,1.2c0.3,0.3,0.7,0.5,1.2,0.5
			c0.5,0,0.9-0.2,1.2-0.5c0.3-0.3,0.4-0.7,0.4-1.2C280.3,135.7,280.2,135.3,279.9,134.9z M278.7,133.7c0.4,0,0.8-0.2,1-0.5
			s0.4-0.7,0.4-1.1c0-0.4-0.1-0.8-0.4-1.1s-0.6-0.4-1.1-0.4c-0.5,0-0.9,0.1-1.1,0.4s-0.4,0.6-0.4,1.1c0,0.4,0.1,0.8,0.4,1.1
			C277.9,133.6,278.3,133.7,278.7,133.7z"/>
		<path class="st5" d="M286.2,131.9c0,0.5-0.2,1-0.5,1.4s-0.8,0.6-1.3,0.6c-0.5,0-0.9-0.2-1.2-0.6c-0.3-0.4-0.5-0.8-0.5-1.4
			c0-0.5,0.2-1,0.5-1.4c0.3-0.4,0.8-0.6,1.3-0.6s0.9,0.2,1.2,0.5C286,130.9,286.2,131.4,286.2,131.9z M285.4,131.9
			c0-0.4-0.1-0.8-0.3-1c-0.2-0.2-0.4-0.3-0.7-0.3c-0.7,0-1,0.4-1,1.3c0,0.4,0.1,0.8,0.3,1c0.2,0.2,0.4,0.4,0.7,0.4
			c0.3,0,0.5-0.1,0.7-0.3C285.3,132.7,285.4,132.4,285.4,131.9z M284.5,138.3h-0.9c0.4-0.6,1.2-2,2.5-4.2c1.3-2.2,2-3.5,2.1-3.9h0.9
			c-0.4,0.6-1.2,1.9-2.5,4.1S284.6,137.9,284.5,138.3z M289.6,135.1c0.3,0.4,0.5,0.8,0.5,1.4s-0.2,1-0.5,1.4s-0.8,0.6-1.3,0.6
			c-0.5,0-0.9-0.2-1.2-0.6c-0.3-0.4-0.5-0.8-0.5-1.4c0-0.5,0.2-1,0.5-1.4s0.8-0.6,1.3-0.6C288.8,134.5,289.3,134.7,289.6,135.1z
			 M289.3,136.5c0-0.4-0.1-0.8-0.3-1c-0.2-0.2-0.4-0.3-0.7-0.3c-0.7,0-1,0.4-1,1.3c0,0.4,0.1,0.8,0.3,1c0.2,0.2,0.4,0.3,0.7,0.3
			c0.3,0,0.5-0.1,0.7-0.3C289.2,137.3,289.3,136.9,289.3,136.5z"/>
	</g>
	<g>
		<path class="st5" d="M327.6,135.9l-0.1-0.1c1-1.7,2.1-3.6,3.3-5.6h0.8c0,0.8,0,2,0,3.6v1.4h1.4v0.7h-1.4v2.4h-0.7v-2.4H327.6z
			 M330.9,135.2v-3.9c-0.8,1.3-1.5,2.5-2.1,3.7c0,0,0,0.1,0,0.1c0,0,0,0,0.1,0H330.9z"/>
		<path class="st5" d="M337.8,135.1c-0.3,0.3-0.7,0.5-1.3,0.5c-0.6,0-1.2-0.2-1.6-0.7c-0.4-0.5-0.7-1.1-0.7-2c0-0.8,0.2-1.4,0.6-2
			c0.4-0.6,1-0.9,1.7-0.9c0.7,0,1.3,0.3,1.7,0.8c0.4,0.5,0.6,1.3,0.6,2.2c0,1.2-0.3,2.3-1,3.3c-0.6,1-1.6,1.7-2.8,2.3l-0.3-0.5
			c0.8-0.4,1.5-0.8,2-1.5C337.4,136,337.7,135.5,337.8,135.1z M335,132.9c0,0.2,0,0.4,0.1,0.6s0.1,0.4,0.2,0.6
			c0.1,0.2,0.3,0.4,0.5,0.6c0.2,0.1,0.5,0.2,0.8,0.2c0.5,0,0.9-0.2,1.2-0.5c0.3-0.4,0.4-0.8,0.4-1.4c0-0.7-0.1-1.3-0.4-1.7
			c-0.3-0.4-0.7-0.6-1.1-0.6C335.5,130.6,335,131.4,335,132.9z"/>
		<path class="st5" d="M344.1,131.9c0,0.5-0.2,1-0.5,1.4s-0.8,0.6-1.3,0.6c-0.5,0-0.9-0.2-1.2-0.6c-0.3-0.4-0.5-0.8-0.5-1.4
			c0-0.5,0.2-1,0.5-1.4c0.3-0.4,0.8-0.6,1.3-0.6s0.9,0.2,1.2,0.5C343.9,130.9,344.1,131.4,344.1,131.9z M343.3,131.9
			c0-0.4-0.1-0.8-0.3-1c-0.2-0.2-0.4-0.3-0.7-0.3c-0.7,0-1,0.4-1,1.3c0,0.4,0.1,0.8,0.3,1c0.2,0.2,0.4,0.4,0.7,0.4
			c0.3,0,0.5-0.1,0.7-0.3C343.2,132.7,343.3,132.4,343.3,131.9z M342.4,138.3h-0.9c0.4-0.6,1.2-2,2.5-4.2s2-3.5,2.1-3.9h0.9
			c-0.4,0.6-1.2,1.9-2.5,4.1S342.5,137.9,342.4,138.3z M347.5,135.1c0.3,0.4,0.5,0.8,0.5,1.4s-0.2,1-0.5,1.4s-0.8,0.6-1.3,0.6
			c-0.5,0-0.9-0.2-1.2-0.6c-0.3-0.4-0.5-0.8-0.5-1.4c0-0.5,0.2-1,0.5-1.4s0.8-0.6,1.3-0.6C346.7,134.5,347.2,134.7,347.5,135.1z
			 M347.2,136.5c0-0.4-0.1-0.8-0.3-1c-0.2-0.2-0.4-0.3-0.7-0.3c-0.7,0-1,0.4-1,1.3c0,0.4,0.1,0.8,0.3,1c0.2,0.2,0.4,0.3,0.7,0.3
			c0.3,0,0.5-0.1,0.7-0.3C347.1,137.3,347.2,136.9,347.2,136.5z"/>
	</g>
	<g>
		<path class="st5" d="M385.3,135.9l-0.1-0.1c1-1.7,2.1-3.6,3.3-5.6h0.8c0,0.8,0,2,0,3.6v1.4h1.4v0.7h-1.4v2.4h-0.7v-2.4H385.3z
			 M388.5,135.2v-3.9c-0.8,1.3-1.5,2.5-2.1,3.7c0,0,0,0.1,0,0.1c0,0,0,0,0.1,0H388.5z"/>
		<path class="st5" d="M395.4,135.1c-0.3,0.3-0.7,0.5-1.3,0.5c-0.6,0-1.2-0.2-1.6-0.7c-0.4-0.5-0.7-1.1-0.7-2c0-0.8,0.2-1.4,0.6-2
			c0.4-0.6,1-0.9,1.7-0.9c0.7,0,1.3,0.3,1.7,0.8c0.4,0.5,0.6,1.3,0.6,2.2c0,1.2-0.3,2.3-1,3.3c-0.6,1-1.6,1.7-2.8,2.3l-0.3-0.5
			c0.8-0.4,1.5-0.8,2-1.5C395,136,395.3,135.5,395.4,135.1z M392.6,132.9c0,0.2,0,0.4,0.1,0.6s0.1,0.4,0.2,0.6
			c0.1,0.2,0.3,0.4,0.5,0.6c0.2,0.1,0.5,0.2,0.8,0.2c0.5,0,0.9-0.2,1.2-0.5c0.3-0.4,0.4-0.8,0.4-1.4c0-0.7-0.1-1.3-0.4-1.7
			c-0.3-0.4-0.7-0.6-1.1-0.6C393.2,130.6,392.6,131.4,392.6,132.9z"/>
		<path class="st5" d="M398.6,137.8c0-0.2,0.1-0.3,0.2-0.4c0.1-0.1,0.3-0.2,0.4-0.2c0.2,0,0.3,0.1,0.4,0.2c0.1,0.1,0.2,0.2,0.2,0.4
			c0,0.2-0.1,0.3-0.2,0.4c-0.1,0.1-0.2,0.2-0.4,0.2c-0.2,0-0.3-0.1-0.4-0.2C398.7,138.1,398.6,138,398.6,137.8z"/>
		<path class="st5" d="M403.5,134.4v-0.7c0.1,0,0.1,0,0.3,0c0.5,0,0.9-0.2,1.2-0.5c0.3-0.3,0.5-0.7,0.5-1.1c0-0.4-0.1-0.8-0.4-1.1
			c-0.2-0.3-0.6-0.4-1.1-0.4c-0.6,0-1.1,0.1-1.5,0.4v-0.7c0.4-0.2,0.9-0.3,1.5-0.3c0.8,0,1.4,0.2,1.7,0.6c0.4,0.4,0.6,0.9,0.6,1.5
			c0,0.9-0.4,1.5-1.3,1.9c0.4,0.2,0.8,0.4,1.1,0.8c0.3,0.4,0.4,0.8,0.4,1.3c0,0.7-0.2,1.2-0.8,1.7s-1.2,0.7-2,0.7
			c-0.6,0-1-0.1-1.4-0.4v-0.6c0.4,0.2,0.9,0.4,1.4,0.4c0.6,0,1.1-0.2,1.4-0.5c0.3-0.3,0.5-0.7,0.5-1.2s-0.2-0.9-0.5-1.2
			c-0.3-0.3-0.8-0.5-1.3-0.5C403.7,134.4,403.6,134.4,403.5,134.4z"/>
		<path class="st5" d="M411.7,131.9c0,0.5-0.2,1-0.5,1.4s-0.8,0.6-1.3,0.6c-0.5,0-0.9-0.2-1.2-0.6c-0.3-0.4-0.5-0.8-0.5-1.4
			c0-0.5,0.2-1,0.5-1.4c0.3-0.4,0.8-0.6,1.3-0.6s0.9,0.2,1.2,0.5C411.5,130.9,411.7,131.4,411.7,131.9z M410.9,131.9
			c0-0.4-0.1-0.8-0.3-1c-0.2-0.2-0.4-0.3-0.7-0.3c-0.7,0-1,0.4-1,1.3c0,0.4,0.1,0.8,0.3,1c0.2,0.2,0.4,0.4,0.7,0.4
			c0.3,0,0.5-0.1,0.7-0.3C410.8,132.7,410.9,132.4,410.9,131.9z M409.9,138.3H409c0.4-0.6,1.2-2,2.5-4.2s2-3.5,2.1-3.9h0.9
			c-0.4,0.6-1.2,1.9-2.5,4.1S410.1,137.9,409.9,138.3z M415.1,135.1c0.3,0.4,0.5,0.8,0.5,1.4s-0.2,1-0.5,1.4s-0.8,0.6-1.3,0.6
			c-0.5,0-0.9-0.2-1.2-0.6c-0.3-0.4-0.5-0.8-0.5-1.4c0-0.5,0.2-1,0.5-1.4s0.8-0.6,1.3-0.6C414.3,134.5,414.7,134.7,415.1,135.1z
			 M414.8,136.5c0-0.4-0.1-0.8-0.3-1c-0.2-0.2-0.4-0.3-0.7-0.3c-0.7,0-1,0.4-1,1.3c0,0.4,0.1,0.8,0.3,1c0.2,0.2,0.4,0.3,0.7,0.3
			c0.3,0,0.5-0.1,0.7-0.3C414.7,137.3,414.8,136.9,414.8,136.5z"/>
	</g>
	<line class="st6" x1="36.3" y1="15.4" x2="36.3" y2="142.2"/>
	<path class="st7" d="M36.3,143.7L36.3,143.7 M36.3,12.4L36.3,12.4"/>
	<line class="st8" x1="448.1" y1="43.7" x2="11.2" y2="43.7"/>
	<g>
		<defs>
			<rect id="SVGID_3_" x="9.2" y="10.2" width="442.4" height="138.3"/>
		</defs>
		<clipPath id="SVGID_4_">
			<use xlink:href="#SVGID_3_"  style="overflow:visible;"/>
		</clipPath>
		<path class="st9" d="M9.7,43.7L9.7,43.7 M451.1,43.7L451.1,43.7"/>
	</g>
</g>
</svg>
