<?xml version="1.0" encoding="utf-8"?>
<!-- Generator: Adobe Illustrator 25.2.1, SVG Export Plug-In . SVG Version: 6.00 Build 0)  -->
<svg version="1.1" id="Capa_1" xmlns="http://www.w3.org/2000/svg" xmlns:xlink="http://www.w3.org/1999/xlink" x="0px" y="0px"
	 viewBox="0 0 532.7 198" style="enable-background:new 0 0 532.7 198;" xml:space="preserve">
<style type="text/css">
	.st0{clip-path:url(#SVGID_2_);fill:#EF7B10;}
	.st1{clip-path:url(#SVGID_2_);fill:#F8B375;}
	.st2{clip-path:url(#SVGID_2_);fill:#FDDABB;}
	.st3{clip-path:url(#SVGID_2_);fill:none;stroke:#EF7B10;stroke-width:14.658;stroke-miterlimit:10;}
	.st4{fill:#FFFFFF;}
	.st5{fill:#4B5B6D;}
	
		.st6{fill:none;stroke:#5F6A77;stroke-width:0.814;stroke-linecap:round;stroke-linejoin:round;stroke-miterlimit:10;stroke-dasharray:0,2.421;}
	.st7{fill:none;stroke:#5F6A77;stroke-width:0.814;stroke-linecap:round;stroke-linejoin:round;stroke-miterlimit:10;}
	
		.st8{fill:none;stroke:#FFFFFF;stroke-width:0.814;stroke-linecap:round;stroke-linejoin:round;stroke-miterlimit:10;stroke-dasharray:0,2.349;}
	.st9{fill:none;stroke:#FFFFFF;stroke-width:0.814;stroke-linecap:round;stroke-linejoin:round;stroke-miterlimit:10;}
	.st10{clip-path:url(#SVGID_4_);fill:#FFFFFF;}
	
		.st11{fill:none;stroke:#5F6A77;stroke-width:0.814;stroke-linecap:round;stroke-linejoin:round;stroke-miterlimit:10;stroke-dasharray:0,2.439;}
	
		.st12{fill:none;stroke:#FFFFFF;stroke-width:0.814;stroke-linecap:round;stroke-linejoin:round;stroke-miterlimit:10;stroke-dasharray:0,2.061;}
	.st13{clip-path:url(#SVGID_6_);fill:#FFFFFF;}
	
		.st14{fill:none;stroke:#5F6A77;stroke-width:0.814;stroke-linecap:round;stroke-linejoin:round;stroke-miterlimit:10;stroke-dasharray:0,2.434;}
	
		.st15{fill:none;stroke:#4B5B6D;stroke-width:0.814;stroke-linecap:round;stroke-linejoin:round;stroke-miterlimit:10;stroke-dasharray:0,2.194;}
	.st16{fill:none;stroke:#4B5B6D;stroke-width:0.814;stroke-linecap:round;stroke-linejoin:round;stroke-miterlimit:10;}
	.st17{clip-path:url(#SVGID_8_);fill:#4B5B6D;}
	.st18{clip-path:url(#SVGID_8_);fill:#EF7B10;}
	.st19{clip-path:url(#SVGID_8_);fill:#F8B375;}
	.st20{clip-path:url(#SVGID_8_);fill:#FDDABB;}
	.st21{clip-path:url(#SVGID_8_);fill:none;stroke:#EF7B10;stroke-width:14.658;stroke-miterlimit:10;}
	.st22{clip-path:url(#SVGID_10_);}
	.st23{clip-path:url(#SVGID_12_);}
	
		.st24{fill:none;stroke:#5F6A77;stroke-width:0.814;stroke-linecap:round;stroke-linejoin:round;stroke-miterlimit:10;stroke-dasharray:0,2.42;}
	
		.st25{fill:none;stroke:#FFFFFF;stroke-width:0.814;stroke-linecap:round;stroke-linejoin:round;stroke-miterlimit:10;stroke-dasharray:0,2.641;}
	.st26{clip-path:url(#SVGID_14_);fill:#FFFFFF;}
	
		.st27{fill:none;stroke:#5F6A77;stroke-width:0.814;stroke-linecap:round;stroke-linejoin:round;stroke-miterlimit:10;stroke-dasharray:0,2.429;}
	
		.st28{fill:none;stroke:#FFFFFF;stroke-width:0.814;stroke-linecap:round;stroke-linejoin:round;stroke-miterlimit:10;stroke-dasharray:0,2.324;}
	.st29{clip-path:url(#SVGID_16_);fill:#FFFFFF;}
	
		.st30{fill:none;stroke:#5F6A77;stroke-width:0.814;stroke-linecap:round;stroke-linejoin:round;stroke-miterlimit:10;stroke-dasharray:0,2.423;}
	
		.st31{fill:none;stroke:#4B5B6D;stroke-width:0.814;stroke-linecap:round;stroke-linejoin:round;stroke-miterlimit:10;stroke-dasharray:0,2.455;}
	.st32{clip-path:url(#SVGID_18_);fill:#4B5B6D;}
</style>
<g>
	<g>
		<defs>
			<rect id="SVGID_1_" x="15.7" y="17.3" width="501.2" height="163.4"/>
		</defs>
		<clipPath id="SVGID_2_">
			<use xlink:href="#SVGID_1_"  style="overflow:visible;"/>
		</clipPath>
		<path class="st0" d="M110.4,42.3h99.3c4.6,0,8.2-3.5,8.2-7.9v-0.6c0-3.9-3.3-7.1-7.4-7.1h-100"/>
		<path class="st1" d="M110.4,61.9h140.8c4.6,0,8.2-3.5,8.2-7.9v-0.6c0-3.9-3.3-7.1-7.4-7.1H110.4"/>
		<path class="st2" d="M110.4,81.5h87.9c4.6,0,8.2-3.5,8.2-7.9V73c0-3.9-3.3-7.1-7.4-7.1h-88.6"/>
		<path class="st0" d="M69.1,47c0,0,0-0.1,0-0.1c0,0,0-0.1-0.1-0.1s0-0.1-0.1-0.1c0,0,0-0.1-0.1-0.1c0,0-0.1-0.1-0.1-0.1
			c0,0-0.1-0.1-0.1-0.1c0,0-0.1-0.1-0.1-0.1c0,0-0.1-0.1-0.1-0.2s-0.1-0.2-0.1-0.2c0-0.1-0.1-0.2-0.1-0.2c0-0.1-0.1-0.2-0.2-0.4
			c-0.1-0.1-0.2-0.3-0.2-0.4c0-0.1-0.1-0.2-0.2-0.3c-0.1-0.1-0.1-0.2-0.1-0.3c0,0-0.1-0.1-0.1-0.2c0,0-0.1-0.1-0.1-0.1
			c0,0,0,0-0.1-0.1c0,0,0,0-0.1-0.1c0,0-0.1,0-0.1-0.1c0,0-0.1-0.1-0.2-0.1c-0.1,0-0.1-0.1-0.2-0.1c0,0-0.1,0-0.2,0
			c-0.1,0-0.1,0-0.2,0c0,0-0.1,0-0.1,0c0,0-0.1,0-0.1,0c0,0-0.1,0-0.1,0c0,0-0.1,0-0.1,0s-0.1,0-0.1,0c0,0-0.1,0-0.1,0
			c0,0-0.1,0-0.1,0c0,0-0.1,0-0.1,0c0,0-0.1,0-0.2,0c-0.1,0-0.1,0-0.2,0c0,0-0.1,0-0.1,0c0,0-0.1,0-0.1,0c0,0-0.1-0.1-0.2-0.1
			c-0.1-0.1-0.1-0.1-0.1-0.1c0,0,0-0.1-0.1-0.1c0,0,0-0.1-0.1-0.2c0-0.1,0-0.2,0-0.2c0-0.1,0-0.4,0-0.7c0-0.3,0-0.6,0-0.6
			c0,0,0-0.2,0.1-0.4c0.1-0.2,0.1-0.4,0.1-0.4c0,0,0-0.1,0-0.1c0,0,0-0.1,0-0.1c0,0,0-0.1,0-0.1s0-0.1,0-0.1s0-0.1-0.1-0.1
			c0,0-0.1-0.1-0.1-0.1c0,0,0,0-0.1,0c0,0-0.1,0-0.1,0c0,0-0.1,0-0.1,0c0,0-0.3,0.2-0.6,0.4c-0.3,0.2-0.6,0.4-0.6,0.4
			c0,0-0.1,0-0.1,0c0,0,0,0-0.1,0c0,0,0,0-0.1,0c0,0-0.1,0-0.1,0c0,0-0.1,0-0.1,0c0,0-0.1,0-0.1,0c0,0-0.1,0-0.1,0c0,0-0.1,0-0.1,0
			s-0.3,0-0.7,0c-0.3,0-0.6,0-0.6,0c0,0-0.1,0-0.1,0c0,0-0.1,0-0.1,0c0,0,0,0-0.1,0c0,0,0,0-0.1,0c0,0-0.1,0-0.1-0.1
			c0,0,0-0.1,0-0.1c0,0,0-0.1,0-0.1c0,0,0-0.1,0-0.1c0,0,0-0.1,0-0.1c0,0,0-0.1,0-0.1c0,0,0-0.1-0.1-0.1c0,0,0-0.1-0.1-0.1
			c0,0,0-0.1-0.1-0.1c0,0-0.1-0.1-0.1-0.1c0,0-0.1-0.1-0.1-0.1c0,0-0.1,0-0.1-0.1c0,0-0.1,0-0.1,0c0,0-0.3,0-0.5,0
			c-0.3,0-0.5,0-0.5,0c0,0-0.1,0-0.1,0c0,0-0.1,0-0.1,0c0,0-0.1,0-0.1,0c0,0,0,0,0-0.1c0,0,0-0.1,0-0.1c0,0,0-0.1,0-0.1
			c0,0,0-0.1,0-0.1c0,0,0.1-0.1,0.1-0.1c0,0,0.1-0.1,0.1-0.1c0,0,0-0.1,0-0.1c0,0,0-0.1,0-0.1c0,0,0-0.1,0-0.2c0-0.1,0-0.1,0-0.2
			c0,0,0-0.1,0-0.1c0,0,0-0.1-0.1-0.1c0,0-0.1-0.1-0.1-0.1c0,0-0.1-0.1-0.2-0.2c-0.1-0.1-0.3-0.2-0.4-0.4c-0.1-0.1-0.4-0.4-0.5-0.6
			c-0.1-0.2-0.3-0.4-0.3-0.4c0,0,0-0.1,0-0.1c0,0,0-0.1,0-0.2c0,0,0-0.1,0-0.2c0,0,0-0.1,0-0.2c0-0.1,0-0.1,0-0.1c0,0,0-0.1,0-0.1
			c0,0,0-0.1,0-0.1c0,0-0.1-0.1-0.1-0.1c-0.1-0.1-0.1-0.1-0.2-0.1c0,0,0-0.1-0.1-0.1c0,0,0-0.1-0.1-0.1c0,0,0-0.1-0.1-0.1
			c0,0,0-0.1,0-0.1c0,0,0-0.1,0-0.1c0,0,0-0.1,0-0.1c0,0,0-0.1,0-0.1c0,0,0-0.1,0.1-0.1c0,0,0.1,0,0.1-0.1c0,0,0.1,0,0.1,0
			c0,0,0.1,0,0.1,0c0,0,0,0,0,0c0,0,0,0,0,0s0,0,0-0.1c0,0,0,0,0-0.1c0,0,0-0.1,0-0.1c0,0,0-0.1-0.1-0.1c0,0,0-0.1-0.1-0.1
			c0,0,0-0.1,0-0.1c0,0,0-0.1,0-0.1c0,0,0-0.1,0-0.1c0,0,0-0.1,0-0.1c0,0,0-0.1,0.1-0.1c0,0,0.1-0.1,0.1-0.1c0,0,0.1-0.1,0.2-0.2
			c0.1-0.1,0.3-0.3,0.5-0.4c0.1-0.1,0.3-0.2,0.4-0.3c0.1,0,0.1-0.1,0.2-0.1c0,0,0-0.1,0.1-0.1c0,0,0-0.1,0.1-0.1c0,0,0-0.1,0-0.1
			c0,0,0-0.1,0-0.2c0-0.1,0-0.2,0-0.2c0-0.1,0-0.1,0-0.2c0-0.1,0-0.1,0-0.2c0,0,0-0.1,0-0.1c0,0,0-0.1,0-0.1c0,0,0-0.1,0.1-0.1
			c0,0,0-0.1,0.1-0.1c0,0,0,0,0-0.1c0,0,0,0,0-0.1c0,0,0-0.1,0.1-0.2c0-0.1,0.1-0.4,0.1-0.7c0.1-0.3,0.1-0.5,0.1-0.6
			c0,0,0-0.1,0.1-0.2c0-0.1,0.1-0.2,0.1-0.2s0,0,0,0c0,0,0,0,0.1-0.1c0,0,0.1,0,0.1-0.1c0,0,0.1,0,0.1,0c0,0,0.1,0,0.1,0
			s0.1,0,0.1,0c0,0,0.1,0,0.1,0c0,0,0.1-0.1,0.1-0.1c0.1,0,0.2-0.1,0.2-0.2c0.1,0,0.2-0.2,0.4-0.3c0.2-0.1,0.4-0.3,0.5-0.3
			c0.1-0.1,0.2-0.1,0.3-0.2c0.1,0,0.1-0.1,0.2-0.1c0,0,0.1,0,0.2-0.1c0.1,0,0.1,0,0.1,0c0,0,0.1,0,0.1,0c0,0,0.1,0,0.2,0
			c0.1,0,0.2,0,0.2,0c0,0,0,0,0.1,0c0,0,0,0,0.1,0c0,0,0,0,0.1,0c0,0,0.1,0,0.1,0c0,0,0.1,0,0.2,0c0.1,0,0.2,0,0.2,0c0,0,0,0,0.1,0
			c0,0,0.1,0,0.1,0c0,0,0.1,0,0.1,0c0,0,0.1,0,0.1,0c0,0,0.1,0,0.1,0c0,0,0.1,0,0.1-0.1c0,0,0.1,0,0.1-0.1c0,0,0.1,0,0.1-0.1
			c0,0,0.1,0,0.2-0.1c0,0,0.1,0,0.2,0c0.1,0,0.3,0,0.6,0c0.3,0,0.6,0,0.6,0c0,0,0.1,0,0.1,0c0,0,0.1,0,0.1,0s0.1,0,0.2,0
			c0.1,0,0.2,0,0.2,0c0,0,0,0,0-0.1c0,0-0.1-0.1-0.1-0.2c0,0-0.1-0.1-0.1-0.1c0,0-0.1-0.1-0.1-0.1c0,0-0.1-0.1-0.1-0.1
			c0,0-0.1-0.1-0.2-0.1c0,0-0.1,0-0.2-0.1c-0.1,0-0.2,0-0.2,0c0,0-0.1,0-0.1,0c0,0-0.1,0-0.1-0.1c0,0,0-0.1,0-0.1c0,0,0-0.1,0-0.1
			c0,0,0-0.1,0-0.1c0,0,0.1-0.2,0.3-0.5c0.1-0.2,0.3-0.5,0.4-0.6c0.1-0.1,0.2-0.3,0.2-0.3c0,0,0.1-0.1,0.1-0.1c0,0,0.1-0.1,0.1-0.1
			c0,0,0-0.1,0.1-0.2c0,0,0-0.1,0-0.2c0-0.1,0-0.1,0-0.2c0,0,0-0.1-0.1-0.2c0-0.1-0.1-0.1-0.1-0.2c0,0-0.1-0.1-0.1-0.1
			c0,0-0.1-0.1-0.1-0.1c0,0-0.1-0.1-0.1-0.1c0,0-0.1-0.1-0.1-0.1c0,0-0.1,0-0.1,0c0,0-0.1,0-0.1,0c0,0-0.1,0-0.1,0c0,0-0.1,0-0.1,0
			c0,0-0.1,0-0.1,0c0,0-0.1,0-0.1,0c0,0-0.1,0-0.1,0c0,0-0.1,0-0.1,0c0,0-0.1,0-0.1-0.1c0,0-0.1-0.1-0.1-0.1c0,0-0.1-0.1-0.1-0.1
			c0,0-0.1,0-0.1,0c0,0-0.1,0-0.1,0c0,0-0.1,0-0.1,0c0,0-0.1,0-0.1,0c0,0-0.1,0-0.1,0c0,0-0.1,0-0.1,0c0,0-0.1,0-0.1,0
			c0,0-0.1,0-0.1,0s-0.1,0-0.1,0c0,0-0.1,0-0.2,0c-0.1,0-0.2,0-0.2,0c0,0-0.1,0-0.1,0c0,0-0.1,0-0.1-0.1c0,0-0.1-0.1-0.2-0.1
			c0,0-0.1,0-0.1-0.1s-0.1,0-0.1,0c0,0-0.1,0-0.2,0c-0.1,0-0.2,0-0.2,0c-0.1,0-0.1,0-0.2,0c0,0-0.1,0-0.1,0c0,0-0.1,0.1-0.1,0.1
			c0,0-0.1,0.1-0.1,0.1c0,0-0.1,0.1-0.2,0.1c-0.1,0-0.2,0.1-0.2,0.1c-0.1,0-0.1,0-0.2,0c0,0-0.1,0-0.2,0c0,0-0.2,0-0.3,0
			c-0.1,0-0.4,0-0.6,0s-0.4,0-0.5,0c0,0-0.1,0-0.1,0c0,0-0.1,0-0.1-0.1c0,0-0.1-0.1-0.1-0.1c0,0-0.1-0.1-0.1-0.1c0,0,0-0.1-0.1-0.1
			c0,0,0-0.1,0-0.1c0,0,0-0.1,0-0.2c0-0.1,0-0.1,0-0.2c0,0,0-0.1,0-0.1c0,0,0-0.1,0-0.1c0,0,0-0.1,0-0.1c0,0,0-0.1,0-0.1
			c0,0,0-0.1-0.1-0.1c0,0,0-0.1-0.1-0.1c0,0-0.1,0-0.1,0c0,0-0.1,0-0.1,0c0,0-0.1,0-0.1,0c0,0-0.1,0-0.1,0c0,0-0.1,0-0.1,0
			c0,0-0.1,0-0.1,0c0,0,0,0,0-0.1c0,0,0-0.1-0.1-0.2c0-0.1,0-0.2,0-0.2c0,0,0-0.1,0-0.1c0,0,0-0.1-0.1-0.1c0,0-0.2-0.2-0.5-0.4
			c-0.3-0.2-0.5-0.4-0.5-0.4c0,0-0.1-0.1-0.1-0.1c0,0-0.1,0-0.1-0.1c0,0-0.1,0-0.1-0.1c0,0-0.1,0-0.1-0.1c0,0-0.1-0.1-0.1-0.1
			c0,0-0.1-0.1-0.1-0.1c0,0-0.1-0.1-0.1-0.2c0-0.1-0.1-0.1-0.1-0.2c0,0,0-0.1,0-0.1c0,0,0-0.1,0-0.1c0,0,0-0.1,0-0.1
			c0,0,0-0.1-0.1-0.1s-0.1-0.1-0.1-0.1c0,0-0.3-0.2-0.7-0.5c-0.4-0.3-0.7-0.5-0.7-0.5c0,0-0.1,0-0.1,0c0,0-0.1,0-0.1,0
			c0,0-0.1,0-0.1,0c0,0-0.1,0-0.1,0c0,0-0.1,0-0.1,0c0,0-0.1,0-0.1,0c0,0-0.1,0-0.1,0c0,0-0.1,0-0.1,0c0,0-0.1,0-0.1,0
			c0,0-0.1,0-0.1,0c0,0-0.1,0-0.1,0c0,0,0,0.1,0,0.1c0,0,0,0.1,0,0.1c0,0,0,0.1,0,0.1c0,0,0,0.1,0,0.1c0,0,0,0.1,0,0.1
			c0,0,0.1,0.1,0.1,0.1c0,0,0,0.1,0.1,0.1s0.1,0.1,0.1,0.1c0,0,0.1,0.1,0.1,0.1c0,0,0.1,0.1,0.1,0.1c0,0,0,0.1,0,0.1
			c0,0.1,0,0.1,0,0.2c0,0.1,0,0.2,0,0.2c0,0.1,0,0.1,0,0.2c0,0,0,0.1,0,0.1c0,0,0,0.1,0,0.1c0,0,0,0.1,0,0.2c0,0,0,0.1-0.1,0.1
			c0,0,0,0.1-0.1,0.1c0,0,0,0.1-0.1,0.1c0,0,0,0.1,0,0.1c0,0,0,0.1,0,0.2c0,0.1,0,0.2,0,0.2s0,0.2-0.1,0.2c0,0,0,0.1-0.1,0.1
			c0,0-0.1,0.1-0.2,0.2c-0.1,0.1-0.5,0.5-0.8,0.9c-0.4,0.4-0.8,0.8-1,0.9c-0.2,0.1-0.3,0.3-0.4,0.3c0,0-0.1,0.1-0.1,0.1
			c0,0-0.2,0.1-0.4,0.2c-0.2,0.1-0.3,0.2-0.4,0.2c-0.1,0-0.1,0.1-0.2,0.1c-0.1,0-0.2,0.1-0.4,0.1c-0.1,0-0.4,0.1-0.5,0.1
			c-0.2,0-0.3,0.1-0.4,0.1c0,0-0.1,0.1-0.2,0.1c-0.1,0-0.3,0.2-0.5,0.3c-0.2,0.1-0.4,0.3-0.5,0.3c0,0-0.2,0.2-0.4,0.4
			c-0.2,0.2-0.4,0.5-0.5,0.7c-0.1,0.2-0.2,0.4-0.3,0.5c0,0.1-0.1,0.3-0.1,0.4c0,0.1-0.1,0.4-0.1,0.5c0,0.2-0.1,0.4-0.2,0.5
			c0,0.1-0.1,0.2-0.1,0.3c0,0-0.1,0.1-0.1,0.2c0,0.1-0.1,0.2-0.2,0.3C45.1,28.8,45,28.9,45,29c0,0-0.1,0.1-0.1,0.1
			c0,0-0.1,0.1-0.1,0.1c0,0-0.1,0-0.1,0.1c0,0-0.1,0-0.1,0c0,0-0.1,0-0.1,0c0,0-0.1,0-0.1,0c0,0-0.1,0-0.1,0c0,0-0.2-0.2-0.3-0.4
			c-0.2-0.2-0.3-0.4-0.3-0.5c0,0,0-0.1-0.1-0.1c0,0,0-0.1-0.1-0.1c0,0-0.1-0.1-0.1-0.1c0,0-0.1,0-0.1,0c0,0-0.1,0-0.1,0
			c0,0-0.1,0-0.1,0c0,0-0.1,0-0.1,0c0,0-0.1,0-0.2,0c-0.1,0-0.1,0-0.2,0c0,0-0.1,0-0.1,0c0,0-0.1,0-0.1,0c0,0-0.1,0-0.1,0
			c0,0-0.1,0-0.2,0c-0.1,0-0.1,0-0.2,0c0,0-0.1,0-0.1,0c0,0-0.1,0-0.1,0c0,0-0.1,0-0.1,0s-0.1,0-0.1,0c0,0,0,0-0.1,0
			c0,0-0.1,0-0.1,0c0,0,0,0,0-0.1c0,0,0-0.1,0-0.1c0,0,0-0.1,0-0.1c0,0,0-0.1,0-0.1c0,0,0-0.1,0-0.1c0,0,0-0.1,0-0.1
			c0,0,0.1-0.1,0.1-0.2c0-0.1,0.1-0.1,0.1-0.1c0,0,0-0.1,0.1-0.2c0-0.1,0-0.1,0.1-0.2c0-0.1,0-0.2,0-0.2c0-0.1,0-0.2,0-0.2
			c0-0.1,0-0.2,0-0.2c0-0.1,0-0.2-0.1-0.2c0-0.1-0.1-0.1-0.1-0.2c0,0-0.1,0-0.2,0.1c-0.1,0.1-0.4,0.4-0.6,0.6
			c-0.3,0.3-0.6,0.6-0.7,0.8c-0.1,0.1-0.3,0.3-0.3,0.3c0,0-0.1,0.1-0.1,0.2c0,0.1-0.1,0.1-0.1,0.2c0,0-0.1,0.1-0.1,0.1
			c0,0,0,0.1-0.1,0.2c0,0.1,0,0.2-0.1,0.3c0,0.1,0,0.2,0,0.3c0,0.1,0,0.1,0,0.2c0,0,0,0.1,0,0.2c0,0,0,0.1,0.1,0.2
			c0,0.1,0.1,0.2,0.1,0.2c0,0.1,0.1,0.1,0.1,0.2c0,0,0,0.1,0,0.1c0,0,0,0.1,0,0.2c0,0.1,0,0.1,0,0.2c0,0,0,0.1,0,0.2
			c0,0.1,0,0.1,0,0.2c0,0,0,0.1,0,0.1c0,0,0,0.1,0,0.1c0,0,0,0.1,0.1,0.2c0,0.1,0.1,0.2,0.1,0.2c0,0.1,0,0.1,0.1,0.2
			c0,0,0,0.1,0,0.1c0,0,0,0.1,0,0.1c0,0,0,0.1,0,0.1c0,0,0,0.1,0,0.1c0,0,0,0.1-0.1,0.1c0,0,0,0.1-0.1,0.1c0,0,0,0.1,0,0.1
			c0,0,0,0.1,0,0.1c0,0,0,0.1,0,0.1c0,0,0,0.1,0,0.1c0,0,0,0.1,0.1,0.1c0,0,0.1,0.1,0.1,0.2c0.1,0.1,0.2,0.2,0.2,0.2
			c0.1,0.1,0.2,0.1,0.3,0.2s0.2,0.1,0.3,0.1c0.1,0,0.2,0.1,0.3,0.1c0.1,0,0.2,0.1,0.3,0.1c0.1,0,0.2,0.1,0.3,0.1
			c0.1,0,0.2,0.1,0.3,0.2c0.1,0,0.2,0.1,0.2,0.2c0.1,0.1,0.2,0.2,0.4,0.4c0.1,0.2,0.4,0.4,0.5,0.6c0.1,0.2,0.2,0.3,0.3,0.3
			c0,0,0,0.1,0.1,0.1c0,0,0,0.1,0,0.1c0,0,0,0.1,0,0.1c0,0,0,0.1,0,0.2c0,0.1,0,0.2,0.1,0.2c0,0.1,0.1,0.2,0.1,0.2
			c0,0.1,0.2,0.4,0.3,0.6c0.1,0.3,0.3,0.5,0.3,0.6c0,0.1,0.2,0.4,0.4,0.6c0.2,0.3,0.4,0.6,0.5,0.8c0.1,0.1,0.3,0.5,0.4,0.8
			c0.2,0.3,0.3,0.7,0.4,0.8c0.1,0.1,0.2,0.4,0.3,0.7c0.1,0.2,0.2,0.5,0.3,0.6c0,0.1,0.1,0.2,0.1,0.3c0,0.1,0,0.2,0.1,0.2
			c0,0.1,0,0.2,0.1,0.2c0,0.1,0.1,0.2,0.1,0.2c0,0.1,0.1,0.2,0.2,0.3c0.1,0.1,0.2,0.4,0.4,0.6c0.1,0.2,0.3,0.5,0.4,0.6
			c0.1,0.1,0.1,0.3,0.2,0.3c0,0.1,0.1,0.2,0.2,0.3c0.1,0.1,0.1,0.2,0.2,0.3c0,0.1,0.1,0.2,0.2,0.3c0.1,0.1,0.2,0.2,0.2,0.3
			c0.1,0.1,0.1,0.2,0.2,0.2c0,0.1,0.1,0.1,0.1,0.2c0,0,0.2,0.3,0.3,0.5c0.1,0.2,0.3,0.6,0.4,0.7c0.1,0.2,0.2,0.4,0.3,0.6
			c0.1,0.1,0.2,0.4,0.3,0.5c0.1,0.1,0.2,0.3,0.3,0.5c0.1,0.2,0.3,0.4,0.4,0.6c0.1,0.1,0.2,0.3,0.2,0.4c0,0.1,0.1,0.1,0.1,0.2
			c0,0,0.1,0.1,0.1,0.1c0,0,0,0.1,0,0.1c0,0,0,0.1,0,0.1c0,0,0,0.1,0,0.1c0,0,0,0.1,0,0.1s0,0.1-0.1,0.2c0,0-0.1,0.1-0.1,0.2
			c0,0-0.1,0.1-0.1,0.1c0,0-0.1,0.1-0.1,0.1c0,0-0.1,0.1-0.1,0.1c0,0,0,0.1,0,0.1c0,0,0,0.1,0,0.1c0,0,0,0.1,0,0.1c0,0,0,0.1,0,0.1
			c0,0,0,0.1,0,0.1c0,0,0,0,0,0.1c0,0,0,0.1,0.1,0.2c0,0.1,0.1,0.2,0.2,0.2c0,0.1,0.1,0.1,0.1,0.2s0.1,0.1,0.1,0.1
			c0,0,0.2,0.2,0.3,0.4c0.1,0.2,0.3,0.4,0.3,0.4c0,0,0.1,0.1,0.1,0.1s0.1,0.1,0.1,0.1c0,0,0.1,0.1,0.1,0.1c0,0,0.1,0.1,0.2,0.2
			c0.1,0.1,0.1,0.1,0.2,0.2s0.1,0.1,0.1,0.1c0,0,0.1,0,0.1,0.1s0.1,0,0.1,0.1c0,0,0.1,0.1,0.2,0.1c0.1,0,0.1,0.1,0.1,0.1
			c0,0,0.1,0,0.1,0.1s0.1,0.1,0.2,0.2c0.1,0.1,0.2,0.2,0.2,0.2c0,0,0.1,0.1,0.1,0.1c0,0,0.1,0.1,0.2,0.1c0.1,0,0.2,0.1,0.3,0.2
			c0.1,0.1,0.3,0.2,0.4,0.3c0.1,0.1,0.5,0.3,0.7,0.5c0.3,0.2,0.6,0.4,0.7,0.5c0.1,0.1,0.3,0.2,0.4,0.2c0.1,0,0.2,0.1,0.3,0.1
			c0.1,0,0.2,0.1,0.3,0.1c0.1,0,0.2,0.1,0.3,0.1c0.1,0,0.3,0.1,0.5,0.2c0.2,0.1,0.5,0.2,0.7,0.3c0.1,0.1,0.4,0.2,0.5,0.2
			c0.1,0.1,0.4,0.2,0.5,0.3c0.2,0.1,0.4,0.2,0.4,0.2c0,0,0.1,0.1,0.2,0.1c0,0,0.2,0.1,0.3,0.2c0.1,0.1,0.3,0.2,0.4,0.2
			c0.1,0.1,0.3,0.2,0.4,0.2c0.1,0.1,0.2,0.2,0.3,0.2c0.1,0.1,0.2,0.2,0.3,0.2c0.1,0,0.2,0.2,0.3,0.2c0.1,0.1,0.2,0.2,0.3,0.2
			c0.1,0.1,0.1,0.1,0.2,0.2c0,0,0.1,0.1,0.1,0.1c0,0,0,0.1,0.1,0.1c0,0,0,0.1,0.1,0.1c0,0,0,0.1,0,0.1c0,0,0,0.1,0,0.1
			c0,0,0,0.1,0.1,0.1c0,0,0.1,0.1,0.1,0.1c0,0.1,0.1,0.1,0.1,0.1c0,0,0.1,0.1,0.1,0.1c0,0,0.1,0,0.1,0.1s0.2,0.1,0.2,0.1
			c0.1,0,0.2,0.1,0.3,0.1c0.1,0,0.2,0.1,0.2,0.1c0,0,0.1,0,0.1,0.1c0,0,0.1,0.1,0.1,0.1c0,0,0.1,0.1,0.1,0.1c0,0,0.1,0,0.1,0
			c0,0,0.1,0,0.2,0c0.1,0,0.1,0,0.2,0c0,0,0.1,0,0.2,0c0,0,0.1,0,0.1,0c0,0,0.1,0,0.1,0c0,0,0.1,0,0.2-0.1c0,0,0.1,0,0.2-0.1
			c0,0,0.1-0.1,0.2-0.1c0.1,0,0.1-0.1,0.1-0.1c0,0,0.1-0.1,0.1-0.1c0,0,0-0.1,0.1-0.1c0,0,0-0.1,0.1-0.2c0,0,0-0.1,0-0.1
			c0,0,0-0.1,0-0.1c0,0,0-0.1,0-0.1c0,0,0-0.1,0-0.1s0-0.1,0-0.1c0,0,0-0.1,0-0.1c0,0,0-0.1,0-0.1c0,0,0-0.1,0-0.1c0,0,0-0.1,0-0.1
			c0,0,0-0.1,0-0.1c0,0,0-0.1,0.1-0.1c0,0,0.1-0.1,0.1-0.1c0,0,0.1-0.1,0.1-0.1c0,0,0.1-0.1,0.1-0.1c0,0,0-0.1,0.1-0.1
			c0,0,0-0.1,0-0.2c0,0,0-0.1,0-0.2c0,0,0-0.1,0-0.2c0,0,0-0.1,0.1-0.2c0,0,0.1-0.1,0.1-0.2c0-0.1,0.1-0.2,0.2-0.2
			c0.1-0.1,0.2-0.2,0.2-0.2c0-0.1,0.2-0.2,0.2-0.3c0.1-0.1,0.2-0.3,0.3-0.4c0.1-0.1,0.2-0.3,0.2-0.3c0-0.1,0.1-0.1,0.1-0.2
			c0,0,0-0.1,0-0.1c0,0,0-0.1,0-0.1c0,0,0-0.1,0-0.1c0,0,0-0.1,0-0.1c0,0,0-0.1-0.1-0.1c0,0-0.1-0.1-0.1-0.1c0,0-0.1,0-0.1,0
			c0,0-0.1,0-0.1,0c0,0-0.1,0-0.1,0c0,0-0.1,0-0.1-0.1c0,0-0.1,0-0.1-0.1c0,0-0.1-0.1-0.1-0.1c0,0-0.1-0.1-0.1-0.1
			c0,0-0.1-0.1-0.1-0.1c0,0,0-0.1-0.1-0.1s0-0.1,0-0.1c0,0,0-0.1,0-0.1c0,0,0-0.1,0-0.2c0,0,0-0.1,0-0.2s0-0.1,0-0.1
			c0,0,0-0.1,0.1-0.1c0,0,0.1-0.1,0.1-0.1c0,0,0.1-0.1,0.1-0.1c0,0,0.1-0.1,0.1-0.1c0,0,0-0.1,0.1-0.1c0,0,0-0.1,0-0.1
			c0,0,0-0.1,0-0.1c0,0-0.1-0.1-0.1-0.2c0-0.1-0.1-0.1-0.1-0.1c0,0,0-0.1,0-0.1c0,0,0-0.1,0-0.1c0,0,0-0.1,0-0.2c0,0,0-0.1,0-0.1
			c0,0,0-0.1,0-0.1c0,0,0-0.1,0-0.1c0,0,0-0.1,0.1-0.1c0,0,0.1-0.1,0.1-0.2c0-0.1,0.1-0.2,0.2-0.2c0.1-0.1,0.1-0.2,0.2-0.2
			c0.1-0.1,0.2-0.2,0.2-0.2c0.1-0.1,0.1-0.1,0.1-0.1c0,0,0.1-0.1,0.1-0.1c0,0,0.1-0.1,0.1-0.1c0,0,0-0.1,0-0.1c0,0,0-0.1,0-0.1
			c0,0,0-0.1,0-0.1c0,0-0.1-0.1-0.1-0.1c0,0-0.1-0.1-0.1-0.2c0,0-0.1-0.1-0.1-0.1c0,0,0-0.1,0-0.1c0,0,0-0.1,0-0.1c0,0,0-0.1,0-0.1
			c0,0,0-0.1,0-0.1c0,0,0-0.1,0-0.1c0,0,0.1-0.1,0.1-0.2c0,0,0.1-0.1,0.1-0.1c0,0,0-0.1,0-0.1c0,0,0-0.1,0-0.1s0-0.1,0-0.1
			c0,0,0-0.1,0-0.1s0-0.1,0-0.1c0,0,0-0.2,0-0.4c0-0.2,0-0.3,0-0.4c0,0,0-0.1,0-0.1s0-0.1,0.1-0.1c0,0,0.1-0.1,0.1-0.1
			c0,0,0.1-0.1,0.1-0.1c0,0,0.1-0.1,0.1-0.1c0,0,0.1-0.1,0.1-0.1c0,0,0-0.1,0.1-0.1c0,0,0-0.1,0.1-0.2c0-0.1,0-0.1,0-0.2
			c0,0,0-0.1,0-0.2s0-0.1,0-0.2C69.1,47.1,69.1,47,69.1,47"/>
		<line class="st3" x1="39.2" y1="78.7" x2="72.1" y2="78.7"/>
	</g>
	<g>
		<path class="st4" d="M49.4,75.8c0,1-0.3,1.7-1,2.3c-0.6,0.5-1.4,0.8-2.4,0.8c-0.5,0-0.9-0.1-1.3-0.2v4.1h-1.7v-9.9
			c0.4,0,0.8,0,1.5-0.1c0.6,0,1.1-0.1,1.4-0.1c1.1,0,2,0.3,2.6,0.8C49.1,74.1,49.4,74.8,49.4,75.8z M44.8,74.6
			c0,0.9-0.1,1.8-0.1,2.7c0.3,0.1,0.6,0.1,1,0.1c0.6,0,1-0.1,1.4-0.4c0.3-0.3,0.5-0.7,0.5-1.2c0-0.5-0.2-0.9-0.5-1.2
			c-0.3-0.3-0.7-0.4-1.2-0.4c-0.3,0-0.6,0-0.7,0.1c-0.2,0-0.3,0.1-0.3,0.2S44.8,74.5,44.8,74.6z"/>
		<path class="st4" d="M52,79.5v0.2c0,0.6,0.2,1,0.5,1.4c0.4,0.3,0.8,0.5,1.5,0.5c0.6,0,1.2-0.1,1.6-0.3v1.4
			c-0.5,0.2-1.1,0.2-1.8,0.2c-1.1,0-1.9-0.3-2.6-0.9c-0.6-0.6-1-1.5-1-2.8c0-1.1,0.3-2,0.9-2.6c0.6-0.6,1.4-1,2.4-1
			c0.9,0,1.5,0.3,2,0.8c0.4,0.5,0.6,1.3,0.6,2.2c0,0.3,0,0.6-0.1,0.9H52z M52.1,78.3h2.1c0.2,0,0.3-0.1,0.3-0.3
			c0-0.3-0.1-0.5-0.3-0.7S53.8,77,53.5,77c-0.4,0-0.7,0.1-0.9,0.3C52.3,77.6,52.2,77.9,52.1,78.3z"/>
		<path class="st4" d="M59.3,82.8h-1.6v-6.9h1.5v0.6c0.4-0.6,1-0.9,1.8-0.9c0.2,0,0.5,0,0.7,0.1v1.7c-0.3-0.1-0.6-0.2-1.1-0.2
			c-0.4,0-0.6,0.1-0.9,0.2c-0.2,0.1-0.4,0.3-0.4,0.6C59.3,78.9,59.3,80.4,59.3,82.8z"/>
		<path class="st4" d="M65.7,81.5c0.7,0,1.1-0.2,1.1-0.6v-5h1.6v6.7c-0.4,0-0.9,0-1.5,0.1c-0.5,0.1-1.1,0.1-1.5,0.1
			c-0.8,0-1.4-0.2-1.9-0.6c-0.5-0.4-0.7-1-0.7-1.9v-4.6h1.6v4.4C64.4,81.1,64.8,81.5,65.7,81.5z M65.8,75.1h-1.4
			c0.6-0.6,1.2-1.3,1.9-2.3h1.7L65.8,75.1z"/>
	</g>
	<g>
		<path class="st5" d="M359.4,38.4h-6.2v-1.3c0.4-0.4,0.9-0.7,1.3-1.1c0.4-0.4,0.8-0.7,1.2-1.1c0.8-0.8,1.3-1.4,1.6-1.8
			s0.4-0.9,0.4-1.4c0-0.5-0.2-0.8-0.5-1.1c-0.3-0.3-0.7-0.4-1.3-0.4c-0.4,0-0.8,0.1-1.2,0.2c-0.4,0.1-0.9,0.3-1.3,0.6h-0.1v-1.3
			c0.3-0.1,0.7-0.3,1.2-0.4s0.9-0.2,1.4-0.2c0.9,0,1.7,0.2,2.2,0.7c0.5,0.4,0.8,1.1,0.8,1.8c0,0.3,0,0.7-0.1,1s-0.2,0.6-0.4,0.9
			c-0.2,0.3-0.3,0.5-0.6,0.7c-0.2,0.2-0.5,0.5-0.8,0.8c-0.4,0.4-0.9,0.8-1.3,1.2c-0.5,0.4-0.9,0.8-1.3,1.1h4.9V38.4z"/>
		<path class="st5" d="M366.9,38.4H362v-0.9h1.9v-6.1H362v-0.8c0.3,0,0.5,0,0.8-0.1s0.5-0.1,0.7-0.2c0.2-0.1,0.3-0.2,0.4-0.4
			c0.1-0.2,0.2-0.4,0.2-0.6h0.9v8.2h1.9V38.4z"/>
		<path class="st5" d="M371.4,38.4h-1.5v-1.7h1.5V38.4z"/>
		<path class="st5" d="M380.1,35.5c0,0.4-0.1,0.8-0.2,1.2c-0.2,0.4-0.4,0.7-0.6,1c-0.3,0.3-0.6,0.5-1,0.7c-0.4,0.2-0.9,0.2-1.4,0.2
			c-0.5,0-1-0.1-1.4-0.2c-0.5-0.1-0.8-0.2-1.2-0.4v-1.3h0.1c0.3,0.2,0.7,0.4,1.2,0.5c0.4,0.1,0.9,0.2,1.3,0.2c0.3,0,0.6,0,0.8-0.1
			c0.3-0.1,0.5-0.2,0.7-0.4c0.2-0.2,0.3-0.4,0.4-0.6s0.1-0.5,0.1-0.8c0-0.3-0.1-0.6-0.2-0.8c-0.1-0.2-0.3-0.4-0.4-0.5
			c-0.2-0.2-0.5-0.3-0.8-0.3c-0.3-0.1-0.6-0.1-1-0.1c-0.4,0-0.7,0-1,0.1c-0.3,0-0.6,0.1-0.9,0.1v-4.7h5.5v1.1h-4.3v2.4
			c0.2,0,0.4,0,0.5,0s0.3,0,0.5,0c0.5,0,0.9,0,1.3,0.1c0.4,0.1,0.7,0.2,1,0.4c0.3,0.2,0.6,0.5,0.8,0.9C380,34.6,380.1,35,380.1,35.5
			z"/>
		<path class="st5" d="M388.3,30.7l-4.1,7.7h-1.3l4.4-8h-5.2v-1.1h6.2V30.7z"/>
		<path class="st5" d="M394.6,31.9c0,0.9-0.2,1.6-0.6,2c-0.4,0.4-0.9,0.7-1.7,0.7c-0.7,0-1.3-0.2-1.7-0.7c-0.4-0.4-0.6-1.1-0.6-2
			c0-0.9,0.2-1.6,0.6-2s0.9-0.7,1.7-0.7c0.7,0,1.3,0.2,1.7,0.7C394.4,30.3,394.6,31,394.6,31.9z M393.5,31.9c0-0.7-0.1-1.2-0.3-1.5
			c-0.2-0.3-0.5-0.4-0.9-0.4c-0.4,0-0.7,0.1-0.9,0.4c-0.2,0.3-0.3,0.8-0.3,1.5c0,0.7,0.1,1.2,0.3,1.5c0.2,0.3,0.5,0.4,0.9,0.4
			c0.4,0,0.7-0.1,0.9-0.4C393.4,33.1,393.5,32.6,393.5,31.9z M398.8,29.3l-4.8,9.1h-1l4.8-9.1H398.8z M401.7,35.9
			c0,0.9-0.2,1.6-0.6,2s-0.9,0.7-1.7,0.7c-0.7,0-1.3-0.2-1.7-0.7c-0.4-0.4-0.6-1.1-0.6-2c0-0.9,0.2-1.6,0.6-2
			c0.4-0.4,0.9-0.7,1.7-0.7c0.7,0,1.3,0.2,1.7,0.7C401.6,34.3,401.7,35,401.7,35.9z M400.7,35.9c0-0.7-0.1-1.2-0.3-1.5
			c-0.2-0.3-0.5-0.4-0.9-0.4c-0.4,0-0.7,0.1-0.9,0.4c-0.2,0.3-0.3,0.8-0.3,1.5s0.1,1.2,0.3,1.5c0.2,0.3,0.5,0.4,0.9,0.4
			c0.4,0,0.7-0.1,0.9-0.4S400.7,36.6,400.7,35.9z"/>
	</g>
	<g>
		<path class="st5" d="M358.6,56.1c0.2,0.2,0.4,0.4,0.5,0.7s0.2,0.6,0.2,1c0,0.4-0.1,0.8-0.2,1.1c-0.2,0.3-0.4,0.6-0.6,0.9
			c-0.3,0.3-0.7,0.5-1.1,0.6c-0.4,0.1-0.9,0.2-1.4,0.2c-0.5,0-1-0.1-1.5-0.2c-0.5-0.1-0.9-0.3-1.2-0.4v-1.3h0.1
			c0.3,0.2,0.8,0.4,1.2,0.6c0.5,0.2,0.9,0.2,1.4,0.2c0.3,0,0.5,0,0.8-0.1c0.3-0.1,0.5-0.2,0.7-0.4c0.2-0.2,0.3-0.4,0.4-0.6
			c0.1-0.2,0.1-0.5,0.1-0.8c0-0.3-0.1-0.6-0.2-0.8c-0.1-0.2-0.2-0.4-0.4-0.5c-0.2-0.1-0.4-0.2-0.7-0.3c-0.3,0-0.5-0.1-0.8-0.1h-0.5
			v-1h0.4c0.6,0,1.1-0.1,1.5-0.4c0.4-0.3,0.6-0.6,0.6-1.1c0-0.2,0-0.4-0.1-0.6c-0.1-0.2-0.2-0.3-0.4-0.4c-0.2-0.1-0.4-0.2-0.6-0.2
			c-0.2,0-0.4-0.1-0.7-0.1c-0.4,0-0.8,0.1-1.2,0.2c-0.4,0.1-0.8,0.3-1.2,0.6h-0.1v-1.3c0.3-0.1,0.7-0.3,1.2-0.4
			c0.5-0.1,0.9-0.2,1.4-0.2c0.4,0,0.8,0,1.2,0.1s0.6,0.2,0.9,0.4c0.3,0.2,0.5,0.4,0.7,0.7s0.2,0.6,0.2,1c0,0.5-0.2,0.9-0.5,1.3
			c-0.4,0.4-0.8,0.6-1.3,0.7v0.1c0.2,0,0.4,0.1,0.7,0.2C358.2,55.8,358.4,56,358.6,56.1z"/>
		<path class="st5" d="M367.4,55.9c0,1.6-0.3,2.8-0.8,3.6s-1.3,1.1-2.4,1.1c-1.1,0-1.9-0.4-2.4-1.2c-0.5-0.8-0.8-2-0.8-3.6
			c0-1.6,0.3-2.8,0.8-3.6c0.5-0.8,1.3-1.2,2.4-1.2c1.1,0,1.9,0.4,2.4,1.2C367.2,53.2,367.4,54.4,367.4,55.9z M365.8,58.7
			c0.1-0.3,0.2-0.7,0.3-1.2c0.1-0.4,0.1-1,0.1-1.6c0-0.6,0-1.2-0.1-1.6c-0.1-0.5-0.1-0.8-0.3-1.2c-0.1-0.3-0.3-0.5-0.6-0.7
			c-0.2-0.2-0.6-0.2-0.9-0.2c-0.4,0-0.7,0.1-0.9,0.2c-0.2,0.2-0.4,0.4-0.6,0.7c-0.1,0.3-0.2,0.7-0.3,1.2s-0.1,1-0.1,1.6
			c0,0.6,0,1.2,0.1,1.6c0,0.4,0.1,0.8,0.3,1.1c0.1,0.3,0.3,0.6,0.6,0.7s0.6,0.2,1,0.2c0.4,0,0.7-0.1,1-0.2
			C365.5,59.3,365.7,59,365.8,58.7z"/>
		<path class="st5" d="M373.8,53.9c0,0.9-0.2,1.6-0.6,2c-0.4,0.4-0.9,0.7-1.7,0.7c-0.7,0-1.3-0.2-1.7-0.7c-0.4-0.4-0.6-1.1-0.6-2
			c0-0.9,0.2-1.6,0.6-2s0.9-0.7,1.7-0.7c0.7,0,1.3,0.2,1.7,0.7C373.6,52.3,373.8,53,373.8,53.9z M372.7,53.9c0-0.7-0.1-1.2-0.3-1.5
			c-0.2-0.3-0.5-0.4-0.9-0.4c-0.4,0-0.7,0.1-0.9,0.4c-0.2,0.3-0.3,0.8-0.3,1.5s0.1,1.2,0.3,1.5c0.2,0.3,0.5,0.4,0.9,0.4
			c0.4,0,0.7-0.1,0.9-0.4C372.6,55.1,372.7,54.6,372.7,53.9z M378,51.4l-4.8,9.1h-1l4.8-9.1H378z M380.9,58c0,0.9-0.2,1.6-0.6,2
			s-0.9,0.7-1.7,0.7c-0.7,0-1.3-0.2-1.7-0.7c-0.4-0.4-0.6-1.1-0.6-2c0-0.9,0.2-1.6,0.6-2c0.4-0.4,0.9-0.7,1.7-0.7
			c0.7,0,1.3,0.2,1.7,0.7C380.7,56.4,380.9,57.1,380.9,58z M379.8,58c0-0.7-0.1-1.2-0.3-1.5c-0.2-0.3-0.5-0.4-0.9-0.4
			c-0.4,0-0.7,0.1-0.9,0.4c-0.2,0.3-0.3,0.8-0.3,1.5s0.1,1.2,0.3,1.5c0.2,0.3,0.5,0.4,0.9,0.4c0.4,0,0.7-0.1,0.9-0.4
			S379.8,58.7,379.8,58z"/>
	</g>
	<g>
		<path class="st5" d="M360.7,80.9h-6.1v-1.6h1.9v-4.8h-1.9V73c0.3,0,0.6,0,0.8-0.1c0.3,0,0.5-0.1,0.7-0.2c0.2-0.1,0.4-0.2,0.5-0.4
			c0.1-0.2,0.2-0.4,0.2-0.6h2v7.5h1.9V80.9z"/>
		<path class="st5" d="M370.1,75.9c0,0.8-0.1,1.5-0.3,2.1s-0.5,1.2-0.9,1.7c-0.4,0.5-1,0.8-1.6,1.1s-1.4,0.4-2.2,0.4
			c-0.3,0-0.6,0-1-0.1c-0.4,0-0.6-0.1-0.7-0.1v-1.8h0.2c0.1,0.1,0.3,0.1,0.5,0.2c0.2,0.1,0.5,0.1,0.9,0.1c0.3,0,0.6,0,0.9-0.1
			c0.3-0.1,0.6-0.2,0.8-0.4c0.2-0.2,0.4-0.4,0.6-0.7c0.2-0.3,0.3-0.6,0.3-1c-0.4,0.2-0.7,0.4-1,0.5c-0.3,0.1-0.7,0.2-1.1,0.2
			c-0.3,0-0.7,0-1-0.1c-0.3-0.1-0.6-0.2-0.9-0.4c-0.3-0.2-0.6-0.6-0.8-1c-0.2-0.4-0.3-0.9-0.3-1.5c0-1,0.3-1.8,1-2.4
			c0.7-0.6,1.6-0.9,2.7-0.9c0.6,0,1.1,0.1,1.5,0.2s0.8,0.4,1.1,0.7c0.4,0.3,0.6,0.8,0.8,1.3C370,74.4,370.1,75.1,370.1,75.9z
			 M367.8,75.5c0-0.5,0-0.9-0.1-1.2s-0.2-0.6-0.4-0.7c-0.1-0.1-0.3-0.2-0.4-0.3s-0.3-0.1-0.5-0.1c-0.2,0-0.3,0-0.5,0.1
			c-0.1,0.1-0.3,0.1-0.4,0.3c-0.1,0.1-0.2,0.3-0.3,0.5c-0.1,0.2-0.1,0.5-0.1,0.8c0,0.3,0,0.5,0.1,0.7c0.1,0.2,0.2,0.3,0.4,0.5
			c0.1,0.1,0.3,0.2,0.5,0.2s0.4,0.1,0.6,0.1c0.2,0,0.4,0,0.6-0.1c0.2,0,0.4-0.1,0.5-0.1c0,0,0-0.1,0-0.2
			C367.8,75.8,367.8,75.7,367.8,75.5z"/>
		<path class="st5" d="M374.5,80.9h-2.3v-2.4h2.3V80.9z"/>
		<path class="st5" d="M384,80.9h-7.1v-1.5c0.5-0.4,1.1-0.8,1.6-1.3c0.5-0.4,1-0.8,1.3-1.1c0.5-0.5,0.8-0.9,1-1.2
			c0.2-0.4,0.3-0.7,0.3-1c0-0.4-0.1-0.7-0.4-1c-0.3-0.2-0.7-0.3-1.2-0.3c-0.4,0-0.8,0.1-1.2,0.2c-0.4,0.2-0.8,0.4-1.2,0.6h-0.2v-2
			c0.3-0.1,0.7-0.3,1.3-0.4s1.1-0.2,1.7-0.2c1.1,0,2,0.2,2.6,0.7c0.6,0.5,0.9,1.2,0.9,2c0,0.6-0.1,1.1-0.4,1.6
			c-0.3,0.5-0.7,1-1.3,1.6c-0.4,0.3-0.7,0.7-1.1,0.9s-0.6,0.5-0.8,0.6h4.1V80.9z"/>
		<path class="st5" d="M391.1,74.6c0,1-0.2,1.8-0.7,2.3c-0.5,0.5-1.2,0.7-2,0.7c-0.9,0-1.6-0.2-2.1-0.7s-0.7-1.2-0.7-2.2
			c0-1,0.2-1.8,0.7-2.2c0.5-0.5,1.2-0.7,2.1-0.7c0.9,0,1.6,0.2,2.1,0.7C390.9,72.9,391.1,73.6,391.1,74.6z M389.3,74.6
			c0-0.7-0.1-1.1-0.2-1.3s-0.4-0.3-0.7-0.3s-0.6,0.1-0.7,0.3s-0.2,0.7-0.2,1.3s0.1,1.1,0.2,1.3c0.2,0.2,0.4,0.3,0.7,0.3
			s0.6-0.1,0.7-0.3C389.2,75.7,389.3,75.3,389.3,74.6z M395.9,71.8l-4.8,9.1h-1.6l4.8-9.1H395.9z M399.7,78.1c0,1-0.2,1.8-0.7,2.3
			s-1.1,0.7-2,0.7c-0.9,0-1.6-0.2-2.1-0.7c-0.5-0.5-0.7-1.2-0.7-2.2c0-1,0.2-1.8,0.7-2.2c0.5-0.5,1.2-0.7,2.1-0.7
			c0.9,0,1.6,0.2,2.1,0.7S399.7,77.1,399.7,78.1z M397.9,78.1c0-0.7-0.1-1.1-0.2-1.3c-0.2-0.2-0.4-0.3-0.7-0.3s-0.6,0.1-0.7,0.3
			c-0.2,0.2-0.2,0.7-0.2,1.3s0.1,1.1,0.2,1.3s0.4,0.3,0.7,0.3s0.6-0.1,0.7-0.3C397.9,79.2,397.9,78.8,397.9,78.1z"/>
	</g>
	<line class="st6" x1="224.4" y1="35.2" x2="336.9" y2="35.2"/>
	<path class="st7" d="M338.2,35.2L338.2,35.2 M221.9,35.2L221.9,35.2"/>
	<line class="st8" x1="214.7" y1="35.2" x2="218.3" y2="35.2"/>
	<path class="st9" d="M219.4,35.2L219.4,35.2 M212.4,35.2L212.4,35.2"/>
	<g>
		<defs>
			<rect id="SVGID_3_" x="15.7" y="17.3" width="501.2" height="163.4"/>
		</defs>
		<clipPath id="SVGID_4_">
			<use xlink:href="#SVGID_3_"  style="overflow:visible;"/>
		</clipPath>
		<path class="st10" d="M212.4,36.8c0.9,0,1.6-0.7,1.6-1.6c0-0.9-0.7-1.6-1.6-1.6c-0.9,0-1.6,0.7-1.6,1.6
			C210.8,36.1,211.5,36.8,212.4,36.8"/>
	</g>
	<line class="st11" x1="264" y1="54.8" x2="335.9" y2="54.8"/>
	<path class="st7" d="M337.1,54.8L337.1,54.8 M261.5,54.8L261.5,54.8"/>
	<line class="st12" x1="254.9" y1="54.8" x2="258" y2="54.8"/>
	<path class="st9" d="M259,54.8L259,54.8 M252.9,54.8L252.9,54.8"/>
	<g>
		<defs>
			<rect id="SVGID_5_" x="15.7" y="17.3" width="501.2" height="163.4"/>
		</defs>
		<clipPath id="SVGID_6_">
			<use xlink:href="#SVGID_5_"  style="overflow:visible;"/>
		</clipPath>
		<path class="st13" d="M252.9,56.4c0.9,0,1.6-0.7,1.6-1.6c0-0.9-0.7-1.6-1.6-1.6c-0.9,0-1.6,0.7-1.6,1.6
			C251.2,55.7,252,56.4,252.9,56.4"/>
	</g>
	<line class="st14" x1="214" y1="74.4" x2="336.9" y2="74.4"/>
	<path class="st7" d="M338.1,74.4L338.1,74.4 M211.6,74.4L211.6,74.4"/>
	<line class="st15" x1="202.5" y1="74.4" x2="208" y2="74.4"/>
	<path class="st16" d="M209.1,74.4L209.1,74.4 M200.3,74.4L200.3,74.4"/>
	<g>
		<defs>
			<rect id="SVGID_7_" x="15.7" y="17.3" width="501.2" height="163.4"/>
		</defs>
		<clipPath id="SVGID_8_">
			<use xlink:href="#SVGID_7_"  style="overflow:visible;"/>
		</clipPath>
		<path class="st17" d="M200.3,76.1c0.9,0,1.6-0.7,1.6-1.6c0-0.9-0.7-1.6-1.6-1.6c-0.9,0-1.6,0.7-1.6,1.6
			C198.7,75.3,199.4,76.1,200.3,76.1"/>
		<path class="st18" d="M111.7,139h276c4.6,0,8.2-3.5,8.2-7.9v-0.6c0-3.9-3.3-7.1-7.4-7.1H111.7"/>
		<path class="st19" d="M111.7,158.7H303c4.6,0,8.2-3.5,8.2-7.9v-0.6c0-3.9-3.3-7.1-7.4-7.1H111.7"/>
		<path class="st20" d="M111.7,177.5h189.6c4.6,0,8.2-3.5,8.2-7.9v-0.6c0-3.9-3.3-7.1-7.4-7.1H111.7"/>
		<path class="st18" d="M63.3,125.9c0,0.1,0,0.3-0.1,0.5c0,0.2,0,0.4,0,0.5c0,0.1,0,0.5,0,0.7c0,0.3,0,0.6,0,0.7v0.5
			c0,0.1,0,0.3,0,0.5c0,0.1,0,0.4,0,0.5c0,0.2,0,0.5-0.1,0.6c0,0.2-0.1,0.4-0.1,0.6c0,0.2-0.1,0.4-0.1,0.5c0,0.1,0,0.4-0.1,0.6
			c0,0.2-0.1,0.5-0.1,0.7c0,0.2-0.1,0.6-0.1,0.9c0,0.3-0.1,0.8-0.1,1c0,0.2-0.1,0.5-0.1,0.7c0,0.2-0.1,0.4-0.1,0.6
			c0,0.2,0,0.4-0.1,0.5c0,0.1,0,0.3,0,0.4v0.4c0,0.1,0.2,0.2,0.4,0.2c0.2,0,0.6,0,0.9,0c0.2,0,0.7,0,1,0.1c0.3,0,0.8,0.1,1.1,0.2
			c0.3,0.1,0.9,0.2,1.3,0.2c0.4,0.1,0.8,0.1,1,0.2c0.1,0,0.2,0.2,0,0.4c-0.1,0.2-0.3,0.5-0.4,0.6c-0.1,0.1-0.3,0.3-0.4,0.4
			c-0.1,0.1-0.4,0.4-0.7,0.6c-0.3,0.2-0.9,0.6-1.3,0.8c-0.4,0.2-0.9,0.5-1,0.6c-0.2,0.1-0.4,0.2-0.5,0.3c-0.1,0.1-0.3,0.1-0.3,0.2
			c-0.1,0-0.2,0.2-0.3,0.2c-0.1,0.1-0.3,0.3-0.4,0.4c-0.1,0.2-0.3,0.3-0.4,0.4c-0.1,0.1-0.1,0.1-0.1,0.2c0,0.1-0.1,0.1-0.1,0.2
			s0,0.1,0,0.2c0,0.1,0,0.2,0,0.3c0,0.1,0,0.2,0,0.3c0,0.1,0.1,0.2,0.1,0.3c0,0.1,0.1,0.2,0.1,0.2c0,0.1,0,0.2,0.1,0.2
			c0,0.1,0,0.2,0,0.2c0,0,0,0.1,0,0.2c0,0.1,0,0.1-0.1,0.2s-0.1,0.2-0.1,0.2c0,0.1-0.1,0.1-0.2,0.2c-0.1,0-0.3,0.2-0.5,0.4
			s-0.6,0.4-0.9,0.6c-0.2,0.2-0.6,0.4-0.7,0.5s-0.3,0.3-0.4,0.3c-0.1,0.1-0.3,0.3-0.4,0.4c-0.2,0.2-0.4,0.4-0.6,0.6
			c-0.2,0.2-0.4,0.3-0.4,0.4s-0.2,0.2-0.4,0.3c-0.1,0.1-0.4,0.4-0.5,0.5c-0.1,0.1-0.3,0.3-0.4,0.4s-0.1,0.1-0.2,0.2
			c-0.1,0-0.2,0.1-0.2,0.1s-0.2,0-0.3,0s-0.2,0-0.3,0c-0.1,0-0.3,0-0.3-0.1c-0.1,0-0.3-0.1-0.5-0.2c-0.2-0.1-0.4-0.2-0.5-0.2
			c-0.1,0-0.3-0.1-0.4-0.1c-0.1,0-0.2-0.1-0.3-0.1c-0.1,0-0.3,0-0.4-0.1c-0.2,0-0.4-0.1-0.6-0.1c-0.2,0-0.6-0.1-0.9-0.1
			c-0.4-0.1-0.7-0.1-0.8-0.1c-0.1,0-0.3,0-0.5-0.1c-0.2,0-0.5,0-0.8,0c-0.2,0-0.5,0-0.6,0c-0.1,0-0.3,0-0.3,0c-0.1,0-0.2,0-0.2,0
			c-0.1,0-0.2,0-0.3-0.1c-0.1,0-0.3-0.1-0.3-0.1c-0.1,0-0.2,0-0.2-0.1c-0.1,0-0.1-0.1-0.2-0.1s-0.2-0.1-0.2-0.2
			c-0.1-0.1-0.2-0.2-0.3-0.3c-0.1-0.1-0.9-0.8-1.8-1.7c-0.9-0.9-1.7-1.6-1.7-1.6s-0.1-0.1-0.2-0.2c-0.1-0.1,0-0.2,0-0.3
			c0.1-0.1,0.3-0.4,0.4-0.6c0.1-0.2,0.3-0.6,0.4-0.8c0.1-0.2,0.2-0.4,0.2-0.5c0-0.1,0.1-0.3,0.1-0.4c0-0.1,0-0.3,0-0.4
			c0-0.1,0-0.2,0-0.3c0-0.1,0-0.1-0.1-0.2c0,0-0.1-0.2-0.1-0.2c0-0.1-0.1-0.2-0.1-0.3c0-0.1,0-0.2,0-0.2c0-0.1,0-0.2,0.1-0.3
			c0-0.1,0.1-0.3,0.1-0.3c0-0.1,0.1-0.3,0.2-0.4s0.3-0.5,0.6-0.9c0.3-0.4,0.8-1.1,1.2-1.6c0.4-0.5,0.7-1,0.7-1c0,0,0.1-0.1,0.2-0.1
			c0.1,0,0.2-0.1,0.3-0.1c0.1,0,0.3,0,0.4-0.1c0.1,0,1.5,0,3.2-0.1c1.6,0,3,0,3,0c0,0,0.1,0,0.1,0c0,0,0.1,0,0.1,0s0.1,0,0.1-0.1
			c0,0,0.1-0.1,0.2-0.1c0,0,0.1-0.1,0.1-0.1c0,0,0.1-0.1,0.1-0.2c0,0,0.1-0.1,0.1-0.2c0-0.1,0-0.3,0-0.5s0-0.4,0-0.5
			c0-0.1-0.1-0.2-0.1-0.2c0-0.1-0.2-0.2-0.3-0.4c-0.1-0.1-1.2-1.2-2.4-2.4c-1.2-1.2-2.2-2.2-2.2-2.3c-0.1-0.1-0.1-0.2-0.2-0.3
			c-0.1-0.1,0.1-0.2,0.2-0.2c0.2,0,0.5,0,0.6,0s0.4,0,0.4,0c0.1,0,0.2,0,0.4-0.1c0.2,0,0.3-0.1,0.4-0.1c0.1,0,0.2-0.1,0.2-0.1
			c0.1,0,0.2-0.1,0.2-0.2c0.1-0.1,0.1-0.2,0.1-0.4c0-0.2,0-0.4,0-0.5c0-0.1,0-0.4,0-0.5c0-0.2,0.1-0.4,0.1-0.5
			c0-0.1,0.1-0.2,0.1-0.3c0-0.1,0.1-0.1,0.1-0.2c0,0,0.1-0.1,0.1-0.1c0,0,0.1,0,0.2-0.1c0.1,0,0.1,0,0.2,0c0.1,0,1.8,0,3.9,0
			c2.1,0,4.4,0,5.2,0.1C62.7,125.7,63.3,125.8,63.3,125.9"/>
		<line class="st21" x1="22.3" y1="170.6" x2="91.4" y2="170.6"/>
	</g>
	<g>
		<path class="st4" d="M33.1,174.4c-0.8,0.3-1.6,0.5-2.5,0.5c-0.7,0-1.3-0.1-1.8-0.3s-1.1-0.5-1.5-0.9c-0.5-0.4-0.8-0.9-1.1-1.6
			c-0.3-0.7-0.4-1.4-0.4-2.3c0-1.7,0.5-3,1.4-3.9c1-0.9,2.2-1.4,3.7-1.4c0.7,0,1.4,0.1,2.1,0.3v1.7c-0.6-0.3-1.3-0.4-2.1-0.4
			c-2.2,0-3.3,1.2-3.3,3.6c0,1.2,0.3,2.1,0.9,2.7c0.6,0.6,1.3,0.8,2.2,0.8c0.5,0,0.8-0.1,0.8-0.4v-3.1h1.8
			C33.1,170.5,33.1,172.1,33.1,174.4z"/>
		<path class="st4" d="M37.9,173.4c0.7,0,1.1-0.2,1.1-0.6v-5h1.6v6.7c-0.4,0-0.9,0-1.5,0.1c-0.5,0.1-1.1,0.1-1.5,0.1
			c-0.8,0-1.4-0.2-1.9-0.6c-0.5-0.4-0.7-1-0.7-1.9v-4.6h1.6v4.4C36.6,173,37,173.4,37.9,173.4z"/>
		<path class="st4" d="M42.2,172.7c0-0.7,0.3-1.3,0.9-1.8c0.6-0.5,1.5-0.7,2.8-0.8v-0.3c0-0.3-0.1-0.5-0.3-0.7
			c-0.2-0.2-0.4-0.2-0.8-0.2c-0.7,0-1.5,0.2-2.1,0.5V168c0.8-0.2,1.5-0.3,2.3-0.3c1.7,0,2.6,0.8,2.6,2.3c0,0.4,0,0.9,0,1.6
			c0,0.7,0,1.2,0,1.6c0,0.6,0,1.2,0.1,1.6c-0.4,0-0.9,0-1.5,0.1c-0.6,0.1-1,0.1-1.3,0.1c-0.8,0-1.5-0.2-1.9-0.6
			C42.4,173.9,42.2,173.4,42.2,172.7z M45.8,173.1c0-0.2,0.1-0.8,0.1-1.8c-1.3,0-2,0.5-2,1.2c0,0.3,0.1,0.5,0.3,0.6
			c0.2,0.2,0.4,0.2,0.8,0.2C45.4,173.5,45.8,173.4,45.8,173.1z"/>
		<path class="st4" d="M48.7,169.2v-1.4h1v-1.2l1.6-1v2.2h2v1.4h-2c0,0.5,0,1.1,0,1.9c0,0.8,0,1.3,0,1.6c0,0.5,0.3,0.7,0.9,0.7
			c0.4,0,0.8-0.1,1.1-0.3v1.4c-0.5,0.2-1,0.3-1.6,0.3c-0.6,0-1.1-0.2-1.5-0.5c-0.4-0.3-0.6-0.8-0.6-1.4v-3.8H48.7z"/>
		<path class="st4" d="M55.9,171.5v0.2c0,0.6,0.2,1,0.5,1.4c0.4,0.3,0.8,0.5,1.5,0.5c0.6,0,1.2-0.1,1.6-0.3v1.4
			c-0.5,0.2-1.1,0.2-1.8,0.2c-1.1,0-1.9-0.3-2.6-0.9c-0.6-0.6-1-1.5-1-2.8c0-1.1,0.3-2,0.9-2.6c0.6-0.6,1.4-1,2.4-1
			c0.9,0,1.5,0.3,2,0.8c0.4,0.5,0.6,1.3,0.6,2.2c0,0.3,0,0.6-0.1,0.9H55.9z M56.1,170.2h2.1c0.2,0,0.3-0.1,0.3-0.3
			c0-0.3-0.1-0.5-0.3-0.7s-0.4-0.2-0.8-0.2c-0.4,0-0.7,0.1-0.9,0.3C56.3,169.5,56.1,169.8,56.1,170.2z"/>
		<path class="st4" d="M70.6,170.1v4.6H69v-4.4c0-0.4-0.1-0.8-0.3-1c-0.2-0.2-0.4-0.3-0.8-0.3c-0.2,0-0.5,0-0.7,0.1
			c-0.2,0.1-0.3,0.2-0.3,0.4c0,0.3,0,0.5,0,0.6v4.5h-1.6v-4.4c0-0.8-0.3-1.2-1-1.2c-0.7,0-1.1,0.2-1.1,0.6v5h-1.6V168
			c0.5,0,1-0.1,1.6-0.2c0.6-0.1,1-0.2,1.3-0.2c0.7,0,1.3,0.2,1.7,0.5c0.5-0.4,1.2-0.5,2.1-0.5C69.8,167.6,70.6,168.5,70.6,170.1z"/>
		<path class="st4" d="M72.1,172.7c0-0.7,0.3-1.3,0.9-1.8c0.6-0.5,1.5-0.7,2.8-0.8v-0.3c0-0.3-0.1-0.5-0.3-0.7
			c-0.2-0.2-0.4-0.2-0.8-0.2c-0.7,0-1.5,0.2-2.1,0.5V168c0.8-0.2,1.5-0.3,2.3-0.3c1.7,0,2.6,0.8,2.6,2.3c0,0.4,0,0.9,0,1.6
			c0,0.7,0,1.2,0,1.6c0,0.6,0,1.2,0.1,1.6c-0.4,0-0.9,0-1.5,0.1c-0.6,0.1-1,0.1-1.3,0.1c-0.8,0-1.5-0.2-1.9-0.6
			C72.3,173.9,72.1,173.4,72.1,172.7z M75.8,173.1c0-0.2,0.1-0.8,0.1-1.8c-1.3,0-2,0.5-2,1.2c0,0.3,0.1,0.5,0.3,0.6
			c0.2,0.2,0.4,0.2,0.8,0.2C75.4,173.5,75.7,173.4,75.8,173.1z"/>
		<path class="st4" d="M79.4,163.8H81c0,0.4,0,1.2,0,2.5s0,2.2,0,3v5.4h-1.6V163.8z"/>
		<path class="st4" d="M82.6,172.7c0-0.7,0.3-1.3,0.9-1.8c0.6-0.5,1.5-0.7,2.8-0.8v-0.3c0-0.3-0.1-0.5-0.3-0.7
			c-0.2-0.2-0.4-0.2-0.8-0.2c-0.7,0-1.5,0.2-2.1,0.5V168c0.8-0.2,1.5-0.3,2.3-0.3c1.7,0,2.6,0.8,2.6,2.3c0,0.4,0,0.9,0,1.6
			c0,0.7,0,1.2,0,1.6c0,0.6,0,1.2,0.1,1.6c-0.4,0-0.9,0-1.5,0.1c-0.6,0.1-1,0.1-1.3,0.1c-0.8,0-1.5-0.2-1.9-0.6
			C82.8,173.9,82.6,173.4,82.6,172.7z M86.2,173.1c0-0.2,0.1-0.8,0.1-1.8c-1.3,0-2,0.5-2,1.2c0,0.3,0.1,0.5,0.3,0.6
			c0.2,0.2,0.4,0.2,0.8,0.2C85.8,173.5,86.1,173.4,86.2,173.1z"/>
	</g>
	<g>
		<defs>
			<rect id="SVGID_9_" x="15.7" y="17.3" width="501.2" height="163.4"/>
		</defs>
		<clipPath id="SVGID_10_">
			<use xlink:href="#SVGID_9_"  style="overflow:visible;"/>
		</clipPath>
		<g class="st22">
			<path class="st5" d="M473.6,133c0,0.4-0.1,0.8-0.2,1.2c-0.2,0.4-0.4,0.7-0.6,1c-0.3,0.3-0.6,0.5-1,0.7c-0.4,0.2-0.9,0.2-1.4,0.2
				c-0.5,0-1-0.1-1.4-0.2c-0.5-0.1-0.8-0.2-1.2-0.4v-1.3h0.1c0.3,0.2,0.7,0.4,1.2,0.5c0.4,0.1,0.9,0.2,1.3,0.2c0.3,0,0.6,0,0.8-0.1
				c0.3-0.1,0.5-0.2,0.7-0.4c0.2-0.2,0.3-0.4,0.4-0.6s0.1-0.5,0.1-0.8c0-0.3-0.1-0.6-0.2-0.8c-0.1-0.2-0.3-0.4-0.4-0.5
				c-0.2-0.2-0.5-0.3-0.8-0.3c-0.3-0.1-0.6-0.1-1-0.1c-0.4,0-0.7,0-1,0.1c-0.3,0-0.6,0.1-0.9,0.1v-4.7h5.5v1.1h-4.3v2.4
				c0.2,0,0.4,0,0.5,0s0.3,0,0.5,0c0.5,0,0.9,0,1.3,0.1c0.4,0.1,0.7,0.2,1,0.4c0.3,0.2,0.6,0.5,0.8,0.9
				C473.5,132,473.6,132.4,473.6,133z"/>
			<path class="st5" d="M481.8,128.1l-4.1,7.7h-1.3l4.4-8h-5.2v-1.1h6.2V128.1z"/>
			<path class="st5" d="M485.7,135.8h-1.5v-1.7h1.5V135.8z"/>
			<path class="st5" d="M494.5,131.3c0,1.6-0.3,2.8-0.8,3.6s-1.3,1.1-2.4,1.1c-1.1,0-1.9-0.4-2.4-1.2c-0.5-0.8-0.8-2-0.8-3.6
				c0-1.6,0.3-2.8,0.8-3.6c0.5-0.8,1.3-1.2,2.4-1.2c1.1,0,1.9,0.4,2.4,1.2C494.2,128.5,494.5,129.7,494.5,131.3z M492.9,134.1
				c0.1-0.3,0.2-0.7,0.3-1.2c0.1-0.4,0.1-1,0.1-1.6c0-0.6,0-1.2-0.1-1.6c-0.1-0.5-0.1-0.8-0.3-1.2c-0.1-0.3-0.3-0.5-0.6-0.7
				c-0.2-0.2-0.6-0.2-0.9-0.2c-0.4,0-0.7,0.1-0.9,0.2c-0.2,0.2-0.4,0.4-0.6,0.7c-0.1,0.3-0.2,0.7-0.3,1.2s-0.1,1-0.1,1.6
				c0,0.6,0,1.2,0.1,1.6c0,0.4,0.1,0.8,0.3,1.1c0.1,0.3,0.3,0.6,0.6,0.7s0.6,0.2,1,0.2c0.4,0,0.7-0.1,1-0.2
				C492.5,134.6,492.7,134.4,492.9,134.1z"/>
			<path class="st5" d="M502.1,135.8h-4.9v-0.9h1.9v-6.1h-1.9V128c0.3,0,0.5,0,0.8-0.1s0.5-0.1,0.7-0.2c0.2-0.1,0.3-0.2,0.4-0.4
				c0.1-0.2,0.2-0.4,0.2-0.6h0.9v8.2h1.9V135.8z"/>
			<path class="st5" d="M508.9,129.3c0,0.9-0.2,1.6-0.6,2c-0.4,0.4-0.9,0.7-1.7,0.7c-0.7,0-1.3-0.2-1.7-0.7c-0.4-0.4-0.6-1.1-0.6-2
				c0-0.9,0.2-1.6,0.6-2s0.9-0.7,1.7-0.7c0.7,0,1.3,0.2,1.7,0.7C508.7,127.7,508.9,128.4,508.9,129.3z M507.8,129.3
				c0-0.7-0.1-1.2-0.3-1.5c-0.2-0.3-0.5-0.4-0.9-0.4c-0.4,0-0.7,0.1-0.9,0.4c-0.2,0.3-0.3,0.8-0.3,1.5s0.1,1.2,0.3,1.5
				c0.2,0.3,0.5,0.4,0.9,0.4c0.4,0,0.7-0.1,0.9-0.4C507.7,130.5,507.8,130,507.8,129.3z M513.1,126.8l-4.8,9.1h-1l4.8-9.1H513.1z
				 M516.1,133.3c0,0.9-0.2,1.6-0.6,2s-0.9,0.7-1.7,0.7c-0.7,0-1.3-0.2-1.7-0.7c-0.4-0.4-0.6-1.1-0.6-2c0-0.9,0.2-1.6,0.6-2
				c0.4-0.4,0.9-0.7,1.7-0.7c0.7,0,1.3,0.2,1.7,0.7C515.9,131.7,516.1,132.4,516.1,133.3z M515,133.3c0-0.7-0.1-1.2-0.3-1.5
				c-0.2-0.3-0.5-0.4-0.9-0.4c-0.4,0-0.7,0.1-0.9,0.4c-0.2,0.3-0.3,0.8-0.3,1.5s0.1,1.2,0.3,1.5c0.2,0.3,0.5,0.4,0.9,0.4
				c0.4,0,0.7-0.1,0.9-0.4S515,134,515,133.3z"/>
		</g>
	</g>
	<g>
		<path class="st5" d="M473.9,155.3h-1.3v2.6h-1.2v-2.6H467v-1.4l4.4-5.1h1.1v5.6h1.3V155.3z M471.4,154.4v-4.1l-3.5,4.1H471.4z"/>
		<path class="st5" d="M481.7,153.4c0,1.6-0.3,2.8-0.8,3.6s-1.3,1.1-2.4,1.1c-1.1,0-1.9-0.4-2.4-1.2c-0.5-0.8-0.8-2-0.8-3.6
			c0-1.6,0.3-2.8,0.8-3.6c0.5-0.8,1.3-1.2,2.4-1.2c1.1,0,1.9,0.4,2.4,1.2C481.5,150.6,481.7,151.8,481.7,153.4z M480.1,156.1
			c0.1-0.3,0.2-0.7,0.3-1.2c0.1-0.4,0.1-1,0.1-1.6c0-0.6,0-1.2-0.1-1.6c-0.1-0.5-0.1-0.8-0.3-1.2c-0.1-0.3-0.3-0.5-0.6-0.7
			c-0.2-0.2-0.6-0.2-0.9-0.2c-0.4,0-0.7,0.1-0.9,0.2c-0.2,0.2-0.4,0.4-0.6,0.7c-0.1,0.3-0.2,0.7-0.3,1.2s-0.1,1-0.1,1.6
			c0,0.6,0,1.2,0.1,1.6c0,0.4,0.1,0.8,0.3,1.1c0.1,0.3,0.3,0.6,0.6,0.7s0.6,0.2,1,0.2c0.4,0,0.7-0.1,1-0.2
			C479.8,156.7,480,156.5,480.1,156.1z"/>
		<path class="st5" d="M485.7,157.9h-1.5v-1.7h1.5V157.9z"/>
		<path class="st5" d="M494.5,153.4c0,1.6-0.3,2.8-0.8,3.6s-1.3,1.1-2.4,1.1c-1.1,0-1.9-0.4-2.4-1.2c-0.5-0.8-0.8-2-0.8-3.6
			c0-1.6,0.3-2.8,0.8-3.6c0.5-0.8,1.3-1.2,2.4-1.2c1.1,0,1.9,0.4,2.4,1.2C494.2,150.6,494.5,151.8,494.5,153.4z M492.9,156.1
			c0.1-0.3,0.2-0.7,0.3-1.2c0.1-0.4,0.1-1,0.1-1.6c0-0.6,0-1.2-0.1-1.6c-0.1-0.5-0.1-0.8-0.3-1.2c-0.1-0.3-0.3-0.5-0.6-0.7
			c-0.2-0.2-0.6-0.2-0.9-0.2c-0.4,0-0.7,0.1-0.9,0.2c-0.2,0.2-0.4,0.4-0.6,0.7c-0.1,0.3-0.2,0.7-0.3,1.2s-0.1,1-0.1,1.6
			c0,0.6,0,1.2,0.1,1.6c0,0.4,0.1,0.8,0.3,1.1c0.1,0.3,0.3,0.6,0.6,0.7s0.6,0.2,1,0.2c0.4,0,0.7-0.1,1-0.2
			C492.5,156.7,492.7,156.5,492.9,156.1z"/>
		<path class="st5" d="M500.8,151.3c0,0.9-0.2,1.6-0.6,2c-0.4,0.4-0.9,0.7-1.7,0.7c-0.7,0-1.3-0.2-1.7-0.7c-0.4-0.4-0.6-1.1-0.6-2
			c0-0.9,0.2-1.6,0.6-2s0.9-0.7,1.7-0.7c0.7,0,1.3,0.2,1.7,0.7C500.6,149.8,500.8,150.4,500.8,151.3z M499.7,151.3
			c0-0.7-0.1-1.2-0.3-1.5c-0.2-0.3-0.5-0.4-0.9-0.4c-0.4,0-0.7,0.1-0.9,0.4c-0.2,0.3-0.3,0.8-0.3,1.5s0.1,1.2,0.3,1.5
			c0.2,0.3,0.5,0.4,0.9,0.4c0.4,0,0.7-0.1,0.9-0.4C499.7,152.5,499.7,152,499.7,151.3z M505.1,148.8l-4.8,9.1h-1l4.8-9.1H505.1z
			 M508,155.4c0,0.9-0.2,1.6-0.6,2s-0.9,0.7-1.7,0.7c-0.7,0-1.3-0.2-1.7-0.7c-0.4-0.4-0.6-1.1-0.6-2c0-0.9,0.2-1.6,0.6-2
			c0.4-0.4,0.9-0.7,1.7-0.7c0.7,0,1.3,0.2,1.7,0.7C507.8,153.8,508,154.5,508,155.4z M506.9,155.4c0-0.7-0.1-1.2-0.3-1.5
			c-0.2-0.3-0.5-0.4-0.9-0.4c-0.4,0-0.7,0.1-0.9,0.4c-0.2,0.3-0.3,0.8-0.3,1.5s0.1,1.2,0.3,1.5c0.2,0.3,0.5,0.4,0.9,0.4
			c0.4,0,0.7-0.1,0.9-0.4S506.9,156.1,506.9,155.4z"/>
	</g>
	<g>
		<defs>
			<rect id="SVGID_11_" x="15.7" y="17.3" width="501.2" height="163.4"/>
		</defs>
		<clipPath id="SVGID_12_">
			<use xlink:href="#SVGID_11_"  style="overflow:visible;"/>
		</clipPath>
		<g class="st23">
			<path class="st5" d="M474.7,174.1c0.2,0.2,0.4,0.4,0.5,0.6c0.1,0.2,0.2,0.5,0.2,0.9c0,0.4-0.1,0.8-0.3,1.2s-0.4,0.7-0.8,1
				c-0.3,0.3-0.7,0.5-1.2,0.6c-0.5,0.1-1,0.2-1.7,0.2c-0.8,0-1.4-0.1-1.9-0.2c-0.5-0.1-1-0.2-1.3-0.4v-2h0.2
				c0.3,0.2,0.8,0.4,1.3,0.5s0.9,0.2,1.3,0.2c0.2,0,0.5,0,0.8-0.1c0.3,0,0.5-0.1,0.7-0.3c0.2-0.1,0.3-0.2,0.4-0.4
				c0.1-0.1,0.1-0.4,0.1-0.6c0-0.3-0.1-0.5-0.2-0.6s-0.3-0.2-0.5-0.3c-0.2-0.1-0.4-0.1-0.7-0.1c-0.3,0-0.5,0-0.8,0h-0.5v-1.6h0.5
				c0.3,0,0.6,0,0.8,0s0.5-0.1,0.6-0.1c0.2-0.1,0.3-0.2,0.4-0.3c0.1-0.1,0.1-0.3,0.1-0.6c0-0.2,0-0.3-0.1-0.4
				c-0.1-0.1-0.2-0.2-0.4-0.3c-0.2-0.1-0.3-0.1-0.6-0.1s-0.4,0-0.6,0c-0.4,0-0.8,0.1-1.2,0.2c-0.4,0.1-0.9,0.3-1.3,0.6h-0.2v-2
				c0.3-0.1,0.8-0.3,1.4-0.4c0.6-0.1,1.2-0.2,1.7-0.2c0.6,0,1.1,0,1.5,0.1c0.4,0.1,0.8,0.2,1.1,0.4c0.3,0.2,0.6,0.4,0.7,0.7
				c0.2,0.3,0.2,0.6,0.2,1c0,0.5-0.2,1-0.5,1.4c-0.3,0.4-0.7,0.6-1.2,0.8v0.1c0.2,0,0.4,0.1,0.7,0.2
				C474.3,173.8,474.5,173.9,474.7,174.1z"/>
			<path class="st5" d="M484.4,173.3c0,0.8-0.1,1.5-0.3,2.1s-0.5,1.2-0.9,1.7c-0.4,0.5-1,0.8-1.6,1.1s-1.4,0.4-2.2,0.4
				c-0.3,0-0.6,0-1-0.1c-0.4,0-0.6-0.1-0.7-0.1v-1.8h0.2c0.1,0.1,0.3,0.1,0.5,0.2c0.2,0.1,0.5,0.1,0.9,0.1c0.3,0,0.6,0,0.9-0.1
				c0.3-0.1,0.6-0.2,0.8-0.4c0.2-0.2,0.4-0.4,0.6-0.7c0.2-0.3,0.3-0.6,0.3-1c-0.4,0.2-0.7,0.4-1,0.5c-0.3,0.1-0.7,0.2-1.1,0.2
				c-0.3,0-0.7,0-1-0.1c-0.3-0.1-0.6-0.2-0.9-0.4c-0.3-0.2-0.6-0.6-0.8-1c-0.2-0.4-0.3-0.9-0.3-1.5c0-1,0.3-1.8,1-2.4
				c0.7-0.6,1.6-0.9,2.7-0.9c0.6,0,1.1,0.1,1.5,0.2s0.8,0.4,1.1,0.7c0.4,0.3,0.6,0.8,0.8,1.3C484.4,171.9,484.4,172.5,484.4,173.3z
				 M482.1,172.9c0-0.5,0-0.9-0.1-1.2s-0.2-0.6-0.4-0.7c-0.1-0.1-0.3-0.2-0.4-0.3s-0.3-0.1-0.5-0.1c-0.2,0-0.3,0-0.5,0.1
				c-0.1,0.1-0.3,0.1-0.4,0.3c-0.1,0.1-0.2,0.3-0.3,0.5c-0.1,0.2-0.1,0.5-0.1,0.8c0,0.3,0,0.5,0.1,0.7c0.1,0.2,0.2,0.3,0.4,0.5
				c0.1,0.1,0.3,0.2,0.5,0.2s0.4,0.1,0.6,0.1c0.2,0,0.4,0,0.6-0.1c0.2,0,0.4-0.1,0.5-0.1c0,0,0-0.1,0-0.2
				C482.1,173.2,482.1,173.1,482.1,172.9z"/>
			<path class="st5" d="M488.8,178.3h-2.3v-2.4h2.3V178.3z"/>
			<path class="st5" d="M498.1,175.3c0,0.5-0.1,0.9-0.3,1.3c-0.2,0.4-0.4,0.8-0.8,1c-0.4,0.3-0.8,0.5-1.3,0.7s-1,0.2-1.7,0.2
				c-0.7,0-1.3-0.1-1.8-0.2c-0.5-0.1-0.9-0.2-1.2-0.4v-2h0.3c0.4,0.2,0.8,0.4,1.2,0.5c0.4,0.1,0.9,0.2,1.3,0.2c0.3,0,0.5,0,0.8-0.1
				s0.5-0.2,0.7-0.3c0.1-0.1,0.2-0.3,0.3-0.4s0.1-0.3,0.1-0.6c0-0.2,0-0.4-0.1-0.5s-0.2-0.3-0.4-0.4c-0.2-0.1-0.5-0.2-0.8-0.3
				c-0.3,0-0.6-0.1-0.8-0.1c-0.4,0-0.7,0-1.1,0.1c-0.3,0.1-0.6,0.1-0.9,0.2h-0.3v-5.1h6.5v1.7h-4.3v1.5c0.1,0,0.3,0,0.5,0
				s0.4,0,0.5,0c0.5,0,0.9,0,1.3,0.1c0.4,0.1,0.7,0.2,1,0.4c0.4,0.2,0.7,0.5,0.9,0.9C498,174.3,498.1,174.7,498.1,175.3z"/>
			<path class="st5" d="M505.4,172c0,1-0.2,1.8-0.7,2.3c-0.5,0.5-1.2,0.7-2,0.7c-0.9,0-1.6-0.2-2.1-0.7s-0.7-1.2-0.7-2.2
				c0-1,0.2-1.8,0.7-2.2c0.5-0.5,1.2-0.7,2.1-0.7c0.9,0,1.6,0.2,2.1,0.7C505.2,170.3,505.4,171,505.4,172z M503.6,172
				c0-0.7-0.1-1.1-0.2-1.3s-0.4-0.3-0.7-0.3s-0.6,0.1-0.7,0.3s-0.2,0.7-0.2,1.3s0.1,1.1,0.2,1.3c0.2,0.2,0.4,0.3,0.7,0.3
				s0.6-0.1,0.7-0.3C503.6,173.1,503.6,172.7,503.6,172z M510.2,169.3l-4.8,9.1h-1.6l4.8-9.1H510.2z M514.1,175.6
				c0,1-0.2,1.8-0.7,2.3s-1.1,0.7-2,0.7c-0.9,0-1.6-0.2-2.1-0.7c-0.5-0.5-0.7-1.2-0.7-2.2c0-1,0.2-1.8,0.7-2.2
				c0.5-0.5,1.2-0.7,2.1-0.7c0.9,0,1.6,0.2,2.1,0.7S514.1,174.6,514.1,175.6z M512.3,175.6c0-0.7-0.1-1.1-0.2-1.3
				c-0.2-0.2-0.4-0.3-0.7-0.3s-0.6,0.1-0.7,0.3c-0.2,0.2-0.2,0.7-0.2,1.3s0.1,1.1,0.2,1.3s0.4,0.3,0.7,0.3s0.6-0.1,0.7-0.3
				C512.2,176.7,512.3,176.2,512.3,175.6z"/>
		</g>
	</g>
	<line class="st24" x1="399.3" y1="132.6" x2="451.3" y2="132.6"/>
	<path class="st7" d="M452.5,132.6L452.5,132.6 M396.9,132.6L396.9,132.6"/>
	<line class="st25" x1="388.9" y1="132.6" x2="392.9" y2="132.6"/>
	<path class="st9" d="M394.2,132.6L394.2,132.6 M386.3,132.6L386.3,132.6"/>
	<g>
		<defs>
			<rect id="SVGID_13_" x="15.7" y="17.3" width="501.2" height="163.4"/>
		</defs>
		<clipPath id="SVGID_14_">
			<use xlink:href="#SVGID_13_"  style="overflow:visible;"/>
		</clipPath>
		<path class="st26" d="M386.3,134.2c0.9,0,1.6-0.7,1.6-1.6c0-0.9-0.7-1.6-1.6-1.6c-0.9,0-1.6,0.7-1.6,1.6
			C384.7,133.5,385.4,134.2,386.3,134.2"/>
	</g>
	<line class="st27" x1="314.1" y1="152.2" x2="451.3" y2="152.2"/>
	<path class="st7" d="M452.5,152.2L452.5,152.2 M311.7,152.2L311.7,152.2"/>
	<line class="st28" x1="304.4" y1="152.2" x2="307.9" y2="152.2"/>
	<path class="st9" d="M309,152.2L309,152.2 M302,152.2L302,152.2"/>
	<g>
		<defs>
			<rect id="SVGID_15_" x="15.7" y="17.3" width="501.2" height="163.4"/>
		</defs>
		<clipPath id="SVGID_16_">
			<use xlink:href="#SVGID_15_"  style="overflow:visible;"/>
		</clipPath>
		<path class="st29" d="M302,153.9c0.9,0,1.6-0.7,1.6-1.6c0-0.9-0.7-1.6-1.6-1.6c-0.9,0-1.6,0.7-1.6,1.6
			C300.4,153.1,301.1,153.9,302,153.9"/>
	</g>
	<line class="st30" x1="315.8" y1="171.9" x2="450.3" y2="171.9"/>
	<path class="st7" d="M451.5,171.9L451.5,171.9 M313.4,171.9L313.4,171.9"/>
	<line class="st31" x1="303.4" y1="171.9" x2="309.5" y2="171.9"/>
	<path class="st16" d="M310.8,171.9L310.8,171.9 M300.9,171.9L300.9,171.9"/>
	<g>
		<defs>
			<rect id="SVGID_17_" x="15.7" y="17.3" width="501.2" height="163.4"/>
		</defs>
		<clipPath id="SVGID_18_">
			<use xlink:href="#SVGID_17_"  style="overflow:visible;"/>
		</clipPath>
		<path class="st32" d="M300.9,173.5c0.9,0,1.6-0.7,1.6-1.6c0-0.9-0.7-1.6-1.6-1.6c-0.9,0-1.6,0.7-1.6,1.6
			C299.3,172.8,300,173.5,300.9,173.5"/>
	</g>
</g>
</svg>
