<?xml version="1.0" encoding="utf-8"?>
<!-- Generator: Adobe Illustrator 25.2.1, SVG Export Plug-In . SVG Version: 6.00 Build 0)  -->
<svg version="1.1" id="Capa_1" xmlns="http://www.w3.org/2000/svg" xmlns:xlink="http://www.w3.org/1999/xlink" x="0px" y="0px"
	 viewBox="0 0 446.4 228.4" style="enable-background:new 0 0 446.4 228.4;" xml:space="preserve">
<style type="text/css">
	.st0{fill:#EF7B10;}
	.st1{fill:none;stroke:#4B5B6D;stroke-linecap:round;stroke-linejoin:round;stroke-miterlimit:10;stroke-dasharray:0,3.016;}
	.st2{clip-path:url(#SVGID_2_);fill:none;stroke:#4B5B6D;stroke-linecap:round;stroke-linejoin:round;stroke-miterlimit:10;}
	
		.st3{clip-path:url(#SVGID_2_);fill:none;stroke:#4B5B6D;stroke-linecap:round;stroke-linejoin:round;stroke-miterlimit:10;stroke-dasharray:0,3;}
	.st4{fill:#4A4A49;}
	.st5{clip-path:url(#SVGID_4_);fill:#EF7B10;}
	.st6{clip-path:url(#SVGID_4_);fill:#F8B375;}
	.st7{clip-path:url(#SVGID_4_);fill:#FDDABB;}
	.st8{clip-path:url(#SVGID_4_);fill:none;stroke:#EF7B10;stroke-width:14.658;stroke-miterlimit:10;}
	.st9{fill:#FFFFFF;}
	.st10{fill:#4B5B6D;}
	
		.st11{fill:none;stroke:#5F6A77;stroke-width:0.814;stroke-linecap:round;stroke-linejoin:round;stroke-miterlimit:10;stroke-dasharray:0,2.455;}
	.st12{fill:none;stroke:#5F6A77;stroke-width:0.814;stroke-linecap:round;stroke-linejoin:round;stroke-miterlimit:10;}
	
		.st13{fill:none;stroke:#FFFFFF;stroke-width:0.814;stroke-linecap:round;stroke-linejoin:round;stroke-miterlimit:10;stroke-dasharray:0,2.364;}
	.st14{fill:none;stroke:#FFFFFF;stroke-width:0.814;stroke-linecap:round;stroke-linejoin:round;stroke-miterlimit:10;}
	.st15{clip-path:url(#SVGID_6_);fill:#FFFFFF;}
	
		.st16{fill:none;stroke:#5F6A77;stroke-width:0.814;stroke-linecap:round;stroke-linejoin:round;stroke-miterlimit:10;stroke-dasharray:0,2.47;}
	
		.st17{fill:none;stroke:#FFFFFF;stroke-width:0.814;stroke-linecap:round;stroke-linejoin:round;stroke-miterlimit:10;stroke-dasharray:0,2.305;}
	.st18{clip-path:url(#SVGID_8_);fill:#FFFFFF;}
	
		.st19{fill:none;stroke:#5F6A77;stroke-width:0.814;stroke-linecap:round;stroke-linejoin:round;stroke-miterlimit:10;stroke-dasharray:0,2.45;}
	
		.st20{fill:none;stroke:#4B5B6D;stroke-width:0.814;stroke-linecap:round;stroke-linejoin:round;stroke-miterlimit:10;stroke-dasharray:0,2.207;}
	.st21{fill:none;stroke:#4B5B6D;stroke-width:0.814;stroke-linecap:round;stroke-linejoin:round;stroke-miterlimit:10;}
	.st22{clip-path:url(#SVGID_10_);fill:#4B5B6D;}
</style>
<g>
	<g>
		<path class="st0" d="M69.9,20.6h-4.1v10.6h-3.4V20.6h-4.1V18h11.5V20.6z"/>
		<path class="st0" d="M77.9,30.1c-0.2,0.1-0.4,0.3-0.6,0.5s-0.5,0.3-0.7,0.4c-0.3,0.1-0.6,0.2-1,0.3s-0.7,0.1-1.1,0.1
			c-0.9,0-1.7-0.3-2.4-0.9s-0.9-1.3-0.9-2.2c0-0.7,0.2-1.3,0.5-1.8s0.8-0.8,1.4-1.1c0.6-0.3,1.3-0.5,2.2-0.6s1.8-0.2,2.7-0.2v-0.1
			c0-0.5-0.2-0.9-0.7-1.1s-1.1-0.3-2-0.3c-0.5,0-1.1,0.1-1.7,0.3c-0.6,0.2-1,0.3-1.3,0.4H72v-2.4c0.3-0.1,0.9-0.2,1.6-0.3
			s1.5-0.2,2.3-0.2c1.8,0,3.1,0.3,3.9,0.8c0.8,0.6,1.2,1.4,1.2,2.6v6.7h-3.1V30.1z M77.9,28.6v-2c-0.4,0-0.9,0.1-1.4,0.1
			s-0.9,0.1-1.1,0.2c-0.3,0.1-0.6,0.2-0.7,0.4s-0.3,0.4-0.3,0.7c0,0.2,0,0.4,0.1,0.5c0,0.1,0.1,0.3,0.3,0.4c0.1,0.1,0.3,0.2,0.5,0.3
			s0.5,0.1,0.9,0.1c0.3,0,0.6-0.1,1-0.2C77.4,28.9,77.6,28.8,77.9,28.6z"/>
		<path class="st0" d="M92.7,28c0,1-0.5,1.8-1.4,2.5c-0.9,0.6-2.2,0.9-3.8,0.9c-0.9,0-1.7-0.1-2.4-0.2s-1.3-0.3-1.7-0.5V28h0.3
			c0.2,0.1,0.3,0.2,0.5,0.4c0.2,0.1,0.5,0.3,0.9,0.4c0.3,0.1,0.7,0.3,1.1,0.3c0.4,0.1,0.9,0.1,1.3,0.1c0.6,0,1.1-0.1,1.4-0.2
			s0.4-0.3,0.4-0.6c0-0.2-0.1-0.4-0.3-0.5c-0.2-0.1-0.5-0.2-1-0.3c-0.2-0.1-0.6-0.1-1-0.2c-0.4-0.1-0.8-0.1-1.1-0.2
			c-0.9-0.2-1.6-0.6-2-1.1s-0.7-1.1-0.7-1.9c0-0.9,0.4-1.7,1.3-2.4S87,21,88.5,21c0.7,0,1.4,0.1,2.1,0.2c0.7,0.1,1.2,0.3,1.6,0.5
			v2.5H92c-0.5-0.3-1-0.6-1.6-0.8c-0.6-0.2-1.2-0.3-1.8-0.3c-0.5,0-0.9,0.1-1.3,0.2s-0.5,0.3-0.5,0.6c0,0.2,0.1,0.4,0.2,0.5
			s0.5,0.2,1.1,0.4c0.3,0.1,0.7,0.1,1,0.2c0.4,0.1,0.7,0.1,1.1,0.2c0.8,0.2,1.4,0.6,1.8,1C92.5,26.7,92.7,27.3,92.7,28z"/>
		<path class="st0" d="M100.9,30.1c-0.2,0.1-0.4,0.3-0.6,0.5s-0.5,0.3-0.7,0.4c-0.3,0.1-0.6,0.2-1,0.3s-0.7,0.1-1.1,0.1
			c-0.9,0-1.7-0.3-2.4-0.9s-0.9-1.3-0.9-2.2c0-0.7,0.2-1.3,0.5-1.8s0.8-0.8,1.4-1.1c0.6-0.3,1.3-0.5,2.2-0.6s1.8-0.2,2.7-0.2v-0.1
			c0-0.5-0.2-0.9-0.7-1.1s-1.1-0.3-2-0.3c-0.5,0-1.1,0.1-1.7,0.3c-0.6,0.2-1,0.3-1.3,0.4h-0.3v-2.4c0.3-0.1,0.9-0.2,1.6-0.3
			S98.2,21,99,21c1.8,0,3.1,0.3,3.9,0.8c0.8,0.6,1.2,1.4,1.2,2.6v6.7h-3.1V30.1z M100.9,28.6v-2c-0.4,0-0.9,0.1-1.4,0.1
			s-0.9,0.1-1.1,0.2c-0.3,0.1-0.6,0.2-0.7,0.4s-0.3,0.4-0.3,0.7c0,0.2,0,0.4,0.1,0.5c0,0.1,0.1,0.3,0.3,0.4c0.1,0.1,0.3,0.2,0.5,0.3
			s0.5,0.1,0.9,0.1c0.3,0,0.6-0.1,1-0.2C100.4,28.9,100.7,28.8,100.9,28.6z"/>
		<path class="st0" d="M123.1,31.1h-3.2v-1c-0.5,0.4-1.1,0.8-1.5,1s-1,0.3-1.6,0.3c-1.2,0-2.2-0.5-2.9-1.4c-0.7-0.9-1.1-2.2-1.1-3.7
			c0-0.8,0.1-1.6,0.4-2.2s0.6-1.2,1-1.7c0.4-0.4,0.9-0.8,1.4-1c0.6-0.2,1.1-0.4,1.7-0.4c0.6,0,1.1,0.1,1.5,0.2s0.8,0.3,1.2,0.5v-4.2
			h3.2V31.1z M119.9,28.4v-4.9c-0.2-0.1-0.5-0.2-0.7-0.2s-0.5-0.1-0.7-0.1c-0.8,0-1.5,0.3-1.9,0.8s-0.6,1.2-0.6,2.2
			c0,1,0.2,1.7,0.5,2.1c0.3,0.4,0.9,0.7,1.6,0.7c0.3,0,0.6-0.1,0.9-0.2C119.4,28.7,119.7,28.6,119.9,28.4z"/>
		<path class="st0" d="M136,26.8h-7.2c0,0.8,0.3,1.4,0.9,1.8s1.3,0.6,2.4,0.6c0.7,0,1.3-0.1,1.9-0.4s1.1-0.5,1.5-0.8h0.4v2.5
			c-0.7,0.3-1.4,0.5-2,0.6s-1.3,0.2-2.1,0.2c-2,0-3.5-0.4-4.6-1.3s-1.6-2.2-1.6-3.8c0-1.6,0.5-2.9,1.5-3.9c1-1,2.4-1.4,4.1-1.4
			c1.6,0,2.8,0.4,3.6,1.2c0.8,0.8,1.2,2,1.2,3.5V26.8z M132.8,24.9c0-0.7-0.2-1.2-0.5-1.5s-0.8-0.5-1.5-0.5c-0.6,0-1.1,0.2-1.5,0.5
			s-0.6,0.8-0.7,1.5H132.8z"/>
		<path class="st0" d="M151.8,24.3h-0.3c-0.1,0-0.4-0.1-0.6-0.1s-0.5,0-0.7,0c-0.5,0-0.8,0-1.2,0.1c-0.3,0.1-0.7,0.2-1.1,0.3v6.6
			h-3.2v-9.9h3.2v1.5c0.7-0.6,1.3-1,1.8-1.2c0.5-0.2,1-0.3,1.4-0.3c0.1,0,0.2,0,0.4,0c0.1,0,0.3,0,0.4,0V24.3z"/>
		<path class="st0" d="M163.9,26.2c0,1.6-0.5,2.9-1.4,3.8s-2.3,1.4-4,1.4s-3-0.5-4-1.4s-1.4-2.2-1.4-3.8c0-1.6,0.5-2.9,1.4-3.8
			s2.3-1.4,4-1.4c1.7,0,3.1,0.5,4,1.4S163.9,24.6,163.9,26.2z M160,28.6c0.2-0.3,0.4-0.6,0.5-0.9c0.1-0.4,0.2-0.8,0.2-1.5
			c0-0.6-0.1-1.1-0.2-1.5s-0.3-0.7-0.4-0.9c-0.2-0.2-0.4-0.4-0.7-0.5s-0.5-0.1-0.9-0.1s-0.6,0-0.8,0.1s-0.5,0.2-0.7,0.5
			c-0.2,0.2-0.3,0.5-0.5,0.9s-0.2,0.9-0.2,1.5c0,0.5,0,1,0.1,1.4c0.1,0.4,0.2,0.7,0.4,1c0.2,0.2,0.4,0.4,0.7,0.5s0.6,0.2,0.9,0.2
			c0.3,0,0.6,0,0.8-0.1C159.6,29,159.8,28.8,160,28.6z"/>
		<path class="st0" d="M172.6,31c-0.3,0.1-0.7,0.2-1.1,0.2s-0.8,0.1-1.4,0.1c-1.2,0-2.1-0.2-2.7-0.7s-0.9-1.4-0.9-2.6v-4.6h-1.3
			v-2.1h1.3v-2.8h3.2v2.8h3v2.1h-3v3.5c0,0.3,0,0.6,0,0.9s0.1,0.5,0.1,0.7c0.1,0.2,0.2,0.4,0.4,0.5c0.2,0.1,0.5,0.2,0.9,0.2
			c0.2,0,0.4,0,0.6-0.1c0.3-0.1,0.5-0.1,0.6-0.2h0.3V31z"/>
		<path class="st0" d="M180.7,30.1c-0.2,0.1-0.4,0.3-0.6,0.5s-0.5,0.3-0.7,0.4c-0.3,0.1-0.6,0.2-1,0.3s-0.7,0.1-1.1,0.1
			c-0.9,0-1.7-0.3-2.4-0.9s-0.9-1.3-0.9-2.2c0-0.7,0.2-1.3,0.5-1.8s0.8-0.8,1.4-1.1c0.6-0.3,1.3-0.5,2.2-0.6s1.8-0.2,2.7-0.2v-0.1
			c0-0.5-0.2-0.9-0.7-1.1s-1.1-0.3-2-0.3c-0.5,0-1.1,0.1-1.7,0.3c-0.6,0.2-1,0.3-1.3,0.4h-0.3v-2.4c0.3-0.1,0.9-0.2,1.6-0.3
			s1.5-0.2,2.3-0.2c1.8,0,3.1,0.3,3.9,0.8c0.8,0.6,1.2,1.4,1.2,2.6v6.7h-3.1V30.1z M180.7,28.6v-2c-0.4,0-0.9,0.1-1.4,0.1
			s-0.9,0.1-1.1,0.2c-0.3,0.1-0.6,0.2-0.7,0.4s-0.3,0.4-0.3,0.7c0,0.2,0,0.4,0.1,0.5c0,0.1,0.1,0.3,0.3,0.4c0.1,0.1,0.3,0.2,0.5,0.3
			s0.5,0.1,0.9,0.1c0.3,0,0.6-0.1,1-0.2C180.1,28.9,180.4,28.8,180.7,28.6z"/>
		<path class="st0" d="M192,31.4c-0.9,0-1.6-0.1-2.4-0.3s-1.3-0.5-1.9-0.9c-0.5-0.4-0.9-1-1.2-1.6s-0.4-1.4-0.4-2.3
			c0-0.9,0.2-1.7,0.5-2.4s0.7-1.2,1.3-1.7c0.5-0.4,1.1-0.7,1.8-0.9s1.4-0.3,2.2-0.3c0.7,0,1.3,0.1,1.9,0.2s1.1,0.3,1.6,0.6v2.7h-0.4
			c-0.1-0.1-0.3-0.2-0.4-0.4c-0.2-0.1-0.4-0.3-0.6-0.4c-0.2-0.1-0.5-0.2-0.8-0.3s-0.6-0.1-1-0.1c-0.8,0-1.5,0.3-1.9,0.8
			c-0.5,0.5-0.7,1.3-0.7,2.2c0,0.9,0.2,1.7,0.7,2.2c0.5,0.5,1.1,0.7,2,0.7c0.4,0,0.8,0,1.1-0.1c0.3-0.1,0.6-0.2,0.8-0.3
			c0.2-0.1,0.4-0.2,0.5-0.4c0.2-0.1,0.3-0.3,0.4-0.4h0.4v2.7c-0.5,0.2-1,0.4-1.6,0.6C193.3,31.3,192.7,31.4,192,31.4z"/>
		<path class="st0" d="M200.9,19.9h-3.3v-2.4h3.3V19.9z M200.8,31.1h-3.2v-9.9h3.2V31.1z"/>
		<path class="st0" d="M214.1,26.2c0,1.6-0.5,2.9-1.4,3.8s-2.3,1.4-4,1.4s-3-0.5-4-1.4s-1.4-2.2-1.4-3.8c0-1.6,0.5-2.9,1.4-3.8
			s2.3-1.4,4-1.4c1.7,0,3.1,0.5,4,1.4S214.1,24.6,214.1,26.2z M211.8,16.4v0.2l-3.1,3.3h-2.2l2.2-3.5H211.8z M210.2,28.6
			c0.2-0.3,0.4-0.6,0.5-0.9c0.1-0.4,0.2-0.8,0.2-1.5c0-0.6-0.1-1.1-0.2-1.5s-0.3-0.7-0.4-0.9c-0.2-0.2-0.4-0.4-0.7-0.5
			s-0.5-0.1-0.9-0.1s-0.6,0-0.8,0.1c-0.2,0.1-0.5,0.2-0.7,0.5c-0.2,0.2-0.3,0.5-0.5,0.9s-0.2,0.9-0.2,1.5c0,0.5,0,1,0.1,1.4
			c0.1,0.4,0.2,0.7,0.4,1c0.2,0.2,0.4,0.4,0.7,0.5s0.6,0.2,0.9,0.2c0.3,0,0.6,0,0.8-0.1C209.8,29,210,28.8,210.2,28.6z"/>
		<path class="st0" d="M226.4,31.1h-3.2v-4.9c0-0.4,0-0.8-0.1-1.2c0-0.4-0.1-0.7-0.2-0.9c-0.1-0.2-0.3-0.4-0.5-0.5s-0.5-0.1-0.9-0.1
			c-0.3,0-0.6,0-0.9,0.1s-0.6,0.2-1,0.4v7h-3.2v-9.9h3.2v1.1c0.6-0.4,1.1-0.8,1.6-1c0.5-0.2,1.1-0.4,1.7-0.4c1.1,0,1.9,0.3,2.5,0.9
			s0.9,1.5,0.9,2.8V31.1z"/>
	</g>
	<g>
		<path class="st0" d="M64.1,39.1h-0.2c-0.1,0-0.3-0.1-0.4-0.1c-0.2,0-0.4-0.1-0.6-0.1c-0.5,0-0.8,0.1-1,0.3s-0.3,0.5-0.3,1v0.1h1.9
			v1.7h-1.8v6h-2.5v-6h-1.1v-1.7h1.1V40c0-0.9,0.2-1.6,0.7-2.1s1.3-0.7,2.3-0.7c0.4,0,0.7,0,1,0c0.3,0,0.6,0.1,0.8,0.1V39.1z"/>
		<path class="st0" d="M72.8,47.9h-2.5v-0.8c-0.5,0.3-0.9,0.6-1.2,0.8c-0.4,0.2-0.8,0.3-1.4,0.3c-0.8,0-1.5-0.2-2-0.7
			s-0.7-1.2-0.7-2.2v-5h2.5v3.8c0,0.4,0,0.7,0,1c0,0.3,0.1,0.5,0.2,0.6c0.1,0.2,0.2,0.3,0.4,0.4s0.4,0.1,0.7,0.1
			c0.2,0,0.4,0,0.7-0.1s0.5-0.2,0.7-0.3v-5.4h2.5V47.9z"/>
		<path class="st0" d="M82.8,44.6h-5.6c0,0.6,0.3,1.1,0.7,1.4s1,0.5,1.9,0.5c0.5,0,1-0.1,1.5-0.3s0.9-0.4,1.2-0.6h0.3v2
			c-0.6,0.2-1.1,0.4-1.6,0.5s-1,0.2-1.6,0.2c-1.5,0-2.7-0.3-3.5-1s-1.2-1.7-1.2-3c0-1.3,0.4-2.3,1.2-3c0.8-0.7,1.8-1.1,3.2-1.1
			c1.2,0,2.2,0.3,2.8,0.9c0.6,0.6,0.9,1.5,0.9,2.7V44.6z M80.4,43.1c0-0.5-0.1-0.9-0.4-1.2s-0.6-0.4-1.1-0.4c-0.5,0-0.9,0.1-1.2,0.4
			s-0.5,0.6-0.5,1.2H80.4z"/>
		<path class="st0" d="M90.2,42.6H90c-0.1,0-0.3-0.1-0.5-0.1s-0.4,0-0.6,0c-0.4,0-0.7,0-0.9,0.1c-0.3,0-0.6,0.1-0.9,0.2v5.1h-2.5
			v-7.7h2.5v1.1c0.5-0.5,1-0.8,1.4-0.9c0.4-0.2,0.8-0.2,1.1-0.2c0.1,0,0.2,0,0.3,0c0.1,0,0.2,0,0.3,0V42.6z"/>
		<path class="st0" d="M98.4,47.9h-7.2v-1.6l4-4.3h-3.9v-1.8h7v1.6l-4,4.3h4.1V47.9z"/>
		<path class="st0" d="M104.9,47.1c-0.1,0.1-0.3,0.2-0.5,0.4s-0.4,0.3-0.6,0.3c-0.2,0.1-0.5,0.2-0.8,0.2c-0.3,0.1-0.5,0.1-0.9,0.1
			c-0.7,0-1.3-0.2-1.8-0.7s-0.7-1-0.7-1.7c0-0.6,0.1-1,0.4-1.4s0.6-0.6,1.1-0.8c0.5-0.2,1-0.4,1.7-0.4s1.4-0.2,2.1-0.2v0
			c0-0.4-0.2-0.7-0.5-0.9c-0.3-0.2-0.9-0.2-1.5-0.2c-0.4,0-0.8,0.1-1.3,0.2c-0.5,0.1-0.8,0.3-1,0.3h-0.2v-1.9
			c0.3-0.1,0.7-0.1,1.3-0.2c0.6-0.1,1.2-0.1,1.8-0.1c1.4,0,2.4,0.2,3,0.6c0.6,0.4,0.9,1.1,0.9,2v5.2h-2.4V47.1z M104.9,45.9v-1.6
			c-0.3,0-0.7,0.1-1.1,0.1s-0.7,0.1-0.9,0.2c-0.2,0.1-0.4,0.2-0.6,0.3c-0.1,0.1-0.2,0.3-0.2,0.6c0,0.2,0,0.3,0,0.4
			c0,0.1,0.1,0.2,0.2,0.3c0.1,0.1,0.2,0.2,0.4,0.2s0.4,0.1,0.7,0.1c0.2,0,0.5,0,0.7-0.1C104.5,46.2,104.7,46.1,104.9,45.9z"/>
		<path class="st0" d="M122.1,47.9h-2.5v-0.8c-0.4,0.3-0.8,0.6-1.2,0.8s-0.8,0.2-1.3,0.2c-0.9,0-1.7-0.4-2.2-1.1
			c-0.6-0.7-0.8-1.7-0.8-2.9c0-0.7,0.1-1.2,0.3-1.7c0.2-0.5,0.4-0.9,0.8-1.3c0.3-0.3,0.7-0.6,1.1-0.8c0.4-0.2,0.9-0.3,1.3-0.3
			c0.5,0,0.8,0,1.1,0.1c0.3,0.1,0.6,0.2,0.9,0.4v-3.3h2.5V47.9z M119.7,45.8V42c-0.2-0.1-0.4-0.1-0.5-0.2s-0.4,0-0.5,0
			c-0.6,0-1.1,0.2-1.5,0.6c-0.3,0.4-0.5,1-0.5,1.7c0,0.8,0.1,1.3,0.4,1.6c0.3,0.3,0.7,0.5,1.2,0.5c0.2,0,0.5,0,0.7-0.1
			C119.3,46.1,119.5,46,119.7,45.8z"/>
		<path class="st0" d="M132.2,44.6h-5.6c0,0.6,0.3,1.1,0.7,1.4s1,0.5,1.9,0.5c0.5,0,1-0.1,1.5-0.3s0.9-0.4,1.2-0.6h0.3v2
			c-0.6,0.2-1.1,0.4-1.6,0.5s-1,0.2-1.6,0.2c-1.5,0-2.7-0.3-3.5-1s-1.2-1.7-1.2-3c0-1.3,0.4-2.3,1.2-3c0.8-0.7,1.8-1.1,3.2-1.1
			c1.2,0,2.2,0.3,2.8,0.9c0.6,0.6,0.9,1.5,0.9,2.7V44.6z M129.7,43.1c0-0.5-0.1-0.9-0.4-1.2s-0.6-0.4-1.1-0.4
			c-0.5,0-0.9,0.1-1.2,0.4s-0.5,0.6-0.5,1.2H129.7z"/>
		<path class="st0" d="M146.7,40.3l-3,7.7h-2.8l-2.9-7.7h2.6l1.8,5.3l1.8-5.3H146.7z"/>
		<path class="st0" d="M155.7,44.6h-5.6c0,0.6,0.3,1.1,0.7,1.4s1,0.5,1.9,0.5c0.5,0,1-0.1,1.5-0.3s0.9-0.4,1.2-0.6h0.3v2
			c-0.6,0.2-1.1,0.4-1.6,0.5s-1,0.2-1.6,0.2c-1.5,0-2.7-0.3-3.5-1s-1.2-1.7-1.2-3c0-1.3,0.4-2.3,1.2-3c0.8-0.7,1.8-1.1,3.2-1.1
			c1.2,0,2.2,0.3,2.8,0.9c0.6,0.6,0.9,1.5,0.9,2.7V44.6z M153.3,43.1c0-0.5-0.1-0.9-0.4-1.2s-0.6-0.4-1.1-0.4
			c-0.5,0-0.9,0.1-1.2,0.4s-0.5,0.6-0.5,1.2H153.3z"/>
		<path class="st0" d="M165.3,47.9h-2.5v-3.8c0-0.3,0-0.6,0-0.9c0-0.3-0.1-0.5-0.2-0.7c-0.1-0.2-0.2-0.3-0.4-0.4s-0.4-0.1-0.7-0.1
			c-0.2,0-0.5,0-0.7,0.1s-0.5,0.2-0.7,0.3v5.4h-2.5v-7.7h2.5v0.8c0.4-0.3,0.9-0.6,1.3-0.8c0.4-0.2,0.8-0.3,1.3-0.3
			c0.8,0,1.5,0.2,1.9,0.7c0.5,0.5,0.7,1.2,0.7,2.2V47.9z"/>
		<path class="st0" d="M172.6,47.9c-0.3,0.1-0.5,0.1-0.8,0.2c-0.3,0-0.7,0.1-1.1,0.1c-1,0-1.7-0.2-2.1-0.6s-0.7-1.1-0.7-2v-3.6h-1
			v-1.7h1v-2.2h2.5v2.2h2.3v1.7h-2.3v2.7c0,0.3,0,0.5,0,0.7c0,0.2,0,0.4,0.1,0.5c0.1,0.2,0.2,0.3,0.3,0.4s0.4,0.1,0.7,0.1
			c0.1,0,0.3,0,0.5-0.1c0.2-0.1,0.4-0.1,0.4-0.2h0.2V47.9z"/>
		<path class="st0" d="M178.9,47.1c-0.1,0.1-0.3,0.2-0.5,0.4s-0.4,0.3-0.6,0.3c-0.2,0.1-0.5,0.2-0.8,0.2c-0.3,0.1-0.5,0.1-0.9,0.1
			c-0.7,0-1.3-0.2-1.8-0.7s-0.7-1-0.7-1.7c0-0.6,0.1-1,0.4-1.4s0.6-0.6,1.1-0.8c0.5-0.2,1-0.4,1.7-0.4s1.4-0.2,2.1-0.2v0
			c0-0.4-0.2-0.7-0.5-0.9c-0.3-0.2-0.9-0.2-1.5-0.2c-0.4,0-0.8,0.1-1.3,0.2c-0.5,0.1-0.8,0.3-1,0.3h-0.2v-1.9
			c0.3-0.1,0.7-0.1,1.3-0.2c0.6-0.1,1.2-0.1,1.8-0.1c1.4,0,2.4,0.2,3,0.6c0.6,0.4,0.9,1.1,0.9,2v5.2h-2.4V47.1z M178.9,45.9v-1.6
			c-0.3,0-0.7,0.1-1.1,0.1s-0.7,0.1-0.9,0.2c-0.2,0.1-0.4,0.2-0.6,0.3c-0.1,0.1-0.2,0.3-0.2,0.6c0,0.2,0,0.3,0,0.4
			c0,0.1,0.1,0.2,0.2,0.3c0.1,0.1,0.2,0.2,0.4,0.2s0.4,0.1,0.7,0.1c0.2,0,0.5,0,0.7-0.1C178.4,46.2,178.7,46.1,178.9,45.9z"/>
		<path class="st0" d="M190.4,45.5c0,0.8-0.4,1.4-1.1,1.9c-0.7,0.5-1.7,0.7-2.9,0.7c-0.7,0-1.3-0.1-1.9-0.2s-1-0.3-1.3-0.4v-2h0.2
			c0.1,0.1,0.3,0.2,0.4,0.3c0.2,0.1,0.4,0.2,0.7,0.3c0.3,0.1,0.5,0.2,0.9,0.3c0.3,0.1,0.7,0.1,1,0.1c0.5,0,0.8-0.1,1.1-0.2
			c0.2-0.1,0.3-0.3,0.3-0.5c0-0.2-0.1-0.3-0.2-0.4c-0.1-0.1-0.4-0.2-0.8-0.2c-0.2,0-0.4-0.1-0.7-0.1c-0.3,0-0.6-0.1-0.9-0.2
			c-0.7-0.2-1.2-0.5-1.6-0.9c-0.3-0.4-0.5-0.9-0.5-1.4c0-0.7,0.3-1.4,1-1.8c0.7-0.5,1.7-0.7,2.9-0.7c0.6,0,1.1,0.1,1.7,0.2
			c0.5,0.1,0.9,0.2,1.2,0.4v1.9h-0.2c-0.4-0.3-0.8-0.5-1.2-0.6c-0.5-0.2-0.9-0.2-1.4-0.2c-0.4,0-0.7,0.1-1,0.2s-0.4,0.3-0.4,0.5
			c0,0.2,0.1,0.3,0.2,0.4s0.4,0.2,0.9,0.3c0.3,0,0.5,0.1,0.8,0.1c0.3,0,0.6,0.1,0.9,0.2c0.6,0.2,1.1,0.4,1.4,0.8
			C190.2,44.5,190.4,45,190.4,45.5z"/>
		<path class="st0" d="M205.1,44c0,0.6-0.1,1.2-0.3,1.7s-0.4,0.9-0.8,1.3c-0.3,0.4-0.7,0.6-1.1,0.8c-0.4,0.2-0.9,0.3-1.3,0.3
			c-0.4,0-0.8,0-1.1-0.1c-0.3-0.1-0.6-0.2-0.9-0.4v3.2h-2.5V40.3h2.5v0.8c0.4-0.3,0.8-0.5,1.2-0.7s0.8-0.3,1.4-0.3
			c1,0,1.7,0.4,2.2,1.1S205.1,42.8,205.1,44z M202.5,44c0-0.7-0.1-1.3-0.4-1.6c-0.3-0.3-0.7-0.5-1.2-0.5c-0.2,0-0.5,0-0.7,0.1
			c-0.2,0.1-0.5,0.2-0.7,0.3v3.9c0.2,0.1,0.3,0.1,0.5,0.1c0.2,0,0.4,0,0.6,0c0.6,0,1.1-0.2,1.5-0.6C202.4,45.4,202.5,44.8,202.5,44z
			"/>
		<path class="st0" d="M214.8,44.1c0,1.3-0.4,2.3-1.1,3c-0.7,0.7-1.8,1.1-3.1,1.1c-1.3,0-2.4-0.4-3.1-1.1c-0.7-0.7-1.1-1.7-1.1-3
			c0-1.3,0.4-2.3,1.1-3s1.8-1.1,3.1-1.1c1.3,0,2.4,0.4,3.1,1.1S214.8,42.8,214.8,44.1z M211.8,46c0.2-0.2,0.3-0.4,0.4-0.7
			c0.1-0.3,0.1-0.7,0.1-1.1c0-0.5,0-0.8-0.1-1.1s-0.2-0.5-0.3-0.7c-0.1-0.2-0.3-0.3-0.5-0.4s-0.4-0.1-0.7-0.1c-0.2,0-0.4,0-0.6,0.1
			s-0.4,0.2-0.5,0.4c-0.2,0.2-0.3,0.4-0.4,0.7s-0.1,0.7-0.1,1.2c0,0.4,0,0.8,0.1,1.1c0.1,0.3,0.2,0.6,0.3,0.7
			c0.1,0.2,0.3,0.3,0.5,0.4c0.2,0.1,0.4,0.1,0.7,0.1c0.2,0,0.4,0,0.6-0.1C211.5,46.3,211.7,46.1,211.8,46z"/>
		<path class="st0" d="M222.3,42.6h-0.2c-0.1,0-0.3-0.1-0.5-0.1c-0.2,0-0.4,0-0.6,0c-0.3,0-0.7,0-0.9,0.1c-0.3,0-0.6,0.1-0.9,0.2
			v5.1h-2.5v-7.7h2.5v1.1c0.5-0.5,1-0.8,1.4-0.9c0.4-0.2,0.8-0.2,1.1-0.2c0.1,0,0.2,0,0.3,0s0.2,0,0.3,0V42.6z"/>
		<path class="st0" d="M236.7,44c0,0.6-0.1,1.2-0.3,1.7s-0.4,0.9-0.8,1.3c-0.3,0.4-0.7,0.6-1.1,0.8s-0.9,0.3-1.3,0.3
			c-0.4,0-0.8,0-1.1-0.1c-0.3-0.1-0.6-0.2-0.9-0.4v3.2h-2.5V40.3h2.5v0.8c0.4-0.3,0.8-0.5,1.2-0.7s0.8-0.3,1.4-0.3
			c1,0,1.7,0.4,2.2,1.1S236.7,42.8,236.7,44z M234.2,44c0-0.7-0.1-1.3-0.4-1.6s-0.7-0.5-1.2-0.5c-0.2,0-0.5,0-0.7,0.1
			c-0.2,0.1-0.5,0.2-0.7,0.3v3.9c0.2,0.1,0.3,0.1,0.5,0.1c0.2,0,0.4,0,0.6,0c0.6,0,1.1-0.2,1.5-0.6C234,45.4,234.2,44.8,234.2,44z"
			/>
		<path class="st0" d="M243.3,47.1c-0.1,0.1-0.3,0.2-0.5,0.4c-0.2,0.1-0.4,0.3-0.6,0.3c-0.2,0.1-0.5,0.2-0.8,0.2
			c-0.3,0.1-0.5,0.1-0.9,0.1c-0.7,0-1.3-0.2-1.8-0.7s-0.7-1-0.7-1.7c0-0.6,0.1-1,0.4-1.4c0.3-0.4,0.6-0.6,1.1-0.8
			c0.5-0.2,1-0.4,1.7-0.4c0.7-0.1,1.4-0.2,2.1-0.2v0c0-0.4-0.2-0.7-0.5-0.9c-0.3-0.2-0.9-0.2-1.5-0.2c-0.4,0-0.8,0.1-1.3,0.2
			c-0.5,0.1-0.8,0.3-1,0.3h-0.2v-1.9c0.3-0.1,0.7-0.1,1.3-0.2c0.6-0.1,1.2-0.1,1.8-0.1c1.4,0,2.4,0.2,3,0.6c0.6,0.4,0.9,1.1,0.9,2
			v5.2h-2.4V47.1z M243.3,45.9v-1.6c-0.3,0-0.7,0.1-1.1,0.1c-0.4,0-0.7,0.1-0.9,0.2c-0.2,0.1-0.4,0.2-0.6,0.3
			c-0.1,0.1-0.2,0.3-0.2,0.6c0,0.2,0,0.3,0,0.4c0,0.1,0.1,0.2,0.2,0.3c0.1,0.1,0.2,0.2,0.4,0.2c0.1,0,0.4,0.1,0.7,0.1
			c0.2,0,0.5,0,0.7-0.1C242.9,46.2,243.1,46.1,243.3,45.9z"/>
		<path class="st0" d="M251.8,36.5v0.1l-2.4,2.5h-1.7l1.7-2.7H251.8z M250.6,47.9h-2.5v-7.7h2.5V47.9z"/>
		<path class="st0" d="M259.7,45.5c0,0.8-0.4,1.4-1.1,1.9c-0.7,0.5-1.7,0.7-2.9,0.7c-0.7,0-1.3-0.1-1.9-0.2c-0.6-0.1-1-0.3-1.3-0.4
			v-2h0.2c0.1,0.1,0.3,0.2,0.4,0.3c0.2,0.1,0.4,0.2,0.7,0.3c0.3,0.1,0.5,0.2,0.9,0.3c0.3,0.1,0.7,0.1,1,0.1c0.5,0,0.8-0.1,1.1-0.2
			c0.2-0.1,0.3-0.3,0.3-0.5c0-0.2-0.1-0.3-0.2-0.4c-0.1-0.1-0.4-0.2-0.8-0.2c-0.2,0-0.4-0.1-0.7-0.1c-0.3,0-0.6-0.1-0.9-0.2
			c-0.7-0.2-1.2-0.5-1.6-0.9c-0.3-0.4-0.5-0.9-0.5-1.4c0-0.7,0.3-1.4,1-1.8c0.7-0.5,1.7-0.7,2.9-0.7c0.6,0,1.1,0.1,1.7,0.2
			c0.5,0.1,0.9,0.2,1.2,0.4v1.9h-0.2c-0.4-0.3-0.8-0.5-1.2-0.6c-0.5-0.2-0.9-0.2-1.4-0.2c-0.4,0-0.7,0.1-1,0.2
			c-0.3,0.1-0.4,0.3-0.4,0.5c0,0.2,0.1,0.3,0.2,0.4s0.4,0.2,0.9,0.3c0.3,0,0.5,0.1,0.8,0.1c0.3,0,0.6,0.1,0.9,0.2
			c0.6,0.2,1.1,0.4,1.4,0.8C259.6,44.5,259.7,45,259.7,45.5z"/>
	</g>
	<line class="st1" x1="38.4" y1="27.5" x2="38.4" y2="216"/>
	<g>
		<defs>
			<rect id="SVGID_1_" x="10.3" y="10.4" width="425.8" height="207.6"/>
		</defs>
		<clipPath id="SVGID_2_">
			<use xlink:href="#SVGID_1_"  style="overflow:visible;"/>
		</clipPath>
		<path class="st2" d="M38.4,217.5L38.4,217.5 M38.4,24.5L38.4,24.5"/>
		<line class="st3" x1="256.8" y1="77.1" x2="12.3" y2="77.1"/>
		<path class="st2" d="M10.8,77.1L10.8,77.1 M259.8,77.1L259.8,77.1"/>
	</g>
	<g>
		<path class="st4" d="M61.4,105.4l0.3,0.8l-1.4,0.2c0,0-0.1,0-0.1,0c0,0,0,0.1,0,0.1l1.1,1l-0.7,0.5l-0.6-1.3c0-0.1-0.1-0.1-0.1,0
			l-0.6,1.3l-0.7-0.5l1.1-1c0.1-0.1,0.1-0.1,0-0.1l-1.4-0.1l0.3-0.8l1.2,0.7c0,0,0.1,0,0.1,0s0,0,0-0.1l-0.3-1.4h0.9l-0.3,1.4
			c0,0,0,0.1,0,0.1s0.1,0,0.1,0L61.4,105.4z"/>
		<path class="st4" d="M64.6,108.4c-0.3,0-0.6,0-0.9-0.1v3.2h-0.6v-6.7c0.2,0,0.5,0,0.8,0c0.3,0,0.6,0,0.8,0c0.7,0,1.2,0.2,1.6,0.5
			s0.6,0.8,0.6,1.4c0,0.6-0.2,1-0.6,1.3C65.8,108.2,65.3,108.4,64.6,108.4z M63.8,105.5c0,0.6-0.1,1.4-0.1,2.2
			c0.3,0.1,0.6,0.1,0.9,0.1c0.5,0,0.9-0.1,1.1-0.3c0.3-0.2,0.4-0.5,0.4-1c0-0.4-0.1-0.8-0.4-1c-0.3-0.2-0.6-0.3-1.1-0.3
			c-0.3,0-0.5,0-0.6,0s-0.2,0.1-0.2,0.1S63.8,105.4,63.8,105.5z"/>
		<path class="st4" d="M68.5,111.5h-0.6v-4.6h0.6v0.5c0.1-0.2,0.3-0.4,0.5-0.5c0.2-0.1,0.5-0.2,0.7-0.2c0.2,0,0.3,0,0.5,0v0.7
			c-0.2-0.1-0.4-0.1-0.6-0.1c-0.3,0-0.6,0.1-0.8,0.2c-0.2,0.1-0.3,0.3-0.3,0.6C68.5,108.7,68.5,109.8,68.5,111.5z"/>
		<path class="st4" d="M72.7,106.8c0.6,0,1.1,0.2,1.4,0.7c0.4,0.4,0.5,1,0.5,1.8c0,0.7-0.2,1.3-0.5,1.8c-0.4,0.4-0.8,0.7-1.4,0.7
			c-0.6,0-1.1-0.2-1.4-0.7c-0.4-0.4-0.5-1-0.5-1.8c0-0.7,0.2-1.3,0.5-1.8S72.1,106.8,72.7,106.8z M73.7,107.8
			c-0.2-0.3-0.6-0.5-1-0.5c-0.4,0-0.7,0.2-0.9,0.5c-0.2,0.3-0.3,0.8-0.3,1.4c0,0.6,0.1,1.1,0.4,1.4c0.2,0.3,0.6,0.5,1,0.5
			s0.7-0.2,0.9-0.5s0.3-0.8,0.3-1.4C74,108.6,73.9,108.1,73.7,107.8z"/>
		<path class="st4" d="M81.8,108.3v3.2h-0.6v-3c0-0.4-0.1-0.7-0.2-0.9c-0.2-0.2-0.4-0.3-0.7-0.3c-0.3,0-0.5,0.1-0.7,0.2
			s-0.3,0.2-0.3,0.4c0,0.1,0,0.3,0,0.5v3.1h-0.6v-3c0-0.8-0.3-1.2-1-1.2c-0.3,0-0.5,0.1-0.7,0.2s-0.3,0.3-0.3,0.5v3.5H76V107
			c0.3,0,0.6,0,1-0.1c0.3-0.1,0.6-0.1,0.8-0.1c0.5,0,0.8,0.2,1.1,0.5c0.4-0.3,0.9-0.5,1.5-0.5C81.3,106.8,81.8,107.3,81.8,108.3z"/>
		<path class="st4" d="M85,106.8c0.6,0,1.1,0.2,1.4,0.7c0.4,0.4,0.5,1,0.5,1.8c0,0.7-0.2,1.3-0.5,1.8c-0.4,0.4-0.8,0.7-1.4,0.7
			c-0.6,0-1.1-0.2-1.4-0.7c-0.4-0.4-0.5-1-0.5-1.8c0-0.7,0.2-1.3,0.5-1.8S84.4,106.8,85,106.8z M86,107.8c-0.2-0.3-0.6-0.5-1-0.5
			c-0.4,0-0.7,0.2-0.9,0.5c-0.2,0.3-0.3,0.8-0.3,1.4c0,0.6,0.1,1.1,0.4,1.4c0.2,0.3,0.6,0.5,1,0.5s0.7-0.2,0.9-0.5s0.3-0.8,0.3-1.4
			C86.3,108.6,86.2,108.1,86,107.8z"/>
		<path class="st4" d="M87.8,107.5v-0.6h0.7v-1l0.6-0.4v1.3h1.5v0.6h-1.5c0,0.2,0,0.6,0,1.3c0,0.7,0,1.2,0,1.7
			c0,0.4,0.2,0.7,0.7,0.7c0.3,0,0.6-0.1,0.9-0.2v0.5c-0.4,0.2-0.7,0.3-1.1,0.3c-0.3,0-0.6-0.1-0.8-0.3c-0.2-0.2-0.3-0.5-0.3-0.8
			v-3.1H87.8z"/>
		<path class="st4" d="M93.5,106.8c0.6,0,1.1,0.2,1.4,0.7c0.4,0.4,0.5,1,0.5,1.8c0,0.7-0.2,1.3-0.5,1.8c-0.4,0.4-0.8,0.7-1.4,0.7
			c-0.6,0-1.1-0.2-1.4-0.7c-0.4-0.4-0.5-1-0.5-1.8c0-0.7,0.2-1.3,0.5-1.8S92.9,106.8,93.5,106.8z M94.4,107.8
			c-0.2-0.3-0.6-0.5-1-0.5c-0.4,0-0.7,0.2-0.9,0.5c-0.2,0.3-0.3,0.8-0.3,1.4c0,0.6,0.1,1.1,0.4,1.4c0.2,0.3,0.6,0.5,1,0.5
			s0.7-0.2,0.9-0.5s0.3-0.8,0.3-1.4C94.8,108.6,94.6,108.1,94.4,107.8z"/>
		<path class="st4" d="M97.3,111.5h-0.6v-4.6h0.6v0.5c0.1-0.2,0.3-0.4,0.5-0.5c0.2-0.1,0.5-0.2,0.7-0.2c0.2,0,0.3,0,0.5,0v0.7
			c-0.2-0.1-0.4-0.1-0.6-0.1c-0.3,0-0.6,0.1-0.8,0.2c-0.2,0.1-0.3,0.3-0.3,0.6C97.3,108.7,97.3,109.8,97.3,111.5z"/>
		<path class="st4" d="M106.7,104.8v0.7c-0.4-0.2-0.9-0.3-1.4-0.3c-0.8,0-1.5,0.2-2,0.7c-0.5,0.5-0.7,1.2-0.7,2.2s0.2,1.8,0.7,2.2
			s1.1,0.7,2,0.7c0.5,0,1-0.1,1.4-0.3v0.6c-0.5,0.2-1,0.3-1.4,0.3c-0.4,0-0.7,0-1.1-0.1s-0.6-0.2-0.9-0.4s-0.5-0.4-0.8-0.7
			s-0.4-0.6-0.5-1c-0.1-0.4-0.2-0.8-0.2-1.3c0-1.2,0.3-2.1,1-2.7c0.6-0.6,1.5-0.9,2.4-0.9C105.9,104.6,106.4,104.6,106.7,104.8z"/>
		<path class="st4" d="M111,111.1l-2.1-5.5c-0.2,3-0.3,4.9-0.3,5.9h-0.7l0.4-6.7h0.9c0.7,2.1,1.4,3.8,1.9,5c0.1,0.1,0.1,0.2,0.1,0.2
			c0,0,0.1-0.1,0.1-0.2l2-5h0.8l0.2,3.6c0.1,1.5,0.2,2.5,0.2,3.1H114l-0.3-5.9c-0.6,1.6-1.4,3.4-2.2,5.5H111z"/>
		<path class="st4" d="M116.3,111.1c0-0.1,0-0.3,0.1-0.3c0.1-0.1,0.2-0.1,0.4-0.1c0.1,0,0.3,0,0.4,0.1c0.1,0.1,0.1,0.2,0.1,0.3
			c0,0.1,0,0.3-0.1,0.3c-0.1,0.1-0.2,0.1-0.4,0.1s-0.3,0-0.4-0.1C116.3,111.4,116.3,111.2,116.3,111.1z"/>
	</g>
	<g>
		<path class="st4" d="M181,110.1c1.6,0,2.6,0,3,0l0,0.6h-4.2l0-0.2c2.3-1.7,3.4-3.2,3.4-4.7c0-0.5-0.1-0.9-0.3-1.1
			c-0.2-0.2-0.5-0.4-1-0.4c-0.4,0-0.6,0.1-0.9,0.4c-0.2,0.2-0.3,0.5-0.3,0.9c0,0.1,0,0.2,0,0.3h-0.5c-0.1-0.2-0.1-0.3-0.1-0.5
			c0-0.4,0.2-0.8,0.5-1.2c0.3-0.3,0.7-0.5,1.3-0.5c0.6,0,1.1,0.2,1.5,0.6c0.3,0.4,0.5,0.9,0.5,1.5c0,0.7-0.3,1.5-0.9,2.3
			C182.3,108.9,181.7,109.6,181,110.1z"/>
		<path class="st4" d="M184.6,107.3c0-1,0.2-1.8,0.6-2.5c0.4-0.7,0.9-1,1.6-1c0.6,0,1.2,0.3,1.6,1c0.4,0.7,0.6,1.5,0.6,2.5
			c0,1-0.2,1.8-0.6,2.5c-0.4,0.7-0.9,1-1.6,1c-0.6,0-1.2-0.3-1.6-1S184.6,108.3,184.6,107.3z M185.7,105.2c-0.3,0.5-0.4,1.2-0.4,2.1
			c0,0.9,0.1,1.6,0.4,2.2s0.6,0.8,1.1,0.8c0.4,0,0.8-0.3,1.1-0.8s0.4-1.3,0.4-2.2c0-0.9-0.1-1.6-0.4-2.1c-0.3-0.5-0.6-0.8-1.1-0.8
			C186.3,104.4,185.9,104.6,185.7,105.2z"/>
		<path class="st4" d="M190.5,105.1l2.3-1.4c0,1.3,0,2.4,0,3.2v3.7h-0.7v-5.8l-1.6,1V105.1z"/>
		<path class="st4" d="M198.2,110.3c-0.4,0.4-0.9,0.5-1.5,0.5c-0.7,0-1.2-0.2-1.5-0.5s-0.6-0.8-0.6-1.4c0-0.4,0.1-0.8,0.4-1.1
			s0.5-0.6,0.9-0.7c-0.7-0.3-1.1-0.8-1.1-1.6c0-0.4,0.2-0.8,0.5-1.2c0.3-0.4,0.8-0.5,1.4-0.5c0.6,0,1.1,0.2,1.4,0.5
			c0.3,0.4,0.5,0.8,0.5,1.2c0,0.8-0.4,1.3-1.1,1.6c0.4,0.1,0.7,0.4,0.9,0.7s0.4,0.7,0.4,1.1C198.7,109.5,198.6,109.9,198.2,110.3z
			 M197.6,107.9c-0.3-0.3-0.6-0.4-1-0.4s-0.7,0.1-1,0.4c-0.3,0.3-0.4,0.6-0.4,1c0,0.4,0.1,0.8,0.4,1c0.2,0.3,0.6,0.4,1,0.4
			c0.4,0,0.8-0.1,1-0.4c0.2-0.3,0.4-0.6,0.4-1C198,108.5,197.9,108.2,197.6,107.9z M196.7,106.9c0.4,0,0.7-0.1,0.9-0.4
			c0.2-0.3,0.3-0.6,0.3-0.9c0-0.3-0.1-0.6-0.3-0.9c-0.2-0.2-0.5-0.4-0.9-0.4c-0.4,0-0.7,0.1-0.9,0.4c-0.2,0.2-0.3,0.5-0.3,0.9
			c0,0.3,0.1,0.6,0.3,0.9S196.3,106.9,196.7,106.9z"/>
	</g>
	<g>
		<path class="st4" d="M247.1,110.4c1.6,0,2.6,0,3,0l0,0.6h-4.2l0-0.2c2.3-1.7,3.4-3.2,3.4-4.7c0-0.5-0.1-0.9-0.3-1.1
			c-0.2-0.2-0.5-0.4-1-0.4c-0.4,0-0.6,0.1-0.9,0.4s-0.3,0.5-0.3,0.9c0,0.1,0,0.2,0,0.3h-0.5c-0.1-0.2-0.1-0.3-0.1-0.5
			c0-0.4,0.2-0.8,0.5-1.2c0.3-0.3,0.7-0.5,1.3-0.5c0.6,0,1.1,0.2,1.5,0.6c0.3,0.4,0.5,0.9,0.5,1.5c0,0.7-0.3,1.5-0.9,2.3
			C248.4,109.1,247.8,109.8,247.1,110.4z"/>
		<path class="st4" d="M250.7,107.5c0-1,0.2-1.8,0.6-2.5c0.4-0.7,0.9-1,1.6-1c0.6,0,1.2,0.3,1.6,1c0.4,0.7,0.6,1.5,0.6,2.5
			c0,1-0.2,1.8-0.6,2.5s-0.9,1-1.6,1c-0.6,0-1.2-0.3-1.6-1S250.7,108.5,250.7,107.5z M251.8,105.4c-0.3,0.5-0.4,1.2-0.4,2.1
			c0,0.9,0.1,1.6,0.4,2.2c0.3,0.6,0.6,0.8,1.1,0.8c0.4,0,0.8-0.3,1.1-0.8c0.3-0.6,0.4-1.3,0.4-2.2c0-0.9-0.1-1.6-0.4-2.1
			c-0.3-0.5-0.6-0.8-1.1-0.8C252.4,104.6,252,104.9,251.8,105.4z"/>
		<path class="st4" d="M256.6,105.4l2.3-1.4c0,1.3,0,2.4,0,3.2v3.7h-0.7v-5.8l-1.6,1V105.4z"/>
		<path class="st4" d="M263.8,108.3c-0.3,0.3-0.6,0.4-1.1,0.4c-0.5,0-1-0.2-1.3-0.6c-0.4-0.4-0.6-0.9-0.6-1.7c0-0.6,0.2-1.2,0.5-1.7
			c0.3-0.5,0.8-0.7,1.5-0.7c0.6,0,1,0.2,1.4,0.7c0.4,0.4,0.5,1.1,0.5,1.9c0,1-0.3,1.9-0.8,2.7c-0.5,0.8-1.3,1.5-2.4,1.9l-0.3-0.4
			c0.7-0.3,1.2-0.7,1.7-1.2S263.7,108.6,263.8,108.3z M261.4,106.4c0,0.2,0,0.3,0.1,0.5s0.1,0.4,0.2,0.5c0.1,0.2,0.2,0.3,0.4,0.5
			s0.4,0.2,0.7,0.2c0.4,0,0.7-0.2,1-0.5c0.2-0.3,0.3-0.7,0.3-1.1c0-0.6-0.1-1.1-0.3-1.4s-0.5-0.5-1-0.5
			C261.9,104.6,261.4,105.2,261.4,106.4z"/>
	</g>
	<g>
		<path class="st4" d="M314.2,110.7c1.6,0,2.6,0,3,0l0,0.6h-4.2l0-0.2c2.3-1.7,3.4-3.2,3.4-4.7c0-0.5-0.1-0.9-0.3-1.1
			s-0.5-0.4-0.9-0.4c-0.4,0-0.6,0.1-0.9,0.4s-0.3,0.5-0.3,0.9c0,0.1,0,0.2,0,0.3h-0.5c-0.1-0.2-0.1-0.3-0.1-0.5
			c0-0.4,0.2-0.8,0.5-1.2c0.3-0.3,0.7-0.5,1.3-0.5c0.6,0,1.1,0.2,1.4,0.6c0.3,0.4,0.5,0.9,0.5,1.5c0,0.7-0.3,1.5-0.9,2.3
			C315.5,109.4,314.9,110.1,314.2,110.7z"/>
		<path class="st4" d="M317.8,107.8c0-1,0.2-1.8,0.6-2.5c0.4-0.7,0.9-1,1.6-1c0.6,0,1.2,0.3,1.6,1c0.4,0.7,0.6,1.5,0.6,2.5
			c0,1-0.2,1.8-0.6,2.5c-0.4,0.7-0.9,1-1.6,1c-0.6,0-1.2-0.3-1.6-1S317.8,108.8,317.8,107.8z M318.9,105.7c-0.3,0.5-0.4,1.2-0.4,2.1
			c0,0.9,0.1,1.6,0.4,2.2c0.3,0.6,0.6,0.8,1.1,0.8c0.4,0,0.8-0.3,1.1-0.8c0.3-0.6,0.4-1.3,0.4-2.2c0-0.9-0.1-1.6-0.4-2.1
			c-0.3-0.5-0.6-0.8-1.1-0.8C319.5,104.9,319.1,105.1,318.9,105.7z"/>
		<path class="st4" d="M324.1,110.7c1.6,0,2.6,0,3,0l0,0.6h-4.2l0-0.2c2.3-1.7,3.4-3.2,3.4-4.7c0-0.5-0.1-0.9-0.3-1.1
			s-0.5-0.4-0.9-0.4c-0.4,0-0.6,0.1-0.9,0.4s-0.3,0.5-0.3,0.9c0,0.1,0,0.2,0,0.3h-0.5c-0.1-0.2-0.1-0.3-0.1-0.5
			c0-0.4,0.2-0.8,0.5-1.2c0.3-0.3,0.7-0.5,1.3-0.5c0.6,0,1.1,0.2,1.4,0.6c0.3,0.4,0.5,0.9,0.5,1.5c0,0.7-0.3,1.5-0.9,2.3
			C325.5,109.4,324.8,110.1,324.1,110.7z"/>
		<path class="st4" d="M327.7,107.8c0-1,0.2-1.8,0.6-2.5c0.4-0.7,0.9-1,1.6-1c0.6,0,1.2,0.3,1.6,1c0.4,0.7,0.6,1.5,0.6,2.5
			c0,1-0.2,1.8-0.6,2.5c-0.4,0.7-0.9,1-1.6,1c-0.6,0-1.2-0.3-1.6-1S327.7,108.8,327.7,107.8z M328.8,105.7c-0.3,0.5-0.4,1.2-0.4,2.1
			c0,0.9,0.1,1.6,0.4,2.2c0.3,0.6,0.6,0.8,1.1,0.8c0.4,0,0.8-0.3,1.1-0.8c0.3-0.6,0.4-1.3,0.4-2.2c0-0.9-0.1-1.6-0.4-2.1
			c-0.3-0.5-0.6-0.8-1.1-0.8C329.4,104.9,329.1,105.1,328.8,105.7z"/>
	</g>
	<g>
		<defs>
			<rect id="SVGID_3_" x="10.3" y="10.4" width="425.8" height="207.6"/>
		</defs>
		<clipPath id="SVGID_4_">
			<use xlink:href="#SVGID_3_"  style="overflow:visible;"/>
		</clipPath>
		<path class="st5" d="M164.5,114.1c3.4,0,6.1-2.7,6.1-6.1c0-3.4-2.7-6.1-6.1-6.1c-3.4,0-6.1,2.7-6.1,6.1
			C158.4,111.4,161.1,114.1,164.5,114.1"/>
		<path class="st6" d="M230.6,114.4c3.4,0,6.1-2.7,6.1-6.1c0-3.4-2.7-6.1-6.1-6.1c-3.4,0-6.1,2.7-6.1,6.1
			C224.5,111.6,227.2,114.4,230.6,114.4"/>
		<path class="st7" d="M297.7,114.6c3.4,0,6.1-2.7,6.1-6.1c0-3.4-2.7-6.1-6.1-6.1c-3.4,0-6.1,2.7-6.1,6.1
			C291.6,111.9,294.3,114.6,297.7,114.6"/>
		<path class="st5" d="M146.6,174.1h113.9c4.6,0,8.2-3.5,8.2-7.9v-0.6c0-3.9-3.3-7.1-7.4-7.1H146.6"/>
		<path class="st6" d="M146.6,193.8h125.7c4.6,0,8.2-3.5,8.2-7.9v-0.6c0-3.9-3.3-7.1-7.4-7.1H146.6"/>
		<path class="st7" d="M146.6,213.4h96c4.6,0,8.2-3.5,8.2-7.9v-0.6c0-3.9-3.3-7.1-7.4-7.1h-96.8"/>
		<path class="st5" d="M68.9,154.9c0-0.4,0.7-0.7,1.6-0.7c0.9,0,1.7,0.1,1.7,0.1c0,0,0,0.1,0,0.1c0,0,0,0.1,0.1,0.1
			c0,0,0.1,0.1,0.1,0.1c0,0,0.6,0.4,1.3,0.8c0.7,0.4,1.6,0.9,1.9,1.1c0.3,0.2,0.7,0.4,0.8,0.5c0.1,0.1,0.2,0.2,0.3,0.2
			c0,0,0.1,0,0.1,0.1c0,0,0.1,0,0.1,0c0,0,0.3,0,0.5,0c0.2,0,0.5,0,0.5,0c0,0,0.1,0,0.1,0c0,0,0.3,0,0.6,0.1c0.3,0,0.6,0.1,0.7,0.1
			c0,0,0.1,0,0.1,0c0,0,0.3,0,0.5,0c0.2,0,0.5,0,0.6,0c0.1,0,0.2,0,0.3,0c0,0,0.1,0,0.1-0.1c0,0,0.1-0.1,0.1-0.1c0,0,0-0.1,0.1-0.2
			c0-0.1,0-0.2,0-0.2c0-0.1,0-0.1,0-0.1c0,0,0,0,0.1-0.1c0,0,0.1,0,0.1,0s0.1,0,0.1,0c0,0,0.1,0,0.1,0c0,0,0.1,0,0.1,0
			c0,0,0.1,0,0.2,0c0.1,0,0.4,0,0.8,0c0.4,0,0.7,0,0.7,0c0,0,0.1,0,0.1,0c0,0,0.1,0,0.1,0.1c0,0,0.1,0.1,0.1,0.1
			c0,0,0.1,0.2,0.2,0.3c0.1,0.1,0.3,0.4,0.5,0.6s0.4,0.5,0.4,0.5c0,0.1,0.1,0.2,0.2,0.2c0.1,0.1,0.2,0.2,0.2,0.2s0.1,0,0.1,0.1
			s0.1,0,0.1,0c0,0,0,0,0.1,0.1c0,0,0,0.1,0.1,0.1c0,0,0,0.1,0.1,0.1s0,0.1,0,0.2c0,0.1,0,0.1,0,0.2c0,0,0,0.1,0,0.1
			c0,0,0,0.1,0,0.1c0,0,0,0.1,0,0.1c0,0,0,0.1,0,0.1s0,0.2,0,0.3v0.3c0,0,0,0.1,0,0.1c0,0,0,0.1,0,0.1c0,0,0.2,0.2,0.4,0.4
			c0.2,0.2,0.5,0.5,0.7,0.7c0.2,0.1,0.3,0.3,0.4,0.3c0,0,0.1,0,0.1,0.1c0,0,0.1,0,0.1,0c0,0,0.1,0,0.1,0c0,0,0.1,0,0.1-0.1
			c0,0,0.2-0.3,0.4-0.5c0.2-0.2,0.4-0.5,0.4-0.5c0,0,0.1-0.1,0.1-0.1c0,0,0.1-0.1,0.2-0.1c0.1,0,0.3,0,0.6,0c0.3,0,0.5,0,0.5,0
			c0,0,0.1,0,0.1,0c0,0,0.2,0.1,0.4,0.3c0.2,0.1,0.3,0.3,0.4,0.3c0,0,0.1,0.1,0.2,0.2c0,0.1,0.1,0.2,0.2,0.3
			c0.1,0.1,0.1,0.2,0.2,0.3c0,0.1,0.1,0.2,0.1,0.4c0,0.1,0.1,0.4,0.2,0.6c0.1,0.2,0.2,0.5,0.2,0.6c0,0.1,0.1,0.2,0.2,0.3
			c0.1,0.1,0.1,0.2,0.2,0.3c0.1,0.1,0.1,0.2,0.2,0.2c0,0,0.1,0.1,0.1,0.1c0,0,0.1,0.1,0.1,0.1c0,0,0.1,0.1,0.1,0.1
			c0,0,0.1,0.1,0.1,0.1c0,0,0,0.1,0,0.1s0,0.2,0,0.4c0,0.2,0,0.4,0,0.4c0,0,0,0.1,0,0.2c0,0.1,0,0.1,0.1,0.2c0,0,0.1,0.1,0.1,0.2
			c0,0.1,0.1,0.2,0.2,0.3s0.1,0.2,0.1,0.2c0,0,0.1,0.1,0.1,0.1c0,0,0.1,0.1,0.1,0.1c0,0,0.1,0.1,0.2,0.1c0.1,0,0.2,0.1,0.2,0.1
			c0.1,0,0.2,0,0.2,0c0,0,0.1,0,0.1,0.1c0,0,0.1,0.1,0.1,0.1c0,0,0.1,0.1,0.1,0.1c0,0,0,0.1,0.1,0.1c0,0,0,0,0.1,0.1
			c0,0,0.1,0,0.1,0h0.1h0.2c0.1,0,0.1,0,0.2,0c0.1,0,0.1,0,0.2,0.1c0,0,0.1,0.1,0.1,0.1s0.1,0.1,0.2,0.1c0,0,0.1,0,0.2,0
			c0.1,0,0.2,0,0.2-0.1c0.1,0,0.1,0,0.1,0.1c0,0.1,0,0.2,0,0.3c0,0.1-0.1,0.2-0.1,0.3c0,0.1-0.1,0.2-0.1,0.2s-0.1,0.2-0.2,0.2
			c-0.1,0.1-0.2,0.2-0.2,0.2c0,0-0.1,0.1-0.1,0.2c0,0.1-0.1,0.2-0.1,0.2c0,0-0.1,0.1-0.1,0.1c0,0,0,0.2-0.1,0.2c0,0.1,0,0.2,0,0.3
			s0,0.2,0,0.3c0,0.1,0,0.2,0,0.3c0,0.1,0,0.3-0.1,0.4c0,0.2-0.1,0.5-0.2,0.7s-0.1,0.5-0.1,0.5c0,0.1,0,0.3,0,0.4
			c0,0.2,0,0.3-0.1,0.4s0,0.2-0.1,0.3c0,0.1-0.1,0.2-0.1,0.3c0,0.1,0,0.2,0,0.3c0,0.1,0,0.2,0,0.3c0,0.1,0,0.2,0,0.3
			c0,0.1,0,0.2,0,0.3c0,0.1,0.1,0.2,0.1,0.3c0,0.1,0.1,0.2,0.1,0.3c0,0.1,0.1,0.1,0.1,0.2c0,0,0,0.1,0,0.1c0,0,0,0.1,0,0.1
			c0,0,0,0.1,0,0.1c0,0,0,0.1,0,0.1c0,0,0,0.1,0,0.1c0,0,0,0.1,0,0.2c0,0,0.1,0.3,0.2,0.5c0.1,0.2,0.2,0.5,0.2,0.6
			c0,0.1,0.1,0.2,0.2,0.3c0.1,0.1,0.2,0.2,0.2,0.3c0.1,0.1,0.1,0.2,0.2,0.2c0,0,0.1,0.1,0.1,0.1c0,0,0.1,0.1,0.1,0.1
			c0,0,0.1,0.1,0.1,0.1c0,0,0.1,0.1,0.1,0.2c0,0,0,0.1,0,0.2s0,0.1,0,0.2c0,0.1,0,0.1,0,0.2c0,0,0,0.1,0,0.1c0,0,0,0.1,0.1,0.2
			s0.1,0.2,0.2,0.4c0.1,0.1,0.2,0.3,0.2,0.3c0,0,0.1,0.1,0.1,0.1c0,0,0.1,0.1,0.1,0.1c0,0,0.1,0,0.2,0.1c0.1,0,0.2,0,0.4,0
			c0.2,0,0.3,0,0.4,0c0,0,0.1,0,0.1,0c0,0,0.1,0,0.1,0.1c0,0,0.1,0.1,0.1,0.1c0,0,0.1,0.1,0.1,0.2c0,0.1,0.1,0.2,0.2,0.2
			s0.1,0.1,0.2,0.2c0.1,0,0.1,0.1,0.2,0.1c0,0,0.1,0.1,0.1,0.1c0,0,0.2,0,0.2,0c0.1,0,0.3,0,0.4,0c0.1,0,0.3,0,0.4,0
			c0.1,0,0.2,0,0.3-0.1c0.1,0,0.1-0.1,0.2-0.1c0,0,0.1-0.1,0.2-0.1c0,0,0.1,0,0.2,0c0,0,0.1,0,0.2,0s0.2,0,0.2,0c0.1,0,0.2,0,0.2,0
			s0.1,0,0.2,0c0,0,0.1,0,0.1-0.1c0.1,0,0.1-0.1,0.2-0.1c0,0,0.1-0.1,0.2-0.1c0,0,0.1,0,0.2,0c0,0,0.2,0,0.4,0c0.2,0,0.3,0,0.4,0
			s0.1,0,0.1,0c0,0,0.1,0,0.1,0.1c0,0,0.1,0.1,0.1,0.1c0,0,0.1,0.1,0.1,0.1s0.1,0,0.1,0c0,0,0.1,0,0.1,0s0.1,0,0.1,0
			c0,0,0.1,0,0.1-0.1c0,0,0.1-0.1,0.2-0.1c0.1-0.1,0.1-0.2,0.1-0.2c0-0.1,0.1-0.2,0.1-0.2s0.1-0.1,0.1-0.2c0,0,0.1-0.1,0.2-0.2
			c0.1,0,0.2-0.2,0.3-0.2c0.1-0.1,0.2-0.2,0.3-0.2c0,0,0.1-0.1,0.1-0.1c0,0,0.1-0.1,0.1-0.2c0-0.1,0.1-0.2,0.1-0.2
			c0-0.1,0-0.2,0-0.2c0-0.1,0-0.2,0.1-0.2c0-0.1,0.1-0.1,0.1-0.2c0,0,0-0.1,0.1-0.1c0,0,0.1-0.1,0.1-0.1c0,0,0.1-0.1,0.1-0.1
			c0,0,0-0.1,0-0.2c0-0.1,0-0.2,0-0.2s0-0.2,0-0.2s0-0.2,0-0.2c0-0.1,0-0.2,0.1-0.2c0-0.1,0.1-0.1,0.1-0.2s0.1-0.1,0.1-0.2
			c0-0.1,0.1-0.1,0.2-0.2c0,0,0.1-0.1,0.1-0.1c0,0,0.1-0.1,0.2-0.1c0.1,0,0.2-0.1,0.2-0.1c0,0,0.1,0,0.1,0c0,0,0.2,0,0.4,0
			c0.2,0,0.4,0,0.5,0c0.1,0,0.1,0,0.2,0c0,0,0.2,0,0.3,0c0.1,0,0.2,0,0.3,0c0.1,0,0.1,0,0.2-0.1c0,0,0.1,0,0.1-0.1
			c0,0,0.1,0,0.1-0.1c0,0,0.1,0,0.1,0c0,0,0.1,0,0.2,0s0.2,0,0.4,0c0.2,0,0.3,0,0.3,0s0.1,0,0.1,0c0,0,0.1,0,0.1,0c0,0,0.1,0,0.1,0
			c0,0,0.1,0,0.1,0s0.1,0,0.2,0c0.1,0,0.2,0,0.3,0c0,0,0.1,0,0.2,0c0.1,0,0.2,0,0.2,0c0.1,0,0.1,0,0.2,0c0,0,0.1,0,0.1,0
			c0,0,0.1,0,0.1,0c0,0,0,0,0,0c0,0,0,0,0,0c0,0,0,0,0.1,0.1c0,0,0,0.1,0,0.1c0,0,0,0.2,0,0.3c0,0.2,0,0.3,0,0.3c0,0,0,0.1,0,0.1
			c0,0,0,0.1,0,0.1c0,0,0,0.1-0.1,0.1c0,0-0.1,0.1-0.1,0.1c0,0-0.1,0.1-0.1,0.2c0,0-0.1,0.1-0.2,0.2c0,0.1-0.1,0.1-0.2,0.2
			c0,0-0.1,0.1-0.1,0.1c0,0,0,0,0,0.1c0,0,0,0.1-0.1,0.1c0,0-0.1,0.1-0.1,0.1c0,0-0.1,0.1-0.1,0.2c0,0.1,0,0.1,0,0.2
			c0,0,0,0.1,0,0.1v0.1c0,0,0,0.1,0,0.1c0,0,0,0.1,0,0.1c0,0,0,0.1,0,0.1c0,0,0,0.1-0.1,0.1c0,0,0,0.1,0,0.1c0,0,0,0.1,0,0.1
			c0,0,0,0.1,0,0.2c0,0.1,0,0.2,0,0.3c0,0.1,0,0.2,0,0.3c0,0.1,0,0.1,0,0.2c0,0,0,0.1-0.1,0.2c0,0.1-0.1,0.2-0.1,0.2
			c0,0.1-0.1,0.2-0.1,0.2c0,0.1-0.1,0.2-0.1,0.3c0,0.1-0.1,0.2-0.1,0.3c0,0.1-0.1,0.1-0.1,0.2c0,0,0,0.1-0.1,0.1c0,0-0.1,0-0.1,0.1
			c0,0-0.1,0-0.1,0s-0.1,0-0.1,0c0,0-0.1-0.1-0.1-0.1c0,0-0.1-0.1-0.1-0.1c0,0-0.1-0.1-0.1-0.1c0,0-0.1-0.1-0.1-0.1
			c0,0-0.1,0-0.1-0.1c0,0-0.1,0-0.1,0c0,0-0.1,0-0.1,0s-0.1,0-0.1,0c0,0-0.1,0-0.1,0c0,0-0.1,0.1-0.1,0.1c0,0-0.1,0.1-0.1,0.1
			c0,0-0.1,0.1-0.1,0.1c0,0,0,0.1-0.1,0.1c0,0,0,0.1,0,0.1s0,0.1-0.1,0.1c0,0-0.1,0.1-0.1,0.1c0,0-0.1,0.1-0.1,0.1
			c0,0-0.1,0.1-0.2,0.1c-0.1,0-0.1,0-0.2,0c0,0-0.1,0-0.1,0c0,0-0.1,0-0.1,0.1c0,0,0,0.1,0,0.1c0,0-0.1,0.1-0.3,0
			c-0.1,0-0.3,0-0.4,0c-0.1,0-0.2,0-0.3,0s-0.5,0-1.1,0c-0.5,0-1,0-1,0c0,0-0.1,0-0.1,0.1c0,0,0,0.1,0,0.1c0,0,0,0.1,0,0.1
			c0,0,0,0.1,0,0.1c0,0,0,0.1,0,0.1v0.1c0,0,0,0,0,0.1c0,0,0,0.1,0,0.1c0,0,0,0-0.1,0.1c0,0-0.1,0-0.2,0.1c-0.1,0-0.1,0-0.2,0H104
			c-0.1,0-0.1,0-0.1,0.1c0,0.1,0.2,0.2,0.2,0.3c0.1,0.1,0.4,0.4,0.6,0.6c0.3,0.3,0.5,0.5,0.5,0.5c0,0,0,0,0,0.1c0,0,0,0.1,0,0.1
			c0,0,0,0.1,0,0.1c0,0,0,0.1,0,0.1c0,0,0,0.1,0,0.1c0,0,0,0.1-0.1,0.1c0,0-0.4,0-0.8,0c-0.4,0-0.8,0-0.9,0c-0.1,0-0.2,0-0.2,0
			c0,0-0.1,0-0.1,0c0,0-0.2,0.2-0.4,0.5c-0.2,0.3-0.3,0.5-0.4,0.5c0,0,0,0.1-0.1,0.1c0,0,0,0.1,0,0.1c0,0,0,0.1,0,0.1
			c0,0,0,0.1,0,0.1c0,0,0,0.1,0,0.1c0,0,0,0.1,0,0.1c0,0,0,0.1,0,0.2c0,0-0.1,0.2-0.1,0.3s-0.1,0.3-0.2,0.3c0,0-0.4-0.4-0.9-0.9
			c-0.5-0.5-0.9-1-1-1.1c0,0-0.1-0.1-0.1-0.1c0,0-0.1-0.1-0.1-0.1s-0.1-0.1-0.1-0.1c0,0-0.1-0.1-0.2-0.1c-0.1,0-0.2-0.1-0.2-0.1
			c-0.1,0-0.2-0.1-0.3-0.1s-0.2-0.1-0.3-0.1c-0.1,0-0.3-0.1-0.4-0.1c-0.1,0-0.2,0-0.2,0c0,0-0.1,0-0.1,0c0,0-0.1,0-0.1,0
			c0,0-0.1,0-0.1,0c0,0-0.1,0-0.1,0c0,0-0.1,0-0.1,0c0,0-0.1,0-0.2,0c-0.1,0-0.1,0-0.2,0.1c0,0-0.1,0-0.1,0.1c0,0-0.1,0.1-0.1,0.1
			c0,0-0.1,0-0.1,0.1c0,0-0.1,0-0.1,0.1c0,0-0.1,0.1-0.1,0.1c0,0-0.1,0.1-0.1,0.1c0,0-0.1,0-0.1,0s0,0-0.1,0c0,0-0.1,0-0.2,0
			c-0.1,0-0.2,0-0.2,0c0,0-0.1,0-0.1,0c0,0-0.1,0-0.1,0c0,0-0.1,0-0.1,0c0,0-0.1,0-0.1,0c0,0-0.1,0-0.2,0.1c-0.1,0-0.2,0-0.2,0
			c-0.1,0-0.2,0-0.2,0c-0.1,0-0.2,0-0.2,0c0,0-0.1,0-0.2,0c-0.1,0-0.3-0.1-0.6-0.2s-0.6-0.2-0.7-0.2c-0.1,0-0.3-0.1-0.3-0.1
			c0,0-0.1-0.1-0.2-0.1c-0.1,0-0.2-0.1-0.3-0.1c-0.1,0-0.2-0.1-0.3-0.1c-0.1,0-0.2-0.1-0.3-0.1c-0.1,0-0.2-0.1-0.2-0.1
			c0,0,0,0-0.1,0s-0.1,0-0.1-0.1s-0.2-0.1-0.3-0.2c-0.1-0.1-0.3-0.2-0.3-0.2c0,0-0.1,0-0.1,0c0,0-0.2-0.1-0.3-0.1
			c-0.2-0.1-0.3-0.1-0.3-0.1c0,0-0.1,0-0.1,0c0,0-0.1,0-0.1,0c0,0-0.1,0-0.1,0c0,0-0.1,0-0.1,0c0,0-0.1,0-0.1-0.1
			c0,0-0.2-0.1-0.3-0.2c-0.1-0.1-0.3-0.1-0.3-0.2c0,0-0.1,0-0.1,0c0,0-0.1,0-0.1,0c0,0-0.1,0-0.1,0c0,0-0.2-0.1-0.4-0.2
			c-0.2-0.1-0.5-0.3-0.6-0.3c-0.1-0.1-0.2-0.1-0.2-0.1c0,0-0.1,0-0.1-0.1c0,0-0.1-0.1-0.3-0.2c-0.1-0.1-0.3-0.2-0.3-0.3
			c-0.1-0.1-0.2-0.2-0.3-0.3c-0.1-0.1-0.2-0.2-0.2-0.2c0,0,0,0,0,0c0,0,0,0-0.1,0c0,0-0.1,0-0.3,0c-0.1,0-0.2,0-0.3,0
			c0,0-0.1,0-0.1,0c0,0-0.1,0-0.1-0.1c-0.1,0-0.3-0.1-0.5-0.2c-0.2-0.1-0.4-0.2-0.4-0.2c0,0-0.1,0-0.1-0.1c0,0-0.2-0.2-0.5-0.5
			c-0.2-0.2-0.5-0.4-0.5-0.5c0,0,0-0.1-0.1-0.1c0,0,0-0.1-0.1-0.1c0,0,0-0.1-0.1-0.1c0,0,0,0-0.1-0.1c0,0-0.1,0-0.1-0.1
			s-0.1-0.1-0.2-0.1c-0.1,0-0.2-0.1-0.3-0.1c-0.1,0-0.2-0.1-0.2-0.1c0,0-0.1,0-0.1,0c0,0-0.1-0.1-0.1-0.1c0,0-0.1-0.1-0.2-0.2
			c-0.1-0.1-0.2-0.2-0.2-0.2c-0.1-0.1-0.2-0.2-0.2-0.3c-0.1-0.1-0.2-0.2-0.2-0.3c0-0.1-0.1-0.1-0.1-0.1c0,0,0,0,0-0.1
			c0,0,0-0.1,0-0.1s0-0.1,0-0.1s0-0.1-0.1-0.2c0-0.1,0-0.2,0-0.2c0-0.1,0-0.2,0-0.2c0,0,0-0.1,0-0.1c0,0,0-0.1,0-0.1
			c0,0,0-0.1,0-0.1c0,0,0-0.1,0-0.1c0,0,0,0,0-0.1c0,0,0-0.1,0-0.1c0,0,0,0,0.1-0.1c0,0,0.1,0,0.1-0.1c0,0,0.1,0,0.1,0
			c0,0,0.1,0,0.1,0c0,0,0,0,0-0.1c0,0,0-0.1,0-0.1s0-0.1,0-0.2c0-0.1,0-0.1,0-0.2c0,0,0-0.1,0-0.1c0,0,0-0.1,0.1-0.1
			c0,0,0.1-0.1,0.1-0.1c0,0,0.1,0,0.1-0.1c0,0,0,0,0-0.1c0,0,0-0.1,0-0.2c0-0.1,0-0.2,0-0.3c0-0.1,0-0.1,0-0.2c0,0,0-0.1,0-0.1
			c0,0-0.1-0.1-0.1-0.1c0,0,0-0.1-0.1-0.1c0,0,0-0.1,0-0.1c0,0,0-0.1-0.1-0.1c0,0,0-0.1-0.1-0.1c0,0,0-0.1,0-0.1c0,0,0-0.1,0-0.1
			s0-0.3,0-0.5c0-0.2,0-0.4,0-0.5c0,0,0-0.1,0-0.1c0,0,0-0.1,0-0.1c0,0-0.1-0.1-0.1-0.2c0-0.1-0.1-0.1-0.1-0.2c0,0-0.1-0.1-0.1-0.2
			s-0.1-0.1-0.1-0.1c0,0,0-0.1-0.1-0.1c0,0-0.1-0.1-0.1-0.2c0-0.1-0.1-0.2-0.2-0.4s-0.2-0.4-0.3-0.5c-0.1-0.1-0.3-0.5-0.6-0.9
			c-0.2-0.3-0.4-0.6-0.4-0.6c0,0-0.1,0-0.1-0.1s-0.1,0-0.1-0.1c0,0-0.1,0-0.1-0.1c0,0-0.1-0.1-0.2-0.3c-0.1-0.1-0.2-0.2-0.2-0.3
			c0,0,0-0.1,0-0.1s0-0.1,0-0.1c0,0,0-0.1,0-0.1c0,0,0-0.1,0-0.1c0,0,0-0.1,0-0.1c0,0-0.1-0.2-0.3-0.4c-0.2-0.2-0.3-0.3-0.3-0.3
			c0,0,0,0-0.1,0c0,0,0,0-0.1,0c0,0,0,0-0.1,0c0,0-0.1,0-0.1,0c0,0,0,0-0.1,0c0,0-0.1,0-0.1,0c0,0-0.1,0-0.1,0c0,0,0,0-0.1-0.1
			c0,0,0-0.1,0-0.1c0,0,0-0.1,0-0.1c0,0,0-0.1,0-0.1c0,0,0-0.1,0-0.1c0,0,0,0,0-0.1c0,0,0,0-0.1,0c0,0,0,0-0.1,0s0,0-0.1,0
			c0,0,0,0-0.1-0.1c0,0,0,0,0-0.1c0,0,0-0.1,0-0.2c0-0.1,0-0.2,0-0.2c0,0,0-0.1,0-0.1c0,0,0-0.1,0.1-0.1c0,0,0,0,0.1-0.1
			c0,0,0.1,0,0.1-0.1c0,0,0,0,0.1,0s0,0,0-0.1c0,0,0-0.1,0-0.1c0,0,0-0.1,0-0.1c0,0,0-0.1,0-0.1c0,0,0-0.1,0-0.1c0,0,0-0.1,0-0.1
			c0,0,0-0.1,0-0.1c0,0,0-0.1-0.1-0.1c0,0-0.1,0-0.1-0.1c0,0-0.1-0.1-0.1-0.1c0,0-0.1,0-0.1,0c0,0-0.1,0-0.1,0c0,0-0.1,0-0.1,0
			c0,0-0.1,0-0.1,0c0,0,0,0-0.1,0c0,0,0,0,0-0.1c0,0-0.1-0.1-0.1-0.2s-0.1-0.2-0.1-0.2c0,0,0,0-0.1-0.1c0,0,0,0-0.1,0s0,0-0.1,0
			c0,0,0,0-0.1,0c0,0-0.1,0-0.1,0c0,0-0.1,0-0.1,0c0,0-0.1-0.1-0.1-0.1c0,0,0-0.1-0.1-0.1c0,0-0.1-0.2-0.1-0.3
			c0-0.1-0.1-0.3-0.1-0.3c0,0,0-0.1,0-0.1c0,0,0-0.1,0-0.1c0,0,0-0.1,0-0.1c0,0,0-0.1,0-0.1c0,0,0-0.1,0-0.1c0,0,0,0,0-0.1
			c0,0,0,0,0-0.1c0,0,0,0-0.1,0c0,0,0,0-0.1,0c0,0-0.1,0-0.1,0c0,0-0.1,0-0.1,0c0,0,0,0-0.1,0c0,0-0.2-0.2-0.3-0.3
			c-0.1-0.2-0.3-0.4-0.4-0.5c-0.1-0.1-0.2-0.3-0.2-0.3c0,0,0-0.1,0-0.1c0,0,0-0.1-0.1-0.1c0,0-0.1-0.3-0.2-0.5
			c-0.1-0.2-0.2-0.6-0.2-0.8c-0.1-0.2-0.1-0.4-0.1-0.5c0-0.1,0-0.4-0.1-0.7c0-0.3-0.1-0.9-0.1-1.2c0-0.4-0.1-0.7-0.1-0.7
			c0,0,0-0.1,0-0.1s0-0.1,0-0.1c0,0,0-0.1-0.1-0.1c0,0-0.1-0.1-0.1-0.1c0,0-0.1-0.1-0.2-0.1c-0.1,0-0.1-0.1-0.1-0.1
			c0,0-0.1-0.1-0.1-0.1c0,0,0-0.1-0.1-0.1c0,0,0-0.1-0.1-0.1c0,0,0,0-0.1-0.1c0,0-0.1,0-0.1,0c0,0-0.1,0-0.2,0s-0.1,0-0.2,0
			c0,0-0.1,0-0.1,0c0,0-0.1,0-0.1,0c0,0-0.2-0.1-0.3-0.2c-0.1-0.1-0.3-0.2-0.3-0.2c0,0-0.1,0-0.1,0.1c0,0.1-0.1,0.1-0.1,0.2
			c0,0,0,0.1,0,0.2c0,0.1,0,0.3-0.1,0.5c0,0.2,0,0.4,0,0.6c0,0.1,0,0.3,0,0.4v0.2c0,0,0,0.1,0,0.2c0,0,0,0.1,0,0.1c0,0,0,0.1,0,0.2
			c0,0.1,0,0.1,0,0.2c0,0,0,0.1,0,0.1c0,0,0,0.1,0,0.1c0,0,0,0.1,0,0.1c0,0,0,0.1,0.1,0.2c0,0.1,0.2,0.4,0.4,0.6
			c0.2,0.3,0.3,0.5,0.3,0.5c0,0,0,0.1,0.1,0.1c0,0,0,0.1,0.1,0.1c0,0,0,0.1,0,0.2c0,0,0,0.1,0,0.1c0,0,0,0.1,0,0.1
			c0,0,0,0.1,0.1,0.1c0,0,0,0.1,0.1,0.1c0,0,0.1,0.1,0.1,0.1c0,0,0,0.1,0.1,0.1c0,0,0,0,0,0.1c0,0,0,0,0,0.1c0,0,0,0.1,0,0.1
			c0,0,0,0.1,0,0.1c0,0,0,0.1,0,0.1c0,0,0,0.1,0,0.1c0,0,0.1,0.1,0.1,0.1c0,0,0.1,0.1,0.1,0.1c0,0,0,0,0.1,0.1c0,0,0,0,0,0.1
			c0,0,0,0.1,0,0.1c0,0,0,0.2,0,0.3s0,0.3,0,0.3c0,0,0,0.1,0,0.1c0,0,0,0.1,0,0.1c0,0,0,0.1,0,0.1s0,0,0,0.1c0,0,0,0,0,0
			c0,0,0,0,0,0c0,0,0,0,0,0s0,0,0.1,0c0,0,0,0,0.1,0c0,0,0,0,0.1,0c0,0,0,0,0.1,0c0,0,0,0.1,0.1,0.1c0,0,0.1,0.1,0.1,0.1
			c0,0,0,0.1,0,0.1c0,0,0,0.2,0,0.3c0,0.1,0,0.3,0,0.3c0,0,0,0.1,0,0.1c0,0,0,0.1,0.1,0.1c0,0,0,0,0.1,0c0,0,0,0,0.1,0.1
			c0,0,0,0.1,0,0.1c0,0,0,0.1,0,0.1c0,0,0,0.1,0,0.1c0,0,0,0.1,0,0.1c0,0,0,0,0.1,0c0,0,0,0,0.1,0c0,0,0,0,0.1,0c0,0,0,0,0,0
			c0,0,0,0,0,0.1c0,0,0,0.2,0.1,0.3c0,0.1,0.1,0.3,0.1,0.3c0,0,0,0,0,0.1c0,0,0,0,0,0.1c0,0,0,0.1,0,0.1c0,0,0,0.1,0,0.2
			c0,0.1,0,0.2,0,0.3c0,0,0,0.1,0,0.2c0,0,0,0.1,0,0.1c0,0,0,0.1,0,0.1c0,0,0,0.1,0,0.1c0,0,0,0.1,0,0.1c0,0,0,0.1,0,0.1
			c0,0,0,0.1,0,0.1c0,0,0,0.1,0,0.1c0,0,0.1,0.1,0.1,0.1c0,0,0.1,0,0.1,0.1c0,0,0,0.1,0,0.1c0,0,0,0.2,0.1,0.3c0,0.1,0,0.3,0.1,0.3
			c0,0,0,0.1,0,0.1c0,0,0.1,0.1,0.1,0.1c0,0,0.1,0,0.1,0.1c0,0,0,0,0.1,0.1c0,0,0,0.1,0,0.1c0,0,0,0.1,0,0.1c0,0,0,0.1,0,0.1
			c0,0,0,0.1,0,0.1c0,0,0,0.1,0,0.1c0,0,0,0.1-0.1,0.1c0,0,0,0.1-0.1,0.1c0,0,0,0.1,0,0.1c0,0,0,0.1,0,0.1c0,0,0,0.1,0,0.1
			c0,0,0,0,0,0.1c0,0,0,0,0.1,0.1c0,0,0.1,0,0.1,0.1c0,0,0.1,0.1,0.2,0.1c0.1,0,0.1,0,0.2,0c0,0,0.1,0,0.1,0c0,0,0.1,0,0.1,0.1
			c0,0,0.1,0.1,0.1,0.1c0,0,0.1,0.1,0.1,0.1c0,0,0.1,0.2,0.1,0.3c0,0.1,0.1,0.3,0.2,0.4c0,0.1,0.1,0.2,0.1,0.3c0,0,0.1,0.1,0.1,0.1
			c0,0,0,0.1,0.1,0.1c0,0,0,0.1,0,0.1c0,0,0,0.1,0,0.1c0,0,0,0.1,0,0.1v0.1c0,0,0,0.1,0,0.1c0,0,0,0.1,0,0.1c0,0,0,0.1,0,0.1
			c0,0,0,0.1,0,0.1c0,0-0.1,0.1-0.1,0.1c0,0-0.1,0.1-0.1,0.1c0,0-0.1,0-0.1,0c0,0-0.1,0-0.1,0c0,0-0.1,0-0.1,0c0,0-0.1,0-0.1,0
			c0,0-0.1,0-0.1-0.1c0,0-0.1-0.1-0.1-0.1c0,0,0-0.1-0.1-0.1c0-0.1,0-0.1,0-0.2c0-0.1,0-0.1,0-0.2c0,0,0-0.1,0-0.2
			c0-0.1,0-0.1,0-0.1c0,0,0-0.1-0.1-0.1c0,0-0.3-0.3-0.5-0.7c-0.3-0.3-0.5-0.6-0.6-0.7c0-0.1-0.1-0.1-0.1-0.2c0,0-0.1-0.1-0.1-0.1
			c0,0-0.1-0.1-0.1-0.1c0,0-0.1,0-0.1-0.1c0,0-0.1,0-0.1,0c0,0-0.1,0-0.1-0.1c0,0-0.1-0.1-0.1-0.1c0,0-0.1-0.1-0.1-0.2
			c0-0.1-0.1-0.1-0.1-0.2c0,0,0-0.1-0.1-0.2c0-0.1,0-0.1,0-0.2c0-0.1,0-0.1,0-0.2c0-0.1,0-0.1,0-0.2c0,0,0-0.1,0-0.2
			c0,0,0-0.1,0.1-0.1c0,0,0.1-0.1,0.1-0.1c0,0,0.1-0.1,0.1-0.2c0,0,0-0.1,0-0.2c0-0.1,0-0.2,0-0.3c0-0.1,0-0.2,0-0.3
			c0-0.1,0-0.2,0-0.2c0,0,0-0.1,0-0.2c0-0.1-0.1-0.2-0.1-0.3c0-0.1-0.1-0.2-0.1-0.2c0,0-0.1-0.1-0.1-0.1c0,0-0.1-0.1-0.1-0.1
			c0,0-0.2-0.2-0.4-0.4c-0.2-0.2-0.3-0.4-0.3-0.4c0,0,0,0-0.1-0.1c0,0-0.1,0-0.1-0.1c0,0-0.1,0-0.1-0.1c0,0-0.1,0-0.1,0
			c0,0-0.1,0-0.2-0.1c-0.1,0-0.1-0.1-0.2-0.1c0,0-0.1-0.1-0.2-0.1c0,0-0.2-0.3-0.4-0.5c-0.2-0.2-0.4-0.4-0.4-0.5
			c0-0.1-0.1-0.1-0.1-0.2c0,0-0.1-0.1-0.1-0.1c0,0,0-0.1,0-0.1c0,0,0-0.1,0-0.1c0,0,0-0.1,0-0.1c0,0,0.1,0,0.1,0c0,0,0.1,0,0.1,0
			s0.1,0,0.2,0c0,0,0.1,0,0.2,0c0,0,0.1,0,0.1,0c0,0,0.1,0,0.1,0c0,0,0.1-0.1,0.1-0.1c0,0,0.1-0.1,0.1-0.1c0,0,0.1-0.1,0.1-0.2
			c0-0.1,0.1-0.1,0.1-0.2c0-0.1,0.1-0.1,0.1-0.2c0,0,0-0.1,0-0.2s0-0.1,0-0.2s0-0.2-0.1-0.3c0-0.1-0.1-0.2-0.1-0.3
			c0-0.1-0.2-0.3-0.3-0.6c-0.2-0.3-0.3-0.6-0.3-0.6c0,0,0-0.1-0.1-0.1c0,0-0.1-0.1-0.1-0.1c0,0-0.1-0.1-0.1-0.1c0,0-0.1,0-0.1,0
			c0,0-0.1,0-0.1,0s-0.1,0-0.1-0.1c0,0-0.1-0.1-0.1-0.1c0,0-0.1-0.1-0.1-0.1s-0.1-0.1-0.1-0.1c0,0,0-0.1,0-0.1c0,0,0-0.1,0-0.2
			c0-0.1,0-0.3,0-0.6c0-0.3,0-0.5,0-0.6s0-0.1,0-0.2c0,0,0-0.1,0-0.2c0-0.1,0-0.1,0-0.2c0-0.1,0-0.1-0.1-0.2c0,0,0-0.1,0-0.2
			c0-0.1,0-0.2,0-0.2s0-0.2,0-0.3c0-0.1,0-0.2,0-0.3c0-0.1,0-0.2,0-0.3c0-0.1,0-0.2,0-0.2C68.9,155.7,68.9,155.3,68.9,154.9"/>
		<line class="st8" x1="67.8" y1="206.7" x2="115.9" y2="206.7"/>
	</g>
	<g>
		<path class="st9" d="M75.9,210.4c-0.3-0.7-0.7-1.8-1.2-3.2c-0.5-1.4-0.9-2.5-1.2-3.2c-0.1,2.9-0.2,5.1-0.2,6.8h-1.7l0.6-9.9H74
			c0.9,2.8,1.7,5,2.4,6.6c0.1,0.2,0.1,0.3,0.2,0.3s0.1-0.1,0.2-0.3l2.6-6.6h1.7l0.3,5.3c0.1,2.4,0.3,3.9,0.4,4.6H80l-0.3-6.8
			c-0.6,1.3-1.4,3.5-2.5,6.5H75.9z"/>
		<path class="st9" d="M85.1,207.5v0.2c0,0.6,0.2,1,0.5,1.4c0.4,0.3,0.8,0.5,1.5,0.5c0.6,0,1.2-0.1,1.6-0.3v1.4
			c-0.5,0.2-1.1,0.2-1.8,0.2c-1.1,0-1.9-0.3-2.6-0.9c-0.6-0.6-1-1.5-1-2.8c0-1.1,0.3-2,0.9-2.6c0.6-0.6,1.4-1,2.4-1
			c0.9,0,1.5,0.3,2,0.8c0.4,0.5,0.6,1.3,0.6,2.2c0,0.3,0,0.6-0.1,0.9H85.1z M85.2,206.3h2.1c0.2,0,0.3-0.1,0.3-0.3
			c0-0.3-0.1-0.5-0.3-0.7s-0.4-0.2-0.8-0.2c-0.4,0-0.7,0.1-0.9,0.3C85.4,205.6,85.3,205.9,85.2,206.3z M86.8,203.1h-1.4
			c0.6-0.6,1.2-1.3,1.9-2.3h1.7L86.8,203.1z"/>
		<path class="st9" d="M93.2,208.8c0-0.1-0.1-0.1-0.1-0.1s-0.1,0-0.1,0.1c-0.4,0.6-0.8,1.3-1.2,2h-1.8l2.4-3.4
			c-0.9-1.3-1.7-2.4-2.6-3.5h2l1.3,2c0.1,0.1,0.2,0.1,0.2,0l1.4-2h1.9c-0.8,0.9-1.7,2-2.6,3.4l2.4,3.5h-1.9
			C94,210,93.6,209.4,93.2,208.8z"/>
		<path class="st9" d="M98.3,200.9c0.3,0,0.5,0.1,0.7,0.3s0.3,0.4,0.3,0.7c0,0.3-0.1,0.5-0.3,0.7s-0.4,0.3-0.7,0.3
			c-0.3,0-0.6-0.1-0.7-0.3c-0.2-0.2-0.3-0.4-0.3-0.7c0-0.3,0.1-0.5,0.3-0.7S98,200.9,98.3,200.9z M97.5,203.9h1.7
			c0,1.8-0.1,4-0.1,6.9h-1.6V203.9z"/>
		<path class="st9" d="M102.4,207.3c0,1.5,0.6,2.2,1.8,2.2c0.4,0,0.7,0,1.1-0.1v1.4c-0.4,0.1-0.8,0.1-1.2,0.1
			c-1.1,0-1.9-0.3-2.6-0.9c-0.6-0.6-0.9-1.5-0.9-2.7c0-1.1,0.3-2,0.9-2.7s1.5-1,2.6-1c0.5,0,0.9,0,1.2,0.1v1.5
			c-0.4-0.1-0.7-0.2-1.2-0.2C103,205.1,102.4,205.9,102.4,207.3z"/>
		<path class="st9" d="M109.4,203.7c1,0,1.7,0.3,2.3,1c0.6,0.7,0.9,1.5,0.9,2.6c0,1.1-0.3,2-0.9,2.6c-0.6,0.7-1.3,1-2.3,1
			c-0.9,0-1.7-0.3-2.3-1c-0.6-0.7-0.9-1.6-0.9-2.6c0-1.1,0.3-2,0.9-2.6C107.7,204,108.5,203.7,109.4,203.7z M109.4,205.1
			c-0.4,0-0.8,0.2-1,0.5c-0.2,0.4-0.4,0.9-0.4,1.6c0,0.7,0.1,1.3,0.4,1.6c0.3,0.4,0.6,0.6,1,0.6c0.4,0,0.8-0.2,1-0.6
			s0.4-0.9,0.4-1.7c0-0.7-0.1-1.2-0.4-1.6C110.2,205.3,109.8,205.1,109.4,205.1z"/>
	</g>
	<g>
		<path class="st10" d="M378.6,168.6h-6.2v-1.3c0.4-0.4,0.9-0.7,1.3-1.1c0.4-0.4,0.8-0.7,1.2-1.1c0.8-0.8,1.3-1.4,1.6-1.8
			s0.4-0.9,0.4-1.4c0-0.5-0.2-0.8-0.5-1.1c-0.3-0.3-0.7-0.4-1.3-0.4c-0.4,0-0.8,0.1-1.2,0.2c-0.4,0.1-0.9,0.3-1.3,0.6h-0.1v-1.3
			c0.3-0.1,0.7-0.3,1.2-0.4s0.9-0.2,1.4-0.2c0.9,0,1.7,0.2,2.2,0.7c0.5,0.4,0.8,1.1,0.8,1.8c0,0.3,0,0.7-0.1,1s-0.2,0.6-0.4,0.9
			c-0.2,0.3-0.3,0.5-0.6,0.7c-0.2,0.2-0.5,0.5-0.8,0.8c-0.4,0.4-0.9,0.8-1.3,1.2c-0.5,0.4-0.9,0.8-1.3,1.1h4.9V168.6z"/>
		<path class="st10" d="M386.9,166.1h-1.3v2.6h-1.2v-2.6H380v-1.4l4.4-5.1h1.1v5.6h1.3V166.1z M384.4,165.1V161l-3.5,4.1H384.4z"/>
		<path class="st10" d="M390.6,168.6h-1.5v-1.7h1.5V168.6z"/>
		<path class="st10" d="M398.6,164.3c0.2,0.2,0.4,0.4,0.5,0.7s0.2,0.6,0.2,1c0,0.4-0.1,0.8-0.2,1.1c-0.2,0.3-0.4,0.6-0.6,0.9
			c-0.3,0.3-0.7,0.5-1.1,0.6c-0.4,0.1-0.9,0.2-1.4,0.2c-0.5,0-1-0.1-1.5-0.2c-0.5-0.1-0.9-0.3-1.2-0.4V167h0.1
			c0.3,0.2,0.8,0.4,1.2,0.6c0.5,0.2,0.9,0.2,1.4,0.2c0.3,0,0.5,0,0.8-0.1c0.3-0.1,0.5-0.2,0.7-0.4c0.2-0.2,0.3-0.4,0.4-0.6
			c0.1-0.2,0.1-0.5,0.1-0.8c0-0.3-0.1-0.6-0.2-0.8c-0.1-0.2-0.2-0.4-0.4-0.5c-0.2-0.1-0.4-0.2-0.7-0.3c-0.3,0-0.5-0.1-0.8-0.1h-0.5
			v-1h0.4c0.6,0,1.1-0.1,1.5-0.4c0.4-0.3,0.6-0.6,0.6-1.1c0-0.2,0-0.4-0.1-0.6c-0.1-0.2-0.2-0.3-0.4-0.4c-0.2-0.1-0.4-0.2-0.6-0.2
			c-0.2,0-0.4-0.1-0.7-0.1c-0.4,0-0.8,0.1-1.2,0.2c-0.4,0.1-0.8,0.3-1.2,0.6h-0.1v-1.3c0.3-0.1,0.7-0.3,1.2-0.4
			c0.5-0.1,0.9-0.2,1.4-0.2c0.4,0,0.8,0,1.2,0.1s0.6,0.2,0.9,0.4c0.3,0.2,0.5,0.4,0.7,0.7s0.2,0.6,0.2,1c0,0.5-0.2,0.9-0.5,1.3
			c-0.4,0.4-0.8,0.6-1.3,0.7v0.1c0.2,0,0.4,0.1,0.7,0.2C398.2,164,398.4,164.1,398.6,164.3z"/>
		<path class="st10" d="M407.5,160.9l-4.1,7.7h-1.3l4.4-8h-5.2v-1.1h6.2V160.9z"/>
		<path class="st10" d="M413.8,162.1c0,0.9-0.2,1.6-0.6,2c-0.4,0.4-0.9,0.7-1.7,0.7c-0.7,0-1.3-0.2-1.7-0.7c-0.4-0.4-0.6-1.1-0.6-2
			c0-0.9,0.2-1.6,0.6-2s0.9-0.7,1.7-0.7c0.7,0,1.3,0.2,1.7,0.7C413.6,160.5,413.8,161.2,413.8,162.1z M412.7,162.1
			c0-0.7-0.1-1.2-0.3-1.5c-0.2-0.3-0.5-0.4-0.9-0.4c-0.4,0-0.7,0.1-0.9,0.4c-0.2,0.3-0.3,0.8-0.3,1.5s0.1,1.2,0.3,1.5
			c0.2,0.3,0.5,0.4,0.9,0.4c0.4,0,0.7-0.1,0.9-0.4C412.6,163.3,412.7,162.8,412.7,162.1z M418,159.6l-4.8,9.1h-1l4.8-9.1H418z
			 M421,166.1c0,0.9-0.2,1.6-0.6,2s-0.9,0.7-1.7,0.7c-0.7,0-1.3-0.2-1.7-0.7c-0.4-0.4-0.6-1.1-0.6-2c0-0.9,0.2-1.6,0.6-2
			c0.4-0.4,0.9-0.7,1.7-0.7c0.7,0,1.3,0.2,1.7,0.7C420.8,164.5,421,165.2,421,166.1z M419.9,166.1c0-0.7-0.1-1.2-0.3-1.5
			c-0.2-0.3-0.5-0.4-0.9-0.4c-0.4,0-0.7,0.1-0.9,0.4c-0.2,0.3-0.3,0.8-0.3,1.5s0.1,1.2,0.3,1.5c0.2,0.3,0.5,0.4,0.9,0.4
			c0.4,0,0.7-0.1,0.9-0.4S419.9,166.8,419.9,166.1z"/>
	</g>
	<g>
		<path class="st10" d="M378.6,190.7h-6.2v-1.3c0.4-0.4,0.9-0.7,1.3-1.1c0.4-0.4,0.8-0.7,1.2-1.1c0.8-0.8,1.3-1.4,1.6-1.8
			s0.4-0.9,0.4-1.4c0-0.5-0.2-0.8-0.5-1.1c-0.3-0.3-0.7-0.4-1.3-0.4c-0.4,0-0.8,0.1-1.2,0.2c-0.4,0.1-0.9,0.3-1.3,0.6h-0.1V182
			c0.3-0.1,0.7-0.3,1.2-0.4s0.9-0.2,1.4-0.2c0.9,0,1.7,0.2,2.2,0.7c0.5,0.4,0.8,1.1,0.8,1.8c0,0.3,0,0.7-0.1,1s-0.2,0.6-0.4,0.9
			c-0.2,0.3-0.3,0.5-0.6,0.7c-0.2,0.2-0.5,0.5-0.8,0.8c-0.4,0.4-0.9,0.8-1.3,1.2c-0.5,0.4-0.9,0.8-1.3,1.1h4.9V190.7z"/>
		<path class="st10" d="M386.7,183l-4.1,7.7h-1.3l4.4-8h-5.2v-1.1h6.2V183z"/>
		<path class="st10" d="M393,184.1c0,0.9-0.2,1.6-0.6,2c-0.4,0.4-0.9,0.7-1.7,0.7c-0.7,0-1.3-0.2-1.7-0.7c-0.4-0.4-0.6-1.1-0.6-2
			c0-0.9,0.2-1.6,0.6-2s0.9-0.7,1.7-0.7c0.7,0,1.3,0.2,1.7,0.7C392.8,182.6,393,183.2,393,184.1z M391.9,184.1
			c0-0.7-0.1-1.2-0.3-1.5c-0.2-0.3-0.5-0.4-0.9-0.4c-0.4,0-0.7,0.1-0.9,0.4c-0.2,0.3-0.3,0.8-0.3,1.5s0.1,1.2,0.3,1.5
			c0.2,0.3,0.5,0.4,0.9,0.4c0.4,0,0.7-0.1,0.9-0.4C391.8,185.3,391.9,184.8,391.9,184.1z M397.2,181.6l-4.8,9.1h-1l4.8-9.1H397.2z
			 M400.2,188.2c0,0.9-0.2,1.6-0.6,2s-0.9,0.7-1.7,0.7c-0.7,0-1.3-0.2-1.7-0.7c-0.4-0.4-0.6-1.1-0.6-2c0-0.9,0.2-1.6,0.6-2
			c0.4-0.4,0.9-0.7,1.7-0.7c0.7,0,1.3,0.2,1.7,0.7C400,186.6,400.2,187.3,400.2,188.2z M399.1,188.2c0-0.7-0.1-1.2-0.3-1.5
			c-0.2-0.3-0.5-0.4-0.9-0.4c-0.4,0-0.7,0.1-0.9,0.4c-0.2,0.3-0.3,0.8-0.3,1.5s0.1,1.2,0.3,1.5c0.2,0.3,0.5,0.4,0.9,0.4
			c0.4,0,0.7-0.1,0.9-0.4S399.1,188.9,399.1,188.2z"/>
	</g>
	<g>
		<path class="st10" d="M380.5,211.1h-7.1v-1.5c0.5-0.4,1.1-0.8,1.6-1.3c0.5-0.4,1-0.8,1.3-1.1c0.5-0.5,0.8-0.9,1-1.2
			c0.2-0.4,0.3-0.7,0.3-1c0-0.4-0.1-0.7-0.4-1c-0.3-0.2-0.7-0.3-1.2-0.3c-0.4,0-0.8,0.1-1.2,0.2c-0.4,0.2-0.8,0.4-1.2,0.6h-0.2v-2
			c0.3-0.1,0.7-0.3,1.3-0.4s1.1-0.2,1.7-0.2c1.1,0,2,0.2,2.6,0.7c0.6,0.5,0.9,1.2,0.9,2c0,0.6-0.1,1.1-0.4,1.6
			c-0.3,0.5-0.7,1-1.3,1.6c-0.4,0.3-0.7,0.7-1.1,0.9s-0.6,0.5-0.8,0.6h4.1V211.1z"/>
		<path class="st10" d="M389.5,206.6c0,0.8-0.1,1.5-0.2,2.1c-0.1,0.6-0.4,1.1-0.6,1.5c-0.3,0.4-0.7,0.7-1.2,0.9
			c-0.5,0.2-1.1,0.3-1.7,0.3c-0.7,0-1.3-0.1-1.7-0.3c-0.5-0.2-0.9-0.5-1.2-0.9c-0.3-0.4-0.5-0.9-0.7-1.5c-0.1-0.6-0.2-1.3-0.2-2
			c0-0.8,0.1-1.5,0.2-2.1c0.1-0.6,0.4-1.1,0.7-1.5c0.3-0.4,0.7-0.7,1.2-0.9c0.5-0.2,1.1-0.3,1.7-0.3c0.7,0,1.3,0.1,1.8,0.3
			c0.5,0.2,0.9,0.5,1.2,0.9c0.3,0.4,0.5,0.9,0.6,1.5C389.4,205.1,389.5,205.8,389.5,206.6z M387.1,206.6c0-1.1-0.1-1.9-0.3-2.3
			c-0.2-0.5-0.6-0.7-1.1-0.7s-0.9,0.2-1.1,0.7c-0.2,0.5-0.3,1.3-0.3,2.4c0,1.1,0.1,1.9,0.3,2.3s0.6,0.7,1.1,0.7s0.8-0.2,1.1-0.7
			S387.1,207.7,387.1,206.6z"/>
		<path class="st10" d="M393.7,211.1h-2.3v-2.4h2.3V211.1z"/>
		<path class="st10" d="M403.2,208.6c0,0.8-0.3,1.5-1,2s-1.6,0.8-2.8,0.8c-0.7,0-1.2-0.1-1.7-0.2c-0.5-0.1-0.9-0.3-1.2-0.6
			c-0.3-0.2-0.5-0.5-0.7-0.8s-0.2-0.7-0.2-1c0-0.5,0.1-0.9,0.4-1.2s0.7-0.7,1.4-0.9v0c-0.5-0.2-0.9-0.6-1.2-0.9s-0.4-0.8-0.4-1.3
			c0-0.7,0.3-1.3,1-1.8c0.7-0.5,1.5-0.7,2.6-0.7c1.1,0,2,0.2,2.6,0.6c0.6,0.4,1,1,1,1.7c0,0.4-0.1,0.8-0.4,1.2
			c-0.3,0.3-0.7,0.6-1.2,0.9v0c0.6,0.2,1.1,0.6,1.4,1C403.1,207.6,403.2,208,403.2,208.6z M400.9,208.7c0-0.3-0.1-0.5-0.2-0.7
			s-0.4-0.3-0.9-0.5c-0.1-0.1-0.3-0.1-0.6-0.2c-0.3-0.1-0.5-0.2-0.6-0.2c-0.2,0.2-0.3,0.4-0.5,0.6c-0.1,0.2-0.2,0.5-0.2,0.8
			c0,0.4,0.2,0.8,0.5,1c0.3,0.2,0.7,0.4,1.2,0.4c0.1,0,0.3,0,0.5-0.1c0.2,0,0.3-0.1,0.5-0.2c0.1-0.1,0.3-0.2,0.4-0.3
			C400.8,209.1,400.9,208.9,400.9,208.7z M400.7,204.4c0-0.3-0.1-0.6-0.4-0.7c-0.2-0.2-0.6-0.3-0.9-0.3c-0.1,0-0.3,0-0.4,0.1
			c-0.2,0-0.3,0.1-0.4,0.2c-0.1,0.1-0.2,0.2-0.3,0.3c-0.1,0.1-0.1,0.2-0.1,0.4c0,0.2,0.1,0.4,0.2,0.6c0.1,0.1,0.4,0.3,0.7,0.4
			c0.1,0,0.3,0.1,0.5,0.2s0.4,0.2,0.7,0.2c0.2-0.2,0.3-0.4,0.4-0.6C400.7,204.9,400.7,204.7,400.7,204.4z"/>
		<path class="st10" d="M410.3,204.8c0,1-0.2,1.8-0.7,2.3c-0.5,0.5-1.2,0.7-2,0.7c-0.9,0-1.6-0.2-2.1-0.7s-0.7-1.2-0.7-2.2
			c0-1,0.2-1.8,0.7-2.2c0.5-0.5,1.2-0.7,2.1-0.7c0.9,0,1.6,0.2,2.1,0.7C410.1,203.1,410.3,203.8,410.3,204.8z M408.5,204.8
			c0-0.7-0.1-1.1-0.2-1.3s-0.4-0.3-0.7-0.3s-0.6,0.1-0.7,0.3s-0.2,0.7-0.2,1.3s0.1,1.1,0.2,1.3c0.2,0.2,0.4,0.3,0.7,0.3
			s0.6-0.1,0.7-0.3C408.5,205.9,408.5,205.5,408.5,204.8z M415.1,202.1l-4.8,9.1h-1.6l4.8-9.1H415.1z M419,208.3
			c0,1-0.2,1.8-0.7,2.3s-1.1,0.7-2,0.7c-0.9,0-1.6-0.2-2.1-0.7c-0.5-0.5-0.7-1.2-0.7-2.2c0-1,0.2-1.8,0.7-2.2
			c0.5-0.5,1.2-0.7,2.1-0.7c0.9,0,1.6,0.2,2.1,0.7S419,207.4,419,208.3z M417.2,208.4c0-0.7-0.1-1.1-0.2-1.3
			c-0.2-0.2-0.4-0.3-0.7-0.3s-0.6,0.1-0.7,0.3c-0.2,0.2-0.2,0.7-0.2,1.3s0.1,1.1,0.2,1.3s0.4,0.3,0.7,0.3s0.6-0.1,0.7-0.3
			C417.1,209.5,417.2,209,417.2,208.4z"/>
	</g>
	<line class="st11" x1="273.4" y1="166.4" x2="353.2" y2="166.4"/>
	<path class="st12" d="M354.4,166.4L354.4,166.4 M270.9,166.4L270.9,166.4"/>
	<line class="st13" x1="263.7" y1="166.4" x2="267.2" y2="166.4"/>
	<path class="st14" d="M268.4,166.4L268.4,166.4 M261.3,166.4L261.3,166.4"/>
	<g>
		<defs>
			<rect id="SVGID_5_" x="10.3" y="10.4" width="425.8" height="207.6"/>
		</defs>
		<clipPath id="SVGID_6_">
			<use xlink:href="#SVGID_5_"  style="overflow:visible;"/>
		</clipPath>
		<path class="st15" d="M261.3,168c0.9,0,1.6-0.7,1.6-1.6c0-0.9-0.7-1.6-1.6-1.6c-0.9,0-1.6,0.7-1.6,1.6
			C259.7,167.3,260.4,168,261.3,168"/>
	</g>
	<line class="st16" x1="284.7" y1="186" x2="355.1" y2="186"/>
	<path class="st12" d="M356.4,186L356.4,186 M282.3,186L282.3,186"/>
	<line class="st17" x1="272.9" y1="186" x2="278.6" y2="186"/>
	<path class="st14" d="M279.8,186L279.8,186 M270.6,186L270.6,186"/>
	<g>
		<defs>
			<rect id="SVGID_7_" x="10.3" y="10.4" width="425.8" height="207.6"/>
		</defs>
		<clipPath id="SVGID_8_">
			<use xlink:href="#SVGID_7_"  style="overflow:visible;"/>
		</clipPath>
		<path class="st18" d="M270.6,187.7c0.9,0,1.6-0.7,1.6-1.6c0-0.9-0.7-1.6-1.6-1.6c-0.9,0-1.6,0.7-1.6,1.6
			C268.9,186.9,269.7,187.7,270.6,187.7"/>
	</g>
	<line class="st19" x1="258.4" y1="205.7" x2="355.2" y2="205.7"/>
	<path class="st12" d="M356.4,205.7L356.4,205.7 M256,205.7L256,205.7"/>
	<line class="st20" x1="246.9" y1="205.7" x2="252.4" y2="205.7"/>
	<path class="st21" d="M253.5,205.7L253.5,205.7 M244.7,205.7L244.7,205.7"/>
	<g>
		<defs>
			<rect id="SVGID_9_" x="10.3" y="10.4" width="425.8" height="207.6"/>
		</defs>
		<clipPath id="SVGID_10_">
			<use xlink:href="#SVGID_9_"  style="overflow:visible;"/>
		</clipPath>
		<path class="st22" d="M244.7,207.3c0.9,0,1.6-0.7,1.6-1.6c0-0.9-0.7-1.6-1.6-1.6c-0.9,0-1.6,0.7-1.6,1.6
			C243,206.6,243.8,207.3,244.7,207.3"/>
	</g>
</g>
</svg>
