<?xml version="1.0" encoding="utf-8"?>
<!-- Generator: Adobe Illustrator 25.2.1, SVG Export Plug-In . SVG Version: 6.00 Build 0)  -->
<svg version="1.1" id="Capa_1" xmlns="http://www.w3.org/2000/svg" xmlns:xlink="http://www.w3.org/1999/xlink" x="0px" y="0px"
	 viewBox="0 0 468.2 332.7" style="enable-background:new 0 0 468.2 332.7;" xml:space="preserve">
<style type="text/css">
	.st0{clip-path:url(#SVGID_2_);fill:none;stroke:#EDEDF0;stroke-width:13.527;stroke-miterlimit:10;}
	
		.st1{clip-path:url(#SVGID_2_);fill:none;stroke:#FBCEA4;stroke-width:13.527;stroke-linecap:round;stroke-linejoin:round;stroke-miterlimit:10;}
	
		.st2{clip-path:url(#SVGID_2_);fill:none;stroke:#F8B375;stroke-width:13.527;stroke-linecap:round;stroke-linejoin:round;stroke-miterlimit:10;}
	
		.st3{clip-path:url(#SVGID_2_);fill:none;stroke:#EF7B10;stroke-width:13.527;stroke-linecap:round;stroke-linejoin:round;stroke-miterlimit:10;}
	.st4{fill:#EF7B10;}
	
		.st5{clip-path:url(#SVGID_4_);fill:none;stroke:#4B5B6D;stroke-linecap:round;stroke-linejoin:round;stroke-miterlimit:10;stroke-dasharray:0,2.994;}
	.st6{clip-path:url(#SVGID_4_);fill:none;stroke:#4B5B6D;stroke-linecap:round;stroke-linejoin:round;stroke-miterlimit:10;}
	
		.st7{clip-path:url(#SVGID_4_);fill:none;stroke:#4B5B6D;stroke-linecap:round;stroke-linejoin:round;stroke-miterlimit:10;stroke-dasharray:0,2.991;}
	.st8{fill:#4B5B6D;}
	.st9{fill:none;stroke:#5F6A77;stroke-linecap:round;stroke-linejoin:round;stroke-miterlimit:10;stroke-dasharray:0,2.997;}
	.st10{fill:none;stroke:#5F6A77;stroke-linecap:round;stroke-linejoin:round;stroke-miterlimit:10;}
	.st11{fill:none;stroke:#FFFFFF;stroke-linecap:round;stroke-linejoin:round;stroke-miterlimit:10;stroke-dasharray:0,3.623;}
	.st12{fill:none;stroke:#FFFFFF;stroke-linecap:round;stroke-linejoin:round;stroke-miterlimit:10;}
	.st13{clip-path:url(#SVGID_6_);fill:#FFFFFF;}
	.st14{fill:none;stroke:#5F6A77;stroke-linecap:round;stroke-linejoin:round;stroke-miterlimit:10;stroke-dasharray:0,3.014;}
	.st15{fill:none;stroke:#FFFFFF;stroke-linecap:round;stroke-linejoin:round;stroke-miterlimit:10;stroke-dasharray:0,3.159;}
	.st16{clip-path:url(#SVGID_8_);fill:#FFFFFF;}
	.st17{fill:none;stroke:#5F6A77;stroke-linecap:round;stroke-linejoin:round;stroke-miterlimit:10;stroke-dasharray:0,3.019;}
	.st18{fill:none;stroke:#4B5B6D;stroke-linecap:round;stroke-linejoin:round;stroke-miterlimit:10;stroke-dasharray:0,3.034;}
	.st19{fill:none;stroke:#4B5B6D;stroke-linecap:round;stroke-linejoin:round;stroke-miterlimit:10;}
	.st20{clip-path:url(#SVGID_10_);fill:#4B5B6D;}
</style>
<g>
	<g>
		<defs>
			<rect id="SVGID_1_" x="13.4" y="12.3" width="441.4" height="308.1"/>
		</defs>
		<clipPath id="SVGID_2_">
			<use xlink:href="#SVGID_1_"  style="overflow:visible;"/>
		</clipPath>
		<circle class="st0" cx="193.7" cy="203.3" r="66.3"/>
		<path class="st0" d="M193.7,291.3c48.6,0,88-39.4,88-88c0-2.4-0.1-4.7-0.3-7.1c-3.6-45.3-41.5-80.9-87.7-80.9
			c-48.6,0-88,39.4-88,88c0,20.7,7.2,39.8,19.1,54.8C141,278.4,165.8,291.3,193.7,291.3z"/>
		<path class="st0" d="M193.7,313.6c60.9,0,110.3-49.4,110.3-110.3S254.6,93.1,193.7,93.1S83.4,142.4,83.4,203.3
			c0,29.1,11.2,55.5,29.6,75.2C133.2,300.1,161.9,313.6,193.7,313.6z"/>
		<path class="st1" d="M193.9,137c-36.7,0-66.5,29.8-66.5,66.5c0,4.6,0.5,9,1.3,13.3"/>
		<path class="st2" d="M193.9,115.3c-48.7,0-88.2,39.4-88.2,88c0,20.7,9.4,42,21.4,57"/>
		<path class="st3" d="M193.9,93.1c-61,0-110.5,49.4-110.5,110.3c0,29.1,11.3,55.5,29.7,75.2"/>
	</g>
	<g>
		<path class="st4" d="M73,24.9h-4.1v10.6h-3.4V24.9h-4.1v-2.5H73V24.9z"/>
		<path class="st4" d="M81,34.4c-0.2,0.1-0.4,0.3-0.6,0.5s-0.5,0.3-0.7,0.4c-0.3,0.1-0.6,0.2-1,0.3s-0.7,0.1-1.1,0.1
			c-0.9,0-1.7-0.3-2.4-0.9s-0.9-1.3-0.9-2.2c0-0.7,0.2-1.3,0.5-1.8s0.8-0.8,1.4-1.1c0.6-0.3,1.3-0.5,2.2-0.6S80.1,29,81,29v-0.1
			c0-0.5-0.2-0.9-0.7-1.1s-1.1-0.3-2-0.3c-0.5,0-1.1,0.1-1.7,0.3c-0.6,0.2-1,0.3-1.3,0.4h-0.3v-2.4c0.3-0.1,0.9-0.2,1.6-0.3
			s1.5-0.2,2.3-0.2c1.8,0,3.1,0.3,3.9,0.8c0.8,0.6,1.2,1.4,1.2,2.6v6.7H81V34.4z M81,32.9v-2c-0.4,0-0.9,0.1-1.4,0.1
			s-0.9,0.1-1.1,0.2c-0.3,0.1-0.6,0.2-0.7,0.4s-0.3,0.4-0.3,0.7c0,0.2,0,0.4,0.1,0.5c0,0.1,0.1,0.3,0.3,0.4c0.1,0.1,0.3,0.2,0.5,0.3
			s0.5,0.1,0.9,0.1c0.3,0,0.6-0.1,1-0.2C80.5,33.3,80.8,33.1,81,32.9z"/>
		<path class="st4" d="M95.8,32.3c0,1-0.5,1.8-1.4,2.5c-0.9,0.6-2.2,0.9-3.8,0.9c-0.9,0-1.7-0.1-2.4-0.2s-1.3-0.3-1.7-0.5v-2.6h0.3
			c0.2,0.1,0.3,0.2,0.5,0.4c0.2,0.1,0.5,0.3,0.9,0.4c0.3,0.1,0.7,0.3,1.1,0.3c0.4,0.1,0.9,0.1,1.3,0.1c0.6,0,1.1-0.1,1.4-0.2
			s0.4-0.3,0.4-0.6c0-0.2-0.1-0.4-0.3-0.5c-0.2-0.1-0.5-0.2-1-0.3c-0.2-0.1-0.6-0.1-1-0.2c-0.4-0.1-0.8-0.1-1.1-0.2
			c-0.9-0.2-1.6-0.6-2-1.1s-0.7-1.1-0.7-1.9c0-0.9,0.4-1.7,1.3-2.4s2.1-0.9,3.7-0.9c0.7,0,1.4,0.1,2.1,0.2c0.7,0.1,1.2,0.3,1.6,0.5
			v2.5h-0.3c-0.5-0.3-1-0.6-1.6-0.8c-0.6-0.2-1.2-0.3-1.8-0.3c-0.5,0-0.9,0.1-1.3,0.2s-0.5,0.3-0.5,0.6c0,0.2,0.1,0.4,0.2,0.5
			s0.5,0.2,1.1,0.4c0.3,0.1,0.7,0.1,1,0.2c0.4,0.1,0.7,0.1,1.1,0.2c0.8,0.2,1.4,0.6,1.8,1C95.6,31,95.8,31.6,95.8,32.3z"/>
		<path class="st4" d="M104,34.4c-0.2,0.1-0.4,0.3-0.6,0.5s-0.5,0.3-0.7,0.4c-0.3,0.1-0.6,0.2-1,0.3s-0.7,0.1-1.1,0.1
			c-0.9,0-1.7-0.3-2.4-0.9s-0.9-1.3-0.9-2.2c0-0.7,0.2-1.3,0.5-1.8s0.8-0.8,1.4-1.1c0.6-0.3,1.3-0.5,2.2-0.6s1.8-0.2,2.7-0.2v-0.1
			c0-0.5-0.2-0.9-0.7-1.1s-1.1-0.3-2-0.3c-0.5,0-1.1,0.1-1.7,0.3c-0.6,0.2-1,0.3-1.3,0.4h-0.3v-2.4c0.3-0.1,0.9-0.2,1.6-0.3
			s1.5-0.2,2.3-0.2c1.8,0,3.1,0.3,3.9,0.8c0.8,0.6,1.2,1.4,1.2,2.6v6.7H104V34.4z M104,32.9v-2c-0.4,0-0.9,0.1-1.4,0.1
			s-0.9,0.1-1.1,0.2c-0.3,0.1-0.6,0.2-0.7,0.4s-0.3,0.4-0.3,0.7c0,0.2,0,0.4,0.1,0.5c0,0.1,0.1,0.3,0.3,0.4c0.1,0.1,0.3,0.2,0.5,0.3
			s0.5,0.1,0.9,0.1c0.3,0,0.6-0.1,1-0.2C103.5,33.3,103.8,33.1,104,32.9z"/>
		<path class="st4" d="M126.2,35.5H123v-1c-0.5,0.4-1.1,0.8-1.5,1s-1,0.3-1.6,0.3c-1.2,0-2.2-0.5-2.9-1.4c-0.7-0.9-1.1-2.2-1.1-3.7
			c0-0.8,0.1-1.6,0.4-2.2s0.6-1.2,1-1.7c0.4-0.4,0.9-0.8,1.4-1c0.6-0.2,1.1-0.4,1.7-0.4c0.6,0,1.1,0.1,1.5,0.2s0.8,0.3,1.2,0.5v-4.2
			h3.2V35.5z M123,32.7v-4.9c-0.2-0.1-0.5-0.2-0.7-0.2s-0.5-0.1-0.7-0.1c-0.8,0-1.5,0.3-1.9,0.8s-0.6,1.2-0.6,2.2
			c0,1,0.2,1.7,0.5,2.1c0.3,0.4,0.9,0.7,1.6,0.7c0.3,0,0.6-0.1,0.9-0.2C122.5,33.1,122.8,32.9,123,32.7z"/>
		<path class="st4" d="M139.1,31.1h-7.2c0,0.8,0.3,1.4,0.9,1.8s1.3,0.6,2.4,0.6c0.7,0,1.3-0.1,1.9-0.4s1.1-0.5,1.5-0.8h0.4v2.5
			c-0.7,0.3-1.4,0.5-2,0.6s-1.3,0.2-2.1,0.2c-2,0-3.5-0.4-4.6-1.3s-1.6-2.2-1.6-3.8c0-1.6,0.5-2.9,1.5-3.9c1-1,2.4-1.4,4.1-1.4
			c1.6,0,2.8,0.4,3.6,1.2c0.8,0.8,1.2,2,1.2,3.5V31.1z M135.9,29.2c0-0.7-0.2-1.2-0.5-1.5s-0.8-0.5-1.5-0.5c-0.6,0-1.1,0.2-1.5,0.5
			s-0.6,0.8-0.7,1.5H135.9z"/>
		<path class="st4" d="M155,28.6h-0.3c-0.1,0-0.4-0.1-0.6-0.1s-0.5,0-0.7,0c-0.5,0-0.8,0-1.2,0.1c-0.3,0.1-0.7,0.2-1.1,0.3v6.6h-3.2
			v-9.9h3.2V27c0.7-0.6,1.3-1,1.8-1.2c0.5-0.2,1-0.3,1.4-0.3c0.1,0,0.2,0,0.4,0c0.1,0,0.3,0,0.4,0V28.6z"/>
		<path class="st4" d="M167,30.5c0,1.6-0.5,2.9-1.4,3.8s-2.3,1.4-4,1.4s-3-0.5-4-1.4s-1.4-2.2-1.4-3.8c0-1.6,0.5-2.9,1.4-3.8
			s2.3-1.4,4-1.4c1.7,0,3.1,0.5,4,1.4S167,28.9,167,30.5z M163.1,32.9c0.2-0.3,0.4-0.6,0.5-0.9c0.1-0.4,0.2-0.8,0.2-1.5
			c0-0.6-0.1-1.1-0.2-1.5s-0.3-0.7-0.4-0.9c-0.2-0.2-0.4-0.4-0.7-0.5s-0.5-0.1-0.9-0.1s-0.6,0-0.8,0.1s-0.5,0.2-0.7,0.5
			c-0.2,0.2-0.3,0.5-0.5,0.9s-0.2,0.9-0.2,1.5c0,0.5,0,1,0.1,1.4c0.1,0.4,0.2,0.7,0.4,1c0.2,0.2,0.4,0.4,0.7,0.5s0.6,0.2,0.9,0.2
			c0.3,0,0.6,0,0.8-0.1C162.7,33.3,162.9,33.2,163.1,32.9z"/>
		<path class="st4" d="M175.8,35.4c-0.3,0.1-0.7,0.2-1.1,0.2s-0.8,0.1-1.4,0.1c-1.2,0-2.1-0.2-2.7-0.7s-0.9-1.4-0.9-2.6v-4.6h-1.3
			v-2.1h1.3v-2.8h3.2v2.8h3v2.1h-3v3.5c0,0.3,0,0.6,0,0.9s0.1,0.5,0.1,0.7c0.1,0.2,0.2,0.4,0.4,0.5c0.2,0.1,0.5,0.2,0.9,0.2
			c0.2,0,0.4,0,0.6-0.1c0.3-0.1,0.5-0.1,0.6-0.2h0.3V35.4z"/>
		<path class="st4" d="M183.8,34.4c-0.2,0.1-0.4,0.3-0.6,0.5s-0.5,0.3-0.7,0.4c-0.3,0.1-0.6,0.2-1,0.3s-0.7,0.1-1.1,0.1
			c-0.9,0-1.7-0.3-2.4-0.9s-0.9-1.3-0.9-2.2c0-0.7,0.2-1.3,0.5-1.8s0.8-0.8,1.4-1.1c0.6-0.3,1.3-0.5,2.2-0.6s1.8-0.2,2.7-0.2v-0.1
			c0-0.5-0.2-0.9-0.7-1.1s-1.1-0.3-2-0.3c-0.5,0-1.1,0.1-1.7,0.3c-0.6,0.2-1,0.3-1.3,0.4h-0.3v-2.4c0.3-0.1,0.9-0.2,1.6-0.3
			s1.5-0.2,2.3-0.2c1.8,0,3.1,0.3,3.9,0.8c0.8,0.6,1.2,1.4,1.2,2.6v6.7h-3.1V34.4z M183.8,32.9v-2c-0.4,0-0.9,0.1-1.4,0.1
			s-0.9,0.1-1.1,0.2c-0.3,0.1-0.6,0.2-0.7,0.4s-0.3,0.4-0.3,0.7c0,0.2,0,0.4,0.1,0.5c0,0.1,0.1,0.3,0.3,0.4c0.1,0.1,0.3,0.2,0.5,0.3
			s0.5,0.1,0.9,0.1c0.3,0,0.6-0.1,1-0.2C183.3,33.3,183.5,33.1,183.8,32.9z"/>
		<path class="st4" d="M195.2,35.7c-0.9,0-1.6-0.1-2.4-0.3s-1.3-0.5-1.9-0.9c-0.5-0.4-0.9-1-1.2-1.6s-0.4-1.4-0.4-2.3
			c0-0.9,0.2-1.7,0.5-2.4s0.7-1.2,1.3-1.7c0.5-0.4,1.1-0.7,1.8-0.9s1.4-0.3,2.2-0.3c0.7,0,1.3,0.1,1.9,0.2s1.1,0.3,1.6,0.6v2.7h-0.4
			c-0.1-0.1-0.3-0.2-0.4-0.4c-0.2-0.1-0.4-0.3-0.6-0.4c-0.2-0.1-0.5-0.2-0.8-0.3s-0.6-0.1-1-0.1c-0.8,0-1.5,0.3-1.9,0.8
			c-0.5,0.5-0.7,1.3-0.7,2.2c0,0.9,0.2,1.7,0.7,2.2c0.5,0.5,1.1,0.7,2,0.7c0.4,0,0.8,0,1.1-0.1c0.3-0.1,0.6-0.2,0.8-0.3
			c0.2-0.1,0.4-0.2,0.5-0.4c0.2-0.1,0.3-0.3,0.4-0.4h0.4V35c-0.5,0.2-1,0.4-1.6,0.6C196.4,35.6,195.8,35.7,195.2,35.7z"/>
		<path class="st4" d="M204,24.2h-3.3v-2.4h3.3V24.2z M203.9,35.5h-3.2v-9.9h3.2V35.5z"/>
		<path class="st4" d="M217.2,30.5c0,1.6-0.5,2.9-1.4,3.8s-2.3,1.4-4,1.4s-3-0.5-4-1.4s-1.4-2.2-1.4-3.8c0-1.6,0.5-2.9,1.4-3.8
			s2.3-1.4,4-1.4c1.7,0,3.1,0.5,4,1.4S217.2,28.9,217.2,30.5z M214.9,20.7v0.2l-3.1,3.3h-2.2l2.2-3.5H214.9z M213.3,32.9
			c0.2-0.3,0.4-0.6,0.5-0.9c0.1-0.4,0.2-0.8,0.2-1.5c0-0.6-0.1-1.1-0.2-1.5s-0.3-0.7-0.4-0.9c-0.2-0.2-0.4-0.4-0.7-0.5
			s-0.5-0.1-0.9-0.1s-0.6,0-0.8,0.1s-0.5,0.2-0.7,0.5c-0.2,0.2-0.3,0.5-0.5,0.9s-0.2,0.9-0.2,1.5c0,0.5,0,1,0.1,1.4
			c0.1,0.4,0.2,0.7,0.4,1c0.2,0.2,0.4,0.4,0.7,0.5s0.6,0.2,0.9,0.2c0.3,0,0.6,0,0.8-0.1C212.9,33.3,213.1,33.2,213.3,32.9z"/>
		<path class="st4" d="M229.5,35.5h-3.2v-4.9c0-0.4,0-0.8-0.1-1.2c0-0.4-0.1-0.7-0.2-0.9c-0.1-0.2-0.3-0.4-0.5-0.5s-0.5-0.1-0.9-0.1
			c-0.3,0-0.6,0-0.9,0.1s-0.6,0.2-1,0.4v7h-3.2v-9.9h3.2v1.1c0.6-0.4,1.1-0.8,1.6-1c0.5-0.2,1.1-0.4,1.7-0.4c1.1,0,1.9,0.3,2.5,0.9
			c0.6,0.6,0.9,1.5,0.9,2.8V35.5z"/>
		<path class="st4" d="M250.7,34.7c-0.6,0.2-1.4,0.5-2.3,0.7c-1,0.2-1.9,0.3-2.9,0.3c-2.2,0-4-0.6-5.2-1.8c-1.3-1.2-1.9-2.9-1.9-5
			c0-2,0.6-3.7,1.9-4.9c1.3-1.2,3-1.9,5.3-1.9c0.9,0,1.7,0.1,2.5,0.2c0.8,0.2,1.6,0.5,2.6,0.9v3.1h-0.4c-0.2-0.1-0.4-0.3-0.7-0.5
			s-0.6-0.4-0.9-0.6c-0.3-0.2-0.7-0.3-1.2-0.5s-0.9-0.2-1.4-0.2c-0.6,0-1.1,0.1-1.6,0.3s-0.9,0.4-1.3,0.8c-0.4,0.4-0.7,0.8-0.9,1.3
			c-0.2,0.5-0.3,1.2-0.3,1.9c0,1.4,0.4,2.6,1.2,3.3s1.9,1.2,3.4,1.2c0.1,0,0.3,0,0.4,0s0.3,0,0.4,0v-2.6h-2.6v-2.5h6V34.7z"/>
		<path class="st4" d="M263.4,31.1h-7.2c0,0.8,0.3,1.4,0.9,1.8s1.3,0.6,2.4,0.6c0.7,0,1.3-0.1,1.9-0.4s1.1-0.5,1.5-0.8h0.4v2.5
			c-0.7,0.3-1.4,0.5-2,0.6s-1.3,0.2-2.1,0.2c-2,0-3.5-0.4-4.6-1.3s-1.6-2.2-1.6-3.8c0-1.6,0.5-2.9,1.5-3.9c1-1,2.4-1.4,4.1-1.4
			c1.6,0,2.8,0.4,3.6,1.2c0.8,0.8,1.2,2,1.2,3.5V31.1z M260.3,29.2c0-0.7-0.2-1.2-0.5-1.5s-0.8-0.5-1.5-0.5c-0.6,0-1.1,0.2-1.5,0.5
			s-0.6,0.8-0.7,1.5H260.3z"/>
		<path class="st4" d="M275.7,35.5h-3.2v-4.9c0-0.4,0-0.8-0.1-1.2c0-0.4-0.1-0.7-0.2-0.9c-0.1-0.2-0.3-0.4-0.5-0.5s-0.5-0.1-0.9-0.1
			c-0.3,0-0.6,0-0.9,0.1s-0.6,0.2-1,0.4v7h-3.2v-9.9h3.2v1.1c0.6-0.4,1.1-0.8,1.6-1s1.1-0.4,1.7-0.4c1.1,0,1.9,0.3,2.5,0.9
			c0.6,0.6,0.9,1.5,0.9,2.8V35.5z"/>
		<path class="st4" d="M285.1,35.4c-0.3,0.1-0.7,0.2-1.1,0.2s-0.8,0.1-1.4,0.1c-1.2,0-2.1-0.2-2.7-0.7s-0.9-1.4-0.9-2.6v-4.6h-1.3
			v-2.1h1.3v-2.8h3.2v2.8h3v2.1h-3v3.5c0,0.3,0,0.6,0,0.9s0.1,0.5,0.1,0.7c0.1,0.2,0.2,0.4,0.4,0.5c0.2,0.1,0.5,0.2,0.9,0.2
			c0.2,0,0.4,0,0.6-0.1c0.3-0.1,0.5-0.1,0.6-0.2h0.3V35.4z"/>
		<path class="st4" d="M296.9,31.1h-7.2c0,0.8,0.3,1.4,0.9,1.8s1.3,0.6,2.4,0.6c0.7,0,1.3-0.1,1.9-0.4s1.1-0.5,1.5-0.8h0.4v2.5
			c-0.7,0.3-1.4,0.5-2,0.6s-1.3,0.2-2.1,0.2c-2,0-3.5-0.4-4.6-1.3s-1.6-2.2-1.6-3.8c0-1.6,0.5-2.9,1.5-3.9c1-1,2.4-1.4,4.1-1.4
			c1.6,0,2.8,0.4,3.6,1.2c0.8,0.8,1.2,2,1.2,3.5V31.1z M293.8,29.2c0-0.7-0.2-1.2-0.5-1.5s-0.8-0.5-1.5-0.5c-0.6,0-1.1,0.2-1.5,0.5
			s-0.6,0.8-0.7,1.5H293.8z"/>
		<path class="st4" d="M306.4,28.6h-0.3c-0.1,0-0.4-0.1-0.6-0.1c-0.3,0-0.5,0-0.7,0c-0.5,0-0.8,0-1.2,0.1c-0.3,0.1-0.7,0.2-1.1,0.3
			v6.6h-3.2v-9.9h3.2V27c0.7-0.6,1.3-1,1.8-1.2c0.5-0.2,1-0.3,1.4-0.3c0.1,0,0.2,0,0.4,0s0.3,0,0.4,0V28.6z"/>
		<path class="st4" d="M314.4,34.4c-0.2,0.1-0.4,0.3-0.6,0.5s-0.5,0.3-0.7,0.4c-0.3,0.1-0.6,0.2-1,0.3s-0.7,0.1-1.1,0.1
			c-0.9,0-1.7-0.3-2.4-0.9s-0.9-1.3-0.9-2.2c0-0.7,0.2-1.3,0.5-1.8s0.8-0.8,1.4-1.1c0.6-0.3,1.3-0.5,2.2-0.6s1.8-0.2,2.7-0.2v-0.1
			c0-0.5-0.2-0.9-0.7-1.1s-1.1-0.3-2-0.3c-0.5,0-1.1,0.1-1.7,0.3c-0.6,0.2-1,0.3-1.3,0.4h-0.3v-2.4c0.3-0.1,0.9-0.2,1.6-0.3
			s1.5-0.2,2.3-0.2c1.8,0,3.1,0.3,3.9,0.8c0.8,0.6,1.2,1.4,1.2,2.6v6.7h-3.1V34.4z M314.4,32.9v-2c-0.4,0-0.9,0.1-1.4,0.1
			s-0.9,0.1-1.1,0.2c-0.3,0.1-0.6,0.2-0.7,0.4s-0.2,0.4-0.2,0.7c0,0.2,0,0.4,0.1,0.5c0,0.1,0.1,0.3,0.3,0.4c0.1,0.1,0.3,0.2,0.5,0.3
			s0.5,0.1,0.9,0.1c0.3,0,0.6-0.1,1-0.2C313.8,33.3,314.1,33.1,314.4,32.9z"/>
		<path class="st4" d="M336.5,34.3c0,0.9-0.1,1.7-0.4,2.3s-0.6,1.1-1.1,1.5c-0.5,0.4-1,0.6-1.7,0.8c-0.7,0.2-1.4,0.2-2.3,0.2
			c-0.7,0-1.4,0-2-0.1s-1.2-0.2-1.7-0.3v-2.5h0.4c0.4,0.2,0.9,0.3,1.4,0.4c0.6,0.1,1.1,0.2,1.5,0.2c0.6,0,1.1-0.1,1.4-0.2
			c0.4-0.1,0.6-0.3,0.8-0.5c0.2-0.2,0.3-0.4,0.4-0.7s0.1-0.6,0.1-1.1v-0.2c-0.4,0.3-0.8,0.6-1.3,0.7c-0.5,0.2-1,0.3-1.5,0.3
			c-1.4,0-2.4-0.4-3.2-1.2c-0.8-0.8-1.1-2.1-1.1-3.8c0-0.8,0.1-1.5,0.3-2.1c0.2-0.6,0.5-1.1,1-1.5c0.4-0.4,0.9-0.7,1.4-1
			s1.1-0.3,1.7-0.3c0.5,0,1,0.1,1.5,0.2s0.8,0.3,1.2,0.5l0.1-0.4h3.1V34.3z M333.4,32.3v-4.5c-0.2-0.1-0.4-0.1-0.7-0.2
			c-0.3,0-0.5-0.1-0.7-0.1c-0.8,0-1.5,0.2-1.9,0.7c-0.4,0.5-0.6,1.1-0.6,2c0,0.9,0.2,1.6,0.5,2s0.9,0.6,1.6,0.6c0.3,0,0.6,0,0.9-0.1
			C332.8,32.6,333.1,32.5,333.4,32.3z"/>
		<path class="st4" d="M349.4,31.1h-7.2c0,0.8,0.3,1.4,0.9,1.8s1.3,0.6,2.4,0.6c0.7,0,1.3-0.1,1.9-0.4s1.1-0.5,1.5-0.8h0.4v2.5
			c-0.7,0.3-1.4,0.5-2,0.6s-1.3,0.2-2.1,0.2c-2,0-3.5-0.4-4.6-1.3s-1.6-2.2-1.6-3.8c0-1.6,0.5-2.9,1.5-3.9c1-1,2.4-1.4,4.1-1.4
			c1.6,0,2.8,0.4,3.6,1.2c0.8,0.8,1.2,2,1.2,3.5V31.1z M346.3,29.2c0-0.7-0.2-1.2-0.5-1.5s-0.8-0.5-1.5-0.5c-0.6,0-1.1,0.2-1.5,0.5
			s-0.6,0.8-0.7,1.5H346.3z"/>
		<path class="st4" d="M361.7,35.5h-3.2v-4.9c0-0.4,0-0.8-0.1-1.2c0-0.4-0.1-0.7-0.2-0.9c-0.1-0.2-0.3-0.4-0.5-0.5
			c-0.2-0.1-0.5-0.1-0.9-0.1c-0.3,0-0.6,0-0.9,0.1s-0.6,0.2-1,0.4v7h-3.2v-9.9h3.2v1.1c0.6-0.4,1.1-0.8,1.6-1
			c0.5-0.2,1.1-0.4,1.7-0.4c1.1,0,1.9,0.3,2.5,0.9c0.6,0.6,0.9,1.5,0.9,2.8V35.5z"/>
		<path class="st4" d="M374.5,31.1h-7.2c0,0.8,0.3,1.4,0.9,1.8s1.3,0.6,2.4,0.6c0.7,0,1.3-0.1,1.9-0.4s1.1-0.5,1.5-0.8h0.4v2.5
			c-0.7,0.3-1.4,0.5-2,0.6s-1.3,0.2-2.1,0.2c-2,0-3.5-0.4-4.6-1.3s-1.6-2.2-1.6-3.8c0-1.6,0.5-2.9,1.5-3.9c1-1,2.4-1.4,4.1-1.4
			c1.6,0,2.8,0.4,3.6,1.2c0.8,0.8,1.2,2,1.2,3.5V31.1z M371.4,29.2c0-0.7-0.2-1.2-0.5-1.5s-0.8-0.5-1.5-0.5c-0.6,0-1.1,0.2-1.5,0.5
			s-0.6,0.8-0.7,1.5H371.4z"/>
		<path class="st4" d="M384.1,28.6h-0.3c-0.1,0-0.4-0.1-0.6-0.1s-0.5,0-0.7,0c-0.5,0-0.8,0-1.2,0.1c-0.3,0.1-0.7,0.2-1.1,0.3v6.6
			h-3.2v-9.9h3.2V27c0.7-0.6,1.3-1,1.8-1.2c0.5-0.2,1-0.3,1.4-0.3c0.1,0,0.2,0,0.4,0s0.3,0,0.4,0V28.6z"/>
		<path class="st4" d="M392,34.4c-0.2,0.1-0.4,0.3-0.6,0.5s-0.5,0.3-0.7,0.4c-0.3,0.1-0.6,0.2-1,0.3s-0.7,0.1-1.1,0.1
			c-0.9,0-1.7-0.3-2.4-0.9s-0.9-1.3-0.9-2.2c0-0.7,0.2-1.3,0.5-1.8s0.8-0.8,1.4-1.1c0.6-0.3,1.3-0.5,2.2-0.6s1.8-0.2,2.7-0.2v-0.1
			c0-0.5-0.2-0.9-0.7-1.1s-1.1-0.3-2-0.3c-0.5,0-1.1,0.1-1.7,0.3c-0.6,0.2-1,0.3-1.3,0.4h-0.3v-2.4c0.3-0.1,0.9-0.2,1.6-0.3
			c0.8-0.1,1.5-0.2,2.3-0.2c1.8,0,3.1,0.3,3.9,0.8c0.8,0.6,1.2,1.4,1.2,2.6v6.7H392V34.4z M392,32.9v-2c-0.4,0-0.9,0.1-1.4,0.1
			s-0.9,0.1-1.1,0.2c-0.3,0.1-0.6,0.2-0.7,0.4c-0.2,0.2-0.2,0.4-0.2,0.7c0,0.2,0,0.4,0.1,0.5c0,0.1,0.1,0.3,0.3,0.4
			c0.1,0.1,0.3,0.2,0.5,0.3s0.5,0.1,0.9,0.1c0.3,0,0.6-0.1,1-0.2C391.5,33.3,391.7,33.1,392,32.9z"/>
		<path class="st4" d="M401.4,35.5h-3.2V21.8h3.2V35.5z"/>
	</g>
	<g>
		<defs>
			<rect id="SVGID_3_" x="13.4" y="12.3" width="441.4" height="308.1"/>
		</defs>
		<clipPath id="SVGID_4_">
			<use xlink:href="#SVGID_3_"  style="overflow:visible;"/>
		</clipPath>
		<line class="st5" x1="40.5" y1="20.5" x2="40.5" y2="318.4"/>
		<path class="st6" d="M40.5,319.9L40.5,319.9 M40.5,17.5L40.5,17.5"/>
		<line class="st7" x1="399.7" y1="69" x2="15.4" y2="69"/>
		<path class="st6" d="M13.9,69L13.9,69 M402.7,69L402.7,69"/>
	</g>
	<g>
		<path class="st8" d="M378.7,96.6h-7.2v-1.5c0.5-0.4,1.1-0.8,1.7-1.3c0.6-0.4,1-0.8,1.3-1.2c0.5-0.5,0.8-0.9,1.1-1.3
			c0.2-0.4,0.3-0.7,0.3-1.1c0-0.4-0.1-0.7-0.4-1s-0.7-0.3-1.2-0.3c-0.4,0-0.8,0.1-1.2,0.2c-0.4,0.2-0.8,0.4-1.2,0.6h-0.2v-2
			c0.3-0.1,0.7-0.3,1.3-0.4s1.1-0.2,1.7-0.2c1.1,0,2,0.2,2.6,0.7c0.6,0.5,0.9,1.2,0.9,2c0,0.6-0.1,1.1-0.4,1.6s-0.7,1.1-1.3,1.6
			c-0.4,0.3-0.7,0.7-1.1,1c-0.4,0.3-0.6,0.5-0.8,0.6h4.1V96.6z"/>
		<path class="st8" d="M387.8,93.5c0,0.5-0.1,0.9-0.3,1.3s-0.4,0.8-0.7,1c-0.3,0.3-0.7,0.5-1.2,0.7c-0.4,0.2-0.9,0.2-1.5,0.2
			c-0.5,0-1.1-0.1-1.5-0.2c-0.5-0.1-0.8-0.4-1.2-0.7c-0.4-0.4-0.7-0.8-0.9-1.4c-0.2-0.6-0.3-1.2-0.3-2c0-0.8,0.1-1.5,0.3-2.1
			c0.2-0.6,0.5-1.2,0.9-1.7c0.4-0.5,0.9-0.8,1.6-1.1c0.6-0.3,1.4-0.4,2.3-0.4c0.3,0,0.6,0,1,0.1c0.4,0,0.6,0.1,0.7,0.1v1.8h-0.2
			c-0.1-0.1-0.3-0.1-0.6-0.2c-0.3-0.1-0.6-0.1-0.9-0.1c-0.8,0-1.4,0.2-1.8,0.6c-0.4,0.4-0.7,0.9-0.8,1.6c0.3-0.2,0.6-0.3,1-0.5
			s0.7-0.2,1.1-0.2c0.4,0,0.7,0,1,0.1s0.6,0.2,0.9,0.4c0.3,0.2,0.6,0.6,0.8,1C387.7,92.4,387.8,92.9,387.8,93.5z M385,94.9
			c0.1-0.1,0.2-0.3,0.3-0.5c0.1-0.2,0.1-0.5,0.1-0.8c0-0.3,0-0.5-0.1-0.7c-0.1-0.2-0.2-0.3-0.4-0.5c-0.1-0.1-0.3-0.2-0.5-0.2
			c-0.2,0-0.4-0.1-0.6-0.1c-0.2,0-0.4,0-0.6,0.1c-0.2,0-0.4,0.1-0.5,0.2c0,0,0,0.1,0,0.2c0,0.1,0,0.2,0,0.4c0,0.5,0.1,0.9,0.2,1.2
			s0.2,0.6,0.4,0.7c0.1,0.1,0.3,0.2,0.4,0.3c0.2,0.1,0.3,0.1,0.5,0.1c0.1,0,0.3,0,0.4-0.1S384.9,95,385,94.9z"/>
		<path class="st8" d="M392,96.6h-2.3v-2.4h2.3V96.6z"/>
		<path class="st8" d="M401.6,94.1c0,0.8-0.3,1.5-1,2c-0.7,0.5-1.6,0.8-2.8,0.8c-0.7,0-1.3-0.1-1.7-0.2c-0.5-0.1-0.9-0.3-1.2-0.6
			c-0.3-0.2-0.5-0.5-0.7-0.8c-0.2-0.3-0.2-0.7-0.2-1c0-0.5,0.1-0.9,0.4-1.2s0.7-0.7,1.4-0.9v0c-0.5-0.2-0.9-0.6-1.2-0.9
			c-0.2-0.4-0.4-0.8-0.4-1.3c0-0.7,0.3-1.3,1-1.8s1.5-0.7,2.6-0.7c1.1,0,2,0.2,2.7,0.6c0.6,0.4,1,1,1,1.7c0,0.4-0.1,0.8-0.4,1.2
			c-0.3,0.3-0.7,0.6-1.2,0.9v0c0.6,0.2,1.1,0.6,1.4,1S401.6,93.5,401.6,94.1z M399.2,94.2c0-0.3-0.1-0.5-0.2-0.7
			c-0.1-0.2-0.5-0.3-0.9-0.5c-0.1-0.1-0.3-0.1-0.6-0.2c-0.3-0.1-0.5-0.2-0.7-0.2c-0.2,0.2-0.3,0.4-0.5,0.6c-0.1,0.2-0.2,0.5-0.2,0.8
			c0,0.4,0.2,0.8,0.5,1c0.3,0.3,0.7,0.4,1.2,0.4c0.1,0,0.3,0,0.5-0.1c0.2,0,0.3-0.1,0.5-0.2c0.1-0.1,0.3-0.2,0.4-0.3
			C399.2,94.6,399.2,94.4,399.2,94.2z M399,89.9c0-0.3-0.1-0.6-0.4-0.7c-0.2-0.2-0.6-0.3-1-0.3c-0.1,0-0.3,0-0.5,0.1
			c-0.2,0-0.3,0.1-0.4,0.2c-0.1,0.1-0.2,0.2-0.3,0.3c-0.1,0.1-0.1,0.2-0.1,0.4c0,0.2,0.1,0.4,0.2,0.6c0.1,0.1,0.4,0.3,0.7,0.4
			c0.1,0,0.3,0.1,0.5,0.2c0.2,0.1,0.4,0.2,0.7,0.2c0.2-0.2,0.3-0.4,0.4-0.6C399,90.3,399,90.1,399,89.9z"/>
	</g>
	<g>
		<path class="st8" d="M406.9,92.1c0,0.7-0.2,1.3-0.5,1.6s-0.8,0.5-1.5,0.5c-0.7,0-1.2-0.2-1.5-0.5c-0.3-0.4-0.5-0.9-0.5-1.6
			c0-0.7,0.2-1.3,0.5-1.6c0.3-0.4,0.8-0.5,1.5-0.5c0.7,0,1.1,0.2,1.5,0.5C406.7,90.9,406.9,91.4,406.9,92.1z M405.6,92.1
			c0-0.5-0.1-0.8-0.2-1c-0.1-0.2-0.3-0.2-0.5-0.2s-0.4,0.1-0.5,0.2c-0.1,0.2-0.2,0.5-0.2,1s0.1,0.8,0.2,1c0.1,0.2,0.3,0.2,0.5,0.2
			s0.4-0.1,0.5-0.2S405.6,92.6,405.6,92.1z M410.3,90.1l-3.4,6.5h-1.2l3.4-6.5H410.3z M413.1,94.6c0,0.7-0.2,1.3-0.5,1.6
			c-0.3,0.4-0.8,0.5-1.5,0.5c-0.7,0-1.2-0.2-1.5-0.5c-0.3-0.4-0.5-0.9-0.5-1.6c0-0.7,0.2-1.3,0.5-1.6c0.3-0.4,0.8-0.5,1.5-0.5
			c0.7,0,1.1,0.2,1.5,0.5C413,93.4,413.1,93.9,413.1,94.6z M411.8,94.6c0-0.5-0.1-0.8-0.2-1c-0.1-0.2-0.3-0.2-0.5-0.2
			s-0.4,0.1-0.5,0.2c-0.1,0.2-0.2,0.5-0.2,1s0.1,0.8,0.2,1s0.3,0.2,0.5,0.2s0.4-0.1,0.5-0.2S411.8,95.1,411.8,94.6z"/>
	</g>
	<g>
		<path class="st8" d="M419.7,96c2,0,3.2,0,3.6-0.1l0,0.7h-5l0-0.2c2.7-2,4.1-3.9,4.1-5.7c0-0.6-0.1-1-0.4-1.3
			c-0.3-0.3-0.7-0.4-1.1-0.4c-0.4,0-0.8,0.1-1,0.4s-0.4,0.7-0.4,1.1c0,0.1,0,0.3,0,0.4h-0.6c-0.1-0.2-0.1-0.4-0.1-0.6
			c0-0.5,0.2-1,0.6-1.4c0.4-0.4,0.9-0.6,1.5-0.6c0.8,0,1.3,0.2,1.7,0.7c0.4,0.4,0.6,1,0.6,1.7c0,0.9-0.3,1.8-1,2.7
			C421.3,94.5,420.6,95.3,419.7,96z"/>
		<path class="st8" d="M423.9,92.6c0-1.2,0.2-2.2,0.7-3s1.1-1.2,1.9-1.2c0.8,0,1.4,0.4,1.9,1.2c0.5,0.8,0.7,1.8,0.7,3
			c0,1.2-0.2,2.2-0.7,3c-0.5,0.8-1.1,1.2-1.9,1.2c-0.8,0-1.4-0.4-1.9-1.2S423.9,93.8,423.9,92.6z M425.2,90
			c-0.3,0.6-0.5,1.5-0.5,2.5s0.2,1.9,0.5,2.6c0.3,0.7,0.7,1,1.3,1c0.5,0,0.9-0.3,1.3-1s0.5-1.5,0.5-2.6s-0.2-1.9-0.5-2.5
			s-0.7-1-1.3-1C426,89.1,425.5,89.4,425.2,90z"/>
		<path class="st8" d="M430.9,90l2.7-1.7c0,1.5,0,2.8,0,3.9v4.5h-0.8v-6.9l-1.9,1.2V90z"/>
		<path class="st8" d="M440,96.2c-0.4,0.4-1.1,0.6-1.8,0.6s-1.4-0.2-1.8-0.6c-0.4-0.4-0.7-1-0.7-1.7c0-0.5,0.1-1,0.4-1.3
			c0.3-0.4,0.6-0.7,1.1-0.8c-0.9-0.4-1.3-1-1.3-1.9c0-0.5,0.2-1,0.6-1.4c0.4-0.4,1-0.6,1.7-0.6c0.7,0,1.3,0.2,1.7,0.6
			c0.4,0.4,0.6,0.9,0.6,1.4c0,0.9-0.4,1.6-1.3,1.9c0.5,0.2,0.8,0.4,1.1,0.8s0.4,0.8,0.4,1.3C440.7,95.2,440.5,95.8,440,96.2z
			 M439.4,93.3c-0.3-0.4-0.7-0.5-1.2-0.5c-0.5,0-0.9,0.2-1.2,0.5c-0.3,0.4-0.5,0.8-0.5,1.2c0,0.5,0.1,0.9,0.4,1.2
			c0.3,0.3,0.7,0.5,1.2,0.5c0.5,0,0.9-0.2,1.2-0.5c0.3-0.3,0.4-0.7,0.4-1.2C439.8,94,439.7,93.6,439.4,93.3z M438.2,92.1
			c0.4,0,0.8-0.2,1.1-0.5c0.3-0.3,0.4-0.7,0.4-1.1c0-0.4-0.1-0.8-0.4-1.1c-0.2-0.3-0.6-0.4-1.1-0.4s-0.9,0.1-1.1,0.4
			c-0.2,0.3-0.4,0.6-0.4,1.1c0,0.4,0.1,0.8,0.4,1.1C437.4,91.9,437.7,92.1,438.2,92.1z"/>
	</g>
	<g>
		<path class="st8" d="M378.7,120.7h-7.2v-1.5c0.5-0.4,1.1-0.8,1.7-1.3c0.6-0.4,1-0.8,1.3-1.2c0.5-0.5,0.8-0.9,1.1-1.3
			c0.2-0.4,0.3-0.7,0.3-1.1c0-0.4-0.1-0.7-0.4-1s-0.7-0.3-1.2-0.3c-0.4,0-0.8,0.1-1.2,0.2c-0.4,0.2-0.8,0.4-1.2,0.6h-0.2v-2
			c0.3-0.1,0.7-0.3,1.3-0.4s1.1-0.2,1.7-0.2c1.1,0,2,0.2,2.6,0.7c0.6,0.5,0.9,1.2,0.9,2c0,0.6-0.1,1.1-0.4,1.6s-0.7,1.1-1.3,1.6
			c-0.4,0.3-0.7,0.7-1.1,1c-0.4,0.3-0.6,0.5-0.8,0.6h4.1V120.7z"/>
		<path class="st8" d="M387.8,117.6c0,0.5-0.1,0.9-0.3,1.3s-0.4,0.8-0.7,1c-0.3,0.3-0.7,0.5-1.2,0.7c-0.4,0.2-0.9,0.2-1.5,0.2
			c-0.5,0-1.1-0.1-1.5-0.2c-0.5-0.1-0.8-0.4-1.2-0.7c-0.4-0.4-0.7-0.8-0.9-1.4c-0.2-0.6-0.3-1.2-0.3-2c0-0.8,0.1-1.5,0.3-2.1
			c0.2-0.6,0.5-1.2,0.9-1.7c0.4-0.5,0.9-0.8,1.6-1.1c0.6-0.3,1.4-0.4,2.3-0.4c0.3,0,0.6,0,1,0.1c0.4,0,0.6,0.1,0.7,0.1v1.8h-0.2
			c-0.1-0.1-0.3-0.1-0.6-0.2c-0.3-0.1-0.6-0.1-0.9-0.1c-0.8,0-1.4,0.2-1.8,0.6c-0.4,0.4-0.7,0.9-0.8,1.6c0.3-0.2,0.6-0.3,1-0.5
			s0.7-0.2,1.1-0.2c0.4,0,0.7,0,1,0.1s0.6,0.2,0.9,0.4c0.3,0.2,0.6,0.6,0.8,1C387.7,116.5,387.8,117,387.8,117.6z M385,119
			c0.1-0.1,0.2-0.3,0.3-0.5c0.1-0.2,0.1-0.5,0.1-0.8c0-0.3,0-0.5-0.1-0.7c-0.1-0.2-0.2-0.3-0.4-0.5c-0.1-0.1-0.3-0.2-0.5-0.2
			c-0.2,0-0.4-0.1-0.6-0.1c-0.2,0-0.4,0-0.6,0.1c-0.2,0-0.4,0.1-0.5,0.2c0,0,0,0.1,0,0.2c0,0.1,0,0.2,0,0.4c0,0.5,0.1,0.9,0.2,1.2
			s0.2,0.6,0.4,0.7c0.1,0.1,0.3,0.2,0.4,0.3c0.2,0.1,0.3,0.1,0.5,0.1c0.1,0,0.3,0,0.4-0.1S384.9,119.1,385,119z"/>
		<path class="st8" d="M392,120.7h-2.3v-2.4h2.3V120.7z"/>
		<path class="st8" d="M401.5,120.7h-7.2v-1.5c0.5-0.4,1.1-0.8,1.7-1.3c0.6-0.4,1-0.8,1.3-1.2c0.5-0.5,0.8-0.9,1.1-1.3
			c0.2-0.4,0.3-0.7,0.3-1.1c0-0.4-0.1-0.7-0.4-1s-0.7-0.3-1.2-0.3c-0.4,0-0.8,0.1-1.2,0.2c-0.4,0.2-0.8,0.4-1.2,0.6h-0.2v-2
			c0.3-0.1,0.7-0.3,1.3-0.4s1.1-0.2,1.7-0.2c1.1,0,2,0.2,2.6,0.7c0.6,0.5,0.9,1.2,0.9,2c0,0.6-0.1,1.1-0.4,1.6s-0.7,1.1-1.3,1.6
			c-0.4,0.3-0.7,0.7-1.1,1c-0.4,0.3-0.6,0.5-0.8,0.6h4.1V120.7z"/>
	</g>
	<g>
		<path class="st8" d="M406.9,116.2c0,0.7-0.2,1.3-0.5,1.6s-0.8,0.5-1.5,0.5c-0.7,0-1.2-0.2-1.5-0.5c-0.3-0.4-0.5-0.9-0.5-1.6
			c0-0.7,0.2-1.3,0.5-1.6c0.3-0.4,0.8-0.5,1.5-0.5c0.7,0,1.1,0.2,1.5,0.5C406.7,115,406.9,115.5,406.9,116.2z M405.6,116.2
			c0-0.5-0.1-0.8-0.2-1c-0.1-0.2-0.3-0.2-0.5-0.2s-0.4,0.1-0.5,0.2c-0.1,0.2-0.2,0.5-0.2,1s0.1,0.8,0.2,1c0.1,0.2,0.3,0.2,0.5,0.2
			s0.4-0.1,0.5-0.2S405.6,116.7,405.6,116.2z M410.3,114.2l-3.4,6.5h-1.2l3.4-6.5H410.3z M413.1,118.7c0,0.7-0.2,1.3-0.5,1.6
			c-0.3,0.4-0.8,0.5-1.5,0.5c-0.7,0-1.2-0.2-1.5-0.5c-0.3-0.4-0.5-0.9-0.5-1.6c0-0.7,0.2-1.3,0.5-1.6c0.3-0.4,0.8-0.5,1.5-0.5
			c0.7,0,1.1,0.2,1.5,0.5C413,117.5,413.1,118,413.1,118.7z M411.8,118.7c0-0.5-0.1-0.8-0.2-1c-0.1-0.2-0.3-0.2-0.5-0.2
			s-0.4,0.1-0.5,0.2c-0.1,0.2-0.2,0.5-0.2,1s0.1,0.8,0.2,1s0.3,0.2,0.5,0.2s0.4-0.1,0.5-0.2S411.8,119.2,411.8,118.7z"/>
	</g>
	<g>
		<path class="st8" d="M418.9,120.1c2,0,3.2,0,3.6-0.1l0,0.7h-5l0-0.2c2.7-2,4.1-3.9,4.1-5.7c0-0.6-0.1-1-0.4-1.3
			c-0.3-0.3-0.7-0.4-1.1-0.4c-0.4,0-0.8,0.1-1,0.4s-0.4,0.7-0.4,1.1c0,0.1,0,0.3,0,0.4H418c-0.1-0.2-0.1-0.4-0.1-0.6
			c0-0.5,0.2-1,0.6-1.4c0.4-0.4,0.9-0.6,1.5-0.6c0.8,0,1.3,0.2,1.7,0.7c0.4,0.4,0.6,1,0.6,1.7c0,0.9-0.3,1.8-1,2.7
			C420.6,118.6,419.8,119.4,418.9,120.1z"/>
		<path class="st8" d="M423.1,116.7c0-1.2,0.2-2.2,0.7-3s1.1-1.2,1.9-1.2c0.8,0,1.4,0.4,1.9,1.2c0.5,0.8,0.7,1.8,0.7,3
			c0,1.2-0.2,2.2-0.7,3c-0.5,0.8-1.1,1.2-1.9,1.2c-0.8,0-1.4-0.4-1.9-1.2S423.1,117.9,423.1,116.7z M424.5,114.1
			c-0.3,0.6-0.5,1.5-0.5,2.5s0.2,1.9,0.5,2.6c0.3,0.7,0.7,1,1.3,1c0.5,0,0.9-0.3,1.3-1s0.5-1.5,0.5-2.6s-0.2-1.9-0.5-2.5
			s-0.7-1-1.3-1C425.2,113.2,424.8,113.5,424.5,114.1z"/>
		<path class="st8" d="M430.2,114.1l2.7-1.7c0,1.5,0,2.8,0,3.9v4.5h-0.8v-6.9l-1.9,1.2V114.1z"/>
		<path class="st8" d="M438.6,117.5c-0.3,0.3-0.7,0.5-1.3,0.5c-0.6,0-1.2-0.2-1.6-0.7c-0.4-0.5-0.7-1.1-0.7-2c0-0.8,0.2-1.4,0.6-2
			c0.4-0.6,1-0.9,1.7-0.9c0.7,0,1.3,0.3,1.7,0.8c0.4,0.5,0.6,1.3,0.6,2.2c0,1.2-0.3,2.3-1,3.3c-0.6,1-1.6,1.7-2.8,2.3l-0.3-0.5
			c0.8-0.4,1.5-0.8,2-1.5C438.2,118.5,438.5,118,438.6,117.5z M435.8,115.3c0,0.2,0,0.4,0.1,0.6s0.1,0.4,0.2,0.6
			c0.1,0.2,0.3,0.4,0.5,0.6c0.2,0.1,0.5,0.2,0.8,0.2c0.5,0,0.9-0.2,1.2-0.5c0.3-0.4,0.4-0.8,0.4-1.4c0-0.7-0.1-1.3-0.4-1.7
			c-0.3-0.4-0.7-0.6-1.1-0.6C436.3,113.1,435.8,113.9,435.8,115.3z"/>
	</g>
	<g>
		<path class="st8" d="M378.7,141.8h-7.2v-1.5c0.5-0.4,1.1-0.8,1.7-1.3c0.6-0.4,1-0.8,1.3-1.2c0.5-0.5,0.8-0.9,1.1-1.3
			c0.2-0.4,0.3-0.7,0.3-1.1c0-0.4-0.1-0.7-0.4-1s-0.7-0.3-1.2-0.3c-0.4,0-0.8,0.1-1.2,0.2c-0.4,0.2-0.8,0.4-1.2,0.6h-0.2v-2
			c0.3-0.1,0.7-0.3,1.3-0.4s1.1-0.2,1.7-0.2c1.1,0,2,0.2,2.6,0.7c0.6,0.5,0.9,1.2,0.9,2c0,0.6-0.1,1.1-0.4,1.6s-0.7,1.1-1.3,1.6
			c-0.4,0.3-0.7,0.7-1.1,1c-0.4,0.3-0.6,0.5-0.8,0.6h4.1V141.8z"/>
		<path class="st8" d="M387.7,137.3c0,0.8-0.1,1.5-0.2,2.1s-0.4,1.1-0.7,1.5c-0.3,0.4-0.7,0.7-1.2,0.9s-1.1,0.3-1.8,0.3
			c-0.7,0-1.3-0.1-1.8-0.3c-0.5-0.2-0.9-0.5-1.2-0.9c-0.3-0.4-0.5-0.9-0.7-1.5c-0.1-0.6-0.2-1.3-0.2-2.1c0-0.8,0.1-1.5,0.2-2.1
			s0.4-1.1,0.7-1.5c0.3-0.4,0.7-0.7,1.2-0.9c0.5-0.2,1.1-0.3,1.7-0.3c0.7,0,1.3,0.1,1.8,0.3c0.5,0.2,0.9,0.5,1.2,0.9
			c0.3,0.4,0.5,0.9,0.7,1.5C387.7,135.8,387.7,136.5,387.7,137.3z M385.3,137.3c0-1.1-0.1-1.9-0.3-2.4c-0.2-0.5-0.6-0.7-1.1-0.7
			c-0.5,0-0.9,0.2-1.1,0.7c-0.2,0.5-0.3,1.3-0.3,2.4c0,1.1,0.1,1.9,0.3,2.4s0.6,0.7,1.1,0.7c0.5,0,0.9-0.2,1.1-0.7
			S385.3,138.4,385.3,137.3z"/>
		<path class="st8" d="M392,141.8h-2.3v-2.4h2.3V141.8z"/>
		<path class="st8" d="M401.3,138.7c0,0.5-0.1,0.9-0.3,1.3c-0.2,0.4-0.4,0.8-0.8,1c-0.4,0.3-0.8,0.5-1.3,0.7c-0.5,0.2-1,0.2-1.7,0.2
			c-0.7,0-1.4-0.1-1.9-0.2c-0.5-0.1-0.9-0.2-1.2-0.4v-2h0.3c0.4,0.2,0.8,0.4,1.2,0.6c0.4,0.1,0.9,0.2,1.3,0.2c0.3,0,0.5,0,0.8-0.1
			c0.3-0.1,0.5-0.2,0.7-0.3c0.1-0.1,0.2-0.3,0.3-0.4c0.1-0.1,0.1-0.3,0.1-0.6c0-0.2,0-0.4-0.1-0.6c-0.1-0.2-0.2-0.3-0.4-0.4
			c-0.2-0.1-0.5-0.2-0.8-0.3c-0.3,0-0.6-0.1-0.8-0.1c-0.4,0-0.7,0-1.1,0.1c-0.3,0.1-0.6,0.1-0.9,0.2h-0.3v-5.2h6.5v1.8h-4.3v1.5
			c0.1,0,0.3,0,0.5,0c0.2,0,0.4,0,0.5,0c0.5,0,1,0,1.4,0.1c0.4,0.1,0.7,0.2,1,0.4c0.4,0.2,0.7,0.5,0.9,0.9
			C401.2,137.7,401.3,138.2,401.3,138.7z"/>
	</g>
	<g>
		<path class="st8" d="M406.9,137.3c0,0.7-0.2,1.3-0.5,1.6s-0.8,0.5-1.5,0.5c-0.7,0-1.2-0.2-1.5-0.5c-0.3-0.4-0.5-0.9-0.5-1.6
			c0-0.7,0.2-1.3,0.5-1.6c0.3-0.4,0.8-0.5,1.5-0.5c0.7,0,1.1,0.2,1.5,0.5C406.7,136.1,406.9,136.6,406.9,137.3z M405.6,137.3
			c0-0.5-0.1-0.8-0.2-1c-0.1-0.2-0.3-0.2-0.5-0.2s-0.4,0.1-0.5,0.2c-0.1,0.2-0.2,0.5-0.2,1s0.1,0.8,0.2,1c0.1,0.2,0.3,0.2,0.5,0.2
			s0.4-0.1,0.5-0.2S405.6,137.8,405.6,137.3z M410.3,135.3l-3.4,6.5h-1.2l3.4-6.5H410.3z M413.1,139.8c0,0.7-0.2,1.3-0.5,1.6
			c-0.3,0.4-0.8,0.5-1.5,0.5c-0.7,0-1.2-0.2-1.5-0.5c-0.3-0.4-0.5-0.9-0.5-1.6c0-0.7,0.2-1.3,0.5-1.6c0.3-0.4,0.8-0.5,1.5-0.5
			c0.7,0,1.1,0.2,1.5,0.5C413,138.6,413.1,139.1,413.1,139.8z M411.8,139.8c0-0.5-0.1-0.8-0.2-1c-0.1-0.2-0.3-0.2-0.5-0.2
			s-0.4,0.1-0.5,0.2c-0.1,0.2-0.2,0.5-0.2,1s0.1,0.8,0.2,1s0.3,0.2,0.5,0.2s0.4-0.1,0.5-0.2S411.8,140.3,411.8,139.8z"/>
	</g>
	<g>
		<path class="st8" d="M419.7,141.2c2,0,3.2,0,3.6-0.1l0,0.7h-5l0-0.2c2.7-2,4.1-3.9,4.1-5.7c0-0.6-0.1-1-0.4-1.3
			c-0.3-0.3-0.7-0.4-1.1-0.4c-0.4,0-0.8,0.1-1,0.4s-0.4,0.7-0.4,1.1c0,0.1,0,0.3,0,0.4h-0.6c-0.1-0.2-0.1-0.4-0.1-0.6
			c0-0.5,0.2-1,0.6-1.4c0.4-0.4,0.9-0.6,1.5-0.6c0.8,0,1.3,0.2,1.7,0.7c0.4,0.4,0.6,1,0.6,1.7c0,0.9-0.3,1.8-1,2.7
			C421.3,139.7,420.6,140.5,419.7,141.2z"/>
		<path class="st8" d="M423.9,137.8c0-1.2,0.2-2.2,0.7-3s1.1-1.2,1.9-1.2c0.8,0,1.4,0.4,1.9,1.2c0.5,0.8,0.7,1.8,0.7,3
			c0,1.2-0.2,2.2-0.7,3c-0.5,0.8-1.1,1.2-1.9,1.2c-0.8,0-1.4-0.4-1.9-1.2S423.9,139,423.9,137.8z M425.2,135.2
			c-0.3,0.6-0.5,1.5-0.5,2.5s0.2,1.9,0.5,2.6c0.3,0.7,0.7,1,1.3,1c0.5,0,0.9-0.3,1.3-1s0.5-1.5,0.5-2.6s-0.2-1.9-0.5-2.5
			s-0.7-1-1.3-1C426,134.3,425.5,134.6,425.2,135.2z"/>
		<path class="st8" d="M431.4,141.2c2,0,3.2,0,3.6-0.1l0,0.7h-5l0-0.2c2.7-2,4.1-3.9,4.1-5.7c0-0.6-0.1-1-0.4-1.3
			c-0.3-0.3-0.7-0.4-1.1-0.4c-0.4,0-0.8,0.1-1,0.4s-0.4,0.7-0.4,1.1c0,0.1,0,0.3,0,0.4h-0.6c-0.1-0.2-0.1-0.4-0.1-0.6
			c0-0.5,0.2-1,0.6-1.4c0.4-0.4,0.9-0.6,1.5-0.6c0.8,0,1.3,0.2,1.7,0.7c0.4,0.4,0.6,1,0.6,1.7c0,0.9-0.3,1.8-1,2.7
			C433,139.7,432.2,140.5,431.4,141.2z"/>
		<path class="st8" d="M435.6,137.8c0-1.2,0.2-2.2,0.7-3s1.1-1.2,1.9-1.2c0.8,0,1.4,0.4,1.9,1.2c0.5,0.8,0.7,1.8,0.7,3
			c0,1.2-0.2,2.2-0.7,3c-0.5,0.8-1.1,1.2-1.9,1.2c-0.8,0-1.4-0.4-1.9-1.2S435.6,139,435.6,137.8z M436.9,135.2
			c-0.3,0.6-0.5,1.5-0.5,2.5s0.2,1.9,0.5,2.6c0.3,0.7,0.7,1,1.3,1c0.5,0,0.9-0.3,1.3-1s0.5-1.5,0.5-2.6s-0.2-1.9-0.5-2.5
			s-0.7-1-1.3-1C437.7,134.3,437.2,134.6,436.9,135.2z"/>
	</g>
	<line class="st9" x1="206.6" y1="92.5" x2="357.9" y2="92.5"/>
	<path class="st10" d="M359.4,92.5L359.4,92.5 M203.6,92.5L203.6,92.5"/>
	<line class="st11" x1="197.1" y1="92.5" x2="199" y2="92.5"/>
	<path class="st12" d="M200.8,92.5L200.8,92.5 M193.5,92.5L193.5,92.5"/>
	<g>
		<defs>
			<rect id="SVGID_5_" x="13.4" y="12.3" width="441.4" height="308.1"/>
		</defs>
		<clipPath id="SVGID_6_">
			<use xlink:href="#SVGID_5_"  style="overflow:visible;"/>
		</clipPath>
		<path class="st13" d="M193.5,94.5c1.1,0,2-0.9,2-2c0-1.1-0.9-2-2-2c-1.1,0-2,0.9-2,2C191.5,93.7,192.4,94.5,193.5,94.5"/>
	</g>
	<line class="st14" x1="205.7" y1="115.6" x2="357.9" y2="115.6"/>
	<path class="st10" d="M359.4,115.6L359.4,115.6 M202.6,115.6L202.6,115.6"/>
	<line class="st15" x1="196.7" y1="115.6" x2="198.3" y2="115.6"/>
	<path class="st12" d="M199.8,115.6L199.8,115.6 M193.5,115.6L193.5,115.6"/>
	<g>
		<defs>
			<rect id="SVGID_7_" x="13.4" y="12.3" width="441.4" height="308.1"/>
		</defs>
		<clipPath id="SVGID_8_">
			<use xlink:href="#SVGID_7_"  style="overflow:visible;"/>
		</clipPath>
		<path class="st16" d="M193.5,117.6c1.1,0,2-0.9,2-2c0-1.1-0.9-2-2-2c-1.1,0-2,0.9-2,2C191.5,116.8,192.4,117.6,193.5,117.6"/>
	</g>
	<line class="st17" x1="208.4" y1="136.7" x2="357.9" y2="136.7"/>
	<path class="st10" d="M359.4,136.7L359.4,136.7 M205.4,136.7L205.4,136.7"/>
	<line class="st18" x1="196.6" y1="136.7" x2="201.1" y2="136.7"/>
	<path class="st19" d="M202.6,136.7L202.6,136.7 M193.5,136.7L193.5,136.7"/>
	<g>
		<defs>
			<rect id="SVGID_9_" x="13.4" y="12.3" width="441.4" height="308.1"/>
		</defs>
		<clipPath id="SVGID_10_">
			<use xlink:href="#SVGID_9_"  style="overflow:visible;"/>
		</clipPath>
		<path class="st20" d="M193.5,138.7c1.1,0,2-0.9,2-2c0-1.1-0.9-2-2-2c-1.1,0-2,0.9-2,2C191.5,137.9,192.4,138.7,193.5,138.7"/>
	</g>
</g>
</svg>
