<?xml version="1.0" encoding="utf-8"?>
<!-- Generator: Adobe Illustrator 25.2.1, SVG Export Plug-In . SVG Version: 6.00 Build 0)  -->
<svg version="1.1" id="Capa_1" xmlns="http://www.w3.org/2000/svg" xmlns:xlink="http://www.w3.org/1999/xlink" x="0px" y="0px"
	 viewBox="0 0 300 300" style="enable-background:new 0 0 300 300;" xml:space="preserve">
<style type="text/css">
	.st0{clip-path:url(#SVGID_2_);fill:#E3297C;}
	.st1{clip-path:url(#SVGID_4_);fill:#E3297C;}
	.st2{clip-path:url(#SVGID_6_);fill:#E3297C;}
	.st3{clip-path:url(#SVGID_8_);fill:#E3297C;}
	.st4{clip-path:url(#SVGID_10_);fill:#E3297C;}
	.st5{clip-path:url(#SVGID_12_);fill:#E3297C;}
	.st6{clip-path:url(#SVGID_14_);fill:#E3297C;}
	.st7{clip-path:url(#SVGID_16_);fill:#747F8B;}
</style>
<g>
	<g>
		<defs>
			<rect id="SVGID_1_" x="10" y="10" width="280" height="280"/>
		</defs>
		<clipPath id="SVGID_2_">
			<use xlink:href="#SVGID_1_"  style="overflow:visible;"/>
		</clipPath>
		<path class="st0" d="M141.2,134.2c-1.7,0-3.2,1.4-3.2,3.2V161c0,0.9,0.7,1.6,1.6,1.6c4.4,0,7.9,3.5,7.9,7.9v22.1
			c0,0.9,0.7,1.6,1.6,1.6h9.5c0.9,0,1.6-0.7,1.6-1.6v-22.1c0-4.4,3.5-7.9,7.9-7.9c0.9,0,1.6-0.7,1.6-1.6v-23.7
			c0-1.7-1.4-3.2-3.2-3.2L141.2,134.2L141.2,134.2z M158.5,200.5H149c-4.3,0-7.9-3.5-7.9-7.9v-22.1c0-0.9-0.7-1.6-1.6-1.6
			c-4.3,0-7.9-3.5-7.9-7.9v-23.7c0-5.2,4.3-9.5,9.5-9.5h25.2c5.2,0,9.5,4.3,9.5,9.5V161c0,4.4-3.5,7.9-7.9,7.9
			c-0.9,0-1.6,0.7-1.6,1.6v22.1C166.4,197,162.9,200.5,158.5,200.5"/>
	</g>
	<g>
		<defs>
			<rect id="SVGID_3_" x="10" y="10" width="280" height="280"/>
		</defs>
		<clipPath id="SVGID_4_">
			<use xlink:href="#SVGID_3_"  style="overflow:visible;"/>
		</clipPath>
		<path class="st1" d="M153.8,105.8c-3.5,0-6.3,2.8-6.3,6.3s2.8,6.3,6.3,6.3s6.3-2.8,6.3-6.3C160.1,108.6,157.3,105.8,153.8,105.8
			 M153.8,124.7c-7,0-12.6-5.7-12.6-12.6c0-7,5.7-12.6,12.6-12.6s12.6,5.7,12.6,12.6C166.4,119.1,160.7,124.7,153.8,124.7"/>
	</g>
	<g>
		<defs>
			<rect id="SVGID_5_" x="10" y="10" width="280" height="280"/>
		</defs>
		<clipPath id="SVGID_6_">
			<use xlink:href="#SVGID_5_"  style="overflow:visible;"/>
		</clipPath>
		<path class="st2" d="M186.9,200.5h-11c-1.7,0-3.2-1.4-3.2-3.2c0-1.7,1.4-3.2,3.2-3.2h11c0.9,0,1.6-0.7,1.6-1.6v-18.9
			c0-4.4,3.5-7.9,7.9-7.9c0.9,0,1.6-0.7,1.6-1.6v-23.7c0-1.7-1.4-3.2-3.2-3.2h-9.5c-1.7,0-3.2-1.4-3.2-3.2s1.4-3.2,3.2-3.2h9.5
			c5.2,0,9.5,4.3,9.5,9.5V164c0,4.4-3.5,7.9-7.9,7.9c-0.9,0-1.6,0.7-1.6,1.6v18.9C194.8,197,191.3,200.5,186.9,200.5"/>
	</g>
	<g>
		<defs>
			<rect id="SVGID_7_" x="10" y="10" width="280" height="280"/>
		</defs>
		<clipPath id="SVGID_8_">
			<use xlink:href="#SVGID_7_"  style="overflow:visible;"/>
		</clipPath>
		<path class="st3" d="M131.7,200.5h-11c-4.3,0-7.9-3.5-7.9-7.9v-18.9c0-0.9-0.7-1.6-1.6-1.6c-4.3,0-7.9-3.5-7.9-7.9v-23.7
			c0-5.2,4.3-9.5,9.5-9.5h9.5c1.7,0,3.2,1.4,3.2,3.2s-1.4,3.2-3.2,3.2h-9.5c-1.7,0-3.2,1.4-3.2,3.2v23.7c0,0.9,0.7,1.6,1.6,1.6
			c4.3,0,7.9,3.5,7.9,7.9v18.9c0,0.9,0.7,1.6,1.6,1.6h11c1.7,0,3.2,1.4,3.2,3.2C134.8,199.1,133.4,200.5,131.7,200.5"/>
	</g>
	<g>
		<defs>
			<rect id="SVGID_9_" x="10" y="10" width="280" height="280"/>
		</defs>
		<clipPath id="SVGID_10_">
			<use xlink:href="#SVGID_9_"  style="overflow:visible;"/>
		</clipPath>
		<path class="st4" d="M185.3,109c-3.5,0-6.3,2.8-6.3,6.3s2.8,6.3,6.3,6.3s6.3-2.8,6.3-6.3C191.7,111.8,188.8,109,185.3,109
			 M185.3,127.9c-7,0-12.6-5.7-12.6-12.6c0-7,5.7-12.6,12.6-12.6s12.6,5.7,12.6,12.6C198,122.2,192.3,127.9,185.3,127.9"/>
	</g>
	<g>
		<defs>
			<rect id="SVGID_11_" x="10" y="10" width="280" height="280"/>
		</defs>
		<clipPath id="SVGID_12_">
			<use xlink:href="#SVGID_11_"  style="overflow:visible;"/>
		</clipPath>
		<path class="st5" d="M122.2,109c-3.5,0-6.3,2.8-6.3,6.3s2.8,6.3,6.3,6.3s6.3-2.8,6.3-6.3S125.7,109,122.2,109 M122.2,127.9
			c-7,0-12.6-5.7-12.6-12.6c0-7,5.7-12.6,12.6-12.6c6.9,0,12.6,5.7,12.6,12.6C134.8,122.2,129.2,127.9,122.2,127.9"/>
	</g>
	<g>
		<defs>
			<rect id="SVGID_13_" x="10" y="10" width="280" height="280"/>
		</defs>
		<clipPath id="SVGID_14_">
			<use xlink:href="#SVGID_13_"  style="overflow:visible;"/>
		</clipPath>
		<path class="st6" d="M150,290c-77.2,0-140-62.8-140-140S72.8,10,150,10s140,62.8,140,140h-5.1c0-74.4-60.5-134.9-134.9-134.9
			S15.1,75.6,15.1,150S75.6,284.9,150,284.9V290z"/>
	</g>
	<g>
		<defs>
			<rect id="SVGID_15_" x="10" y="10" width="280" height="280"/>
		</defs>
		<clipPath id="SVGID_16_">
			<use xlink:href="#SVGID_15_"  style="overflow:visible;"/>
		</clipPath>
		<path class="st7" d="M150.6,266.6C86.3,266.6,34,214.3,34,150S86.3,33.4,150.6,33.4S267.3,85.7,267.3,150S214.9,266.6,150.6,266.6
			 M150.6,38.9c-61.2,0-111,49.9-111,111.1c0,61.3,49.8,111.1,111.1,111.1s111-49.8,111-111.1C261.7,88.8,211.9,38.9,150.6,38.9"/>
	</g>
</g>
</svg>
