<?xml version="1.0" encoding="utf-8"?>
<!-- Generator: Adobe Illustrator 25.2.1, SVG Export Plug-In . SVG Version: 6.00 Build 0)  -->
<svg version="1.1" id="Capa_1" xmlns="http://www.w3.org/2000/svg" xmlns:xlink="http://www.w3.org/1999/xlink" x="0px" y="0px"
	 viewBox="0 0 300 300" style="enable-background:new 0 0 300 300;" xml:space="preserve">
<style type="text/css">
	.st0{clip-path:url(#SVGID_2_);fill:#E3297C;}
	.st1{clip-path:url(#SVGID_2_);fill:none;stroke:#E3297C;stroke-miterlimit:10;}
	.st2{clip-path:url(#SVGID_2_);fill:#747F8B;}
</style>
<g>
	<defs>
		<rect id="SVGID_1_" x="10" y="10" width="280" height="280"/>
	</defs>
	<clipPath id="SVGID_2_">
		<use xlink:href="#SVGID_1_"  style="overflow:visible;"/>
	</clipPath>
	<path class="st0" d="M137.4,125.3c-4.4,0-7.9,3.5-7.9,7.9c0,4.4,3.5,7.9,7.9,7.9c4.4,0,7.9-3.5,7.9-7.9
		C145.3,128.9,141.7,125.3,137.4,125.3 M137.4,144.3c-6.1,0-11.1-5-11.1-11.1c0-6.1,5-11.1,11.1-11.1c6.1,0,11.1,5,11.1,11.1
		C148.4,139.3,143.5,144.3,137.4,144.3"/>
	<path class="st1" d="M137.4,125.3c-4.4,0-7.9,3.5-7.9,7.9c0,4.4,3.5,7.9,7.9,7.9c4.4,0,7.9-3.5,7.9-7.9
		C145.3,128.9,141.7,125.3,137.4,125.3z M137.4,144.3c-6.1,0-11.1-5-11.1-11.1c0-6.1,5-11.1,11.1-11.1c6.1,0,11.1,5,11.1,11.1
		C148.4,139.3,143.5,144.3,137.4,144.3z"/>
	<path class="st0" d="M143,201.7h-16.5v-23.4l-6.2-3.6v-23.6c0-4.9,3.8-6.6,4-6.6c0.8-0.3,1.7,0.1,2.1,0.9c0.3,0.8-0.1,1.7-0.9,2.1
		c-0.2,0.1-2.1,1-2.1,3.7v21.7l6.2,3.6v22.1H143c0.9,0,1.6,0.7,1.6,1.6C144.6,201,143.8,201.7,143,201.7"/>
	<path class="st1" d="M143,201.7h-16.5v-23.4l-6.2-3.6v-23.6c0-4.9,3.8-6.6,4-6.6c0.8-0.3,1.7,0.1,2.1,0.9c0.3,0.8-0.1,1.7-0.9,2.1
		c-0.2,0.1-2.1,1-2.1,3.7v21.7l6.2,3.6v22.1H143c0.9,0,1.6,0.7,1.6,1.6C144.6,201,143.8,201.7,143,201.7z"/>
	<path class="st0" d="M184,125.3c-4.4,0-7.9,3.5-7.9,7.9c0,4.4,3.5,7.9,7.9,7.9c4.4,0,7.9-3.5,7.9-7.9
		C191.9,128.9,188.3,125.3,184,125.3 M184,144.3c-6.1,0-11.1-5-11.1-11.1c0-6.1,5-11.1,11.1-11.1s11.1,5,11.1,11.1
		C195,139.3,190.1,144.3,184,144.3"/>
	<path class="st1" d="M184,125.3c-4.4,0-7.9,3.5-7.9,7.9c0,4.4,3.5,7.9,7.9,7.9c4.4,0,7.9-3.5,7.9-7.9
		C191.9,128.9,188.3,125.3,184,125.3z M184,144.3c-6.1,0-11.1-5-11.1-11.1c0-6.1,5-11.1,11.1-11.1s11.1,5,11.1,11.1
		C195,139.3,190.1,144.3,184,144.3z"/>
	<path class="st0" d="M197.6,170.2L197.6,170.2L197.6,170.2z M193,201.7h-16.5c-0.9,0-1.6-0.7-1.6-1.6c0-0.9,0.7-1.6,1.6-1.6h13.3
		v-27.8l6.2-1.8v-17.9c0-2.7-1.8-3.6-2.1-3.7c-0.8-0.3-1.2-1.3-0.8-2.1c0.3-0.8,1.2-1.2,2-0.9c0.2,0.1,4,1.7,4,6.6v20.3l-6.2,1.8
		V201.7z"/>
	<path class="st1" d="M197.6,170.2L197.6,170.2L197.6,170.2z M193,201.7h-16.5c-0.9,0-1.6-0.7-1.6-1.6c0-0.9,0.7-1.6,1.6-1.6h13.3
		v-27.8l6.2-1.8v-17.9c0-2.7-1.8-3.6-2.1-3.7c-0.8-0.3-1.2-1.3-0.8-2.1c0.3-0.8,1.2-1.2,2-0.9c0.2,0.1,4,1.7,4,6.6v20.3l-6.2,1.8
		V201.7z"/>
	<path class="st0" d="M165.8,107.3c-4.4,0-7.9,3.5-7.9,7.9c0,4.4,3.5,7.9,7.9,7.9c4.4,0,7.9-3.5,7.9-7.9
		C173.7,110.8,170.2,107.3,165.8,107.3 M165.8,126.2c-6.1,0-11.1-5-11.1-11.1c0-6.1,5-11.1,11.1-11.1c6.1,0,11.1,5,11.1,11.1
		C176.9,121.3,172,126.2,165.8,126.2"/>
	<path class="st1" d="M165.8,107.3c-4.4,0-7.9,3.5-7.9,7.9c0,4.4,3.5,7.9,7.9,7.9c4.4,0,7.9-3.5,7.9-7.9
		C173.7,110.8,170.2,107.3,165.8,107.3z M165.8,126.2c-6.1,0-11.1-5-11.1-11.1c0-6.1,5-11.1,11.1-11.1c6.1,0,11.1,5,11.1,11.1
		C176.9,121.3,172,126.2,165.8,126.2z"/>
	<path class="st0" d="M152.4,132.9c-0.9,0-1.6-0.7-1.6-1.6c0-4.9,3.9-6.6,4-6.6c0.8-0.3,1.7,0.1,2.1,0.9c0.3,0.8-0.1,1.7-0.9,2.1
		c-0.2,0.1-2.1,1-2.1,3.7C154,132.2,153.3,132.9,152.4,132.9"/>
	<path class="st1" d="M152.4,132.9c-0.9,0-1.6-0.7-1.6-1.6c0-4.9,3.9-6.6,4-6.6c0.8-0.3,1.7,0.1,2.1,0.9c0.3,0.8-0.1,1.7-0.9,2.1
		c-0.2,0.1-2.1,1-2.1,3.7C154,132.2,153.3,132.9,152.4,132.9z"/>
	<path class="st0" d="M160,147.4c-4.4,0-7.9,3.5-7.9,7.9s3.5,7.9,7.9,7.9s7.9-3.5,7.9-7.9S164.3,147.4,160,147.4 M160,166.3
		c-6.1,0-11.1-5-11.1-11.1c0-6.1,5-11.1,11.1-11.1c6.1,0,11.1,5,11.1,11.1C171,161.4,166.1,166.3,160,166.3"/>
	<path class="st1" d="M160,147.4c-4.4,0-7.9,3.5-7.9,7.9s3.5,7.9,7.9,7.9s7.9-3.5,7.9-7.9S164.3,147.4,160,147.4z M160,166.3
		c-6.1,0-11.1-5-11.1-11.1c0-6.1,5-11.1,11.1-11.1c6.1,0,11.1,5,11.1,11.1C171,161.4,166.1,166.3,160,166.3z"/>
	<path class="st0" d="M167.6,201.7H160c-0.9,0-1.6-0.7-1.6-1.6c0-0.9,0.7-1.6,1.6-1.6h4.5v-8.6h7.8c-0.5-3.6-1.6-11.5-2.4-15.4
		c-0.6-3-2.2-4.1-2.3-4.1c-0.7-0.5-1-1.4-0.5-2.2c0.4-0.7,1.4-1,2.1-0.6c0.3,0.2,2.9,1.8,3.8,6.2c1,5.1,2.6,16.9,2.7,17.4l0.2,1.8
		h-8.2V201.7z"/>
	<path class="st1" d="M167.6,201.7H160c-0.9,0-1.6-0.7-1.6-1.6c0-0.9,0.7-1.6,1.6-1.6h4.5v-8.6h7.8c-0.5-3.6-1.6-11.5-2.4-15.4
		c-0.6-3-2.2-4.1-2.3-4.1c-0.7-0.5-1-1.4-0.5-2.2c0.4-0.7,1.4-1,2.1-0.6c0.3,0.2,2.9,1.8,3.8,6.2c1,5.1,2.6,16.9,2.7,17.4l0.2,1.8
		h-8.2V201.7z"/>
	<path class="st0" d="M160.4,201.7h-7.6v-8.6h-8.2l0.2-1.8c0.1-0.5,1.7-12.2,2.7-17.4c0.9-4.4,3.5-6,3.8-6.2
		c0.8-0.4,1.7-0.2,2.2,0.6c0.4,0.7,0.2,1.7-0.5,2.2c-0.1,0.1-1.7,1.1-2.3,4.1c-0.8,3.9-1.9,11.8-2.4,15.4h7.8v8.6h4.5
		c0.9,0,1.6,0.7,1.6,1.6C161.9,201,161.2,201.7,160.4,201.7"/>
	<path class="st1" d="M160.4,201.7h-7.6v-8.6h-8.2l0.2-1.8c0.1-0.5,1.7-12.2,2.7-17.4c0.9-4.4,3.5-6,3.8-6.2
		c0.8-0.4,1.7-0.2,2.2,0.6c0.4,0.7,0.2,1.7-0.5,2.2c-0.1,0.1-1.7,1.1-2.3,4.1c-0.8,3.9-1.9,11.8-2.4,15.4h7.8v8.6h4.5
		c0.9,0,1.6,0.7,1.6,1.6C161.9,201,161.2,201.7,160.4,201.7z"/>
	<path class="st0" d="M116.9,104.6c-4.4,0-7.9,3.5-7.9,7.9c0,4.4,3.5,7.9,7.9,7.9c4.4,0,7.9-3.5,7.9-7.9
		C124.8,108.1,121.3,104.6,116.9,104.6 M116.9,123.5c-6.1,0-11.1-5-11.1-11.1c0-6.1,5-11.1,11.1-11.1c6.1,0,11.1,5,11.1,11.1
		C128,118.6,123.1,123.5,116.9,123.5"/>
	<path class="st1" d="M116.9,104.6c-4.4,0-7.9,3.5-7.9,7.9c0,4.4,3.5,7.9,7.9,7.9c4.4,0,7.9-3.5,7.9-7.9
		C124.8,108.1,121.3,104.6,116.9,104.6z M116.9,123.5c-6.1,0-11.1-5-11.1-11.1c0-6.1,5-11.1,11.1-11.1c6.1,0,11.1,5,11.1,11.1
		C128,118.6,123.1,123.5,116.9,123.5z"/>
	<path class="st0" d="M119,201.7h-13.8v-42.3l-6.2-3.6v-25.4c0-4.9,3.9-6.6,4-6.6c0.8-0.3,1.7,0.1,2.1,0.9c0.3,0.8-0.1,1.7-0.9,2.1
		c-0.2,0.1-2.1,1-2.1,3.7V154l6.2,3.6v40.9H119c0.9,0,1.6,0.7,1.6,1.6C120.6,201,119.8,201.7,119,201.7"/>
	<path class="st1" d="M119,201.7h-13.8v-42.3l-6.2-3.6v-25.4c0-4.9,3.9-6.6,4-6.6c0.8-0.3,1.7,0.1,2.1,0.9c0.3,0.8-0.1,1.7-0.9,2.1
		c-0.2,0.1-2.1,1-2.1,3.7V154l6.2,3.6v40.9H119c0.9,0,1.6,0.7,1.6,1.6C120.6,201,119.8,201.7,119,201.7z"/>
	<path class="st0" d="M10,150C10,72.8,72.8,10,150,10c77.2,0,140,62.8,140,140c0,77.2-62.8,140-140,140v-5.1
		c74.4,0,134.9-60.5,134.9-134.9S224.4,15.1,150,15.1C75.6,15.1,15.1,75.6,15.1,150H10z"/>
	<path class="st2" d="M33.4,150.6C33.4,86.3,85.7,34,150,34c64.3,0,116.6,52.3,116.6,116.6S214.3,267.3,150,267.3
		C85.7,267.3,33.4,214.9,33.4,150.6 M261.1,150.6c0-61.3-49.8-111.1-111.1-111.1c-61.3,0-111.1,49.8-111.1,111.1
		S88.7,261.7,150,261.7C211.2,261.7,261.1,211.9,261.1,150.6"/>
</g>
</svg>
