<?xml version="1.0" encoding="utf-8"?>
<!-- Generator: Adobe Illustrator 25.2.1, SVG Export Plug-In . SVG Version: 6.00 Build 0)  -->
<svg version="1.1" id="Capa_1" xmlns="http://www.w3.org/2000/svg" xmlns:xlink="http://www.w3.org/1999/xlink" x="0px" y="0px"
	 viewBox="0 0 324.5 476.5" style="enable-background:new 0 0 324.5 476.5;" xml:space="preserve">
<style type="text/css">
	.st0{fill:none;stroke:#480174;stroke-linecap:round;stroke-linejoin:round;stroke-miterlimit:10;stroke-dasharray:0,2.991;}
	.st1{fill:none;stroke:#480174;stroke-linecap:round;stroke-linejoin:round;stroke-miterlimit:10;}
	.st2{fill:none;stroke:#480174;stroke-linecap:round;stroke-linejoin:round;stroke-miterlimit:10;stroke-dasharray:0,2.985;}
	.st3{fill:none;stroke:#480174;stroke-width:21;stroke-miterlimit:10;}
	.st4{fill:#FFFFFF;}
	.st5{fill:#252525;}
	.st6{fill:#E95D15;}
	.st7{fill:#FFC000;}
	.st8{fill:#7EAF00;}
	.st9{fill:#572279;}
</style>
<g>
	<line class="st0" x1="39.3" y1="31.8" x2="39.3" y2="401.2"/>
	<path class="st1" d="M39.3,402.7L39.3,402.7 M39.3,28.8L39.3,28.8"/>
	<line class="st2" x1="304" y1="77.6" x2="18.9" y2="77.6"/>
	<path class="st1" d="M17.4,77.6L17.4,77.6 M307,77.6L307,77.6"/>
	<line class="st3" x1="61.7" y1="117.2" x2="118.9" y2="117.2"/>
	<line class="st3" x1="61.7" y1="177.2" x2="106.1" y2="177.2"/>
	<line class="st3" x1="61.7" y1="239.6" x2="131.7" y2="239.6"/>
	<line class="st3" x1="61.7" y1="317.2" x2="131.7" y2="317.2"/>
	<line class="st3" x1="61.7" y1="377.2" x2="112.4" y2="377.2"/>
	<g>
		<path class="st4" d="M79.8,123.2H69.5v-2.2c0.8-0.6,1.6-1.2,2.4-1.8s1.4-1.2,1.9-1.7c0.7-0.7,1.2-1.3,1.5-1.8s0.4-1,0.4-1.5
			c0-0.6-0.2-1.1-0.6-1.4s-0.9-0.5-1.7-0.5c-0.5,0-1.1,0.1-1.7,0.3s-1.1,0.5-1.7,0.9h-0.3v-2.9c0.4-0.2,1-0.4,1.8-0.5
			s1.6-0.3,2.4-0.3c1.6,0,2.9,0.3,3.8,1s1.3,1.7,1.3,2.9c0,0.8-0.2,1.6-0.6,2.4s-1,1.5-1.9,2.3c-0.5,0.5-1.1,0.9-1.6,1.4
			s-0.9,0.7-1.2,0.9h5.9V123.2z"/>
		<path class="st4" d="M91.7,123.2H83v-2.3h2.8V114H83v-2.1c0.4,0,0.8,0,1.2-0.1s0.7-0.1,1-0.3c0.3-0.1,0.5-0.3,0.7-0.6
			s0.2-0.5,0.3-0.9H89v10.8h2.7V123.2z"/>
		<path class="st4" d="M98.4,123.2h-3.3v-3.5h3.3V123.2z"/>
		<path class="st4" d="M110.6,117.1c0.3,0.2,0.5,0.5,0.7,0.9s0.3,0.8,0.3,1.3c0,0.6-0.1,1.2-0.4,1.7s-0.6,1-1.1,1.4
			c-0.5,0.4-1.1,0.7-1.7,0.8s-1.5,0.3-2.4,0.3c-1.1,0-2-0.1-2.8-0.3s-1.4-0.4-1.9-0.6v-2.9h0.3c0.5,0.3,1.1,0.6,1.8,0.8
			s1.3,0.3,1.9,0.3c0.3,0,0.7,0,1.1-0.1s0.7-0.2,1-0.4c0.2-0.1,0.4-0.3,0.5-0.5s0.2-0.5,0.2-0.9c0-0.4-0.1-0.7-0.3-0.9
			s-0.4-0.4-0.7-0.4c-0.3-0.1-0.6-0.1-1-0.2s-0.8,0-1.1,0h-0.7v-2.3h0.7c0.5,0,0.9,0,1.2,0s0.7-0.1,0.9-0.2c0.3-0.1,0.5-0.3,0.6-0.4
			s0.2-0.5,0.2-0.8c0-0.3-0.1-0.5-0.2-0.6s-0.3-0.3-0.5-0.4c-0.2-0.1-0.5-0.2-0.8-0.2s-0.6-0.1-0.8-0.1c-0.6,0-1.1,0.1-1.8,0.3
			s-1.3,0.5-1.9,0.8h-0.3v-2.8c0.5-0.2,1.1-0.4,2-0.6s1.7-0.3,2.5-0.3c0.8,0,1.5,0.1,2.2,0.2s1.1,0.3,1.5,0.6c0.5,0.3,0.8,0.6,1.1,1
			s0.4,0.9,0.4,1.4c0,0.7-0.2,1.4-0.7,1.9s-1,0.9-1.8,1.1v0.1c0.3,0,0.6,0.1,0.9,0.2S110.3,116.9,110.6,117.1z"/>
	</g>
	<g>
		<path class="st5" d="M69.1,138.6v4.7H67v-3.3c0-0.3,0-0.6,0-0.8s-0.1-0.4-0.1-0.5s-0.2-0.2-0.3-0.3s-0.3-0.1-0.6-0.1
			c-0.2,0-0.4,0-0.6,0.1s-0.4,0.2-0.5,0.3v4.7h-2.1v-6.6h2.1v0.7c0.4-0.3,0.7-0.5,1-0.7s0.7-0.2,1.1-0.2c0.4,0,0.8,0.1,1.1,0.3
			c0.3,0.2,0.6,0.5,0.8,0.9c0.4-0.4,0.8-0.6,1.2-0.8s0.8-0.3,1.2-0.3c0.7,0,1.2,0.2,1.6,0.6c0.4,0.4,0.6,1,0.6,1.8v4.3h-2.1v-3.3
			c0-0.3,0-0.6,0-0.8s-0.1-0.4-0.1-0.5c-0.1-0.1-0.2-0.2-0.3-0.3s-0.3-0.1-0.6-0.1c-0.2,0-0.3,0-0.5,0.1S69.4,138.4,69.1,138.6z"/>
		<path class="st5" d="M77.7,135.7h-2.2v-1.6h2.2V135.7z M77.6,143.2h-2.1v-6.6h2.1V143.2z"/>
		<path class="st5" d="M81.8,143.2h-2.1v-9.1h2.1V143.2z"/>
		<path class="st5" d="M86.1,143.2H84v-9.1h2.1V143.2z"/>
		<path class="st5" d="M94.9,139.9c0,1.1-0.3,1.9-0.9,2.6s-1.5,0.9-2.7,0.9s-2-0.3-2.7-0.9s-0.9-1.5-0.9-2.6c0-1.1,0.3-1.9,1-2.6
			s1.5-0.9,2.7-0.9c1.1,0,2,0.3,2.7,0.9S94.9,138.9,94.9,139.9z M92.3,141.5c0.1-0.2,0.2-0.4,0.3-0.6s0.1-0.6,0.1-1
			c0-0.4,0-0.7-0.1-1s-0.2-0.5-0.3-0.6c-0.1-0.2-0.3-0.3-0.5-0.3s-0.4-0.1-0.6-0.1s-0.4,0-0.5,0.1s-0.3,0.2-0.5,0.3
			c-0.1,0.2-0.2,0.4-0.3,0.6s-0.1,0.6-0.1,1c0,0.4,0,0.7,0.1,0.9s0.2,0.5,0.3,0.6c0.1,0.2,0.3,0.3,0.4,0.3s0.4,0.1,0.6,0.1
			c0.2,0,0.4,0,0.5-0.1S92.2,141.7,92.3,141.5z"/>
		<path class="st5" d="M103.1,143.2H101V140c0-0.3,0-0.5,0-0.8s-0.1-0.5-0.1-0.6c-0.1-0.1-0.2-0.2-0.3-0.3s-0.4-0.1-0.6-0.1
			c-0.2,0-0.4,0-0.6,0.1s-0.4,0.2-0.6,0.3v4.7h-2.1v-6.6h2.1v0.7c0.4-0.3,0.7-0.5,1.1-0.7s0.7-0.2,1.1-0.2c0.7,0,1.3,0.2,1.7,0.6
			c0.4,0.4,0.6,1,0.6,1.9V143.2z"/>
		<path class="st5" d="M111.7,140.3h-4.8c0,0.5,0.2,0.9,0.6,1.2s0.9,0.4,1.6,0.4c0.4,0,0.9-0.1,1.3-0.2s0.7-0.3,1-0.5h0.2v1.7
			c-0.5,0.2-0.9,0.3-1.3,0.4s-0.9,0.1-1.4,0.1c-1.3,0-2.3-0.3-3-0.9s-1.1-1.4-1.1-2.5c0-1.1,0.3-1.9,1-2.6s1.6-1,2.7-1
			c1.1,0,1.9,0.3,2.4,0.8s0.8,1.3,0.8,2.3V140.3z M109.6,139.1c0-0.4-0.1-0.8-0.3-1s-0.5-0.3-1-0.3c-0.4,0-0.7,0.1-1,0.3
			s-0.4,0.5-0.4,1H109.6z"/>
		<path class="st5" d="M119,141.1c0,0.7-0.3,1.2-0.9,1.6s-1.4,0.6-2.5,0.6c-0.6,0-1.1-0.1-1.6-0.2s-0.9-0.2-1.1-0.4v-1.7h0.2
			c0.1,0.1,0.2,0.2,0.4,0.2s0.3,0.2,0.6,0.3c0.2,0.1,0.5,0.2,0.7,0.2s0.6,0.1,0.9,0.1c0.4,0,0.7,0,0.9-0.1s0.3-0.2,0.3-0.4
			c0-0.2-0.1-0.3-0.2-0.3s-0.3-0.1-0.7-0.2c-0.2,0-0.4-0.1-0.6-0.1s-0.5-0.1-0.7-0.1c-0.6-0.2-1-0.4-1.3-0.7s-0.4-0.7-0.4-1.2
			c0-0.6,0.3-1.2,0.9-1.6s1.4-0.6,2.5-0.6c0.5,0,1,0,1.4,0.1s0.8,0.2,1.1,0.3v1.7h-0.2c-0.3-0.2-0.7-0.4-1.1-0.5s-0.8-0.2-1.2-0.2
			c-0.3,0-0.6,0-0.9,0.1s-0.3,0.2-0.3,0.4c0,0.2,0.1,0.3,0.2,0.4s0.4,0.2,0.7,0.2c0.2,0,0.4,0.1,0.7,0.1s0.5,0.1,0.7,0.2
			c0.6,0.1,1,0.4,1.2,0.7S119,140.7,119,141.1z"/>
		<path class="st5" d="M131.4,139.9c0,1.1-0.3,1.9-0.9,2.6s-1.5,0.9-2.7,0.9s-2-0.3-2.7-0.9s-0.9-1.5-0.9-2.6c0-1.1,0.3-1.9,1-2.6
			s1.5-0.9,2.7-0.9c1.1,0,2,0.3,2.7,0.9S131.4,138.9,131.4,139.9z M128.8,141.5c0.1-0.2,0.2-0.4,0.3-0.6s0.1-0.6,0.1-1
			c0-0.4,0-0.7-0.1-1s-0.2-0.5-0.3-0.6c-0.1-0.2-0.3-0.3-0.5-0.3s-0.4-0.1-0.6-0.1s-0.4,0-0.5,0.1s-0.3,0.2-0.5,0.3
			c-0.1,0.2-0.2,0.4-0.3,0.6s-0.1,0.6-0.1,1c0,0.4,0,0.7,0.1,0.9s0.2,0.5,0.3,0.6c0.1,0.2,0.3,0.3,0.4,0.3s0.4,0.1,0.6,0.1
			c0.2,0,0.4,0,0.5-0.1S128.7,141.7,128.8,141.5z"/>
		<path class="st5" d="M139.9,139.9c0,0.5-0.1,1-0.2,1.5c-0.2,0.4-0.4,0.8-0.7,1.1c-0.3,0.3-0.6,0.5-1,0.7s-0.7,0.2-1.1,0.2
			c-0.4,0-0.7,0-1-0.1c-0.3-0.1-0.5-0.2-0.8-0.3v2.7h-2.1v-9h2.1v0.7c0.3-0.3,0.7-0.5,1-0.6s0.7-0.2,1.2-0.2c0.8,0,1.5,0.3,1.9,0.9
			C139.7,138,139.9,138.8,139.9,139.9z M137.8,139.9c0-0.6-0.1-1.1-0.3-1.4c-0.2-0.3-0.6-0.4-1-0.4c-0.2,0-0.4,0-0.6,0.1
			s-0.4,0.1-0.6,0.3v3.3c0.1,0.1,0.3,0.1,0.5,0.1s0.3,0,0.5,0c0.6,0,1-0.2,1.2-0.5C137.6,141,137.8,140.6,137.8,139.9z"/>
		<path class="st5" d="M148,140.3h-4.8c0,0.5,0.2,0.9,0.6,1.2s0.9,0.4,1.6,0.4c0.4,0,0.9-0.1,1.3-0.2s0.7-0.3,1-0.5h0.2v1.7
			c-0.5,0.2-0.9,0.3-1.3,0.4s-0.9,0.1-1.4,0.1c-1.3,0-2.3-0.3-3-0.9s-1.1-1.4-1.1-2.5c0-1.1,0.3-1.9,1-2.6s1.6-1,2.7-1
			c1.1,0,1.9,0.3,2.4,0.8s0.8,1.3,0.8,2.3V140.3z M145.9,139.1c0-0.4-0.1-0.8-0.3-1s-0.5-0.3-1-0.3c-0.4,0-0.7,0.1-1,0.3
			s-0.4,0.5-0.4,1H145.9z"/>
		<path class="st5" d="M154.4,138.7h-0.2c-0.1,0-0.2-0.1-0.4-0.1s-0.4,0-0.5,0c-0.3,0-0.6,0-0.8,0.1s-0.5,0.1-0.7,0.2v4.4h-2.1v-6.6
			h2.1v1c0.5-0.4,0.9-0.7,1.2-0.8c0.3-0.1,0.7-0.2,0.9-0.2c0.1,0,0.2,0,0.3,0c0.1,0,0.2,0,0.2,0V138.7z"/>
		<path class="st5" d="M159.7,142.5c-0.1,0.1-0.3,0.2-0.4,0.3s-0.3,0.2-0.5,0.3c-0.2,0.1-0.4,0.2-0.6,0.2s-0.5,0.1-0.7,0.1
			c-0.6,0-1.1-0.2-1.6-0.6s-0.6-0.9-0.6-1.5c0-0.5,0.1-0.9,0.3-1.2s0.5-0.5,0.9-0.7c0.4-0.2,0.9-0.3,1.5-0.4s1.2-0.1,1.8-0.2v0
			c0-0.4-0.1-0.6-0.4-0.8s-0.7-0.2-1.3-0.2c-0.3,0-0.7,0.1-1.1,0.2s-0.7,0.2-0.8,0.3h-0.2v-1.6c0.2-0.1,0.6-0.1,1.1-0.2
			s1-0.1,1.5-0.1c1.2,0,2.1,0.2,2.6,0.6s0.8,0.9,0.8,1.7v4.5h-2.1V142.5z M159.7,141.5v-1.4c-0.3,0-0.6,0.1-0.9,0.1
			s-0.6,0.1-0.8,0.1c-0.2,0.1-0.4,0.2-0.5,0.3c-0.1,0.1-0.2,0.3-0.2,0.5c0,0.1,0,0.2,0,0.3c0,0.1,0.1,0.2,0.2,0.2
			c0.1,0.1,0.2,0.1,0.3,0.2s0.3,0.1,0.6,0.1c0.2,0,0.4,0,0.6-0.1C159.3,141.8,159.5,141.7,159.7,141.5z"/>
		<path class="st5" d="M167.3,143.4c-0.6,0-1.1-0.1-1.6-0.2s-0.9-0.3-1.2-0.6c-0.3-0.3-0.6-0.6-0.8-1.1s-0.3-0.9-0.3-1.5
			c0-0.6,0.1-1.1,0.3-1.6s0.5-0.8,0.9-1.1c0.4-0.3,0.8-0.5,1.2-0.6s0.9-0.2,1.4-0.2c0.4,0,0.9,0,1.2,0.1s0.7,0.2,1.1,0.4v1.8h-0.3
			c-0.1-0.1-0.2-0.2-0.3-0.2c-0.1-0.1-0.3-0.2-0.4-0.3c-0.2-0.1-0.3-0.2-0.5-0.2c-0.2-0.1-0.4-0.1-0.7-0.1c-0.6,0-1,0.2-1.3,0.5
			c-0.3,0.4-0.5,0.8-0.5,1.5c0,0.6,0.2,1.1,0.5,1.4c0.3,0.3,0.8,0.5,1.3,0.5c0.3,0,0.5,0,0.7-0.1c0.2-0.1,0.4-0.1,0.5-0.2
			c0.1-0.1,0.2-0.2,0.4-0.2c0.1-0.1,0.2-0.2,0.3-0.3h0.3v1.8c-0.3,0.2-0.7,0.3-1,0.4S167.7,143.4,167.3,143.4z"/>
		<path class="st5" d="M173.2,135.7H171v-1.6h2.2V135.7z M173.1,143.2H171v-6.6h2.1V143.2z"/>
		<path class="st5" d="M182,139.9c0,1.1-0.3,1.9-0.9,2.6s-1.5,0.9-2.7,0.9s-2-0.3-2.7-0.9s-0.9-1.5-0.9-2.6c0-1.1,0.3-1.9,1-2.6
			s1.5-0.9,2.7-0.9c1.1,0,2,0.3,2.7,0.9S182,138.9,182,139.9z M179.4,141.5c0.1-0.2,0.2-0.4,0.3-0.6s0.1-0.6,0.1-1
			c0-0.4,0-0.7-0.1-1s-0.2-0.5-0.3-0.6c-0.1-0.2-0.3-0.3-0.5-0.3s-0.4-0.1-0.6-0.1s-0.4,0-0.5,0.1s-0.3,0.2-0.5,0.3
			c-0.1,0.2-0.2,0.4-0.3,0.6s-0.1,0.6-0.1,1c0,0.4,0,0.7,0.1,0.9s0.2,0.5,0.3,0.6c0.1,0.2,0.3,0.3,0.4,0.3s0.4,0.1,0.6,0.1
			c0.2,0,0.4,0,0.5-0.1S179.2,141.7,179.4,141.5z"/>
		<path class="st5" d="M190.2,143.2h-2.1V140c0-0.3,0-0.5,0-0.8s-0.1-0.5-0.1-0.6c-0.1-0.1-0.2-0.2-0.3-0.3s-0.4-0.1-0.6-0.1
			c-0.2,0-0.4,0-0.6,0.1s-0.4,0.2-0.6,0.3v4.7h-2.1v-6.6h2.1v0.7c0.4-0.3,0.7-0.5,1.1-0.7s0.7-0.2,1.1-0.2c0.7,0,1.3,0.2,1.7,0.6
			c0.4,0.4,0.6,1,0.6,1.9V143.2z"/>
		<path class="st5" d="M198.7,140.3h-4.8c0,0.5,0.2,0.9,0.6,1.2s0.9,0.4,1.6,0.4c0.4,0,0.9-0.1,1.3-0.2s0.7-0.3,1-0.5h0.2v1.7
			c-0.5,0.2-0.9,0.3-1.3,0.4s-0.9,0.1-1.4,0.1c-1.3,0-2.3-0.3-3-0.9s-1.1-1.4-1.1-2.5c0-1.1,0.3-1.9,1-2.6s1.6-1,2.7-1
			c1.1,0,1.9,0.3,2.4,0.8s0.8,1.3,0.8,2.3V140.3z M196.6,139.1c0-0.4-0.1-0.8-0.3-1s-0.5-0.3-1-0.3c-0.4,0-0.7,0.1-1,0.3
			s-0.4,0.5-0.4,1H196.6z"/>
		<path class="st5" d="M206,141.1c0,0.7-0.3,1.2-0.9,1.6s-1.4,0.6-2.5,0.6c-0.6,0-1.1-0.1-1.6-0.2s-0.9-0.2-1.1-0.4v-1.7h0.2
			c0.1,0.1,0.2,0.2,0.4,0.2s0.3,0.2,0.6,0.3c0.2,0.1,0.5,0.2,0.7,0.2s0.6,0.1,0.9,0.1c0.4,0,0.7,0,0.9-0.1s0.3-0.2,0.3-0.4
			c0-0.2-0.1-0.3-0.2-0.3s-0.3-0.1-0.7-0.2c-0.2,0-0.4-0.1-0.6-0.1s-0.5-0.1-0.7-0.1c-0.6-0.2-1-0.4-1.3-0.7s-0.4-0.7-0.4-1.2
			c0-0.6,0.3-1.2,0.9-1.6s1.4-0.6,2.5-0.6c0.5,0,1,0,1.4,0.1s0.8,0.2,1.1,0.3v1.7h-0.2c-0.3-0.2-0.7-0.4-1.1-0.5s-0.8-0.2-1.2-0.2
			c-0.3,0-0.6,0-0.9,0.1s-0.3,0.2-0.3,0.4c0,0.2,0.1,0.3,0.2,0.4s0.4,0.2,0.7,0.2c0.2,0,0.4,0.1,0.7,0.1s0.5,0.1,0.7,0.2
			c0.6,0.1,1,0.4,1.2,0.7S206,140.7,206,141.1z"/>
		<path class="st5" d="M216.5,138.7h-0.2c-0.1,0-0.2-0.1-0.4-0.1s-0.4,0-0.5,0c-0.3,0-0.6,0-0.8,0.1s-0.5,0.1-0.7,0.2v4.4h-2.1v-6.6
			h2.1v1c0.5-0.4,0.9-0.7,1.2-0.8c0.3-0.1,0.7-0.2,0.9-0.2c0.1,0,0.2,0,0.3,0c0.1,0,0.2,0,0.2,0V138.7z"/>
		<path class="st5" d="M224.3,140.3h-4.8c0,0.5,0.2,0.9,0.6,1.2s0.9,0.4,1.6,0.4c0.4,0,0.9-0.1,1.3-0.2s0.7-0.3,1-0.5h0.2v1.7
			c-0.5,0.2-0.9,0.3-1.3,0.4s-0.9,0.1-1.4,0.1c-1.3,0-2.3-0.3-3-0.9s-1.1-1.4-1.1-2.5c0-1.1,0.3-1.9,1-2.6s1.6-1,2.7-1
			c1.1,0,1.9,0.3,2.4,0.8s0.8,1.3,0.8,2.3V140.3z M222.2,139.1c0-0.4-0.1-0.8-0.3-1s-0.5-0.3-1-0.3c-0.4,0-0.7,0.1-1,0.3
			s-0.4,0.5-0.4,1H222.2z"/>
		<path class="st5" d="M229.9,142.5c-0.1,0.1-0.3,0.2-0.4,0.3s-0.3,0.2-0.5,0.3c-0.2,0.1-0.4,0.2-0.6,0.2s-0.5,0.1-0.7,0.1
			c-0.6,0-1.1-0.2-1.6-0.6s-0.6-0.9-0.6-1.5c0-0.5,0.1-0.9,0.3-1.2s0.5-0.5,0.9-0.7c0.4-0.2,0.9-0.3,1.5-0.4s1.2-0.1,1.8-0.2v0
			c0-0.4-0.1-0.6-0.4-0.8s-0.7-0.2-1.3-0.2c-0.3,0-0.7,0.1-1.1,0.2s-0.7,0.2-0.8,0.3H226v-1.6c0.2-0.1,0.6-0.1,1.1-0.2
			s1-0.1,1.5-0.1c1.2,0,2.1,0.2,2.6,0.6s0.8,0.9,0.8,1.7v4.5h-2.1V142.5z M229.9,141.5v-1.4c-0.3,0-0.6,0.1-0.9,0.1
			s-0.6,0.1-0.8,0.1c-0.2,0.1-0.4,0.2-0.5,0.3c-0.1,0.1-0.2,0.3-0.2,0.5c0,0.1,0,0.2,0,0.3c0,0.1,0.1,0.2,0.2,0.2
			c0.1,0.1,0.2,0.1,0.3,0.2s0.3,0.1,0.6,0.1c0.2,0,0.4,0,0.6-0.1C229.6,141.8,229.7,141.7,229.9,141.5z"/>
		<path class="st5" d="M236.2,143.2h-2.1v-9.1h2.1V143.2z"/>
		<path class="st5" d="M240.5,135.7h-2.2v-1.6h2.2V135.7z M240.4,143.2h-2.1v-6.6h2.1V143.2z"/>
		<path class="st5" d="M248.2,143.2H242v-1.4l3.5-3.7h-3.3v-1.5h6v1.3l-3.4,3.7h3.5V143.2z"/>
		<path class="st5" d="M253.8,142.5c-0.1,0.1-0.3,0.2-0.4,0.3s-0.3,0.2-0.5,0.3c-0.2,0.1-0.4,0.2-0.6,0.2s-0.5,0.1-0.7,0.1
			c-0.6,0-1.1-0.2-1.6-0.6s-0.6-0.9-0.6-1.5c0-0.5,0.1-0.9,0.3-1.2s0.5-0.5,0.9-0.7c0.4-0.2,0.9-0.3,1.5-0.4s1.2-0.1,1.8-0.2v0
			c0-0.4-0.1-0.6-0.4-0.8s-0.7-0.2-1.3-0.2c-0.3,0-0.7,0.1-1.1,0.2s-0.7,0.2-0.8,0.3h-0.2v-1.6c0.2-0.1,0.6-0.1,1.1-0.2
			s1-0.1,1.5-0.1c1.2,0,2.1,0.2,2.6,0.6s0.8,0.9,0.8,1.7v4.5h-2.1V142.5z M253.8,141.5v-1.4c-0.3,0-0.6,0.1-0.9,0.1
			s-0.6,0.1-0.8,0.1c-0.2,0.1-0.4,0.2-0.5,0.3c-0.1,0.1-0.2,0.3-0.2,0.5c0,0.1,0,0.2,0,0.3c0,0.1,0.1,0.2,0.2,0.2
			c0.1,0.1,0.2,0.1,0.3,0.2s0.3,0.1,0.6,0.1c0.2,0,0.4,0,0.6-0.1C253.4,141.8,253.6,141.7,253.8,141.5z"/>
		<path class="st5" d="M264.3,143.2h-2.1v-0.7c-0.4,0.3-0.7,0.5-1,0.7c-0.3,0.1-0.7,0.2-1.1,0.2c-0.8,0-1.4-0.3-1.9-0.9
			s-0.7-1.4-0.7-2.5c0-0.6,0.1-1.1,0.2-1.5c0.2-0.4,0.4-0.8,0.7-1.1c0.3-0.3,0.6-0.5,1-0.7s0.8-0.2,1.1-0.2c0.4,0,0.7,0,1,0.1
			s0.5,0.2,0.8,0.3v-2.8h2.1V143.2z M262.2,141.4v-3.2c-0.1-0.1-0.3-0.1-0.5-0.1c-0.2,0-0.3,0-0.5,0c-0.6,0-1,0.2-1.2,0.5
			c-0.3,0.3-0.4,0.8-0.4,1.4c0,0.6,0.1,1.1,0.3,1.4c0.2,0.3,0.6,0.4,1.1,0.4c0.2,0,0.4,0,0.6-0.1S262,141.5,262.2,141.4z"/>
		<path class="st5" d="M270.4,142.5c-0.1,0.1-0.3,0.2-0.4,0.3s-0.3,0.2-0.5,0.3c-0.2,0.1-0.4,0.2-0.6,0.2s-0.5,0.1-0.7,0.1
			c-0.6,0-1.1-0.2-1.6-0.6s-0.6-0.9-0.6-1.5c0-0.5,0.1-0.9,0.3-1.2s0.5-0.5,0.9-0.7c0.4-0.2,0.9-0.3,1.5-0.4s1.2-0.1,1.8-0.2v0
			c0-0.4-0.1-0.6-0.4-0.8s-0.7-0.2-1.3-0.2c-0.3,0-0.7,0.1-1.1,0.2s-0.7,0.2-0.8,0.3h-0.2v-1.6c0.2-0.1,0.6-0.1,1.1-0.2
			s1-0.1,1.5-0.1c1.2,0,2.1,0.2,2.6,0.6s0.8,0.9,0.8,1.7v4.5h-2.1V142.5z M270.4,141.5v-1.4c-0.3,0-0.6,0.1-0.9,0.1
			s-0.6,0.1-0.8,0.1c-0.2,0.1-0.4,0.2-0.5,0.3c-0.1,0.1-0.2,0.3-0.2,0.5c0,0.1,0,0.2,0,0.3c0,0.1,0.1,0.2,0.2,0.2
			c0.1,0.1,0.2,0.1,0.3,0.2s0.3,0.1,0.6,0.1c0.2,0,0.4,0,0.6-0.1C270.1,141.8,270.2,141.7,270.4,141.5z"/>
		<path class="st5" d="M280.3,141.1c0,0.7-0.3,1.2-0.9,1.6s-1.4,0.6-2.5,0.6c-0.6,0-1.1-0.1-1.6-0.2s-0.9-0.2-1.1-0.4v-1.7h0.2
			c0.1,0.1,0.2,0.2,0.4,0.2s0.3,0.2,0.6,0.3c0.2,0.1,0.5,0.2,0.7,0.2s0.6,0.1,0.9,0.1c0.4,0,0.7,0,0.9-0.1s0.3-0.2,0.3-0.4
			c0-0.2-0.1-0.3-0.2-0.3s-0.3-0.1-0.7-0.2c-0.2,0-0.4-0.1-0.6-0.1s-0.5-0.1-0.7-0.1c-0.6-0.2-1-0.4-1.3-0.7s-0.4-0.7-0.4-1.2
			c0-0.6,0.3-1.2,0.9-1.6s1.4-0.6,2.5-0.6c0.5,0,1,0,1.4,0.1s0.8,0.2,1.1,0.3v1.7h-0.2c-0.3-0.2-0.7-0.4-1.1-0.5s-0.8-0.2-1.2-0.2
			c-0.3,0-0.6,0-0.9,0.1s-0.3,0.2-0.3,0.4c0,0.2,0.1,0.3,0.2,0.4s0.4,0.2,0.7,0.2c0.2,0,0.4,0.1,0.7,0.1s0.5,0.1,0.7,0.2
			c0.6,0.1,1,0.4,1.2,0.7S280.3,140.7,280.3,141.1z"/>
	</g>
	<g>
		<path class="st4" d="M79.8,179.6c0,1.2-0.5,2.1-1.5,2.8s-2.3,1.1-4.1,1.1c-1,0-1.8-0.1-2.5-0.3s-1.3-0.5-1.7-0.8
			c-0.4-0.3-0.8-0.8-1-1.2s-0.3-1-0.3-1.5c0-0.7,0.2-1.2,0.6-1.7s1-1,2-1.3v-0.1c-0.8-0.4-1.3-0.8-1.7-1.3s-0.5-1.2-0.5-1.9
			c0-1,0.5-1.9,1.4-2.5s2.2-1,3.8-1c1.6,0,2.9,0.3,3.8,0.9s1.4,1.4,1.4,2.4c0,0.6-0.2,1.2-0.6,1.7s-1,0.9-1.8,1.2v0.1
			c0.9,0.3,1.6,0.8,2,1.4S79.8,178.8,79.8,179.6z M76.4,179.7c0-0.4-0.1-0.7-0.3-1s-0.6-0.5-1.3-0.7c-0.2-0.1-0.5-0.2-0.8-0.3
			s-0.7-0.2-0.9-0.3c-0.3,0.2-0.5,0.5-0.7,0.8c-0.2,0.3-0.3,0.7-0.3,1.1c0,0.6,0.2,1.1,0.7,1.5c0.4,0.4,1,0.5,1.7,0.5
			c0.2,0,0.4,0,0.7-0.1c0.3-0.1,0.5-0.1,0.7-0.3c0.2-0.1,0.4-0.3,0.5-0.5S76.4,180,76.4,179.7z M76.2,173.5c0-0.4-0.2-0.8-0.5-1.1
			s-0.8-0.4-1.4-0.4c-0.2,0-0.4,0-0.6,0.1s-0.4,0.1-0.6,0.2c-0.2,0.1-0.3,0.2-0.4,0.4s-0.2,0.3-0.2,0.5c0,0.3,0.1,0.6,0.3,0.8
			s0.5,0.4,1,0.6c0.2,0.1,0.4,0.2,0.7,0.3s0.6,0.2,1,0.3c0.3-0.3,0.5-0.6,0.6-0.9S76.2,173.9,76.2,173.5z"/>
		<path class="st4" d="M85.6,183.2h-3.3v-3.5h3.3V183.2z"/>
		<path class="st4" d="M99.1,183.2H88.8v-2.2c0.8-0.6,1.6-1.2,2.4-1.8s1.4-1.2,1.9-1.7c0.7-0.7,1.2-1.3,1.5-1.8s0.4-1,0.4-1.5
			c0-0.6-0.2-1.1-0.6-1.4c-0.4-0.3-0.9-0.5-1.7-0.5c-0.5,0-1.1,0.1-1.7,0.3s-1.1,0.5-1.7,0.9h-0.3v-2.9c0.4-0.2,1-0.4,1.8-0.5
			s1.6-0.3,2.4-0.3c1.6,0,2.9,0.3,3.8,1s1.3,1.7,1.3,2.9c0,0.8-0.2,1.6-0.6,2.4s-1,1.5-1.9,2.3c-0.5,0.5-1.1,0.9-1.6,1.4
			c-0.5,0.4-0.9,0.7-1.2,0.9h5.9V183.2z"/>
	</g>
	<path class="st5" d="M69.1,198.6v4.7H67v-3.3c0-0.3,0-0.6,0-0.8c0-0.2-0.1-0.4-0.1-0.5s-0.2-0.2-0.3-0.3c-0.1-0.1-0.3-0.1-0.6-0.1
		c-0.2,0-0.4,0-0.6,0.1c-0.2,0.1-0.4,0.2-0.5,0.3v4.7h-2.1v-6.6h2.1v0.7c0.4-0.3,0.7-0.5,1-0.7c0.3-0.2,0.7-0.2,1.1-0.2
		c0.4,0,0.8,0.1,1.1,0.3s0.6,0.5,0.8,0.9c0.4-0.4,0.8-0.6,1.2-0.8c0.4-0.2,0.8-0.3,1.2-0.3c0.7,0,1.2,0.2,1.6,0.6
		c0.4,0.4,0.6,1,0.6,1.8v4.3h-2.1v-3.3c0-0.3,0-0.6,0-0.8c0-0.2-0.1-0.4-0.1-0.5c-0.1-0.1-0.2-0.2-0.3-0.3c-0.1-0.1-0.3-0.1-0.6-0.1
		c-0.2,0-0.3,0-0.5,0.1C69.6,198.3,69.4,198.4,69.1,198.6z M77.7,195.7h-2.2v-1.6h2.2V195.7z M77.6,203.2h-2.1v-6.6h2.1V203.2z
		 M81.9,203.2h-2.1v-9.1h2.1V203.2z M86.1,203.2H84v-9.1h2.1V203.2z M94.9,199.9c0,1.1-0.3,1.9-0.9,2.6c-0.6,0.6-1.5,0.9-2.7,0.9
		c-1.1,0-2-0.3-2.7-0.9c-0.6-0.6-0.9-1.5-0.9-2.6c0-1.1,0.3-1.9,1-2.6c0.6-0.6,1.5-0.9,2.7-0.9c1.1,0,2,0.3,2.7,0.9
		C94.6,198,94.9,198.9,94.9,199.9z M92.3,201.5c0.1-0.2,0.2-0.4,0.3-0.6c0.1-0.2,0.1-0.6,0.1-1c0-0.4,0-0.7-0.1-1
		c-0.1-0.3-0.2-0.5-0.3-0.6c-0.1-0.2-0.3-0.3-0.5-0.3c-0.2-0.1-0.4-0.1-0.6-0.1c-0.2,0-0.4,0-0.5,0.1c-0.2,0.1-0.3,0.2-0.5,0.3
		c-0.1,0.2-0.2,0.4-0.3,0.6c-0.1,0.3-0.1,0.6-0.1,1c0,0.4,0,0.7,0.1,0.9c0.1,0.3,0.2,0.5,0.3,0.6c0.1,0.2,0.3,0.3,0.4,0.3
		c0.2,0.1,0.4,0.1,0.6,0.1c0.2,0,0.4,0,0.5-0.1C92.1,201.8,92.2,201.7,92.3,201.5z M103.2,203.2h-2.1V200c0-0.3,0-0.5,0-0.8
		c0-0.3-0.1-0.5-0.1-0.6c-0.1-0.1-0.2-0.2-0.3-0.3c-0.2-0.1-0.4-0.1-0.6-0.1c-0.2,0-0.4,0-0.6,0.1c-0.2,0.1-0.4,0.2-0.6,0.3v4.7
		h-2.1v-6.6h2.1v0.7c0.4-0.3,0.7-0.5,1.1-0.7c0.3-0.2,0.7-0.2,1.1-0.2c0.7,0,1.3,0.2,1.7,0.6c0.4,0.4,0.6,1,0.6,1.9V203.2z
		 M111.7,200.3h-4.8c0,0.5,0.2,0.9,0.6,1.2c0.4,0.3,0.9,0.4,1.6,0.4c0.4,0,0.9-0.1,1.3-0.2c0.4-0.2,0.7-0.3,1-0.5h0.2v1.7
		c-0.5,0.2-0.9,0.3-1.3,0.4s-0.9,0.1-1.4,0.1c-1.3,0-2.3-0.3-3-0.9c-0.7-0.6-1.1-1.4-1.1-2.5c0-1.1,0.3-1.9,1-2.6
		c0.7-0.6,1.6-1,2.7-1c1.1,0,1.9,0.3,2.4,0.8c0.5,0.5,0.8,1.3,0.8,2.3V200.3z M109.6,199.1c0-0.4-0.1-0.8-0.3-1
		c-0.2-0.2-0.5-0.3-1-0.3c-0.4,0-0.7,0.1-1,0.3c-0.3,0.2-0.4,0.5-0.4,1H109.6z M119,201.1c0,0.7-0.3,1.2-0.9,1.6s-1.4,0.6-2.5,0.6
		c-0.6,0-1.1-0.1-1.6-0.2c-0.5-0.1-0.9-0.2-1.1-0.4v-1.7h0.2c0.1,0.1,0.2,0.2,0.4,0.2c0.1,0.1,0.3,0.2,0.6,0.3
		c0.2,0.1,0.5,0.2,0.7,0.2c0.3,0.1,0.6,0.1,0.9,0.1c0.4,0,0.7,0,0.9-0.1c0.2-0.1,0.3-0.2,0.3-0.4c0-0.2-0.1-0.3-0.2-0.3
		c-0.1-0.1-0.3-0.1-0.7-0.2c-0.2,0-0.4-0.1-0.6-0.1c-0.3,0-0.5-0.1-0.7-0.1c-0.6-0.2-1-0.4-1.3-0.7c-0.3-0.3-0.4-0.7-0.4-1.2
		c0-0.6,0.3-1.2,0.9-1.6c0.6-0.4,1.4-0.6,2.5-0.6c0.5,0,1,0,1.4,0.1s0.8,0.2,1.1,0.3v1.7h-0.2c-0.3-0.2-0.7-0.4-1.1-0.5
		c-0.4-0.1-0.8-0.2-1.2-0.2c-0.3,0-0.6,0-0.9,0.1c-0.2,0.1-0.3,0.2-0.3,0.4c0,0.2,0.1,0.3,0.2,0.4s0.4,0.2,0.7,0.2
		c0.2,0,0.4,0.1,0.7,0.1c0.2,0,0.5,0.1,0.7,0.2c0.6,0.1,1,0.4,1.2,0.7C118.9,200.3,119,200.7,119,201.1z M131.5,199.9
		c0,1.1-0.3,1.9-0.9,2.6c-0.6,0.6-1.5,0.9-2.7,0.9c-1.1,0-2-0.3-2.7-0.9c-0.6-0.6-0.9-1.5-0.9-2.6c0-1.1,0.3-1.9,1-2.6
		c0.6-0.6,1.5-0.9,2.7-0.9c1.1,0,2,0.3,2.7,0.9C131.2,198,131.5,198.9,131.5,199.9z M128.9,201.5c0.1-0.2,0.2-0.4,0.3-0.6
		c0.1-0.2,0.1-0.6,0.1-1c0-0.4,0-0.7-0.1-1c-0.1-0.3-0.2-0.5-0.3-0.6c-0.1-0.2-0.3-0.3-0.5-0.3c-0.2-0.1-0.4-0.1-0.6-0.1
		c-0.2,0-0.4,0-0.5,0.1c-0.2,0.1-0.3,0.2-0.5,0.3c-0.1,0.2-0.2,0.4-0.3,0.6c-0.1,0.3-0.1,0.6-0.1,1c0,0.4,0,0.7,0.1,0.9
		c0.1,0.3,0.2,0.5,0.3,0.6c0.1,0.2,0.3,0.3,0.4,0.3c0.2,0.1,0.4,0.1,0.6,0.1c0.2,0,0.4,0,0.5-0.1
		C128.6,201.8,128.8,201.7,128.9,201.5z M140,199.9c0,0.5-0.1,1-0.2,1.5c-0.2,0.4-0.4,0.8-0.7,1.1c-0.3,0.3-0.6,0.5-1,0.7
		s-0.7,0.2-1.1,0.2c-0.4,0-0.7,0-1-0.1c-0.3-0.1-0.5-0.2-0.8-0.3v2.7h-2.1v-9h2.1v0.7c0.3-0.3,0.7-0.5,1-0.6
		c0.3-0.2,0.7-0.2,1.2-0.2c0.8,0,1.5,0.3,1.9,0.9C139.8,198,140,198.8,140,199.9z M137.8,199.9c0-0.6-0.1-1.1-0.3-1.4
		c-0.2-0.3-0.6-0.4-1-0.4c-0.2,0-0.4,0-0.6,0.1c-0.2,0.1-0.4,0.1-0.6,0.3v3.3c0.1,0.1,0.3,0.1,0.5,0.1c0.2,0,0.3,0,0.5,0
		c0.6,0,1-0.2,1.2-0.5C137.7,201,137.8,200.6,137.8,199.9z M148.1,200.3h-4.8c0,0.5,0.2,0.9,0.6,1.2c0.4,0.3,0.9,0.4,1.6,0.4
		c0.4,0,0.9-0.1,1.3-0.2c0.4-0.2,0.7-0.3,1-0.5h0.2v1.7c-0.5,0.2-0.9,0.3-1.3,0.4s-0.9,0.1-1.4,0.1c-1.3,0-2.3-0.3-3-0.9
		c-0.7-0.6-1.1-1.4-1.1-2.5c0-1.1,0.3-1.9,1-2.6c0.7-0.6,1.6-1,2.7-1c1.1,0,1.9,0.3,2.4,0.8c0.5,0.5,0.8,1.3,0.8,2.3V200.3z
		 M146,199.1c0-0.4-0.1-0.8-0.3-1c-0.2-0.2-0.5-0.3-1-0.3c-0.4,0-0.7,0.1-1,0.3c-0.3,0.2-0.4,0.5-0.4,1H146z M154.5,198.7h-0.2
		c-0.1,0-0.2-0.1-0.4-0.1c-0.2,0-0.4,0-0.5,0c-0.3,0-0.6,0-0.8,0.1c-0.2,0-0.5,0.1-0.7,0.2v4.4h-2.1v-6.6h2.1v1
		c0.5-0.4,0.9-0.7,1.2-0.8c0.3-0.1,0.7-0.2,0.9-0.2c0.1,0,0.2,0,0.3,0c0.1,0,0.2,0,0.2,0V198.7z M159.8,202.5
		c-0.1,0.1-0.3,0.2-0.4,0.3c-0.2,0.1-0.3,0.2-0.5,0.3c-0.2,0.1-0.4,0.2-0.6,0.2c-0.2,0-0.5,0.1-0.7,0.1c-0.6,0-1.1-0.2-1.6-0.6
		s-0.6-0.9-0.6-1.5c0-0.5,0.1-0.9,0.3-1.2c0.2-0.3,0.5-0.5,0.9-0.7c0.4-0.2,0.9-0.3,1.5-0.4c0.6-0.1,1.2-0.1,1.8-0.2v0
		c0-0.4-0.1-0.6-0.4-0.8c-0.3-0.1-0.7-0.2-1.3-0.2c-0.3,0-0.7,0.1-1.1,0.2c-0.4,0.1-0.7,0.2-0.8,0.3h-0.2v-1.6
		c0.2-0.1,0.6-0.1,1.1-0.2c0.5-0.1,1-0.1,1.5-0.1c1.2,0,2.1,0.2,2.6,0.6s0.8,0.9,0.8,1.7v4.5h-2.1V202.5z M159.8,201.5v-1.4
		c-0.3,0-0.6,0.1-0.9,0.1c-0.3,0-0.6,0.1-0.8,0.1c-0.2,0.1-0.4,0.2-0.5,0.3s-0.2,0.3-0.2,0.5c0,0.1,0,0.2,0,0.3s0.1,0.2,0.2,0.2
		c0.1,0.1,0.2,0.1,0.3,0.2c0.1,0,0.3,0.1,0.6,0.1c0.2,0,0.4,0,0.6-0.1S159.6,201.7,159.8,201.5z M167.4,203.4
		c-0.6,0-1.1-0.1-1.6-0.2s-0.9-0.3-1.2-0.6c-0.3-0.3-0.6-0.6-0.8-1.1c-0.2-0.4-0.3-0.9-0.3-1.5c0-0.6,0.1-1.1,0.3-1.6
		s0.5-0.8,0.9-1.1c0.4-0.3,0.8-0.5,1.2-0.6c0.5-0.1,0.9-0.2,1.4-0.2c0.4,0,0.9,0,1.2,0.1c0.4,0.1,0.7,0.2,1.1,0.4v1.8h-0.3
		c-0.1-0.1-0.2-0.2-0.3-0.2s-0.3-0.2-0.4-0.3c-0.2-0.1-0.3-0.2-0.5-0.2c-0.2-0.1-0.4-0.1-0.7-0.1c-0.6,0-1,0.2-1.3,0.5
		s-0.5,0.8-0.5,1.5c0,0.6,0.2,1.1,0.5,1.4s0.7,0.5,1.3,0.5c0.3,0,0.5,0,0.7-0.1c0.2-0.1,0.4-0.1,0.5-0.2c0.1-0.1,0.2-0.2,0.4-0.2
		c0.1-0.1,0.2-0.2,0.3-0.3h0.3v1.8c-0.3,0.2-0.7,0.3-1,0.4C168.2,203.4,167.8,203.4,167.4,203.4z M173.3,195.7h-2.2v-1.6h2.2V195.7z
		 M173.2,203.2h-2.1v-6.6h2.1V203.2z M182.1,199.9c0,1.1-0.3,1.9-0.9,2.6c-0.6,0.6-1.5,0.9-2.7,0.9c-1.1,0-2-0.3-2.7-0.9
		c-0.6-0.6-0.9-1.5-0.9-2.6c0-1.1,0.3-1.9,1-2.6c0.6-0.6,1.5-0.9,2.7-0.9c1.1,0,2,0.3,2.7,0.9C181.8,198,182.1,198.9,182.1,199.9z
		 M179.5,201.5c0.1-0.2,0.2-0.4,0.3-0.6c0.1-0.2,0.1-0.6,0.1-1c0-0.4,0-0.7-0.1-1c-0.1-0.3-0.2-0.5-0.3-0.6
		c-0.1-0.2-0.3-0.3-0.5-0.3c-0.2-0.1-0.4-0.1-0.6-0.1c-0.2,0-0.4,0-0.5,0.1c-0.2,0.1-0.3,0.2-0.5,0.3c-0.1,0.2-0.2,0.4-0.3,0.6
		c-0.1,0.3-0.1,0.6-0.1,1c0,0.4,0,0.7,0.1,0.9c0.1,0.3,0.2,0.5,0.3,0.6c0.1,0.2,0.3,0.3,0.4,0.3c0.2,0.1,0.4,0.1,0.6,0.1
		c0.2,0,0.4,0,0.5-0.1C179.2,201.8,179.4,201.7,179.5,201.5z M190.3,203.2h-2.1V200c0-0.3,0-0.5,0-0.8c0-0.3-0.1-0.5-0.1-0.6
		c-0.1-0.1-0.2-0.2-0.3-0.3c-0.2-0.1-0.4-0.1-0.6-0.1c-0.2,0-0.4,0-0.6,0.1c-0.2,0.1-0.4,0.2-0.6,0.3v4.7h-2.1v-6.6h2.1v0.7
		c0.4-0.3,0.7-0.5,1.1-0.7c0.3-0.2,0.7-0.2,1.1-0.2c0.7,0,1.3,0.2,1.7,0.6c0.4,0.4,0.6,1,0.6,1.9V203.2z M198.9,200.3H194
		c0,0.5,0.2,0.9,0.6,1.2c0.4,0.3,0.9,0.4,1.6,0.4c0.4,0,0.9-0.1,1.3-0.2c0.4-0.2,0.7-0.3,1-0.5h0.2v1.7c-0.5,0.2-0.9,0.3-1.3,0.4
		s-0.9,0.1-1.4,0.1c-1.3,0-2.3-0.3-3-0.9c-0.7-0.6-1.1-1.4-1.1-2.5c0-1.1,0.3-1.9,1-2.6c0.7-0.6,1.6-1,2.7-1c1.1,0,1.9,0.3,2.4,0.8
		c0.5,0.5,0.8,1.3,0.8,2.3V200.3z M196.8,199.1c0-0.4-0.1-0.8-0.3-1c-0.2-0.2-0.5-0.3-1-0.3c-0.4,0-0.7,0.1-1,0.3
		c-0.3,0.2-0.4,0.5-0.4,1H196.8z M206.2,201.1c0,0.7-0.3,1.2-0.9,1.6s-1.4,0.6-2.5,0.6c-0.6,0-1.1-0.1-1.6-0.2
		c-0.5-0.1-0.9-0.2-1.1-0.4v-1.7h0.2c0.1,0.1,0.2,0.2,0.4,0.2c0.1,0.1,0.3,0.2,0.6,0.3c0.2,0.1,0.5,0.2,0.7,0.2
		c0.3,0.1,0.6,0.1,0.9,0.1c0.4,0,0.7,0,0.9-0.1c0.2-0.1,0.3-0.2,0.3-0.4c0-0.2-0.1-0.3-0.2-0.3c-0.1-0.1-0.3-0.1-0.7-0.2
		c-0.2,0-0.4-0.1-0.6-0.1c-0.3,0-0.5-0.1-0.7-0.1c-0.6-0.2-1-0.4-1.3-0.7c-0.3-0.3-0.4-0.7-0.4-1.2c0-0.6,0.3-1.2,0.9-1.6
		c0.6-0.4,1.4-0.6,2.5-0.6c0.5,0,1,0,1.4,0.1s0.8,0.2,1.1,0.3v1.7h-0.2c-0.3-0.2-0.7-0.4-1.1-0.5c-0.4-0.1-0.8-0.2-1.2-0.2
		c-0.3,0-0.6,0-0.9,0.1c-0.2,0.1-0.3,0.2-0.3,0.4c0,0.2,0.1,0.3,0.2,0.4s0.4,0.2,0.7,0.2c0.2,0,0.4,0.1,0.7,0.1
		c0.2,0,0.5,0.1,0.7,0.2c0.6,0.1,1,0.4,1.2,0.7C206,200.3,206.2,200.7,206.2,201.1z M215.9,195.7c-0.1,0-0.2-0.1-0.3-0.1
		c-0.2,0-0.3-0.1-0.4-0.1c-0.4,0-0.6,0.1-0.8,0.2c-0.1,0.2-0.2,0.4-0.2,0.9v0.1h4.5v6.6h-2.1v-5.2h-2.3v5.2h-2.1v-5.2h-0.9v-1.4h0.9
		v-0.2c0-0.8,0.2-1.4,0.6-1.8c0.4-0.4,1-0.6,1.9-0.6c0.3,0,0.6,0,0.8,0c0.2,0,0.5,0,0.6,0.1v1.5H215.9L215.9,195.7z M218.7,195.7
		h-2.1v-1.6h2.1V195.7z M227.4,203.2h-2.1V200c0-0.3,0-0.5,0-0.8c0-0.3-0.1-0.5-0.1-0.6c-0.1-0.1-0.2-0.2-0.3-0.3
		c-0.2-0.1-0.4-0.1-0.6-0.1c-0.2,0-0.4,0-0.6,0.1c-0.2,0.1-0.4,0.2-0.6,0.3v4.7h-2.1v-6.6h2.1v0.7c0.4-0.3,0.7-0.5,1.1-0.7
		c0.3-0.2,0.7-0.2,1.1-0.2c0.7,0,1.3,0.2,1.7,0.6c0.4,0.4,0.6,1,0.6,1.9V203.2z M233.4,202.5c-0.1,0.1-0.3,0.2-0.4,0.3
		c-0.2,0.1-0.3,0.2-0.5,0.3c-0.2,0.1-0.4,0.2-0.6,0.2c-0.2,0-0.5,0.1-0.7,0.1c-0.6,0-1.1-0.2-1.6-0.6s-0.6-0.9-0.6-1.5
		c0-0.5,0.1-0.9,0.3-1.2c0.2-0.3,0.5-0.5,0.9-0.7c0.4-0.2,0.9-0.3,1.5-0.4c0.6-0.1,1.2-0.1,1.8-0.2v0c0-0.4-0.1-0.6-0.4-0.8
		c-0.3-0.1-0.7-0.2-1.3-0.2c-0.3,0-0.7,0.1-1.1,0.2c-0.4,0.1-0.7,0.2-0.8,0.3h-0.2v-1.6c0.2-0.1,0.6-0.1,1.1-0.2
		c0.5-0.1,1-0.1,1.5-0.1c1.2,0,2.1,0.2,2.6,0.6s0.8,0.9,0.8,1.7v4.5h-2.1V202.5z M233.4,201.5v-1.4c-0.3,0-0.6,0.1-0.9,0.1
		c-0.3,0-0.6,0.1-0.8,0.1c-0.2,0.1-0.4,0.2-0.5,0.3s-0.2,0.3-0.2,0.5c0,0.1,0,0.2,0,0.3s0.1,0.2,0.2,0.2c0.1,0.1,0.2,0.1,0.3,0.2
		c0.1,0,0.3,0.1,0.6,0.1c0.2,0,0.4,0,0.6-0.1S233.3,201.7,233.4,201.5z M244.2,203.2h-2.1V200c0-0.3,0-0.5,0-0.8
		c0-0.3-0.1-0.5-0.1-0.6c-0.1-0.1-0.2-0.2-0.3-0.3c-0.2-0.1-0.4-0.1-0.6-0.1c-0.2,0-0.4,0-0.6,0.1c-0.2,0.1-0.4,0.2-0.6,0.3v4.7
		h-2.1v-6.6h2.1v0.7c0.4-0.3,0.7-0.5,1.1-0.7c0.3-0.2,0.7-0.2,1.1-0.2c0.7,0,1.3,0.2,1.7,0.6c0.4,0.4,0.6,1,0.6,1.9V203.2z
		 M249.7,203.4c-0.6,0-1.1-0.1-1.6-0.2s-0.9-0.3-1.2-0.6c-0.3-0.3-0.6-0.6-0.8-1.1c-0.2-0.4-0.3-0.9-0.3-1.5c0-0.6,0.1-1.1,0.3-1.6
		s0.5-0.8,0.9-1.1c0.4-0.3,0.8-0.5,1.2-0.6c0.5-0.1,0.9-0.2,1.4-0.2c0.4,0,0.9,0,1.2,0.1c0.4,0.1,0.7,0.2,1.1,0.4v1.8h-0.3
		c-0.1-0.1-0.2-0.2-0.3-0.2s-0.3-0.2-0.4-0.3c-0.2-0.1-0.3-0.2-0.5-0.2c-0.2-0.1-0.4-0.1-0.7-0.1c-0.6,0-1,0.2-1.3,0.5
		s-0.5,0.8-0.5,1.5c0,0.6,0.2,1.1,0.5,1.4s0.7,0.5,1.3,0.5c0.3,0,0.5,0,0.7-0.1c0.2-0.1,0.4-0.1,0.5-0.2c0.1-0.1,0.2-0.2,0.4-0.2
		c0.1-0.1,0.2-0.2,0.3-0.3h0.3v1.8c-0.3,0.2-0.7,0.3-1,0.4C250.5,203.4,250.1,203.4,249.7,203.4z M255.6,195.7h-2.2v-1.6h2.2V195.7z
		 M255.5,203.2h-2.1v-6.6h2.1V203.2z M264.1,200.3h-4.8c0,0.5,0.2,0.9,0.6,1.2c0.4,0.3,0.9,0.4,1.6,0.4c0.4,0,0.9-0.1,1.3-0.2
		c0.4-0.2,0.7-0.3,1-0.5h0.2v1.7c-0.5,0.2-0.9,0.3-1.3,0.4s-0.9,0.1-1.4,0.1c-1.3,0-2.3-0.3-3-0.9c-0.7-0.6-1.1-1.4-1.1-2.5
		c0-1.1,0.3-1.9,1-2.6c0.7-0.6,1.6-1,2.7-1c1.1,0,1.9,0.3,2.4,0.8c0.5,0.5,0.8,1.3,0.8,2.3V200.3z M262,199.1c0-0.4-0.1-0.8-0.3-1
		c-0.2-0.2-0.5-0.3-1-0.3c-0.4,0-0.7,0.1-1,0.3c-0.3,0.2-0.4,0.5-0.4,1H262z M270.5,198.7h-0.2c-0.1,0-0.2-0.1-0.4-0.1
		c-0.2,0-0.4,0-0.5,0c-0.3,0-0.6,0-0.8,0.1c-0.2,0-0.5,0.1-0.7,0.2v4.4h-2.1v-6.6h2.1v1c0.5-0.4,0.9-0.7,1.2-0.8
		c0.3-0.1,0.7-0.2,0.9-0.2c0.1,0,0.2,0,0.3,0c0.1,0,0.2,0,0.2,0V198.7z M275.8,202.5c-0.1,0.1-0.3,0.2-0.4,0.3
		c-0.2,0.1-0.3,0.2-0.5,0.3c-0.2,0.1-0.4,0.2-0.6,0.2c-0.2,0-0.5,0.1-0.7,0.1c-0.6,0-1.1-0.2-1.6-0.6s-0.6-0.9-0.6-1.5
		c0-0.5,0.1-0.9,0.3-1.2c0.2-0.3,0.5-0.5,0.9-0.7c0.4-0.2,0.9-0.3,1.5-0.4c0.6-0.1,1.2-0.1,1.8-0.2v0c0-0.4-0.1-0.6-0.4-0.8
		c-0.3-0.1-0.7-0.2-1.3-0.2c-0.3,0-0.7,0.1-1.1,0.2c-0.4,0.1-0.7,0.2-0.8,0.3h-0.2v-1.6c0.2-0.1,0.6-0.1,1.1-0.2
		c0.5-0.1,1-0.1,1.5-0.1c1.2,0,2.1,0.2,2.6,0.6s0.8,0.9,0.8,1.7v4.5h-2.1V202.5z M275.8,201.5v-1.4c-0.3,0-0.6,0.1-0.9,0.1
		c-0.3,0-0.6,0.1-0.8,0.1c-0.2,0.1-0.4,0.2-0.5,0.3s-0.2,0.3-0.2,0.5c0,0.1,0,0.2,0,0.3s0.1,0.2,0.2,0.2c0.1,0.1,0.2,0.1,0.3,0.2
		c0.1,0,0.3,0.1,0.6,0.1c0.2,0,0.4,0,0.6-0.1S275.6,201.7,275.8,201.5z M285.7,201.1c0,0.7-0.3,1.2-0.9,1.6s-1.4,0.6-2.5,0.6
		c-0.6,0-1.1-0.1-1.6-0.2c-0.5-0.1-0.9-0.2-1.1-0.4v-1.7h0.2c0.1,0.1,0.2,0.2,0.4,0.2c0.1,0.1,0.3,0.2,0.6,0.3
		c0.2,0.1,0.5,0.2,0.7,0.2c0.3,0.1,0.6,0.1,0.9,0.1c0.4,0,0.7,0,0.9-0.1c0.2-0.1,0.3-0.2,0.3-0.4c0-0.2-0.1-0.3-0.2-0.3
		c-0.1-0.1-0.3-0.1-0.7-0.2c-0.2,0-0.4-0.1-0.6-0.1c-0.3,0-0.5-0.1-0.7-0.1c-0.6-0.2-1-0.4-1.3-0.7c-0.3-0.3-0.4-0.7-0.4-1.2
		c0-0.6,0.3-1.2,0.9-1.6c0.6-0.4,1.4-0.6,2.5-0.6c0.5,0,1,0,1.4,0.1s0.8,0.2,1.1,0.3v1.7h-0.2c-0.3-0.2-0.7-0.4-1.1-0.5
		c-0.4-0.1-0.8-0.2-1.2-0.2c-0.3,0-0.6,0-0.9,0.1c-0.2,0.1-0.3,0.2-0.3,0.4c0,0.2,0.1,0.3,0.2,0.4s0.4,0.2,0.7,0.2
		c0.2,0,0.4,0.1,0.7,0.1c0.2,0,0.5,0.1,0.7,0.2c0.6,0.1,1,0.4,1.2,0.7C285.5,200.3,285.7,200.7,285.7,201.1z"/>
	<g>
		<path class="st4" d="M79.9,242.6h-1.8v3h-3.2v-3h-6.3v-2.5l6.1-7.6h3.4v7.7h1.8V242.6z M74.9,240.2v-4.7l-3.8,4.7H74.9z"/>
		<path class="st4" d="M86.1,242.2l-3.2,6.7h-2l1.7-6.7H86.1z"/>
		<path class="st4" d="M98.8,238.4c0,1.1-0.1,2.1-0.4,3.1s-0.7,1.7-1.3,2.4c-0.6,0.7-1.4,1.2-2.3,1.6s-2,0.5-3.2,0.5
			c-0.4,0-0.9,0-1.4-0.1s-0.8-0.1-1-0.1v-2.6h0.4c0.2,0.1,0.4,0.2,0.8,0.3s0.8,0.1,1.3,0.1c0.5,0,0.9-0.1,1.3-0.2
			c0.4-0.1,0.8-0.3,1.1-0.5c0.3-0.3,0.6-0.6,0.9-1s0.4-0.9,0.4-1.4c-0.5,0.3-1,0.5-1.4,0.7c-0.4,0.2-1,0.2-1.6,0.2
			c-0.5,0-1-0.1-1.4-0.2c-0.4-0.1-0.9-0.3-1.2-0.6c-0.5-0.3-0.9-0.8-1.2-1.4c-0.3-0.6-0.4-1.3-0.4-2.1c0-1.4,0.5-2.5,1.5-3.4
			s2.3-1.3,3.8-1.3c0.8,0,1.5,0.1,2.2,0.3s1.2,0.5,1.6,1c0.5,0.5,0.9,1.1,1.2,1.9C98.6,236.3,98.8,237.2,98.8,238.4z M95.4,237.9
			c0-0.7-0.1-1.3-0.2-1.8s-0.3-0.8-0.6-1.1c-0.2-0.2-0.4-0.3-0.6-0.4c-0.2-0.1-0.5-0.1-0.7-0.1c-0.2,0-0.4,0-0.7,0.1
			s-0.4,0.2-0.6,0.4c-0.2,0.2-0.3,0.4-0.4,0.7c-0.1,0.3-0.2,0.7-0.2,1.1c0,0.4,0.1,0.8,0.2,1c0.1,0.3,0.3,0.5,0.5,0.7
			c0.2,0.2,0.4,0.3,0.7,0.3s0.6,0.1,0.9,0.1c0.3,0,0.6,0,0.9-0.1c0.3-0.1,0.6-0.1,0.7-0.2c0-0.1,0-0.2,0-0.3
			C95.4,238.3,95.4,238.1,95.4,237.9z"/>
		<path class="st4" d="M111.8,239.1c0,1.1-0.1,2.1-0.3,3s-0.5,1.6-0.9,2.1c-0.4,0.6-1,1-1.7,1.3s-1.5,0.4-2.5,0.4
			c-1,0-1.8-0.1-2.5-0.4s-1.3-0.7-1.7-1.3c-0.4-0.6-0.7-1.3-0.9-2.1s-0.3-1.8-0.3-2.9c0-1.1,0.1-2.1,0.3-3c0.2-0.8,0.5-1.5,0.9-2.1
			c0.4-0.6,1-1,1.7-1.3s1.5-0.4,2.5-0.4c1,0,1.8,0.1,2.5,0.4s1.2,0.7,1.7,1.3c0.4,0.6,0.7,1.3,0.9,2.1
			C111.7,237,111.8,238,111.8,239.1z M108.4,239.1c0-1.6-0.2-2.7-0.5-3.4c-0.3-0.7-0.8-1-1.5-1s-1.2,0.3-1.5,1
			c-0.3,0.7-0.5,1.8-0.5,3.4c0,1.6,0.2,2.7,0.5,3.4s0.8,1,1.5,1s1.2-0.3,1.5-1S108.4,240.6,108.4,239.1z"/>
		<path class="st4" d="M124.8,242.6h-1.8v3h-3.2v-3h-6.3v-2.5l6.1-7.6h3.4v7.7h1.8V242.6z M119.8,240.2v-4.7l-3.8,4.7H119.8z"/>
	</g>
	<g>
		<path class="st5" d="M66.1,263.4c-0.6,0-1.1-0.1-1.6-0.2s-0.9-0.3-1.2-0.6c-0.3-0.3-0.6-0.6-0.8-1.1s-0.3-0.9-0.3-1.5
			c0-0.6,0.1-1.1,0.3-1.6s0.5-0.8,0.9-1.1c0.4-0.3,0.8-0.5,1.2-0.6s0.9-0.2,1.4-0.2c0.4,0,0.9,0,1.2,0.1s0.7,0.2,1.1,0.4v1.8h-0.3
			c-0.1-0.1-0.2-0.2-0.3-0.2c-0.1-0.1-0.3-0.2-0.4-0.3c-0.2-0.1-0.3-0.2-0.5-0.2c-0.2-0.1-0.4-0.1-0.7-0.1c-0.6,0-1,0.2-1.3,0.5
			c-0.3,0.4-0.5,0.8-0.5,1.5c0,0.6,0.2,1.1,0.5,1.4c0.3,0.3,0.8,0.5,1.3,0.5c0.3,0,0.5,0,0.7-0.1c0.2-0.1,0.4-0.1,0.5-0.2
			c0.1-0.1,0.2-0.2,0.4-0.2c0.1-0.1,0.2-0.2,0.3-0.3h0.3v1.8c-0.3,0.2-0.7,0.3-1,0.4S66.6,263.4,66.1,263.4z"/>
		<path class="st5" d="M76.6,259.9c0,1.1-0.3,1.9-0.9,2.6s-1.5,0.9-2.7,0.9s-2-0.3-2.7-0.9s-0.9-1.5-0.9-2.6c0-1.1,0.3-1.9,1-2.6
			s1.5-0.9,2.7-0.9c1.1,0,2,0.3,2.7,0.9S76.6,258.9,76.6,259.9z M74,261.5c0.1-0.2,0.2-0.4,0.3-0.6s0.1-0.6,0.1-1c0-0.4,0-0.7-0.1-1
			s-0.2-0.5-0.3-0.6c-0.1-0.2-0.3-0.3-0.5-0.3s-0.4-0.1-0.6-0.1s-0.4,0-0.5,0.1s-0.3,0.2-0.5,0.3c-0.1,0.2-0.2,0.4-0.3,0.6
			s-0.1,0.6-0.1,1c0,0.4,0,0.7,0.1,0.9s0.2,0.5,0.3,0.6c0.1,0.2,0.3,0.3,0.4,0.3s0.4,0.1,0.6,0.1c0.2,0,0.4,0,0.5-0.1
			S73.9,261.7,74,261.5z"/>
		<path class="st5" d="M84.7,258.6v4.7h-2.1v-3.3c0-0.3,0-0.6,0-0.8s-0.1-0.4-0.1-0.5s-0.2-0.2-0.3-0.3s-0.3-0.1-0.6-0.1
			c-0.2,0-0.4,0-0.6,0.1s-0.4,0.2-0.5,0.3v4.7h-2.1v-6.6h2.1v0.7c0.4-0.3,0.7-0.5,1-0.7s0.7-0.2,1.1-0.2c0.4,0,0.8,0.1,1.1,0.3
			c0.3,0.2,0.6,0.5,0.8,0.9c0.4-0.4,0.8-0.6,1.2-0.8s0.8-0.3,1.2-0.3c0.7,0,1.2,0.2,1.6,0.6c0.4,0.4,0.6,1,0.6,1.8v4.3h-2.1v-3.3
			c0-0.3,0-0.6,0-0.8s-0.1-0.4-0.1-0.5c-0.1-0.1-0.2-0.2-0.3-0.3s-0.3-0.1-0.6-0.1c-0.2,0-0.3,0-0.5,0.1S84.9,258.4,84.7,258.6z"/>
		<path class="st5" d="M93.2,255.7H91v-1.6h2.2V255.7z M93.1,263.2H91v-6.6h2.1V263.2z"/>
		<path class="st5" d="M101,261.1c0,0.7-0.3,1.2-0.9,1.6s-1.4,0.6-2.5,0.6c-0.6,0-1.1-0.1-1.6-0.2s-0.9-0.2-1.1-0.4v-1.7H95
			c0.1,0.1,0.2,0.2,0.4,0.2s0.3,0.2,0.6,0.3c0.2,0.1,0.5,0.2,0.7,0.2s0.6,0.1,0.9,0.1c0.4,0,0.7,0,0.9-0.1s0.3-0.2,0.3-0.4
			c0-0.2-0.1-0.3-0.2-0.3s-0.3-0.1-0.7-0.2c-0.2,0-0.4-0.1-0.6-0.1s-0.5-0.1-0.7-0.1c-0.6-0.2-1-0.4-1.3-0.7s-0.4-0.7-0.4-1.2
			c0-0.6,0.3-1.2,0.9-1.6s1.4-0.6,2.5-0.6c0.5,0,1,0,1.4,0.1s0.8,0.2,1.1,0.3v1.7h-0.2c-0.3-0.2-0.7-0.4-1.1-0.5s-0.8-0.2-1.2-0.2
			c-0.3,0-0.6,0-0.9,0.1s-0.3,0.2-0.3,0.4c0,0.2,0.1,0.3,0.2,0.4s0.4,0.2,0.7,0.2c0.2,0,0.4,0.1,0.7,0.1s0.5,0.1,0.7,0.2
			c0.6,0.1,1,0.4,1.2,0.7S101,260.7,101,261.1z"/>
		<path class="st5" d="M104.7,255.7h-2.2v-1.6h2.2V255.7z M104.6,263.2h-2.1v-6.6h2.1V263.2z"/>
		<path class="st5" d="M113.4,259.9c0,1.1-0.3,1.9-0.9,2.6s-1.5,0.9-2.7,0.9s-2-0.3-2.7-0.9s-0.9-1.5-0.9-2.6c0-1.1,0.3-1.9,1-2.6
			s1.5-0.9,2.7-0.9c1.1,0,2,0.3,2.7,0.9S113.4,258.9,113.4,259.9z M110.8,261.5c0.1-0.2,0.2-0.4,0.3-0.6s0.1-0.6,0.1-1
			c0-0.4,0-0.7-0.1-1s-0.2-0.5-0.3-0.6c-0.1-0.2-0.3-0.3-0.5-0.3s-0.4-0.1-0.6-0.1s-0.4,0-0.5,0.1s-0.3,0.2-0.5,0.3
			c-0.1,0.2-0.2,0.4-0.3,0.6s-0.1,0.6-0.1,1c0,0.4,0,0.7,0.1,0.9s0.2,0.5,0.3,0.6c0.1,0.2,0.3,0.3,0.4,0.3s0.4,0.1,0.6,0.1
			c0.2,0,0.4,0,0.5-0.1S110.7,261.7,110.8,261.5z"/>
		<path class="st5" d="M121.7,263.2h-2.1V260c0-0.3,0-0.5,0-0.8s-0.1-0.5-0.1-0.6c-0.1-0.1-0.2-0.2-0.3-0.3s-0.4-0.1-0.6-0.1
			c-0.2,0-0.4,0-0.6,0.1s-0.4,0.2-0.6,0.3v4.7H115v-6.6h2.1v0.7c0.4-0.3,0.7-0.5,1.1-0.7s0.7-0.2,1.1-0.2c0.7,0,1.3,0.2,1.7,0.6
			c0.4,0.4,0.6,1,0.6,1.9V263.2z"/>
		<path class="st5" d="M125.9,255.7h-2.2v-1.6h2.2V255.7z M125.8,263.2h-2.1v-6.6h2.1V263.2z"/>
		<path class="st5" d="M133.6,261.1c0,0.7-0.3,1.2-0.9,1.6s-1.4,0.6-2.5,0.6c-0.6,0-1.1-0.1-1.6-0.2s-0.9-0.2-1.1-0.4v-1.7h0.2
			c0.1,0.1,0.2,0.2,0.4,0.2s0.3,0.2,0.6,0.3c0.2,0.1,0.5,0.2,0.7,0.2s0.6,0.1,0.9,0.1c0.4,0,0.7,0,0.9-0.1s0.3-0.2,0.3-0.4
			c0-0.2-0.1-0.3-0.2-0.3s-0.3-0.1-0.7-0.2c-0.2,0-0.4-0.1-0.6-0.1s-0.5-0.1-0.7-0.1c-0.6-0.2-1-0.4-1.3-0.7s-0.4-0.7-0.4-1.2
			c0-0.6,0.3-1.2,0.9-1.6s1.4-0.6,2.5-0.6c0.5,0,1,0,1.4,0.1s0.8,0.2,1.1,0.3v1.7h-0.2c-0.3-0.2-0.7-0.4-1.1-0.5s-0.8-0.2-1.2-0.2
			c-0.3,0-0.6,0-0.9,0.1s-0.3,0.2-0.3,0.4c0,0.2,0.1,0.3,0.2,0.4s0.4,0.2,0.7,0.2c0.2,0,0.4,0.1,0.7,0.1s0.5,0.1,0.7,0.2
			c0.6,0.1,1,0.4,1.2,0.7S133.6,260.7,133.6,261.1z"/>
		<path class="st5" d="M139.4,263.2c-0.2,0.1-0.5,0.1-0.7,0.1s-0.6,0-0.9,0c-0.8,0-1.4-0.2-1.8-0.5s-0.6-0.9-0.6-1.7v-3.1h-0.9v-1.4
			h0.9v-1.9h2.1v1.9h2v1.4h-2v2.3c0,0.2,0,0.4,0,0.6c0,0.2,0,0.3,0.1,0.5c0.1,0.1,0.2,0.2,0.3,0.3c0.1,0.1,0.3,0.1,0.6,0.1
			c0.1,0,0.3,0,0.4-0.1s0.3-0.1,0.4-0.1h0.2V263.2z"/>
		<path class="st5" d="M144.7,262.5c-0.1,0.1-0.3,0.2-0.4,0.3s-0.3,0.2-0.5,0.3c-0.2,0.1-0.4,0.2-0.6,0.2s-0.5,0.1-0.7,0.1
			c-0.6,0-1.1-0.2-1.6-0.6s-0.6-0.9-0.6-1.5c0-0.5,0.1-0.9,0.3-1.2s0.5-0.5,0.9-0.7c0.4-0.2,0.9-0.3,1.5-0.4s1.2-0.1,1.8-0.2v0
			c0-0.4-0.1-0.6-0.4-0.8s-0.7-0.2-1.3-0.2c-0.3,0-0.7,0.1-1.1,0.2s-0.7,0.2-0.8,0.3h-0.2v-1.6c0.2-0.1,0.6-0.1,1.1-0.2
			s1-0.1,1.5-0.1c1.2,0,2.1,0.2,2.6,0.6s0.8,0.9,0.8,1.7v4.5h-2.1V262.5z M144.7,261.5v-1.4c-0.3,0-0.6,0.1-0.9,0.1
			s-0.6,0.1-0.8,0.1c-0.2,0.1-0.4,0.2-0.5,0.3c-0.1,0.1-0.2,0.3-0.2,0.5c0,0.1,0,0.2,0,0.3c0,0.1,0.1,0.2,0.2,0.2
			c0.1,0.1,0.2,0.1,0.3,0.2s0.3,0.1,0.6,0.1c0.2,0,0.4,0,0.6-0.1C144.4,261.8,144.6,261.7,144.7,261.5z"/>
		<path class="st5" d="M154.6,261.1c0,0.7-0.3,1.2-0.9,1.6s-1.4,0.6-2.5,0.6c-0.6,0-1.1-0.1-1.6-0.2s-0.9-0.2-1.1-0.4v-1.7h0.2
			c0.1,0.1,0.2,0.2,0.4,0.2s0.3,0.2,0.6,0.3c0.2,0.1,0.5,0.2,0.7,0.2s0.6,0.1,0.9,0.1c0.4,0,0.7,0,0.9-0.1s0.3-0.2,0.3-0.4
			c0-0.2-0.1-0.3-0.2-0.3s-0.3-0.1-0.7-0.2c-0.2,0-0.4-0.1-0.6-0.1s-0.5-0.1-0.7-0.1c-0.6-0.2-1-0.4-1.3-0.7s-0.4-0.7-0.4-1.2
			c0-0.6,0.3-1.2,0.9-1.6s1.4-0.6,2.5-0.6c0.5,0,1,0,1.4,0.1s0.8,0.2,1.1,0.3v1.7h-0.2c-0.3-0.2-0.7-0.4-1.1-0.5s-0.8-0.2-1.2-0.2
			c-0.3,0-0.6,0-0.9,0.1s-0.3,0.2-0.3,0.4c0,0.2,0.1,0.3,0.2,0.4s0.4,0.2,0.7,0.2c0.2,0,0.4,0.1,0.7,0.1s0.5,0.1,0.7,0.2
			c0.6,0.1,1,0.4,1.2,0.7S154.6,260.7,154.6,261.1z"/>
		<path class="st5" d="M164.3,262.5c-0.1,0.1-0.3,0.2-0.4,0.3s-0.3,0.2-0.5,0.3c-0.2,0.1-0.4,0.2-0.6,0.2s-0.5,0.1-0.7,0.1
			c-0.6,0-1.1-0.2-1.6-0.6s-0.6-0.9-0.6-1.5c0-0.5,0.1-0.9,0.3-1.2s0.5-0.5,0.9-0.7c0.4-0.2,0.9-0.3,1.5-0.4s1.2-0.1,1.8-0.2v0
			c0-0.4-0.1-0.6-0.4-0.8s-0.7-0.2-1.3-0.2c-0.3,0-0.7,0.1-1.1,0.2s-0.7,0.2-0.8,0.3h-0.2v-1.6c0.2-0.1,0.6-0.1,1.1-0.2
			s1-0.1,1.5-0.1c1.2,0,2.1,0.2,2.6,0.6s0.8,0.9,0.8,1.7v4.5h-2.1V262.5z M164.3,261.5v-1.4c-0.3,0-0.6,0.1-0.9,0.1
			s-0.6,0.1-0.8,0.1c-0.2,0.1-0.4,0.2-0.5,0.3c-0.1,0.1-0.2,0.3-0.2,0.5c0,0.1,0,0.2,0,0.3c0,0.1,0.1,0.2,0.2,0.2
			c0.1,0.1,0.2,0.1,0.3,0.2s0.3,0.1,0.6,0.1c0.2,0,0.4,0,0.6-0.1C164,261.8,164.1,261.7,164.3,261.5z"/>
		<path class="st5" d="M171.9,263.4c-0.6,0-1.1-0.1-1.6-0.2s-0.9-0.3-1.2-0.6c-0.3-0.3-0.6-0.6-0.8-1.1s-0.3-0.9-0.3-1.5
			c0-0.6,0.1-1.1,0.3-1.6s0.5-0.8,0.9-1.1c0.4-0.3,0.8-0.5,1.2-0.6s0.9-0.2,1.4-0.2c0.4,0,0.9,0,1.2,0.1s0.7,0.2,1.1,0.4v1.8h-0.3
			c-0.1-0.1-0.2-0.2-0.3-0.2c-0.1-0.1-0.3-0.2-0.4-0.3c-0.2-0.1-0.3-0.2-0.5-0.2c-0.2-0.1-0.4-0.1-0.7-0.1c-0.6,0-1,0.2-1.3,0.5
			c-0.3,0.4-0.5,0.8-0.5,1.5c0,0.6,0.2,1.1,0.5,1.4c0.3,0.3,0.8,0.5,1.3,0.5c0.3,0,0.5,0,0.7-0.1c0.2-0.1,0.4-0.1,0.5-0.2
			c0.1-0.1,0.2-0.2,0.4-0.2c0.1-0.1,0.2-0.2,0.3-0.3h0.3v1.8c-0.3,0.2-0.7,0.3-1,0.4S172.3,263.4,171.9,263.4z"/>
		<path class="st5" d="M179.8,263.2c-0.2,0.1-0.5,0.1-0.7,0.1s-0.6,0-0.9,0c-0.8,0-1.4-0.2-1.8-0.5s-0.6-0.9-0.6-1.7v-3.1h-0.9v-1.4
			h0.9v-1.9h2.1v1.9h2v1.4h-2v2.3c0,0.2,0,0.4,0,0.6c0,0.2,0,0.3,0.1,0.5c0.1,0.1,0.2,0.2,0.3,0.3c0.1,0.1,0.3,0.1,0.6,0.1
			c0.1,0,0.3,0,0.4-0.1s0.3-0.1,0.4-0.1h0.2V263.2z"/>
		<path class="st5" d="M183.4,255.7h-2.2v-1.6h2.2V255.7z M183.3,263.2h-2.1v-6.6h2.1V263.2z"/>
		<path class="st5" d="M192,256.7l-2.5,6.6h-2.4l-2.5-6.6h2.2l1.5,4.5l1.5-4.5H192z"/>
		<path class="st5" d="M200.1,259.9c0,1.1-0.3,1.9-0.9,2.6s-1.5,0.9-2.7,0.9s-2-0.3-2.7-0.9s-0.9-1.5-0.9-2.6c0-1.1,0.3-1.9,1-2.6
			s1.5-0.9,2.7-0.9c1.1,0,2,0.3,2.7,0.9S200.1,258.9,200.1,259.9z M197.5,261.5c0.1-0.2,0.2-0.4,0.3-0.6s0.1-0.6,0.1-1
			c0-0.4,0-0.7-0.1-1s-0.2-0.5-0.3-0.6c-0.1-0.2-0.3-0.3-0.5-0.3s-0.4-0.1-0.6-0.1s-0.4,0-0.5,0.1s-0.3,0.2-0.5,0.3
			c-0.1,0.2-0.2,0.4-0.3,0.6s-0.1,0.6-0.1,1c0,0.4,0,0.7,0.1,0.9s0.2,0.5,0.3,0.6c0.1,0.2,0.3,0.3,0.4,0.3s0.4,0.1,0.6,0.1
			c0.2,0,0.4,0,0.5-0.1S197.4,261.7,197.5,261.5z"/>
		<path class="st5" d="M207.4,261.1c0,0.7-0.3,1.2-0.9,1.6s-1.4,0.6-2.5,0.6c-0.6,0-1.1-0.1-1.6-0.2s-0.9-0.2-1.1-0.4v-1.7h0.2
			c0.1,0.1,0.2,0.2,0.4,0.2s0.3,0.2,0.6,0.3c0.2,0.1,0.5,0.2,0.7,0.2s0.6,0.1,0.9,0.1c0.4,0,0.7,0,0.9-0.1s0.3-0.2,0.3-0.4
			c0-0.2-0.1-0.3-0.2-0.3s-0.3-0.1-0.7-0.2c-0.2,0-0.4-0.1-0.6-0.1s-0.5-0.1-0.7-0.1c-0.6-0.2-1-0.4-1.3-0.7s-0.4-0.7-0.4-1.2
			c0-0.6,0.3-1.2,0.9-1.6s1.4-0.6,2.5-0.6c0.5,0,1,0,1.4,0.1s0.8,0.2,1.1,0.3v1.7h-0.2c-0.3-0.2-0.7-0.4-1.1-0.5s-0.8-0.2-1.2-0.2
			c-0.3,0-0.6,0-0.9,0.1s-0.3,0.2-0.3,0.4c0,0.2,0.1,0.3,0.2,0.4s0.4,0.2,0.7,0.2c0.2,0,0.4,0.1,0.7,0.1s0.5,0.1,0.7,0.2
			c0.6,0.1,1,0.4,1.2,0.7S207.4,260.7,207.4,261.1z"/>
	</g>
	<g>
		<path class="st4" d="M79.8,323.2H69.5v-2.2c0.8-0.6,1.6-1.2,2.4-1.8s1.4-1.2,1.9-1.7c0.7-0.7,1.2-1.3,1.5-1.8s0.4-1,0.4-1.5
			c0-0.6-0.2-1.1-0.6-1.4c-0.4-0.3-0.9-0.5-1.7-0.5c-0.5,0-1.1,0.1-1.7,0.3s-1.1,0.5-1.7,0.9h-0.3v-2.9c0.4-0.2,1-0.4,1.8-0.5
			s1.6-0.3,2.4-0.3c1.6,0,2.9,0.3,3.8,1s1.3,1.7,1.3,2.9c0,0.8-0.2,1.6-0.6,2.4s-1,1.5-1.9,2.3c-0.5,0.5-1.1,0.9-1.6,1.4
			c-0.5,0.4-0.9,0.7-1.2,0.9h5.9V323.2z"/>
		<path class="st4" d="M86.1,319.8l-3.2,6.7h-2l1.7-6.7H86.1z"/>
		<path class="st4" d="M99,316.7c0,1.1-0.1,2.1-0.3,3s-0.5,1.6-0.9,2.1c-0.4,0.6-1,1-1.7,1.3s-1.5,0.4-2.5,0.4c-1,0-1.8-0.1-2.5-0.4
			s-1.3-0.7-1.7-1.3c-0.4-0.6-0.7-1.3-0.9-2.1s-0.3-1.8-0.3-2.9c0-1.1,0.1-2.1,0.3-3c0.2-0.8,0.5-1.5,0.9-2.1c0.4-0.6,1-1,1.7-1.3
			s1.5-0.4,2.5-0.4c1,0,1.8,0.1,2.5,0.4s1.2,0.7,1.7,1.3c0.4,0.6,0.7,1.3,0.9,2.1C98.9,314.6,99,315.6,99,316.7z M95.6,316.7
			c0-1.6-0.2-2.7-0.5-3.4c-0.3-0.7-0.8-1-1.5-1s-1.2,0.3-1.5,1c-0.3,0.7-0.5,1.8-0.5,3.4c0,1.6,0.2,2.7,0.5,3.4s0.8,1,1.5,1
			s1.2-0.3,1.5-1S95.6,318.2,95.6,316.7z"/>
		<path class="st4" d="M111,323.2h-8.7v-2.3h2.8V314h-2.8v-2.1c0.4,0,0.8,0,1.2-0.1s0.7-0.1,1-0.3c0.3-0.1,0.5-0.3,0.7-0.6
			s0.2-0.5,0.3-0.9h2.9v10.8h2.7V323.2z"/>
		<path class="st4" d="M124.4,318.8c0,0.7-0.1,1.3-0.4,1.9s-0.6,1.1-1.1,1.5c-0.5,0.4-1.2,0.8-1.9,1c-0.7,0.2-1.5,0.3-2.4,0.3
			c-1,0-1.9-0.1-2.7-0.3c-0.7-0.2-1.3-0.3-1.8-0.5v-2.9h0.4c0.5,0.3,1.1,0.6,1.7,0.8s1.2,0.3,1.8,0.3c0.4,0,0.8,0,1.2-0.1
			s0.8-0.2,1-0.5c0.2-0.2,0.4-0.4,0.5-0.6s0.2-0.5,0.2-0.9c0-0.3-0.1-0.6-0.2-0.8c-0.1-0.2-0.3-0.4-0.5-0.5
			c-0.3-0.2-0.7-0.3-1.1-0.4c-0.4-0.1-0.8-0.1-1.2-0.1c-0.5,0-1,0-1.5,0.1c-0.5,0.1-0.9,0.2-1.3,0.3h-0.4v-7.4h9.3v2.5h-6.1v2.1
			c0.2,0,0.4,0,0.7,0c0.3,0,0.5,0,0.7,0c0.7,0,1.4,0.1,1.9,0.2s1.1,0.3,1.5,0.6c0.5,0.3,0.9,0.7,1.2,1.3
			C124.2,317.3,124.4,318,124.4,318.8z"/>
	</g>
	<g>
		<path class="st5" d="M69.2,340.3h-4.8c0,0.5,0.2,0.9,0.6,1.2s0.9,0.4,1.6,0.4c0.4,0,0.9-0.1,1.3-0.2s0.7-0.3,1-0.5h0.2v1.7
			c-0.5,0.2-0.9,0.3-1.3,0.4s-0.9,0.1-1.4,0.1c-1.3,0-2.3-0.3-3-0.9s-1.1-1.4-1.1-2.5c0-1.1,0.3-1.9,1-2.6s1.6-1,2.7-1
			c1.1,0,1.9,0.3,2.4,0.8s0.8,1.3,0.8,2.3V340.3z M67.1,339.1c0-0.4-0.1-0.8-0.3-1s-0.5-0.3-1-0.3c-0.4,0-0.7,0.1-1,0.3
			s-0.4,0.5-0.4,1H67.1z"/>
		<path class="st5" d="M77.4,338.6v4.7h-2.1v-3.3c0-0.3,0-0.6,0-0.8s-0.1-0.4-0.1-0.5s-0.2-0.2-0.3-0.3s-0.3-0.1-0.6-0.1
			c-0.2,0-0.4,0-0.6,0.1s-0.4,0.2-0.5,0.3v4.7H71v-6.6h2.1v0.7c0.4-0.3,0.7-0.5,1-0.7s0.7-0.2,1.1-0.2c0.4,0,0.8,0.1,1.1,0.3
			c0.3,0.2,0.6,0.5,0.8,0.9c0.4-0.4,0.8-0.6,1.2-0.8s0.8-0.3,1.2-0.3c0.7,0,1.2,0.2,1.6,0.6c0.4,0.4,0.6,1,0.6,1.8v4.3h-2.1v-3.3
			c0-0.3,0-0.6,0-0.8s-0.1-0.4-0.1-0.5c-0.1-0.1-0.2-0.2-0.3-0.3s-0.3-0.1-0.6-0.1c-0.2,0-0.3,0-0.5,0.1S77.6,338.4,77.4,338.6z"/>
		<path class="st5" d="M86.1,335.7h-2.2v-1.6h2.2V335.7z M86.1,343.2h-2.1v-6.6h2.1V343.2z"/>
		<path class="st5" d="M94.1,341.1c0,0.7-0.3,1.2-0.9,1.6s-1.4,0.6-2.5,0.6c-0.6,0-1.1-0.1-1.6-0.2s-0.9-0.2-1.1-0.4v-1.7h0.2
			c0.1,0.1,0.2,0.2,0.4,0.2s0.3,0.2,0.6,0.3c0.2,0.1,0.5,0.2,0.7,0.2s0.6,0.1,0.9,0.1c0.4,0,0.7,0,0.9-0.1s0.3-0.2,0.3-0.4
			c0-0.2-0.1-0.3-0.2-0.3s-0.3-0.1-0.7-0.2c-0.2,0-0.4-0.1-0.6-0.1s-0.5-0.1-0.7-0.1c-0.6-0.2-1-0.4-1.3-0.7s-0.4-0.7-0.4-1.2
			c0-0.6,0.3-1.2,0.9-1.6s1.4-0.6,2.5-0.6c0.5,0,1,0,1.4,0.1s0.8,0.2,1.1,0.3v1.7h-0.2c-0.3-0.2-0.7-0.4-1.1-0.5s-0.8-0.2-1.2-0.2
			c-0.3,0-0.6,0-0.9,0.1s-0.3,0.2-0.3,0.4c0,0.2,0.1,0.3,0.2,0.4s0.4,0.2,0.7,0.2c0.2,0,0.4,0.1,0.7,0.1s0.5,0.1,0.7,0.2
			c0.6,0.1,1,0.4,1.2,0.7S94.1,340.7,94.1,341.1z"/>
		<path class="st5" d="M102.5,339.9c0,1.1-0.3,1.9-0.9,2.6s-1.5,0.9-2.7,0.9s-2-0.3-2.7-0.9s-0.9-1.5-0.9-2.6c0-1.1,0.3-1.9,1-2.6
			s1.5-0.9,2.7-0.9c1.1,0,2,0.3,2.7,0.9S102.5,338.9,102.5,339.9z M99.9,341.5c0.1-0.2,0.2-0.4,0.3-0.6s0.1-0.6,0.1-1
			c0-0.4,0-0.7-0.1-1s-0.2-0.5-0.3-0.6c-0.1-0.2-0.3-0.3-0.5-0.3s-0.4-0.1-0.6-0.1s-0.4,0-0.5,0.1s-0.3,0.2-0.5,0.3
			c-0.1,0.2-0.2,0.4-0.3,0.6s-0.1,0.6-0.1,1c0,0.4,0,0.7,0.1,0.9s0.2,0.5,0.3,0.6c0.1,0.2,0.3,0.3,0.4,0.3s0.4,0.1,0.6,0.1
			c0.2,0,0.4,0,0.5-0.1S99.8,341.7,99.9,341.5z"/>
		<path class="st5" d="M109.1,338.7h-0.2c-0.1,0-0.2-0.1-0.4-0.1s-0.4,0-0.5,0c-0.3,0-0.6,0-0.8,0.1s-0.5,0.1-0.7,0.2v4.4h-2.1v-6.6
			h2.1v1c0.5-0.4,0.9-0.7,1.2-0.8c0.3-0.1,0.7-0.2,0.9-0.2c0.1,0,0.2,0,0.3,0c0.1,0,0.2,0,0.2,0V338.7z"/>
		<path class="st5" d="M117,340.3h-4.8c0,0.5,0.2,0.9,0.6,1.2s0.9,0.4,1.6,0.4c0.4,0,0.9-0.1,1.3-0.2s0.7-0.3,1-0.5h0.2v1.7
			c-0.5,0.2-0.9,0.3-1.3,0.4s-0.9,0.1-1.4,0.1c-1.3,0-2.3-0.3-3-0.9s-1.1-1.4-1.1-2.5c0-1.1,0.3-1.9,1-2.6s1.6-1,2.7-1
			c1.1,0,1.9,0.3,2.4,0.8s0.8,1.3,0.8,2.3V340.3z M114.9,339.1c0-0.4-0.1-0.8-0.3-1s-0.5-0.3-1-0.3c-0.4,0-0.7,0.1-1,0.3
			s-0.4,0.5-0.4,1H114.9z"/>
		<path class="st5" d="M124.5,341.1c0,0.7-0.3,1.2-0.9,1.6s-1.4,0.6-2.5,0.6c-0.6,0-1.1-0.1-1.6-0.2s-0.9-0.2-1.1-0.4v-1.7h0.2
			c0.1,0.1,0.2,0.2,0.4,0.2s0.3,0.2,0.6,0.3c0.2,0.1,0.5,0.2,0.7,0.2s0.6,0.1,0.9,0.1c0.4,0,0.7,0,0.9-0.1s0.3-0.2,0.3-0.4
			c0-0.2-0.1-0.3-0.2-0.3s-0.3-0.1-0.7-0.2c-0.2,0-0.4-0.1-0.6-0.1s-0.5-0.1-0.7-0.1c-0.6-0.2-1-0.4-1.3-0.7s-0.4-0.7-0.4-1.2
			c0-0.6,0.3-1.2,0.9-1.6s1.4-0.6,2.5-0.6c0.5,0,1,0,1.4,0.1s0.8,0.2,1.1,0.3v1.7H124c-0.3-0.2-0.7-0.4-1.1-0.5s-0.8-0.2-1.2-0.2
			c-0.3,0-0.6,0-0.9,0.1s-0.3,0.2-0.3,0.4c0,0.2,0.1,0.3,0.2,0.4s0.4,0.2,0.7,0.2c0.2,0,0.4,0.1,0.7,0.1s0.5,0.1,0.7,0.2
			c0.6,0.1,1,0.4,1.2,0.7S124.5,340.7,124.5,341.1z"/>
	</g>
	<g>
		<path class="st4" d="M78.9,383.2h-8.7v-2.3H73V374h-2.8v-2.1c0.4,0,0.8,0,1.2-0.1s0.7-0.1,1-0.3c0.3-0.1,0.5-0.3,0.7-0.6
			s0.2-0.5,0.3-0.9h2.9v10.8h2.7V383.2z"/>
		<path class="st4" d="M92.7,380.2H91v3h-3.2v-3h-6.3v-2.5l6.1-7.6H91v7.7h1.8V380.2z M87.7,377.8v-4.7l-3.8,4.7H87.7z"/>
		<path class="st4" d="M105.3,376.7c0,1.1-0.1,2.1-0.3,3s-0.5,1.6-0.9,2.1c-0.4,0.6-1,1-1.7,1.3s-1.5,0.4-2.5,0.4
			c-1,0-1.8-0.1-2.5-0.4s-1.3-0.7-1.7-1.3c-0.4-0.6-0.7-1.3-0.9-2.1s-0.3-1.8-0.3-2.9c0-1.1,0.1-2.1,0.3-3c0.2-0.8,0.5-1.5,0.9-2.1
			c0.4-0.6,1-1,1.7-1.3s1.5-0.4,2.5-0.4c1,0,1.8,0.1,2.5,0.4s1.2,0.7,1.7,1.3c0.4,0.6,0.7,1.3,0.9,2.1
			C105.2,374.6,105.3,375.6,105.3,376.7z M101.9,376.7c0-1.6-0.2-2.7-0.5-3.4c-0.3-0.7-0.8-1-1.5-1s-1.2,0.3-1.5,1
			c-0.3,0.7-0.5,1.8-0.5,3.4c0,1.6,0.2,2.7,0.5,3.4s0.8,1,1.5,1s1.2-0.3,1.5-1S101.9,378.2,101.9,376.7z"/>
	</g>
	<g>
		<path class="st5" d="M66.1,403.4c-0.6,0-1.1-0.1-1.6-0.2s-0.9-0.3-1.2-0.6c-0.3-0.3-0.6-0.6-0.8-1.1s-0.3-0.9-0.3-1.5
			c0-0.6,0.1-1.1,0.3-1.6s0.5-0.8,0.9-1.1c0.4-0.3,0.8-0.5,1.2-0.6s0.9-0.2,1.4-0.2c0.4,0,0.9,0,1.2,0.1s0.7,0.2,1.1,0.4v1.8h-0.3
			c-0.1-0.1-0.2-0.2-0.3-0.2c-0.1-0.1-0.3-0.2-0.4-0.3c-0.2-0.1-0.3-0.2-0.5-0.2c-0.2-0.1-0.4-0.1-0.7-0.1c-0.6,0-1,0.2-1.3,0.5
			c-0.3,0.4-0.5,0.8-0.5,1.5c0,0.6,0.2,1.1,0.5,1.4c0.3,0.3,0.8,0.5,1.3,0.5c0.3,0,0.5,0,0.7-0.1c0.2-0.1,0.4-0.1,0.5-0.2
			c0.1-0.1,0.2-0.2,0.4-0.2c0.1-0.1,0.2-0.2,0.3-0.3h0.3v1.8c-0.3,0.2-0.7,0.3-1,0.4S66.6,403.4,66.1,403.4z"/>
		<path class="st5" d="M76.8,399.9c0,1.1-0.3,1.9-0.9,2.6s-1.5,0.9-2.7,0.9s-2-0.3-2.7-0.9s-0.9-1.5-0.9-2.6c0-1.1,0.3-1.9,1-2.6
			s1.5-0.9,2.7-0.9c1.1,0,2,0.3,2.7,0.9S76.8,398.9,76.8,399.9z M74.2,401.5c0.1-0.2,0.2-0.4,0.3-0.6s0.1-0.6,0.1-1
			c0-0.4,0-0.7-0.1-1s-0.2-0.5-0.3-0.6c-0.1-0.2-0.3-0.3-0.5-0.3s-0.4-0.1-0.6-0.1s-0.4,0-0.5,0.1s-0.3,0.2-0.5,0.3
			c-0.1,0.2-0.2,0.4-0.3,0.6s-0.1,0.6-0.1,1c0,0.4,0,0.7,0.1,0.9s0.2,0.5,0.3,0.6c0.1,0.2,0.3,0.3,0.4,0.3s0.4,0.1,0.6,0.1
			c0.2,0,0.4,0,0.5-0.1S74.1,401.7,74.2,401.5z"/>
		<path class="st5" d="M80.7,403.2h-2.1v-9.1h2.1V403.2z"/>
		<path class="st5" d="M87,402.5c-0.1,0.1-0.3,0.2-0.4,0.3s-0.3,0.2-0.5,0.3c-0.2,0.1-0.4,0.2-0.6,0.2s-0.5,0.1-0.7,0.1
			c-0.6,0-1.1-0.2-1.6-0.6s-0.6-0.9-0.6-1.5c0-0.5,0.1-0.9,0.3-1.2s0.5-0.5,0.9-0.7c0.4-0.2,0.9-0.3,1.5-0.4s1.2-0.1,1.8-0.2v0
			c0-0.4-0.1-0.6-0.4-0.8s-0.7-0.2-1.3-0.2c-0.3,0-0.7,0.1-1.1,0.2s-0.7,0.2-0.8,0.3h-0.2v-1.6c0.2-0.1,0.6-0.1,1.1-0.2
			s1-0.1,1.5-0.1c1.2,0,2.1,0.2,2.6,0.6s0.8,0.9,0.8,1.7v4.5H87V402.5z M87,401.5v-1.4c-0.3,0-0.6,0.1-0.9,0.1s-0.6,0.1-0.8,0.1
			c-0.2,0.1-0.4,0.2-0.5,0.3c-0.1,0.1-0.2,0.3-0.2,0.5c0,0.1,0,0.2,0,0.3c0,0.1,0.1,0.2,0.2,0.2c0.1,0.1,0.2,0.1,0.3,0.2
			s0.3,0.1,0.6,0.1c0.2,0,0.4,0,0.6-0.1C86.6,401.8,86.8,401.7,87,401.5z"/>
		<path class="st5" d="M98.2,399.9c0,1-0.3,1.9-0.9,2.5c-0.6,0.7-1.3,1-2.1,1c-0.4,0-0.7,0-1-0.1s-0.5-0.2-0.8-0.3l-0.1,0.3h-2v-9.1
			h2.1v3.2c0.3-0.3,0.7-0.5,1-0.6s0.7-0.2,1.2-0.2c0.8,0,1.5,0.3,1.9,0.9C97.9,398,98.2,398.8,98.2,399.9z M96,399.9
			c0-0.6-0.1-1-0.3-1.4c-0.2-0.3-0.6-0.5-1.1-0.5c-0.2,0-0.4,0-0.6,0.1s-0.4,0.1-0.6,0.3v3.3c0.2,0.1,0.3,0.1,0.4,0.1s0.3,0,0.5,0
			c0.6,0,1-0.2,1.2-0.5C95.9,401,96,400.6,96,399.9z"/>
		<path class="st5" d="M106.7,399.9c0,1.1-0.3,1.9-0.9,2.6s-1.5,0.9-2.7,0.9s-2-0.3-2.7-0.9s-0.9-1.5-0.9-2.6c0-1.1,0.3-1.9,1-2.6
			s1.5-0.9,2.7-0.9c1.1,0,2,0.3,2.7,0.9S106.7,398.9,106.7,399.9z M104.1,401.5c0.1-0.2,0.2-0.4,0.3-0.6s0.1-0.6,0.1-1
			c0-0.4,0-0.7-0.1-1s-0.2-0.5-0.3-0.6c-0.1-0.2-0.3-0.3-0.5-0.3s-0.4-0.1-0.6-0.1s-0.4,0-0.5,0.1s-0.3,0.2-0.5,0.3
			c-0.1,0.2-0.2,0.4-0.3,0.6s-0.1,0.6-0.1,1c0,0.4,0,0.7,0.1,0.9s0.2,0.5,0.3,0.6c0.1,0.2,0.3,0.3,0.4,0.3s0.4,0.1,0.6,0.1
			c0.2,0,0.4,0,0.5-0.1S104,401.7,104.1,401.5z"/>
		<path class="st5" d="M113.3,398.7h-0.2c-0.1,0-0.2-0.1-0.4-0.1s-0.4,0-0.5,0c-0.3,0-0.6,0-0.8,0.1s-0.5,0.1-0.7,0.2v4.4h-2.1v-6.6
			h2.1v1c0.5-0.4,0.9-0.7,1.2-0.8c0.3-0.1,0.7-0.2,0.9-0.2c0.1,0,0.2,0,0.3,0c0.1,0,0.2,0,0.2,0V398.7z"/>
		<path class="st5" d="M118.7,402.5c-0.1,0.1-0.3,0.2-0.4,0.3s-0.3,0.2-0.5,0.3c-0.2,0.1-0.4,0.2-0.6,0.2s-0.5,0.1-0.7,0.1
			c-0.6,0-1.1-0.2-1.6-0.6s-0.6-0.9-0.6-1.5c0-0.5,0.1-0.9,0.3-1.2s0.5-0.5,0.9-0.7c0.4-0.2,0.9-0.3,1.5-0.4s1.2-0.1,1.8-0.2v0
			c0-0.4-0.1-0.6-0.4-0.8s-0.7-0.2-1.3-0.2c-0.3,0-0.7,0.1-1.1,0.2s-0.7,0.2-0.8,0.3h-0.2v-1.6c0.2-0.1,0.6-0.1,1.1-0.2
			s1-0.1,1.5-0.1c1.2,0,2.1,0.2,2.6,0.6s0.8,0.9,0.8,1.7v4.5h-2.1V402.5z M118.7,401.5v-1.4c-0.3,0-0.6,0.1-0.9,0.1
			s-0.6,0.1-0.8,0.1c-0.2,0.1-0.4,0.2-0.5,0.3c-0.1,0.1-0.2,0.3-0.2,0.5c0,0.1,0,0.2,0,0.3c0,0.1,0.1,0.2,0.2,0.2
			c0.1,0.1,0.2,0.1,0.3,0.2s0.3,0.1,0.6,0.1c0.2,0,0.4,0,0.6-0.1C118.4,401.8,118.6,401.7,118.7,401.5z"/>
		<path class="st5" d="M129.5,403.2h-2.1v-0.7c-0.4,0.3-0.7,0.5-1,0.7c-0.3,0.1-0.7,0.2-1.1,0.2c-0.8,0-1.4-0.3-1.9-0.9
			s-0.7-1.4-0.7-2.5c0-0.6,0.1-1.1,0.2-1.5c0.2-0.4,0.4-0.8,0.7-1.1c0.3-0.3,0.6-0.5,1-0.7s0.8-0.2,1.1-0.2c0.4,0,0.7,0,1,0.1
			s0.5,0.2,0.8,0.3v-2.8h2.1V403.2z M127.4,401.4v-3.2c-0.1-0.1-0.3-0.1-0.5-0.1c-0.2,0-0.3,0-0.5,0c-0.6,0-1,0.2-1.2,0.5
			c-0.3,0.3-0.4,0.8-0.4,1.4c0,0.6,0.1,1.1,0.3,1.4c0.2,0.3,0.6,0.4,1.1,0.4c0.2,0,0.4,0,0.6-0.1S127.2,401.5,127.4,401.4z"/>
		<path class="st5" d="M138.5,399.9c0,1.1-0.3,1.9-0.9,2.6s-1.5,0.9-2.7,0.9s-2-0.3-2.7-0.9s-0.9-1.5-0.9-2.6c0-1.1,0.3-1.9,1-2.6
			s1.5-0.9,2.7-0.9c1.1,0,2,0.3,2.7,0.9S138.5,398.9,138.5,399.9z M135.9,401.5c0.1-0.2,0.2-0.4,0.3-0.6s0.1-0.6,0.1-1
			c0-0.4,0-0.7-0.1-1s-0.2-0.5-0.3-0.6c-0.1-0.2-0.3-0.3-0.5-0.3s-0.4-0.1-0.6-0.1s-0.4,0-0.5,0.1s-0.3,0.2-0.5,0.3
			c-0.1,0.2-0.2,0.4-0.3,0.6s-0.1,0.6-0.1,1c0,0.4,0,0.7,0.1,0.9s0.2,0.5,0.3,0.6c0.1,0.2,0.3,0.3,0.4,0.3s0.4,0.1,0.6,0.1
			c0.2,0,0.4,0,0.5-0.1S135.8,401.7,135.9,401.5z"/>
		<path class="st5" d="M145.1,398.7h-0.2c-0.1,0-0.2-0.1-0.4-0.1s-0.4,0-0.5,0c-0.3,0-0.6,0-0.8,0.1s-0.5,0.1-0.7,0.2v4.4h-2.1v-6.6
			h2.1v1c0.5-0.4,0.9-0.7,1.2-0.8c0.3-0.1,0.7-0.2,0.9-0.2c0.1,0,0.2,0,0.3,0c0.1,0,0.2,0,0.2,0V398.7z"/>
		<path class="st5" d="M153,400.3h-4.8c0,0.5,0.2,0.9,0.6,1.2s0.9,0.4,1.6,0.4c0.4,0,0.9-0.1,1.3-0.2s0.7-0.3,1-0.5h0.2v1.7
			c-0.5,0.2-0.9,0.3-1.3,0.4s-0.9,0.1-1.4,0.1c-1.3,0-2.3-0.3-3-0.9s-1.1-1.4-1.1-2.5c0-1.1,0.3-1.9,1-2.6s1.6-1,2.7-1
			c1.1,0,1.9,0.3,2.4,0.8s0.8,1.3,0.8,2.3V400.3z M150.9,399.1c0-0.4-0.1-0.8-0.3-1s-0.5-0.3-1-0.3c-0.4,0-0.7,0.1-1,0.3
			s-0.4,0.5-0.4,1H150.9z"/>
		<path class="st5" d="M160.5,401.1c0,0.7-0.3,1.2-0.9,1.6s-1.4,0.6-2.5,0.6c-0.6,0-1.1-0.1-1.6-0.2s-0.9-0.2-1.1-0.4v-1.7h0.2
			c0.1,0.1,0.2,0.2,0.4,0.2s0.3,0.2,0.6,0.3c0.2,0.1,0.5,0.2,0.7,0.2s0.6,0.1,0.9,0.1c0.4,0,0.7,0,0.9-0.1s0.3-0.2,0.3-0.4
			c0-0.2-0.1-0.3-0.2-0.3s-0.3-0.1-0.7-0.2c-0.2,0-0.4-0.1-0.6-0.1s-0.5-0.1-0.7-0.1c-0.6-0.2-1-0.4-1.3-0.7s-0.4-0.7-0.4-1.2
			c0-0.6,0.3-1.2,0.9-1.6s1.4-0.6,2.5-0.6c0.5,0,1,0,1.4,0.1s0.8,0.2,1.1,0.3v1.7H160c-0.3-0.2-0.7-0.4-1.1-0.5s-0.8-0.2-1.2-0.2
			c-0.3,0-0.6,0-0.9,0.1s-0.3,0.2-0.3,0.4c0,0.2,0.1,0.3,0.2,0.4s0.4,0.2,0.7,0.2c0.2,0,0.4,0.1,0.7,0.1s0.5,0.1,0.7,0.2
			c0.6,0.1,1,0.4,1.2,0.7S160.5,400.7,160.5,401.1z"/>
	</g>
	<g>
		<path class="st6" d="M173.4,39.5c-4.6,0-7.4-1.7-9.7-6.6c-0.3-0.6-0.4-0.6-1.1-0.7c-4-0.2-10-0.7-13.3-1.4c-0.5-0.1-0.6,0-0.5,0.4
			c0.9,4.1,5.4,7.1,10.5,7.7C163.8,39.5,166.9,39.6,173.4,39.5"/>
		<path class="st7" d="M165.8,36.3c1.9,2.3,4.3,3.2,7.6,3.2c2.8,0,5.8-1.1,8.1-4.5c4-5.9,8.3-6.4,11.2-6.5c0,0-1.7-0.2-6.5-0.2
			c-3.4,0-6.8,0.1-6.8,0.1C172.8,28.6,169.4,33.3,165.8,36.3"/>
		<path class="st8" d="M169.8,39.5c-1.8,6.3-6.1,12.3-14.4,13.5c-0.4,0.1-0.4,0.3,0.1,0.3c3.2,0.1,10.1,0.4,15.3,0.2
			c6.6-0.3,10.9-6.4,12.4-12.8c1.5-6.4,2.4-10.9,7.2-11.9c-2.6,0.5-5.8,1.9-8.7,6.3c-2.3,3.4-5.3,4.5-8.1,4.5
			C172.1,39.5,170.9,39.5,169.8,39.5"/>
		<path class="st9" d="M67.1,62.8l1.6-9.2c-1.2-2.6-5-10.7-6.2-13.3h4.8c0.9,2.6,2.2,5.6,3.5,8.3c0.1,0.3,0.3,0.9,0.6,0.9
			c0.3,0,0.6-0.6,0.9-0.9l6.5-8.3h5.1c-3.7,4.1-8.4,9.7-11,13.2l-1.6,9.3H67.1z M86.9,62.8c-0.2-1.1-0.2-1.7-0.1-2.9
			c-1.2,1.6-2.8,3.2-5.5,3.2c-3.1,0-4.8-2.4-4.8-5.3c0-5.2,4.2-11.1,10-11.1c2.6,0,3.3,0.6,5.8,0.6C90.9,53,90.1,58.6,90.1,61
			c0,1,0.1,1.4,0.1,1.8H86.9z M86.1,49.7c-3.1,0-5.4,4.1-5.4,7.7c0,1.6,0.6,2.4,1.9,2.4c2.5,0,4-3,4.5-5.8l0.6-3.2
			C87.7,50.2,87.5,49.7,86.1,49.7 M100.9,49.8c-1.4,0-2.4,0.4-2.4,1.4c0,2.1,5.7,2.8,5.7,6.8c0,3.4-3,5.2-7.4,5.2
			c-1.3,0-2.8-0.2-4.2-0.5l0.6-3.3c1.1,0.3,2.6,0.6,3.9,0.6c1.8,0,3-0.5,3-1.5c0-2.3-5.8-2.7-5.8-6.7c0-3.5,3.1-5.1,7-5.1
			c1.2,0,2.6,0.1,3.8,0.5l-0.6,3.5C103.4,50.1,102,49.8,100.9,49.8 M112.2,47.1h5.5l-0.5,3.2h-5.5c-0.6,3.3-1,5.5-1.4,8
			c0,0.1,0,0.3,0,0.5c0,0.8,0.7,1.2,1.9,1.2c1.2,0,2.3-0.2,3.6-0.9l-0.6,3.4c-1.4,0.6-3,0.8-4.6,0.8c-2.6,0-4.4-1.1-4.4-3.4
			c0-0.3,0-0.6,0.1-0.9l2.5-14.7l4.3-2.2L112.2,47.1z M133.1,47.2c-2.5,0-3.1-0.6-5.8-0.6c-5.7,0-10,5.9-10,11.1
			c0,2.9,1.7,5.3,4.8,5.3c2.8,0,4.3-1.6,5.5-3.2c-0.1,1.2-0.1,1.8,0.1,2.9h3.4c-0.1-0.4-0.1-0.8-0.1-1.8
			C131,58.6,131.8,53,133.1,47.2 M128.6,50.8L128,54c-0.5,2.9-2,5.8-4.5,5.8c-1.2,0-1.9-0.8-1.9-2.4c0-3.6,2.3-7.7,5.4-7.7
			C128.4,49.7,128.7,50.2,128.6,50.8 M141.8,49.8c-1.4,0-2.4,0.4-2.4,1.4c0,2.1,5.7,2.8,5.7,6.8c0,3.4-3,5.2-7.4,5.2
			c-1.3,0-2.8-0.2-4.2-0.5l0.6-3.3c1.1,0.3,2.6,0.6,3.9,0.6c1.8,0,3-0.5,3-1.5c0-2.3-5.8-2.7-5.8-6.7c0-3.5,3.1-5.1,7-5.1
			c1.2,0,2.6,0.1,3.8,0.5l-0.6,3.5C144.3,50.1,142.9,49.8,141.8,49.8 M129.9,40.3c-1.4,1.6-3.2,3.4-5.1,5h3.4l5.6-5H129.9z"/>
	</g>
</g>
</svg>
