<svg id="Capa_1" data-name="Capa 1" xmlns="http://www.w3.org/2000/svg" viewBox="0 0 133.19 115.36"><defs><style>.cls-1{fill:none;stroke:#ce0159;}</style></defs><path id="Trazado_304" data-name="Trazado 304" class="cls-1" d="M14.9,99.66Q24.91,116,41.09,116T67.27,99.66q10-16.35,10-40,0-23.52-10-39.23T41.09,4.68Q24.91,4.68,14.9,20.4t-10,39.23Q4.91,83.32,14.9,99.66ZM28.71,31.6Q33.32,21,41.09,21q7.62,0,12.22,10.65t4.6,28.19a77.46,77.46,0,0,1-4.6,29.05Q48.69,100,41.09,100.05T28.79,88.84a76.29,76.29,0,0,1-4.68-29.05Q24.11,42.26,28.71,31.6ZM92.34,46.68l26-14.84v81.79h18.09V55.05q0-11.83.32-31.34T137.09,2L92.34,27.74Z" transform="translate(-4.41 -1.14)"/></svg>