<?xml version="1.0" encoding="utf-8"?>
<!-- Generator: Adobe Illustrator 25.2.1, SVG Export Plug-In . SVG Version: 6.00 Build 0)  -->
<svg version="1.1" id="Capa_1" xmlns="http://www.w3.org/2000/svg" xmlns:xlink="http://www.w3.org/1999/xlink" x="0px" y="0px"
	 viewBox="0 0 156 112.6" style="enable-background:new 0 0 156 112.6;" xml:space="preserve">
<style type="text/css">
	.st0{fill:none;stroke:#662D89;stroke-width:1.5;}
</style>
<path id="Trazado_303" class="st0" d="M10.5,95.7c6.7,10.9,15.4,16.4,26.2,16.4s19.5-5.5,26.2-16.4c6.7-10.9,10-24.3,10-40.1
	s-3.3-28.9-10-39.3C56.2,5.8,47.5,0.5,36.7,0.5S17.2,5.8,10.5,16.3c-6.7,10.5-10,23.6-10,39.3C0.5,71.4,3.8,84.8,10.5,95.7z
	 M24.3,27.5c3.1-7.1,7.2-10.7,12.4-10.7c5.1,0,9.2,3.6,12.2,10.7s4.6,16.6,4.6,28.3c0.3,9.9-1.2,19.8-4.6,29.1
	c-3.1,7.5-7.1,11.2-12.2,11.2s-9.2-3.7-12.3-11.2c-3.1-7.5-4.7-17.2-4.7-29.1C19.7,44.1,21.2,34.6,24.3,27.5z M142.7,64.5
	c7.1-11.2,10.7-21.4,10.7-30.7c0-10-2.8-18-8.5-24.1s-13.8-9.1-24.5-9.1c-8.4-0.3-16.6,2.9-22.6,8.9c-5.6,5.2-8.8,12.4-8.8,20.1
	c0,3.5,0.7,7.1,2.1,10.3h15.6c-0.8-2.4-1.2-4.8-1.3-7.3c-0.2-3.8,1-7.6,3.4-10.6c2.5-2.9,6.3-4.4,10.1-4.1
	c10.1,0,15.1,5.8,15.1,17.3c0,11.6-4.8,23.7-14.3,36.4C109.6,84.7,97.5,96.3,84,105.9l1.1,3.8h69.3l1.1-16
	c-4.6,0.3-17.1,0.5-37.8,0.5C127.4,85.5,135.8,75.5,142.7,64.5L142.7,64.5z"/>
</svg>
