<svg id="Capa_1" data-name="Capa 1" xmlns="http://www.w3.org/2000/svg" viewBox="0 0 147.45 112.13"><defs><style>.cls-1{fill:none;stroke:#126a92;}</style></defs><path id="Trazado_305" data-name="Trazado 305" class="cls-1" d="M14.23,98.82q9.94,16.31,26.07,16.31T66.36,98.82q10-16.32,10-40,0-23.49-9.95-39.17T40.3,4Q24.18,4,14.23,19.69t-10,39.17Q4.27,82.5,14.23,98.82ZM28,30.87Q32.56,20.24,40.3,20.23q7.58,0,12.16,10.64T57,59q0,17.82-4.58,29T40.3,99.21q-7.59,0-12.23-11.19T23.4,59Q23.4,41.52,28,30.87Zm116.43-7.8V6.52H92.74q-.94,19.23-2.53,57.69a56,56,0,0,1,18.17-3.31A25.69,25.69,0,0,1,125.13,66a17.7,17.7,0,0,1,6.16,14.5,17.59,17.59,0,0,1-5.85,14q-5.85,5.11-16.9,5.12a40.68,40.68,0,0,1-20.69-5.2v16.55A54.23,54.23,0,0,0,108.7,115q20.85,0,31.44-10.33a34.58,34.58,0,0,0,10.58-25.76,33.49,33.49,0,0,0-9.48-24Q131.76,45,114.38,45a42.38,42.38,0,0,0-6.16.48l1.42-23.18Q136.66,22.29,144.4,23.07Z" transform="translate(-3.77 -3.5)"/></svg>