<?xml version="1.0" encoding="utf-8"?>
<!-- Generator: Adobe Illustrator 25.2.1, SVG Export Plug-In . SVG Version: 6.00 Build 0)  -->
<svg version="1.1" id="Capa_1" xmlns="http://www.w3.org/2000/svg" xmlns:xlink="http://www.w3.org/1999/xlink" x="0px" y="0px"
	 viewBox="0 0 164 120" style="enable-background:new 0 0 164 120;" xml:space="preserve">
<style type="text/css">
	.st0{fill:none;stroke:#495B6C;stroke-width:2;}
</style>
<path id="Trazado_301" class="st0" d="M16.8,100.5c6.7,10.9,15.4,16.3,26.2,16.3s19.5-5.5,26.1-16.3c6.7-10.9,10-24.2,10-40
	c0-15.7-3.3-28.8-10-39.2C62.3,10.8,53.7,5.5,42.8,5.5s-19.5,5.2-26.1,15.7s-10,23.6-10,39.2C6.8,76.2,10.1,89.6,16.8,100.5z
	 M30.5,32.4c3.1-7.1,7.2-10.6,12.4-10.6c5.1,0,9.1,3.5,12.2,10.6c3.1,7.1,4.6,16.5,4.6,28.2c0.3,9.9-1.2,19.8-4.6,29.1
	c-3.1,7.5-7.1,11.2-12.2,11.2s-9.2-3.7-12.3-11.2c-3.4-9.3-5-19.2-4.7-29.1C26,48.9,27.5,39.5,30.5,32.4z M142.4,3.3
	c-17.1,7.1-30,17.1-38.8,30.1c-8.6,12.5-13.2,27.3-13.1,42.5c0,13,3.1,23,9.2,30.2c6,7.1,14.8,11,24.1,10.7
	c10.8,0,19.1-3.9,24.9-11.6c5.8-7.8,8.9-17.3,8.7-27.1c0-11.4-2.9-20.2-8.6-26.5c-5.2-6.1-12.8-9.6-20.8-9.5
	c-4.3-0.1-8.5,0.9-12.2,3c4-6.1,8.9-11.7,14.3-16.5c6.2-5.6,13.2-10.1,20.8-13.5L142.4,3.3z M123.6,101.7c-4.6,0-8.8-2.5-11-6.6
	c-2.9-5.4-4.3-11.5-4-17.6c-0.2-5.2,1.2-10.3,3.9-14.7c2.5-3.8,6.8-6.1,11.3-5.8c3.6-0.1,7.1,1.5,9.4,4.2c2.3,2.4,3.9,5.3,4.8,8.5
	c0.7,2.8,1,5.7,1,8.6C138.9,93.8,133.8,101.7,123.6,101.7z"/>
</svg>
