<?xml version="1.0" encoding="utf-8"?>
<!-- Generator: Adobe Illustrator 25.2.1, SVG Export Plug-In . SVG Version: 6.00 Build 0)  -->
<svg version="1.1" id="Capa_1" xmlns="http://www.w3.org/2000/svg" xmlns:xlink="http://www.w3.org/1999/xlink" x="0px" y="0px"
	 viewBox="0 0 2196.4 517.5" style="enable-background:new 0 0 2196.4 517.5;" xml:space="preserve">
<style type="text/css">
	.st0{opacity:0.35;}
	.st1{fill:#FFFFFF;}
	.st2{fill:none;}
	.st3{fill:none;stroke:#363636;stroke-width:3;}
</style>
<g id="Grupo_810" class="st0">
	<g id="UNIDOS">
		<g>
			<path class="st1" d="M309.5,377.1c0,38.2-11.6,67.4-34.9,87.8c-23.2,20.3-57.5,30.5-102.7,30.5c-45.2,0-79.4-10.2-102.6-30.5
				c-23.2-20.3-34.7-49.5-34.7-87.5V180h80.1v192.7c0,21.4,4.5,37.4,13.5,47.9s23.6,15.8,43.8,15.8c19.9,0,34.5-5.1,43.7-15.1
				c9.2-10.1,13.8-26.3,13.8-48.5V180h80.1V377.1z"/>
			<path class="st1" d="M707.4,488.9h-76.8l-131.1-212v212h-73V180h95.2l112.6,177v-177h73L707.4,488.9z"/>
			<path class="st1" d="M995.7,488.9H814.8v-54.8h50.6V234.8h-50.6V180h180.9v54.8h-50.6v199.4h50.6V488.9z"/>
			<path class="st1" d="M1395.1,334.7c0,28.8-6.6,54.5-19.7,77.3c-13.1,22.8-29.7,40.2-49.8,52.4c-15.3,9.2-32.1,15.7-49.6,19.1
				c-18,3.6-39.3,5.4-63.9,5.4h-108.9V180h112c25.2,0,46.9,2.1,65.2,6.3s33.6,10.2,46,17.9c21.1,12.8,38.5,30.9,50.3,52.6
				C1388.9,278.9,1395.1,304.9,1395.1,334.7z M1312.7,334.1c0-20.3-3.7-37.7-11.1-52.2s-19.1-25.8-35.2-33.9
				c-7.9-3.9-16.3-6.7-25-8.2c-8.5-1.4-21.3-2.2-38.5-2.2h-20.1V431h20.1c18.9,0,32.8-0.9,41.7-2.6c9.1-1.8,17.8-5,25.9-9.4
				c14.5-8.3,25.2-19.4,31.9-33.3C1309.3,371.8,1312.7,354.6,1312.7,334.1z"/>
			<path class="st1" d="M1798.7,334.5c0,49.2-14.1,88.3-42.3,117.3s-67.2,43.5-117,43.5c-49.6,0-88.6-14.5-116.8-43.5
				c-28.2-29-42.3-68.1-42.3-117.3c0-49.6,14.1-88.9,42.3-117.7s67.1-43.3,116.8-43.2c49.5,0,88.4,14.4,116.8,43.2
				C1784.6,245.6,1798.7,284.9,1798.7,334.5z M1693.1,412.8c8-9.8,13.8-21.1,17.2-33.3c3.7-12.8,5.6-27.8,5.6-45.1
				c0-18.5-2.1-34.3-6.4-47.3s-9.9-23.5-16.8-31.5c-6.5-7.9-14.9-14.1-24.4-18c-18.4-7.4-38.9-7.5-57.3-0.2
				c-8.9,3.6-17.1,9.5-24.6,17.8c-6.9,7.8-12.6,18.4-16.9,32.1c-4.4,13.6-6.5,29.4-6.5,47.4c0,18.4,2.1,34.1,6.3,47
				s9.8,23.5,16.7,31.6c6.5,7.9,14.9,14,24.3,18c9.3,3.9,19.2,5.9,29.2,5.8c10.1,0,20-2,29.2-5.9
				C1678.3,427,1686.6,420.7,1693.1,412.8z"/>
			<path class="st1" d="M2149.4,391.8c0,30.4-12.9,55.1-38.7,74.2s-60.8,28.5-105.1,28.5c-25.6,0-47.9-2.2-66.9-6.7
				c-18.2-4.2-36.1-10-53.4-17.1v-74.1h8.7c16.6,13.2,35.3,23.4,55.3,30.3c20.4,7,40,10.6,58.8,10.6c6.4-0.1,12.7-0.5,19.1-1.2
				c7.9-0.8,14.3-2.2,19.3-4.1c5.5-2.2,10.6-5.3,15-9.3c3.9-3.7,5.9-9.3,5.9-16.6c0-6.8-2.9-12.6-8.6-17.5
				c-5.7-4.9-14.1-8.7-25.2-11.3c-11.6-2.8-23.9-5.4-36.8-7.8c-12.3-2.3-24.5-5.3-36.4-9.2c-26-8.4-44.7-19.9-56.1-34.3
				s-17.1-32.4-17.1-53.8c0-28.8,12.9-52.2,38.7-70.4s59-27.3,99.5-27.3c20.2,0,40.4,2,60.3,5.9c19.9,3.9,37,8.9,51.6,14.8v71.2
				h-8.5c-12.4-10-27.7-18.3-45.7-25c-17.7-6.6-36.4-10-55.3-10.1c-6.6,0-13.2,0.4-19.8,1.4c-6.5,0.9-12.9,2.6-19,5.1
				c-5.3,2-10.1,5.3-13.9,9.4c-3.7,3.9-5.8,9-5.8,14.4c0,8.2,3.1,14.4,9.3,18.8s18,8.3,35.3,11.9c11.3,2.4,22.2,4.6,32.7,6.9
				c11.4,2.5,22.6,5.5,33.7,9.1c23.7,7.8,41.1,18.3,52.4,31.6S2149.3,370.5,2149.4,391.8z"/>
		</g>
	</g>
</g>
<g id="_30_AÑOS" class="st0">
	<g>
		<path class="st1" d="M96,76.3c1.7,1.5,3.2,3.3,4.2,5.3c1.1,2.5,1.7,5.2,1.6,8c0,3.6-0.7,7.2-2.2,10.5c-1.5,3.3-3.9,6.2-6.9,8.4
			c-3.2,2.4-6.8,4.1-10.6,5.2c-4.8,1.3-9.8,1.9-14.8,1.8c-5.7,0.1-11.5-0.4-17.1-1.6c-4-0.8-7.8-2-11.6-3.5V92.9h2.1
			c3.5,2,7.2,3.7,11,4.8c3.8,1.3,7.8,1.9,11.8,2c2.3,0,4.5-0.2,6.8-0.5c2.2-0.3,4.3-1,6.2-2.2c1.3-0.8,2.4-2,3.2-3.2
			c0.9-1.7,1.3-3.6,1.2-5.5c0.1-1.9-0.4-3.9-1.6-5.4c-1.1-1.3-2.6-2.2-4.2-2.7c-2.1-0.6-4.2-0.9-6.3-0.9c-2.5,0-4.8-0.1-6.9-0.1
			h-4.3V64.8h4.6c2.8,0,5.3-0.1,7.4-0.3c1.9-0.1,3.7-0.5,5.5-1.2c1.4-0.6,2.6-1.5,3.5-2.7c0.9-1.5,1.3-3.3,1.2-5
			c0.1-1.4-0.4-2.8-1.2-3.9c-0.9-1-1.9-1.8-3.1-2.3c-1.6-0.7-3.2-1.1-4.9-1.3c-1.6-0.2-3.3-0.3-4.9-0.3c-3.7,0.1-7.4,0.6-11,1.8
			c-4,1.2-7.9,2.9-11.5,5h-2V37.1c3.9-1.5,7.9-2.6,12-3.4c5.1-1.1,10.2-1.6,15.4-1.6c4.5-0.1,9,0.4,13.3,1.3
			c3.3,0.7,6.5,1.9,9.4,3.5c2.7,1.5,5,3.7,6.6,6.4c1.5,2.7,2.2,5.7,2.2,8.8c0,4.3-1.4,8.6-4.1,11.9c-2.7,3.5-6.6,5.8-10.9,6.7v0.8
			c2,0.3,3.9,0.8,5.8,1.5C92.5,73.8,94.4,74.9,96,76.3z"/>
		<path class="st1" d="M203.7,73.7c0.1,6.1-0.5,12.2-1.8,18.1c-1,4.7-2.9,9.2-5.7,13.1c-2.7,3.5-6.2,6.2-10.2,7.9
			c-4.2,1.8-9.3,2.7-15.4,2.7c-5.2,0.1-10.5-0.8-15.3-2.7c-4.1-1.7-7.6-4.5-10.3-8c-2.8-3.9-4.8-8.4-5.8-13.1
			c-1.2-5.9-1.8-11.9-1.8-17.9c-0.1-6.1,0.5-12.2,1.8-18.1c1-4.7,3-9.1,5.8-13c2.7-3.5,6.2-6.2,10.3-7.9c4.8-1.9,10-2.8,15.2-2.6
			c5.3-0.2,10.5,0.8,15.4,2.7c4.1,1.7,7.6,4.5,10.2,8.1c2.8,3.9,4.7,8.3,5.7,13C203.2,61.8,203.8,67.7,203.7,73.7z M182.9,73.7
			c0-9.7-0.9-16.6-2.9-20.7s-5.1-6.2-9.5-6.2c-4.4,0-7.6,2.1-9.5,6.2s-2.9,11.1-2.9,20.8c0,9.5,1,16.4,2.9,20.6s5.1,6.3,9.4,6.3
			c4.3,0,7.5-2.1,9.4-6.3S182.9,83.3,182.9,73.7z"/>
		<path class="st1" d="M375.7,113.8h-21.3l-5.6-16.2h-29.6l-5.6,16.2h-20.8l29.6-80.1h23.8L375.7,113.8z M343.8,83l-9.9-28.7
			L324.1,83H343.8z"/>
		<path class="st1" d="M482,113.8h-19.9l-34-55v55h-18.9V33.8h24.7l29.2,45.9V33.8H482L482,113.8z M469.5,6.8
			c-0.4,6.1-1.8,10.5-4.4,13.5s-6.2,4.4-10.9,4.4c-1.7,0-3.3-0.3-4.8-1c-1.4-0.6-2.8-1.3-4.2-2.1c-1.1-0.7-2.3-1.4-3.7-2.1
			c-1-0.6-2.2-0.9-3.4-1c-1.8,0-2.9,0.6-3.5,1.7c-0.7,1.5-1,3.2-1,4.8h-11.8c0.2-5.4,1.7-9.8,4.5-13c2.7-3.2,6.6-5,10.8-4.9
			c1.7,0,3.3,0.3,4.9,1c1.5,0.6,2.9,1.3,4.2,2.1c1.3,0.7,2.6,1.4,3.7,2c1,0.6,2.1,0.9,3.2,1c1.4,0.1,2.8-0.6,3.6-1.8
			c0.7-1.4,1.1-3,1.1-4.6H469.5z"/>
		<path class="st1" d="M602.4,73.8c0,12.8-3.7,22.9-11,30.4s-17.4,11.3-30.3,11.3c-12.9,0-23-3.8-30.3-11.3s-11-17.6-11-30.4
			c0-12.9,3.7-23,11-30.5c7.3-7.5,17.4-11.2,30.3-11.2c12.9,0,23,3.7,30.3,11.2S602.4,61,602.4,73.8z M575,94.1
			c2.1-2.5,3.6-5.5,4.5-8.6c1-3.8,1.5-7.7,1.5-11.7c0.1-4.2-0.5-8.3-1.7-12.3c-0.9-3-2.4-5.8-4.4-8.2c-1.7-2.1-3.9-3.7-6.3-4.7
			c-4.8-1.9-10.1-1.9-14.8-0.1c-2.5,1-4.6,2.6-6.4,4.6c-2,2.4-3.5,5.3-4.4,8.3c-1.2,4-1.8,8.1-1.7,12.3c-0.1,4.1,0.5,8.2,1.6,12.2
			c0.9,3,2.4,5.8,4.3,8.2c1.7,2,3.8,3.6,6.3,4.7c4.9,2,10.3,2,15.2,0C571.2,97.8,573.3,96.2,575,94.1z"/>
		<path class="st1" d="M704.3,88.7c0,7.9-3.3,14.3-10,19.2c-6.7,4.9-15.7,7.4-27.2,7.4c-5.8,0.1-11.7-0.5-17.3-1.8
			c-4.7-1.1-9.4-2.6-13.8-4.4V89.9h2.3c4.3,3.4,9.1,6.1,14.3,7.8c4.9,1.8,10,2.7,15.2,2.8c1.7,0,3.3-0.1,5-0.3
			c1.7-0.1,3.4-0.5,5-1.1c1.4-0.6,2.8-1.4,3.9-2.4c1.1-1.2,1.7-2.7,1.5-4.3c0-1.8-0.8-3.5-2.2-4.6c-1.9-1.5-4.2-2.5-6.5-2.9
			c-3-0.7-6.2-1.4-9.5-2c-3.2-0.6-6.4-1.4-9.4-2.4c-6.7-2.2-11.6-5.2-14.5-8.9c-3.1-4-4.6-9-4.4-14c0-7.5,3.3-13.5,10-18.3
			c6.7-4.7,15.3-7.1,25.8-7.1c5.2,0,10.5,0.5,15.6,1.5c4.6,0.9,9,2.1,13.4,3.8v18.5H699c-3.6-2.8-7.6-5-11.9-6.5
			c-4.6-1.7-9.4-2.6-14.3-2.6c-1.7,0-3.4,0.1-5.1,0.3c-1.7,0.2-3.3,0.7-4.9,1.3c-1.4,0.5-2.6,1.4-3.6,2.5c-1,1-1.5,2.3-1.5,3.7
			c-0.1,1.9,0.8,3.8,2.4,4.9c1.6,1.1,4.7,2.2,9.1,3.1l8.5,1.8c2.7,0.6,5.6,1.4,8.7,2.4c6.1,2,10.7,4.7,13.6,8.2
			C702.9,78.7,704.3,83.1,704.3,88.7z"/>
	</g>
</g>
<rect y="135.6" class="st2" width="2196.4" height="387.9"/>
<g id="Grupo_810-2">
	<g id="UNIDOS-2">
		<g>
			<path class="st3" d="M309.5,377.1c0,38.2-11.6,67.4-34.9,87.8c-23.2,20.3-57.5,30.5-102.7,30.5c-45.2,0-79.4-10.2-102.6-30.5
				c-23.2-20.3-34.7-49.5-34.7-87.5V180h80.1v192.7c0,21.4,4.5,37.4,13.5,47.9s23.6,15.8,43.8,15.8c19.9,0,34.5-5.1,43.7-15.1
				c9.2-10.1,13.8-26.3,13.8-48.5V180h80.1V377.1z"/>
			<path class="st3" d="M707.4,488.9h-76.8l-131.1-212v212h-73V180h95.2l112.6,177v-177h73L707.4,488.9z"/>
			<path class="st3" d="M995.7,488.9H814.8v-54.8h50.6V234.8h-50.6V180h180.9v54.8h-50.6v199.4h50.6V488.9z"/>
			<path class="st3" d="M1395.1,334.7c0,28.8-6.6,54.5-19.7,77.3c-13.1,22.8-29.7,40.2-49.8,52.4c-15.3,9.2-32.1,15.7-49.6,19.1
				c-18,3.6-39.3,5.4-63.9,5.4h-108.9V180h112c25.2,0,46.9,2.1,65.2,6.3s33.6,10.2,46,17.9c21.1,12.8,38.5,30.9,50.3,52.6
				C1388.9,278.9,1395.1,304.9,1395.1,334.7z M1312.7,334.1c0-20.3-3.7-37.7-11.1-52.2s-19.1-25.8-35.2-33.9
				c-7.9-3.9-16.3-6.7-25-8.2c-8.5-1.4-21.3-2.2-38.5-2.2h-20.1V431h20.1c18.9,0,32.8-0.9,41.7-2.6c9.1-1.8,17.8-5,25.9-9.4
				c14.5-8.3,25.2-19.4,31.9-33.3C1309.3,371.8,1312.7,354.6,1312.7,334.1z"/>
			<path class="st3" d="M1798.7,334.5c0,49.2-14.1,88.3-42.3,117.3s-67.2,43.5-117,43.5c-49.6,0-88.6-14.5-116.8-43.5
				c-28.2-29-42.3-68.1-42.3-117.3c0-49.6,14.1-88.9,42.3-117.7s67.1-43.3,116.8-43.2c49.5,0,88.4,14.4,116.8,43.2
				C1784.6,245.6,1798.7,284.9,1798.7,334.5z M1693.1,412.8c8-9.8,13.8-21.1,17.2-33.3c3.7-12.8,5.6-27.8,5.6-45.1
				c0-18.5-2.1-34.3-6.4-47.3s-9.9-23.5-16.8-31.5c-6.5-7.9-14.9-14.1-24.4-18c-18.4-7.4-38.9-7.5-57.3-0.2
				c-8.9,3.6-17.1,9.5-24.6,17.8c-6.9,7.8-12.6,18.4-16.9,32.1c-4.4,13.6-6.5,29.4-6.5,47.4c0,18.4,2.1,34.1,6.3,47
				s9.8,23.5,16.7,31.6c6.5,7.9,14.9,14,24.3,18c9.3,3.9,19.2,5.9,29.2,5.8c10.1,0,20-2,29.2-5.9
				C1678.3,427,1686.6,420.7,1693.1,412.8z"/>
			<path class="st3" d="M2149.4,391.8c0,30.4-12.9,55.1-38.7,74.2s-60.8,28.5-105.1,28.5c-25.6,0-47.9-2.2-66.9-6.7
				c-18.2-4.2-36.1-10-53.4-17.1v-74.1h8.7c16.6,13.2,35.3,23.4,55.3,30.3c20.4,7,40,10.6,58.8,10.6c6.4-0.1,12.7-0.5,19.1-1.2
				c7.9-0.8,14.3-2.2,19.3-4.1c5.5-2.2,10.6-5.3,15-9.3c3.9-3.7,5.9-9.3,5.9-16.6c0-6.8-2.9-12.6-8.6-17.5
				c-5.7-4.9-14.1-8.7-25.2-11.3c-11.6-2.8-23.9-5.4-36.8-7.8c-12.3-2.3-24.5-5.3-36.4-9.2c-26-8.4-44.7-19.9-56.1-34.3
				s-17.1-32.4-17.1-53.8c0-28.8,12.9-52.2,38.7-70.4s59-27.3,99.5-27.3c20.2,0,40.4,2,60.3,5.9c19.9,3.9,37,8.9,51.6,14.8v71.2
				h-8.5c-12.4-10-27.7-18.3-45.7-25c-17.7-6.6-36.4-10-55.3-10.1c-6.6,0-13.2,0.4-19.8,1.4c-6.5,0.9-12.9,2.6-19,5.1
				c-5.3,2-10.1,5.3-13.9,9.4c-3.7,3.9-5.8,9-5.8,14.4c0,8.2,3.1,14.4,9.3,18.8s18,8.3,35.3,11.9c11.3,2.4,22.2,4.6,32.7,6.9
				c11.4,2.5,22.6,5.5,33.7,9.1c23.7,7.8,41.1,18.3,52.4,31.6S2149.3,370.5,2149.4,391.8z"/>
		</g>
	</g>
</g>
<g id="_30_AÑOS-2">
	<g>
		<path class="st3" d="M96,76.3c1.7,1.5,3.2,3.3,4.2,5.3c1.1,2.5,1.7,5.2,1.6,8c0,3.6-0.7,7.2-2.2,10.5c-1.5,3.3-3.9,6.2-6.9,8.4
			c-3.2,2.4-6.8,4.1-10.6,5.2c-4.8,1.3-9.8,1.9-14.8,1.8c-5.7,0.1-11.5-0.4-17.1-1.6c-4-0.8-7.8-2-11.6-3.5V92.9h2.1
			c3.5,2,7.2,3.7,11,4.8c3.8,1.3,7.8,1.9,11.8,2c2.3,0,4.5-0.2,6.8-0.5c2.2-0.3,4.3-1,6.2-2.2c1.3-0.8,2.4-2,3.2-3.2
			c0.9-1.7,1.3-3.6,1.2-5.5c0.1-1.9-0.4-3.9-1.6-5.4c-1.1-1.3-2.6-2.2-4.2-2.7c-2.1-0.6-4.2-0.9-6.3-0.9c-2.5,0-4.8-0.1-6.9-0.1
			h-4.3V64.8h4.6c2.8,0,5.3-0.1,7.4-0.3c1.9-0.1,3.7-0.5,5.5-1.2c1.4-0.6,2.6-1.5,3.5-2.7c0.9-1.5,1.3-3.3,1.2-5
			c0.1-1.4-0.4-2.8-1.2-3.9c-0.9-1-1.9-1.8-3.1-2.3c-1.6-0.7-3.2-1.1-4.9-1.3c-1.6-0.2-3.3-0.3-4.9-0.3c-3.7,0.1-7.4,0.6-11,1.8
			c-4,1.2-7.9,2.9-11.5,5h-2V37.1c3.9-1.5,7.9-2.6,12-3.4c5.1-1.1,10.2-1.6,15.4-1.6c4.5-0.1,9,0.4,13.3,1.3
			c3.3,0.7,6.5,1.9,9.4,3.5c2.7,1.5,5,3.7,6.6,6.4c1.5,2.7,2.2,5.7,2.2,8.8c0,4.3-1.4,8.6-4.1,11.9c-2.7,3.5-6.6,5.8-10.9,6.7v0.8
			c2,0.3,3.9,0.8,5.8,1.5C92.5,73.8,94.4,74.9,96,76.3z"/>
		<path class="st3" d="M203.7,73.7c0.1,6.1-0.5,12.2-1.8,18.1c-1,4.7-2.9,9.2-5.7,13.1c-2.7,3.5-6.2,6.2-10.2,7.9
			c-4.2,1.8-9.3,2.7-15.4,2.7c-5.2,0.1-10.5-0.8-15.3-2.7c-4.1-1.7-7.6-4.5-10.3-8c-2.8-3.9-4.8-8.4-5.8-13.1
			c-1.2-5.9-1.8-11.9-1.8-17.9c-0.1-6.1,0.5-12.2,1.8-18.1c1-4.7,3-9.1,5.8-13c2.7-3.5,6.2-6.2,10.3-7.9c4.8-1.9,10-2.8,15.2-2.6
			c5.3-0.2,10.5,0.8,15.4,2.7c4.1,1.7,7.6,4.5,10.2,8.1c2.8,3.9,4.7,8.3,5.7,13C203.2,61.8,203.8,67.7,203.7,73.7z M182.9,73.7
			c0-9.7-0.9-16.6-2.9-20.7s-5.1-6.2-9.5-6.2c-4.4,0-7.6,2.1-9.5,6.2s-2.9,11.1-2.9,20.8c0,9.5,1,16.4,2.9,20.6s5.1,6.3,9.4,6.3
			c4.3,0,7.5-2.1,9.4-6.3S182.9,83.3,182.9,73.7z"/>
		<path class="st3" d="M375.7,113.8h-21.3l-5.6-16.2h-29.6l-5.6,16.2h-20.8l29.6-80.1h23.8L375.7,113.8z M343.8,83l-9.9-28.7
			L324.1,83H343.8z"/>
		<path class="st3" d="M482,113.8h-19.9l-34-55v55h-18.9V33.8h24.7l29.2,45.9V33.8H482L482,113.8z M469.5,6.8
			c-0.4,6.1-1.8,10.5-4.4,13.5s-6.2,4.4-10.9,4.4c-1.7,0-3.3-0.3-4.8-1c-1.4-0.6-2.8-1.3-4.2-2.1c-1.1-0.7-2.3-1.4-3.7-2.1
			c-1-0.6-2.2-0.9-3.4-1c-1.8,0-2.9,0.6-3.5,1.7c-0.7,1.5-1,3.2-1,4.8h-11.8c0.2-5.4,1.7-9.8,4.5-13c2.7-3.2,6.6-5,10.8-4.9
			c1.7,0,3.3,0.3,4.9,1c1.5,0.6,2.9,1.3,4.2,2.1c1.3,0.7,2.6,1.4,3.7,2c1,0.6,2.1,0.9,3.2,1c1.4,0.1,2.8-0.6,3.6-1.8
			c0.7-1.4,1.1-3,1.1-4.6H469.5z"/>
		<path class="st3" d="M602.4,73.8c0,12.8-3.7,22.9-11,30.4s-17.4,11.3-30.3,11.3c-12.9,0-23-3.8-30.3-11.3s-11-17.6-11-30.4
			c0-12.9,3.7-23,11-30.5c7.3-7.5,17.4-11.2,30.3-11.2c12.9,0,23,3.7,30.3,11.2S602.4,61,602.4,73.8z M575,94.1
			c2.1-2.5,3.6-5.5,4.5-8.6c1-3.8,1.5-7.7,1.5-11.7c0.1-4.2-0.5-8.3-1.7-12.3c-0.9-3-2.4-5.8-4.4-8.2c-1.7-2.1-3.9-3.7-6.3-4.7
			c-4.8-1.9-10.1-1.9-14.8-0.1c-2.5,1-4.6,2.6-6.4,4.6c-2,2.4-3.5,5.3-4.4,8.3c-1.2,4-1.8,8.1-1.7,12.3c-0.1,4.1,0.5,8.2,1.6,12.2
			c0.9,3,2.4,5.8,4.3,8.2c1.7,2,3.8,3.6,6.3,4.7c4.9,2,10.3,2,15.2,0C571.2,97.8,573.3,96.2,575,94.1z"/>
		<path class="st3" d="M704.3,88.7c0,7.9-3.3,14.3-10,19.2c-6.7,4.9-15.7,7.4-27.2,7.4c-5.8,0.1-11.7-0.5-17.3-1.8
			c-4.7-1.1-9.4-2.6-13.8-4.4V89.9h2.3c4.3,3.4,9.1,6.1,14.3,7.8c4.9,1.8,10,2.7,15.2,2.8c1.7,0,3.3-0.1,5-0.3
			c1.7-0.1,3.4-0.5,5-1.1c1.4-0.6,2.8-1.4,3.9-2.4c1.1-1.2,1.7-2.7,1.5-4.3c0-1.8-0.8-3.5-2.2-4.6c-1.9-1.5-4.2-2.5-6.5-2.9
			c-3-0.7-6.2-1.4-9.5-2c-3.2-0.6-6.4-1.4-9.4-2.4c-6.7-2.2-11.6-5.2-14.5-8.9c-3.1-4-4.6-9-4.4-14c0-7.5,3.3-13.5,10-18.3
			c6.7-4.7,15.3-7.1,25.8-7.1c5.2,0,10.5,0.5,15.6,1.5c4.6,0.9,9,2.1,13.4,3.8v18.5H699c-3.6-2.8-7.6-5-11.9-6.5
			c-4.6-1.7-9.4-2.6-14.3-2.6c-1.7,0-3.4,0.1-5.1,0.3c-1.7,0.2-3.3,0.7-4.9,1.3c-1.4,0.5-2.6,1.4-3.6,2.5c-1,1-1.5,2.3-1.5,3.7
			c-0.1,1.9,0.8,3.8,2.4,4.9c1.6,1.1,4.7,2.2,9.1,3.1l8.5,1.8c2.7,0.6,5.6,1.4,8.7,2.4c6.1,2,10.7,4.7,13.6,8.2
			C702.9,78.7,704.3,83.1,704.3,88.7z"/>
	</g>
</g>
</svg>
