<svg id="Capa_1" data-name="Capa 1" xmlns="http://www.w3.org/2000/svg" viewBox="0 0 2196.36 517.51"><defs><style>.cls-1{opacity:0.35;}.cls-2{isolation:isolate;}.cls-3{fill:#fff;}.cls-4,.cls-5,.cls-6{fill:none;}.cls-5,.cls-6{stroke:#363636;}.cls-5{stroke-width:1.75px;}.cls-6{stroke-width:1.5px;}</style></defs><g id="Grupo_810" data-name="Grupo 810" class="cls-1"><g id="UNIDOS" class="cls-2"><g class="cls-2"><path class="cls-3" d="M309.18,370.68q0,57.26-34.85,87.75t-102.69,30.5q-67.84,0-102.59-30.5T34.3,370.88V173.59h80.08V366.32q0,32.16,13.48,47.92T171.64,430q29.87,0,43.67-15.15t13.79-48.54V173.59h80.08Z" transform="translate(0.36 0.39)"/><path class="cls-3" d="M707.05,482.5H630.29l-131.11-212v212h-73V173.59h95.23L634,350.55v-177h73Z" transform="translate(0.36 0.39)"/><path class="cls-3" d="M995.38,482.5H814.48V427.73H865.1V228.36H814.48V173.59h180.9v54.77H944.76V427.73h50.62Z" transform="translate(0.36 0.39)"/><path class="cls-3" d="M1394.7,328.35q0,43.15-19.71,77.28T1325.2,458a152.5,152.5,0,0,1-49.58,19.08q-27,5.4-63.9,5.4H1102.81V173.59h112q37.76,0,65.15,6.33t46,17.94a140.23,140.23,0,0,1,50.31,52.59Q1394.7,283.54,1394.7,328.35Zm-82.36-.62q0-30.5-11.1-52.17t-35.16-33.92a91.47,91.47,0,0,0-25-8.2q-12.76-2.17-38.49-2.18h-20.12V424.62h20.12q28.42,0,41.7-2.6a90.93,90.93,0,0,0,25.94-9.44q21.78-12.45,31.94-33.29T1312.34,327.73Z" transform="translate(0.36 0.39)"/><path class="cls-3" d="M1798.38,328.15q0,73.86-42.32,117.32t-117,43.46q-74.47,0-116.8-43.46t-42.32-117.32q0-74.47,42.32-117.74t116.8-43.25q74.27,0,116.8,43.25T1798.38,328.15Zm-105.6,78.21a92.19,92.19,0,0,0,17.22-33.3q5.61-19.19,5.6-45.12,0-27.79-6.43-47.3t-16.8-31.54a63.1,63.1,0,0,0-24.38-18,77.27,77.27,0,0,0-57.26-.2q-13.38,5.4-24.58,17.84-10.38,11.63-16.91,32.05t-6.53,47.41q0,27.59,6.32,47t16.7,31.63A63.76,63.76,0,0,0,1610,424.82a74.92,74.92,0,0,0,29.25,5.81,74,74,0,0,0,29.25-5.91A64,64,0,0,0,1692.78,406.36Z" transform="translate(0.36 0.39)"/><path class="cls-3" d="M2149,385.41q0,45.63-38.69,74.16T2005.18,488.1q-38.39,0-66.91-6.74a345.11,345.11,0,0,1-53.42-17.12V390.18h8.71a184.71,184.71,0,0,0,55.29,30.29q30.6,10.57,58.82,10.58a190.88,190.88,0,0,0,19.08-1.25q11.84-1.24,19.3-4.15a48.15,48.15,0,0,0,15-9.33q5.91-5.61,5.91-16.6,0-10.16-8.61-17.53t-25.21-11.31q-17.42-4.14-36.82-7.78a280.1,280.1,0,0,1-36.41-9.23q-39-12.64-56.12-34.33t-17.11-53.84q0-43.14,38.69-70.43T2024.89,168a308.72,308.72,0,0,1,60.26,5.91q29.78,5.91,51.56,14.83v71.16h-8.51q-18.67-14.94-45.74-25a157.73,157.73,0,0,0-55.29-10.06,145.65,145.65,0,0,0-19.81,1.35,77.78,77.78,0,0,0-19,5.08,36.35,36.35,0,0,0-13.9,9.44,20.76,20.76,0,0,0-5.81,14.42q0,12.24,9.34,18.78t35.27,11.92q17,3.54,32.67,6.85a343.14,343.14,0,0,1,33.72,9.13q35.48,11.63,52.38,31.64T2149,385.41Z" transform="translate(0.36 0.39)"/></g></g></g><g id="_30_Aﾃ前S" data-name=" 30 Aﾃ前S" class="cls-1"><g class="cls-2"><path class="cls-3" d="M95.68,69.9a17.59,17.59,0,0,1,4.2,5.27,17.52,17.52,0,0,1,1.56,8,25.07,25.07,0,0,1-2.23,10.54,21.85,21.85,0,0,1-6.86,8.39,33.08,33.08,0,0,1-10.62,5.19,53,53,0,0,1-14.82,1.8,80.93,80.93,0,0,1-17.08-1.56,64.62,64.62,0,0,1-11.59-3.49V86.47h2.1a51.65,51.65,0,0,0,11,4.84,39.16,39.16,0,0,0,11.75,2,49.35,49.35,0,0,0,6.78-.51,14.36,14.36,0,0,0,6.19-2.23,10.77,10.77,0,0,0,3.17-3.25,10.56,10.56,0,0,0,1.18-5.52,8.1,8.1,0,0,0-1.61-5.4,8.83,8.83,0,0,0-4.25-2.72,22.16,22.16,0,0,0-6.35-.94c-2.47,0-4.77-.08-6.88-.08H57V58.39h4.57q4.2,0,7.42-.27a17.66,17.66,0,0,0,5.49-1.23A8.09,8.09,0,0,0,78,54.17a8.67,8.67,0,0,0,1.18-5,5.88,5.88,0,0,0-1.23-3.9A8.73,8.73,0,0,0,74.82,43a15.86,15.86,0,0,0-4.95-1.29,43.6,43.6,0,0,0-4.9-.33,39.06,39.06,0,0,0-11,1.75,50.85,50.85,0,0,0-11.46,5h-2V30.75a76.73,76.73,0,0,1,12-3.42,72.72,72.72,0,0,1,15.38-1.64A59.38,59.38,0,0,1,81.22,27a33.14,33.14,0,0,1,9.41,3.52,17.86,17.86,0,0,1,6.56,6.4,17.52,17.52,0,0,1,2.15,8.82A18.73,18.73,0,0,1,95.2,57.67a18.34,18.34,0,0,1-10.92,6.69v.76a27.84,27.84,0,0,1,5.81,1.5A18.56,18.56,0,0,1,95.68,69.9Z" transform="translate(0.36 0.39)"/><path class="cls-3" d="M203.34,67.35a81.5,81.5,0,0,1-1.83,18.11,34,34,0,0,1-5.7,13.1,24.84,24.84,0,0,1-10.22,7.89q-6.24,2.67-15.38,2.66a39.09,39.09,0,0,1-15.33-2.69,24.43,24.43,0,0,1-10.27-8,34,34,0,0,1-5.76-13.11,81.85,81.85,0,0,1-1.77-17.95,79.22,79.22,0,0,1,1.83-18.14,34.89,34.89,0,0,1,5.81-13A24.34,24.34,0,0,1,155,28.33a39.4,39.4,0,0,1,15.17-2.64,38.74,38.74,0,0,1,15.44,2.72,24.8,24.8,0,0,1,10.22,8.1,34.64,34.64,0,0,1,5.7,13A80.36,80.36,0,0,1,203.34,67.35Zm-20.81,0q0-14.53-2.85-20.7t-9.47-6.17q-6.61,0-9.47,6.17t-2.85,20.81q0,14.27,2.91,20.56t9.41,6.3q6.51,0,9.41-6.3T182.53,67.35Z" transform="translate(0.36 0.39)"/><path class="cls-3" d="M375.31,107.45H354L348.4,91.26H318.76l-5.58,16.19H292.37L322,27.36h23.78ZM343.43,76.57l-9.85-28.69-9.85,28.69Z" transform="translate(0.36 0.39)"/><path class="cls-3" d="M481.68,107.45H461.77l-34-55v55H408.85V27.36h24.69l29.2,45.88V27.36h18.94ZM469.14.36q-.54,9.09-4.43,13.47t-10.9,4.39a12,12,0,0,1-4.81-1,36.83,36.83,0,0,1-4.17-2.12c-1.11-.69-2.34-1.38-3.68-2.08a7.84,7.84,0,0,0-3.36-1c-1.76,0-2.94.57-3.53,1.72a12.22,12.22,0,0,0-1.05,4.84H421.43q.33-8.13,4.5-13A13.55,13.55,0,0,1,436.71.73a12.79,12.79,0,0,1,4.89,1,31.1,31.1,0,0,1,4.25,2.07c1.33.71,2.57,1.39,3.71,2a6.71,6.71,0,0,0,3.18,1A3.72,3.72,0,0,0,456.29,5,10.25,10.25,0,0,0,457.36.36Z" transform="translate(0.36 0.39)"/><path class="cls-3" d="M602,67.43q0,19.16-11,30.42t-30.33,11.26q-19.31,0-30.28-11.26t-11-30.42q0-19.31,11-30.52t30.28-11.22Q580,25.69,591,36.91T602,67.43ZM574.65,87.71a23.81,23.81,0,0,0,4.46-8.64,41.8,41.8,0,0,0,1.46-11.69,39.51,39.51,0,0,0-1.67-12.27,23.8,23.8,0,0,0-4.36-8.17,16.32,16.32,0,0,0-6.32-4.68,20.1,20.1,0,0,0-14.84-.06A17.43,17.43,0,0,0,547,46.83a22.85,22.85,0,0,0-4.38,8.31,40.39,40.39,0,0,0-1.69,12.29,39.35,39.35,0,0,0,1.64,12.18,23.79,23.79,0,0,0,4.33,8.2,16.46,16.46,0,0,0,6.29,4.68,19.69,19.69,0,0,0,15.17,0A16.68,16.68,0,0,0,574.65,87.71Z" transform="translate(0.36 0.39)"/><path class="cls-3" d="M703.93,82.27q0,11.83-10,19.23t-27.24,7.4a75.79,75.79,0,0,1-17.35-1.75,88.06,88.06,0,0,1-13.85-4.44V83.51h2.26a47.57,47.57,0,0,0,14.33,7.85,46.63,46.63,0,0,0,15.25,2.75,48.27,48.27,0,0,0,5-.33,19.67,19.67,0,0,0,5-1.07,12.46,12.46,0,0,0,3.9-2.42,5.66,5.66,0,0,0,1.54-4.3,5.81,5.81,0,0,0-2.24-4.55,15.51,15.51,0,0,0-6.53-2.93c-3-.72-6.2-1.39-9.55-2a71.89,71.89,0,0,1-9.44-2.39q-10.11-3.28-14.55-8.9a21.83,21.83,0,0,1-4.44-14q0-11.19,10-18.26t25.79-7.07a80.08,80.08,0,0,1,15.62,1.53,72.28,72.28,0,0,1,13.37,3.85V49.73h-2.21a42.68,42.68,0,0,0-11.86-6.48,40.83,40.83,0,0,0-14.33-2.61,38.37,38.37,0,0,0-5.14.35,20.8,20.8,0,0,0-4.92,1.32,9.43,9.43,0,0,0-3.6,2.45,5.35,5.35,0,0,0-1.51,3.74,5.58,5.58,0,0,0,2.42,4.86q2.42,1.7,9.14,3.1l8.48,1.77c2.7.58,5.62,1.37,8.74,2.37q9.19,3,13.58,8.2T703.93,82.27Z" transform="translate(0.36 0.39)"/></g></g><rect class="cls-4" y="129.61" width="2196.36" height="387.9"/><g id="Grupo_810-2" data-name="Grupo 810"><g id="UNIDOS-2" data-name="UNIDOS" class="cls-2"><g class="cls-2"><path class="cls-5" d="M309.18,370.68q0,57.26-34.85,87.75t-102.69,30.5q-67.84,0-102.59-30.5T34.3,370.88V173.59h80.08V366.32q0,32.16,13.48,47.92T171.64,430q29.87,0,43.67-15.15t13.79-48.54V173.59h80.08Z" transform="translate(0.36 0.39)"/><path class="cls-5" d="M707.05,482.5H630.29l-131.11-212v212h-73V173.59h95.23L634,350.55v-177h73Z" transform="translate(0.36 0.39)"/><path class="cls-5" d="M995.38,482.5H814.48V427.73H865.1V228.36H814.48V173.59h180.9v54.77H944.76V427.73h50.62Z" transform="translate(0.36 0.39)"/><path class="cls-5" d="M1394.7,328.35q0,43.15-19.71,77.28T1325.2,458a152.5,152.5,0,0,1-49.58,19.08q-27,5.4-63.9,5.4H1102.81V173.59h112q37.76,0,65.15,6.33t46,17.94a140.23,140.23,0,0,1,50.31,52.59Q1394.7,283.54,1394.7,328.35Zm-82.36-.62q0-30.5-11.1-52.17t-35.16-33.92a91.47,91.47,0,0,0-25-8.2q-12.76-2.17-38.49-2.18h-20.12V424.62h20.12q28.42,0,41.7-2.6a90.93,90.93,0,0,0,25.94-9.44q21.78-12.45,31.94-33.29T1312.34,327.73Z" transform="translate(0.36 0.39)"/><path class="cls-5" d="M1798.38,328.15q0,73.86-42.32,117.32t-117,43.46q-74.47,0-116.8-43.46t-42.32-117.32q0-74.47,42.32-117.74t116.8-43.25q74.27,0,116.8,43.25T1798.38,328.15Zm-105.6,78.21a92.19,92.19,0,0,0,17.22-33.3q5.61-19.19,5.6-45.12,0-27.79-6.43-47.3t-16.8-31.54a63.1,63.1,0,0,0-24.38-18,77.27,77.27,0,0,0-57.26-.2q-13.38,5.4-24.58,17.84-10.38,11.63-16.91,32.05t-6.53,47.41q0,27.59,6.32,47t16.7,31.63A63.76,63.76,0,0,0,1610,424.82a74.92,74.92,0,0,0,29.25,5.81,74,74,0,0,0,29.25-5.91A64,64,0,0,0,1692.78,406.36Z" transform="translate(0.36 0.39)"/><path class="cls-5" d="M2149,385.41q0,45.63-38.69,74.16T2005.18,488.1q-38.39,0-66.91-6.74a345.11,345.11,0,0,1-53.42-17.12V390.18h8.71a184.71,184.71,0,0,0,55.29,30.29q30.6,10.57,58.82,10.58a190.88,190.88,0,0,0,19.08-1.25q11.84-1.24,19.3-4.15a48.15,48.15,0,0,0,15-9.33q5.91-5.61,5.91-16.6,0-10.16-8.61-17.53t-25.21-11.31q-17.42-4.14-36.82-7.78a280.1,280.1,0,0,1-36.41-9.23q-39-12.64-56.12-34.33t-17.11-53.84q0-43.14,38.69-70.43T2024.89,168a308.72,308.72,0,0,1,60.26,5.91q29.78,5.91,51.56,14.83v71.16h-8.51q-18.67-14.94-45.74-25a157.73,157.73,0,0,0-55.29-10.06,145.65,145.65,0,0,0-19.81,1.35,77.78,77.78,0,0,0-19,5.08,36.35,36.35,0,0,0-13.9,9.44,20.76,20.76,0,0,0-5.81,14.42q0,12.24,9.34,18.78t35.27,11.92q17,3.54,32.67,6.85a343.14,343.14,0,0,1,33.72,9.13q35.48,11.63,52.38,31.64T2149,385.41Z" transform="translate(0.36 0.39)"/></g></g></g><g id="_30_Aﾃ前S-2" data-name=" 30 Aﾃ前S"><g class="cls-2"><path class="cls-6" d="M95.68,69.9a17.59,17.59,0,0,1,4.2,5.27,17.52,17.52,0,0,1,1.56,8,25.07,25.07,0,0,1-2.23,10.54,21.85,21.85,0,0,1-6.86,8.39,33.08,33.08,0,0,1-10.62,5.19,53,53,0,0,1-14.82,1.8,80.93,80.93,0,0,1-17.08-1.56,64.62,64.62,0,0,1-11.59-3.49V86.47h2.1a51.65,51.65,0,0,0,11,4.84,39.16,39.16,0,0,0,11.75,2,49.35,49.35,0,0,0,6.78-.51,14.36,14.36,0,0,0,6.19-2.23,10.77,10.77,0,0,0,3.17-3.25,10.56,10.56,0,0,0,1.18-5.52,8.1,8.1,0,0,0-1.61-5.4,8.83,8.83,0,0,0-4.25-2.72,22.16,22.16,0,0,0-6.35-.94c-2.47,0-4.77-.08-6.88-.08H57V58.39h4.57q4.2,0,7.42-.27a17.66,17.66,0,0,0,5.49-1.23A8.09,8.09,0,0,0,78,54.17a8.67,8.67,0,0,0,1.18-5,5.88,5.88,0,0,0-1.23-3.9A8.73,8.73,0,0,0,74.82,43a15.86,15.86,0,0,0-4.95-1.29,43.6,43.6,0,0,0-4.9-.33,39.06,39.06,0,0,0-11,1.75,50.85,50.85,0,0,0-11.46,5h-2V30.75a76.73,76.73,0,0,1,12-3.42,72.72,72.72,0,0,1,15.38-1.64A59.38,59.38,0,0,1,81.22,27a33.14,33.14,0,0,1,9.41,3.52,17.86,17.86,0,0,1,6.56,6.4,17.52,17.52,0,0,1,2.15,8.82A18.73,18.73,0,0,1,95.2,57.67a18.34,18.34,0,0,1-10.92,6.69v.76a27.84,27.84,0,0,1,5.81,1.5A18.56,18.56,0,0,1,95.68,69.9Z" transform="translate(0.36 0.39)"/><path class="cls-6" d="M203.34,67.35a81.5,81.5,0,0,1-1.83,18.11,34,34,0,0,1-5.7,13.1,24.84,24.84,0,0,1-10.22,7.89q-6.24,2.67-15.38,2.66a39.09,39.09,0,0,1-15.33-2.69,24.43,24.43,0,0,1-10.27-8,34,34,0,0,1-5.76-13.11,81.85,81.85,0,0,1-1.77-17.95,79.22,79.22,0,0,1,1.83-18.14,34.89,34.89,0,0,1,5.81-13A24.34,24.34,0,0,1,155,28.33a39.4,39.4,0,0,1,15.17-2.64,38.74,38.74,0,0,1,15.44,2.72,24.8,24.8,0,0,1,10.22,8.1,34.64,34.64,0,0,1,5.7,13A80.36,80.36,0,0,1,203.34,67.35Zm-20.81,0q0-14.53-2.85-20.7t-9.47-6.17q-6.61,0-9.47,6.17t-2.85,20.81q0,14.27,2.91,20.56t9.41,6.3q6.51,0,9.41-6.3T182.53,67.35Z" transform="translate(0.36 0.39)"/><path class="cls-6" d="M375.31,107.45H354L348.4,91.26H318.76l-5.58,16.19H292.37L322,27.36h23.78ZM343.43,76.57l-9.85-28.69-9.85,28.69Z" transform="translate(0.36 0.39)"/><path class="cls-6" d="M481.68,107.45H461.77l-34-55v55H408.85V27.36h24.69l29.2,45.88V27.36h18.94ZM469.14.36q-.54,9.09-4.43,13.47t-10.9,4.39a12,12,0,0,1-4.81-1,36.83,36.83,0,0,1-4.17-2.12c-1.11-.69-2.34-1.38-3.68-2.08a7.84,7.84,0,0,0-3.36-1c-1.76,0-2.94.57-3.53,1.72a12.22,12.22,0,0,0-1.05,4.84H421.43q.33-8.13,4.5-13A13.55,13.55,0,0,1,436.71.73a12.79,12.79,0,0,1,4.89,1,31.1,31.1,0,0,1,4.25,2.07c1.33.71,2.57,1.39,3.71,2a6.71,6.71,0,0,0,3.18,1A3.72,3.72,0,0,0,456.29,5,10.25,10.25,0,0,0,457.36.36Z" transform="translate(0.36 0.39)"/><path class="cls-6" d="M602,67.43q0,19.16-11,30.42t-30.33,11.26q-19.31,0-30.28-11.26t-11-30.42q0-19.31,11-30.52t30.28-11.22Q580,25.69,591,36.91T602,67.43ZM574.65,87.71a23.81,23.81,0,0,0,4.46-8.64,41.8,41.8,0,0,0,1.46-11.69,39.51,39.51,0,0,0-1.67-12.27,23.8,23.8,0,0,0-4.36-8.17,16.32,16.32,0,0,0-6.32-4.68,20.1,20.1,0,0,0-14.84-.06A17.43,17.43,0,0,0,547,46.83a22.85,22.85,0,0,0-4.38,8.31,40.39,40.39,0,0,0-1.69,12.29,39.35,39.35,0,0,0,1.64,12.18,23.79,23.79,0,0,0,4.33,8.2,16.46,16.46,0,0,0,6.29,4.68,19.69,19.69,0,0,0,15.17,0A16.68,16.68,0,0,0,574.65,87.71Z" transform="translate(0.36 0.39)"/><path class="cls-6" d="M703.93,82.27q0,11.83-10,19.23t-27.24,7.4a75.79,75.79,0,0,1-17.35-1.75,88.06,88.06,0,0,1-13.85-4.44V83.51h2.26a47.57,47.57,0,0,0,14.33,7.85,46.63,46.63,0,0,0,15.25,2.75,48.27,48.27,0,0,0,5-.33,19.67,19.67,0,0,0,5-1.07,12.46,12.46,0,0,0,3.9-2.42,5.66,5.66,0,0,0,1.54-4.3,5.81,5.81,0,0,0-2.24-4.55,15.51,15.51,0,0,0-6.53-2.93c-3-.72-6.2-1.39-9.55-2a71.89,71.89,0,0,1-9.44-2.39q-10.11-3.28-14.55-8.9a21.83,21.83,0,0,1-4.44-14q0-11.19,10-18.26t25.79-7.07a80.08,80.08,0,0,1,15.62,1.53,72.28,72.28,0,0,1,13.37,3.85V49.73h-2.21a42.68,42.68,0,0,0-11.86-6.48,40.83,40.83,0,0,0-14.33-2.61,38.37,38.37,0,0,0-5.14.35,20.8,20.8,0,0,0-4.92,1.32,9.43,9.43,0,0,0-3.6,2.45,5.35,5.35,0,0,0-1.51,3.74,5.58,5.58,0,0,0,2.42,4.86q2.42,1.7,9.14,3.1l8.48,1.77c2.7.58,5.62,1.37,8.74,2.37q9.19,3,13.58,8.2T703.93,82.27Z" transform="translate(0.36 0.39)"/></g></g></svg>