<?xml version="1.0" encoding="utf-8"?>
<!-- Generator: Adobe Illustrator 25.2.1, SVG Export Plug-In . SVG Version: 6.00 Build 0)  -->
<svg version="1.1" id="Capa_1" xmlns="http://www.w3.org/2000/svg" xmlns:xlink="http://www.w3.org/1999/xlink" x="0px" y="0px"
	 viewBox="0 0 2196.4 516.8" style="enable-background:new 0 0 2196.4 516.8;" xml:space="preserve">
<style type="text/css">
	.st0{fill:#FFFFFF;}
	.st1{fill:none;}
</style>
<g>
	<path class="st0" d="M96,75.5c1.7,1.5,3.2,3.3,4.2,5.3c1.1,2.5,1.7,5.2,1.6,8c0,3.6-0.7,7.2-2.2,10.5s-3.9,6.2-6.9,8.4
		c-3.2,2.4-6.8,4.1-10.6,5.2c-4.8,1.3-9.8,1.9-14.8,1.8c-5.7,0.1-11.5-0.4-17.1-1.6c-4-0.8-7.8-2-11.6-3.5V92.1h2.1
		c3.5,2,7.2,3.7,11,4.8c3.8,1.3,7.8,1.9,11.8,2c2.3,0,4.5-0.2,6.8-0.5c2.2-0.3,4.3-1,6.2-2.2c1.3-0.8,2.4-2,3.2-3.2
		c0.9-1.7,1.3-3.6,1.2-5.5c0.1-1.9-0.4-3.9-1.6-5.4c-1.1-1.3-2.6-2.2-4.2-2.7c-2.1-0.6-4.2-0.9-6.3-0.9c-2.5,0-4.8-0.1-6.9-0.1h-4.3
		V64h4.6c2.8,0,5.3-0.1,7.4-0.3c1.9-0.1,3.7-0.5,5.5-1.2c1.4-0.6,2.6-1.5,3.5-2.7c0.9-1.5,1.3-3.3,1.2-5c0.1-1.4-0.4-2.8-1.2-3.9
		c-0.9-1-1.9-1.8-3.1-2.3c-1.6-0.7-3.2-1.1-4.9-1.3c-2-0.2-3.6-0.3-5.3-0.3c-3.7,0.1-7.4,0.6-11,1.8c-4,1.2-7.9,2.9-11.5,5h-2V36.4
		c3.9-1.5,7.9-2.6,12-3.4c5.1-1.1,10.2-1.6,15.4-1.6c4.5-0.1,9,0.4,13.3,1.3c3.3,0.7,6.5,1.9,9.4,3.5c2.7,1.5,5,3.7,6.6,6.4
		c1.5,2.7,2.2,5.7,2.2,8.8c0,4.3-1.4,8.6-4.1,11.9c-2.7,3.5-6.6,5.8-10.9,6.7v0.8c2,0.3,3.9,0.8,5.8,1.5C92.5,73,94.4,74.1,96,75.5z
		"/>
	<path class="st0" d="M203.7,73c0.1,6.1-0.5,12.2-1.8,18.1c-1,4.7-2.9,9.2-5.7,13.1c-2.7,3.5-6.2,6.2-10.2,7.9
		c-4.2,1.8-9.3,2.7-15.4,2.7c-5.2,0.1-10.5-0.8-15.3-2.7c-4.1-1.7-7.6-4.5-10.3-8c-2.8-3.9-4.8-8.4-5.8-13.1
		c-1.2-5.9-1.8-11.9-1.8-17.9c-0.1-6.1,0.5-12.2,1.8-18.1c1-4.7,3-9.1,5.8-13c2.7-3.5,6.2-6.2,10.3-7.9c4.8-1.9,10-2.8,15.2-2.6
		c5.3-0.2,10.5,0.8,15.4,2.7c4.1,1.7,7.6,4.5,10.2,8.1c2.8,3.9,4.7,8.3,5.7,13C203.2,61,203.8,67,203.7,73z M182.9,73
		c0-9.7-0.9-16.6-2.9-20.7s-5.1-6.2-9.5-6.2s-7.6,2.1-9.5,6.2s-2.9,11-2.9,20.8c0,9.5,1,16.4,2.9,20.6s5.1,6.3,9.4,6.3
		c4.3,0,7.5-2.1,9.4-6.3S182.9,82.6,182.9,73z"/>
	<path class="st0" d="M375.7,113.1h-21.3l-5.6-16.2h-29.6l-5.6,16.2h-20.8L322.4,33h23.8L375.7,113.1z M343.8,82.2l-9.9-28.7
		L324,82.2H343.8z"/>
	<path class="st0" d="M482,113.1h-19.9l-34-55v55h-18.9V33h24.7l29.2,45.9V33H482V113.1z M469.5,6c-0.4,6.1-1.8,10.5-4.4,13.5
		s-6.2,4.4-10.9,4.4c-1.7,0-3.3-0.3-4.8-1c-1.4-0.6-2.8-1.3-4.2-2.1c-1.1-0.7-2.3-1.4-3.7-2.1c-1-0.6-2.2-0.9-3.4-1
		c-1.8,0-2.9,0.6-3.5,1.7c-0.7,1.5-1,3.2-1,4.8h-11.8c0.2-5.4,1.7-9.8,4.5-13c2.7-3.2,6.6-5,10.8-4.9c1.7,0,3.3,0.3,4.9,1
		c1.5,0.6,2.9,1.3,4.2,2.1c1.3,0.7,2.6,1.4,3.7,2c1,0.6,2.1,0.9,3.2,1c1.4,0.1,2.8-0.6,3.6-1.8c0.7-1.4,1.1-3,1.1-4.6
		C457.8,6,469.5,6,469.5,6z"/>
	<path class="st0" d="M602.4,73.1c0,12.8-3.7,22.9-11,30.4s-17.4,11.3-30.3,11.3c-12.9,0-23-3.8-30.3-11.3s-11-17.6-11-30.4
		c0-12.9,3.7-23,11-30.5s17.4-11.2,30.3-11.2c12.9,0,23,3.7,30.3,11.2S602.4,60.2,602.4,73.1z M575,93.3c2.1-2.5,3.6-5.5,4.5-8.6
		c1-3.8,1.5-7.7,1.5-11.7c0.1-4.2-0.5-8.3-1.7-12.3c-0.9-3-2.4-5.8-4.4-8.2c-1.7-2.1-3.9-3.7-6.3-4.7c-4.8-1.9-10.1-1.9-14.8-0.1
		c-2.5,1-4.6,2.6-6.4,4.6c-2,2.4-3.5,5.3-4.4,8.3c-1.2,4-1.8,8.1-1.7,12.3c-0.1,4.1,0.5,8.2,1.6,12.2c0.9,3,2.4,5.8,4.3,8.2
		c1.7,2,3.8,3.6,6.3,4.7c4.9,2,10.3,2,15.2,0C571.2,97.1,573.3,95.4,575,93.3z"/>
	<path class="st0" d="M704.3,87.9c0,7.9-3.3,14.3-10,19.2s-15.7,7.4-27.2,7.4c-5.8,0.1-11.7-0.5-17.3-1.8c-4.7-1.1-9.4-2.6-13.8-4.4
		V89.2h2.3c4.3,3.4,9.1,6.1,14.3,7.8c4.9,1.8,10,2.7,15.2,2.8c1.7,0,3.3-0.1,5-0.3c1.7-0.1,3.4-0.5,5-1.1c1.4-0.6,2.8-1.4,3.9-2.4
		c1.1-1.2,1.7-2.7,1.5-4.3c0-1.8-0.8-3.5-2.2-4.6c-1.9-1.5-4.2-2.5-6.5-2.9c-3-0.7-6.2-1.4-9.5-2c-3.2-0.6-6.4-1.4-9.4-2.4
		c-6.7-2.2-11.6-5.2-14.5-8.9c-3.1-4-4.6-9-4.4-14c0-7.5,3.3-13.5,10-18.3c6.7-4.7,15.3-7.1,25.8-7.1c5.2,0,10.5,0.5,15.6,1.5
		c4.6,0.9,9,2.1,13.4,3.8v18.5H699c-3.6-2.8-7.6-5-11.9-6.5c-4.6-1.7-9.4-2.6-14.3-2.6c-1.7,0-3.4,0.1-5.1,0.3
		c-1.7,0.2-3.3,0.7-4.9,1.3c-1.4,0.5-2.6,1.4-3.6,2.5c-1,1-1.5,2.3-1.5,3.7c-0.1,1.9,0.8,3.8,2.4,4.9c1.6,1.1,4.7,2.2,9.1,3.1
		l8.5,1.8c2.7,0.6,5.6,1.4,8.7,2.4c6.1,2,10.7,4.7,13.6,8.2C702.9,77.9,704.3,82.4,704.3,87.9z"/>
</g>
<rect y="134.9" class="st1" width="2196.4" height="387.9"/>
<g id="Grupo_810">
	<g id="UNIDOS">
		<g>
			<path class="st0" d="M171.9,497.1c-45.6,0-80.6-10.5-104.2-31.1c-23.6-20.6-35.6-50.7-35.6-89.4V176.7h85.1V372
				c0,20.7,4.3,36.3,12.9,46.3c8.5,9.9,22.6,14.9,41.9,14.9c19.1,0,33.1-4.8,41.9-14.3c8.7-9.6,13.1-25.3,13.1-46.8V176.7h85.1
				v202.1H312c-0.5,37.5-12.5,66.9-35.7,87.2C252.6,486.6,217.5,497.1,171.9,497.1z M37.1,181.7v194.9c0,37.2,11.4,66,33.8,85.6
				c22.7,19.8,56.6,29.9,101,29.9c44.4,0,78.4-10.1,101.1-29.9c22.6-19.8,34-48.7,34-85.9v-2.5h0.1V181.7H232v190.4
				c0,22.8-4.9,39.7-14.5,50.2c-9.7,10.6-25,15.9-45.5,15.9c-20.8,0-36.2-5.6-45.7-16.7c-9.4-10.9-14.1-27.6-14.1-49.5V181.7H37.1z"
				/>
			<path class="st0" d="M709.9,490.6h-80.7L502,284.9v205.7h-78V176.7h99.1l108.7,170.9V176.7h78L709.9,490.6z M632,485.6h72.9
				l-0.1-303.9h-68v183.1L520.3,181.7H429v303.9h68V267.3L632,485.6z"/>
			<path class="st0" d="M998.2,490.6H812.3v-59.8h50.6V236.5h-50.6v-59.8h185.9v59.8h-50.6v194.4h50.6V490.6z M817.3,485.6h175.9
				v-49.7h-50.6V231.5h50.6v-49.8H817.3v49.8h50.6v204.3h-50.6V485.6z"/>
			<path class="st0" d="M1212.1,490.7h-111.4v-314h114.5c25.2,0,47.4,2.1,65.8,6.4c18.3,4.2,34.1,10.3,46.8,18.2
				c21.5,13.1,39.2,31.6,51.2,53.5c12.4,22.6,18.7,49.2,18.7,79.2c0,29-6.7,55.4-20,78.5c-13.2,23-30.2,40.9-50.7,53.3
				c-15.7,9.4-32.6,16-50.4,19.4C1258.4,488.9,1236.8,490.7,1212.1,490.7z M1105.7,485.7h106.4c24.3,0,45.7-1.8,63.4-5.4
				c17.2-3.3,33.6-9.7,48.8-18.8c19.7-12,36.2-29.3,48.9-51.5c12.9-22.4,19.4-48,19.4-76.1c0-29.1-6.1-55-18.1-76.8
				c-11.5-21.2-28.6-39-49.4-51.7c-12.2-7.6-27.5-13.5-45.3-17.6c-18-4.1-39.8-6.2-64.6-6.2h-109.5V485.7z M1202.9,432.8h-22.6
				V234.4h22.6c16.8,0,29.9,0.8,38.9,2.2c8.8,1.5,17.5,4.4,25.7,8.4c16.5,8.3,28.7,20.1,36.3,35c7.5,14.8,11.4,32.7,11.4,53.3
				c0,21-3.5,38.3-10.6,52.7c-6.9,14.2-17.9,25.8-32.9,34.4c-8.5,4.6-17.4,7.9-26.7,9.7C1235.9,431.9,1221.7,432.8,1202.9,432.8z
				 M1185.3,427.8h17.6c18.5,0,32.4-0.9,41.2-2.6c8.7-1.7,17.2-4.8,25.2-9.1c14-8,24.4-18.9,30.8-32.2c6.8-13.7,10.1-30.2,10.1-50.5
				c0-19.8-3.6-37-10.8-51.1c-7.1-14-18.6-25-34.1-32.8c-7.8-3.9-16-6.5-24.3-8c-8.7-1.4-21.5-2.2-38.1-2.2h-17.6V427.8z"/>
			<path class="st0" d="M1639.4,497.1c-50.1,0-90-14.9-118.6-44.3c-28.5-29.3-43-69.4-43-119c0-50.1,14.5-90.3,43-119.4
				c28.6-29.2,68.3-44,118.1-44c0.2,0,0.3,0,0.5,0c49.9,0,89.8,14.8,118.6,43.9c28.7,29.1,43.2,69.3,43.2,119.5
				c0,49.6-14.5,89.7-43,119C1729.6,482.2,1689.7,497.1,1639.4,497.1z M1638.9,175.4c-48.4,0-86.9,14.3-114.5,42.4
				c-27.6,28.2-41.6,67.2-41.6,116c0,48.3,14,87.2,41.6,115.6c27.6,28.4,66.3,42.7,115,42.7c48.9,0,87.6-14.4,115.2-42.7
				c27.6-28.4,41.6-67.3,41.6-115.6c0-48.8-14.1-87.8-41.8-115.9c-27.8-28.2-66.5-42.5-115-42.5
				C1639.2,175.4,1639.1,175.4,1638.9,175.4z M1638.7,438.8c-10,0-19.9-2-29.4-6c-9.9-4.2-18.7-10.7-25.3-18.7
				c-7.1-8.3-12.8-19.2-17.1-32.4c-4.3-13.1-6.4-29.2-6.4-47.8c0-18.4,2.2-34.6,6.6-48.2c4.3-13.7,10.2-24.8,17.4-33
				c7.7-8.5,16.3-14.7,25.5-18.5c19.1-7.6,40.1-7.5,59.2,0.2c9.9,4.1,18.6,10.5,25.4,18.7c7,8.2,12.9,19.1,17.2,32.3
				c4.3,13.1,6.5,29.3,6.5,48.1c0,17.3-1.9,32.7-5.7,45.8c-3.5,12.6-9.5,24.1-17.7,34.2c-6.8,8.4-15.4,14.9-25.4,19.1
				c-9.6,4-19.7,6.1-30.2,6.1C1639.2,438.8,1639,438.8,1638.7,438.8z M1639.4,233.7c-9.3,0-18.6,1.8-27.4,5.3
				c-8.5,3.5-16.5,9.2-23.7,17.2c-6.8,7.7-12.3,18.1-16.4,31.2c-4.2,13.1-6.4,28.8-6.4,46.7c0,18.1,2.1,33.6,6.2,46.2
				c4.1,12.6,9.6,22.9,16.2,30.8c6.1,7.4,14.2,13.4,23.4,17.3c9.1,3.8,18.6,5.7,28.2,5.6c9.8,0,19.3-1.9,28.2-5.7
				c9.2-3.9,17.1-9.9,23.4-17.7l0,0c7.8-9.5,13.4-20.4,16.7-32.4c3.7-12.7,5.5-27.6,5.5-44.4c0-18.3-2.1-33.9-6.3-46.5
				c-4.2-12.6-9.7-22.9-16.3-30.7c-6.3-7.6-14.4-13.6-23.5-17.3C1658.3,235.5,1648.8,233.7,1639.4,233.7z"/>
			<path class="st0" d="M2005.6,496.3c-25.8,0-48.5-2.3-67.5-6.8c-17.9-4.1-36-9.9-53.8-17.2l-1.6-0.6v-78.3h12.1l0.7,0.5
				c16.3,13,34.7,23,54.6,29.9c20.2,6.9,39.7,10.5,58,10.5c6.3-0.1,12.4-0.5,18.8-1.2c7.5-0.8,13.8-2.1,18.7-4
				c5.3-2.1,10.1-5.1,14.2-8.8c3.4-3.2,5.1-8.2,5.1-14.8c0-6-2.5-11.1-7.7-15.6c-5.4-4.7-13.5-8.3-24.1-10.8
				c-11.4-2.8-23.7-5.4-36.7-7.8c-13-2.4-25.3-5.5-36.7-9.3c-26.3-8.5-45.6-20.3-57.3-35.1c-11.7-14.8-17.6-33.4-17.6-55.4
				c0-29.5,13.4-53.8,39.8-72.4c26.1-18.4,60.1-27.8,100.9-27.8c20.2,0,40.6,2,60.8,5.9c19.5,3.8,37,8.8,52.1,14.9l1.6,0.6v75.4
				h-11.9l-0.7-0.6c-12-9.7-27.1-18-45-24.6c-17.4-6.5-35.7-9.8-54.4-9.9c-7,0-13.3,0.4-19.4,1.4c-6.4,0.9-12.6,2.5-18.4,4.9
				c-4.9,1.9-9.4,4.9-13,8.8c-3.3,3.5-5.1,8-5.1,12.7c0,7.3,2.7,12.8,8.2,16.8c5.7,4.1,17.3,7.9,34.4,11.5c4.4,0.9,8.7,1.8,13,2.7
				c6.8,1.4,13.3,2.8,19.7,4.2c11.6,2.6,23.1,5.6,33.9,9.2c24,7.9,42,18.8,53.5,32.4c11.5,13.6,17.2,31,17.3,53.3v0
				c0,31.1-13.4,56.7-39.7,76.2C2086.2,486.5,2050.3,496.3,2005.6,496.3z M1887.8,468.3c17,6.9,34.3,12.4,51.5,16.3
				c18.6,4.4,40.9,6.6,66.3,6.6c43.6,0,78.5-9.4,103.6-28c25-18.5,37.7-42.8,37.7-72.2c-0.1-21.1-5.4-37.5-16.1-50.1
				c-10.9-12.9-28.2-23.2-51.3-30.8c-10.7-3.5-22-6.5-33.5-9c-6.4-1.4-12.8-2.7-19.7-4.2c-4.3-0.9-8.6-1.8-13-2.7
				c-18-3.7-29.8-7.8-36.2-12.3c-6.9-4.9-10.4-11.9-10.4-20.8c0-6,2.3-11.7,6.5-16.1c4.1-4.4,9.3-7.9,14.8-10
				c6.2-2.5,12.8-4.3,19.5-5.2c6.3-1,12.9-1.4,20.1-1.4c19.3,0.1,38.2,3.6,56.2,10.3c18,6.7,33.4,15.1,45.7,24.8h5.1v-67
				c-14.4-5.7-31.1-10.4-49.6-14c-19.8-3.9-39.9-5.9-59.8-5.9c-39.8,0-72.8,9-98.1,26.8c-25.3,17.9-37.6,40.2-37.6,68.4
				c0,20.8,5.6,38.4,16.6,52.2c11.1,14,29.6,25.3,54.9,33.5c11.2,3.7,23.3,6.7,36.1,9.1c13,2.4,25.5,5.1,36.9,7.8
				c11.4,2.7,20.2,6.6,26.2,11.8c6.3,5.4,9.5,11.9,9.5,19.4c0,8-2.2,14.2-6.7,18.4c-4.6,4.1-9.9,7.4-15.8,9.8
				c-5.4,2-12.1,3.5-20,4.3c-6.5,0.7-12.9,1.1-19.3,1.2c-18.8,0-38.9-3.6-59.7-10.7c-20.1-7-38.8-17.1-55.4-30.2h-5.3V468.3z"/>
		</g>
	</g>
</g>
</svg>
