<?xml version="1.0" encoding="utf-8"?>
<!-- Generator: Adobe Illustrator 25.2.1, SVG Export Plug-In . SVG Version: 6.00 Build 0)  -->
<svg version="1.1" id="Capa_1" xmlns="http://www.w3.org/2000/svg" xmlns:xlink="http://www.w3.org/1999/xlink" x="0px" y="0px"
	 viewBox="0 0 2196.4 517.5" style="enable-background:new 0 0 2196.4 517.5;" xml:space="preserve">
<style type="text/css">
	.st0{opacity:0.35;}
	.st1{fill:#FFFFFF;}
	.st2{fill:none;}
	.st3{fill:#363636;}
	.st4{fill:none;stroke:#363636;stroke-width:3;}
</style>
<g id="Grupo_810" class="st0">
	<g id="UNIDOS">
		<g>
			<path class="st1" d="M309.5,377.1c0,38.2-11.6,67.4-34.9,87.8c-23.2,20.3-57.5,30.5-102.7,30.5s-79.4-10.2-102.6-30.5
				s-34.7-49.5-34.7-87.5V180h80.1v192.7c0,21.4,4.5,37.4,13.5,47.9s23.6,15.8,43.8,15.8c19.9,0,34.5-5.1,43.7-15.1
				c9.2-10.1,13.8-26.3,13.8-48.5V180h80.1v197.1H309.5z"/>
			<path class="st1" d="M707.4,488.9h-76.8l-131.1-212v212h-73V180h95.2l112.6,177V180h73L707.4,488.9z"/>
			<path class="st1" d="M995.7,488.9H814.8v-54.8h50.6V234.8h-50.6V180h180.9v54.8h-50.6v199.4h50.6L995.7,488.9L995.7,488.9z"/>
			<path class="st1" d="M1395.1,334.7c0,28.8-6.6,54.5-19.7,77.3s-29.7,40.2-49.8,52.4c-15.3,9.2-32.1,15.7-49.6,19.1
				c-18,3.6-39.3,5.4-63.9,5.4h-108.9V180h112c25.2,0,46.9,2.1,65.2,6.3s33.6,10.2,46,17.9c21.1,12.8,38.5,30.9,50.3,52.6
				C1388.9,278.9,1395.1,304.9,1395.1,334.7z M1312.7,334.1c0-20.3-3.7-37.7-11.1-52.2s-19.1-25.8-35.2-33.9
				c-7.9-3.9-16.3-6.7-25-8.2c-8.5-1.4-21.3-2.2-38.5-2.2h-20.1V431h20.1c18.9,0,32.8-0.9,41.7-2.6c9.1-1.8,17.8-5,25.9-9.4
				c14.5-8.3,25.2-19.4,31.9-33.3C1309.3,371.8,1312.7,354.6,1312.7,334.1z"/>
			<path class="st1" d="M1798.7,334.5c0,49.2-14.1,88.3-42.3,117.3s-67.2,43.5-117,43.5c-49.6,0-88.6-14.5-116.8-43.5
				c-28.2-29-42.3-68.1-42.3-117.3c0-49.6,14.1-88.9,42.3-117.7s67.1-43.3,116.8-43.2c49.5,0,88.4,14.4,116.8,43.2
				S1798.7,284.9,1798.7,334.5z M1693.1,412.8c8-9.8,13.8-21.1,17.2-33.3c3.7-12.8,5.6-27.8,5.6-45.1c0-18.5-2.1-34.3-6.4-47.3
				s-9.9-23.5-16.8-31.5c-6.5-7.9-14.9-14.1-24.4-18c-18.4-7.4-38.9-7.5-57.3-0.2c-8.9,3.6-17.1,9.5-24.6,17.8
				c-6.9,7.8-12.6,18.4-16.9,32.1c-4.4,13.6-6.5,29.4-6.5,47.4c0,18.4,2.1,34.1,6.3,47s9.8,23.5,16.7,31.6c6.5,7.9,14.9,14,24.3,18
				c9.3,3.9,19.2,5.9,29.2,5.8c10.1,0,20-2,29.2-5.9C1678.3,427,1686.6,420.7,1693.1,412.8z"/>
			<path class="st1" d="M2149.4,391.8c0,30.4-12.9,55.1-38.7,74.2s-60.8,28.5-105.1,28.5c-25.6,0-47.9-2.2-66.9-6.7
				c-18.2-4.2-36.1-10-53.4-17.1v-74.1h8.7c16.6,13.2,35.3,23.4,55.3,30.3c20.4,7,40,10.6,58.8,10.6c6.4-0.1,12.7-0.5,19.1-1.2
				c7.9-0.8,14.3-2.2,19.3-4.1c5.5-2.2,10.6-5.3,15-9.3c3.9-3.7,5.9-9.3,5.9-16.6c0-6.8-2.9-12.6-8.6-17.5
				c-5.7-4.9-14.1-8.7-25.2-11.3c-11.6-2.8-23.9-5.4-36.8-7.8c-12.3-2.3-24.5-5.3-36.4-9.2c-26-8.4-44.7-19.9-56.1-34.3
				s-17.1-32.4-17.1-53.8c0-28.8,12.9-52.2,38.7-70.4s59-27.3,99.5-27.3c20.2,0,40.4,2,60.3,5.9s37,8.9,51.6,14.8v71.2h-8.5
				c-12.4-10-27.7-18.3-45.7-25c-17.7-6.6-36.4-10-55.3-10.1c-6.6,0-13.2,0.4-19.8,1.4c-6.5,0.9-12.9,2.6-19,5.1
				c-5.3,2-10.1,5.3-13.9,9.4c-3.7,3.9-5.8,9-5.8,14.4c0,8.2,3.1,14.4,9.3,18.8s18,8.3,35.3,11.9c11.3,2.4,22.2,4.6,32.7,6.9
				c11.4,2.5,22.6,5.5,33.7,9.1c23.7,7.8,41.1,18.3,52.4,31.6S2149.3,370.5,2149.4,391.8z"/>
		</g>
	</g>
</g>
<g id="_30_AÑOS" class="st0">
	<g>
		<path class="st1" d="M96,76.3c1.7,1.5,3.2,3.3,4.2,5.3c1.1,2.5,1.7,5.2,1.6,8c0,3.6-0.7,7.2-2.2,10.5s-3.9,6.2-6.9,8.4
			c-3.2,2.4-6.8,4.1-10.6,5.2c-4.8,1.3-9.8,1.9-14.8,1.8c-5.7,0.1-11.5-0.4-17.1-1.6c-4-0.8-7.8-2-11.6-3.5V92.9h2.1
			c3.5,2,7.2,3.7,11,4.8c3.8,1.3,7.8,1.9,11.8,2c2.3,0,4.5-0.2,6.8-0.5c2.2-0.3,4.3-1,6.2-2.2c1.3-0.8,2.4-2,3.2-3.2
			c0.9-1.7,1.3-3.6,1.2-5.5c0.1-1.9-0.4-3.9-1.6-5.4c-1.1-1.3-2.6-2.2-4.2-2.7c-2.1-0.6-4.2-0.9-6.3-0.9c-2.5,0-4.8-0.1-6.9-0.1
			h-4.3V64.8h4.6c2.8,0,5.3-0.1,7.4-0.3c1.9-0.1,3.7-0.5,5.5-1.2c1.4-0.6,2.6-1.5,3.5-2.7c0.9-1.5,1.3-3.3,1.2-5
			c0.1-1.4-0.4-2.8-1.2-3.9c-0.9-1-1.9-1.8-3.1-2.3c-1.6-0.7-3.2-1.1-4.9-1.3c-1.6-0.2-3.3-0.3-4.9-0.3c-3.7,0.1-7.4,0.6-11,1.8
			c-4,1.2-7.9,2.9-11.5,5h-2V37.1c3.9-1.5,7.9-2.6,12-3.4c5.1-1.1,10.2-1.6,15.4-1.6c4.5-0.1,9,0.4,13.3,1.3
			c3.3,0.7,6.5,1.9,9.4,3.5c2.7,1.5,5,3.7,6.6,6.4c1.5,2.7,2.2,5.7,2.2,8.8c0,4.3-1.4,8.6-4.1,11.9c-2.7,3.5-6.6,5.8-10.9,6.7v0.8
			c2,0.3,3.9,0.8,5.8,1.5C92.5,73.8,94.4,74.9,96,76.3z"/>
		<path class="st1" d="M203.7,73.7c0.1,6.1-0.5,12.2-1.8,18.1c-1,4.7-2.9,9.2-5.7,13.1c-2.7,3.5-6.2,6.2-10.2,7.9
			c-4.2,1.8-9.3,2.7-15.4,2.7c-5.2,0.1-10.5-0.8-15.3-2.7c-4.1-1.7-7.6-4.5-10.3-8c-2.8-3.9-4.8-8.4-5.8-13.1
			c-1.2-5.9-1.8-11.9-1.8-17.9c-0.1-6.1,0.5-12.2,1.8-18.1c1-4.7,3-9.1,5.8-13c2.7-3.5,6.2-6.2,10.3-7.9c4.8-1.9,10-2.8,15.2-2.6
			c5.3-0.2,10.5,0.8,15.4,2.7c4.1,1.7,7.6,4.5,10.2,8.1c2.8,3.9,4.7,8.3,5.7,13C203.2,61.8,203.8,67.7,203.7,73.7z M182.9,73.7
			c0-9.7-0.9-16.6-2.9-20.7s-5.1-6.2-9.5-6.2s-7.6,2.1-9.5,6.2s-2.9,11.1-2.9,20.8c0,9.5,1,16.4,2.9,20.6s5.1,6.3,9.4,6.3
			c4.3,0,7.5-2.1,9.4-6.3S182.9,83.3,182.9,73.7z"/>
		<path class="st1" d="M375.7,113.8h-21.3l-5.6-16.2h-29.6l-5.6,16.2h-20.8l29.6-80.1h23.8L375.7,113.8z M343.8,83l-9.9-28.7
			L324.1,83H343.8z"/>
		<path class="st1" d="M482,113.8h-19.9l-34-55v55h-18.9v-80h24.7l29.2,45.9V33.8H482V113.8z M469.5,6.8c-0.4,6.1-1.8,10.5-4.4,13.5
			s-6.2,4.4-10.9,4.4c-1.7,0-3.3-0.3-4.8-1c-1.4-0.6-2.8-1.3-4.2-2.1c-1.1-0.7-2.3-1.4-3.7-2.1c-1-0.6-2.2-0.9-3.4-1
			c-1.8,0-2.9,0.6-3.5,1.7c-0.7,1.5-1,3.2-1,4.8h-11.8c0.2-5.4,1.7-9.8,4.5-13c2.7-3.2,6.6-5,10.8-4.9c1.7,0,3.3,0.3,4.9,1
			c1.5,0.6,2.9,1.3,4.2,2.1c1.3,0.7,2.6,1.4,3.7,2c1,0.6,2.1,0.9,3.2,1c1.4,0.1,2.8-0.6,3.6-1.8c0.7-1.4,1.1-3,1.1-4.6
			C457.8,6.8,469.5,6.8,469.5,6.8z"/>
		<path class="st1" d="M602.4,73.8c0,12.8-3.7,22.9-11,30.4s-17.4,11.3-30.3,11.3c-12.9,0-23-3.8-30.3-11.3s-11-17.6-11-30.4
			c0-12.9,3.7-23,11-30.5s17.4-11.2,30.3-11.2c12.9,0,23,3.7,30.3,11.2S602.4,61,602.4,73.8z M575,94.1c2.1-2.5,3.6-5.5,4.5-8.6
			c1-3.8,1.5-7.7,1.5-11.7c0.1-4.2-0.5-8.3-1.7-12.3c-0.9-3-2.4-5.8-4.4-8.2c-1.7-2.1-3.9-3.7-6.3-4.7c-4.8-1.9-10.1-1.9-14.8-0.1
			c-2.5,1-4.6,2.6-6.4,4.6c-2,2.4-3.5,5.3-4.4,8.3c-1.2,4-1.8,8.1-1.7,12.3c-0.1,4.1,0.5,8.2,1.6,12.2c0.9,3,2.4,5.8,4.3,8.2
			c1.7,2,3.8,3.6,6.3,4.7c4.9,2,10.3,2,15.2,0C571.2,97.8,573.3,96.2,575,94.1z"/>
		<path class="st1" d="M704.3,88.7c0,7.9-3.3,14.3-10,19.2c-6.7,4.9-15.7,7.4-27.2,7.4c-5.8,0.1-11.7-0.5-17.3-1.8
			c-4.7-1.1-9.4-2.6-13.8-4.4V89.9h2.3c4.3,3.4,9.1,6.1,14.3,7.8c4.9,1.8,10,2.7,15.2,2.8c1.7,0,3.3-0.1,5-0.3
			c1.7-0.1,3.4-0.5,5-1.1c1.4-0.6,2.8-1.4,3.9-2.4c1.1-1.2,1.7-2.7,1.5-4.3c0-1.8-0.8-3.5-2.2-4.6c-1.9-1.5-4.2-2.5-6.5-2.9
			c-3-0.7-6.2-1.4-9.5-2c-3.2-0.6-6.4-1.4-9.4-2.4c-6.7-2.2-11.6-5.2-14.5-8.9c-3.1-4-4.6-9-4.4-14c0-7.5,3.3-13.5,10-18.3
			c6.7-4.7,15.3-7.1,25.8-7.1c5.2,0,10.5,0.5,15.6,1.5c4.6,0.9,9,2.1,13.4,3.8V56H699c-3.6-2.8-7.6-5-11.9-6.5
			c-4.6-1.7-9.4-2.6-14.3-2.6c-1.7,0-3.4,0.1-5.1,0.3c-1.7,0.2-3.3,0.7-4.9,1.3c-1.4,0.5-2.6,1.4-3.6,2.5c-1,1-1.5,2.3-1.5,3.7
			c-0.1,1.9,0.8,3.8,2.4,4.9c1.6,1.1,4.7,2.2,9.1,3.1l8.5,1.8c2.7,0.6,5.6,1.4,8.7,2.4c6.1,2,10.7,4.7,13.6,8.2
			C702.9,78.7,704.3,83.1,704.3,88.7z"/>
	</g>
</g>
<rect y="135.6" class="st2" width="2196.4" height="387.9"/>
<g id="Grupo_810-2">
	<g id="UNIDOS-2">
		<g>
			<path class="st3" d="M171.9,497.4c-45.4,0-80.4-10.4-103.9-31c-23.5-20.5-35.4-50.5-35.4-89V178h84.1v194.7
				c0,20.8,4.4,36.5,13,46.6c8.6,10,22.8,15.1,42.3,15.1c19.2,0,33.4-4.9,42.2-14.5c8.8-9.7,13.3-25.5,13.3-47.1V178h84.1v201.1
				h-0.1c-0.4,37.6-12.4,67-35.6,87.3C252.4,487,217.4,497.4,171.9,497.4z M36.6,182v195.4c0,37.3,11.4,66.2,34,86
				c22.8,19.9,56.8,30,101.3,30c44.5,0,78.6-10.1,101.4-30c22.7-19.9,34.2-48.9,34.2-86.3v-2h0.1V182h-76.1v190.8
				c0,22.6-4.8,39.4-14.3,49.8c-9.6,10.5-24.8,15.8-45.2,15.8c-20.7,0-35.9-5.6-45.3-16.5c-9.3-10.8-14-27.4-14-49.2V182H36.6z"/>
			<path class="st3" d="M709.4,490.9h-79.9l-128-207v207h-77V178h98.3l109.5,172.1V178h77L709.4,490.9z M631.7,486.9h73.7L705.3,182
				h-69v181.9L520.6,182h-92.1v304.9h69v-217L631.7,486.9z"/>
			<path class="st3" d="M997.7,490.9H812.8v-58.8h50.6V236.8h-50.6V178h184.9v58.8h-50.6v195.4h50.6V490.9z M816.8,486.9h176.9
				v-50.7h-50.6V232.8h50.6V182H816.8v50.8h50.6v203.3h-50.6V486.9z"/>
			<path class="st3" d="M1212.1,490.9h-110.9V178h114c25.2,0,47.3,2.1,65.6,6.4c18.3,4.2,34,10.3,46.6,18.2
				c21.5,13,39.1,31.5,51,53.3c12.4,22.4,18.6,48.9,18.6,78.9c0,28.9-6.7,55.2-20,78.3c-13.2,22.9-30.1,40.8-50.5,53.1
				c-15.6,9.4-32.5,15.9-50.3,19.4C1258.3,489.1,1236.7,490.9,1212.1,490.9z M1105.2,486.9h106.9c24.4,0,45.7-1.8,63.5-5.4
				c17.3-3.4,33.7-9.7,49-18.9c19.8-12,36.3-29.4,49.1-51.7c12.9-22.4,19.4-48.1,19.4-76.3c0-29.2-6.1-55.1-18.2-76.9
				c-11.6-21.3-28.7-39.2-49.6-51.9c-12.3-7.6-27.5-13.6-45.4-17.7c-18.1-4.1-39.9-6.2-64.8-6.2h-110V486.9z M1202.9,433h-22.1
				V235.6h22.1c16.8,0,29.9,0.7,38.8,2.2c8.8,1.5,17.4,4.3,25.6,8.4c16.4,8.2,28.5,19.9,36.1,34.8c7.5,14.7,11.3,32.6,11.3,53.1
				c0,20.8-3.5,38.4-10.5,52.5c-6.8,14.1-17.8,25.6-32.7,34.1c-8.4,4.6-17.3,7.8-26.5,9.6C1235.8,432.1,1221.7,433,1202.9,433z
				 M1184.8,429h18.1c18.5,0,32.4-0.9,41.3-2.6c8.8-1.7,17.3-4.8,25.3-9.2c14.1-8.1,24.6-19,31.1-32.4c6.7-13.5,10.1-30.6,10.1-50.7
				c0-19.9-3.7-37.1-10.9-51.3c-7.2-14.1-18.7-25.2-34.3-33c-7.8-3.9-16.1-6.6-24.4-8c-8.7-1.4-21.6-2.2-38.2-2.2h-18.1V429z"/>
			<path class="st3" d="M1639.4,497.3c-50,0-89.8-14.8-118.2-44.1c-28.4-29.3-42.9-69.2-42.9-118.7c0-50,14.4-90,42.9-119.1
				c28.5-29.1,68.1-43.8,117.7-43.8c0.2,0,0.3,0,0.5,0c49.8,0,89.6,14.7,118.2,43.8c28.6,29,43.1,69.1,43.1,119.1
				c0,49.5-14.4,89.4-42.9,118.7C1729.4,482.5,1689.5,497.3,1639.4,497.3z M1638.9,175.6c-48.6,0-87.2,14.3-114.9,42.6
				c-27.7,28.3-41.7,67.4-41.7,116.3c0,48.4,14,87.4,41.7,115.9c27.7,28.5,66.5,42.9,115.4,42.9c49,0,87.9-14.4,115.6-42.9
				c27.7-28.5,41.7-67.5,41.7-115.9c0-49-14.1-88.1-41.9-116.3c-27.9-28.3-66.7-42.6-115.4-42.6
				C1639.2,175.6,1639.1,175.6,1638.9,175.6z M1638.8,439.1c-10,0-19.8-2-29.2-6c-9.9-4.2-18.5-10.6-25.1-18.6
				c-7-8.3-12.8-19.1-17.1-32.3c-4.2-13-6.4-29.1-6.4-47.6c0-18.3,2.2-34.5,6.6-48c4.3-13.6,10.1-24.7,17.3-32.8
				c7.6-8.5,16.2-14.6,25.3-18.3c18.9-7.5,39.8-7.4,58.8,0.2c9.8,4,18.5,10.4,25.2,18.6c7,8.1,12.8,19,17.2,32.1
				c4.3,13,6.5,29.2,6.5,47.9c0,17.3-1.9,32.6-5.7,45.7c-3.5,12.6-9.4,24-17.6,34l0,0c-6.8,8.3-15.3,14.6-25.1,19
				c-9.5,4-19.6,6.1-30,6.1C1639.3,439.1,1639,439.1,1638.8,439.1z M1639.4,234c-9.4,0-18.7,1.8-27.6,5.3
				c-8.6,3.5-16.6,9.3-23.9,17.3c-6.8,7.7-12.4,18.3-16.5,31.4c-4.3,13.1-6.4,28.9-6.4,46.8c0,18.1,2.1,33.7,6.2,46.4
				c4.1,12.6,9.6,23,16.3,30.9c6.2,7.5,14.3,13.5,23.6,17.5c9.2,3.8,18.7,5.7,28.4,5.6c9.9,0,19.5-1.9,28.4-5.7
				c9.3-4.1,17.2-10.1,23.6-17.8c7.8-9.6,13.5-20.5,16.8-32.6c3.7-12.7,5.5-27.7,5.5-44.6c0-18.3-2.1-34-6.3-46.7
				c-4.2-12.7-9.7-23.1-16.4-30.8c-6.3-7.7-14.5-13.7-23.6-17.5C1658.4,235.8,1648.9,234,1639.4,234z"/>
			<path class="st3" d="M2005.6,496.5c-25.8,0-48.4-2.3-67.4-6.8c-17.9-4.1-36-9.9-53.7-17.2l-1.2-0.5v-77.4h11.4l0.5,0.4
				c16.4,13,34.8,23.1,54.7,30c20.3,7,39.8,10.5,58.1,10.5c6.3-0.1,12.5-0.5,18.9-1.2c7.5-0.8,13.9-2.1,18.8-4
				c5.4-2.2,10.2-5.2,14.4-8.9c3.5-3.3,5.2-8.4,5.2-15.1c0-6.2-2.6-11.4-7.9-16c-5.5-4.7-13.7-8.4-24.4-10.9
				c-11.4-2.8-23.8-5.4-36.7-7.8c-13-2.4-25.3-5.5-36.7-9.3c-26.2-8.5-45.4-20.2-57-35c-11.6-14.7-17.5-33.2-17.5-55
				c0-29.3,13.3-53.5,39.5-72c26-18.4,59.9-27.7,100.7-27.7c20.2,0,40.6,2,60.7,5.9c19.4,3.8,36.9,8.8,52,14.9l1.3,0.5v74.5h-11.2
				l-0.5-0.4c-12-9.7-27.2-18-45.1-24.7c-17.5-6.5-35.9-9.9-54.6-10c-7,0-13.4,0.5-19.5,1.4c-6.4,0.9-12.7,2.6-18.5,5
				c-5,1.9-9.5,5-13.2,8.9c-3.4,3.6-5.3,8.2-5.3,13c0,7.5,2.8,13.1,8.5,17.2c5.9,4.2,17.2,8,34.5,11.6c4.4,0.9,8.7,1.8,13,2.7
				c6.8,1.4,13.3,2.8,19.7,4.2c11.6,2.5,23,5.6,33.9,9.2c23.9,7.9,41.8,18.7,53.3,32.2c11.5,13.5,17.1,30.8,17.2,53v0
				c0,30.9-13.3,56.4-39.5,75.8C2086,486.8,2050.2,496.5,2005.6,496.5z M1887.3,469.4c17.1,7,34.6,12.5,51.9,16.5
				c18.6,4.4,41,6.6,66.4,6.6c43.8,0,78.7-9.5,103.9-28.1c25.1-18.6,37.9-43,37.9-72.6c-0.1-21.2-5.4-37.7-16.2-50.4
				c-11-12.9-28.3-23.4-51.5-31c-10.7-3.5-22-6.5-33.5-9c-6.4-1.4-12.9-2.7-19.7-4.2c-4.3-0.9-8.6-1.8-13-2.7
				c-17.9-3.7-29.7-7.7-36-12.2c-6.7-4.8-10.1-11.6-10.1-20.4c0-5.9,2.3-11.5,6.3-15.8c4.1-4.4,9.1-7.8,14.6-9.9
				c6.1-2.5,12.7-4.3,19.4-5.2c6.3-1,12.9-1.4,20.1-1.4c19.2,0.1,38.1,3.5,56,10.2c18,6.7,33.4,15.1,45.7,24.9h5.8v-67.8
				c-14.5-5.8-31.4-10.5-50-14.2c-19.8-3.9-40-5.9-59.9-5.9c-39.9,0-73,9.1-98.3,26.9c-25.5,18-37.9,40.5-37.9,68.8
				c0,20.9,5.6,38.6,16.7,52.6c11.2,14.1,29.7,25.4,55.1,33.6c11.2,3.7,23.4,6.7,36.2,9.1c13,2.4,25.4,5.1,36.9,7.8
				c11.3,2.6,20.1,6.6,26,11.7c6.2,5.3,9.3,11.7,9.3,19c0,7.9-2.2,13.9-6.5,18.1c-4.5,4.1-9.8,7.4-15.6,9.7c-5.3,2-12,3.4-19.8,4.2
				c-6.5,0.7-12.8,1.1-19.3,1.2c-18.8,0-38.8-3.6-59.5-10.7c-20.2-7-38.8-17.1-55.3-30.2h-6V469.4z"/>
		</g>
	</g>
</g>
<g id="_30_AÑOS-2">
	<g>
		<path class="st4" d="M96,76.3c1.7,1.5,3.2,3.3,4.2,5.3c1.1,2.5,1.7,5.2,1.6,8c0,3.6-0.7,7.2-2.2,10.5s-3.9,6.2-6.9,8.4
			c-3.2,2.4-6.8,4.1-10.6,5.2c-4.8,1.3-9.8,1.9-14.8,1.8c-5.7,0.1-11.5-0.4-17.1-1.6c-4-0.8-7.8-2-11.6-3.5V92.9h2.1
			c3.5,2,7.2,3.7,11,4.8c3.8,1.3,7.8,1.9,11.8,2c2.3,0,4.5-0.2,6.8-0.5c2.2-0.3,4.3-1,6.2-2.2c1.3-0.8,2.4-2,3.2-3.2
			c0.9-1.7,1.3-3.6,1.2-5.5c0.1-1.9-0.4-3.9-1.6-5.4c-1.1-1.3-2.6-2.2-4.2-2.7c-2.1-0.6-4.2-0.9-6.3-0.9c-2.5,0-4.8-0.1-6.9-0.1
			h-4.3V64.8h4.6c2.8,0,5.3-0.1,7.4-0.3c1.9-0.1,3.7-0.5,5.5-1.2c1.4-0.6,2.6-1.5,3.5-2.7c0.9-1.5,1.3-3.3,1.2-5
			c0.1-1.4-0.4-2.8-1.2-3.9c-0.9-1-1.9-1.8-3.1-2.3c-1.6-0.7-3.2-1.1-4.9-1.3c-1.6-0.2-3.3-0.3-4.9-0.3c-3.7,0.1-7.4,0.6-11,1.8
			c-4,1.2-7.9,2.9-11.5,5h-2V37.1c3.9-1.5,7.9-2.6,12-3.4c5.1-1.1,10.2-1.6,15.4-1.6c4.5-0.1,9,0.4,13.3,1.3
			c3.3,0.7,6.5,1.9,9.4,3.5c2.7,1.5,5,3.7,6.6,6.4c1.5,2.7,2.2,5.7,2.2,8.8c0,4.3-1.4,8.6-4.1,11.9c-2.7,3.5-6.6,5.8-10.9,6.7v0.8
			c2,0.3,3.9,0.8,5.8,1.5C92.5,73.8,94.4,74.9,96,76.3z"/>
		<path class="st4" d="M203.7,73.7c0.1,6.1-0.5,12.2-1.8,18.1c-1,4.7-2.9,9.2-5.7,13.1c-2.7,3.5-6.2,6.2-10.2,7.9
			c-4.2,1.8-9.3,2.7-15.4,2.7c-5.2,0.1-10.5-0.8-15.3-2.7c-4.1-1.7-7.6-4.5-10.3-8c-2.8-3.9-4.8-8.4-5.8-13.1
			c-1.2-5.9-1.8-11.9-1.8-17.9c-0.1-6.1,0.5-12.2,1.8-18.1c1-4.7,3-9.1,5.8-13c2.7-3.5,6.2-6.2,10.3-7.9c4.8-1.9,10-2.8,15.2-2.6
			c5.3-0.2,10.5,0.8,15.4,2.7c4.1,1.7,7.6,4.5,10.2,8.1c2.8,3.9,4.7,8.3,5.7,13C203.2,61.8,203.8,67.7,203.7,73.7z M182.9,73.7
			c0-9.7-0.9-16.6-2.9-20.7s-5.1-6.2-9.5-6.2s-7.6,2.1-9.5,6.2s-2.9,11.1-2.9,20.8c0,9.5,1,16.4,2.9,20.6s5.1,6.3,9.4,6.3
			c4.3,0,7.5-2.1,9.4-6.3S182.9,83.3,182.9,73.7z"/>
		<path class="st4" d="M375.7,113.8h-21.3l-5.6-16.2h-29.6l-5.6,16.2h-20.8l29.6-80.1h23.8L375.7,113.8z M343.8,83l-9.9-28.7
			L324.1,83H343.8z"/>
		<path class="st4" d="M482,113.8h-19.9l-34-55v55h-18.9v-80h24.7l29.2,45.9V33.8H482V113.8z M469.5,6.8c-0.4,6.1-1.8,10.5-4.4,13.5
			s-6.2,4.4-10.9,4.4c-1.7,0-3.3-0.3-4.8-1c-1.4-0.6-2.8-1.3-4.2-2.1c-1.1-0.7-2.3-1.4-3.7-2.1c-1-0.6-2.2-0.9-3.4-1
			c-1.8,0-2.9,0.6-3.5,1.7c-0.7,1.5-1,3.2-1,4.8h-11.8c0.2-5.4,1.7-9.8,4.5-13c2.7-3.2,6.6-5,10.8-4.9c1.7,0,3.3,0.3,4.9,1
			c1.5,0.6,2.9,1.3,4.2,2.1c1.3,0.7,2.6,1.4,3.7,2c1,0.6,2.1,0.9,3.2,1c1.4,0.1,2.8-0.6,3.6-1.8c0.7-1.4,1.1-3,1.1-4.6
			C457.8,6.8,469.5,6.8,469.5,6.8z"/>
		<path class="st4" d="M602.4,73.8c0,12.8-3.7,22.9-11,30.4s-17.4,11.3-30.3,11.3c-12.9,0-23-3.8-30.3-11.3s-11-17.6-11-30.4
			c0-12.9,3.7-23,11-30.5s17.4-11.2,30.3-11.2c12.9,0,23,3.7,30.3,11.2S602.4,61,602.4,73.8z M575,94.1c2.1-2.5,3.6-5.5,4.5-8.6
			c1-3.8,1.5-7.7,1.5-11.7c0.1-4.2-0.5-8.3-1.7-12.3c-0.9-3-2.4-5.8-4.4-8.2c-1.7-2.1-3.9-3.7-6.3-4.7c-4.8-1.9-10.1-1.9-14.8-0.1
			c-2.5,1-4.6,2.6-6.4,4.6c-2,2.4-3.5,5.3-4.4,8.3c-1.2,4-1.8,8.1-1.7,12.3c-0.1,4.1,0.5,8.2,1.6,12.2c0.9,3,2.4,5.8,4.3,8.2
			c1.7,2,3.8,3.6,6.3,4.7c4.9,2,10.3,2,15.2,0C571.2,97.8,573.3,96.2,575,94.1z"/>
		<path class="st4" d="M704.3,88.7c0,7.9-3.3,14.3-10,19.2c-6.7,4.9-15.7,7.4-27.2,7.4c-5.8,0.1-11.7-0.5-17.3-1.8
			c-4.7-1.1-9.4-2.6-13.8-4.4V89.9h2.3c4.3,3.4,9.1,6.1,14.3,7.8c4.9,1.8,10,2.7,15.2,2.8c1.7,0,3.3-0.1,5-0.3
			c1.7-0.1,3.4-0.5,5-1.1c1.4-0.6,2.8-1.4,3.9-2.4c1.1-1.2,1.7-2.7,1.5-4.3c0-1.8-0.8-3.5-2.2-4.6c-1.9-1.5-4.2-2.5-6.5-2.9
			c-3-0.7-6.2-1.4-9.5-2c-3.2-0.6-6.4-1.4-9.4-2.4c-6.7-2.2-11.6-5.2-14.5-8.9c-3.1-4-4.6-9-4.4-14c0-7.5,3.3-13.5,10-18.3
			c6.7-4.7,15.3-7.1,25.8-7.1c5.2,0,10.5,0.5,15.6,1.5c4.6,0.9,9,2.1,13.4,3.8V56H699c-3.6-2.8-7.6-5-11.9-6.5
			c-4.6-1.7-9.4-2.6-14.3-2.6c-1.7,0-3.4,0.1-5.1,0.3c-1.7,0.2-3.3,0.7-4.9,1.3c-1.4,0.5-2.6,1.4-3.6,2.5c-1,1-1.5,2.3-1.5,3.7
			c-0.1,1.9,0.8,3.8,2.4,4.9c1.6,1.1,4.7,2.2,9.1,3.1l8.5,1.8c2.7,0.6,5.6,1.4,8.7,2.4c6.1,2,10.7,4.7,13.6,8.2
			C702.9,78.7,704.3,83.1,704.3,88.7z"/>
	</g>
</g>
</svg>
