<svg id="Capa_1" data-name="Capa 1" xmlns="http://www.w3.org/2000/svg" xmlns:xlink="http://www.w3.org/1999/xlink" viewBox="0 0 339.7 178.83"><defs><style>.cls-1{fill:none;}.cls-2{clip-path:url(#clip-path);}.cls-3{fill:#fff;}</style><clipPath id="clip-path" transform="translate(-5.75 -5.65)"><rect class="cls-1" x="5.75" y="5.65" width="339.75" height="178.83"/></clipPath></defs><g id="Grupo_824" data-name="Grupo 824"><g class="cls-2"><g id="Grupo_837" data-name="Grupo 837"><g id="Grupo_824-2" data-name="Grupo 824-2"><path id="Trazado_910" data-name="Trazado 910" class="cls-3" d="M36.32,172.91c0,1.16-1.66,2.18-4.66,2.18-8,0-13.46-4.69-13.46-16.35,0-12.83,6.93-16.89,16.27-16.89a35.46,35.46,0,0,1,10.86,1.79l.13-10.34a49.36,49.36,0,0,0-10.91-1.13c-16.06,0-28.8,8.24-28.8,26.36,0,18.76,12.54,25.95,26.54,25.95a42.62,42.62,0,0,0,15.32-2.7V157.92H36.32Z" transform="translate(-5.75 -5.65)"/></g><g id="Grupo_825" data-name="Grupo 825"><path id="Trazado_911" data-name="Trazado 911" class="cls-3" d="M70,172.81V161.44H88v-8.73H70c0-4.09,0-6.79.21-9.39a1.33,1.33,0,0,1,1.16-1.06,180.27,180.27,0,0,1,18.74.52v-9.57H58.62v50.24H90.84v-9.7c-3.94.31-8.61.42-19.46.42A1.33,1.33,0,0,1,70,172.89v-.08" transform="translate(-5.75 -5.65)"/></g><g id="Grupo_826" data-name="Grupo 826"><path id="Trazado_912" data-name="Trazado 912" class="cls-3" d="M131.88,160.94c0,.7-.19,1.14-.62,1.14-.2,0-.31-.1-.52-.23L112,133.21h-11.5v50.23h10.36V150.62c4.24,5.93,15.86,24.09,20.62,32.82h10.67V133.21H131.88Z" transform="translate(-5.75 -5.65)"/></g><g id="Grupo_827" data-name="Grupo 827"><path id="Trazado_913" data-name="Trazado 913" class="cls-3" d="M148.86,143.41c4-.41,9.34-.63,14.1-.63a1.49,1.49,0,0,1,1.45,1.38v39.28h11.4V160.19c0-7.81,0-12.07.2-15.93a1.49,1.49,0,0,1,1.36-1.47c4.76,0,10.26.21,14.07.63V133.21H148.86Z" transform="translate(-5.75 -5.65)"/></g><g id="Grupo_828" data-name="Grupo 828"><path id="Trazado_914" data-name="Trazado 914" class="cls-3" d="M209.05,172.81V161.44H227v-8.73H209.05c0-4.09,0-6.79.2-9.39a1.32,1.32,0,0,1,1.15-1.06,180.54,180.54,0,0,1,18.75.52v-9.57H197.64v50.24h32.22v-9.7c-3.94.31-8.59.42-19.47.42a1.31,1.31,0,0,1-1.34-1.27v-.09" transform="translate(-5.75 -5.65)"/></g><g id="Grupo_829" data-name="Grupo 829"><path id="Trazado_915" data-name="Trazado 915" class="cls-3" d="M294.24,162.28c1.55-4.49,3.42-9.38,5.59-14.49,2.07,5.11,3.84,9.8,5.39,14.49Zm-39.6-5.93h-3.72c0-3.55.09-9.8.29-13,.12-1.06.85-1.88,4.26-1.88,4.46,0,8,2.2,8,7,0,5.31-3.21,7.92-8.81,7.92m50.77-23.14H294.64c-2.7,8.33-10.65,28.33-17.17,43.69l-11-15.66a14.82,14.82,0,0,0,9.44-13.55c0-10.53-8.6-15.1-18.76-15.1-7.57,0-9.63.71-17.62.71v50.14h11.41V165.21h2.58c1.35,0,2.38.52,4.12,2.81L269,183.45h17.12c1.44-4,2.88-8,4.66-12.1h17.51c1.54,4.07,2.88,7.92,4.13,12.09h11.92Z" transform="translate(-5.75 -5.65)"/></g><g id="Grupo_830" data-name="Grupo 830"><path id="Trazado_916" data-name="Trazado 916" class="cls-3" d="M297.36,31.06l.19-1.12c.11-.73.21-1.49.33-2.2l.06-.33c-1.16.66-2.26,1.36-3.36,2.06-.72.45-1.37.87-2.06,1.33l-.2.15-1.77,1.22-.3.24-1.66,1.24-.32.23c-.53.42-1.07.82-1.61,1.27l-.31.23c-.53.45-1.06.88-1.6,1.32l-.25.23-1.63,1.4-.19.18c-.58.52-1.11,1-1.66,1.53l-.12.1A90.87,90.87,0,0,0,271.13,51c-.51.66-1,1.29-1.41,1.91l-.19.26c-.39.57-.8,1.12-1.18,1.69l-.21.31c-.39.58-.75,1.13-1.1,1.69l-.29.42-1,1.57-.29.52c-.31.49-.62,1-.91,1.56l-.32.53c-.29.51-.59,1-.86,1.58l-.29.53c-.28.55-.55,1.1-.84,1.62l-.26.5c-.28.6-.59,1.21-.86,1.79l-.17.37c-.69,1.47-1.35,3-1.94,4.45l0,.09c-.28.7-.57,1.43-.81,2.15l-.22.64c-.21.53-.41,1.06-.59,1.6l-.28.82c-.16.48-.33,1-.46,1.44l-.26.93c-.15.46-.29.94-.42,1.39a4.13,4.13,0,0,0-.15.5c.5-.37,1-.74,1.47-1.1.89-.66,1.76-1.31,2.62-1.93l.91-.68L262.47,77l1.12-.79c.47-.33,1-.7,1.47-1l1.17-.79,1.39-1c.41-.25.81-.52,1.22-.78s.89-.61,1.33-.9.82-.53,1.24-.78.89-.6,1.33-.87l1.22-.75c.43-.26.79-.51,1.2-.73l1.36-.85c.44-.27.87-.55,1.31-.79l1.21-.7c.44-.28.9-.54,1.34-.78l1.19-.68,1.27-.68,1.24-.73c.63-.31,1.21-.64,1.84-1,.38-.22.79-.42,1.19-.63l2-1,1.21-.58c.44-.22.86-.44,1.29-.64l1.47-.69a5.28,5.28,0,0,1,.53-.27l.08-.48c.2-1.31.39-2.61.57-3.87l2.83-21.16c.09-.69.18-1.37.29-2" transform="translate(-5.75 -5.65)"/></g><g id="Grupo_831" data-name="Grupo 831"><path id="Trazado_917" data-name="Trazado 917" class="cls-3" d="M343.59,15.22A97.83,97.83,0,0,0,301.8,25.39l-.07.43c-1,6.41-2.15,14.57-3.59,25.68l-.42,3.22c-.08.7-.2,1.41-.31,2.13h0v0c1.1-.47,2.25-1,3.52-1.48l.61-.23c1.3-.53,2.65-1.05,4-1.56l.65-.23c1.44-.53,2.77-1,4-1.39l.53-.19c1.51-.49,2.88-.91,4.18-1.3s2.46-.7,3.69-1l.75-.17.74-.18c.72-.21,1.46-.38,2.19-.55.35-.1.68-.15,1-.23l.9-.2,1.81-.39c.33-.08.69-.13,1-.2l1-.2c.53-.11,1.08-.22,1.61-.29l1.18-.21.84-.14,1.68-.28,1.21-.16.8-.11c.56-.09,1.13-.17,1.68-.23l1.34-.14.54-.06,1.83-.2c.43-.06.88-.09,1.35-.11l1-.09c.25,0,.52-.06.78-.08h.15l.35,0,.64-.05h.26a155,155,0,0,0-1.74-30" transform="translate(-5.75 -5.65)"/></g><g id="Grupo_832" data-name="Grupo 832"><path id="Trazado_918" data-name="Trazado 918" class="cls-3" d="M342.8,48.87h-.19c-.54.06-1.07.12-1.58.15-.67.07-1.36.15-2,.24l-.18,0-1.41.15c-.68.08-1.32.16-2,.27l-.24,0c-.46.07-.93.12-1.35.2-.61.09-1.21.2-1.82.3l-.63.1-1.17.2c-.6.11-1.18.22-1.77.36l-.78.12-1,.23-1.82.38-.73.19-1,.23-2,.47-.79.19c-.24.05-.5.12-.76.2-1.18.31-2.38.64-3.55,1A144.17,144.17,0,0,0,296.76,61c-.69,4-1.51,8.09-2.5,12.09-.23,1-.48,2-.73,2.93l-.1.31c-.23.88-.46,1.72-.69,2.59l-.17.53c-.23.78-.43,1.54-.67,2.34l-.24.66c-.23.72-.44,1.43-.68,2.15l-.25.81c-.23.65-.44,1.3-.67,1.95l-.33.9c-.22.63-.43,1.23-.66,1.83-.12.34-.23.68-.36,1-.22.59-.44,1.16-.66,1.73l-.4,1c-.23.53-.44,1.07-.68,1.61l-.45,1.08c-.21.51-.43,1-.65,1.54l-.47,1.1c-.22.47-.44.94-.64,1.39l-.18.36c-.11.28-.26.53-.37.81-.23.5-.49,1-.73,1.46l-.13.3c-.13.26-.24.5-.37.75l-.1.22-.54,1.16a53.45,53.45,0,0,0,12.9-3.08l.06-.48,0-.36,0-.29.06-.52q0-.22.06-.42l0-.27c.06-.35.1-.72.17-1.07a9,9,0,0,1,.17-1.06c.06-.35.1-.73.17-1.07s.15-.69.23-1,.18-.7.24-1.06.18-.68.26-1,.19-.7.29-1,.19-.66.29-1l0-.08c.11-.32.2-.65.31-.93s.21-.61.32-.89l.07-.18c.11-.31.2-.62.33-.91s.22-.59.35-.89l.05-.11c.11-.32.26-.64.39-.95s.23-.49.35-.75l.14-.33.39-.82c.13-.27.25-.46.37-.72l.15-.27c.13-.3.3-.57.43-.87s.27-.46.4-.71l.22-.36c.13-.24.28-.48.43-.72s.3-.49.46-.75l.06-.11c.19-.35.38-.6.57-.9s.29-.44.44-.65l.23-.32c.16-.25.33-.5.51-.73s.31-.43.48-.65L305,77c.18-.26.37-.5.57-.74s.31-.39.47-.57l.26-.33c.2-.23.38-.46.58-.67a7.72,7.72,0,0,1,.53-.61l.26-.29.59-.66c.18-.18.36-.38.57-.57l.27-.31.6-.59c.19-.16.33-.33.52-.49l.37-.35c.21-.18.42-.39.6-.57s.37-.31.55-.46l.37-.33c.21-.18.43-.39.66-.55s.38-.31.59-.47l.41-.35.61-.46a4.81,4.81,0,0,1,.62-.47l.44-.3c.22-.15.4-.3.61-.44l.6-.42.5-.31a5.27,5.27,0,0,1,.62-.43l.68-.42.44-.25a4.5,4.5,0,0,1,.67-.39c.22-.13.46-.25.68-.39l.47-.27c.24-.11.44-.24.66-.35s.52-.26.75-.39l.48-.23.66-.3c.23-.09.45-.22.7-.31l.55-.25.66-.3c.24-.11.53-.19.79-.29l.55-.23.62-.22c.26-.11.53-.19.79-.3l.6-.2c.19-.05.41-.13.61-.2a4.74,4.74,0,0,1,.84-.23l.62-.16a4.11,4.11,0,0,1,.56-.19l.89-.22.59-.15.6-.14c.33-.08.66-.13,1-.2l.59-.13a4.7,4.7,0,0,0,.51-.12l1.21-.17.51-.07a3.1,3.1,0,0,1,.42-.08c.74-.09,1.45-.18,2.18-.23.44,0,.9-.08,1.39-.09l2-.08h.29a62.5,62.5,0,0,0,1.65-9l-2.21.18" transform="translate(-5.75 -5.65)"/></g><g id="Grupo_833" data-name="Grupo 833"><path id="Trazado_919" data-name="Trazado 919" class="cls-3" d="M341.07,61.28c-.72.08-1.14.1-1.14.1-.35,0-1.69.16-2,.22a1.74,1.74,0,0,0-.39,0l-.25,0c-.5.07-.93.13-1.32.2l-.5.11-.5.09-1,.18-.52.15-.47.1c-.3.07-.61.14-.9.23l-.58.16-.41.12-.88.26-.61.19-.4.15-.83.27a5.83,5.83,0,0,1-.58.23l-.37.13-.86.33-.69.31-.11.06c-.31.12-.63.25-.95.4s-.41.2-.63.31l-.29.14c-.27.12-.53.26-.79.39l-.73.39c-.37.22-.66.36-1,.53a8.69,8.69,0,0,0-.77.46c-.29.16-.58.34-.86.52l-.77.49-.83.55c-.23.19-.49.35-.75.53s-.51.39-.78.57-.48.38-.72.55-.51.42-.77.64l-.71.57c-.25.2-.49.44-.74.66s-.43.4-.67.6a9,9,0,0,0-.71.68l-.65.63c-.23.25-.46.49-.69.71a6.46,6.46,0,0,0-.61.68c-.2.24-.44.46-.65.73s-.41.47-.61.7-.42.49-.63.77l-.09.09-.47.6-.6.8-.54.72-.57.84-.1.18c-.14.19-.26.37-.39.58l-.5.8-.15.23c-.12.19-.23.39-.34.58s-.29.49-.44.74l-.19.34c-.1.18-.2.38-.31.57s-.27.54-.42.82l-.16.37c-.1.16-.19.34-.28.52s-.25.52-.38.81l-.17.42c-.07.17-.16.34-.23.52s-.23.58-.37.9l-.16.38-.2.52c-.11.33-.23.63-.36,1l-.14.41c0,.15-.09.3-.13.44a13.08,13.08,0,0,0-.41,1.35l-.08.24a2,2,0,0,0-.08.26c-.18.63-.34,1.25-.51,1.89l-.07.39c-.11.52-.23,1-.32,1.54l0,.14-.4,2.94a109.76,109.76,0,0,0,23.3-14c10.29-7.89,16.61-16,20-25.83l-1.23,0" transform="translate(-5.75 -5.65)"/></g><g id="Grupo_834" data-name="Grupo 834"><path id="Trazado_920" data-name="Trazado 920" class="cls-3" d="M252.47,80.74c.19-.65.35-1.23.53-1.82l.15-.5c.24-.79.5-1.56.75-2.36.06-.17.11-.32.16-.48l.11-.29c.2-.52.39-1,.56-1.58.09-.21.18-.44.26-.66l.23-.6c.12-.35.25-.7.41-1s.23-.6.36-.89l.15-.38c.15-.33.27-.68.42-1s.26-.63.41-.92l.1-.23c.17-.38.31-.75.5-1.08s.37-.8.55-1.21.31-.67.46-1,.43-.81.63-1.23.3-.64.48-1,.43-.83.68-1.24.3-.59.46-.88c.23-.45.46-.85.71-1.29a8.66,8.66,0,0,0,.47-.79l.8-1.33.42-.66.88-1.43.35-.5c.34-.51.68-1,1.05-1.56l.07-.1a88.8,88.8,0,0,1,7.08-9.08l.14-.17c.44-.49.9-1,1.36-1.48l.28-.29c.44-.48.89-1,1.35-1.42l.31-.34,1.36-1.36.37-.35,1.37-1.3.39-.35L281,35.29l.39-.34c.47-.41,1-.81,1.46-1.22l.39-.32q.74-.63,1.5-1.23l.33-.26c.53-.42,1-.83,1.58-1.24l.23-.17c2.35-1.75,4.79-3.41,7.3-5l.5-.31c.32-.2.65-.39,1-.58l.52-.3.68-.39c.29-.16.59-.32.86-.49l.54-.29.38-.22c1.07-6.16,2.18-11.42,3.39-16.08l.32-1.25c-6.5,2.15-12.3,4.28-17.44,6.42C261.18,22,251,32.34,248.78,48c-1.34,9.34.13,20.58,3.18,34.66.17-.66.33-1.31.52-1.93" transform="translate(-5.75 -5.65)"/></g><g id="Grupo_835" data-name="Grupo 835"><path id="Trazado_921" data-name="Trazado 921" class="cls-3" d="M278.23,105.79l.51-1c.23-.48.5-.93.72-1.41l.62-1.2c.26-.49.5-1,.73-1.53l.47-.92c.26-.57.53-1.14.76-1.71l.39-.82c.77-1.7,1.51-3.46,2.19-5.23l.29-.71c.23-.64.49-1.3.75-2l.32-1c.23-.57.43-1.12.63-1.72.11-.27.2-.54.28-.81l.09-.27c.21-.57.39-1.1.59-1.67.11-.31.2-.67.31-1l0-.16c.18-.54.35-1.07.54-1.63.11-.39.23-.82.35-1.21l.47-1.61c.13-.42.23-.84.35-1.26s.29-1,.44-1.6.24-.86.35-1.3.27-1.06.38-1.57.23-.9.33-1.34.23-1.06.35-1.58l.33-1.37c.11-.54.23-1,.33-1.56l.28-1.41c.09-.47.18-.9.25-1.36l.13-.62c0-.15.06-.29.09-.44l-.8.38c-.37.17-.72.35-1.06.53l-1,.52c-.5.23-1,.49-1.49.75l-.95.51c-.53.26-1,.56-1.55.83l-.93.51c-.52.28-1.07.57-1.6.87l-.86.49-1.68,1-.79.49c-.59.33-1.18.68-1.76,1l-.73.46c-.61.36-1.22.73-1.82,1.12l-.68.42c-.66.39-1.3.81-1.94,1.23l-.57.39c-.7.43-1.37.87-2.07,1.33l-.47.32c-.75.49-1.5,1-2.23,1.51l-.29.19c-.84.58-1.69,1.17-2.51,1.76-3.53,2.46-7.08,5.14-10.64,7.92l-1,.79a25,25,0,0,0,24.81,17.64" transform="translate(-5.75 -5.65)"/></g><g id="Grupo_836" data-name="Grupo 836"><path id="Trazado_922" data-name="Trazado 922" class="cls-3" d="M331.51,141.69h.89c1,0,1.86-.35,1.86-1.21s-.55-1.27-1.73-1.27a4.31,4.31,0,0,0-1,.11Zm0,4.64h-1.85v-8.26a18.56,18.56,0,0,1,3.08-.26,4.11,4.11,0,0,1,2.73.66,2.06,2.06,0,0,1,.84,1.75,2.14,2.14,0,0,1-1.67,2v.1c.79.26,1.18.91,1.43,2a6.81,6.81,0,0,0,.58,2h-2a7.14,7.14,0,0,1-.64-2c-.15-.87-.64-1.26-1.66-1.26h-.88Zm-4.94-4.28a6.35,6.35,0,0,0,6.08,6.6h.18a6.24,6.24,0,0,0,6.12-6.37,1.09,1.09,0,0,0,0-.18,6.34,6.34,0,0,0-6-6.65h-.18a6.36,6.36,0,0,0-6.18,6.53v.07m14.43,0a8.21,8.21,0,0,1-8.09,8.32h-.12a8.24,8.24,0,0,1-8.27-8.21v-.11a8.21,8.21,0,0,1,8.13-8.28h.18a8.15,8.15,0,0,1,8.17,8.14v.14" transform="translate(-5.75 -5.65)"/></g></g></g></g></svg>