<svg id="Capa_1" data-name="Capa 1" xmlns="http://www.w3.org/2000/svg" xmlns:xlink="http://www.w3.org/1999/xlink" viewBox="0 0 534.04 590.48"><defs><style>.cls-1,.cls-11,.cls-16,.cls-17,.cls-18,.cls-19,.cls-20,.cls-21,.cls-22,.cls-23,.cls-3,.cls-4,.cls-5,.cls-6,.cls-7{fill:none;}.cls-2{clip-path:url(#clip-path);}.cls-16,.cls-17,.cls-18,.cls-19,.cls-20,.cls-21,.cls-22,.cls-23,.cls-3,.cls-4,.cls-5,.cls-6,.cls-7{stroke:#7f8792;}.cls-17,.cls-18,.cls-19,.cls-20,.cls-21,.cls-22,.cls-23,.cls-3,.cls-4,.cls-6,.cls-7{stroke-linecap:round;stroke-linejoin:round;}.cls-17,.cls-18,.cls-19,.cls-20,.cls-21,.cls-22,.cls-23,.cls-3,.cls-4{stroke-width:2px;}.cls-3{stroke-dasharray:0 6.22;}.cls-11,.cls-16,.cls-5{stroke-miterlimit:10;}.cls-5{stroke-width:2.75px;}.cls-6,.cls-7{stroke-width:1.78px;}.cls-6{stroke-dasharray:0 5.25;}.cls-8{fill:#ffcd00;}.cls-9{fill:#636e7a;}.cls-10{fill:#ee7e23;}.cls-11{stroke:#ee7e23;stroke-width:0.5px;}.cls-12{fill:#00a398;}.cls-13{fill:#cb7333;}.cls-14{fill:#de1372;}.cls-15{fill:#7f8792;}.cls-16{stroke-width:3px;}.cls-17{stroke-dasharray:0 5.96;}.cls-18{stroke-dasharray:0 6.12;}.cls-19{stroke-dasharray:0 6.27;}.cls-20{stroke-dasharray:0 5.99;}.cls-21{stroke-dasharray:0 6.14;}.cls-22{stroke-dasharray:0 6.27;}.cls-23{stroke-dasharray:0 6.02;}</style><clipPath id="clip-path" transform="translate(-10.87 -17.76)"><rect class="cls-1" x="7" y="17.76" width="537.91" height="590.48"/></clipPath></defs><g class="cls-2"><path class="cls-3" d="M185.16,99.91a233.69,233.69,0,0,0-50.77,29.88" transform="translate(-10.87 -17.76)"/><path class="cls-4" d="M131.94,131.71h0m59-34.18h0" transform="translate(-10.87 -17.76)"/><circle class="cls-5" cx="267.42" cy="297.13" r="79.8"/><path class="cls-6" d="M283.92,407.34a93.59,93.59,0,0,0,88.31-90.83" transform="translate(-10.87 -17.76)"/><path class="cls-6" d="M372.13,308.64a93.61,93.61,0,0,0-90.83-88.31" transform="translate(-10.87 -17.76)"/><path class="cls-6" d="M273.42,220.44a93.6,93.6,0,0,0-88.31,90.82" transform="translate(-10.87 -17.76)"/><path class="cls-6" d="M185.22,319.14a93.61,93.61,0,0,0,90.83,88.31" transform="translate(-10.87 -17.76)"/><path class="cls-7" d="M278.67,407.49h0m-93.59-93.6h0m93.59-93.6h0m93.6,93.6h0" transform="translate(-10.87 -17.76)"/><path class="cls-8" d="M487.4,422.25a6.09,6.09,0,0,0-4.36-4,4.2,4.2,0,1,0-7.06,0,6.09,6.09,0,0,0-4.36,4,9,9,0,0,1-1.23-4.54,9.12,9.12,0,1,1,18.23,0,8.89,8.89,0,0,1-1.22,4.54m-7.89,4.57a9.07,9.07,0,0,1-6.83-3.1,4.8,4.8,0,0,1,5-4.42.65.65,0,1,0,0-1.29h-.22a2.9,2.9,0,1,1,4.12,0h-.22a.65.65,0,1,0,0,1.29,4.82,4.82,0,0,1,5,4.42,9.09,9.09,0,0,1-6.84,3.1m-23-9.76a10.41,10.41,0,0,0-3.15-6.83l2-2a10.34,10.34,0,0,0,14.37.55l2,2a10.36,10.36,0,0,0-2.6,6.25ZM454,422.25a6.09,6.09,0,0,0-4.36-4,4.2,4.2,0,1,0-7.06,0,6.09,6.09,0,0,0-4.37,4,9.12,9.12,0,1,1,15.79,0m-7.89,4.57a9.09,9.09,0,0,1-6.84-3.1,4.82,4.82,0,0,1,5-4.42.65.65,0,1,0,0-1.29h-.22a2.9,2.9,0,1,1,5-2,2.88,2.88,0,0,1-.85,2H448a.65.65,0,1,0,0,1.29,4.81,4.81,0,0,1,5,4.42,9.07,9.07,0,0,1-6.83,3.1m-6.84-36.47a4.82,4.82,0,0,1,5-4.42.66.66,0,0,0,.65-.65.66.66,0,0,0-.65-.65l-.22,0a2.9,2.9,0,1,1,5-2,2.9,2.9,0,0,1-.85,2l-.21,0a.65.65,0,0,0,0,1.3,4.81,4.81,0,0,1,5,4.42,9.09,9.09,0,0,1-13.67,0m-1.06-1.47a9.12,9.12,0,1,1,15.79,0,6.09,6.09,0,0,0-4.36-4,4.19,4.19,0,1,0-7.73-2.24,4.14,4.14,0,0,0,.67,2.24,6.11,6.11,0,0,0-4.37,4M469.13,385a10.36,10.36,0,0,0,2.68,6.33l-2,2a10.35,10.35,0,0,0-14.53.56l-2-2a10.38,10.38,0,0,0,3.24-6.9Zm10.38-9.77a9.13,9.13,0,0,1,9.12,9.12,8.93,8.93,0,0,1-1.23,4.53,6.13,6.13,0,0,0-4.36-4,4.2,4.2,0,1,0-7.06,0,6.12,6.12,0,0,0-4.36,4,9,9,0,0,1-1.22-4.54,9.13,9.13,0,0,1,9.11-9.12M473.24,401a10.33,10.33,0,0,0-2.53-6.77l2-2a10.39,10.39,0,0,0,6.13,2.5v12.61a10.36,10.36,0,0,0-6.21,2.57l-2-2a10.36,10.36,0,0,0,2.6-6.86m-18.74,6.24-2.13,2.13a10.32,10.32,0,0,0-5.58-2.06V394.72a10.42,10.42,0,0,0,5.49-2l2.16,2.15a10.32,10.32,0,0,0-2,6.14,10.43,10.43,0,0,0,2.09,6.24m-.79-6.24a9.13,9.13,0,1,1,2.12,5.84h0a9.05,9.05,0,0,1-2.11-5.83m25.8-7.57a9.07,9.07,0,0,1-6.83-3.1,4.81,4.81,0,0,1,5-4.42.65.65,0,0,0,0-1.3l-.21,0a2.89,2.89,0,1,1,5-2,2.93,2.93,0,0,1-.84,2l-.22,0a.65.65,0,0,0,0,1.3,4.82,4.82,0,0,1,5,4.42,9.09,9.09,0,0,1-6.84,3.1m.65,13.88V394.72a10.41,10.41,0,1,0-11-11H456.52a10.41,10.41,0,1,0-11,11v12.61a10.41,10.41,0,1,0,11,11h12.61a10.41,10.41,0,1,0,11-11" transform="translate(-10.87 -17.76)"/><path class="cls-8" d="M462.82,398.1A2.92,2.92,0,1,1,459.9,401a2.92,2.92,0,0,1,2.92-2.92m-5.89,3.57h1.74a4.21,4.21,0,0,0,3.51,3.51v1.47a.65.65,0,1,0,1.29,0v-1.47a4.21,4.21,0,0,0,3.51-3.51h1.74a.65.65,0,0,0,0-1.3H467a4.2,4.2,0,0,0-3.51-3.5v-2a.65.65,0,1,0-1.29,0v2a4.2,4.2,0,0,0-3.51,3.5h-1.74a.65.65,0,0,0,0,1.3" transform="translate(-10.87 -17.76)"/></g><path class="cls-9" d="M41.47,427H37.06v2.47h3.79v1H37.06v4.2H35.9V426h5.57Z" transform="translate(-10.87 -17.76)"/><path class="cls-9" d="M48,434.71h-1.1V434a5.72,5.72,0,0,1-1.07.68,2.73,2.73,0,0,1-1.12.23,2.08,2.08,0,0,1-1.61-.63,2.68,2.68,0,0,1-.57-1.85v-4.25h1.1v3.73a6.7,6.7,0,0,0,.05.85,1.57,1.57,0,0,0,.2.61.86.86,0,0,0,.41.37,1.75,1.75,0,0,0,.73.12,2.24,2.24,0,0,0,.93-.22,4.36,4.36,0,0,0,1-.57v-4.89H48Z" transform="translate(-10.87 -17.76)"/><path class="cls-9" d="M55.56,431.55H50.74a2.82,2.82,0,0,0,.18,1.05,1.94,1.94,0,0,0,1.22,1.16,3,3,0,0,0,.92.14,3.61,3.61,0,0,0,1.35-.27,3.15,3.15,0,0,0,1-.52h.06v1.2a8,8,0,0,1-1.13.39,4.49,4.49,0,0,1-1.22.16,3.51,3.51,0,0,1-2.55-.88,3.32,3.32,0,0,1-.91-2.51,3.58,3.58,0,0,1,.88-2.55,3,3,0,0,1,2.3-.94,2.67,2.67,0,0,1,2,.77,3.12,3.12,0,0,1,.72,2.2Zm-1.07-.84a2,2,0,0,0-.44-1.35,1.69,1.69,0,0,0-1.31-.47,1.9,1.9,0,0,0-1.41.52,2,2,0,0,0-.59,1.3Z" transform="translate(-10.87 -17.76)"/><path class="cls-9" d="M62.6,434.71H61.49V431a5.8,5.8,0,0,0-.05-.85,1.51,1.51,0,0,0-.19-.61.89.89,0,0,0-.42-.37,1.87,1.87,0,0,0-.72-.12,2.25,2.25,0,0,0-.94.22,4.88,4.88,0,0,0-1,.57v4.89h-1.1v-6.55h1.1v.73a4.42,4.42,0,0,1,1.07-.67,2.8,2.8,0,0,1,1.13-.24,2,2,0,0,1,1.62.64,2.73,2.73,0,0,1,.56,1.84Z" transform="translate(-10.87 -17.76)"/><path class="cls-9" d="M68,434.65a6.32,6.32,0,0,1-.68.13,4,4,0,0,1-.65.06,2,2,0,0,1-1.53-.54,2.47,2.47,0,0,1-.52-1.73v-3.48h-.74v-.93h.74v-1.88h1.1v1.88H68v.93H65.73v3c0,.35,0,.61,0,.81a1.3,1.3,0,0,0,.16.54.74.74,0,0,0,.36.34,1.68,1.68,0,0,0,.68.11,2.37,2.37,0,0,0,.57-.08l.42-.13H68Z" transform="translate(-10.87 -17.76)"/><path class="cls-9" d="M74.7,431.55H69.87a2.62,2.62,0,0,0,.19,1.05,2,2,0,0,0,.49.74,2.11,2.11,0,0,0,.73.42,3,3,0,0,0,.92.14,3.6,3.6,0,0,0,1.34-.27,3.11,3.11,0,0,0,1-.52h.06v1.2a7.66,7.66,0,0,1-1.14.39,4.44,4.44,0,0,1-1.22.16,3.5,3.5,0,0,1-2.54-.88,3.32,3.32,0,0,1-.92-2.51,3.62,3.62,0,0,1,.88-2.55,3,3,0,0,1,2.31-.94,2.67,2.67,0,0,1,2,.77,3.12,3.12,0,0,1,.72,2.2Zm-1.08-.84a2,2,0,0,0-.43-1.35,1.72,1.72,0,0,0-1.31-.47,1.9,1.9,0,0,0-1.41.52,2.05,2.05,0,0,0-.6,1.3Z" transform="translate(-10.87 -17.76)"/><path class="cls-9" d="M80.93,432.82a1.76,1.76,0,0,1-.74,1.47,3.23,3.23,0,0,1-2,.58,4.72,4.72,0,0,1-1.34-.18,6,6,0,0,1-1-.37v-1.24h.06a4.16,4.16,0,0,0,1.16.62,3.41,3.41,0,0,0,1.22.23,2.28,2.28,0,0,0,1.14-.23.8.8,0,0,0,.41-.74.75.75,0,0,0-.22-.58,1.92,1.92,0,0,0-.86-.34l-.61-.13a5.92,5.92,0,0,1-.69-.15,2.28,2.28,0,0,1-1.22-.67,1.68,1.68,0,0,1-.36-1.09,1.79,1.79,0,0,1,.16-.76,1.93,1.93,0,0,1,.51-.64,2.37,2.37,0,0,1,.84-.43,3.58,3.58,0,0,1,1.13-.17,4.91,4.91,0,0,1,1.19.15,4.14,4.14,0,0,1,1,.35v1.17h-.06a4.13,4.13,0,0,0-1-.52,3.59,3.59,0,0,0-1.18-.21,2,2,0,0,0-1,.23.74.74,0,0,0-.42.69.77.77,0,0,0,.25.61,2.18,2.18,0,0,0,.8.33l.68.14.63.13a2.39,2.39,0,0,1,1.19.6A1.62,1.62,0,0,1,80.93,432.82Z" transform="translate(-10.87 -17.76)"/><path class="cls-9" d="M91.82,434.71h-1.1V434a3.88,3.88,0,0,1-1,.64,2.77,2.77,0,0,1-1.12.23,2.22,2.22,0,0,1-1.86-.9,4,4,0,0,1-.69-2.5A4.31,4.31,0,0,1,86.3,430a3.39,3.39,0,0,1,.64-1.1,2.66,2.66,0,0,1,.93-.68A2.63,2.63,0,0,1,89,428a3.54,3.54,0,0,1,.91.11,3.61,3.61,0,0,1,.84.34v-2.84h1.1Zm-1.1-1.61v-3.76a4.19,4.19,0,0,0-.8-.27,3.09,3.09,0,0,0-.77-.08,1.75,1.75,0,0,0-1.44.64,2.89,2.89,0,0,0-.51,1.83,3.18,3.18,0,0,0,.4,1.77,1.39,1.39,0,0,0,1.27.61,2.33,2.33,0,0,0,.95-.21A4.09,4.09,0,0,0,90.72,433.1Z" transform="translate(-10.87 -17.76)"/><path class="cls-9" d="M99.35,431.55H94.52a2.81,2.81,0,0,0,.19,1.05,2,2,0,0,0,.49.74,2.11,2.11,0,0,0,.73.42,3,3,0,0,0,.92.14,3.65,3.65,0,0,0,1.35-.27,3.15,3.15,0,0,0,1-.52h.06v1.2a7.66,7.66,0,0,1-1.14.39,4.44,4.44,0,0,1-1.22.16,3.5,3.5,0,0,1-2.54-.88,3.32,3.32,0,0,1-.91-2.51,3.62,3.62,0,0,1,.87-2.55,3,3,0,0,1,2.31-.94,2.67,2.67,0,0,1,2,.77,3.12,3.12,0,0,1,.72,2.2Zm-1.08-.84a1.94,1.94,0,0,0-.43-1.35,1.72,1.72,0,0,0-1.31-.47,1.9,1.9,0,0,0-1.41.52,2.05,2.05,0,0,0-.6,1.3Z" transform="translate(-10.87 -17.76)"/><path class="cls-9" d="M106.2,427.07H105v-1.15h1.24Zm-.07,7.64H105v-6.55h1.1Z" transform="translate(-10.87 -17.76)"/><path class="cls-9" d="M113.67,434.71h-1.11V431a5.8,5.8,0,0,0,0-.85,1.51,1.51,0,0,0-.19-.61.89.89,0,0,0-.42-.37,1.87,1.87,0,0,0-.72-.12,2.25,2.25,0,0,0-.94.22,5.2,5.2,0,0,0-.95.57v4.89h-1.1v-6.55h1.1v.73a4.42,4.42,0,0,1,1.07-.67,2.8,2.8,0,0,1,1.13-.24,2,2,0,0,1,1.62.64,2.73,2.73,0,0,1,.56,1.84Z" transform="translate(-10.87 -17.76)"/><path class="cls-9" d="M121,434a3.39,3.39,0,0,1-.76,2.45,3.1,3.1,0,0,1-2.32.78,6.8,6.8,0,0,1-1-.08,8.1,8.1,0,0,1-1-.2v-1.13H116a8.14,8.14,0,0,0,.86.26,4.71,4.71,0,0,0,1.17.16,2.76,2.76,0,0,0,.93-.14,1.26,1.26,0,0,0,.57-.37,1.41,1.41,0,0,0,.3-.55,2.73,2.73,0,0,0,.09-.72v-.6a4.45,4.45,0,0,1-1,.59,2.89,2.89,0,0,1-1.15.2,2.25,2.25,0,0,1-1.86-.85,3.68,3.68,0,0,1-.69-2.39,4.2,4.2,0,0,1,.23-1.45,3.43,3.43,0,0,1,.65-1.06,2.69,2.69,0,0,1,.93-.65,2.8,2.8,0,0,1,1.08-.23,3.19,3.19,0,0,1,.95.12,4.21,4.21,0,0,1,.82.34l.07-.28h1Zm-1.1-1v-3.57a4.2,4.2,0,0,0-.82-.28,3.2,3.2,0,0,0-.75-.09,1.76,1.76,0,0,0-1.43.61,2.65,2.65,0,0,0-.53,1.77,3,3,0,0,0,.39,1.67,1.44,1.44,0,0,0,1.28.57,2.58,2.58,0,0,0,1-.19A3.36,3.36,0,0,0,119.89,432.91Z" transform="translate(-10.87 -17.76)"/><path class="cls-9" d="M127.12,429.36h-.06l-.48-.08a4.16,4.16,0,0,0-.54,0,2.31,2.31,0,0,0-1,.23,4.23,4.23,0,0,0-.91.58v4.65H123v-6.55h1.1v1a5.53,5.53,0,0,1,1.15-.75,2.69,2.69,0,0,1,1-.22l.41,0,.39.05Z" transform="translate(-10.87 -17.76)"/><path class="cls-9" d="M133.53,431.55H128.7a2.81,2.81,0,0,0,.19,1.05,2,2,0,0,0,.49.74,2.11,2.11,0,0,0,.73.42,3,3,0,0,0,.92.14,3.65,3.65,0,0,0,1.35-.27,3.15,3.15,0,0,0,1-.52h.06v1.2a7.66,7.66,0,0,1-1.14.39,4.44,4.44,0,0,1-1.22.16,3.5,3.5,0,0,1-2.54-.88,3.32,3.32,0,0,1-.91-2.51,3.62,3.62,0,0,1,.87-2.55,3,3,0,0,1,2.31-.94,2.67,2.67,0,0,1,2,.77,3.12,3.12,0,0,1,.72,2.2Zm-1.08-.84a1.94,1.94,0,0,0-.43-1.35,1.72,1.72,0,0,0-1.31-.47,1.9,1.9,0,0,0-1.41.52,2.05,2.05,0,0,0-.6,1.3Z" transform="translate(-10.87 -17.76)"/><path class="cls-9" d="M139.76,432.82a1.76,1.76,0,0,1-.74,1.47,3.23,3.23,0,0,1-2,.58,4.6,4.6,0,0,1-1.33-.18,5.87,5.87,0,0,1-1-.37v-1.24h.06a4.31,4.31,0,0,0,1.16.62,3.41,3.41,0,0,0,1.22.23,2.26,2.26,0,0,0,1.14-.23.8.8,0,0,0,.41-.74.72.72,0,0,0-.22-.58,1.92,1.92,0,0,0-.86-.34l-.61-.13a5.92,5.92,0,0,1-.69-.15,2.32,2.32,0,0,1-1.22-.67,1.68,1.68,0,0,1-.36-1.09,1.66,1.66,0,0,1,.17-.76,1.89,1.89,0,0,1,.5-.64,2.37,2.37,0,0,1,.84-.43,3.62,3.62,0,0,1,1.13-.17,4.91,4.91,0,0,1,1.19.15,4.14,4.14,0,0,1,1,.35v1.17h-.06a4,4,0,0,0-1-.52,3.54,3.54,0,0,0-1.18-.21,2,2,0,0,0-1,.23.74.74,0,0,0-.42.69.74.74,0,0,0,.26.61,2.12,2.12,0,0,0,.79.33l.69.14.62.13a2.39,2.39,0,0,1,1.19.6A1.57,1.57,0,0,1,139.76,432.82Z" transform="translate(-10.87 -17.76)"/><path class="cls-9" d="M146.81,431.44A3.64,3.64,0,0,1,146,434a3.07,3.07,0,0,1-4.4,0,4.3,4.3,0,0,1,0-5,3.07,3.07,0,0,1,4.4,0A3.67,3.67,0,0,1,146.81,431.44Zm-1.14,0a3,3,0,0,0-.49-1.89,1.87,1.87,0,0,0-2.78,0,3.83,3.83,0,0,0,0,3.75,1.83,1.83,0,0,0,2.77,0A2.92,2.92,0,0,0,145.67,431.44Z" transform="translate(-10.87 -17.76)"/><path class="cls-9" d="M62.9,452.72H61.06a7.81,7.81,0,0,1-1.39-2.26,7.42,7.42,0,0,1,0-5.09,7.81,7.81,0,0,1,1.39-2.26H62.9v.14a7.4,7.4,0,0,0-.76.81,6.22,6.22,0,0,0-.66,1.06,5.76,5.76,0,0,0-.48,1.29,6.07,6.07,0,0,0-.18,1.51,5.9,5.9,0,0,0,.18,1.51,6.75,6.75,0,0,0,.48,1.28,5.51,5.51,0,0,0,.66,1.05,6.75,6.75,0,0,0,.76.82Z" transform="translate(-10.87 -17.76)"/><path class="cls-9" d="M70.14,446.82v3.89H68.37V448a6.75,6.75,0,0,0,0-.68,1.16,1.16,0,0,0-.1-.46.51.51,0,0,0-.27-.25,1.12,1.12,0,0,0-.5-.09,1.25,1.25,0,0,0-.5.11,3,3,0,0,0-.44.22v3.89H64.78v-5.49h1.76v.61a4.87,4.87,0,0,1,.87-.56,2.09,2.09,0,0,1,.91-.2,1.81,1.81,0,0,1,1,.25,1.61,1.61,0,0,1,.65.71,5.32,5.32,0,0,1,1-.7,2.15,2.15,0,0,1,1-.26,1.65,1.65,0,0,1,1.34.54,2.24,2.24,0,0,1,.47,1.53v3.57H72V448c0-.27,0-.5,0-.68a1.35,1.35,0,0,0-.11-.46.46.46,0,0,0-.26-.25,1.16,1.16,0,0,0-.51-.09,1.26,1.26,0,0,0-.43.08A2.92,2.92,0,0,0,70.14,446.82Z" transform="translate(-10.87 -17.76)"/><path class="cls-9" d="M81.06,450.71H79.3v-.61a5,5,0,0,1-.89.57,2.36,2.36,0,0,1-1,.19,1.8,1.8,0,0,1-1.39-.52,2.19,2.19,0,0,1-.49-1.55v-3.57h1.76v2.72a6.81,6.81,0,0,0,0,.7,1.14,1.14,0,0,0,.12.45.61.61,0,0,0,.28.27,1.48,1.48,0,0,0,.53.08,1.85,1.85,0,0,0,.49-.08,2.14,2.14,0,0,0,.53-.25v-3.89h1.76Zm-1.14-8.19v.1l-1.72,1.82H77l1.2-1.92Z" transform="translate(-10.87 -17.76)"/><path class="cls-9" d="M84.73,450.71H83v-7.6h1.76Z" transform="translate(-10.87 -17.76)"/><path class="cls-9" d="M90.14,450.66a3.75,3.75,0,0,1-.6.11,5.56,5.56,0,0,1-.78.05,2.32,2.32,0,0,1-1.52-.42,1.74,1.74,0,0,1-.5-1.42v-2.56H86v-1.2h.73v-1.56H88.5v1.56h1.64v1.2H88.5v2.45a1.12,1.12,0,0,0,.08.38.53.53,0,0,0,.24.27,1,1,0,0,0,.51.1,1.82,1.82,0,0,0,.35-.05,1.68,1.68,0,0,0,.31-.11h.15Z" transform="translate(-10.87 -17.76)"/><path class="cls-9" d="M93.25,444.44H91.39v-1.33h1.86Zm0,6.27H91.44v-5.49H93.2Z" transform="translate(-10.87 -17.76)"/><path class="cls-9" d="M100.83,447.89a3.55,3.55,0,0,1-.21,1.24,2.78,2.78,0,0,1-.54.91,2.34,2.34,0,0,1-.8.58,2.31,2.31,0,0,1-1,.2,3,3,0,0,1-.79-.1,4.24,4.24,0,0,1-.67-.29v2.29H95.11v-7.5h1.76v.58a4.15,4.15,0,0,1,.83-.53,2.27,2.27,0,0,1,1-.2,1.87,1.87,0,0,1,1.59.76A3.32,3.32,0,0,1,100.83,447.89Zm-1.81,0a1.94,1.94,0,0,0-.27-1.16,1,1,0,0,0-.87-.36,1.89,1.89,0,0,0-.51.07,2,2,0,0,0-.5.22v2.75a1.18,1.18,0,0,0,.37.09l.4,0a1.3,1.3,0,0,0,1-.41A1.91,1.91,0,0,0,99,447.93Z" transform="translate(-10.87 -17.76)"/><path class="cls-9" d="M104.1,450.71h-1.76v-7.6h1.76Z" transform="translate(-10.87 -17.76)"/><path class="cls-9" d="M111.41,448.29h-4a1.29,1.29,0,0,0,.49,1,2.27,2.27,0,0,0,1.33.34,3,3,0,0,0,1.08-.2,3.34,3.34,0,0,0,.83-.43h.19v1.41a6.21,6.21,0,0,1-1.12.35,6,6,0,0,1-1.17.1,3.75,3.75,0,0,1-2.52-.74,2.59,2.59,0,0,1-.88-2.11,2.8,2.8,0,0,1,.83-2.15,3.15,3.15,0,0,1,2.28-.8,2.73,2.73,0,0,1,2,.68,2.64,2.64,0,0,1,.68,1.95Zm-1.75-1a1.25,1.25,0,0,0-.27-.83,1.1,1.1,0,0,0-.81-.28,1.24,1.24,0,0,0-.83.27,1.08,1.08,0,0,0-.37.84Z" transform="translate(-10.87 -17.76)"/><path class="cls-9" d="M117.65,449a1.58,1.58,0,0,1-.76,1.37,3.62,3.62,0,0,1-2.08.52,6,6,0,0,1-1.33-.14,5,5,0,0,1-1-.3V449h.16l.31.21a2.88,2.88,0,0,0,.49.23,4.11,4.11,0,0,0,.62.2,3.5,3.5,0,0,0,.74.08,1.87,1.87,0,0,0,.77-.12.37.37,0,0,0,.25-.34.32.32,0,0,0-.15-.29,2.09,2.09,0,0,0-.56-.17l-.53-.1a4.54,4.54,0,0,1-.6-.12,2.11,2.11,0,0,1-1.11-.61,1.5,1.5,0,0,1-.36-1,1.56,1.56,0,0,1,.75-1.31,3.48,3.48,0,0,1,2-.53,5,5,0,0,1,1.18.13,4.79,4.79,0,0,1,.88.26v1.39h-.15a3.69,3.69,0,0,0-.89-.44,3.18,3.18,0,0,0-1-.16,2,2,0,0,0-.72.11c-.19.08-.29.19-.29.33a.38.38,0,0,0,.13.3,1.83,1.83,0,0,0,.62.21l.58.1.63.13a1.93,1.93,0,0,1,1,.57A1.44,1.44,0,0,1,117.65,449Z" transform="translate(-10.87 -17.76)"/><path class="cls-9" d="M122.72,447.92a7,7,0,0,1-.45,2.54,7.81,7.81,0,0,1-1.39,2.26H119v-.14a6.08,6.08,0,0,0,.76-.82,5.51,5.51,0,0,0,.66-1.05,6.75,6.75,0,0,0,.48-1.28,5.9,5.9,0,0,0,.18-1.51,6.07,6.07,0,0,0-.18-1.51,5.76,5.76,0,0,0-.48-1.29,5.67,5.67,0,0,0-.67-1.06,6.48,6.48,0,0,0-.75-.81v-.14h1.84a7.81,7.81,0,0,1,1.39,2.26A7,7,0,0,1,122.72,447.92Z" transform="translate(-10.87 -17.76)"/><path class="cls-9" d="M269.9,553.73a2.3,2.3,0,0,1-.24,1,2.35,2.35,0,0,1-.66.84,3.57,3.57,0,0,1-1.09.59,4.78,4.78,0,0,1-1.51.21,7.24,7.24,0,0,1-1.69-.18,8,8,0,0,1-1.54-.52v-1.45h.09a4.75,4.75,0,0,0,1.53.85,4.94,4.94,0,0,0,1.62.3,3,3,0,0,0,1.68-.41,1.25,1.25,0,0,0,.6-1.08,1.13,1.13,0,0,0-.28-.85,2,2,0,0,0-.86-.43,8.16,8.16,0,0,0-1-.19c-.34,0-.7-.12-1.08-.2a3.13,3.13,0,0,1-1.72-.84,2.13,2.13,0,0,1-.56-1.55,2.15,2.15,0,0,1,.92-1.79,3.77,3.77,0,0,1,2.35-.7,7.37,7.37,0,0,1,3.05.61v1.37h-.08a4,4,0,0,0-1.31-.7,5,5,0,0,0-1.66-.28,2.61,2.61,0,0,0-1.5.39,1.15,1.15,0,0,0-.57,1,1.22,1.22,0,0,0,.29.86,1.83,1.83,0,0,0,1,.47c.25.06.6.12,1.06.2s.85.16,1.17.24a3,3,0,0,1,1.47.78A2,2,0,0,1,269.9,553.73Z" transform="translate(-10.87 -17.76)"/><path class="cls-9" d="M277.06,556.22H276v-.7l-.4.28a2.79,2.79,0,0,1-.48.29,3.42,3.42,0,0,1-.64.22,3.34,3.34,0,0,1-.83.09,2.09,2.09,0,0,1-1.5-.58,2,2,0,0,1-.62-1.5,2.08,2.08,0,0,1,.32-1.2,2.16,2.16,0,0,1,.91-.73,5.07,5.07,0,0,1,1.44-.35c.56-.07,1.16-.11,1.8-.14v-.17a1.26,1.26,0,0,0-.14-.62.87.87,0,0,0-.37-.39,1.59,1.59,0,0,0-.57-.18,4.83,4.83,0,0,0-.68,0,5.14,5.14,0,0,0-1,.11,7.62,7.62,0,0,0-1.1.34h-.06v-1.12c.22-.06.53-.13.93-.2a7.11,7.11,0,0,1,1.2-.1,6,6,0,0,1,1.21.11,2.49,2.49,0,0,1,.89.39,1.76,1.76,0,0,1,.56.7,2.54,2.54,0,0,1,.19,1.06ZM276,554.61v-1.82l-1.19.09a5.81,5.81,0,0,0-1.08.16,1.79,1.79,0,0,0-.77.42,1.07,1.07,0,0,0-.29.79,1,1,0,0,0,.34.84,1.57,1.57,0,0,0,1,.29,2.49,2.49,0,0,0,1.06-.23A5,5,0,0,0,276,554.61Z" transform="translate(-10.87 -17.76)"/><path class="cls-9" d="M280.6,556.22h-1.1V547.1h1.1Z" transform="translate(-10.87 -17.76)"/><path class="cls-9" d="M288.49,556.22h-1.1v-.73a5.25,5.25,0,0,1-1.07.68,2.73,2.73,0,0,1-1.12.23,2.08,2.08,0,0,1-1.61-.63,2.66,2.66,0,0,1-.57-1.85v-4.24h1.1v3.72a6.7,6.7,0,0,0,.05.85,1.42,1.42,0,0,0,.2.61.94.94,0,0,0,.41.38,1.93,1.93,0,0,0,.73.11,2.32,2.32,0,0,0,.93-.22,4.36,4.36,0,0,0,.95-.57v-4.88h1.1Z" transform="translate(-10.87 -17.76)"/><path class="cls-9" d="M296.27,556.22h-1.1v-.68a4.12,4.12,0,0,1-1,.63,2.64,2.64,0,0,1-1.12.23,2.2,2.2,0,0,1-1.86-.9,4,4,0,0,1-.69-2.5,4.47,4.47,0,0,1,.23-1.48,3.36,3.36,0,0,1,.65-1.11,2.54,2.54,0,0,1,.92-.68,2.66,2.66,0,0,1,1.1-.24,3.63,3.63,0,0,1,.92.11,4.62,4.62,0,0,1,.84.34V547.1h1.1Zm-1.1-1.61v-3.76a4.43,4.43,0,0,0-.8-.27,3.71,3.71,0,0,0-.77-.08,1.73,1.73,0,0,0-1.44.65,2.88,2.88,0,0,0-.52,1.82,3.33,3.33,0,0,0,.4,1.78,1.43,1.43,0,0,0,1.28.6,2.53,2.53,0,0,0,.95-.2A4.13,4.13,0,0,0,295.17,554.61Z" transform="translate(-10.87 -17.76)"/><path class="cls-9" d="M421.43,447.49c-.22.1-.41.18-.58.27a7.21,7.21,0,0,1-.69.25,5.42,5.42,0,0,1-.77.19,4.48,4.48,0,0,1-.93.08,5.49,5.49,0,0,1-1.72-.26,3.5,3.5,0,0,1-1.35-.84,3.72,3.72,0,0,1-.88-1.41,5.83,5.83,0,0,1-.32-2,5.54,5.54,0,0,1,.31-1.93,3.79,3.79,0,0,1,.88-1.43,3.62,3.62,0,0,1,1.34-.87,4.91,4.91,0,0,1,1.75-.3,6,6,0,0,1,1.4.17,7.57,7.57,0,0,1,1.56.6v1.38h-.09a5,5,0,0,0-1.43-.88,4,4,0,0,0-1.52-.28,3,3,0,0,0-1.19.22,2.63,2.63,0,0,0-.95.66,3,3,0,0,0-.63,1.11,4.92,4.92,0,0,0-.22,1.55,4.4,4.4,0,0,0,.25,1.58,3.16,3.16,0,0,0,.64,1.08,2.5,2.5,0,0,0,1,.64,3.17,3.17,0,0,0,1.15.21A4.15,4.15,0,0,0,420,447a4.48,4.48,0,0,0,1.37-.86h.08Z" transform="translate(-10.87 -17.76)"/><path class="cls-9" d="M428.17,448.12h-1.11v-.72a5.12,5.12,0,0,1-1.06.67,2.63,2.63,0,0,1-1.13.24,2.06,2.06,0,0,1-1.6-.63,2.68,2.68,0,0,1-.58-1.85v-4.25h1.11v3.73a7,7,0,0,0,0,.85,1.57,1.57,0,0,0,.2.61,1,1,0,0,0,.41.37,1.75,1.75,0,0,0,.73.12,2.5,2.5,0,0,0,.94-.22,4.29,4.29,0,0,0,.94-.57v-4.89h1.11Z" transform="translate(-10.87 -17.76)"/><path class="cls-9" d="M439.66,448.12h-1.1V444.4c0-.28,0-.55,0-.82a1.79,1.79,0,0,0-.16-.62.84.84,0,0,0-.39-.38,1.59,1.59,0,0,0-.73-.13,2,2,0,0,0-.92.23,5.33,5.33,0,0,0-.93.59c0,.09,0,.19,0,.31s0,.24,0,.36v4.18h-1.1V444.4a7,7,0,0,0,0-.82,1.7,1.7,0,0,0-.16-.63.93.93,0,0,0-.38-.38,1.75,1.75,0,0,0-.73-.12,2.06,2.06,0,0,0-.91.22,5.6,5.6,0,0,0-.9.57v4.88h-1.1v-6.54h1.1v.73a4.41,4.41,0,0,1,1-.67,2.52,2.52,0,0,1,1.09-.24,2.13,2.13,0,0,1,1.13.28,1.76,1.76,0,0,1,.7.78,4.93,4.93,0,0,1,1.22-.81,2.73,2.73,0,0,1,1.17-.25,1.91,1.91,0,0,1,1.59.65,2.87,2.87,0,0,1,.52,1.83Z" transform="translate(-10.87 -17.76)"/><path class="cls-9" d="M447.31,444.77a4.52,4.52,0,0,1-.23,1.46,3.32,3.32,0,0,1-.64,1.12,2.87,2.87,0,0,1-.91.67,2.79,2.79,0,0,1-1.11.23,3.39,3.39,0,0,1-.93-.11,4.11,4.11,0,0,1-.84-.34v2.74h-1.1v-9h1.1v.69a4,4,0,0,1,1-.62,2.7,2.7,0,0,1,1.17-.25,2.16,2.16,0,0,1,1.84.89A4.11,4.11,0,0,1,447.31,444.77Zm-1.14,0a3.13,3.13,0,0,0-.4-1.77,1.4,1.4,0,0,0-1.24-.58,2.54,2.54,0,0,0-1,.2,4.81,4.81,0,0,0-.92.54v3.71a4.25,4.25,0,0,0,.81.29,3.51,3.51,0,0,0,.76.07,1.75,1.75,0,0,0,1.44-.62A2.82,2.82,0,0,0,446.17,444.8Z" transform="translate(-10.87 -17.76)"/><path class="cls-9" d="M449.9,448.12h-1.1V439h1.1Z" transform="translate(-10.87 -17.76)"/><path class="cls-9" d="M453,440.48h-1.24v-1.14H453Zm-.07,7.64h-1.1v-6.54H453Z" transform="translate(-10.87 -17.76)"/><path class="cls-9" d="M459,442.78h-.06a2.83,2.83,0,0,0-.48-.08,4.33,4.33,0,0,0-.55,0,2.27,2.27,0,0,0-1,.23,4.56,4.56,0,0,0-.92.58v4.64h-1.1v-6.54H456v1a5.83,5.83,0,0,1,1.16-.75,2.5,2.5,0,0,1,1-.22h.42l.39.06Z" transform="translate(-10.87 -17.76)"/><path class="cls-9" d="M468.44,446.24a1.78,1.78,0,0,1-.74,1.47,3.23,3.23,0,0,1-2,.57,4.73,4.73,0,0,1-1.34-.17,5.24,5.24,0,0,1-1-.38V446.5h.05a4.46,4.46,0,0,0,1.16.62,3.75,3.75,0,0,0,1.23.23,2.42,2.42,0,0,0,1.14-.23.81.81,0,0,0,.41-.74.76.76,0,0,0-.23-.59,2.12,2.12,0,0,0-.85-.34l-.61-.12-.69-.15a2.28,2.28,0,0,1-1.22-.67,1.69,1.69,0,0,1-.37-1.09A1.78,1.78,0,0,1,464,442a2.61,2.61,0,0,1,.83-.44,4,4,0,0,1,1.14-.16,4.83,4.83,0,0,1,1.18.15,4.47,4.47,0,0,1,1,.34v1.18h-.06a3.75,3.75,0,0,0-1-.52,3.36,3.36,0,0,0-1.18-.22,2.08,2.08,0,0,0-1,.23.76.76,0,0,0-.42.69.72.72,0,0,0,.25.61,2,2,0,0,0,.8.34l.68.14c.25,0,.46.09.63.13a2.21,2.21,0,0,1,1.18.6A1.58,1.58,0,0,1,468.44,446.24Z" transform="translate(-10.87 -17.76)"/><path class="cls-9" d="M475.2,448.12h-1.1v-.72a5.17,5.17,0,0,1-1.07.67,2.59,2.59,0,0,1-1.12.24,2.08,2.08,0,0,1-1.61-.63,2.68,2.68,0,0,1-.57-1.85v-4.25h1.1v3.73a6.82,6.82,0,0,0,.05.85,1.57,1.57,0,0,0,.2.61.92.92,0,0,0,.41.37,1.75,1.75,0,0,0,.73.12,2.41,2.41,0,0,0,.93-.22,4.36,4.36,0,0,0,1-.57v-4.89h1.1Z" transform="translate(-10.87 -17.76)"/><path class="cls-9" d="M481.82,446.24a1.78,1.78,0,0,1-.74,1.47,3.26,3.26,0,0,1-2,.57,4.66,4.66,0,0,1-1.33-.17,5.63,5.63,0,0,1-1-.38V446.5h.06a4.46,4.46,0,0,0,1.16.62,3.75,3.75,0,0,0,1.23.23,2.35,2.35,0,0,0,1.13-.23.79.79,0,0,0,.41-.74.76.76,0,0,0-.22-.59,2.12,2.12,0,0,0-.85-.34l-.62-.12-.69-.15a2.32,2.32,0,0,1-1.22-.67,1.68,1.68,0,0,1-.36-1.09,1.78,1.78,0,0,1,.68-1.4,2.41,2.41,0,0,1,.83-.44,4,4,0,0,1,1.13-.16,4.85,4.85,0,0,1,1.19.15,4.65,4.65,0,0,1,1,.34v1.18h-.06a3.75,3.75,0,0,0-1-.52,3.42,3.42,0,0,0-1.19-.22,2.13,2.13,0,0,0-1,.23.76.76,0,0,0-.41.69.72.72,0,0,0,.25.61,2,2,0,0,0,.8.34l.68.14c.25,0,.46.09.63.13a2.25,2.25,0,0,1,1.18.6A1.58,1.58,0,0,1,481.82,446.24Z" transform="translate(-10.87 -17.76)"/><path class="cls-9" d="M491.23,442.78h-.06a2.67,2.67,0,0,0-.48-.08,4.16,4.16,0,0,0-.54,0,2.31,2.31,0,0,0-1,.23,4.23,4.23,0,0,0-.91.58v4.64h-1.1v-6.54h1.1v1a5.53,5.53,0,0,1,1.15-.75,2.51,2.51,0,0,1,1-.22h.41l.39.06Z" transform="translate(-10.87 -17.76)"/><path class="cls-9" d="M497.62,444.86a3.71,3.71,0,0,1-.82,2.52,3.08,3.08,0,0,1-4.41,0,4.34,4.34,0,0,1,0-5.05,3.08,3.08,0,0,1,4.41,0A3.72,3.72,0,0,1,497.62,444.86Zm-1.14,0A3,3,0,0,0,496,443a1.86,1.86,0,0,0-2.77,0,3.77,3.77,0,0,0,0,3.75,1.66,1.66,0,0,0,1.39.64,1.68,1.68,0,0,0,1.38-.63A3,3,0,0,0,496.48,444.86Z" transform="translate(-10.87 -17.76)"/><path class="cls-9" d="M500.21,448.12h-1.1V439h1.1Z" transform="translate(-10.87 -17.76)"/><path class="cls-9" d="M507.62,445H502.8a2.82,2.82,0,0,0,.18,1,2.06,2.06,0,0,0,.5.73,2.14,2.14,0,0,0,.73.43,3,3,0,0,0,.92.14,3.6,3.6,0,0,0,1.34-.27,3.47,3.47,0,0,0,1-.52h.06v1.2a11.79,11.79,0,0,1-1.14.39,4.85,4.85,0,0,1-1.22.16,3.53,3.53,0,0,1-2.54-.88,3.34,3.34,0,0,1-.92-2.51,3.62,3.62,0,0,1,.88-2.55,3,3,0,0,1,2.31-.94,2.67,2.67,0,0,1,2,.77,3.12,3.12,0,0,1,.71,2.2Zm-1.07-.85a2,2,0,0,0-.43-1.34,1.68,1.68,0,0,0-1.31-.47,1.9,1.9,0,0,0-1.41.52,2.05,2.05,0,0,0-.6,1.29Z" transform="translate(-10.87 -17.76)"/><path class="cls-9" d="M513.74,446.24a1.76,1.76,0,0,1-.74,1.47,3.23,3.23,0,0,1-2,.57,4.73,4.73,0,0,1-1.34-.17,5.24,5.24,0,0,1-1-.38V446.5h.06a4.16,4.16,0,0,0,1.16.62,3.64,3.64,0,0,0,1.22.23,2.4,2.4,0,0,0,1.14-.23.81.81,0,0,0,.41-.74.76.76,0,0,0-.23-.59,2.06,2.06,0,0,0-.85-.34l-.61-.12-.69-.15a2.28,2.28,0,0,1-1.22-.67,1.68,1.68,0,0,1-.36-1.09,1.79,1.79,0,0,1,.16-.76,1.81,1.81,0,0,1,.51-.64,2.56,2.56,0,0,1,.84-.44,3.9,3.9,0,0,1,1.13-.16,4.91,4.91,0,0,1,1.19.15,4.37,4.37,0,0,1,1,.34v1.18h-.05a4,4,0,0,0-1-.52,3.36,3.36,0,0,0-1.18-.22,2.11,2.11,0,0,0-1,.23.81.81,0,0,0-.17,1.3,2,2,0,0,0,.8.34l.68.14c.26,0,.47.09.63.13a2.28,2.28,0,0,1,1.19.6A1.62,1.62,0,0,1,513.74,446.24Z" transform="translate(-10.87 -17.76)"/><path class="cls-9" d="M456.09,230.55h-1.16v-4.27h-4.35v4.27h-1.16v-8.72h1.16v3.42h4.35v-3.42h1.16Z" transform="translate(-10.87 -17.76)"/><path class="cls-9" d="M459.82,222.91h-1.24v-1.14h1.24Zm-.07,7.64h-1.1V224h1.1Z" transform="translate(-10.87 -17.76)"/><path class="cls-9" d="M464.19,230.71a2.34,2.34,0,0,1-.59,1.73A2.08,2.08,0,0,1,462,233a4,4,0,0,1-.62-.05,6,6,0,0,1-.64-.11v-1.05h.06c.11,0,.25.09.44.14a1.79,1.79,0,0,0,.54.09,1.63,1.63,0,0,0,.68-.12.89.89,0,0,0,.39-.35,1.82,1.82,0,0,0,.17-.57c0-.22,0-.49,0-.8v-5.28h-1.36V224h2.47Zm.07-7.8H463v-1.14h1.25Z" transform="translate(-10.87 -17.76)"/><path class="cls-9" d="M472.21,227.28a3.67,3.67,0,0,1-.82,2.53,3.09,3.09,0,0,1-4.4,0,4.31,4.31,0,0,1,0-5.06,3.09,3.09,0,0,1,4.4,0A3.69,3.69,0,0,1,472.21,227.28Zm-1.13,0a3,3,0,0,0-.5-1.89,1.68,1.68,0,0,0-1.38-.62,1.7,1.7,0,0,0-1.4.62,3.82,3.82,0,0,0,0,3.76,1.66,1.66,0,0,0,1.39.63,1.68,1.68,0,0,0,1.38-.63A3,3,0,0,0,471.08,227.28Z" transform="translate(-10.87 -17.76)"/><path class="cls-9" d="M478.89,228.67a1.78,1.78,0,0,1-.74,1.47,3.23,3.23,0,0,1-2,.57,5,5,0,0,1-1.33-.17,5.81,5.81,0,0,1-1-.38v-1.24h.06a4.33,4.33,0,0,0,1.16.63,3.64,3.64,0,0,0,1.22.23,2.25,2.25,0,0,0,1.14-.24.78.78,0,0,0,.41-.73.74.74,0,0,0-.22-.59,2,2,0,0,0-.86-.34l-.61-.12c-.25,0-.48-.1-.69-.16a2.25,2.25,0,0,1-1.22-.67,1.79,1.79,0,0,1-.19-1.84,1.8,1.8,0,0,1,.5-.64,2.39,2.39,0,0,1,.84-.44,3.63,3.63,0,0,1,1.13-.16,5.44,5.44,0,0,1,1.19.14,4.62,4.62,0,0,1,1,.35v1.18h-.06a4.14,4.14,0,0,0-1-.53,3.54,3.54,0,0,0-1.18-.21,2.13,2.13,0,0,0-1,.23.76.76,0,0,0-.42.69.74.74,0,0,0,.26.61,1.83,1.83,0,0,0,.79.33c.21.05.43.1.68.14l.63.13a2.32,2.32,0,0,1,1.19.61A1.57,1.57,0,0,1,478.89,228.67Z" transform="translate(-10.87 -17.76)"/><path class="cls-9" d="M263.7,123.38h-4.41v2.46h3.79v1h-3.79v4.2h-1.16v-8.72h5.57Z" transform="translate(-10.87 -17.76)"/><path class="cls-9" d="M269.74,131.07h-1.09v-.69l-.4.27a2.45,2.45,0,0,1-.48.29,3.09,3.09,0,0,1-.63.22,3.49,3.49,0,0,1-.84.09,2.09,2.09,0,0,1-1.5-.58,2,2,0,0,1-.62-1.5,2.1,2.1,0,0,1,.32-1.2,2.12,2.12,0,0,1,.91-.72,4.74,4.74,0,0,1,1.44-.36c.56-.06,1.16-.11,1.8-.14v-.17a1.39,1.39,0,0,0-.13-.62,1,1,0,0,0-.38-.39,1.54,1.54,0,0,0-.56-.18,5.09,5.09,0,0,0-.69,0,4.49,4.49,0,0,0-1,.12,6.47,6.47,0,0,0-1.1.33h-.06v-1.12c.22-.06.53-.13.94-.2a6.94,6.94,0,0,1,1.2-.1,6,6,0,0,1,1.2.11,2.49,2.49,0,0,1,.89.39,1.83,1.83,0,0,1,.56.7,2.58,2.58,0,0,1,.19,1.06Zm-1.09-1.61v-1.82l-1.19.09a5.83,5.83,0,0,0-1.08.17,1.79,1.79,0,0,0-.77.42,1,1,0,0,0-.29.78,1,1,0,0,0,.34.84,1.59,1.59,0,0,0,1,.29,2.49,2.49,0,0,0,1.06-.23A4.69,4.69,0,0,0,268.65,129.46Z" transform="translate(-10.87 -17.76)"/><path class="cls-9" d="M281.72,131.07h-1.11v-3.72c0-.29,0-.56,0-.82a1.92,1.92,0,0,0-.16-.63,1,1,0,0,0-.39-.38,1.73,1.73,0,0,0-.73-.13,1.94,1.94,0,0,0-.92.24,5.91,5.91,0,0,0-.93.58c0,.09,0,.2,0,.32s0,.24,0,.35v4.19h-1.1v-3.72a7.33,7.33,0,0,0,0-.83,1.59,1.59,0,0,0-.16-.62.84.84,0,0,0-.39-.38,1.68,1.68,0,0,0-.72-.13,2.08,2.08,0,0,0-.91.23,5.6,5.6,0,0,0-.9.57v4.88h-1.1v-6.54h1.1v.72a4.7,4.7,0,0,1,1-.66,2.52,2.52,0,0,1,1.09-.24,2.13,2.13,0,0,1,1.13.28,1.72,1.72,0,0,1,.7.78,5.5,5.5,0,0,1,1.21-.82,2.93,2.93,0,0,1,1.18-.24,1.88,1.88,0,0,1,1.59.65,2.82,2.82,0,0,1,.52,1.82Z" transform="translate(-10.87 -17.76)"/><path class="cls-9" d="M285.32,123.43h-1.24v-1.14h1.24Zm-.07,7.64h-1.1v-6.54h1.1Z" transform="translate(-10.87 -17.76)"/><path class="cls-9" d="M288.83,131.07h-1.1V122h1.1Z" transform="translate(-10.87 -17.76)"/><path class="cls-9" d="M292.48,123.43h-1.24v-1.14h1.24Zm-.07,7.64h-1.1v-6.54h1.1Z" transform="translate(-10.87 -17.76)"/><path class="cls-9" d="M300,131.07h-1.1v-.69l-.39.27a2.85,2.85,0,0,1-.49.29,3.09,3.09,0,0,1-.63.22,3.49,3.49,0,0,1-.84.09,2.09,2.09,0,0,1-1.5-.58,2,2,0,0,1-.61-1.5,1.91,1.91,0,0,1,1.23-1.92,4.6,4.6,0,0,1,1.43-.36c.56-.06,1.16-.11,1.8-.14v-.17a1.27,1.27,0,0,0-.13-.62,1,1,0,0,0-.38-.39,1.54,1.54,0,0,0-.56-.18,5.09,5.09,0,0,0-.69,0,4.34,4.34,0,0,0-1,.12,6.31,6.31,0,0,0-1.11.33H295v-1.12a9.13,9.13,0,0,1,.93-.2,6.94,6.94,0,0,1,1.2-.1,6,6,0,0,1,1.2.11,2.49,2.49,0,0,1,.89.39,1.74,1.74,0,0,1,.56.7,2.57,2.57,0,0,1,.2,1.06Zm-1.1-1.61v-1.82l-1.19.09a5.83,5.83,0,0,0-1.08.17,1.75,1.75,0,0,0-.76.42,1,1,0,0,0-.3.78,1.05,1.05,0,0,0,.34.84,1.59,1.59,0,0,0,1,.29A2.46,2.46,0,0,0,298,130,4.69,4.69,0,0,0,298.87,129.46Z" transform="translate(-10.87 -17.76)"/><path class="cls-9" d="M83.05,230.72c-.21.1-.41.18-.58.27a6.05,6.05,0,0,1-.68.25,7.37,7.37,0,0,1-.78.2,5.29,5.29,0,0,1-.92.07,5.24,5.24,0,0,1-1.73-.26,3.5,3.5,0,0,1-1.35-.84,3.85,3.85,0,0,1-.88-1.41,6.48,6.48,0,0,1,0-3.93,3.92,3.92,0,0,1,.88-1.43,3.7,3.7,0,0,1,1.34-.87,4.91,4.91,0,0,1,1.75-.3,6.18,6.18,0,0,1,1.41.17,8.39,8.39,0,0,1,1.55.6v1.38H83a5,5,0,0,0-1.43-.88,4.18,4.18,0,0,0-1.51-.28,3.09,3.09,0,0,0-1.2.22,2.6,2.6,0,0,0-.94.66,3.16,3.16,0,0,0-.63,1.11A4.91,4.91,0,0,0,77,227a4.59,4.59,0,0,0,.25,1.58,3.12,3.12,0,0,0,.64,1.08,2.53,2.53,0,0,0,1,.64,3.22,3.22,0,0,0,1.16.21,4.29,4.29,0,0,0,1.57-.28,4.59,4.59,0,0,0,1.37-.87h.08Z" transform="translate(-10.87 -17.76)"/><path class="cls-9" d="M90,231.36h-1.1v-.7l-.39.28a2.76,2.76,0,0,1-.49.28,3.08,3.08,0,0,1-.63.23,3.49,3.49,0,0,1-.84.09A2.1,2.1,0,0,1,85,231a2,2,0,0,1-.61-1.49,2,2,0,0,1,.32-1.21,2.15,2.15,0,0,1,.91-.72,4.75,4.75,0,0,1,1.43-.36c.56-.06,1.16-.11,1.8-.14v-.17a1.27,1.27,0,0,0-.13-.62,1,1,0,0,0-.38-.39,1.48,1.48,0,0,0-.56-.18,5.07,5.07,0,0,0-.68,0,4.37,4.37,0,0,0-1,.11,8.5,8.5,0,0,0-1.1.33H85V225c.21-.06.52-.12.93-.19a7.14,7.14,0,0,1,1.2-.11,5.44,5.44,0,0,1,1.21.12,2.14,2.14,0,0,1,.88.39,1.74,1.74,0,0,1,.57.69,2.75,2.75,0,0,1,.19,1.06Zm-1.1-1.62v-1.82L87.7,228a6.46,6.46,0,0,0-1.08.17,1.73,1.73,0,0,0-.77.42,1,1,0,0,0-.29.78,1.06,1.06,0,0,0,.33.85,1.61,1.61,0,0,0,1,.28,2.45,2.45,0,0,0,1.06-.22A4.27,4.27,0,0,0,88.88,229.74Z" transform="translate(-10.87 -17.76)"/><path class="cls-9" d="M97.08,229.47a1.77,1.77,0,0,1-.75,1.47,3.21,3.21,0,0,1-2,.57,4.66,4.66,0,0,1-1.33-.17,5.11,5.11,0,0,1-1-.38v-1.23H92a4.31,4.31,0,0,0,1.16.62,3.41,3.41,0,0,0,1.22.23,2.37,2.37,0,0,0,1.14-.23.8.8,0,0,0,.41-.74.76.76,0,0,0-.22-.59,2.18,2.18,0,0,0-.86-.34l-.61-.12-.69-.15a2.32,2.32,0,0,1-1.22-.67,1.68,1.68,0,0,1-.36-1.09,1.8,1.8,0,0,1,.17-.76,1.89,1.89,0,0,1,.5-.64,2.56,2.56,0,0,1,.84-.44,4,4,0,0,1,1.13-.16,4.91,4.91,0,0,1,1.19.15,4.14,4.14,0,0,1,1,.35v1.17h-.06a4,4,0,0,0-1-.52,3.56,3.56,0,0,0-1.18-.22,2,2,0,0,0-1,.24.8.8,0,0,0-.16,1.29,2,2,0,0,0,.79.34l.69.14.63.13a2.32,2.32,0,0,1,1.18.6A1.58,1.58,0,0,1,97.08,229.47Z" transform="translate(-10.87 -17.76)"/><path class="cls-9" d="M104,231.36h-1.1v-.7l-.39.28a2.76,2.76,0,0,1-.49.28,3.08,3.08,0,0,1-.63.23,3.49,3.49,0,0,1-.84.09,2.1,2.1,0,0,1-1.5-.59,2,2,0,0,1-.61-1.49,2,2,0,0,1,.32-1.21,2.15,2.15,0,0,1,.91-.72,4.67,4.67,0,0,1,1.43-.36c.56-.06,1.16-.11,1.8-.14v-.17a1.27,1.27,0,0,0-.13-.62,1,1,0,0,0-.38-.39,1.48,1.48,0,0,0-.56-.18,5.12,5.12,0,0,0-.69,0,4.35,4.35,0,0,0-1,.11,8.5,8.5,0,0,0-1.1.33h-.06V225c.21-.06.52-.12.93-.19a7.14,7.14,0,0,1,1.2-.11,5.29,5.29,0,0,1,1.2.12,2.12,2.12,0,0,1,.89.39,1.64,1.64,0,0,1,.56.69,2.57,2.57,0,0,1,.2,1.06Zm-1.1-1.62v-1.82l-1.18.09a6.79,6.79,0,0,0-1.09.17,1.75,1.75,0,0,0-.76.42,1,1,0,0,0-.3.78,1.06,1.06,0,0,0,.34.85,1.61,1.61,0,0,0,1,.28,2.45,2.45,0,0,0,1.06-.22A4.27,4.27,0,0,0,102.94,229.74Z" transform="translate(-10.87 -17.76)"/><g class="cls-2"><path class="cls-10" d="M467.82,180.59a.44.44,0,0,1,.41.34,3.5,3.5,0,0,0,6.8-.1.46.46,0,0,1,.43-.36.45.45,0,0,1,.45.33.71.71,0,0,0,.1.24.47.47,0,0,1,.35.26.85.85,0,0,0,.76.51,9.8,9.8,0,0,1,2,.79,7,7,0,0,0-2-2.48.85.85,0,0,0-.42.11.44.44,0,0,1-.68-.34,1.68,1.68,0,0,0-.09-.41.45.45,0,0,1-.45.3.47.47,0,0,1-.42-.37,3.49,3.49,0,0,0-6.84-.1.47.47,0,0,1-.4.36.45.45,0,0,1-.42-.21,1.88,1.88,0,0,0-.1.46.45.45,0,0,1-.7.34.81.81,0,0,0-.46-.14,7.45,7.45,0,0,0-2,2.55,8.44,8.44,0,0,1,2-.85.83.83,0,0,0,.76-.51.46.46,0,0,1,.42-.25h0s.05-.09.07-.15a.47.47,0,0,1,.45-.32m3.8,3.88a4.39,4.39,0,0,1-4-2.57,1.54,1.54,0,0,1-1.5.82,16.41,16.41,0,0,1-2.44,1.06.59.59,0,0,1-.61-.61,6,6,0,0,1,1.12-2.31c.78-1.09,1.43-1.65,1.93-1.65a1.58,1.58,0,0,1,.38,0c.31-1.15,1-.86,1.05-.84a4.4,4.4,0,0,1,8.15,0c.65-.13.93.28,1.1.82a1.66,1.66,0,0,1,.32,0c1.07,0,3,2.9,3,3.83a.59.59,0,0,1-.62.63c-.55,0-2.22-.95-2.42-.95a1.72,1.72,0,0,1-1.49-.84,4.44,4.44,0,0,1-4,2.59m18-7.9a3.5,3.5,0,1,0,3.5,3.5,3.5,3.5,0,0,0-3.5-3.5m0,7.9a4.4,4.4,0,1,1,4.4-4.4,4.41,4.41,0,0,1-4.4,4.4m-1.05,13.79h1.81a.46.46,0,0,1,.45.46V208.8c0,.74.3,1.53,1.63,1.53s1.69-.78,1.69-1.53V198.57a.45.45,0,0,1,.34-.44,1.65,1.65,0,0,0,1.19-1.53l-.95-3.33a.47.47,0,0,1,.19-.5.45.45,0,0,1,.54,0s1.6,1.17,2.4.2.62-1.72,0-2.21l-4.85-4a1.56,1.56,0,0,1-.28-.22,1.34,1.34,0,0,0-1.26-.67h-3.76a1.32,1.32,0,0,0-1.35.71.83.83,0,0,1-.21.21l-4.83,4c-.15.12-.45.72-.76.69s-.61-.57-.76-.69l-4.8-4a.78.78,0,0,1-.23-.22,1.29,1.29,0,0,0-1.36-.72h-3.77a1.36,1.36,0,0,0-1.27.68,2.35,2.35,0,0,1-.26.22l-5,4.12a.43.43,0,0,1-.32.14.44.44,0,0,1-.33-.14l-5-4.13a1.56,1.56,0,0,1-.28-.22,1.36,1.36,0,0,0-1.26-.67h-3.76a1.32,1.32,0,0,0-1.35.71.69.69,0,0,1-.21.21l-4.83,4a1.33,1.33,0,0,0-.36.45.45.45,0,0,1-.4.25.47.47,0,0,1-.41-.25,1.19,1.19,0,0,0-.35-.45l-4.8-4a1,1,0,0,1-.23-.23,1.29,1.29,0,0,0-1.36-.72h-3.77a1.37,1.37,0,0,0-1.27.68,1.6,1.6,0,0,1-.26.22l-4.86,4a1.39,1.39,0,0,0-.18,1.94,1.64,1.64,0,0,0,2.5.18.52.52,0,0,1,.54,0,.45.45,0,0,1,.18.5s-2,6.64-2.08,7a1.63,1.63,0,0,0,1.55,1.49h.63a.42.42,0,0,1,.33.14.87.87,0,0,1,.15.62v6.15a1.37,1.37,0,0,0,1.49,1.53,1.38,1.38,0,0,0,1.52-1.53v-6.15c0-.43.13-.54.21-.62a.44.44,0,0,1,.33-.14h1.9a.57.57,0,0,1,.48.14c.14.15.11.44.1.62v6.15c0,.76.23,1.53,1.54,1.53s1.63-.77,1.63-1.53v-6.15c0-.24-.07-.45.1-.62s.29-.13,1.12-.14a1.57,1.57,0,0,0,1.55-1.49l-2.08-7a.47.47,0,0,1,.19-.51.46.46,0,0,1,.54,0,1.47,1.47,0,0,0,1.22.6c.82,0,1.4-.93,1.45-1a.45.45,0,0,1,.8,0,2.57,2.57,0,0,0,1.46,1,1.56,1.56,0,0,0,1.35-.71.43.43,0,0,1,.54,0,.47.47,0,0,1,.19.5l-.93,3.33a2.62,2.62,0,0,0,1,1.46.45.45,0,0,1,.24.4V208.8a1.4,1.4,0,0,0,1.53,1.53,1.49,1.49,0,0,0,1.64-1.53V198.72a.46.46,0,0,1,.45-.46h2a.46.46,0,0,1,.45.46V208.8a1.65,1.65,0,0,0,1.73,1.53,1.53,1.53,0,0,0,1.59-1.53V198.57a.46.46,0,0,1,.35-.44,1.62,1.62,0,0,0,1.16-1.53l-1-3.33a.46.46,0,0,1,.73-.47s.64.77,1.33.71a2,2,0,0,0,1.18-.66.46.46,0,0,1,.35-.17h0a.46.46,0,0,1,.35.17,2.38,2.38,0,0,0,1.19.66,1.35,1.35,0,0,0,1.22-.6.45.45,0,0,1,.54,0,.44.44,0,0,1,.18.5l-2.08,7a1.6,1.6,0,0,0,1.55,1.48c.78,0,.84,0,1,.15s.09.31.09.62V209a1.43,1.43,0,0,0,1.55,1.38A1.5,1.5,0,0,0,470,209v-6.3a1.82,1.82,0,0,1,.07-.59.57.57,0,0,1,.37-.18h2.05a.52.52,0,0,1,.41.16,1.08,1.08,0,0,1,.12.61V209a1.48,1.48,0,0,0,1.64,1.38A1.42,1.42,0,0,0,476.2,209s0-6,0-6.21a1.78,1.78,0,0,1,.07-.7c.09-.16.29-.16.41-.16h.64a1.57,1.57,0,0,0,1.55-1.48l-2.08-7a.46.46,0,0,1,.19-.51.44.44,0,0,1,.54,0,1.74,1.74,0,0,0,1.22.6c.73,0,1.4-.93,1.44-1a.45.45,0,0,1,.41-.25.43.43,0,0,1,.4.25c.05.1.65,1,1.46,1a1.89,1.89,0,0,0,1.35-.71.46.46,0,0,1,.73.46l-.88,3.34a1.71,1.71,0,0,0,1,1.44.46.46,0,0,1,.27.42V208.8c0,.79.26,1.53,1.58,1.53s1.58-.79,1.58-1.53V198.72a.47.47,0,0,1,.46-.46m3.89,13c-2.1,0-2.54-1.2-2.54-2.44v-9.63H489v9.63c0,1.24-.37,2.44-2.49,2.44S484,210.1,484,208.8V198.73a2.59,2.59,0,0,1-1.29-2.19s.59-2.31.59-2.31a3.42,3.42,0,0,0-4.61.17,2.18,2.18,0,0,1-.72-.12s1.77,6,1.77,6.06a2.49,2.49,0,0,1-2.46,2.45h-.22V209a2.22,2.22,0,0,1-2.44,2.29,2.27,2.27,0,0,1-2.54-2.29v-6.16h-1.21V209a2.21,2.21,0,0,1-2.52,2.29,2.16,2.16,0,0,1-2.46-2.29v-6.16a2.48,2.48,0,0,1-2.6-2.45s1.78-6.05,1.78-6.05a2.28,2.28,0,0,1-.73.12,2.28,2.28,0,0,0-3.08,0,2.2,2.2,0,0,1-.84-.16s.64,2.25.64,2.29a2.55,2.55,0,0,1-1.5,2.35v9.91a2.44,2.44,0,0,1-2.5,2.44,2.54,2.54,0,0,1-2.63-2.44v-9.63h-1.06v9.63a2.35,2.35,0,0,1-2.54,2.44,2.27,2.27,0,0,1-2.44-2.44V198.71c-1.13-.39-1.27-2-1.24-2.17.11-.59.62-2.3.62-2.3a2.36,2.36,0,0,1-.87.17,2.53,2.53,0,0,1-1.86-.95,2.62,2.62,0,0,1-1.86.94,2.18,2.18,0,0,1-.72-.12s1.77,6,1.77,6.06a2.49,2.49,0,0,1-2.46,2.45h-.32v6a2.22,2.22,0,0,1-2.53,2.44,2.16,2.16,0,0,1-2.45-2.44v-6h-1.2v6c0,1.28-.36,2.44-2.43,2.44s-2.4-1.16-2.4-2.44v-6a2.41,2.41,0,0,1-2.66-2.45c.18-.68,1.78-6.05,1.78-6.05a2.4,2.4,0,0,1-2.71-1,2.29,2.29,0,0,1,.3-3.22l5-4.1a2.26,2.26,0,0,1,2-1h3.77a2.22,2.22,0,0,1,2.12,1.1s5,4.12,5,4.18,5-4.18,5.05-4.19a2.22,2.22,0,0,1,2.1-1.09H456a2.26,2.26,0,0,1,2,1s4.87,4,4.87,4,4.82-4,4.86-4a2.25,2.25,0,0,1,2-1h3.76a2.2,2.2,0,0,1,2.12,1.1s5,4.12,5,4.18,5-4.18,5.05-4.18a2.21,2.21,0,0,1,2.09-1.1h3.77a2.29,2.29,0,0,1,2,1s5,4.11,5,4.11a2.25,2.25,0,0,1,.31,3.22,2.52,2.52,0,0,1-2.83.93s.63,2.25.63,2.3a2.57,2.57,0,0,1-1.53,2.35v9.9c0,1.24-.5,2.44-2.59,2.44m-60.15-30.65a.42.42,0,0,1,.41.34,3.5,3.5,0,0,0,6.8-.1.46.46,0,0,1,.43-.36.45.45,0,0,1,.45.33,1.73,1.73,0,0,0,.1.24.45.45,0,0,1,.35.26.85.85,0,0,0,.76.51,9.57,9.57,0,0,1,2,.79,7,7,0,0,0-2-2.48.88.88,0,0,0-.42.11.44.44,0,0,1-.68-.34,2.47,2.47,0,0,0-.08-.41.46.46,0,0,1-.88-.07,3.49,3.49,0,0,0-6.84-.1.48.48,0,0,1-.4.36.49.49,0,0,1-.43-.21,2.66,2.66,0,0,0-.09.46.45.45,0,0,1-.25.37.48.48,0,0,1-.45,0,.81.81,0,0,0-.46-.14,7.45,7.45,0,0,0-2,2.55,8.63,8.63,0,0,1,2-.85.84.84,0,0,0,.76-.53.47.47,0,0,1,.43-.27.59.59,0,0,1,.51-.43m3.8,3.88a4.29,4.29,0,0,1-4.05-2.55,1.74,1.74,0,0,1-1.45.8c-.2,0-2.12,1.06-2.44,1.06a.58.58,0,0,1-.6-.61,6,6,0,0,1,1.11-2.31c.78-1.09,1.65-1.94,2.31-1.61.17-.54.51-1.06,1.05-.85a4.4,4.4,0,0,1,8.15,0c.59-.2.93.28,1.1.82a1.73,1.73,0,0,1,.32,0c1.07,0,3,2.9,3,3.83a.6.6,0,0,1-.62.63c-.32,0-2.22-.95-2.42-.95a1.73,1.73,0,0,1-1.47-.84,4.36,4.36,0,0,1-4,2.59m18-7.9a3.5,3.5,0,1,0,3.5,3.5,3.5,3.5,0,0,0-3.5-3.5m0,7.9a4.4,4.4,0,1,1,4.4-4.4,4.41,4.41,0,0,1-4.4,4.4" transform="translate(-10.87 -17.76)"/><path class="cls-11" d="M467.82,180.59a.44.44,0,0,1,.41.34,3.5,3.5,0,0,0,6.8-.1.46.46,0,0,1,.43-.36.45.45,0,0,1,.45.33.71.71,0,0,0,.1.24.47.47,0,0,1,.35.26.85.85,0,0,0,.76.51,9.8,9.8,0,0,1,2,.79,7,7,0,0,0-2-2.48.85.85,0,0,0-.42.11.44.44,0,0,1-.68-.34,1.68,1.68,0,0,0-.09-.41.45.45,0,0,1-.45.3.47.47,0,0,1-.42-.37,3.49,3.49,0,0,0-6.84-.1.47.47,0,0,1-.4.36.45.45,0,0,1-.42-.21,1.88,1.88,0,0,0-.1.46.45.45,0,0,1-.7.34.81.81,0,0,0-.46-.14,7.45,7.45,0,0,0-2,2.55,8.44,8.44,0,0,1,2-.85.83.83,0,0,0,.76-.51.46.46,0,0,1,.42-.25h0s.05-.09.07-.15A.47.47,0,0,1,467.82,180.59Zm3.8,3.88a4.39,4.39,0,0,1-4-2.57,1.54,1.54,0,0,1-1.5.82,16.41,16.41,0,0,1-2.44,1.06.59.59,0,0,1-.61-.61,6,6,0,0,1,1.12-2.31c.78-1.09,1.43-1.65,1.93-1.65a1.58,1.58,0,0,1,.38,0c.31-1.15,1-.86,1.05-.84a4.4,4.4,0,0,1,8.15,0c.65-.13.93.28,1.1.82a1.66,1.66,0,0,1,.32,0c1.07,0,3,2.9,3,3.83a.59.59,0,0,1-.62.63c-.55,0-2.22-.95-2.42-.95a1.72,1.72,0,0,1-1.49-.84A4.44,4.44,0,0,1,471.62,184.47Zm18-7.9a3.5,3.5,0,1,0,3.5,3.5A3.5,3.5,0,0,0,489.62,176.57Zm0,7.9a4.4,4.4,0,1,1,4.4-4.4A4.41,4.41,0,0,1,489.62,184.47Zm-1.05,13.79h1.81a.46.46,0,0,1,.45.46V208.8c0,.74.3,1.53,1.63,1.53s1.69-.78,1.69-1.53V198.57a.45.45,0,0,1,.34-.44,1.65,1.65,0,0,0,1.19-1.53l-.95-3.33a.47.47,0,0,1,.19-.5.45.45,0,0,1,.54,0s1.6,1.17,2.4.2.62-1.72,0-2.21l-4.85-4a1.56,1.56,0,0,1-.28-.22,1.34,1.34,0,0,0-1.26-.67h-3.76a1.32,1.32,0,0,0-1.35.71.83.83,0,0,1-.21.21l-4.83,4c-.15.12-.45.72-.76.69s-.61-.57-.76-.69l-4.8-4a.78.78,0,0,1-.23-.22,1.29,1.29,0,0,0-1.36-.72h-3.77a1.36,1.36,0,0,0-1.27.68,2.35,2.35,0,0,1-.26.22l-5,4.12a.43.43,0,0,1-.32.14.44.44,0,0,1-.33-.14l-5-4.13a1.56,1.56,0,0,1-.28-.22,1.36,1.36,0,0,0-1.26-.67h-3.76a1.32,1.32,0,0,0-1.35.71.69.69,0,0,1-.21.21l-4.83,4a1.33,1.33,0,0,0-.36.45.45.45,0,0,1-.4.25.47.47,0,0,1-.41-.25,1.19,1.19,0,0,0-.35-.45l-4.8-4a1,1,0,0,1-.23-.23,1.29,1.29,0,0,0-1.36-.72h-3.77a1.37,1.37,0,0,0-1.27.68,1.6,1.6,0,0,1-.26.22l-4.86,4a1.39,1.39,0,0,0-.18,1.94,1.64,1.64,0,0,0,2.5.18.52.52,0,0,1,.54,0,.45.45,0,0,1,.18.5s-2,6.64-2.08,7a1.63,1.63,0,0,0,1.55,1.49h.63a.42.42,0,0,1,.33.14.87.87,0,0,1,.15.62v6.15a1.37,1.37,0,0,0,1.49,1.53,1.38,1.38,0,0,0,1.52-1.53v-6.15c0-.43.13-.54.21-.62a.44.44,0,0,1,.33-.14h1.9a.57.57,0,0,1,.48.14c.14.15.11.44.1.62v6.15c0,.76.23,1.53,1.54,1.53s1.63-.77,1.63-1.53v-6.15c0-.24-.07-.45.1-.62s.29-.13,1.12-.14a1.57,1.57,0,0,0,1.55-1.49l-2.08-7a.47.47,0,0,1,.19-.51.46.46,0,0,1,.54,0,1.47,1.47,0,0,0,1.22.6c.82,0,1.4-.93,1.45-1a.45.45,0,0,1,.8,0,2.57,2.57,0,0,0,1.46,1,1.56,1.56,0,0,0,1.35-.71.43.43,0,0,1,.54,0,.47.47,0,0,1,.19.5l-.93,3.33a2.62,2.62,0,0,0,1,1.46.45.45,0,0,1,.24.4V208.8a1.4,1.4,0,0,0,1.53,1.53,1.49,1.49,0,0,0,1.64-1.53V198.72a.46.46,0,0,1,.45-.46h2a.46.46,0,0,1,.45.46V208.8a1.65,1.65,0,0,0,1.73,1.53,1.53,1.53,0,0,0,1.59-1.53V198.57a.46.46,0,0,1,.35-.44,1.62,1.62,0,0,0,1.16-1.53l-1-3.33a.46.46,0,0,1,.73-.47s.64.77,1.33.71a2,2,0,0,0,1.18-.66.46.46,0,0,1,.35-.17h0a.46.46,0,0,1,.35.17,2.38,2.38,0,0,0,1.19.66,1.35,1.35,0,0,0,1.22-.6.45.45,0,0,1,.54,0,.44.44,0,0,1,.18.5l-2.08,7a1.6,1.6,0,0,0,1.55,1.48c.78,0,.84,0,1,.15s.09.31.09.62V209a1.43,1.43,0,0,0,1.55,1.38A1.5,1.5,0,0,0,470,209v-6.3a1.82,1.82,0,0,1,.07-.59.57.57,0,0,1,.37-.18h2.05a.52.52,0,0,1,.41.16,1.08,1.08,0,0,1,.12.61V209a1.48,1.48,0,0,0,1.64,1.38A1.42,1.42,0,0,0,476.2,209s0-6,0-6.21a1.78,1.78,0,0,1,.07-.7c.09-.16.29-.16.41-.16h.64a1.57,1.57,0,0,0,1.55-1.48l-2.08-7a.46.46,0,0,1,.19-.51.44.44,0,0,1,.54,0,1.74,1.74,0,0,0,1.22.6c.73,0,1.4-.93,1.44-1a.45.45,0,0,1,.41-.25.43.43,0,0,1,.4.25c.05.1.65,1,1.46,1a1.89,1.89,0,0,0,1.35-.71.46.46,0,0,1,.73.46l-.88,3.34a1.71,1.71,0,0,0,1,1.44.46.46,0,0,1,.27.42V208.8c0,.79.26,1.53,1.58,1.53s1.58-.79,1.58-1.53V198.72A.47.47,0,0,1,488.57,198.26Zm3.89,13c-2.1,0-2.54-1.2-2.54-2.44v-9.63H489v9.63c0,1.24-.37,2.44-2.49,2.44S484,210.1,484,208.8V198.73a2.59,2.59,0,0,1-1.29-2.19s.59-2.31.59-2.31a3.42,3.42,0,0,0-4.61.17,2.18,2.18,0,0,1-.72-.12s1.77,6,1.77,6.06a2.49,2.49,0,0,1-2.46,2.45h-.22V209a2.22,2.22,0,0,1-2.44,2.29,2.27,2.27,0,0,1-2.54-2.29v-6.16h-1.21V209a2.21,2.21,0,0,1-2.52,2.29,2.16,2.16,0,0,1-2.46-2.29v-6.16a2.48,2.48,0,0,1-2.6-2.45s1.78-6.05,1.78-6.05a2.28,2.28,0,0,1-.73.12,2.28,2.28,0,0,0-3.08,0,2.2,2.2,0,0,1-.84-.16s.64,2.25.64,2.29a2.55,2.55,0,0,1-1.5,2.35v9.91a2.44,2.44,0,0,1-2.5,2.44,2.54,2.54,0,0,1-2.63-2.44v-9.63h-1.06v9.63a2.35,2.35,0,0,1-2.54,2.44,2.27,2.27,0,0,1-2.44-2.44V198.71c-1.13-.39-1.27-2-1.24-2.17.11-.59.62-2.3.62-2.3a2.36,2.36,0,0,1-.87.17,2.53,2.53,0,0,1-1.86-.95,2.62,2.62,0,0,1-1.86.94,2.18,2.18,0,0,1-.72-.12s1.77,6,1.77,6.06a2.49,2.49,0,0,1-2.46,2.45h-.32v6a2.22,2.22,0,0,1-2.53,2.44,2.16,2.16,0,0,1-2.45-2.44v-6h-1.2v6c0,1.28-.36,2.44-2.43,2.44s-2.4-1.16-2.4-2.44v-6a2.41,2.41,0,0,1-2.66-2.45c.18-.68,1.78-6.05,1.78-6.05a2.4,2.4,0,0,1-2.71-1,2.29,2.29,0,0,1,.3-3.22l5-4.1a2.26,2.26,0,0,1,2-1h3.77a2.22,2.22,0,0,1,2.12,1.1s5,4.12,5,4.18,5-4.18,5.05-4.19a2.22,2.22,0,0,1,2.1-1.09H456a2.26,2.26,0,0,1,2,1s4.87,4,4.87,4,4.82-4,4.86-4a2.25,2.25,0,0,1,2-1h3.76a2.2,2.2,0,0,1,2.12,1.1s5,4.12,5,4.18,5-4.18,5.05-4.18a2.21,2.21,0,0,1,2.09-1.1h3.77a2.29,2.29,0,0,1,2,1s5,4.11,5,4.11a2.25,2.25,0,0,1,.31,3.22,2.52,2.52,0,0,1-2.83.93s.63,2.25.63,2.3a2.57,2.57,0,0,1-1.53,2.35v9.9C495.05,210,494.55,211.24,492.46,211.24Zm-60.15-30.65a.42.42,0,0,1,.41.34,3.5,3.5,0,0,0,6.8-.1.46.46,0,0,1,.43-.36.45.45,0,0,1,.45.33,1.73,1.73,0,0,0,.1.24.45.45,0,0,1,.35.26.85.85,0,0,0,.76.51,9.57,9.57,0,0,1,2,.79,7,7,0,0,0-2-2.48.88.88,0,0,0-.42.11.44.44,0,0,1-.68-.34,2.47,2.47,0,0,0-.08-.41.46.46,0,0,1-.88-.07,3.49,3.49,0,0,0-6.84-.1.48.48,0,0,1-.4.36.49.49,0,0,1-.43-.21,2.66,2.66,0,0,0-.09.46.45.45,0,0,1-.25.37.48.48,0,0,1-.45,0,.81.81,0,0,0-.46-.14,7.45,7.45,0,0,0-2,2.55,8.63,8.63,0,0,1,2-.85.84.84,0,0,0,.76-.53.47.47,0,0,1,.43-.27A.59.59,0,0,1,432.31,180.59Zm3.8,3.88a4.29,4.29,0,0,1-4.05-2.55,1.74,1.74,0,0,1-1.45.8c-.2,0-2.12,1.06-2.44,1.06a.58.58,0,0,1-.6-.61,6,6,0,0,1,1.11-2.31c.78-1.09,1.65-1.94,2.31-1.61.17-.54.51-1.06,1.05-.85a4.4,4.4,0,0,1,8.15,0c.59-.2.93.28,1.1.82a1.73,1.73,0,0,1,.32,0c1.07,0,3,2.9,3,3.83a.6.6,0,0,1-.62.63c-.32,0-2.22-.95-2.42-.95a1.73,1.73,0,0,1-1.47-.84A4.36,4.36,0,0,1,436.11,184.47Zm18-7.9a3.5,3.5,0,1,0,3.5,3.5A3.5,3.5,0,0,0,454.11,176.57Zm0,7.9a4.4,4.4,0,1,1,4.4-4.4A4.41,4.41,0,0,1,454.11,184.47Z" transform="translate(-10.87 -17.76)"/><path class="cls-12" d="M103.48,194.58a1,1,0,0,0-1,1V208H94.22V195.61a1,1,0,0,0-1-1H87a1,1,0,0,0-1,1V208H77.76V195.61a1,1,0,0,0-1-1H75.09l15-15,15,15ZM92.17,208H88.05V196.64h4.12Zm7.2-31.36,5.64,5.64a4.14,4.14,0,0,1-2.1.58,4.08,4.08,0,0,1-4.12-4.12,4.45,4.45,0,0,1,.58-2.1m-1.11,8.19,1.11-1.11a6.15,6.15,0,0,0,7.94-.66,1,1,0,0,0,.29-.74,1.16,1.16,0,0,0-.29-.74l-2.92-2.92.86-.86a1,1,0,0,0-1.44-1.44l-.86.86L100,174.25a1,1,0,0,0-1.44,0,6.15,6.15,0,0,0-.66,7.94l-1.11,1.11-6-5.92a1,1,0,0,0-1.44,0L71.88,194.87a1,1,0,0,0,.74,1.77H75.7V209a1,1,0,0,0,1,1h26.75a1,1,0,0,0,1-1V196.64h3.09a1,1,0,0,0,.66-1.81Z" transform="translate(-10.87 -17.76)"/><path class="cls-13" d="M260.06,515.7a.91.91,0,0,0,.23,0,1,1,0,0,0,.71-1.18,10.39,10.39,0,0,1-.28-2.42,8.48,8.48,0,0,1,8.2-8.72,7.8,7.8,0,0,1,8.17,7.85,1,1,0,1,0,1.92,0,7.8,7.8,0,0,1,8.17-7.85,8.48,8.48,0,0,1,8.2,8.72,10.59,10.59,0,0,1-.27,2.38,1,1,0,0,0,.72,1.18,1,1,0,0,0,1.16-.73,12.79,12.79,0,0,0,.32-2.83c0-5.88-4.54-10.68-10.13-10.68a9.8,9.8,0,0,0-9.13,5.47,9.8,9.8,0,0,0-9.13-5.47c-5.58,0-10.13,4.8-10.13,10.68a12.19,12.19,0,0,0,.34,2.88,1,1,0,0,0,.93.75" transform="translate(-10.87 -17.76)"/><path class="cls-13" d="M290.53,521.06l-12.48,12.58-12.4-12.5a1,1,0,0,0-1.37,0,1,1,0,0,0,0,1.38l13.08,13.19a1,1,0,0,0,1.36,0l13.16-13.27a1,1,0,0,0,0-1.38,1,1,0,0,0-1.37,0" transform="translate(-10.87 -17.76)"/><path class="cls-13" d="M299.78,517.23h0a1.25,1.25,0,0,0-.82-.3,1.27,1.27,0,0,0-.82.3h-14a1.27,1.27,0,0,0-.82-.3,1.32,1.32,0,0,0-1.31,1.32s0,0,0,.08l-3.77,5.06-5.87-11.86a1.27,1.27,0,0,0,.05-.34,1.31,1.31,0,1,0-2.62,0s0,.07,0,.1l-4.41,5.94h-8.28a1.27,1.27,0,0,0-.82-.3,1.33,1.33,0,0,0,0,2.65,1.33,1.33,0,0,0,.93-.4h8.65a.93.93,0,0,0,.77-.39l4.3-5.78,5.89,11.9a1.34,1.34,0,0,0-.07.4,1.31,1.31,0,1,0,2.62,0,1.1,1.1,0,0,0,0-.18l4.14-5.58a1.25,1.25,0,0,0,.73-.37H298a1.3,1.3,0,0,0,2.24-.93c0-.41,0-.77-.49-1" transform="translate(-10.87 -17.76)"/><path class="cls-12" d="M280.28,65.23a1.2,1.2,0,0,1,1.18,1.22,1.26,1.26,0,0,1-1.23,1.22,1.08,1.08,0,0,1-.9-.33,1.43,1.43,0,0,1-.35-1c0-.53.21-1.07,1.3-1.07m-.16,3.91h.22a2.71,2.71,0,0,0,2.59-2.68,2.67,2.67,0,0,0-2.65-2.69,2.51,2.51,0,0,0-2.77,2.45,2.91,2.91,0,0,0,.75,2.13,2.49,2.49,0,0,0,1.86.8M287.4,88c-1.52,0-2.4-1.42-2.6-2.82a2.06,2.06,0,0,1,.54-1.63,2.86,2.86,0,0,1,2-1h0A2.52,2.52,0,0,1,290,85.32,2.66,2.66,0,0,1,287.4,88m0-6.92h-.06a4.3,4.3,0,0,0-3.12,1.51,3.48,3.48,0,0,0-.88,2.79c.35,2.45,2,4.09,4,4.09a4.13,4.13,0,0,0,4.06-4.19,4,4,0,0,0-4-4.2m9.3,6.4a14.11,14.11,0,0,1-3.77,5.58,2.69,2.69,0,0,0-.83,2.2c0,1.26.1,2.91.13,4.59a37.44,37.44,0,0,1-7.35,5.88c-.14-1.77-.25-3.59-.32-5.44-.05-1.22-.12-2.44-.18-3.66l-.09-1.61a1.47,1.47,0,0,0-.87-1.21l-.15-.09a8.22,8.22,0,0,1-1.16-1.07l-.37-.38c-.59-.6-1.12-1.16-1.6-1.71-.28-.33-.55-.65-.82-1a11,11,0,0,1-1.63-2.67,2.88,2.88,0,0,1-.3-1.22.77.77,0,0,1,.51-.74.74.74,0,0,1,.18,0,.89.89,0,0,1,.56.34,6.43,6.43,0,0,1,.49.54l.22.25c.3.34.6.7.9,1.06s.76.93,1.17,1.37l0,0a9.3,9.3,0,0,0,3.35,2.51,6.56,6.56,0,0,0,2.12.48h.54a6.33,6.33,0,0,0,1.12-.08c3.34-.58,5.14-3,6.34-5.06.3-.52.58-1.05.85-1.57s.51-1,.78-1.44a3,3,0,0,1,.28-.42,2.3,2.3,0,0,1,.36.15,1.32,1.32,0,0,1,.21.72,14.39,14.39,0,0,1-.7,3.68m-13.82-16.3a2.11,2.11,0,0,0-1.1,2.23l0,.12c0,.18.06.33.08.44a17.38,17.38,0,0,1-3.12,1.61l-.44.16c-.59-1.33-1.16-2.68-1.33-3.18a5.27,5.27,0,0,0,.36-1.43,10.67,10.67,0,0,0,4.11.18,6.29,6.29,0,0,0,1.81-.95,1.79,1.79,0,0,0,.19-.16,9.87,9.87,0,0,1,1-.75,4,4,0,0,1-1.63,1.73M272.36,92.56a2.31,2.31,0,0,1,2.28,2.34,2.38,2.38,0,0,1-2.33,2.34,2.11,2.11,0,0,1-1.75-.65,2.61,2.61,0,0,1-.67-1.94c0-.52.13-2.09,2.47-2.09m-.08-18.25a3.82,3.82,0,0,1-3.65-3.72,3.48,3.48,0,0,1,.85-2.72,3.27,3.27,0,0,1,2.45-1.11,4.16,4.16,0,0,1,4,3.91,3.64,3.64,0,0,1-3.64,3.64m26.05,7.86a.6.6,0,0,0-.26-.24,2.67,2.67,0,0,0-1.27-.43c-.84,0-1.28.75-1.52,1.16s-.55,1-.8,1.49-.53,1-.82,1.51c-1.56,2.67-3.15,4-5.32,4.35a5.76,5.76,0,0,1-1.34,0,5.24,5.24,0,0,1-1.64-.37,7.8,7.8,0,0,1-2.71-2,22.89,22.89,0,0,1-.23-3.41,3.6,3.6,0,0,1,.31-1.71,6.23,6.23,0,0,1,1.59-1.85l.14-.12c.74-.65,1.49-1.31,2.23-2a23.12,23.12,0,0,0,3.88-4.44,6.08,6.08,0,0,0,1.22-2.74,3.2,3.2,0,0,0-1.21-2.71c-1-.59-2.08-.43-3.31.49a6.49,6.49,0,0,0-.77.69l-.13.14-.71.74c-.44.47-.85.9-1.29,1.32s-.75.66-1.14,1a.68.68,0,0,1,.39-.56c1.28-.73,2.55-2.24,2.45-3.5a1.16,1.16,0,0,0-.68-1.06c-.83-.36-1.85.38-2.83,1.16a.64.64,0,0,1-.15.12A4.92,4.92,0,0,1,281,70c-.28.09-1.14.16-3.76-.28a5.7,5.7,0,0,0-5.35-4.37,4.72,4.72,0,0,0-3.54,1.6,4.91,4.91,0,0,0-1.22,3.85c.33,3,2.43,5,5.11,5A5.1,5.1,0,0,0,276,74.13c.21.51.5,1.19.91,2.12a57.46,57.46,0,0,1-7.19,1.52c-1.21.2-2.46.4-3.68.65a76.87,76.87,0,0,1-8.25.88,2.46,2.46,0,0,0-2.32,2.41c0,1.1.79,2.44,3.12,2.59,3.17.2,6,.27,8.33.32l2.05,0c.32,0,.42.09.51.41a35.26,35.26,0,0,1,1,6.35,3.36,3.36,0,0,0-2.08,3.12,4.18,4.18,0,0,0,1.07,3,3.57,3.57,0,0,0,2.62,1.12h.31a3.88,3.88,0,0,0,3.69-3.81,3.78,3.78,0,0,0-3.75-3.8H272a37,37,0,0,0-1-6.41,1.86,1.86,0,0,0-1.88-1.49L267,83.15c-2.28-.05-5.13-.11-8.27-.32-1.1-.07-1.75-.48-1.74-1.1a1,1,0,0,1,.91-1,80.07,80.07,0,0,0,8.48-.91c1.2-.24,2.44-.45,3.63-.64A46.56,46.56,0,0,0,279.32,77a18.85,18.85,0,0,0,3.76-2l.06,0a19.86,19.86,0,0,0,2.23-1.79c.48-.44.92-.92,1.36-1.38l.68-.72.15-.14a4.89,4.89,0,0,1,.58-.55c1.06-.78,1.5-.51,1.67-.41a1.92,1.92,0,0,1,.52,1.33,4.89,4.89,0,0,1-1,2.07,21.28,21.28,0,0,1-3.62,4.15c-.74.66-1.48,1.32-2.23,2l-.13.12a7,7,0,0,0-2,2.42,5,5,0,0,0-.41,2.22c0,.51,0,1,0,1.49-.18-.21-.35-.43-.53-.63l-.2-.23a8.31,8.31,0,0,0-.57-.63,2,2,0,0,0-2.32-.62,2.23,2.23,0,0,0-1.44,2,4.09,4.09,0,0,0,.4,1.9,12.42,12.42,0,0,0,1.85,3c.28.35.57.69.86,1,.51.58,1,1.16,1.67,1.78l.35.37A8.84,8.84,0,0,0,282.45,95l.25.16.14.08.08,1.54c.07,1.22.13,2.43.18,3.65.09,2.25.23,4.47.41,6.6a.73.73,0,0,0,.37.57.68.68,0,0,0,.36.1.64.64,0,0,0,.31-.07,35.85,35.85,0,0,0,9-6.94.72.72,0,0,0,.18-.5c0-1.8-.09-3.57-.14-4.92a1.24,1.24,0,0,1,.4-1.09A15.44,15.44,0,0,0,298.1,88a15.91,15.91,0,0,0,.77-4,2.79,2.79,0,0,0-.54-1.78m-20.79,19.08a2.83,2.83,0,0,0-1.32,2.5c0,1.6,0,3.23,0,4.82v.22a20.06,20.06,0,0,1-4,.35c-.68,0-1.38,0-2.08-.08,0-1.34-.06-2.55-.07-3.66,0-.11,0-.23,0-.37,0-.81.11-2.16-1-2.63A13.1,13.1,0,0,1,265,99.58a1.44,1.44,0,0,1-.44-.85l0-.16a.2.2,0,0,0,0-.07,1.3,1.3,0,0,1,.26.1,18.72,18.72,0,0,0,7.57,2.06,9.43,9.43,0,0,0,2.84-.42A7,7,0,0,0,278,98.75c.61-.6,2-2,2.49-2a1.05,1.05,0,0,1,.2.47c0,.36-.61,2.19-3.14,4m3-6c-1,0-2.11,1-3.55,2.42a5.56,5.56,0,0,1-2.21,1.14,8.08,8.08,0,0,1-2.39.35,17.26,17.26,0,0,1-6.95-1.93,1.88,1.88,0,0,0-1.74,0,1.39,1.39,0,0,0-.58,1.56l0,.12a2.88,2.88,0,0,0,.85,1.72,14.57,14.57,0,0,0,4.6,3.13c.15.14.11.94.09,1.2s0,.33,0,.46c0,1.3,0,2.73.08,4.36a.74.74,0,0,0,.67.71c1,.08,1.92.12,2.86.12a20.31,20.31,0,0,0,4.88-.51.73.73,0,0,0,.56-.71v-.8c0-1.6,0-3.24,0-4.86a1.38,1.38,0,0,1,.73-1.29c2.69-2,4-4.38,3.7-5.57s-1.05-1.58-1.6-1.58" transform="translate(-10.87 -17.76)"/><path class="cls-14" d="M91.75,401.86h-.7a1,1,0,0,1,0-2.05h.82a.93.93,0,0,1,.88.62.57.57,0,0,0,.73.35.58.58,0,0,0,.35-.74A2.07,2.07,0,0,0,92,398.65v-1.19a.57.57,0,1,0-1.14,0v1.2A2.18,2.18,0,0,0,91,403h.8a1,1,0,0,1,1,1v.08a1,1,0,0,1-1,.95H91a1.12,1.12,0,0,1-1-.63.57.57,0,1,0-1.08.39,2.2,2.2,0,0,0,1.89,1.38v1.12a.57.57,0,0,0,.57.58.58.58,0,0,0,.58-.58v-1.13a2.09,2.09,0,0,0,1.94-2.08V404a2.11,2.11,0,0,0-2.17-2.11" transform="translate(-10.87 -17.76)"/><path class="cls-14" d="M109.14,410.77a2.36,2.36,0,0,1-2.35,2.36H76.05a2.36,2.36,0,0,1-2.35-2.36V393.9a2.36,2.36,0,0,1,2.35-2.36h30.74a2.36,2.36,0,0,1,2.35,2.36Zm-2.35-20.39H76.05a3.51,3.51,0,0,0-3.5,3.52v16.87a3.51,3.51,0,0,0,3.5,3.52h30.74a3.51,3.51,0,0,0,3.49-3.52V393.9a3.51,3.51,0,0,0-3.49-3.52" transform="translate(-10.87 -17.76)"/><path class="cls-14" d="M102.21,411H80.63A5.28,5.28,0,0,0,76,406.13v-7.59a5.28,5.28,0,0,0,4.64-4.84h21.58a5.28,5.28,0,0,0,4.64,4.84v7.59a5.28,5.28,0,0,0-4.64,4.83m5.44-13.51a.59.59,0,0,0-.23,0h-.14a4.13,4.13,0,0,1-4-4.29.57.57,0,0,0-.57-.57H80.08a.56.56,0,0,0-.57.57,4.14,4.14,0,0,1-4,4.29h-.13a.56.56,0,0,0-.58.58v8.69a.56.56,0,0,0,.35.53.59.59,0,0,0,.23.05h.13a4.14,4.14,0,0,1,4,4.28.57.57,0,0,0,.57.58h22.68a.58.58,0,0,0,.57-.58,4.13,4.13,0,0,1,4-4.28h.14a.59.59,0,0,0,.23-.05.57.57,0,0,0,.35-.53V398a.6.6,0,0,0-.35-.54" transform="translate(-10.87 -17.76)"/><path class="cls-14" d="M91.42,408.66a6.33,6.33,0,1,1,6.28-6.33,6.32,6.32,0,0,1-6.28,6.33m0-13.81a7.49,7.49,0,1,0,7.43,7.48,7.47,7.47,0,0,0-7.43-7.48" transform="translate(-10.87 -17.76)"/><path class="cls-14" d="M91.42,368.56l3,4h-.79a.57.57,0,0,0-.58.57v14.7H89.77v-14.7a.56.56,0,0,0-.57-.57h-.79Zm-4.16,5.19h1.36v14.69a.58.58,0,0,0,.58.58h4.44a.57.57,0,0,0,.57-.58V373.75h1.37a.57.57,0,0,0,.51-.32.57.57,0,0,0,0-.6l-4.16-5.58a.6.6,0,0,0-.92,0l-4.16,5.58a.58.58,0,0,0,.46.92" transform="translate(-10.87 -17.76)"/><path class="cls-14" d="M80.61,378l3,4.05h-.79a.57.57,0,0,0-.57.58v5.28H79v-5.28a.57.57,0,0,0-.57-.58H77.6Zm-4.16,5.2h1.37v5.29a.56.56,0,0,0,.57.57h4.44a.56.56,0,0,0,.57-.57v-5.29h1.37a.58.58,0,0,0,.46-.92l-4.16-5.59a.6.6,0,0,0-.92,0L76,382.24a.57.57,0,0,0,0,.6.57.57,0,0,0,.51.32" transform="translate(-10.87 -17.76)"/><path class="cls-14" d="M102.23,378l3,4.05h-.79a.58.58,0,0,0-.58.58v5.28h-3.29v-5.28A.57.57,0,0,0,100,382h-.79Zm-4.16,5.2h1.36v5.29a.57.57,0,0,0,.58.57h4.44a.56.56,0,0,0,.57-.57v-5.29h1.36a.58.58,0,0,0,.52-.32.55.55,0,0,0-.06-.6l-4.15-5.59a.57.57,0,0,0-.92,0l-4.16,5.59a.57.57,0,0,0,0,.6.55.55,0,0,0,.51.32" transform="translate(-10.87 -17.76)"/><path class="cls-15" d="M159.22,482.53" transform="translate(-10.87 -17.76)"/><path class="cls-16" d="M199.72,121.82a207.13,207.13,0,0,0-60.53,38.12" transform="translate(-10.87 -17.76)"/><path class="cls-16" d="M72.77,287a209.33,209.33,0,0,0,2.56,68.13" transform="translate(-10.87 -17.76)"/><path class="cls-16" d="M152.37,477.65a206.24,206.24,0,0,0,57.64,31" transform="translate(-10.87 -17.76)"/><path class="cls-16" d="M357.9,504a207,207,0,0,0,56.62-35.53" transform="translate(-10.87 -17.76)"/><path class="cls-16" d="M482.83,340.84a208.76,208.76,0,0,0-2.09-67.72" transform="translate(-10.87 -17.76)"/><path class="cls-16" d="M403.91,149.38a206.07,206.07,0,0,0-61.61-32.6" transform="translate(-10.87 -17.76)"/><path class="cls-12" d="M360.07,99.55c0-45.1-37-81.79-82.38-81.79S195.3,54.45,195.3,99.55s37,81.79,82.39,81.79v-3c-43.77,0-79.37-35.34-79.37-78.79s35.6-78.79,79.37-78.79,79.37,35.34,79.37,78.79Z" transform="translate(-10.87 -17.76)"/><path class="cls-10" d="M521.11,265.52c31.89-31.89,31.7-84-.42-116.09s-84.2-32.31-116.09-.42S372.91,233,405,265.1l2.11-2.12c-30.94-31-31.12-81.12-.4-111.84s80.89-30.54,111.84.41,31.12,81.11.4,111.84Z" transform="translate(-10.87 -17.76)"/><path class="cls-8" d="M445.44,501c44.12,9.38,87.69-19.14,97.13-63.58s-18.75-88.21-62.87-97.58S392,359,382.57,403.44l2.93.62c9.1-42.81,51.08-70.29,93.57-61.25s69.68,51.2,60.58,94-51.08,70.29-93.58,61.25Z" transform="translate(-10.87 -17.76)"/><path class="cls-13" d="M194.69,526.45c0,45.1,36.95,81.79,82.38,81.79s82.38-36.69,82.38-81.79-36.95-81.79-82.38-81.79v3c43.76,0,79.37,35.34,79.37,78.79s-35.61,78.8-79.37,78.8-79.37-35.35-79.37-78.8Z" transform="translate(-10.87 -17.76)"/><path class="cls-14" d="M51.64,349.4C12.58,371.94-.71,422.3,22,461.64s73,53,112,30.45,52.35-72.9,29.64-112.24l-2.59,1.5c21.88,37.9,9.07,86.4-28.55,108.13S46.47,498,24.59,460.14,15.52,373.73,53.15,352Z" transform="translate(-10.87 -17.76)"/><path class="cls-15" d="M277.88,35a65,65,0,1,0,65,65,65.09,65.09,0,0,0-65-65m0,133.29A68.27,68.27,0,1,1,346.14,100a68.35,68.35,0,0,1-68.26,68.27" transform="translate(-10.87 -17.76)"/><path class="cls-15" d="M462.75,141.72a65,65,0,1,0,56.38,32.53,64.94,64.94,0,0,0-56.38-32.53M462.88,275a68.29,68.29,0,1,1,65.87-50.61A68.26,68.26,0,0,1,462.88,275" transform="translate(-10.87 -17.76)"/><path class="cls-15" d="M462.88,355.27a65,65,0,1,0,62.74,48.21,65.07,65.07,0,0,0-62.74-48.21m-.13,133.31a68.26,68.26,0,1,1,59.19-34.14,68.26,68.26,0,0,1-59.19,34.14" transform="translate(-10.87 -17.76)"/><path class="cls-15" d="M334.1,494.51A65,65,0,1,0,277.75,592a65,65,0,0,0,56.35-97.48M218.59,561.06a68.27,68.27,0,1,1,59.16,34.18,68.25,68.25,0,0,1-59.16-34.18" transform="translate(-10.87 -17.76)"/><path class="cls-15" d="M92.88,355.27a65,65,0,1,0,56.37,32.53,64.95,64.95,0,0,0-56.37-32.53M93,488.58a68.5,68.5,0,0,1-59.18-34.14A68.28,68.28,0,0,1,92.88,352,68.28,68.28,0,0,1,93,488.58" transform="translate(-10.87 -17.76)"/><path class="cls-12" d="M134,135.25c-39.06-22.55-89.31-8.88-112,30.46S12.54,255.4,51.6,278s89.31,8.89,112-30.46L161,246c-21.89,37.9-70.3,51.06-107.93,29.34S2.67,205.1,24.55,167.2s70.3-51.06,107.92-29.33Z" transform="translate(-10.87 -17.76)"/><path class="cls-15" d="M93,141.72a65.24,65.24,0,0,0-56.37,32.53,65,65,0,0,0,56.25,97.54A65,65,0,0,0,93,141.72M92.88,275a68.27,68.27,0,1,1,59.18-34.14A68.27,68.27,0,0,1,92.88,275" transform="translate(-10.87 -17.76)"/><path class="cls-17" d="M45.34,285.17a233.39,233.39,0,0,0-1.85,26.74" transform="translate(-10.87 -17.76)"/><path class="cls-18" d="M43.54,321a235.75,235.75,0,0,0,2.31,27.42" transform="translate(-10.87 -17.76)"/><path class="cls-4" d="M46.31,351.44h0m-2.84-36.55h0m2.69-35.62h0" transform="translate(-10.87 -17.76)"/><path class="cls-19" d="M137,502a233.51,233.51,0,0,0,51.65,29.34" transform="translate(-10.87 -17.76)"/><path class="cls-4" d="M191.59,532.52h0m-59.52-34.35h0" transform="translate(-10.87 -17.76)"/><path class="cls-20" d="M370.34,529.48a233.82,233.82,0,0,0,62.74-40.2" transform="translate(-10.87 -17.76)"/><path class="cls-4" d="M435.3,487.27h0m-70.48,44.52h0" transform="translate(-10.87 -17.76)"/><path class="cls-21" d="M509.87,339.4q1.1-10.59,1.24-21.44" transform="translate(-10.87 -17.76)"/><path class="cls-22" d="M511.05,308.63a233.85,233.85,0,0,0-4.58-40.43" transform="translate(-10.87 -17.76)"/><path class="cls-4" d="M505.83,265.13h0m5.3,49.76h0m-2,30.6h0" transform="translate(-10.87 -17.76)"/><path class="cls-23" d="M417.35,127.62a233,233,0,0,0-49.49-28.38" transform="translate(-10.87 -17.76)"/><path class="cls-4" d="M365.08,98.09h0m57.05,33.2h0" transform="translate(-10.87 -17.76)"/></g><path class="cls-9" d="M232,343.81a3.14,3.14,0,0,1-1.27,2.61,4.39,4.39,0,0,1-1.52.74,8.57,8.57,0,0,1-2.09.22h-5.07V335.74h4.51a14.59,14.59,0,0,1,2.06.1,4.21,4.21,0,0,1,1.29.41,2.23,2.23,0,0,1,1,.9,2.69,2.69,0,0,1-.12,2.78,3,3,0,0,1-1.26,1V341a3.22,3.22,0,0,1,1.81.94A2.6,2.6,0,0,1,232,343.81ZM228.16,339a1.27,1.27,0,0,0-.14-.58,1,1,0,0,0-.51-.43,2.39,2.39,0,0,0-.82-.13H225v2.46h.47c.47,0,.88,0,1.21,0a2.05,2.05,0,0,0,.79-.15,1,1,0,0,0,.53-.47A1.69,1.69,0,0,0,228.16,339Zm.73,4.74a1.5,1.5,0,0,0-.21-.86,1.35,1.35,0,0,0-.73-.45,4,4,0,0,0-1-.11H225v2.9h2a2.51,2.51,0,0,0,1-.2,1.25,1.25,0,0,0,.65-.52A1.58,1.58,0,0,0,228.89,343.77Z" transform="translate(-10.87 -17.76)"/><path class="cls-9" d="M241.73,347.38h-6.81v-2.07h1.91V337.8h-1.91v-2.06h6.81v2.06h-1.9v7.51h1.9Z" transform="translate(-10.87 -17.76)"/><path class="cls-9" d="M253.79,347.38h-8.41V335.74h8.41V338h-5.43v2h5v2.25h-5v2.87h5.43Z" transform="translate(-10.87 -17.76)"/><path class="cls-9" d="M268.07,347.38h-2.89l-4.94-8v8h-2.75V335.74h3.59l4.24,6.67v-6.67h2.75Z" transform="translate(-10.87 -17.76)"/><path class="cls-9" d="M280.65,347.38h-8.41V335.74h8.41V338h-5.43v2h5v2.25h-5v2.87h5.43Z" transform="translate(-10.87 -17.76)"/><path class="cls-9" d="M293.66,343.72a3.31,3.31,0,0,1-1.45,2.79,6.51,6.51,0,0,1-4,1.08,11,11,0,0,1-2.52-.26,12.79,12.79,0,0,1-2-.64V343.9h.33a7.13,7.13,0,0,0,2.08,1.14,6.94,6.94,0,0,0,2.21.4c.19,0,.43,0,.72-.05a2.56,2.56,0,0,0,.73-.16,1.78,1.78,0,0,0,.57-.35.85.85,0,0,0,.22-.62.82.82,0,0,0-.33-.66,2.16,2.16,0,0,0-.95-.43c-.43-.1-.9-.2-1.38-.29a10.14,10.14,0,0,1-1.37-.35,4.37,4.37,0,0,1-2.12-1.29,3.18,3.18,0,0,1-.64-2,3.1,3.1,0,0,1,1.46-2.65,6.31,6.31,0,0,1,3.74-1,12.3,12.3,0,0,1,2.27.22,10.8,10.8,0,0,1,1.94.56V339h-.32a6.24,6.24,0,0,0-1.72-.94,6,6,0,0,0-2.08-.38,6.3,6.3,0,0,0-.75.05,3.38,3.38,0,0,0-.71.19,1.39,1.39,0,0,0-.53.36.83.83,0,0,0,.14,1.25,4,4,0,0,0,1.32.45l1.24.26a10.92,10.92,0,0,1,1.26.34,4.26,4.26,0,0,1,2,1.19A3,3,0,0,1,293.66,343.72Z" transform="translate(-10.87 -17.76)"/><path class="cls-9" d="M306,338h-3.63v9.39h-3V338h-3.63v-2.25H306Z" transform="translate(-10.87 -17.76)"/><path class="cls-9" d="M319.76,347.38h-3.1l-.81-2.36h-4.3l-.81,2.36h-3l4.3-11.64h3.45Zm-4.63-4.49-1.43-4.17-1.43,4.17Z" transform="translate(-10.87 -17.76)"/><path class="cls-9" d="M333.82,347.38h-3.67L327,343.11H325.6v4.27h-3V335.74h5a11.36,11.36,0,0,1,1.77.12,3.89,3.89,0,0,1,1.39.51,2.79,2.79,0,0,1,1.43,2.57,3.44,3.44,0,0,1-.6,2.1,4.59,4.59,0,0,1-1.7,1.35Zm-4.68-8.08a1.49,1.49,0,0,0-.18-.75,1.26,1.26,0,0,0-.62-.49,2.4,2.4,0,0,0-.71-.15c-.27,0-.59,0-.94,0H325.6V341h.92a9.69,9.69,0,0,0,1.2-.07,1.73,1.73,0,0,0,.82-.33,1.39,1.39,0,0,0,.45-.53A1.76,1.76,0,0,0,329.14,339.3Z" transform="translate(-10.87 -17.76)"/><g class="cls-2"><path class="cls-9" d="M263.31,313.69h9.86a3.78,3.78,0,0,0-3.56-2.52h-6.3Zm11.34,2.52h-12.6a1.27,1.27,0,0,1-1.27-1.26v-5a1.26,1.26,0,0,1,1.27-1.26h7.56a6.31,6.31,0,0,1,6.3,6.3,1.26,1.26,0,0,1-1.26,1.26" transform="translate(-10.87 -17.76)"/><path class="cls-9" d="M283.69,275.88a3.79,3.79,0,0,0,3.56,2.52h6.31v-2.52Zm11.13,5h-7.57a6.31,6.31,0,0,1-6.3-6.3,1.26,1.26,0,0,1,1.26-1.26h12.61a1.26,1.26,0,0,1,1.26,1.26v5a1.27,1.27,0,0,1-1.26,1.26" transform="translate(-10.87 -17.76)"/><path class="cls-9" d="M281.22,269.57,269.28,275a1.72,1.72,0,0,0-.66.57,1.62,1.62,0,0,0-.27.91,1.56,1.56,0,0,0,.73,1.34,1.59,1.59,0,0,0,1.55.12l9.8-4.46a1.17,1.17,0,0,1,.52-.12h12.61v-3.78Zm-11.26,11a4.14,4.14,0,0,1-3.43-6.44,4.22,4.22,0,0,1,1.71-1.45l12.19-5.53a1.17,1.17,0,0,1,.52-.12h13.87a1.27,1.27,0,0,1,1.26,1.26v6.31a1.27,1.27,0,0,1-1.26,1.26h-13.6l-9.55,4.34a4.12,4.12,0,0,1-1.71.37" transform="translate(-10.87 -17.76)"/><path class="cls-9" d="M296.08,280.92h10.08V267.05H296.08Zm11.34,2.52h-12.6a1.27,1.27,0,0,1-1.27-1.26V265.79a1.27,1.27,0,0,1,1.27-1.26h12.6a1.26,1.26,0,0,1,1.26,1.26v16.39a1.26,1.26,0,0,1-1.26,1.26" transform="translate(-10.87 -17.76)"/><path class="cls-9" d="M250.7,322.51h10.08V308.65H250.7ZM262.05,325H249.44a1.26,1.26,0,0,1-1.26-1.26V307.39a1.26,1.26,0,0,1,1.26-1.26h12.61a1.26,1.26,0,0,1,1.26,1.26v16.38a1.26,1.26,0,0,1-1.26,1.26" transform="translate(-10.87 -17.76)"/><path class="cls-9" d="M263.31,320h12.33l11.94-5.42a1.64,1.64,0,0,0,.66-.57,1.59,1.59,0,0,0,.27-.9,1.56,1.56,0,0,0-.73-1.35,1.61,1.61,0,0,0-1.55-.11l-9.8,4.46a1.31,1.31,0,0,1-.52.11h-12.6Zm12.6,2.52H262a1.26,1.26,0,0,1-1.26-1.26V315a1.26,1.26,0,0,1,1.26-1.26h13.6l9.55-4.35a4.16,4.16,0,0,1,4,.29,4.13,4.13,0,0,1-.53,7.23l-12.19,5.54a1.31,1.31,0,0,1-.52.11" transform="translate(-10.87 -17.76)"/><path class="cls-9" d="M263.31,308.65h6.3a6.3,6.3,0,0,1,6.16,5l9.42-4.29a4.13,4.13,0,0,1,5.74,2.84,21.39,21.39,0,0,0,5.67-28.74h-1.78a1.26,1.26,0,0,1-1.26-1.26v-1.26h-6.31a6.31,6.31,0,0,1-6.16-5l-9.42,4.28a4.13,4.13,0,0,1-5.74-2.84,21.41,21.41,0,0,0-5.67,28.75H262a1.26,1.26,0,0,1,1.27,1.26Zm12.6,7.56h-1.26a1.26,1.26,0,0,1-1.26-1.26,3.78,3.78,0,0,0-3.78-3.78H262a1.27,1.27,0,0,1-1.26-1.26v-1.26h-1.21a1.24,1.24,0,0,1-1-.56A23.93,23.93,0,0,1,267,273.75a1.26,1.26,0,0,1,1.65,1.81,1.62,1.62,0,0,0-.27.91,1.56,1.56,0,0,0,.73,1.34,1.59,1.59,0,0,0,1.55.12l9.8-4.46a1.17,1.17,0,0,1,.52-.12h1.26a1.26,1.26,0,0,1,1.26,1.26,3.79,3.79,0,0,0,3.78,3.79h7.57a1.26,1.26,0,0,1,1.26,1.26v1.26h1.21a1.26,1.26,0,0,1,1,.55,23.94,23.94,0,0,1-8.44,34.35,1.28,1.28,0,0,1-1.54-.26,1.26,1.26,0,0,1-.11-1.56,1.59,1.59,0,0,0,.27-.9,1.56,1.56,0,0,0-.73-1.35,1.61,1.61,0,0,0-1.55-.11l-9.8,4.46a1.31,1.31,0,0,1-.52.11" transform="translate(-10.87 -17.76)"/><path class="cls-9" d="M278.43,302.34a1.25,1.25,0,0,1-1.26-1.26v-12.6a1.26,1.26,0,0,1,2.52,0v12.6a1.25,1.25,0,0,1-1.26,1.26" transform="translate(-10.87 -17.76)"/><path class="cls-9" d="M284.73,296h-12.6a1.26,1.26,0,1,1,0-2.52h12.6a1.26,1.26,0,0,1,0,2.52" transform="translate(-10.87 -17.76)"/></g></svg>