<?xml version="1.0" encoding="utf-8"?>
<!-- Generator: Adobe Illustrator 25.2.1, SVG Export Plug-In . SVG Version: 6.00 Build 0)  -->
<svg version="1.1" id="Capa_1" xmlns="http://www.w3.org/2000/svg" xmlns:xlink="http://www.w3.org/1999/xlink" x="0px" y="0px"
	 viewBox="0 0 160 120" style="enable-background:new 0 0 160 120;" xml:space="preserve">
<style type="text/css">
	.st0{fill:none;stroke:#CE0159;stroke-width:3;}
</style>
<path id="Trazado_304" class="st0" d="M23.9,100.8c6.7,10.9,15.4,16.3,26.2,16.3s19.5-5.4,26.2-16.3c6.7-10.9,10-24.2,10-40
	c0-15.7-3.3-28.8-10-39.2S60.9,5.9,50.1,5.9c-10.8,0-19.5,5.2-26.2,15.7s-10,23.6-10,39.2C13.9,76.6,17.2,89.9,23.9,100.8z
	 M37.7,32.8c3.1-7.1,7.2-10.6,12.4-10.6c5.1,0,9.2,3.6,12.2,10.6c3.1,7.1,4.6,16.5,4.6,28.2c0.3,9.9-1.2,19.7-4.6,29
	c-3.1,7.4-7.2,11.1-12.2,11.2c-5.1,0-9.2-3.7-12.3-11.2c-3.4-9.3-5-19.2-4.7-29C33.1,49.3,34.6,39.9,37.7,32.8z M101.3,47.9l26-14.8
	v81.8h18.1V56.2c0-7.9,0.1-18.3,0.3-31.3s0.3-20.2,0.3-21.7l-44.8,25.7V47.9z"/>
</svg>
