<svg id="Capa_1" data-name="Capa 1" xmlns="http://www.w3.org/2000/svg" viewBox="0 0 133.2 115.37"><defs><style>.cls-1{fill:none;stroke:#fff;}</style></defs><path id="Trazado_304" data-name="Trazado 304" class="cls-1" d="M10.49,98.52q10,16.33,26.19,16.34T62.86,98.52q10-16.35,10-40t-10-39.23q-10-15.7-26.18-15.75T10.49,19.26Q.49,35,.49,58.49.51,82.18,10.49,98.52ZM24.3,30.46q4.61-10.6,12.38-10.6,7.62,0,12.22,10.65T53.5,58.7a77.46,77.46,0,0,1-4.6,29.05Q44.28,98.87,36.68,98.91T24.38,87.7A76.29,76.29,0,0,1,19.7,58.65Q19.7,41.12,24.3,30.46ZM87.93,45.54l26-14.84v81.79H132V53.91q0-11.83.32-31.34T132.68.86L87.93,26.6Z" transform="translate(0.01 0.01)"/></svg>