<svg id="Capa_1" data-name="Capa 1" xmlns="http://www.w3.org/2000/svg" viewBox="0 0 156.09 112.6"><defs><style>.cls-1{fill:none;stroke:#fff;}</style></defs><path id="Trazado_303" data-name="Trazado 303" class="cls-1" d="M10.5,95.73q10,16.38,26.17,16.39T62.85,95.73q10-16.38,10-40.12t-10-39.34Q52.86.52,36.67.52T10.5,16.27Q.5,32,.5,55.61.5,79.35,10.5,95.73ZM24.3,27.51q4.59-10.7,12.37-10.7,7.62,0,12.22,10.69t4.6,28.31a78.06,78.06,0,0,1-4.6,29.12q-4.61,11.2-12.22,11.2T24.38,84.89Q19.7,73.66,19.7,55.81,19.7,38.19,24.3,27.51Zm118.43,37q10.7-16.82,10.71-30.7,0-15-8.49-24.14T120.44.57A30.54,30.54,0,0,0,97.83,9.43,27.87,27.87,0,0,0,89,29.49a25.59,25.59,0,0,0,2.08,10.32h15.55a25,25,0,0,1-1.26-7.28,16,16,0,0,1,3.41-10.6,12.35,12.35,0,0,1,10.07-4.12q15.08,0,15.07,17.25,0,17.42-14.27,36.4A165.85,165.85,0,0,1,84,105.94l1.11,3.8h69.33l1.11-16q-6.83.47-37.76.47a142,142,0,0,0,24.94-29.66Z" transform="translate(0 -0.02)"/></svg>