<?xml version="1.0" encoding="utf-8"?>
<!-- Generator: Adobe Illustrator 25.2.1, SVG Export Plug-In . SVG Version: 6.00 Build 0)  -->
<svg version="1.1" id="Capa_1" xmlns="http://www.w3.org/2000/svg" xmlns:xlink="http://www.w3.org/1999/xlink" x="0px" y="0px"
	 viewBox="0 0 160 120" style="enable-background:new 0 0 160 120;" xml:space="preserve">
<style type="text/css">
	.st0{fill:none;stroke:#F42D81;stroke-width:3;}
</style>
<path id="Trazado_303" class="st0" d="M12.5,99.4c6.7,10.9,15.4,16.4,26.2,16.4s19.5-5.5,26.2-16.4c6.7-10.9,10-24.3,10-40.1
	s-3.3-28.9-10-39.3C58.2,9.5,49.4,4.2,38.7,4.2S19.1,9.5,12.5,20c-6.7,10.5-10,23.6-10,39.3C2.5,75.1,5.8,88.5,12.5,99.4z
	 M26.3,31.2c3.1-7.1,7.2-10.7,12.4-10.7c5.1,0,9.2,3.6,12.2,10.7s4.6,16.6,4.6,28.3c0.3,9.9-1.2,19.8-4.6,29.1
	c-3.1,7.5-7.1,11.2-12.2,11.2s-9.2-3.7-12.3-11.2c-3.1-7.5-4.7-17.2-4.7-29.1C21.7,47.8,23.2,38.3,26.3,31.2z M144.7,68.2
	c7.1-11.2,10.7-21.4,10.7-30.7c0-10-2.8-18-8.5-24.1s-13.8-9.1-24.5-9.1C114,4,105.8,7.2,99.8,13.1c-5.6,5.2-8.8,12.4-8.8,20.1
	c0,3.5,0.7,7.1,2.1,10.3h15.6c-0.8-2.4-1.2-4.8-1.3-7.3c-0.2-3.8,1-7.6,3.4-10.6c2.5-2.9,6.3-4.4,10.1-4.1
	c10.1,0,15.1,5.8,15.1,17.3c0,11.6-4.8,23.7-14.3,36.4C111.5,88.4,99.5,100,86,109.6l1.1,3.8h69.3l1.1-16
	c-4.6,0.3-17.1,0.5-37.8,0.5C129.4,89.2,137.8,79.2,144.7,68.2L144.7,68.2z"/>
</svg>
