<svg id="Capa_1" data-name="Capa 1" xmlns="http://www.w3.org/2000/svg" viewBox="0 0 156.04 112.61"><defs><style>.cls-1{fill:none;stroke:#f42d81;}</style></defs><path id="Trazado_303" data-name="Trazado 303" class="cls-1" d="M14.5,98.92q10,16.38,26.17,16.39T66.85,98.92q10-16.38,10-40.12t-10-39.34Q56.86,3.71,40.67,3.71T14.5,19.46q-10,15.75-10,39.34Q4.5,82.54,14.5,98.92ZM28.3,30.7Q32.89,20,40.67,20q7.62,0,12.22,10.69T57.49,59a78.06,78.06,0,0,1-4.6,29.12Q48.29,99.32,40.67,99.32T28.38,88.08Q23.7,76.85,23.7,59,23.7,41.38,28.3,30.7Zm118.43,37Q157.43,50.88,157.44,37q0-15-8.49-24.14t-24.51-9.1a30.53,30.53,0,0,0-22.61,8.86A27.84,27.84,0,0,0,93,32.68,25.48,25.48,0,0,0,95.08,43h15.55a25.06,25.06,0,0,1-1.26-7.28,16,16,0,0,1,3.41-10.6A12.33,12.33,0,0,1,122.85,21q15.08,0,15.07,17.25,0,17.42-14.27,36.4A165.81,165.81,0,0,1,88,109.13l1.11,3.8h69.33l1.11-16q-6.83.47-37.76.47A141.8,141.8,0,0,0,146.73,67.74Z" transform="translate(-4 -3.19)"/></svg>