<?xml version="1.0" encoding="utf-8"?>
<!-- Generator: Adobe Illustrator 25.2.1, SVG Export Plug-In . SVG Version: 6.00 Build 0)  -->
<svg version="1.1" id="Capa_1" xmlns="http://www.w3.org/2000/svg" xmlns:xlink="http://www.w3.org/1999/xlink" x="0px" y="0px"
	 viewBox="0 0 160 120" style="enable-background:new 0 0 160 120;" xml:space="preserve">
<style type="text/css">
	.st0{fill:none;stroke:#FFFFFF;stroke-width:3;}
</style>
<path id="Trazado_302" class="st0" d="M17.2,99.2c6.6,10.9,15.3,16.3,26,16.3s19.4-5.4,26-16.3c6.6-10.8,9.9-24.1,9.9-39.8
	c0-15.6-3.3-28.6-9.9-39.1S53.9,4.7,43.2,4.7c-10.7,0-19.4,5.2-26,15.6s-9.9,23.4-9.9,39C7.3,75.1,10.6,88.4,17.2,99.2z M30.9,31.5
	c3.1-7.1,7.1-10.6,12.3-10.6c5,0,9.1,3.5,12.1,10.6c3,7.1,4.6,16.4,4.6,28c0,11.8-1.5,21.5-4.6,28.9c-3,7.4-7.1,11.2-12.1,11.2
	c-5,0-9.1-3.7-12.2-11.2s-4.7-17.1-4.6-28.9C26.4,47.9,27.9,38.5,30.9,31.5z M111.9,65.7c5.5-0.3,11,1.2,15.6,4.4
	c3.8,3,5.9,7.7,5.7,12.6c0.1,4.7-1.7,9.3-5.2,12.5c-3.5,3.3-8.5,4.9-15,4.9c-7.3,0.1-14.5-1.6-21-4.9v16c6.8,3,14.2,4.5,21.6,4.3
	c12.1,0,21.6-3.2,28.6-9.6c6.7-5.8,10.6-14.3,10.5-23.3c0-5.8-2-11.4-5.7-15.8c-3.5-4.7-8.3-8.2-13.9-10.1c4.9-1.9,9.1-5.2,12-9.5
	c3-4.2,4.5-9.2,4.5-14.4c0.2-7.6-2.7-14.9-8.1-20.2c-5.4-5.4-13.6-8.1-24.7-8.1c-7.5,0-15,1.2-22.2,3.6v17.3
	c6.1-3.7,13.2-5.6,20.3-5.5c5.3,0,9.3,1.4,11.9,4.3c2.6,2.9,4,6.7,3.9,10.6c0.2,4.6-1.7,9.1-5.2,12.1c-3.5,3-8.5,4.6-15.1,4.6
	c-1.3,0-2.6,0-3.9-0.2V66C108.9,65.8,110.8,65.7,111.9,65.7L111.9,65.7z"/>
</svg>
