<svg id="Capa_1" data-name="Capa 1" xmlns="http://www.w3.org/2000/svg" viewBox="0 0 146.38 112.02"><defs><style>.cls-1{fill:none;stroke:#fff;}</style></defs><path id="Trazado_302" data-name="Trazado 302" class="cls-1" d="M10.42,95.21q9.93,16.29,26,16.29t26-16.27Q72.34,79,72.33,55.38q0-23.41-9.92-39.07T36.41.68q-16.06,0-26,15.64T.5,55.37Q.5,78.94,10.42,95.21ZM24.12,27.5Q28.7,16.9,36.41,16.89q7.56,0,12.13,10.61t4.57,28q0,17.76-4.57,28.92T36.41,95.6q-7.56,0-12.22-11.16T19.55,55.5Q19.55,38.05,24.12,27.5Zm81,34.18a24.88,24.88,0,0,1,15.59,4.41,15,15,0,0,1,5.67,12.58,16.47,16.47,0,0,1-5.19,12.53q-5.2,4.88-15,4.88a46.23,46.23,0,0,1-21-4.88v16a50.1,50.1,0,0,0,21.62,4.3q18.12,0,28.59-9.59a30.36,30.36,0,0,0,10.48-23.26,25.22,25.22,0,0,0-5.69-15.82,29.5,29.5,0,0,0-13.86-10.14,25.77,25.77,0,0,0,12-9.51,24.85,24.85,0,0,0,4.49-14.39,27.39,27.39,0,0,0-8.12-20.2Q126.67.51,110,.5a71.87,71.87,0,0,0-22.2,3.61v17.3a37.6,37.6,0,0,1,20.32-5.51q8,0,11.89,4.33a15.33,15.33,0,0,1,3.86,10.61,15.29,15.29,0,0,1-5.19,12.1q-5.2,4.56-15.13,4.56a36.88,36.88,0,0,1-3.93-.15V62c2.51-.2,4.34-.31,5.5-.31Z" transform="translate(0)"/></svg>