<svg id="Capa_1" data-name="Capa 1" xmlns="http://www.w3.org/2000/svg" viewBox="0 0 146.39 112"><defs><style>.cls-1{fill:none;stroke:#ff7b27;}</style></defs><path id="Trazado_302" data-name="Trazado 302" class="cls-1" d="M14.23,98.71Q24.16,115,40.22,115t26-16.27q9.93-16.27,9.92-39.85,0-23.41-9.92-39.07t-26-15.63q-16.06,0-26,15.64T4.31,58.87Q4.31,82.44,14.23,98.71ZM27.93,31q4.58-10.6,12.29-10.61,7.56,0,12.13,10.61T56.92,59q0,17.76-4.57,28.92T40.22,99.1Q32.66,99.1,28,87.94T23.36,59Q23.36,41.56,27.93,31Zm81,34.18a24.88,24.88,0,0,1,15.59,4.41,15,15,0,0,1,5.67,12.58A16.48,16.48,0,0,1,125,94.7q-5.2,4.88-15,4.88A46.31,46.31,0,0,1,89,94.7v16A50.19,50.19,0,0,0,110.62,115q18.12,0,28.59-9.59a30.36,30.36,0,0,0,10.48-23.26A25.22,25.22,0,0,0,144,66.33a29.5,29.5,0,0,0-13.86-10.14,25.77,25.77,0,0,0,12.05-9.51,24.85,24.85,0,0,0,4.49-14.39,27.42,27.42,0,0,0-8.12-20.2Q130.48,4,113.78,4a71.87,71.87,0,0,0-22.2,3.61v17.3A37.6,37.6,0,0,1,111.9,19.4q8,0,11.89,4.33a15.33,15.33,0,0,1,3.86,10.61,15.29,15.29,0,0,1-5.19,12.1Q117.26,51,107.33,51a36.88,36.88,0,0,1-3.93-.15V65.46c2.51-.2,4.34-.31,5.5-.31Z" transform="translate(-3.81 -3.5)"/></svg>