<svg id="Capa_1" data-name="Capa 1" xmlns="http://www.w3.org/2000/svg" viewBox="0 0 157.29 112"><defs><style>.cls-1{fill:none;stroke:#0bb6a1;stroke-miterlimit:3.95;}</style></defs><path id="Trazado_300" data-name="Trazado 300" class="cls-1" d="M13.93,98.71Q23.85,115,39.92,115t26-16.29q9.93-16.29,9.92-39.91,0-23.46-9.92-39.13T39.92,4q-16.07,0-26,15.66T4,58.79Q4,82.42,13.93,98.71Zm13.7-67.86q4.57-10.63,12.29-10.63,7.56,0,12.13,10.62T56.62,59q0,17.79-4.57,29T39.92,99.1q-7.56,0-12.21-11.18T23.06,59Q23.06,41.47,27.63,30.85Zm99.89,53.76v28h16.54v-28h16.23V69H144.06V50.61q0-28.5.63-44.24H128.15A746.48,746.48,0,0,0,82.93,82.72l.95,1.89ZM108.62,69c-.63,0-.94-.42-.94-1.26a1.73,1.73,0,0,1,.15-.78q4.58-9.77,19.7-35.11V69Z" transform="translate(-3.5 -3.5)"/></svg>