<?xml version="1.0" encoding="utf-8"?>
<!-- Generator: Adobe Illustrator 25.2.1, SVG Export Plug-In . SVG Version: 6.00 Build 0)  -->
<svg version="1.1" id="Capa_1" xmlns="http://www.w3.org/2000/svg" xmlns:xlink="http://www.w3.org/1999/xlink" x="0px" y="0px"
	 viewBox="0 0 157.3 112" style="enable-background:new 0 0 157.3 112;" xml:space="preserve">
<style type="text/css">
	.st0{fill:none;stroke:#FFFFFF;stroke-miterlimit:3.95;}
</style>
<path id="Trazado_300" class="st0" d="M10.4,95.2c6.6,10.9,15.3,16.3,26,16.3s19.4-5.4,26-16.3C69,84.3,72.4,71,72.3,55.3
	c0-15.6-3.3-28.7-9.9-39.1S47.1,0.5,36.4,0.5c-10.7,0-19.4,5.2-26,15.7S0.5,39.6,0.5,55.3C0.5,71,3.8,84.3,10.4,95.2z M24.1,27.3
	c3-7.1,7.1-10.6,12.3-10.6c5,0,9.1,3.5,12.1,10.6s4.6,16.5,4.6,28.2c0,11.9-1.5,21.5-4.6,29c-3,7.5-7.1,11.2-12.1,11.1
	c-5,0-9.1-3.7-12.2-11.2s-4.6-17.1-4.6-28.9C19.6,43.8,21.1,34.5,24.1,27.3z M124,81.1v28h16.5v-28h16.2V65.5h-16.2V47.1
	c0-19,0.2-33.7,0.6-44.2h-16.5c-16.6,24.5-31.7,50-45.2,76.4l0.9,1.9H124z M105.1,65.5c-0.6,0-0.9-0.4-0.9-1.3c0-0.3,0-0.5,0.2-0.8
	c3.1-6.5,9.6-18.2,19.7-35.1v37.2H105.1z"/>
</svg>
