<svg id="Capa_1" data-name="Capa 1" xmlns="http://www.w3.org/2000/svg" viewBox="0 0 147.5 112.13"><defs><style>.cls-1{fill:none;stroke:#fff;}</style></defs><path id="Trazado_305" data-name="Trazado 305" class="cls-1" d="M10.46,95.32q9.95,16.31,26.07,16.31T62.59,95.32q10-16.32,10-40,0-23.49-10-39.17T36.53.5Q20.41.5,10.46,16.19T.46,55.36Q.51,79,10.46,95.32ZM24.23,27.37q4.56-10.64,12.3-10.64,7.57,0,12.16,10.64T53.23,55.5q0,17.82-4.58,29T36.53,95.71q-7.59,0-12.23-11.19t-4.67-29Q19.63,38,24.23,27.37Zm116.43-7.8V3H89Q88,22.25,86.44,60.71a56,56,0,0,1,18.17-3.31,25.7,25.7,0,0,1,16.75,5.1A17.7,17.7,0,0,1,127.52,77a17.56,17.56,0,0,1-5.85,14q-5.85,5.11-16.9,5.12a40.68,40.68,0,0,1-20.69-5.2v16.55a54.39,54.39,0,0,0,20.85,4q20.85,0,31.44-10.33A34.58,34.58,0,0,0,147,75.41a33.48,33.48,0,0,0-9.48-24Q128,41.5,110.61,41.5a42.38,42.38,0,0,0-6.16.48l1.42-23.18q27,0,34.76.77Z" transform="translate(0.04 0)"/></svg>