<?xml version="1.0" encoding="utf-8"?>
<!-- Generator: Adobe Illustrator 25.2.1, SVG Export Plug-In . SVG Version: 6.00 Build 0)  -->
<svg version="1.1" id="Capa_1" xmlns="http://www.w3.org/2000/svg" xmlns:xlink="http://www.w3.org/1999/xlink" x="0px" y="0px"
	 viewBox="0 0 160 120" style="enable-background:new 0 0 160 120;" xml:space="preserve">
<style type="text/css">
	.st0{fill:none;stroke:#126A92;stroke-width:3;}
</style>
<path id="Trazado_305" class="st0" d="M16.7,99.3c6.6,10.9,15.3,16.3,26.1,16.3s19.4-5.4,26.1-16.3c6.7-10.9,10-24.2,10-40
	c0-15.7-3.3-28.7-9.9-39.2S53.6,4.4,42.8,4.4c-10.7,0-19.4,5.2-26.1,15.7s-10,23.5-10,39.2C6.8,75.1,10.1,88.4,16.7,99.3z
	 M30.5,31.3c3-7.1,7.1-10.6,12.3-10.6c5.1,0,9.1,3.5,12.2,10.6c3.1,7.1,4.6,16.5,4.5,28.1c0,11.9-1.5,21.5-4.6,29
	c-3.1,7.5-7.1,11.2-12.1,11.2c-5.1,0-9.1-3.7-12.2-11.2s-4.6-17.1-4.7-29C25.9,47.8,27.4,38.4,30.5,31.3z M146.9,23.5V7H95.2
	c-0.6,12.8-1.5,32-2.5,57.7c5.8-2.1,12-3.2,18.2-3.3c6-0.3,11.9,1.5,16.8,5.1c4.2,3.6,6.5,9,6.2,14.5c0.3,5.3-1.9,10.5-5.8,14
	c-3.9,3.4-9.5,5.1-16.9,5.1c-7.2,0.1-14.4-1.7-20.7-5.2v16.5c6.6,2.7,13.7,4.1,20.9,4c13.9,0,24.4-3.4,31.4-10.3
	c7-6.7,10.8-16.1,10.6-25.8c0.2-8.9-3.2-17.6-9.5-24c-6.3-6.6-15.3-9.9-26.9-9.9c-2.1,0-4.1,0.2-6.2,0.5l1.4-23.2
	C130.2,22.7,141.7,23,146.9,23.5L146.9,23.5z"/>
</svg>
