<svg id="Capa_1" data-name="Capa 1" xmlns="http://www.w3.org/2000/svg" viewBox="0 0 151.53 114.65"><defs><style>.cls-1{fill:none;stroke:#4b278d;}</style></defs><path id="Trazado_301" data-name="Trazado 301" class="cls-1" d="M13.71,99.18q10,16.35,26.15,16.34T66,99.18q10-16.34,10-40,0-23.53-10-39.24T39.86,4.21q-16.17,0-26.15,15.71t-10,39.24Q3.73,82.85,13.71,99.18ZM27.5,31.13q4.59-10.65,12.36-10.65,7.61,0,12.2,10.65t4.59,28.18a77.48,77.48,0,0,1-4.59,29.06q-4.61,11.2-12.2,11.21T27.58,88.37A76.34,76.34,0,0,1,22.9,59.31Q22.9,41.79,27.5,31.13ZM139.36,2Q113.7,12.58,100.54,32.08A74.63,74.63,0,0,0,87.39,74.63q0,19.43,9.2,30.16a30.17,30.17,0,0,0,24.09,10.73q16.15,0,24.87-11.6a43.85,43.85,0,0,0,8.71-27.08q0-17.06-8.56-26.52a26.93,26.93,0,0,0-20.76-9.48,23.06,23.06,0,0,0-12.2,3,83.34,83.34,0,0,1,14.34-16.51,77.52,77.52,0,0,1,20.84-13.5ZM120.5,100.37a12.4,12.4,0,0,1-11-6.56,33.31,33.31,0,0,1-4-17.6,26.06,26.06,0,0,1,3.89-14.69,12.74,12.74,0,0,1,11.32-5.84,12.11,12.11,0,0,1,9.44,4.19,19.93,19.93,0,0,1,4.75,8.52,37.83,37.83,0,0,1,1,8.61Q135.88,100.37,120.5,100.37Z" transform="translate(-3.23 -1.39)"/></svg>