<svg id="Capa_1" data-name="Capa 1" xmlns="http://www.w3.org/2000/svg" viewBox="0 0 151.56 114.65"><defs><style>.cls-1{fill:none;stroke:#fff;}</style></defs><path id="Trazado_301" data-name="Trazado 301" class="cls-1" d="M10.48,97.79q10,16.35,26.15,16.34T62.77,97.79q10-16.33,10-40t-10-39.24Q52.77,2.84,36.63,2.82T10.48,18.53Q.5,34.24.48,57.77T10.48,97.79ZM24.27,29.74q4.59-10.65,12.36-10.65,7.6,0,12.2,10.65t4.59,28.18A77.51,77.51,0,0,1,48.83,87q-4.61,11.2-12.2,11.21T24.35,87a76.34,76.34,0,0,1-4.68-29.06Q19.67,40.4,24.27,29.74ZM136.13.61Q110.47,11.18,97.31,30.69A74.63,74.63,0,0,0,84.16,73.24q0,19.42,9.2,30.16a30.17,30.17,0,0,0,24.09,10.73q16.15,0,24.87-11.6A43.85,43.85,0,0,0,151,75.45q0-17.06-8.56-26.52a26.94,26.94,0,0,0-20.76-9.48,23,23,0,0,0-12.2,3,83.34,83.34,0,0,1,14.34-16.51,77.52,77.52,0,0,1,20.84-13.5ZM117.27,99a12.4,12.4,0,0,1-11-6.56,33.32,33.32,0,0,1-4-17.6,26.06,26.06,0,0,1,3.89-14.69,12.74,12.74,0,0,1,11.32-5.84,12.11,12.11,0,0,1,9.44,4.19A19.93,19.93,0,0,1,131.67,67a37.79,37.79,0,0,1,1,8.61Q132.66,99,117.27,99Z" transform="translate(0.02 0)"/></svg>