<svg id="Capa_1" data-name="Capa 1" xmlns="http://www.w3.org/2000/svg" viewBox="0 0 498.41 118.5"><defs><style>.cls-1{fill:#00ae9e;}.cls-2{fill:#f58025;}.cls-3{fill:#652d89;}.cls-4{fill:#ce0058;}.cls-5{fill:#006990;}.cls-6{fill:#910048;}.cls-7{fill:#57616e;}</style></defs><g id="Grupo_787" data-name="Grupo 787"><g id="Grupo_785" data-name="Grupo 785"><path id="Trazado_891" data-name="Trazado 891" class="cls-1" d="M457,67c1.67-12.65,3.17-24.42,5-35.12a108,108,0,0,0-54.83,72,246.57,246.57,0,0,1,49-30.74c.32-2,.62-4.12.88-6.16" transform="translate(-15.8 -9.75)"/><path id="Trazado_892" data-name="Trazado 892" class="cls-2" d="M503,19.79c2.94-.27,5.86-.39,8.77-.41a176.64,176.64,0,0,1,2.15,38.91,156.91,156.91,0,0,0-34.39,6.09,165.87,165.87,0,0,0-23.45,8.81c.32-2,.64-4.12.88-6.16,1.67-12.64,3.17-24.41,5-35.12A107.55,107.55,0,0,1,503,19.81" transform="translate(-15.8 -9.75)"/><path id="Trazado_893" data-name="Trazado 893" class="cls-3" d="M444.21,17.92c6.55-2.7,14-5.42,22.5-8.17A201.09,201.09,0,0,0,462,31.87a108,108,0,0,0-54.83,72c-.24-.84-.48-1.68-.67-2.57-3.78-17.11-5.67-30.61-4-41.83,2.6-18.1,14.38-30.13,41.8-41.59" transform="translate(-15.8 -9.75)"/><path id="Trazado_894" data-name="Trazado 894" class="cls-4" d="M507.67,73c1.22-.12,2.41-.15,3.6-.17a62.67,62.67,0,0,1-23.84,31.94,121.83,121.83,0,0,1-29.15,17.12A54.45,54.45,0,0,1,507.67,73" transform="translate(-15.8 -9.75)"/><path id="Trazado_895" data-name="Trazado 895" class="cls-5" d="M407.12,103.9v0a29.43,29.43,0,0,0,31.66,22.41,175.34,175.34,0,0,0,17.29-53.18,246.86,246.86,0,0,0-49,30.74" transform="translate(-15.8 -9.75)"/><path id="Trazado_896" data-name="Trazado 896" class="cls-6" d="M513.93,58.27a70.79,70.79,0,0,1-2.67,14.51c-1.19,0-2.4,0-3.6.18a54.43,54.43,0,0,0-49.38,48.88,59.55,59.55,0,0,1-19.5,4.51,175.42,175.42,0,0,0,17.29-53.18,163.9,163.9,0,0,1,23.45-8.81,156.41,156.41,0,0,1,34.4-6.09" transform="translate(-15.8 -9.75)"/></g><g id="Grupo_786" data-name="Grupo 786"><path id="Trazado_897" data-name="Trazado 897" class="cls-7" d="M51.16,115c0,1.31-1.92,2.51-5.38,2.51-9.24,0-15.59-5.39-15.59-18.82,0-14.75,8-19.42,18.82-19.42a41.32,41.32,0,0,1,12.58,2l.15-11.88a57,57,0,0,0-12.62-1.32c-18.57,0-33.32,9.49-33.32,30.34,0,21.57,14.51,29.84,30.7,29.84a49.66,49.66,0,0,0,17.73-3.11V97.71H51.17Z" transform="translate(-15.8 -9.75)"/><path id="Trazado_898" data-name="Trazado 898" class="cls-7" d="M90.14,114.82V101.76H110.9V91.71H90.14c0-4.7,0-7.82.25-10.81a1.54,1.54,0,0,1,1.33-1.21,209.52,209.52,0,0,1,21.7.61v-11H77v57.78h37.31V115.91c-4.56.36-10,.48-22.53.48a1.51,1.51,0,0,1-1.58-1.45v-.11" transform="translate(-15.8 -9.75)"/><path id="Trazado_899" data-name="Trazado 899" class="cls-7" d="M161.72,101.18c0,.82-.23,1.31-.72,1.31-.22,0-.34-.11-.59-.25l-21.7-33h-13.3v57.79h12V89.31c4.9,6.82,18.35,27.7,23.85,37.76h12.34V69.28H161.74Z" transform="translate(-15.8 -9.75)"/><path id="Trazado_900" data-name="Trazado 900" class="cls-7" d="M181.37,81c4.68-.48,10.81-.72,16.31-.72a1.71,1.71,0,0,1,1.68,1.57v45.19h13.2V100.3c0-9,0-13.88.24-18.32a1.7,1.7,0,0,1,1.57-1.69c5.51,0,11.86.25,16.28.72V69.27H181.37Z" transform="translate(-15.8 -9.75)"/><path id="Trazado_901" data-name="Trazado 901" class="cls-7" d="M251,114.82V101.76h20.7V91.71H251c0-4.7,0-7.82.22-10.81a1.53,1.53,0,0,1,1.32-1.21,209.52,209.52,0,0,1,21.7.61v-11H237.82v57.78h37.24V115.91c-4.55.36-9.93.48-22.52.48a1.5,1.5,0,0,1-1.55-1.45v-.11" transform="translate(-15.8 -9.75)"/><path id="Trazado_902" data-name="Trazado 902" class="cls-7" d="M362.49,69.27H350c-3.12,9.61-12.32,32.59-19.86,50.26l-12.74-18a17,17,0,0,0,10.92-15.59c0-12.11-10-17.38-21.71-17.38-8.75,0-11.13.83-20.37.83V127h13.2v-21h3c1.57,0,2.76.6,4.76,3.23L320.44,127h19.8c1.67-4.57,3.34-9.24,5.38-13.91h20.27c1.77,4.67,3.34,9.13,4.77,13.91h13.8ZM303.75,95.89h-4.32c0-4.08.1-11.27.33-15,.13-1.21,1-2.16,4.94-2.16,5.14,0,9.21,2.52,9.21,8,0,6.11-3.71,9.13-10.18,9.13m45.82,6.82c1.8-5.15,4-10.79,6.46-16.66,2.4,5.88,4.44,11.27,6.24,16.66Z" transform="translate(-15.8 -9.75)"/></g></g></svg>